ply
format ascii 1.0
comment Me004: boundary hole: interior cell of 5x5 patch missing upper triangle
comment defect_class: boundary_hole
element vertex 25
property float x
property float y
property float z
element face 31
property list uchar int vertex_indices
end_header
0 0 0
0 1 0
0 2 0
0 3 0
0 4 0
1 0 0
1 1 0
1 2 0
1 3 0
1 4 0
2 0 0
2 1 0
2 2 0
2 3 0
2 4 0
3 0 0
3 1 0
3 2 0
3 3 0
3 4 0
4 0 0
4 1 0
4 2 0
4 3 0
4 4 0
3 0 5 6
3 0 6 1
3 1 6 7
3 1 7 2
3 2 7 8
3 2 8 3
3 3 8 9
3 3 9 4
3 5 10 11
3 5 11 6
3 6 11 12
3 6 12 7
3 7 12 13
3 7 13 8
3 8 13 14
3 8 14 9
3 10 15 16
3 10 16 11
3 11 16 17
3 11 17 12
3 12 17 18
3 13 18 19
3 13 19 14
3 15 20 21
3 15 21 16
3 16 21 22
3 16 22 17
3 17 22 23
3 17 23 18
3 18 23 24
3 18 24 19
