ply
format ascii 1.0
comment Me022: SI in annular ring (chi=0 topology): complex-topology handler branch
comment defect_class: self_intersection_ring_topology
element vertex 9
property float x
property float y
property float z
element face 7
property list uchar int vertex_indices
end_header
0.5 0 0
1.5 0 0
-0.25 0.433012701892 0
-0.75 1.29903810568 0
-0.25 -0.433012701892 0
-0.75 -1.29903810568 0
0.416666666667 0.433333333333 1
0.416666666667 0.433333333333 -1
1.41666666667 0.433333333333 0
3 0 1 3
3 0 3 2
3 2 3 5
3 2 5 4
3 4 5 1
3 4 1 0
3 6 7 8
