ply
format ascii 1.0
comment Me1180: triangulate_hole.main threshold_override: explicit threshold_distance parameter detected and used instead of bbox default; hexagonal hole (Branch 4)
comment defect_class: boundary_hole
element vertex 12
property float x
property float y
property float z
element face 6
property list uchar int vertex_indices
end_header
1 0 0
0.5 0.866025403784 0
-0.5 0.866025403784 0
-1 1.22464679915e-16 0
-0.5 -0.866025403784 0
0.5 -0.866025403784 0
2 0 0
1 1.73205080757 0
-1 1.73205080757 0
-2 2.44929359829e-16 0
-1 -1.73205080757 0
1 -1.73205080757 0
3 0 6 1
3 1 7 2
3 2 8 3
3 3 9 4
3 4 10 5
3 5 11 0
