ply
format ascii 1.0
comment Me1132: SI in 45-degree-rotated diamond mesh: OBB Aff_transformation branch
comment defect_class: self_intersection_obb_transform
element vertex 8
property float x
property float y
property float z
element face 5
property list uchar int vertex_indices
end_header
0 0 0
1.41421356237 0 0
0 1.41421356237 0
-1.41421356237 0 0
0 -1.41421356237 0
0.471404520791 0.471404520791 1
0.471404520791 0.471404520791 -1
1.47140452079 0.471404520791 0
3 0 1 2
3 0 2 3
3 0 3 4
3 0 4 1
3 5 6 7
