ply
format ascii 1.0
comment Me1130: SI in annular strip (chi=0): euler_characteristic != 1 complex-topology branch
comment defect_class: self_intersection_ring_topology
element vertex 11
property float x
property float y
property float z
element face 9
property list uchar int vertex_indices
end_header
0.5 0 0
1.5 0 0
3.06161699787e-17 0.5 0
9.18485099361e-17 1.5 0
-0.5 6.12323399574e-17 0
-1.5 1.83697019872e-16 0
-9.18485099361e-17 -0.5 0
-2.75545529808e-16 -1.5 0
0.666666666667 0.5 1
0.666666666667 0.5 -1
1.86666666667 0.5 0
3 0 1 3
3 0 3 2
3 2 3 5
3 2 5 4
3 4 5 7
3 4 7 6
3 6 7 1
3 6 1 0
3 8 9 10
