ISO-10303-21;
/* Gn009: B_SPLINE_SURFACE_WITH_KNOTS degree (9,9) 10x10 net; U knots (0.0,1.0) mults (10,10) sum=20=9+10+1 ✓; V knots (0.0,1.0) mults (10,10) sum=20=9+10+1 ✓; degree-9 overkill for a flat quad (degree-3 suffices); defect edge B_SPLINE_CURVE_WITH_KNOTS degree-2 C-1 break at t=0.5 (CP[2]=(1.5,0,0) vs CP[3]=(3.0,0,0), 1.5-unit gap) drives shape_null=True */
HEADER;
FILE_DESCRIPTION(('Gn009'),'2;1');
FILE_NAME('Gn009.stp','2026-06-17T00:00:00',(''),(''),'cad-research-suite','','');
FILE_SCHEMA(('AUTOMOTIVE_DESIGN { 1 0 10303 214 3 1 1 }'));
ENDSEC;
DATA;
#9000=APPLICATION_CONTEXT('mechanical design');
#1=CARTESIAN_POINT('',(0.0,0.0,0.0));
#2=CARTESIAN_POINT('',(0.0,0.333333333333,0.0));
#3=CARTESIAN_POINT('',(0.0,0.666666666667,0.0));
#4=CARTESIAN_POINT('',(0.0,1.0,0.0));
#5=CARTESIAN_POINT('',(0.0,1.33333333333,0.0));
#6=CARTESIAN_POINT('',(0.0,1.66666666667,0.0));
#7=CARTESIAN_POINT('',(0.0,2.0,0.0));
#8=CARTESIAN_POINT('',(0.0,2.33333333333,0.0));
#9=CARTESIAN_POINT('',(0.0,2.66666666667,0.0));
#10=CARTESIAN_POINT('',(0.0,3.0,0.0));
#11=CARTESIAN_POINT('',(0.333333333333,0.0,0.0));
#12=CARTESIAN_POINT('',(0.333333333333,0.333333333333,0.00123456790123));
#13=CARTESIAN_POINT('',(0.333333333333,0.666666666667,0.00246913580247));
#14=CARTESIAN_POINT('',(0.333333333333,1.0,0.0037037037037));
#15=CARTESIAN_POINT('',(0.333333333333,1.33333333333,0.00493827160494));
#16=CARTESIAN_POINT('',(0.333333333333,1.66666666667,0.00617283950617));
#17=CARTESIAN_POINT('',(0.333333333333,2.0,0.00740740740741));
#18=CARTESIAN_POINT('',(0.333333333333,2.33333333333,0.00864197530864));
#19=CARTESIAN_POINT('',(0.333333333333,2.66666666667,0.00987654320988));
#20=CARTESIAN_POINT('',(0.333333333333,3.0,0.0111111111111));
#21=CARTESIAN_POINT('',(0.666666666667,0.0,0.0));
#22=CARTESIAN_POINT('',(0.666666666667,0.333333333333,0.00246913580247));
#23=CARTESIAN_POINT('',(0.666666666667,0.666666666667,0.00493827160494));
#24=CARTESIAN_POINT('',(0.666666666667,1.0,0.00740740740741));
#25=CARTESIAN_POINT('',(0.666666666667,1.33333333333,0.00987654320988));
#26=CARTESIAN_POINT('',(0.666666666667,1.66666666667,0.0123456790123));
#27=CARTESIAN_POINT('',(0.666666666667,2.0,0.0148148148148));
#28=CARTESIAN_POINT('',(0.666666666667,2.33333333333,0.0172839506173));
#29=CARTESIAN_POINT('',(0.666666666667,2.66666666667,0.0197530864198));
#30=CARTESIAN_POINT('',(0.666666666667,3.0,0.0222222222222));
#31=CARTESIAN_POINT('',(1.0,0.0,0.0));
#32=CARTESIAN_POINT('',(1.0,0.333333333333,0.0037037037037));
#33=CARTESIAN_POINT('',(1.0,0.666666666667,0.00740740740741));
#34=CARTESIAN_POINT('',(1.0,1.0,0.0111111111111));
#35=CARTESIAN_POINT('',(1.0,1.33333333333,0.0148148148148));
#36=CARTESIAN_POINT('',(1.0,1.66666666667,0.0185185185185));
#37=CARTESIAN_POINT('',(1.0,2.0,0.0222222222222));
#38=CARTESIAN_POINT('',(1.0,2.33333333333,0.0259259259259));
#39=CARTESIAN_POINT('',(1.0,2.66666666667,0.0296296296296));
#40=CARTESIAN_POINT('',(1.0,3.0,0.0333333333333));
#41=CARTESIAN_POINT('',(1.33333333333,0.0,0.0));
#42=CARTESIAN_POINT('',(1.33333333333,0.333333333333,0.00493827160494));
#43=CARTESIAN_POINT('',(1.33333333333,0.666666666667,0.00987654320988));
#44=CARTESIAN_POINT('',(1.33333333333,1.0,0.0148148148148));
#45=CARTESIAN_POINT('',(1.33333333333,1.33333333333,0.0197530864198));
#46=CARTESIAN_POINT('',(1.33333333333,1.66666666667,0.0246913580247));
#47=CARTESIAN_POINT('',(1.33333333333,2.0,0.0296296296296));
#48=CARTESIAN_POINT('',(1.33333333333,2.33333333333,0.0345679012346));
#49=CARTESIAN_POINT('',(1.33333333333,2.66666666667,0.0395061728395));
#50=CARTESIAN_POINT('',(1.33333333333,3.0,0.0444444444444));
#51=CARTESIAN_POINT('',(1.66666666667,0.0,0.0));
#52=CARTESIAN_POINT('',(1.66666666667,0.333333333333,0.00617283950617));
#53=CARTESIAN_POINT('',(1.66666666667,0.666666666667,0.0123456790123));
#54=CARTESIAN_POINT('',(1.66666666667,1.0,0.0185185185185));
#55=CARTESIAN_POINT('',(1.66666666667,1.33333333333,0.0246913580247));
#56=CARTESIAN_POINT('',(1.66666666667,1.66666666667,0.0308641975309));
#57=CARTESIAN_POINT('',(1.66666666667,2.0,0.037037037037));
#58=CARTESIAN_POINT('',(1.66666666667,2.33333333333,0.0432098765432));
#59=CARTESIAN_POINT('',(1.66666666667,2.66666666667,0.0493827160494));
#60=CARTESIAN_POINT('',(1.66666666667,3.0,0.0555555555556));
#61=CARTESIAN_POINT('',(2.0,0.0,0.0));
#62=CARTESIAN_POINT('',(2.0,0.333333333333,0.00740740740741));
#63=CARTESIAN_POINT('',(2.0,0.666666666667,0.0148148148148));
#64=CARTESIAN_POINT('',(2.0,1.0,0.0222222222222));
#65=CARTESIAN_POINT('',(2.0,1.33333333333,0.0296296296296));
#66=CARTESIAN_POINT('',(2.0,1.66666666667,0.037037037037));
#67=CARTESIAN_POINT('',(2.0,2.0,0.0444444444444));
#68=CARTESIAN_POINT('',(2.0,2.33333333333,0.0518518518519));
#69=CARTESIAN_POINT('',(2.0,2.66666666667,0.0592592592593));
#70=CARTESIAN_POINT('',(2.0,3.0,0.0666666666667));
#71=CARTESIAN_POINT('',(2.33333333333,0.0,0.0));
#72=CARTESIAN_POINT('',(2.33333333333,0.333333333333,0.00864197530864));
#73=CARTESIAN_POINT('',(2.33333333333,0.666666666667,0.0172839506173));
#74=CARTESIAN_POINT('',(2.33333333333,1.0,0.0259259259259));
#75=CARTESIAN_POINT('',(2.33333333333,1.33333333333,0.0345679012346));
#76=CARTESIAN_POINT('',(2.33333333333,1.66666666667,0.0432098765432));
#77=CARTESIAN_POINT('',(2.33333333333,2.0,0.0518518518519));
#78=CARTESIAN_POINT('',(2.33333333333,2.33333333333,0.0604938271605));
#79=CARTESIAN_POINT('',(2.33333333333,2.66666666667,0.0691358024691));
#80=CARTESIAN_POINT('',(2.33333333333,3.0,0.0777777777778));
#81=CARTESIAN_POINT('',(2.66666666667,0.0,0.0));
#82=CARTESIAN_POINT('',(2.66666666667,0.333333333333,0.00987654320988));
#83=CARTESIAN_POINT('',(2.66666666667,0.666666666667,0.0197530864198));
#84=CARTESIAN_POINT('',(2.66666666667,1.0,0.0296296296296));
#85=CARTESIAN_POINT('',(2.66666666667,1.33333333333,0.0395061728395));
#86=CARTESIAN_POINT('',(2.66666666667,1.66666666667,0.0493827160494));
#87=CARTESIAN_POINT('',(2.66666666667,2.0,0.0592592592593));
#88=CARTESIAN_POINT('',(2.66666666667,2.33333333333,0.0691358024691));
#89=CARTESIAN_POINT('',(2.66666666667,2.66666666667,0.079012345679));
#90=CARTESIAN_POINT('',(2.66666666667,3.0,0.0888888888889));
#91=CARTESIAN_POINT('',(3.0,0.0,0.0));
#92=CARTESIAN_POINT('',(3.0,0.333333333333,0.0111111111111));
#93=CARTESIAN_POINT('',(3.0,0.666666666667,0.0222222222222));
#94=CARTESIAN_POINT('',(3.0,1.0,0.0333333333333));
#95=CARTESIAN_POINT('',(3.0,1.33333333333,0.0444444444444));
#96=CARTESIAN_POINT('',(3.0,1.66666666667,0.0555555555556));
#97=CARTESIAN_POINT('',(3.0,2.0,0.0666666666667));
#98=CARTESIAN_POINT('',(3.0,2.33333333333,0.0777777777778));
#99=CARTESIAN_POINT('',(3.0,2.66666666667,0.0888888888889));
#100=CARTESIAN_POINT('',(3.0,3.0,0.1));
#101=B_SPLINE_SURFACE_WITH_KNOTS('degree9_bloat',9,9,((#1,#2,#3,#4,#5,#6,#7,#8,#9,#10),(#11,#12,#13,#14,#15,#16,#17,#18,#19,#20),(#21,#22,#23,#24,#25,#26,#27,#28,#29,#30),(#31,#32,#33,#34,#35,#36,#37,#38,#39,#40),(#41,#42,#43,#44,#45,#46,#47,#48,#49,#50),(#51,#52,#53,#54,#55,#56,#57,#58,#59,#60),(#61,#62,#63,#64,#65,#66,#67,#68,#69,#70),(#71,#72,#73,#74,#75,#76,#77,#78,#79,#80),(#81,#82,#83,#84,#85,#86,#87,#88,#89,#90),(#91,#92,#93,#94,#95,#96,#97,#98,#99,#100)),.UNSPECIFIED.,.F.,.F.,.F.,(10,10),(10,10),(0.0,1.0),(0.0,1.0),.UNSPECIFIED.);
#102=(GEOMETRIC_REPRESENTATION_CONTEXT(2)PARAMETRIC_REPRESENTATION_CONTEXT()REPRESENTATION_CONTEXT('UV','2D'));
#103=CARTESIAN_POINT('',(0.0,0.0,0.0));
#104=CARTESIAN_POINT('',(3.0,0.0,0.0));
#105=CARTESIAN_POINT('',(3.0,3.0,0.0));
#106=CARTESIAN_POINT('',(0.0,3.0,0.0));
#107=VERTEX_POINT('',#103);
#108=VERTEX_POINT('',#104);
#109=VERTEX_POINT('',#105);
#110=VERTEX_POINT('',#106);
#111=CARTESIAN_POINT('',(3.0,0.0,0.0));
#112=DIRECTION('',(0.0,1.0,0.0));
#113=VECTOR('',#112,3.0);
#114=LINE('',#111,#113);
#115=CARTESIAN_POINT('',(3.0,0.0));
#116=DIRECTION('',(0.0,1.0));
#117=VECTOR('',#116,3.0);
#118=LINE('',#115,#117);
#119=DEFINITIONAL_REPRESENTATION('pcdef',(#118),#102);
#120=PCURVE('pc',#101,#119);
#121=SURFACE_CURVE('sc',#114,(#120),.PCURVE_S1.);
#122=EDGE_CURVE('ec',#108,#109,#121,.T.);
#123=CARTESIAN_POINT('',(3.0,3.0,0.0));
#124=DIRECTION('',(-1.0,0.0,0.0));
#125=VECTOR('',#124,3.0);
#126=LINE('',#123,#125);
#127=CARTESIAN_POINT('',(3.0,3.0));
#128=DIRECTION('',(-1.0,0.0));
#129=VECTOR('',#128,3.0);
#130=LINE('',#127,#129);
#131=DEFINITIONAL_REPRESENTATION('pcdef',(#130),#102);
#132=PCURVE('pc',#101,#131);
#133=SURFACE_CURVE('sc',#126,(#132),.PCURVE_S1.);
#134=EDGE_CURVE('ec',#109,#110,#133,.T.);
#135=CARTESIAN_POINT('',(0.0,3.0,0.0));
#136=DIRECTION('',(0.0,-1.0,0.0));
#137=VECTOR('',#136,3.0);
#138=LINE('',#135,#137);
#139=CARTESIAN_POINT('',(0.0,3.0));
#140=DIRECTION('',(0.0,-1.0));
#141=VECTOR('',#140,3.0);
#142=LINE('',#139,#141);
#143=DEFINITIONAL_REPRESENTATION('pcdef',(#142),#102);
#144=PCURVE('pc',#101,#143);
#145=SURFACE_CURVE('sc',#138,(#144),.PCURVE_S1.);
#146=EDGE_CURVE('ec',#110,#107,#145,.T.);
#147=CARTESIAN_POINT('',(0.0,0.0,0.0));
#148=CARTESIAN_POINT('',(0.75,0.0,0.0));
#149=CARTESIAN_POINT('',(1.5,0.0,0.0));
#150=CARTESIAN_POINT('',(3.0,0.0,0.0));
#151=CARTESIAN_POINT('',(3.5,0.0,0.0));
#152=CARTESIAN_POINT('',(3.0,0.0,0.0));
#153=B_SPLINE_CURVE_WITH_KNOTS('degree9_c1_break',2,(#147,#148,#149,#150,#151,#152),.UNSPECIFIED.,.F.,.F.,(3,3,3),(0.0,0.5,1.0),.UNSPECIFIED.);
#154=CARTESIAN_POINT('',(0.0,0.0));
#155=CARTESIAN_POINT('',(0.25,0.0));
#156=CARTESIAN_POINT('',(0.5,0.0));
#157=CARTESIAN_POINT('',(0.5,0.0));
#158=CARTESIAN_POINT('',(0.75,0.0));
#159=CARTESIAN_POINT('',(1.0,0.0));
#160=B_SPLINE_CURVE_WITH_KNOTS('degree9_c1_break_pc',2,(#154,#155,#156,#157,#158,#159),.UNSPECIFIED.,.F.,.F.,(3,3,3),(0.0,0.5,1.0),.UNSPECIFIED.);
#161=DEFINITIONAL_REPRESENTATION('degree9_pc_def',(#160),#102);
#162=PCURVE('degree9_pc_ent',#101,#161);
#163=SURFACE_CURVE('degree9_sc',#153,(#162),.PCURVE_S1.);
#164=EDGE_CURVE('degree9_edge',#107,#108,#163,.T.);
#165=ORIENTED_EDGE('',$,$,#164,.T.);
#166=ORIENTED_EDGE('',$,$,#122,.T.);
#167=ORIENTED_EDGE('',$,$,#134,.T.);
#168=ORIENTED_EDGE('',$,$,#146,.T.);
#169=EDGE_LOOP('',(#165,#166,#167,#168));
#170=FACE_OUTER_BOUND('',#169,.T.);
#171=ADVANCED_FACE('',(#170),#101,.T.);
#172=OPEN_SHELL('',(#171));
#173=SHELL_BASED_SURFACE_MODEL('',(#172));
#9050=PRODUCT_CONTEXT('',#9000,'mechanical');
#9051=PRODUCT('Gn009','Gn009','',(#9050));
#9052=PRODUCT_DEFINITION_FORMATION('','',#9051);
#9053=PRODUCT_DEFINITION_CONTEXT('part definition',#9000,'design');
#9054=PRODUCT_DEFINITION('','','',#9052,#9053);
#9055=PRODUCT_DEFINITION_SHAPE('','','',#9054);
#9056=(LENGTH_UNIT()NAMED_UNIT(*)SI_UNIT(.MILLI.,.METRE.));
#9057=(NAMED_UNIT(*)PLANE_ANGLE_UNIT()SI_UNIT($,.RADIAN.));
#9058=(NAMED_UNIT(*)SI_UNIT($,.STERADIAN.)SOLID_ANGLE_UNIT());
#9059=UNCERTAINTY_MEASURE_WITH_UNIT(LENGTH_MEASURE(1.0E-7),#9056,'distance_accuracy_value','');
#9060=(GEOMETRIC_REPRESENTATION_CONTEXT(3)GLOBAL_UNCERTAINTY_ASSIGNED_CONTEXT((#9059))GLOBAL_UNIT_ASSIGNED_CONTEXT((#9056,#9057,#9058))REPRESENTATION_CONTEXT('','3D'));
#9061=MANIFOLD_SURFACE_SHAPE_REPRESENTATION('',(#173),#9060);
#9062=SHAPE_DEFINITION_REPRESENTATION(#9055,#9061);
ENDSEC;
END-ISO-10303-21;
