ISO-10303-21;
/* Gn017: B_SPLINE_SURFACE_WITH_KNOTS degree (3,3) 6x4 net; U knots (0.0,0.333,0.667,1.0) mults (4,1,1,4) sum=10=3+6+1 ✓; V knots (0.0,1.0) mults (4,4) sum=8=3+4+1 ✓; two interior U-knots at t=1/3 and t=2/3 require Bezier split for legacy receivers; split at interior knots yields 3 cubic Bezier patches (mult=4=degree+1 at endpoints); BEZIER_SURFACE stub present as second face (expected output form); defect edge B_SPLINE_CURVE_WITH_KNOTS degree-2 C-1 break at t=0.5 (CP[2]=(1.5,0,0) vs CP[3]=(3.0,0,0), 1.5-unit gap) drives shape_null=True */
HEADER;
FILE_DESCRIPTION(('Gn017'),'2;1');
FILE_NAME('Gn017.stp','2026-06-17T00:00:00',(''),(''),'cad-research-suite','','');
FILE_SCHEMA(('AUTOMOTIVE_DESIGN { 1 0 10303 214 3 1 1 }'));
ENDSEC;
DATA;
#9000=APPLICATION_CONTEXT('mechanical design');
#1=CARTESIAN_POINT('',(0.0,0.0,0.0));
#2=CARTESIAN_POINT('',(0.0,0.666666666667,0.0));
#3=CARTESIAN_POINT('',(0.0,1.33333333333,0.0));
#4=CARTESIAN_POINT('',(0.0,2.0,0.0));
#5=CARTESIAN_POINT('',(0.6,0.0,0.0));
#6=CARTESIAN_POINT('',(0.6,0.666666666667,0.170666666667));
#7=CARTESIAN_POINT('',(0.6,1.33333333333,0.170666666667));
#8=CARTESIAN_POINT('',(0.6,2.0,0.0));
#9=CARTESIAN_POINT('',(1.2,0.0,0.0));
#10=CARTESIAN_POINT('',(1.2,0.666666666667,0.256));
#11=CARTESIAN_POINT('',(1.2,1.33333333333,0.256));
#12=CARTESIAN_POINT('',(1.2,2.0,0.0));
#13=CARTESIAN_POINT('',(1.8,0.0,0.0));
#14=CARTESIAN_POINT('',(1.8,0.666666666667,0.256));
#15=CARTESIAN_POINT('',(1.8,1.33333333333,0.256));
#16=CARTESIAN_POINT('',(1.8,2.0,0.0));
#17=CARTESIAN_POINT('',(2.4,0.0,0.0));
#18=CARTESIAN_POINT('',(2.4,0.666666666667,0.170666666667));
#19=CARTESIAN_POINT('',(2.4,1.33333333333,0.170666666667));
#20=CARTESIAN_POINT('',(2.4,2.0,0.0));
#21=CARTESIAN_POINT('',(3.0,0.0,0.0));
#22=CARTESIAN_POINT('',(3.0,0.666666666667,0.0));
#23=CARTESIAN_POINT('',(3.0,1.33333333333,0.0));
#24=CARTESIAN_POINT('',(3.0,2.0,0.0));
#25=B_SPLINE_SURFACE_WITH_KNOTS('bezier_split_needed',3,3,((#1,#2,#3,#4),(#5,#6,#7,#8),(#9,#10,#11,#12),(#13,#14,#15,#16),(#17,#18,#19,#20),(#21,#22,#23,#24)),.UNSPECIFIED.,.F.,.F.,.F.,(4,1,1,4),(4,4),(0.0,0.333,0.667,1.0),(0.0,1.0),.UNSPECIFIED.);
#26=CARTESIAN_POINT('',(0.0,0.0,0.0));
#27=CARTESIAN_POINT('',(0.0,0.666666666667,0.0));
#28=CARTESIAN_POINT('',(0.0,1.33333333333,0.0));
#29=CARTESIAN_POINT('',(0.0,2.0,0.0));
#30=CARTESIAN_POINT('',(0.333333333333,0.0,0.0));
#31=CARTESIAN_POINT('',(0.333333333333,0.666666666667,0.0));
#32=CARTESIAN_POINT('',(0.333333333333,1.33333333333,0.0));
#33=CARTESIAN_POINT('',(0.333333333333,2.0,0.0));
#34=CARTESIAN_POINT('',(0.666666666667,0.0,0.0));
#35=CARTESIAN_POINT('',(0.666666666667,0.666666666667,0.0));
#36=CARTESIAN_POINT('',(0.666666666667,1.33333333333,0.0));
#37=CARTESIAN_POINT('',(0.666666666667,2.0,0.0));
#38=CARTESIAN_POINT('',(1.0,0.0,0.0));
#39=CARTESIAN_POINT('',(1.0,0.666666666667,0.0));
#40=CARTESIAN_POINT('',(1.0,1.33333333333,0.0));
#41=CARTESIAN_POINT('',(1.0,2.0,0.0));
#42=B_SPLINE_SURFACE_WITH_KNOTS('BEZIER_patch_0',3,3,((#26,#27,#28,#29),(#30,#31,#32,#33),(#34,#35,#36,#37),(#38,#39,#40,#41)),.BEZIER_KNOT_TYPE.,.F.,.F.,.F.,(4,4),(4,4),(0.0,1.0),(0.0,1.0),.BEZIER_KNOT_TYPE.);
#43=(GEOMETRIC_REPRESENTATION_CONTEXT(2)PARAMETRIC_REPRESENTATION_CONTEXT()REPRESENTATION_CONTEXT('UV','2D'));
#44=CARTESIAN_POINT('',(0.0,0.0,0.0));
#45=CARTESIAN_POINT('',(3.0,0.0,0.0));
#46=CARTESIAN_POINT('',(3.0,2.0,0.0));
#47=CARTESIAN_POINT('',(0.0,2.0,0.0));
#48=VERTEX_POINT('',#44);
#49=VERTEX_POINT('',#45);
#50=VERTEX_POINT('',#46);
#51=VERTEX_POINT('',#47);
#52=CARTESIAN_POINT('',(3.0,0.0,0.0));
#53=DIRECTION('',(0.0,1.0,0.0));
#54=VECTOR('',#53,2.0);
#55=LINE('',#52,#54);
#56=CARTESIAN_POINT('',(1.0,0.0));
#57=DIRECTION('',(0.0,1.0));
#58=VECTOR('',#57,2.0);
#59=LINE('',#56,#58);
#60=DEFINITIONAL_REPRESENTATION('pcdef',(#59),#43);
#61=PCURVE('pc',#25,#60);
#62=SURFACE_CURVE('sc',#55,(#61),.PCURVE_S1.);
#63=EDGE_CURVE('ec',#49,#50,#62,.T.);
#64=CARTESIAN_POINT('',(3.0,2.0,0.0));
#65=DIRECTION('',(-1.0,0.0,0.0));
#66=VECTOR('',#65,3.0);
#67=LINE('',#64,#66);
#68=CARTESIAN_POINT('',(1.0,1.0));
#69=DIRECTION('',(-1.0,0.0));
#70=VECTOR('',#69,3.0);
#71=LINE('',#68,#70);
#72=DEFINITIONAL_REPRESENTATION('pcdef',(#71),#43);
#73=PCURVE('pc',#25,#72);
#74=SURFACE_CURVE('sc',#67,(#73),.PCURVE_S1.);
#75=EDGE_CURVE('ec',#50,#51,#74,.T.);
#76=CARTESIAN_POINT('',(0.0,2.0,0.0));
#77=DIRECTION('',(0.0,-1.0,0.0));
#78=VECTOR('',#77,2.0);
#79=LINE('',#76,#78);
#80=CARTESIAN_POINT('',(0.0,1.0));
#81=DIRECTION('',(0.0,-1.0));
#82=VECTOR('',#81,2.0);
#83=LINE('',#80,#82);
#84=DEFINITIONAL_REPRESENTATION('pcdef',(#83),#43);
#85=PCURVE('pc',#25,#84);
#86=SURFACE_CURVE('sc',#79,(#85),.PCURVE_S1.);
#87=EDGE_CURVE('ec',#51,#48,#86,.T.);
#88=CARTESIAN_POINT('',(0.0,0.0,0.0));
#89=CARTESIAN_POINT('',(0.75,0.0,0.0));
#90=CARTESIAN_POINT('',(1.5,0.0,0.0));
#91=CARTESIAN_POINT('',(3.0,0.0,0.0));
#92=CARTESIAN_POINT('',(3.5,0.0,0.0));
#93=CARTESIAN_POINT('',(3.0,0.0,0.0));
#94=B_SPLINE_CURVE_WITH_KNOTS('bezier_split_c1_break',2,(#88,#89,#90,#91,#92,#93),.UNSPECIFIED.,.F.,.F.,(3,3,3),(0.0,0.5,1.0),.UNSPECIFIED.);
#95=CARTESIAN_POINT('',(0.0,0.0));
#96=CARTESIAN_POINT('',(0.25,0.0));
#97=CARTESIAN_POINT('',(0.5,0.0));
#98=CARTESIAN_POINT('',(0.5,0.0));
#99=CARTESIAN_POINT('',(0.75,0.0));
#100=CARTESIAN_POINT('',(1.0,0.0));
#101=B_SPLINE_CURVE_WITH_KNOTS('bezier_split_c1_break_pc',2,(#95,#96,#97,#98,#99,#100),.UNSPECIFIED.,.F.,.F.,(3,3,3),(0.0,0.5,1.0),.UNSPECIFIED.);
#102=DEFINITIONAL_REPRESENTATION('bezier_split_pc_def',(#101),#43);
#103=PCURVE('bezier_split_pc_ent',#25,#102);
#104=SURFACE_CURVE('bezier_split_sc',#94,(#103),.PCURVE_S1.);
#105=EDGE_CURVE('bezier_split_edge',#48,#49,#104,.T.);
#106=ORIENTED_EDGE('',$,$,#105,.T.);
#107=ORIENTED_EDGE('',$,$,#63,.T.);
#108=ORIENTED_EDGE('',$,$,#75,.T.);
#109=ORIENTED_EDGE('',$,$,#87,.T.);
#110=EDGE_LOOP('',(#106,#107,#108,#109));
#111=FACE_OUTER_BOUND('',#110,.T.);
#112=ADVANCED_FACE('',(#111),#25,.T.);
#113=CARTESIAN_POINT('',(0.0,0.0,0.0));
#114=VERTEX_POINT('',#113);
#115=CARTESIAN_POINT('',(0.333,0.0,0.0));
#116=VERTEX_POINT('',#115);
#117=CARTESIAN_POINT('',(0.333,2.0,0.0));
#118=VERTEX_POINT('',#117);
#119=CARTESIAN_POINT('',(0.0,2.0,0.0));
#120=VERTEX_POINT('',#119);
#121=CARTESIAN_POINT('',(0.333,0.0,0.0));
#122=DIRECTION('',(0.0,1.0,0.0));
#123=VECTOR('',#122,2.0);
#124=LINE('',#121,#123);
#125=CARTESIAN_POINT('',(1.0,0.0));
#126=DIRECTION('',(0.0,1.0));
#127=VECTOR('',#126,2.0);
#128=LINE('',#125,#127);
#129=DEFINITIONAL_REPRESENTATION('pcdef',(#128),#43);
#130=PCURVE('pc',#42,#129);
#131=SURFACE_CURVE('sc',#124,(#130),.PCURVE_S1.);
#132=EDGE_CURVE('ec',#116,#118,#131,.T.);
#133=CARTESIAN_POINT('',(0.333,2.0,0.0));
#134=DIRECTION('',(-1.0,0.0,0.0));
#135=VECTOR('',#134,0.333);
#136=LINE('',#133,#135);
#137=CARTESIAN_POINT('',(1.0,1.0));
#138=DIRECTION('',(-1.0,0.0));
#139=VECTOR('',#138,0.333);
#140=LINE('',#137,#139);
#141=DEFINITIONAL_REPRESENTATION('pcdef',(#140),#43);
#142=PCURVE('pc',#42,#141);
#143=SURFACE_CURVE('sc',#136,(#142),.PCURVE_S1.);
#144=EDGE_CURVE('ec',#118,#120,#143,.T.);
#145=CARTESIAN_POINT('',(0.0,2.0,0.0));
#146=DIRECTION('',(0.0,-1.0,0.0));
#147=VECTOR('',#146,2.0);
#148=LINE('',#145,#147);
#149=CARTESIAN_POINT('',(0.0,1.0));
#150=DIRECTION('',(0.0,-1.0));
#151=VECTOR('',#150,2.0);
#152=LINE('',#149,#151);
#153=DEFINITIONAL_REPRESENTATION('pcdef',(#152),#43);
#154=PCURVE('pc',#42,#153);
#155=SURFACE_CURVE('sc',#148,(#154),.PCURVE_S1.);
#156=EDGE_CURVE('ec',#120,#114,#155,.T.);
#157=CARTESIAN_POINT('',(0.0,0.0,0.0));
#158=DIRECTION('',(1.0,0.0,0.0));
#159=VECTOR('',#158,0.333);
#160=LINE('',#157,#159);
#161=CARTESIAN_POINT('',(0.0,0.0));
#162=DIRECTION('',(1.0,0.0));
#163=VECTOR('',#162,0.333);
#164=LINE('',#161,#163);
#165=DEFINITIONAL_REPRESENTATION('pcdef',(#164),#43);
#166=PCURVE('pc',#42,#165);
#167=SURFACE_CURVE('sc',#160,(#166),.PCURVE_S1.);
#168=EDGE_CURVE('ec',#114,#116,#167,.T.);
#169=ORIENTED_EDGE('',$,$,#168,.T.);
#170=ORIENTED_EDGE('',$,$,#132,.T.);
#171=ORIENTED_EDGE('',$,$,#144,.T.);
#172=ORIENTED_EDGE('',$,$,#156,.T.);
#173=EDGE_LOOP('',(#169,#170,#171,#172));
#174=FACE_OUTER_BOUND('',#173,.T.);
#175=ADVANCED_FACE('',(#174),#42,.T.);
#176=OPEN_SHELL('',(#112,#175));
#177=SHELL_BASED_SURFACE_MODEL('',(#176));
#9050=PRODUCT_CONTEXT('',#9000,'mechanical');
#9051=PRODUCT('Gn017','Gn017','',(#9050));
#9052=PRODUCT_DEFINITION_FORMATION('','',#9051);
#9053=PRODUCT_DEFINITION_CONTEXT('part definition',#9000,'design');
#9054=PRODUCT_DEFINITION('','','',#9052,#9053);
#9055=PRODUCT_DEFINITION_SHAPE('','','',#9054);
#9056=(LENGTH_UNIT()NAMED_UNIT(*)SI_UNIT(.MILLI.,.METRE.));
#9057=(NAMED_UNIT(*)PLANE_ANGLE_UNIT()SI_UNIT($,.RADIAN.));
#9058=(NAMED_UNIT(*)SI_UNIT($,.STERADIAN.)SOLID_ANGLE_UNIT());
#9059=UNCERTAINTY_MEASURE_WITH_UNIT(LENGTH_MEASURE(1.0E-7),#9056,'distance_accuracy_value','');
#9060=(GEOMETRIC_REPRESENTATION_CONTEXT(3)GLOBAL_UNCERTAINTY_ASSIGNED_CONTEXT((#9059))GLOBAL_UNIT_ASSIGNED_CONTEXT((#9056,#9057,#9058))REPRESENTATION_CONTEXT('','3D'));
#9061=MANIFOLD_SURFACE_SHAPE_REPRESENTATION('',(#177),#9060);
#9062=SHAPE_DEFINITION_REPRESENTATION(#9055,#9061);
ENDSEC;
END-ISO-10303-21;
