ISO-10303-21;
/* Gn026: B_SPLINE_CURVE_WITH_KNOTS degree-9 10-CP clamped Bezier; knots (0.0,1.0) mults (10,10) sum=20=9+10+1 ✓; full-degree single Bezier segment — degree-9 overkill; downstream ShapeCustom_BSplineRestriction silently ships sub-spec C2 result; defect edge B_SPLINE_CURVE_WITH_KNOTS degree-2 C-1 break at t=0.5 (CP[2]=(2.5,0,0) vs CP[3]=(4.0,0,0), 1.5-unit gap) drives shape_null=True */
HEADER;
FILE_DESCRIPTION(('Gn026'),'2;1');
FILE_NAME('Gn026.stp','2026-06-17T00:00:00',(''),(''),'cad-research-suite','','');
FILE_SCHEMA(('AUTOMOTIVE_DESIGN { 1 0 10303 214 3 1 1 }'));
ENDSEC;
DATA;
#9000=APPLICATION_CONTEXT('mechanical design');
#1=CARTESIAN_POINT('',(0.0,0.0,0.0));
#2=DIRECTION('',(0.0,0.0,1.0));
#3=DIRECTION('',(1.0,0.0,0.0));
#4=AXIS2_PLACEMENT_3D('plane_ax',#1,#2,#3);
#5=PLANE('deg9_plane',#4);
#6=(GEOMETRIC_REPRESENTATION_CONTEXT(2)PARAMETRIC_REPRESENTATION_CONTEXT()REPRESENTATION_CONTEXT('UV','2D'));
#7=CARTESIAN_POINT('',(0.0,0.0,0.0));
#8=CARTESIAN_POINT('',(0.0,0.555555555556,0.0));
#9=CARTESIAN_POINT('',(0.0,1.11111111111,0.0));
#10=CARTESIAN_POINT('',(0.0,1.66666666667,0.0));
#11=CARTESIAN_POINT('',(0.0,2.22222222222,0.0));
#12=CARTESIAN_POINT('',(0.0,2.77777777778,0.0));
#13=CARTESIAN_POINT('',(0.0,3.33333333333,0.0));
#14=CARTESIAN_POINT('',(0.0,3.88888888889,0.0));
#15=CARTESIAN_POINT('',(0.0,4.44444444444,0.0));
#16=CARTESIAN_POINT('',(0.0,5.0,0.0));
#17=CARTESIAN_POINT('',(0.555555555556,0.0,0.0));
#18=CARTESIAN_POINT('',(0.555555555556,0.555555555556,0.000617283950617));
#19=CARTESIAN_POINT('',(0.555555555556,1.11111111111,0.00123456790123));
#20=CARTESIAN_POINT('',(0.555555555556,1.66666666667,0.00185185185185));
#21=CARTESIAN_POINT('',(0.555555555556,2.22222222222,0.00246913580247));
#22=CARTESIAN_POINT('',(0.555555555556,2.77777777778,0.00308641975309));
#23=CARTESIAN_POINT('',(0.555555555556,3.33333333333,0.0037037037037));
#24=CARTESIAN_POINT('',(0.555555555556,3.88888888889,0.00432098765432));
#25=CARTESIAN_POINT('',(0.555555555556,4.44444444444,0.00493827160494));
#26=CARTESIAN_POINT('',(0.555555555556,5.0,0.00555555555556));
#27=CARTESIAN_POINT('',(1.11111111111,0.0,0.0));
#28=CARTESIAN_POINT('',(1.11111111111,0.555555555556,0.00123456790123));
#29=CARTESIAN_POINT('',(1.11111111111,1.11111111111,0.00246913580247));
#30=CARTESIAN_POINT('',(1.11111111111,1.66666666667,0.0037037037037));
#31=CARTESIAN_POINT('',(1.11111111111,2.22222222222,0.00493827160494));
#32=CARTESIAN_POINT('',(1.11111111111,2.77777777778,0.00617283950617));
#33=CARTESIAN_POINT('',(1.11111111111,3.33333333333,0.00740740740741));
#34=CARTESIAN_POINT('',(1.11111111111,3.88888888889,0.00864197530864));
#35=CARTESIAN_POINT('',(1.11111111111,4.44444444444,0.00987654320988));
#36=CARTESIAN_POINT('',(1.11111111111,5.0,0.0111111111111));
#37=CARTESIAN_POINT('',(1.66666666667,0.0,0.0));
#38=CARTESIAN_POINT('',(1.66666666667,0.555555555556,0.00185185185185));
#39=CARTESIAN_POINT('',(1.66666666667,1.11111111111,0.0037037037037));
#40=CARTESIAN_POINT('',(1.66666666667,1.66666666667,0.00555555555556));
#41=CARTESIAN_POINT('',(1.66666666667,2.22222222222,0.00740740740741));
#42=CARTESIAN_POINT('',(1.66666666667,2.77777777778,0.00925925925926));
#43=CARTESIAN_POINT('',(1.66666666667,3.33333333333,0.0111111111111));
#44=CARTESIAN_POINT('',(1.66666666667,3.88888888889,0.012962962963));
#45=CARTESIAN_POINT('',(1.66666666667,4.44444444444,0.0148148148148));
#46=CARTESIAN_POINT('',(1.66666666667,5.0,0.0166666666667));
#47=CARTESIAN_POINT('',(2.22222222222,0.0,0.0));
#48=CARTESIAN_POINT('',(2.22222222222,0.555555555556,0.00246913580247));
#49=CARTESIAN_POINT('',(2.22222222222,1.11111111111,0.00493827160494));
#50=CARTESIAN_POINT('',(2.22222222222,1.66666666667,0.00740740740741));
#51=CARTESIAN_POINT('',(2.22222222222,2.22222222222,0.00987654320988));
#52=CARTESIAN_POINT('',(2.22222222222,2.77777777778,0.0123456790123));
#53=CARTESIAN_POINT('',(2.22222222222,3.33333333333,0.0148148148148));
#54=CARTESIAN_POINT('',(2.22222222222,3.88888888889,0.0172839506173));
#55=CARTESIAN_POINT('',(2.22222222222,4.44444444444,0.0197530864198));
#56=CARTESIAN_POINT('',(2.22222222222,5.0,0.0222222222222));
#57=CARTESIAN_POINT('',(2.77777777778,0.0,0.0));
#58=CARTESIAN_POINT('',(2.77777777778,0.555555555556,0.00308641975309));
#59=CARTESIAN_POINT('',(2.77777777778,1.11111111111,0.00617283950617));
#60=CARTESIAN_POINT('',(2.77777777778,1.66666666667,0.00925925925926));
#61=CARTESIAN_POINT('',(2.77777777778,2.22222222222,0.0123456790123));
#62=CARTESIAN_POINT('',(2.77777777778,2.77777777778,0.0154320987654));
#63=CARTESIAN_POINT('',(2.77777777778,3.33333333333,0.0185185185185));
#64=CARTESIAN_POINT('',(2.77777777778,3.88888888889,0.0216049382716));
#65=CARTESIAN_POINT('',(2.77777777778,4.44444444444,0.0246913580247));
#66=CARTESIAN_POINT('',(2.77777777778,5.0,0.0277777777778));
#67=CARTESIAN_POINT('',(3.33333333333,0.0,0.0));
#68=CARTESIAN_POINT('',(3.33333333333,0.555555555556,0.0037037037037));
#69=CARTESIAN_POINT('',(3.33333333333,1.11111111111,0.00740740740741));
#70=CARTESIAN_POINT('',(3.33333333333,1.66666666667,0.0111111111111));
#71=CARTESIAN_POINT('',(3.33333333333,2.22222222222,0.0148148148148));
#72=CARTESIAN_POINT('',(3.33333333333,2.77777777778,0.0185185185185));
#73=CARTESIAN_POINT('',(3.33333333333,3.33333333333,0.0222222222222));
#74=CARTESIAN_POINT('',(3.33333333333,3.88888888889,0.0259259259259));
#75=CARTESIAN_POINT('',(3.33333333333,4.44444444444,0.0296296296296));
#76=CARTESIAN_POINT('',(3.33333333333,5.0,0.0333333333333));
#77=CARTESIAN_POINT('',(3.88888888889,0.0,0.0));
#78=CARTESIAN_POINT('',(3.88888888889,0.555555555556,0.00432098765432));
#79=CARTESIAN_POINT('',(3.88888888889,1.11111111111,0.00864197530864));
#80=CARTESIAN_POINT('',(3.88888888889,1.66666666667,0.012962962963));
#81=CARTESIAN_POINT('',(3.88888888889,2.22222222222,0.0172839506173));
#82=CARTESIAN_POINT('',(3.88888888889,2.77777777778,0.0216049382716));
#83=CARTESIAN_POINT('',(3.88888888889,3.33333333333,0.0259259259259));
#84=CARTESIAN_POINT('',(3.88888888889,3.88888888889,0.0302469135802));
#85=CARTESIAN_POINT('',(3.88888888889,4.44444444444,0.0345679012346));
#86=CARTESIAN_POINT('',(3.88888888889,5.0,0.0388888888889));
#87=CARTESIAN_POINT('',(4.44444444444,0.0,0.0));
#88=CARTESIAN_POINT('',(4.44444444444,0.555555555556,0.00493827160494));
#89=CARTESIAN_POINT('',(4.44444444444,1.11111111111,0.00987654320988));
#90=CARTESIAN_POINT('',(4.44444444444,1.66666666667,0.0148148148148));
#91=CARTESIAN_POINT('',(4.44444444444,2.22222222222,0.0197530864198));
#92=CARTESIAN_POINT('',(4.44444444444,2.77777777778,0.0246913580247));
#93=CARTESIAN_POINT('',(4.44444444444,3.33333333333,0.0296296296296));
#94=CARTESIAN_POINT('',(4.44444444444,3.88888888889,0.0345679012346));
#95=CARTESIAN_POINT('',(4.44444444444,4.44444444444,0.0395061728395));
#96=CARTESIAN_POINT('',(4.44444444444,5.0,0.0444444444444));
#97=CARTESIAN_POINT('',(5.0,0.0,0.0));
#98=CARTESIAN_POINT('',(5.0,0.555555555556,0.00555555555556));
#99=CARTESIAN_POINT('',(5.0,1.11111111111,0.0111111111111));
#100=CARTESIAN_POINT('',(5.0,1.66666666667,0.0166666666667));
#101=CARTESIAN_POINT('',(5.0,2.22222222222,0.0222222222222));
#102=CARTESIAN_POINT('',(5.0,2.77777777778,0.0277777777778));
#103=CARTESIAN_POINT('',(5.0,3.33333333333,0.0333333333333));
#104=CARTESIAN_POINT('',(5.0,3.88888888889,0.0388888888889));
#105=CARTESIAN_POINT('',(5.0,4.44444444444,0.0444444444444));
#106=CARTESIAN_POINT('',(5.0,5.0,0.05));
#107=B_SPLINE_SURFACE_WITH_KNOTS('deg9_restriction_surface',9,9,((#7,#8,#9,#10,#11,#12,#13,#14,#15,#16),(#17,#18,#19,#20,#21,#22,#23,#24,#25,#26),(#27,#28,#29,#30,#31,#32,#33,#34,#35,#36),(#37,#38,#39,#40,#41,#42,#43,#44,#45,#46),(#47,#48,#49,#50,#51,#52,#53,#54,#55,#56),(#57,#58,#59,#60,#61,#62,#63,#64,#65,#66),(#67,#68,#69,#70,#71,#72,#73,#74,#75,#76),(#77,#78,#79,#80,#81,#82,#83,#84,#85,#86),(#87,#88,#89,#90,#91,#92,#93,#94,#95,#96),(#97,#98,#99,#100,#101,#102,#103,#104,#105,#106)),.UNSPECIFIED.,.F.,.F.,.F.,(10,10),(10,10),(0.0,1.0),(0.0,1.0),.UNSPECIFIED.);
#108=CARTESIAN_POINT('',(0.0,0.0,0.0));
#109=CARTESIAN_POINT('',(0.555555555556,0.197530864198,0.0));
#110=CARTESIAN_POINT('',(1.11111111111,0.345679012346,0.0));
#111=CARTESIAN_POINT('',(1.66666666667,0.444444444444,0.0));
#112=CARTESIAN_POINT('',(2.22222222222,0.493827160494,0.0));
#113=CARTESIAN_POINT('',(2.77777777778,0.493827160494,0.0));
#114=CARTESIAN_POINT('',(3.33333333333,0.444444444444,0.0));
#115=CARTESIAN_POINT('',(3.88888888889,0.345679012346,0.0));
#116=CARTESIAN_POINT('',(4.44444444444,0.197530864198,0.0));
#117=CARTESIAN_POINT('',(5.0,0.0,0.0));
#118=B_SPLINE_CURVE_WITH_KNOTS('deg9_bezier_curve',9,(#108,#109,#110,#111,#112,#113,#114,#115,#116,#117),.UNSPECIFIED.,.F.,.F.,(10,10),(0.0,1.0),.UNSPECIFIED.);
#119=CARTESIAN_POINT('',(0.0,0.0,0.0));
#120=CARTESIAN_POINT('',(5.0,0.0,0.0));
#121=CARTESIAN_POINT('',(5.0,5.0,0.0));
#122=CARTESIAN_POINT('',(0.0,5.0,0.0));
#123=VERTEX_POINT('',#119);
#124=VERTEX_POINT('',#120);
#125=VERTEX_POINT('',#121);
#126=VERTEX_POINT('',#122);
#127=CARTESIAN_POINT('',(5.0,0.0,0.0));
#128=DIRECTION('',(0.0,1.0,0.0));
#129=VECTOR('',#128,5.0);
#130=LINE('',#127,#129);
#131=CARTESIAN_POINT('',(1.0,0.0));
#132=DIRECTION('',(0.0,1.0));
#133=VECTOR('',#132,5.0);
#134=LINE('',#131,#133);
#135=DEFINITIONAL_REPRESENTATION('pcdef',(#134),#6);
#136=PCURVE('pc',#107,#135);
#137=SURFACE_CURVE('sc',#130,(#136),.PCURVE_S1.);
#138=EDGE_CURVE('ec',#124,#125,#137,.T.);
#139=CARTESIAN_POINT('',(5.0,5.0,0.0));
#140=DIRECTION('',(-1.0,0.0,0.0));
#141=VECTOR('',#140,5.0);
#142=LINE('',#139,#141);
#143=CARTESIAN_POINT('',(1.0,1.0));
#144=DIRECTION('',(-1.0,0.0));
#145=VECTOR('',#144,5.0);
#146=LINE('',#143,#145);
#147=DEFINITIONAL_REPRESENTATION('pcdef',(#146),#6);
#148=PCURVE('pc',#107,#147);
#149=SURFACE_CURVE('sc',#142,(#148),.PCURVE_S1.);
#150=EDGE_CURVE('ec',#125,#126,#149,.T.);
#151=CARTESIAN_POINT('',(0.0,5.0,0.0));
#152=DIRECTION('',(0.0,-1.0,0.0));
#153=VECTOR('',#152,5.0);
#154=LINE('',#151,#153);
#155=CARTESIAN_POINT('',(0.0,1.0));
#156=DIRECTION('',(0.0,-1.0));
#157=VECTOR('',#156,5.0);
#158=LINE('',#155,#157);
#159=DEFINITIONAL_REPRESENTATION('pcdef',(#158),#6);
#160=PCURVE('pc',#107,#159);
#161=SURFACE_CURVE('sc',#154,(#160),.PCURVE_S1.);
#162=EDGE_CURVE('ec',#126,#123,#161,.T.);
#163=CARTESIAN_POINT('',(0.0,0.0,0.0));
#164=CARTESIAN_POINT('',(1.25,0.0,0.0));
#165=CARTESIAN_POINT('',(2.5,0.0,0.0));
#166=CARTESIAN_POINT('',(4.0,0.0,0.0));
#167=CARTESIAN_POINT('',(4.75,0.0,0.0));
#168=CARTESIAN_POINT('',(5.0,0.0,0.0));
#169=B_SPLINE_CURVE_WITH_KNOTS('deg9_c1_break',2,(#163,#164,#165,#166,#167,#168),.UNSPECIFIED.,.F.,.F.,(3,3,3),(0.0,0.5,1.0),.UNSPECIFIED.);
#170=CARTESIAN_POINT('',(0.0,0.0));
#171=CARTESIAN_POINT('',(0.25,0.0));
#172=CARTESIAN_POINT('',(0.5,0.0));
#173=CARTESIAN_POINT('',(0.5,0.0));
#174=CARTESIAN_POINT('',(0.75,0.0));
#175=CARTESIAN_POINT('',(1.0,0.0));
#176=B_SPLINE_CURVE_WITH_KNOTS('deg9_c1_break_pc',2,(#170,#171,#172,#173,#174,#175),.UNSPECIFIED.,.F.,.F.,(3,3,3),(0.0,0.5,1.0),.UNSPECIFIED.);
#177=DEFINITIONAL_REPRESENTATION('deg9_pc_def',(#176),#6);
#178=PCURVE('deg9_pc_ent',#107,#177);
#179=SURFACE_CURVE('deg9_sc',#169,(#178),.PCURVE_S1.);
#180=EDGE_CURVE('deg9_edge',#123,#124,#179,.T.);
#181=ORIENTED_EDGE('',$,$,#180,.T.);
#182=ORIENTED_EDGE('',$,$,#138,.T.);
#183=ORIENTED_EDGE('',$,$,#150,.T.);
#184=ORIENTED_EDGE('',$,$,#162,.T.);
#185=EDGE_LOOP('',(#181,#182,#183,#184));
#186=FACE_OUTER_BOUND('',#185,.T.);
#187=ADVANCED_FACE('',(#186),#107,.T.);
#188=OPEN_SHELL('',(#187));
#189=SHELL_BASED_SURFACE_MODEL('',(#188));
#9050=PRODUCT_CONTEXT('',#9000,'mechanical');
#9051=PRODUCT('Gn026','Gn026','',(#9050));
#9052=PRODUCT_DEFINITION_FORMATION('','',#9051);
#9053=PRODUCT_DEFINITION_CONTEXT('part definition',#9000,'design');
#9054=PRODUCT_DEFINITION('','','',#9052,#9053);
#9055=PRODUCT_DEFINITION_SHAPE('','','',#9054);
#9056=(LENGTH_UNIT()NAMED_UNIT(*)SI_UNIT(.MILLI.,.METRE.));
#9057=(NAMED_UNIT(*)PLANE_ANGLE_UNIT()SI_UNIT($,.RADIAN.));
#9058=(NAMED_UNIT(*)SI_UNIT($,.STERADIAN.)SOLID_ANGLE_UNIT());
#9059=UNCERTAINTY_MEASURE_WITH_UNIT(LENGTH_MEASURE(1.0E-7),#9056,'distance_accuracy_value','');
#9060=(GEOMETRIC_REPRESENTATION_CONTEXT(3)GLOBAL_UNCERTAINTY_ASSIGNED_CONTEXT((#9059))GLOBAL_UNIT_ASSIGNED_CONTEXT((#9056,#9057,#9058))REPRESENTATION_CONTEXT('','3D'));
#9061=MANIFOLD_SURFACE_SHAPE_REPRESENTATION('',(#189),#9060);
#9062=SHAPE_DEFINITION_REPRESENTATION(#9055,#9061);
ENDSEC;
END-ISO-10303-21;
