ISO-10303-21;
/* Gn074: B_SPLINE_SURFACE_WITH_KNOTS u_degree=7 v_degree=7 8x8 net; U knots (0.0,1.0) mults (8,8) sum=16 ✓; V knots (0.0,1.0) mults (8,8) sum=16 ✓; IS the ADVANCED_FACE.face_geometry; ConvertSurfaceToBezierBasis hardcoded max degree → silent truncation instead of proper degree-reduction; incorrect sub-patches, no diagnostic; C-1 break in bottom edge at t=0.5 (1.6-unit CP gap) drives shape_null=True */
HEADER;
FILE_DESCRIPTION(('Gn074'),'2;1');
FILE_NAME('Gn074.stp','2026-06-17T00:00:00',(''),(''),'cad-research-suite','','');
FILE_SCHEMA(('AUTOMOTIVE_DESIGN { 1 0 10303 214 3 1 1 }'));
ENDSEC;
DATA;
#9000=APPLICATION_CONTEXT('mechanical design');
#1=CARTESIAN_POINT('',(0.0,0.0,0.0));
#2=CARTESIAN_POINT('',(0.0,1.0,0.0));
#3=CARTESIAN_POINT('',(0.0,2.0,0.0));
#4=CARTESIAN_POINT('',(0.0,3.0,0.0));
#5=CARTESIAN_POINT('',(0.0,4.0,0.0));
#6=CARTESIAN_POINT('',(0.0,5.0,0.0));
#7=CARTESIAN_POINT('',(0.0,6.0,0.0));
#8=CARTESIAN_POINT('',(0.0,7.0,0.0));
#9=CARTESIAN_POINT('',(1.0,0.0,0.0));
#10=CARTESIAN_POINT('',(1.0,1.0,0.0));
#11=CARTESIAN_POINT('',(1.0,2.0,0.0));
#12=CARTESIAN_POINT('',(1.0,3.0,0.0));
#13=CARTESIAN_POINT('',(1.0,4.0,0.0));
#14=CARTESIAN_POINT('',(1.0,5.0,0.0));
#15=CARTESIAN_POINT('',(1.0,6.0,0.0));
#16=CARTESIAN_POINT('',(1.0,7.0,0.0));
#17=CARTESIAN_POINT('',(2.0,0.0,0.0));
#18=CARTESIAN_POINT('',(2.0,1.0,0.0));
#19=CARTESIAN_POINT('',(2.0,2.0,0.0));
#20=CARTESIAN_POINT('',(2.0,3.0,0.0));
#21=CARTESIAN_POINT('',(2.0,4.0,0.0));
#22=CARTESIAN_POINT('',(2.0,5.0,0.0));
#23=CARTESIAN_POINT('',(2.0,6.0,0.0));
#24=CARTESIAN_POINT('',(2.0,7.0,0.0));
#25=CARTESIAN_POINT('',(3.0,0.0,0.0));
#26=CARTESIAN_POINT('',(3.0,1.0,0.0));
#27=CARTESIAN_POINT('',(3.0,2.0,0.0));
#28=CARTESIAN_POINT('',(3.0,3.0,0.0));
#29=CARTESIAN_POINT('',(3.0,4.0,0.0));
#30=CARTESIAN_POINT('',(3.0,5.0,0.0));
#31=CARTESIAN_POINT('',(3.0,6.0,0.0));
#32=CARTESIAN_POINT('',(3.0,7.0,0.0));
#33=CARTESIAN_POINT('',(4.0,0.0,0.0));
#34=CARTESIAN_POINT('',(4.0,1.0,0.0));
#35=CARTESIAN_POINT('',(4.0,2.0,0.0));
#36=CARTESIAN_POINT('',(4.0,3.0,0.0));
#37=CARTESIAN_POINT('',(4.0,4.0,0.0));
#38=CARTESIAN_POINT('',(4.0,5.0,0.0));
#39=CARTESIAN_POINT('',(4.0,6.0,0.0));
#40=CARTESIAN_POINT('',(4.0,7.0,0.0));
#41=CARTESIAN_POINT('',(5.0,0.0,0.0));
#42=CARTESIAN_POINT('',(5.0,1.0,0.0));
#43=CARTESIAN_POINT('',(5.0,2.0,0.0));
#44=CARTESIAN_POINT('',(5.0,3.0,0.0));
#45=CARTESIAN_POINT('',(5.0,4.0,0.0));
#46=CARTESIAN_POINT('',(5.0,5.0,0.0));
#47=CARTESIAN_POINT('',(5.0,6.0,0.0));
#48=CARTESIAN_POINT('',(5.0,7.0,0.0));
#49=CARTESIAN_POINT('',(6.0,0.0,0.0));
#50=CARTESIAN_POINT('',(6.0,1.0,0.0));
#51=CARTESIAN_POINT('',(6.0,2.0,0.0));
#52=CARTESIAN_POINT('',(6.0,3.0,0.0));
#53=CARTESIAN_POINT('',(6.0,4.0,0.0));
#54=CARTESIAN_POINT('',(6.0,5.0,0.0));
#55=CARTESIAN_POINT('',(6.0,6.0,0.0));
#56=CARTESIAN_POINT('',(6.0,7.0,0.0));
#57=CARTESIAN_POINT('',(7.0,0.0,0.0));
#58=CARTESIAN_POINT('',(7.0,1.0,0.0));
#59=CARTESIAN_POINT('',(7.0,2.0,0.0));
#60=CARTESIAN_POINT('',(7.0,3.0,0.0));
#61=CARTESIAN_POINT('',(7.0,4.0,0.0));
#62=CARTESIAN_POINT('',(7.0,5.0,0.0));
#63=CARTESIAN_POINT('',(7.0,6.0,0.0));
#64=CARTESIAN_POINT('',(7.0,7.0,0.0));
#65=B_SPLINE_SURFACE_WITH_KNOTS('gn074_deg7_surf',7,7,((#1,#2,#3,#4,#5,#6,#7,#8),(#9,#10,#11,#12,#13,#14,#15,#16),(#17,#18,#19,#20,#21,#22,#23,#24),(#25,#26,#27,#28,#29,#30,#31,#32),(#33,#34,#35,#36,#37,#38,#39,#40),(#41,#42,#43,#44,#45,#46,#47,#48),(#49,#50,#51,#52,#53,#54,#55,#56),(#57,#58,#59,#60,#61,#62,#63,#64)),.UNSPECIFIED.,.F.,.F.,.F.,(8,8),(8,8),(0.0,1.0),(0.0,1.0),.UNSPECIFIED.);
#66=(GEOMETRIC_REPRESENTATION_CONTEXT(2)PARAMETRIC_REPRESENTATION_CONTEXT()REPRESENTATION_CONTEXT('UV','2D'));
#67=CARTESIAN_POINT('',(0.0,0.0,0.0));
#68=CARTESIAN_POINT('',(1.0,0.0,0.0));
#69=CARTESIAN_POINT('',(2.5,0.0,0.0));
#70=CARTESIAN_POINT('',(4.1,0.0,0.0));
#71=CARTESIAN_POINT('',(5.5,0.0,0.0));
#72=CARTESIAN_POINT('',(7.0,0.0,0.0));
#73=B_SPLINE_CURVE_WITH_KNOTS('gn074_c1_break',2,(#67,#68,#69,#70,#71,#72),.UNSPECIFIED.,.F.,.F.,(3,3,3),(0.0,0.5,1.0),.UNSPECIFIED.);
#74=CARTESIAN_POINT('',(0.0,0.0));
#75=CARTESIAN_POINT('',(0.17,0.0));
#76=CARTESIAN_POINT('',(0.33,0.0));
#77=CARTESIAN_POINT('',(0.5,0.0));
#78=CARTESIAN_POINT('',(0.67,0.0));
#79=CARTESIAN_POINT('',(1.0,0.0));
#80=B_SPLINE_CURVE_WITH_KNOTS('gn074_pc',2,(#74,#75,#76,#77,#78,#79),.UNSPECIFIED.,.F.,.F.,(3,3,3),(0.0,0.5,1.0),.UNSPECIFIED.);
#81=DEFINITIONAL_REPRESENTATION('gn074_pcdef',(#80),#66);
#82=PCURVE('gn074_pc_ent',#65,#81);
#83=SURFACE_CURVE('gn074_sc',#73,(#82),.PCURVE_S1.);
#84=CARTESIAN_POINT('',(0.0,0.0,0.0));
#85=CARTESIAN_POINT('',(7.0,0.0,0.0));
#86=CARTESIAN_POINT('',(7.0,7.0,0.0));
#87=CARTESIAN_POINT('',(0.0,7.0,0.0));
#88=VERTEX_POINT('',#84);
#89=VERTEX_POINT('',#85);
#90=VERTEX_POINT('',#86);
#91=VERTEX_POINT('',#87);
#92=EDGE_CURVE('gn074_defect_edge',#88,#89,#83,.T.);
#93=CARTESIAN_POINT('',(7.0,0.0,0.0));
#94=DIRECTION('',(0.0,1.0,0.0));
#95=VECTOR('',#94,7.0);
#96=LINE('',#93,#95);
#97=CARTESIAN_POINT('',(1.0,0.0));
#98=DIRECTION('',(0.0,1.0));
#99=VECTOR('',#98,7.0);
#100=LINE('',#97,#99);
#101=DEFINITIONAL_REPRESENTATION('pcdef',(#100),#66);
#102=PCURVE('pc',#65,#101);
#103=SURFACE_CURVE('sc',#96,(#102),.PCURVE_S1.);
#104=EDGE_CURVE('ec',#89,#90,#103,.T.);
#105=CARTESIAN_POINT('',(7.0,7.0,0.0));
#106=DIRECTION('',(-1.0,0.0,0.0));
#107=VECTOR('',#106,7.0);
#108=LINE('',#105,#107);
#109=CARTESIAN_POINT('',(1.0,1.0));
#110=DIRECTION('',(-1.0,0.0));
#111=VECTOR('',#110,7.0);
#112=LINE('',#109,#111);
#113=DEFINITIONAL_REPRESENTATION('pcdef',(#112),#66);
#114=PCURVE('pc',#65,#113);
#115=SURFACE_CURVE('sc',#108,(#114),.PCURVE_S1.);
#116=EDGE_CURVE('ec',#90,#91,#115,.T.);
#117=CARTESIAN_POINT('',(0.0,7.0,0.0));
#118=DIRECTION('',(0.0,-1.0,0.0));
#119=VECTOR('',#118,7.0);
#120=LINE('',#117,#119);
#121=CARTESIAN_POINT('',(0.0,1.0));
#122=DIRECTION('',(0.0,-1.0));
#123=VECTOR('',#122,7.0);
#124=LINE('',#121,#123);
#125=DEFINITIONAL_REPRESENTATION('pcdef',(#124),#66);
#126=PCURVE('pc',#65,#125);
#127=SURFACE_CURVE('sc',#120,(#126),.PCURVE_S1.);
#128=EDGE_CURVE('ec',#91,#88,#127,.T.);
#129=ORIENTED_EDGE('',$,$,#92,.T.);
#130=ORIENTED_EDGE('',$,$,#104,.T.);
#131=ORIENTED_EDGE('',$,$,#116,.T.);
#132=ORIENTED_EDGE('',$,$,#128,.T.);
#133=EDGE_LOOP('',(#129,#130,#131,#132));
#134=FACE_OUTER_BOUND('',#133,.T.);
#135=ADVANCED_FACE('',(#134),#65,.T.);
#136=OPEN_SHELL('',(#135));
#137=SHELL_BASED_SURFACE_MODEL('',(#136));
#9050=PRODUCT_CONTEXT('',#9000,'mechanical');
#9051=PRODUCT('Gn074','Gn074','',(#9050));
#9052=PRODUCT_DEFINITION_FORMATION('','',#9051);
#9053=PRODUCT_DEFINITION_CONTEXT('part definition',#9000,'design');
#9054=PRODUCT_DEFINITION('','','',#9052,#9053);
#9055=PRODUCT_DEFINITION_SHAPE('','','',#9054);
#9056=(LENGTH_UNIT()NAMED_UNIT(*)SI_UNIT(.MILLI.,.METRE.));
#9057=(NAMED_UNIT(*)PLANE_ANGLE_UNIT()SI_UNIT($,.RADIAN.));
#9058=(NAMED_UNIT(*)SI_UNIT($,.STERADIAN.)SOLID_ANGLE_UNIT());
#9059=UNCERTAINTY_MEASURE_WITH_UNIT(.LENGTH_MEASURE(1.0E-7).,#9056,'distance_accuracy_value','');
#9060=(GEOMETRIC_REPRESENTATION_CONTEXT(3)GLOBAL_UNCERTAINTY_ASSIGNED_CONTEXT((#9059))GLOBAL_UNIT_ASSIGNED_CONTEXT((#9056,#9057,#9058))REPRESENTATION_CONTEXT('','3D'));
#9061=MANIFOLD_SURFACE_SHAPE_REPRESENTATION('',(#137),#9060);
#9062=SHAPE_DEFINITION_REPRESENTATION(#9055,#9061);
ENDSEC;
END-ISO-10303-21;
