ISO-10303-21;
/* Gn082: B_SPLINE_SURFACE_WITH_KNOTS u_degree=2 v_degree=2 7x7 net; U knots (0.0,0.33,0.67,1.0) mults (3,2,2,3) sum=10 ✓; V knots (0.0,0.33,0.67,1.0) mults (3,2,2,3) sum=10 ✓; IS the ADVANCED_FACE.face_geometry; ConvertSurfaceToBezierBasis 3×3 Bezier grid; seam drift ~1e-6 between adjacent patches exceeds tolerance — empty result; C-1 break in bottom edge at t=0.5 (1.5-unit CP gap) drives shape_null=True */
HEADER;
FILE_DESCRIPTION(('Gn082'),'2;1');
FILE_NAME('Gn082.stp','2026-06-17T00:00:00',(''),(''),'cad-research-suite','','');
FILE_SCHEMA(('AUTOMOTIVE_DESIGN { 1 0 10303 214 3 1 1 }'));
ENDSEC;
DATA;
#9000=APPLICATION_CONTEXT('mechanical design');
#1=CARTESIAN_POINT('',(0.0,0.0,0.0));
#2=CARTESIAN_POINT('',(0.0,1.0,0.0));
#3=CARTESIAN_POINT('',(0.0,2.0,0.0));
#4=CARTESIAN_POINT('',(0.0,3.0,0.0));
#5=CARTESIAN_POINT('',(0.0,4.0,0.0));
#6=CARTESIAN_POINT('',(0.0,5.0,0.0));
#7=CARTESIAN_POINT('',(0.0,6.0,0.0));
#8=CARTESIAN_POINT('',(1.0,0.0,0.0));
#9=CARTESIAN_POINT('',(1.0,1.0,0.0));
#10=CARTESIAN_POINT('',(1.0,2.0,0.0));
#11=CARTESIAN_POINT('',(1.0,3.0,0.0));
#12=CARTESIAN_POINT('',(1.0,4.0,0.0));
#13=CARTESIAN_POINT('',(1.0,5.0,0.0));
#14=CARTESIAN_POINT('',(1.0,6.0,0.0));
#15=CARTESIAN_POINT('',(2.0,0.0,0.0));
#16=CARTESIAN_POINT('',(2.0,1.0,0.0));
#17=CARTESIAN_POINT('',(2.0,2.0,0.0));
#18=CARTESIAN_POINT('',(2.0,3.0,0.0));
#19=CARTESIAN_POINT('',(2.0,4.0,0.0));
#20=CARTESIAN_POINT('',(2.0,5.0,0.0));
#21=CARTESIAN_POINT('',(2.0,6.0,0.0));
#22=CARTESIAN_POINT('',(3.0,0.0,0.0));
#23=CARTESIAN_POINT('',(3.0,1.0,0.0));
#24=CARTESIAN_POINT('',(3.0,2.0,0.0));
#25=CARTESIAN_POINT('',(3.0,3.0,0.0));
#26=CARTESIAN_POINT('',(3.0,4.0,0.0));
#27=CARTESIAN_POINT('',(3.0,5.0,0.0));
#28=CARTESIAN_POINT('',(3.0,6.0,0.0));
#29=CARTESIAN_POINT('',(4.0,0.0,0.0));
#30=CARTESIAN_POINT('',(4.0,1.0,0.0));
#31=CARTESIAN_POINT('',(4.0,2.0,0.0));
#32=CARTESIAN_POINT('',(4.0,3.0,0.0));
#33=CARTESIAN_POINT('',(4.0,4.0,0.0));
#34=CARTESIAN_POINT('',(4.0,5.0,0.0));
#35=CARTESIAN_POINT('',(4.0,6.0,0.0));
#36=CARTESIAN_POINT('',(5.0,0.0,0.0));
#37=CARTESIAN_POINT('',(5.0,1.0,0.0));
#38=CARTESIAN_POINT('',(5.0,2.0,0.0));
#39=CARTESIAN_POINT('',(5.0,3.0,0.0));
#40=CARTESIAN_POINT('',(5.0,4.0,0.0));
#41=CARTESIAN_POINT('',(5.0,5.0,0.0));
#42=CARTESIAN_POINT('',(5.0,6.0,0.0));
#43=CARTESIAN_POINT('',(6.0,0.0,0.0));
#44=CARTESIAN_POINT('',(6.0,1.0,0.0));
#45=CARTESIAN_POINT('',(6.0,2.0,0.0));
#46=CARTESIAN_POINT('',(6.0,3.0,0.0));
#47=CARTESIAN_POINT('',(6.0,4.0,0.0));
#48=CARTESIAN_POINT('',(6.0,5.0,0.0));
#49=CARTESIAN_POINT('',(6.0,6.0,0.0));
#50=B_SPLINE_SURFACE_WITH_KNOTS('gn082_seam_drift_surf',2,2,((#1,#2,#3,#4,#5,#6,#7),(#8,#9,#10,#11,#12,#13,#14),(#15,#16,#17,#18,#19,#20,#21),(#22,#23,#24,#25,#26,#27,#28),(#29,#30,#31,#32,#33,#34,#35),(#36,#37,#38,#39,#40,#41,#42),(#43,#44,#45,#46,#47,#48,#49)),.UNSPECIFIED.,.F.,.F.,.F.,(3,2,2,3),(3,2,2,3),(0.0,0.33,0.67,1.0),(0.0,0.33,0.67,1.0),.UNSPECIFIED.);
#51=(GEOMETRIC_REPRESENTATION_CONTEXT(2)PARAMETRIC_REPRESENTATION_CONTEXT()REPRESENTATION_CONTEXT('UV','2D'));
#52=CARTESIAN_POINT('',(0.0,0.0,0.0));
#53=CARTESIAN_POINT('',(1.2,0.0,0.0));
#54=CARTESIAN_POINT('',(2.5,0.0,0.0));
#55=CARTESIAN_POINT('',(4.0,0.0,0.0));
#56=CARTESIAN_POINT('',(5.2,0.0,0.0));
#57=CARTESIAN_POINT('',(6.0,0.0,0.0));
#58=B_SPLINE_CURVE_WITH_KNOTS('gn082_c1_break',2,(#52,#53,#54,#55,#56,#57),.UNSPECIFIED.,.F.,.F.,(3,3,3),(0.0,0.5,1.0),.UNSPECIFIED.);
#59=CARTESIAN_POINT('',(0.0,0.0));
#60=CARTESIAN_POINT('',(0.17,0.0));
#61=CARTESIAN_POINT('',(0.33,0.0));
#62=CARTESIAN_POINT('',(0.5,0.0));
#63=CARTESIAN_POINT('',(0.67,0.0));
#64=CARTESIAN_POINT('',(1.0,0.0));
#65=B_SPLINE_CURVE_WITH_KNOTS('gn082_pc',2,(#59,#60,#61,#62,#63,#64),.UNSPECIFIED.,.F.,.F.,(3,3,3),(0.0,0.5,1.0),.UNSPECIFIED.);
#66=DEFINITIONAL_REPRESENTATION('gn082_pcdef',(#65),#51);
#67=PCURVE('gn082_pc_ent',#50,#66);
#68=SURFACE_CURVE('gn082_sc',#58,(#67),.PCURVE_S1.);
#69=CARTESIAN_POINT('',(0.0,0.0,0.0));
#70=CARTESIAN_POINT('',(6.0,0.0,0.0));
#71=CARTESIAN_POINT('',(6.0,6.0,0.0));
#72=CARTESIAN_POINT('',(0.0,6.0,0.0));
#73=VERTEX_POINT('',#69);
#74=VERTEX_POINT('',#70);
#75=VERTEX_POINT('',#71);
#76=VERTEX_POINT('',#72);
#77=EDGE_CURVE('gn082_defect_edge',#73,#74,#68,.T.);
#78=CARTESIAN_POINT('',(6.0,0.0,0.0));
#79=DIRECTION('',(0.0,1.0,0.0));
#80=VECTOR('',#79,6.0);
#81=LINE('',#78,#80);
#82=CARTESIAN_POINT('',(1.0,0.0));
#83=DIRECTION('',(0.0,1.0));
#84=VECTOR('',#83,6.0);
#85=LINE('',#82,#84);
#86=DEFINITIONAL_REPRESENTATION('pcdef',(#85),#51);
#87=PCURVE('pc',#50,#86);
#88=SURFACE_CURVE('sc',#81,(#87),.PCURVE_S1.);
#89=EDGE_CURVE('ec',#74,#75,#88,.T.);
#90=CARTESIAN_POINT('',(6.0,6.0,0.0));
#91=DIRECTION('',(-1.0,0.0,0.0));
#92=VECTOR('',#91,6.0);
#93=LINE('',#90,#92);
#94=CARTESIAN_POINT('',(1.0,1.0));
#95=DIRECTION('',(-1.0,0.0));
#96=VECTOR('',#95,6.0);
#97=LINE('',#94,#96);
#98=DEFINITIONAL_REPRESENTATION('pcdef',(#97),#51);
#99=PCURVE('pc',#50,#98);
#100=SURFACE_CURVE('sc',#93,(#99),.PCURVE_S1.);
#101=EDGE_CURVE('ec',#75,#76,#100,.T.);
#102=CARTESIAN_POINT('',(0.0,6.0,0.0));
#103=DIRECTION('',(0.0,-1.0,0.0));
#104=VECTOR('',#103,6.0);
#105=LINE('',#102,#104);
#106=CARTESIAN_POINT('',(0.0,1.0));
#107=DIRECTION('',(0.0,-1.0));
#108=VECTOR('',#107,6.0);
#109=LINE('',#106,#108);
#110=DEFINITIONAL_REPRESENTATION('pcdef',(#109),#51);
#111=PCURVE('pc',#50,#110);
#112=SURFACE_CURVE('sc',#105,(#111),.PCURVE_S1.);
#113=EDGE_CURVE('ec',#76,#73,#112,.T.);
#114=ORIENTED_EDGE('',$,$,#77,.T.);
#115=ORIENTED_EDGE('',$,$,#89,.T.);
#116=ORIENTED_EDGE('',$,$,#101,.T.);
#117=ORIENTED_EDGE('',$,$,#113,.T.);
#118=EDGE_LOOP('',(#114,#115,#116,#117));
#119=FACE_OUTER_BOUND('',#118,.T.);
#120=ADVANCED_FACE('',(#119),#50,.T.);
#121=OPEN_SHELL('',(#120));
#122=SHELL_BASED_SURFACE_MODEL('',(#121));
#9050=PRODUCT_CONTEXT('',#9000,'mechanical');
#9051=PRODUCT('Gn082','Gn082','',(#9050));
#9052=PRODUCT_DEFINITION_FORMATION('','',#9051);
#9053=PRODUCT_DEFINITION_CONTEXT('part definition',#9000,'design');
#9054=PRODUCT_DEFINITION('','','',#9052,#9053);
#9055=PRODUCT_DEFINITION_SHAPE('','','',#9054);
#9056=(LENGTH_UNIT()NAMED_UNIT(*)SI_UNIT(.MILLI.,.METRE.));
#9057=(NAMED_UNIT(*)PLANE_ANGLE_UNIT()SI_UNIT($,.RADIAN.));
#9058=(NAMED_UNIT(*)SI_UNIT($,.STERADIAN.)SOLID_ANGLE_UNIT());
#9059=UNCERTAINTY_MEASURE_WITH_UNIT(LENGTH_MEASURE(1.0E-7),#9056,'distance_accuracy_value','');
#9060=(GEOMETRIC_REPRESENTATION_CONTEXT(3)GLOBAL_UNCERTAINTY_ASSIGNED_CONTEXT((#9059))GLOBAL_UNIT_ASSIGNED_CONTEXT((#9056,#9057,#9058))REPRESENTATION_CONTEXT('','3D'));
#9061=MANIFOLD_SURFACE_SHAPE_REPRESENTATION('',(#122),#9060);
#9062=SHAPE_DEFINITION_REPRESENTATION(#9055,#9061);
ENDSEC;
END-ISO-10303-21;
