ISO-10303-21;
/* Gn171: periodic B-spline with non-closing control polygon: first and last poles differ */
HEADER;
FILE_DESCRIPTION(('Gn171'),'2;1');
FILE_NAME('Gn171.stp','2026-06-17T00:00:00',(''),(''),'cad-research-suite','','');
FILE_SCHEMA(('AUTOMOTIVE_DESIGN { 1 0 10303 214 3 1 1 }'));
ENDSEC;
DATA;
#9000=APPLICATION_CONTEXT('mechanical design');
#1=CARTESIAN_POINT('',(1.0,0.0,0.0));
#2=CARTESIAN_POINT('',(0.707,0.707,0.0));
#3=CARTESIAN_POINT('',(0.0,1.0,0.0));
#4=CARTESIAN_POINT('',(-0.5,0.5,0.0));
#5=B_SPLINE_CURVE_WITH_KNOTS('',2,(#1,#2,#3,#4),.UNSPECIFIED.,.T.,.F.,(1,1,2,1,2),(0.0,0.333,0.667,1.0,1.333),.UNSPECIFIED.);
#6=VERTEX_POINT('',#1);
#7=VERTEX_POINT('',#2);
#8=VERTEX_POINT('',#3);
#9=VERTEX_POINT('',#4);
#10=DIRECTION('',(-0.38285184984484416,0.9238097537211767,0.0));
#11=VECTOR('',#10,0.7653090878854111);
#12=LINE('',#1,#11);
#13=EDGE_CURVE('',#6,#7,#12,.T.);
#14=ORIENTED_EDGE('',$,$,#13,.T.);
#15=DIRECTION('',(-0.9238097537211767,0.38285184984484416,0.0));
#16=VECTOR('',#15,0.7653090878854111);
#17=LINE('',#2,#16);
#18=EDGE_CURVE('',#7,#8,#17,.T.);
#19=ORIENTED_EDGE('',$,$,#18,.T.);
#20=DIRECTION('',(-0.7071067811865475,-0.7071067811865475,0.0));
#21=VECTOR('',#20,0.7071067811865476);
#22=LINE('',#3,#21);
#23=EDGE_CURVE('',#8,#9,#22,.T.);
#24=ORIENTED_EDGE('',$,$,#23,.T.);
#25=DIRECTION('',(0.9486832980505138,-0.31622776601683794,0.0));
#26=VECTOR('',#25,1.5811388300841898);
#27=LINE('',#4,#26);
#28=EDGE_CURVE('',#9,#6,#27,.T.);
#29=ORIENTED_EDGE('',$,$,#28,.T.);
#30=EDGE_LOOP('',(#14,#19,#24,#29));
#31=FACE_OUTER_BOUND('',#30,.T.);
#32=PLANE((0.0,0.0,1.0),(0.0,0.0,0.0));
#33=ADVANCED_FACE('',(#31),#32,.T.);
#34=OPEN_SHELL('',(#33));
#35=SHELL_BASED_SURFACE_MODEL('',(#34));
#9050=PRODUCT_CONTEXT('',#9000,'mechanical');
#9051=PRODUCT('Gn171','Gn171','',(#9050));
#9052=PRODUCT_DEFINITION_FORMATION('','',#9051);
#9053=PRODUCT_DEFINITION_CONTEXT('part definition',#9000,'design');
#9054=PRODUCT_DEFINITION('','','',#9052,#9053);
#9055=PRODUCT_DEFINITION_SHAPE('','','',#9054);
#9056=(LENGTH_UNIT()NAMED_UNIT(*)SI_UNIT(.MILLI.,.METRE.));
#9057=(NAMED_UNIT(*)PLANE_ANGLE_UNIT()SI_UNIT($,.RADIAN.));
#9058=(NAMED_UNIT(*)SI_UNIT($,.STERADIAN.)SOLID_ANGLE_UNIT());
#9059=UNCERTAINTY_MEASURE_WITH_UNIT(.LENGTH_MEASURE(1.0E-7).,#9056,'distance_accuracy_value','');
#9060=(GEOMETRIC_REPRESENTATION_CONTEXT(3)GLOBAL_UNCERTAINTY_ASSIGNED_CONTEXT((#9059))GLOBAL_UNIT_ASSIGNED_CONTEXT((#9056,#9057,#9058))REPRESENTATION_CONTEXT('','3D'));
#9061=MANIFOLD_SURFACE_SHAPE_REPRESENTATION('',(#35),#9060);
#9062=SHAPE_DEFINITION_REPRESENTATION(#9055,#9061);
ENDSEC;
END-ISO-10303-21;
