ISO-10303-21;
/* Ad032: schema-EXPRESS rule recursion bomb: star topology of EDGE_CURVE entities sharing VERTEX_POINTs triggers O(n²) WHERE-rule re-evaluation; kernel must enforce per-file rule-evaluation budget (E_RULE_BUDGET); GEOMETRIC_CURVE_SET IS model entity — OCC yields empty */
HEADER;
FILE_DESCRIPTION(('Ad032'),'2;1');
FILE_NAME('Ad032.stp','2026-06-17T00:00:00',(''),(''),'cad-research-suite','','');
FILE_SCHEMA(('AUTOMOTIVE_DESIGN { 1 0 10303 214 3 1 1 }'));
ENDSEC;
DATA;
#1=CARTESIAN_POINT('',(0.0,0.0,0.0));
#2=GEOMETRIC_CURVE_SET('',(#1));
#3=CARTESIAN_POINT('',(0.0,0.0,0.0));
#4=CARTESIAN_POINT('',(10.0,0.0,0.0));
#5=VERTEX_POINT('',#3);
#6=VERTEX_POINT('',#4);
#7=CARTESIAN_POINT('',(0.0,0.0,0.0));
#8=DIRECTION('',(1.0,0.0,0.0));
#9=VECTOR('',#8,10.0);
#10=LINE('',#7,#9);
#11=EDGE_CURVE('star_0',#5,#6,#10,.T.);
#12=CARTESIAN_POINT('',(0.1,1.0,0.0));
#13=DIRECTION('',(1.0,0.0,0.0));
#14=VECTOR('',#13,10.0);
#15=LINE('',#12,#14);
#16=EDGE_CURVE('star_1',#5,#6,#15,.T.);
#17=CARTESIAN_POINT('',(0.2,2.0,0.0));
#18=DIRECTION('',(1.0,0.0,0.0));
#19=VECTOR('',#18,10.0);
#20=LINE('',#17,#19);
#21=EDGE_CURVE('star_2',#5,#6,#20,.T.);
#22=CARTESIAN_POINT('',(0.3,3.0,0.0));
#23=DIRECTION('',(1.0,0.0,0.0));
#24=VECTOR('',#23,10.0);
#25=LINE('',#22,#24);
#26=EDGE_CURVE('star_3',#5,#6,#25,.T.);
#27=CARTESIAN_POINT('',(0.4,4.0,0.0));
#28=DIRECTION('',(1.0,0.0,0.0));
#29=VECTOR('',#28,10.0);
#30=LINE('',#27,#29);
#31=EDGE_CURVE('star_4',#5,#6,#30,.T.);
#32=CARTESIAN_POINT('',(0.5,5.0,0.0));
#33=DIRECTION('',(1.0,0.0,0.0));
#34=VECTOR('',#33,10.0);
#35=LINE('',#32,#34);
#36=EDGE_CURVE('star_5',#5,#6,#35,.T.);
#37=CARTESIAN_POINT('',(0.6,6.0,0.0));
#38=DIRECTION('',(1.0,0.0,0.0));
#39=VECTOR('',#38,10.0);
#40=LINE('',#37,#39);
#41=EDGE_CURVE('star_6',#5,#6,#40,.T.);
#42=CARTESIAN_POINT('',(0.7,7.0,0.0));
#43=DIRECTION('',(1.0,0.0,0.0));
#44=VECTOR('',#43,10.0);
#45=LINE('',#42,#44);
#46=EDGE_CURVE('star_7',#5,#6,#45,.T.);
#47=CARTESIAN_POINT('',(0.8,8.0,0.0));
#48=DIRECTION('',(1.0,0.0,0.0));
#49=VECTOR('',#48,10.0);
#50=LINE('',#47,#49);
#51=EDGE_CURVE('star_8',#5,#6,#50,.T.);
#52=CARTESIAN_POINT('',(0.9,9.0,0.0));
#53=DIRECTION('',(1.0,0.0,0.0));
#54=VECTOR('',#53,10.0);
#55=LINE('',#52,#54);
#56=EDGE_CURVE('star_9',#5,#6,#55,.T.);
#57=CARTESIAN_POINT('',(1.0,10.0,0.0));
#58=DIRECTION('',(1.0,0.0,0.0));
#59=VECTOR('',#58,10.0);
#60=LINE('',#57,#59);
#61=EDGE_CURVE('star_10',#5,#6,#60,.T.);
#62=CARTESIAN_POINT('',(1.1,11.0,0.0));
#63=DIRECTION('',(1.0,0.0,0.0));
#64=VECTOR('',#63,10.0);
#65=LINE('',#62,#64);
#66=EDGE_CURVE('star_11',#5,#6,#65,.T.);
#67=CARTESIAN_POINT('',(1.2,12.0,0.0));
#68=DIRECTION('',(1.0,0.0,0.0));
#69=VECTOR('',#68,10.0);
#70=LINE('',#67,#69);
#71=EDGE_CURVE('star_12',#5,#6,#70,.T.);
#72=CARTESIAN_POINT('',(1.3,13.0,0.0));
#73=DIRECTION('',(1.0,0.0,0.0));
#74=VECTOR('',#73,10.0);
#75=LINE('',#72,#74);
#76=EDGE_CURVE('star_13',#5,#6,#75,.T.);
#77=CARTESIAN_POINT('',(1.4,14.0,0.0));
#78=DIRECTION('',(1.0,0.0,0.0));
#79=VECTOR('',#78,10.0);
#80=LINE('',#77,#79);
#81=EDGE_CURVE('star_14',#5,#6,#80,.T.);
#82=CARTESIAN_POINT('',(1.5,15.0,0.0));
#83=DIRECTION('',(1.0,0.0,0.0));
#84=VECTOR('',#83,10.0);
#85=LINE('',#82,#84);
#86=EDGE_CURVE('star_15',#5,#6,#85,.T.);
#87=CARTESIAN_POINT('',(1.6,16.0,0.0));
#88=DIRECTION('',(1.0,0.0,0.0));
#89=VECTOR('',#88,10.0);
#90=LINE('',#87,#89);
#91=EDGE_CURVE('star_16',#5,#6,#90,.T.);
#92=CARTESIAN_POINT('',(1.7,17.0,0.0));
#93=DIRECTION('',(1.0,0.0,0.0));
#94=VECTOR('',#93,10.0);
#95=LINE('',#92,#94);
#96=EDGE_CURVE('star_17',#5,#6,#95,.T.);
#97=CARTESIAN_POINT('',(1.8,18.0,0.0));
#98=DIRECTION('',(1.0,0.0,0.0));
#99=VECTOR('',#98,10.0);
#100=LINE('',#97,#99);
#101=EDGE_CURVE('star_18',#5,#6,#100,.T.);
#102=CARTESIAN_POINT('',(1.9,19.0,0.0));
#103=DIRECTION('',(1.0,0.0,0.0));
#104=VECTOR('',#103,10.0);
#105=LINE('',#102,#104);
#106=EDGE_CURVE('star_19',#5,#6,#105,.T.);
#107=CARTESIAN_POINT('',(2.0,20.0,0.0));
#108=DIRECTION('',(1.0,0.0,0.0));
#109=VECTOR('',#108,10.0);
#110=LINE('',#107,#109);
#111=EDGE_CURVE('star_20',#5,#6,#110,.T.);
#112=CARTESIAN_POINT('',(2.1,21.0,0.0));
#113=DIRECTION('',(1.0,0.0,0.0));
#114=VECTOR('',#113,10.0);
#115=LINE('',#112,#114);
#116=EDGE_CURVE('star_21',#5,#6,#115,.T.);
#117=CARTESIAN_POINT('',(2.2,22.0,0.0));
#118=DIRECTION('',(1.0,0.0,0.0));
#119=VECTOR('',#118,10.0);
#120=LINE('',#117,#119);
#121=EDGE_CURVE('star_22',#5,#6,#120,.T.);
#122=CARTESIAN_POINT('',(2.3,23.0,0.0));
#123=DIRECTION('',(1.0,0.0,0.0));
#124=VECTOR('',#123,10.0);
#125=LINE('',#122,#124);
#126=EDGE_CURVE('star_23',#5,#6,#125,.T.);
#127=CARTESIAN_POINT('',(2.4,24.0,0.0));
#128=DIRECTION('',(1.0,0.0,0.0));
#129=VECTOR('',#128,10.0);
#130=LINE('',#127,#129);
#131=EDGE_CURVE('star_24',#5,#6,#130,.T.);
ENDSEC;
END-ISO-10303-21;
