ISO-10303-21;
/* Ad057: memory leak / unbounded RSS: typed-value/enum tables not freed; each distinct BOOLEAN .T./.F. slot grows per-process table; ShapeFix on huge shells also leaks; LSAN reports STEPControl_Controller::Init enum allocations; See also Ad027; GEOMETRIC_CURVE_SET IS model entity — OCC yields empty */
HEADER;
FILE_DESCRIPTION(('Ad057'),'2;1');
FILE_NAME('Ad057.stp','2026-06-17T00:00:00',(''),(''),'cad-research-suite','','');
FILE_SCHEMA(('AUTOMOTIVE_DESIGN { 1 0 10303 214 3 1 1 }'));
ENDSEC;
DATA;
#1=CARTESIAN_POINT('',(0.0,0.0,0.0));
#2=GEOMETRIC_CURVE_SET('',(#1));
#3=CARTESIAN_POINT('',(0.0,0.0,0.0));
#4=CARTESIAN_POINT('',(1.0,0.0,0.0));
#5=VERTEX_POINT('',#3);
#6=VERTEX_POINT('',#4);
#7=CARTESIAN_POINT('p0',(0.0,0.0,0.0));
#8=DIRECTION('d',(1.,0.,0.));
#9=VECTOR(#8,1.0);
#10=LINE(#7,#9);
#11=EDGE_CURVE('ec0',#5,#6,#10,.T.);
#12=CARTESIAN_POINT('p1',(0.1,0.0,0.0));
#13=DIRECTION('d',(1.,0.,0.));
#14=VECTOR(#13,1.0);
#15=LINE(#12,#14);
#16=EDGE_CURVE('ec1',#5,#6,#15,.F.);
#17=CARTESIAN_POINT('p2',(0.2,0.0,0.0));
#18=DIRECTION('d',(1.,0.,0.));
#19=VECTOR(#18,1.0);
#20=LINE(#17,#19);
#21=EDGE_CURVE('ec2',#5,#6,#20,.T.);
#22=CARTESIAN_POINT('p3',(0.30000000000000004,0.0,0.0));
#23=DIRECTION('d',(1.,0.,0.));
#24=VECTOR(#23,1.0);
#25=LINE(#22,#24);
#26=EDGE_CURVE('ec3',#5,#6,#25,.F.);
#27=CARTESIAN_POINT('p4',(0.4,0.0,0.0));
#28=DIRECTION('d',(1.,0.,0.));
#29=VECTOR(#28,1.0);
#30=LINE(#27,#29);
#31=EDGE_CURVE('ec4',#5,#6,#30,.T.);
#32=CARTESIAN_POINT('p5',(0.5,0.0,0.0));
#33=DIRECTION('d',(1.,0.,0.));
#34=VECTOR(#33,1.0);
#35=LINE(#32,#34);
#36=EDGE_CURVE('ec5',#5,#6,#35,.F.);
#37=CARTESIAN_POINT('p6',(0.6000000000000001,0.0,0.0));
#38=DIRECTION('d',(1.,0.,0.));
#39=VECTOR(#38,1.0);
#40=LINE(#37,#39);
#41=EDGE_CURVE('ec6',#5,#6,#40,.T.);
#42=CARTESIAN_POINT('p7',(0.7000000000000001,0.0,0.0));
#43=DIRECTION('d',(1.,0.,0.));
#44=VECTOR(#43,1.0);
#45=LINE(#42,#44);
#46=EDGE_CURVE('ec7',#5,#6,#45,.F.);
#47=CARTESIAN_POINT('p8',(0.8,0.0,0.0));
#48=DIRECTION('d',(1.,0.,0.));
#49=VECTOR(#48,1.0);
#50=LINE(#47,#49);
#51=EDGE_CURVE('ec8',#5,#6,#50,.T.);
#52=CARTESIAN_POINT('p9',(0.9,0.0,0.0));
#53=DIRECTION('d',(1.,0.,0.));
#54=VECTOR(#53,1.0);
#55=LINE(#52,#54);
#56=EDGE_CURVE('ec9',#5,#6,#55,.F.);
#57=CARTESIAN_POINT('p10',(1.0,0.0,0.0));
#58=DIRECTION('d',(1.,0.,0.));
#59=VECTOR(#58,1.0);
#60=LINE(#57,#59);
#61=EDGE_CURVE('ec10',#5,#6,#60,.T.);
#62=CARTESIAN_POINT('p11',(1.1,0.0,0.0));
#63=DIRECTION('d',(1.,0.,0.));
#64=VECTOR(#63,1.0);
#65=LINE(#62,#64);
#66=EDGE_CURVE('ec11',#5,#6,#65,.F.);
#67=CARTESIAN_POINT('p12',(1.2000000000000002,0.0,0.0));
#68=DIRECTION('d',(1.,0.,0.));
#69=VECTOR(#68,1.0);
#70=LINE(#67,#69);
#71=EDGE_CURVE('ec12',#5,#6,#70,.T.);
#72=CARTESIAN_POINT('p13',(1.3,0.0,0.0));
#73=DIRECTION('d',(1.,0.,0.));
#74=VECTOR(#73,1.0);
#75=LINE(#72,#74);
#76=EDGE_CURVE('ec13',#5,#6,#75,.F.);
#77=CARTESIAN_POINT('p14',(1.4000000000000001,0.0,0.0));
#78=DIRECTION('d',(1.,0.,0.));
#79=VECTOR(#78,1.0);
#80=LINE(#77,#79);
#81=EDGE_CURVE('ec14',#5,#6,#80,.T.);
#82=CARTESIAN_POINT('p15',(1.5,0.0,0.0));
#83=DIRECTION('d',(1.,0.,0.));
#84=VECTOR(#83,1.0);
#85=LINE(#82,#84);
#86=EDGE_CURVE('ec15',#5,#6,#85,.F.);
#87=CARTESIAN_POINT('p16',(1.6,0.0,0.0));
#88=DIRECTION('d',(1.,0.,0.));
#89=VECTOR(#88,1.0);
#90=LINE(#87,#89);
#91=EDGE_CURVE('ec16',#5,#6,#90,.T.);
#92=CARTESIAN_POINT('p17',(1.7000000000000002,0.0,0.0));
#93=DIRECTION('d',(1.,0.,0.));
#94=VECTOR(#93,1.0);
#95=LINE(#92,#94);
#96=EDGE_CURVE('ec17',#5,#6,#95,.F.);
#97=CARTESIAN_POINT('p18',(1.8,0.0,0.0));
#98=DIRECTION('d',(1.,0.,0.));
#99=VECTOR(#98,1.0);
#100=LINE(#97,#99);
#101=EDGE_CURVE('ec18',#5,#6,#100,.T.);
#102=CARTESIAN_POINT('p19',(1.9000000000000001,0.0,0.0));
#103=DIRECTION('d',(1.,0.,0.));
#104=VECTOR(#103,1.0);
#105=LINE(#102,#104);
#106=EDGE_CURVE('ec19',#5,#6,#105,.F.);
ENDSEC;
END-ISO-10303-21;
