ISO-10303-21;
/* Ad098: Boolean-cut result with cascading sliver faces triggers infinite recursion in ShapeFix; removing one sliver exposes another; ShapeFix lacks fixpoint guard / iteration limit; must use fixed iteration count or relative-change termination; OCCT MANTIS#0030396; See also Tfa056; GEOMETRIC_CURVE_SET IS model entity — OCC yields empty */
HEADER;
FILE_DESCRIPTION(('Ad098'),'2;1');
FILE_NAME('Ad098.stp','2026-06-17T00:00:00',(''),(''),'cad-research-suite','','');
FILE_SCHEMA(('AUTOMOTIVE_DESIGN { 1 0 10303 214 3 1 1 }'));
ENDSEC;
DATA;
#1=CARTESIAN_POINT('',(0.0,0.0,0.0));
#2=GEOMETRIC_CURVE_SET('',(#1));
#3=CARTESIAN_POINT('',(0.0,0.0,0.0));
#4=CARTESIAN_POINT('',(1.0,0.0,0.0));
#5=CARTESIAN_POINT('',(1.0,1.0E-08,0.0));
#6=CARTESIAN_POINT('',(0.0,1.0E-08,0.0));
#7=VERTEX_POINT('',#3);
#8=VERTEX_POINT('',#4);
#9=VERTEX_POINT('',#5);
#10=VERTEX_POINT('',#6);
#11=DIRECTION('',(0.0,0.0,1.0));
#12=DIRECTION('',(1.0,0.0,0.0));
#13=AXIS2_PLACEMENT_3D('',#3,#11,#12);
#14=PLANE('',#13);
#15=DIRECTION('',(1.0,0.0,0.0));
#16=VECTOR('',#15,1.0);
#17=LINE('',#3,#16);
#18=EDGE_CURVE('',#7,#8,#17,.T.);
#19=DIRECTION('',(0.0,1.0,0.0));
#20=VECTOR('',#19,1.0E-08);
#21=LINE('',#4,#20);
#22=EDGE_CURVE('',#8,#9,#21,.T.);
#23=DIRECTION('',(-1.0,0.0,0.0));
#24=VECTOR('',#23,1.0);
#25=LINE('',#5,#24);
#26=EDGE_CURVE('',#9,#10,#25,.T.);
#27=DIRECTION('',(0.0,-1.0,0.0));
#28=VECTOR('',#27,1.0E-08);
#29=LINE('',#6,#28);
#30=EDGE_CURVE('',#10,#7,#29,.T.);
#31=ORIENTED_EDGE('',$,$,#18,.T.);
#32=ORIENTED_EDGE('',$,$,#22,.T.);
#33=ORIENTED_EDGE('',$,$,#26,.T.);
#34=ORIENTED_EDGE('',$,$,#30,.T.);
#35=EDGE_LOOP('loop_A',(#31,#32,#33,#34));
#36=FACE_OUTER_BOUND('',#35,.T.);
#37=ADVANCED_FACE('sliver_A',(#36),#14,.T.);
#38=CARTESIAN_POINT('',(1.0,0.0,0.0));
#39=CARTESIAN_POINT('',(2.0,0.0,0.0));
#40=CARTESIAN_POINT('',(2.0,1.0E-08,0.0));
#41=CARTESIAN_POINT('',(1.0,1.0E-08,0.0));
#42=VERTEX_POINT('',#38);
#43=VERTEX_POINT('',#39);
#44=VERTEX_POINT('',#40);
#45=VERTEX_POINT('',#41);
#46=DIRECTION('',(0.0,0.0,1.0));
#47=DIRECTION('',(1.0,0.0,0.0));
#48=AXIS2_PLACEMENT_3D('',#38,#46,#47);
#49=PLANE('',#48);
#50=DIRECTION('',(1.0,0.0,0.0));
#51=VECTOR('',#50,1.0);
#52=LINE('',#38,#51);
#53=EDGE_CURVE('',#42,#43,#52,.T.);
#54=DIRECTION('',(0.0,1.0,0.0));
#55=VECTOR('',#54,1.0E-08);
#56=LINE('',#39,#55);
#57=EDGE_CURVE('',#43,#44,#56,.T.);
#58=DIRECTION('',(-1.0,0.0,0.0));
#59=VECTOR('',#58,1.0);
#60=LINE('',#40,#59);
#61=EDGE_CURVE('',#44,#45,#60,.T.);
#62=DIRECTION('',(0.0,-1.0,0.0));
#63=VECTOR('',#62,1.0E-08);
#64=LINE('',#41,#63);
#65=EDGE_CURVE('',#45,#42,#64,.T.);
#66=ORIENTED_EDGE('',$,$,#53,.T.);
#67=ORIENTED_EDGE('',$,$,#57,.T.);
#68=ORIENTED_EDGE('',$,$,#61,.T.);
#69=ORIENTED_EDGE('',$,$,#65,.T.);
#70=EDGE_LOOP('loop_B',(#66,#67,#68,#69));
#71=FACE_OUTER_BOUND('',#70,.T.);
#72=ADVANCED_FACE('sliver_B',(#71),#49,.T.);
#73=CARTESIAN_POINT('',(2.0,0.0,0.0));
#74=CARTESIAN_POINT('',(3.0,0.0,0.0));
#75=CARTESIAN_POINT('',(3.0,1.0E-08,0.0));
#76=CARTESIAN_POINT('',(2.0,1.0E-08,0.0));
#77=VERTEX_POINT('',#73);
#78=VERTEX_POINT('',#74);
#79=VERTEX_POINT('',#75);
#80=VERTEX_POINT('',#76);
#81=DIRECTION('',(0.0,0.0,1.0));
#82=DIRECTION('',(1.0,0.0,0.0));
#83=AXIS2_PLACEMENT_3D('',#73,#81,#82);
#84=PLANE('',#83);
#85=DIRECTION('',(1.0,0.0,0.0));
#86=VECTOR('',#85,1.0);
#87=LINE('',#73,#86);
#88=EDGE_CURVE('',#77,#78,#87,.T.);
#89=DIRECTION('',(0.0,1.0,0.0));
#90=VECTOR('',#89,1.0E-08);
#91=LINE('',#74,#90);
#92=EDGE_CURVE('',#78,#79,#91,.T.);
#93=DIRECTION('',(-1.0,0.0,0.0));
#94=VECTOR('',#93,1.0);
#95=LINE('',#75,#94);
#96=EDGE_CURVE('',#79,#80,#95,.T.);
#97=DIRECTION('',(0.0,-1.0,0.0));
#98=VECTOR('',#97,1.0E-08);
#99=LINE('',#76,#98);
#100=EDGE_CURVE('',#80,#77,#99,.T.);
#101=ORIENTED_EDGE('',$,$,#88,.T.);
#102=ORIENTED_EDGE('',$,$,#92,.T.);
#103=ORIENTED_EDGE('',$,$,#96,.T.);
#104=ORIENTED_EDGE('',$,$,#100,.T.);
#105=EDGE_LOOP('loop_C',(#101,#102,#103,#104));
#106=FACE_OUTER_BOUND('',#105,.T.);
#107=ADVANCED_FACE('sliver_C',(#106),#84,.T.);
#108=CARTESIAN_POINT('',(3.0,0.0,0.0));
#109=CARTESIAN_POINT('',(4.0,0.0,0.0));
#110=CARTESIAN_POINT('',(4.0,1.0E-08,0.0));
#111=CARTESIAN_POINT('',(3.0,1.0E-08,0.0));
#112=VERTEX_POINT('',#108);
#113=VERTEX_POINT('',#109);
#114=VERTEX_POINT('',#110);
#115=VERTEX_POINT('',#111);
#116=DIRECTION('',(0.0,0.0,1.0));
#117=DIRECTION('',(1.0,0.0,0.0));
#118=AXIS2_PLACEMENT_3D('',#108,#116,#117);
#119=PLANE('',#118);
#120=DIRECTION('',(1.0,0.0,0.0));
#121=VECTOR('',#120,1.0);
#122=LINE('',#108,#121);
#123=EDGE_CURVE('',#112,#113,#122,.T.);
#124=DIRECTION('',(0.0,1.0,0.0));
#125=VECTOR('',#124,1.0E-08);
#126=LINE('',#109,#125);
#127=EDGE_CURVE('',#113,#114,#126,.T.);
#128=DIRECTION('',(-1.0,0.0,0.0));
#129=VECTOR('',#128,1.0);
#130=LINE('',#110,#129);
#131=EDGE_CURVE('',#114,#115,#130,.T.);
#132=DIRECTION('',(0.0,-1.0,0.0));
#133=VECTOR('',#132,1.0E-08);
#134=LINE('',#111,#133);
#135=EDGE_CURVE('',#115,#112,#134,.T.);
#136=ORIENTED_EDGE('',$,$,#123,.T.);
#137=ORIENTED_EDGE('',$,$,#127,.T.);
#138=ORIENTED_EDGE('',$,$,#131,.T.);
#139=ORIENTED_EDGE('',$,$,#135,.T.);
#140=EDGE_LOOP('loop_D',(#136,#137,#138,#139));
#141=FACE_OUTER_BOUND('',#140,.T.);
#142=ADVANCED_FACE('sliver_D',(#141),#119,.T.);
ENDSEC;
END-ISO-10303-21;
