ISO-10303-21;
/* Ad131: FILE_SCHEMA(('AUTOMOTIVE_DESIGN.{ 1 0 10303 442 3 0 0 }')) — the literal '.' (period) between AUTOMOTIVE_DESIGN and the opening brace of the version tuple; the exact pattern OCCT 7.x through pre-8.0's STEPControl_Writer emitted for every AP242 export (fixed in OCCT PR #448); every FreeCAD, KiCad, Salome-Platform, and OCCT-based export of AP242 in the ~2018-2024 window carries this malformed header; strict Part 21 parsers reject the schema declaration; permissive parsers (OCCT itself) fall back to generic AP2xx handling and silently drop AP242-specific tolerance/PMI entities; minimal cube MANIFOLD_SOLID_BREP as carrier geometry; DEF-BBB; MANIFOLD_SOLID_BREP IS model entity — OCC (permissive) yields shape(1) */
HEADER;
FILE_DESCRIPTION(('Ad131'),'2;1');
FILE_NAME('Ad131.stp','2026-06-17T00:00:00',(''),(''),'cad-research-suite','','');
FILE_SCHEMA(('AUTOMOTIVE_DESIGN.{ 1 0 10303 442 3 0 0 }'));
ENDSEC;
DATA;
#9000=APPLICATION_CONTEXT('mechanical design');
#1=CARTESIAN_POINT('',(10.0,0,0));
#2=DIRECTION('',(1,0,0));
#3=DIRECTION('',(0,0,1));
#4=AXIS2_PLACEMENT_3D('',#1,#2,#3);
#5=PLANE('',#4);
#6=CARTESIAN_POINT('',(10.0,0,0));
#7=CARTESIAN_POINT('',(10.0,0,10.0));
#8=CARTESIAN_POINT('',(10.0,10.0,10.0));
#9=CARTESIAN_POINT('',(10.0,10.0,0));
#10=VERTEX_POINT('',#6);
#11=VERTEX_POINT('',#7);
#12=VERTEX_POINT('',#8);
#13=VERTEX_POINT('',#9);
#14=DIRECTION('',(0.0,0.0,1.0));
#15=VECTOR('',#14,10.0);
#16=LINE('',#6,#15);
#17=EDGE_CURVE('',#10,#11,#16,.T.);
#18=ORIENTED_EDGE('',$,$,#17,.T.);
#19=DIRECTION('',(0.0,1.0,0.0));
#20=VECTOR('',#19,10.0);
#21=LINE('',#7,#20);
#22=EDGE_CURVE('',#11,#12,#21,.T.);
#23=ORIENTED_EDGE('',$,$,#22,.T.);
#24=DIRECTION('',(0.0,0.0,-1.0));
#25=VECTOR('',#24,10.0);
#26=LINE('',#8,#25);
#27=EDGE_CURVE('',#12,#13,#26,.T.);
#28=ORIENTED_EDGE('',$,$,#27,.T.);
#29=DIRECTION('',(0.0,-1.0,0.0));
#30=VECTOR('',#29,10.0);
#31=LINE('',#9,#30);
#32=EDGE_CURVE('',#13,#10,#31,.T.);
#33=ORIENTED_EDGE('',$,$,#32,.T.);
#34=EDGE_LOOP('',(#18,#23,#28,#33));
#35=FACE_OUTER_BOUND('',#34,.T.);
#36=ADVANCED_FACE('',(#35),#5,.T.);
#37=CARTESIAN_POINT('',(0,0,0));
#38=DIRECTION('',(-1,0,0));
#39=DIRECTION('',(0,0,-1));
#40=AXIS2_PLACEMENT_3D('',#37,#38,#39);
#41=PLANE('',#40);
#42=CARTESIAN_POINT('',(0,0,0));
#43=CARTESIAN_POINT('',(0,10.0,0));
#44=CARTESIAN_POINT('',(0,10.0,10.0));
#45=CARTESIAN_POINT('',(0,0,10.0));
#46=VERTEX_POINT('',#42);
#47=VERTEX_POINT('',#43);
#48=VERTEX_POINT('',#44);
#49=VERTEX_POINT('',#45);
#50=DIRECTION('',(0.0,1.0,0.0));
#51=VECTOR('',#50,10.0);
#52=LINE('',#42,#51);
#53=EDGE_CURVE('',#46,#47,#52,.T.);
#54=ORIENTED_EDGE('',$,$,#53,.T.);
#55=DIRECTION('',(0.0,0.0,1.0));
#56=VECTOR('',#55,10.0);
#57=LINE('',#43,#56);
#58=EDGE_CURVE('',#47,#48,#57,.T.);
#59=ORIENTED_EDGE('',$,$,#58,.T.);
#60=DIRECTION('',(0.0,-1.0,0.0));
#61=VECTOR('',#60,10.0);
#62=LINE('',#44,#61);
#63=EDGE_CURVE('',#48,#49,#62,.T.);
#64=ORIENTED_EDGE('',$,$,#63,.T.);
#65=DIRECTION('',(0.0,0.0,-1.0));
#66=VECTOR('',#65,10.0);
#67=LINE('',#45,#66);
#68=EDGE_CURVE('',#49,#46,#67,.T.);
#69=ORIENTED_EDGE('',$,$,#68,.T.);
#70=EDGE_LOOP('',(#54,#59,#64,#69));
#71=FACE_OUTER_BOUND('',#70,.T.);
#72=ADVANCED_FACE('',(#71),#41,.T.);
#73=CARTESIAN_POINT('',(0,10.0,0));
#74=DIRECTION('',(0,1,0));
#75=DIRECTION('',(10.0,0,0));
#76=AXIS2_PLACEMENT_3D('',#73,#74,#75);
#77=PLANE('',#76);
#78=CARTESIAN_POINT('',(0,10.0,0));
#79=CARTESIAN_POINT('',(10.0,10.0,0));
#80=CARTESIAN_POINT('',(10.0,10.0,10.0));
#81=CARTESIAN_POINT('',(0,10.0,10.0));
#82=VERTEX_POINT('',#78);
#83=VERTEX_POINT('',#79);
#84=VERTEX_POINT('',#80);
#85=VERTEX_POINT('',#81);
#86=DIRECTION('',(1.0,0.0,0.0));
#87=VECTOR('',#86,10.0);
#88=LINE('',#78,#87);
#89=EDGE_CURVE('',#82,#83,#88,.T.);
#90=ORIENTED_EDGE('',$,$,#89,.T.);
#91=DIRECTION('',(0.0,0.0,1.0));
#92=VECTOR('',#91,10.0);
#93=LINE('',#79,#92);
#94=EDGE_CURVE('',#83,#84,#93,.T.);
#95=ORIENTED_EDGE('',$,$,#94,.T.);
#96=DIRECTION('',(-1.0,0.0,0.0));
#97=VECTOR('',#96,10.0);
#98=LINE('',#80,#97);
#99=EDGE_CURVE('',#84,#85,#98,.T.);
#100=ORIENTED_EDGE('',$,$,#99,.T.);
#101=DIRECTION('',(0.0,0.0,-1.0));
#102=VECTOR('',#101,10.0);
#103=LINE('',#81,#102);
#104=EDGE_CURVE('',#85,#82,#103,.T.);
#105=ORIENTED_EDGE('',$,$,#104,.T.);
#106=EDGE_LOOP('',(#90,#95,#100,#105));
#107=FACE_OUTER_BOUND('',#106,.T.);
#108=ADVANCED_FACE('',(#107),#77,.T.);
#109=CARTESIAN_POINT('',(0,0,0));
#110=DIRECTION('',(0,-1,0));
#111=DIRECTION('',(0,0,1));
#112=AXIS2_PLACEMENT_3D('',#109,#110,#111);
#113=PLANE('',#112);
#114=CARTESIAN_POINT('',(0,0,0));
#115=CARTESIAN_POINT('',(0,0,10.0));
#116=CARTESIAN_POINT('',(10.0,0,10.0));
#117=CARTESIAN_POINT('',(10.0,0,0));
#118=VERTEX_POINT('',#114);
#119=VERTEX_POINT('',#115);
#120=VERTEX_POINT('',#116);
#121=VERTEX_POINT('',#117);
#122=DIRECTION('',(0.0,0.0,1.0));
#123=VECTOR('',#122,10.0);
#124=LINE('',#114,#123);
#125=EDGE_CURVE('',#118,#119,#124,.T.);
#126=ORIENTED_EDGE('',$,$,#125,.T.);
#127=DIRECTION('',(1.0,0.0,0.0));
#128=VECTOR('',#127,10.0);
#129=LINE('',#115,#128);
#130=EDGE_CURVE('',#119,#120,#129,.T.);
#131=ORIENTED_EDGE('',$,$,#130,.T.);
#132=DIRECTION('',(0.0,0.0,-1.0));
#133=VECTOR('',#132,10.0);
#134=LINE('',#116,#133);
#135=EDGE_CURVE('',#120,#121,#134,.T.);
#136=ORIENTED_EDGE('',$,$,#135,.T.);
#137=DIRECTION('',(-1.0,0.0,0.0));
#138=VECTOR('',#137,10.0);
#139=LINE('',#117,#138);
#140=EDGE_CURVE('',#121,#118,#139,.T.);
#141=ORIENTED_EDGE('',$,$,#140,.T.);
#142=EDGE_LOOP('',(#126,#131,#136,#141));
#143=FACE_OUTER_BOUND('',#142,.T.);
#144=ADVANCED_FACE('',(#143),#113,.T.);
#145=CARTESIAN_POINT('',(0,0,10.0));
#146=DIRECTION('',(0,0,1));
#147=DIRECTION('',(1,0,0));
#148=AXIS2_PLACEMENT_3D('',#145,#146,#147);
#149=PLANE('',#148);
#150=CARTESIAN_POINT('',(0,0,10.0));
#151=CARTESIAN_POINT('',(0,10.0,10.0));
#152=CARTESIAN_POINT('',(10.0,10.0,10.0));
#153=CARTESIAN_POINT('',(10.0,0,10.0));
#154=VERTEX_POINT('',#150);
#155=VERTEX_POINT('',#151);
#156=VERTEX_POINT('',#152);
#157=VERTEX_POINT('',#153);
#158=DIRECTION('',(0.0,1.0,0.0));
#159=VECTOR('',#158,10.0);
#160=LINE('',#150,#159);
#161=EDGE_CURVE('',#154,#155,#160,.T.);
#162=ORIENTED_EDGE('',$,$,#161,.T.);
#163=DIRECTION('',(1.0,0.0,0.0));
#164=VECTOR('',#163,10.0);
#165=LINE('',#151,#164);
#166=EDGE_CURVE('',#155,#156,#165,.T.);
#167=ORIENTED_EDGE('',$,$,#166,.T.);
#168=DIRECTION('',(0.0,-1.0,0.0));
#169=VECTOR('',#168,10.0);
#170=LINE('',#152,#169);
#171=EDGE_CURVE('',#156,#157,#170,.T.);
#172=ORIENTED_EDGE('',$,$,#171,.T.);
#173=DIRECTION('',(-1.0,0.0,0.0));
#174=VECTOR('',#173,10.0);
#175=LINE('',#153,#174);
#176=EDGE_CURVE('',#157,#154,#175,.T.);
#177=ORIENTED_EDGE('',$,$,#176,.T.);
#178=EDGE_LOOP('',(#162,#167,#172,#177));
#179=FACE_OUTER_BOUND('',#178,.T.);
#180=ADVANCED_FACE('',(#179),#149,.T.);
#181=CARTESIAN_POINT('',(0,0,0));
#182=DIRECTION('',(0,0,-1));
#183=DIRECTION('',(-1,0,0));
#184=AXIS2_PLACEMENT_3D('',#181,#182,#183);
#185=PLANE('',#184);
#186=CARTESIAN_POINT('',(0,0,0));
#187=CARTESIAN_POINT('',(10.0,0,0));
#188=CARTESIAN_POINT('',(10.0,10.0,0));
#189=CARTESIAN_POINT('',(0,10.0,0));
#190=VERTEX_POINT('',#186);
#191=VERTEX_POINT('',#187);
#192=VERTEX_POINT('',#188);
#193=VERTEX_POINT('',#189);
#194=DIRECTION('',(1.0,0.0,0.0));
#195=VECTOR('',#194,10.0);
#196=LINE('',#186,#195);
#197=EDGE_CURVE('',#190,#191,#196,.T.);
#198=ORIENTED_EDGE('',$,$,#197,.T.);
#199=DIRECTION('',(0.0,1.0,0.0));
#200=VECTOR('',#199,10.0);
#201=LINE('',#187,#200);
#202=EDGE_CURVE('',#191,#192,#201,.T.);
#203=ORIENTED_EDGE('',$,$,#202,.T.);
#204=DIRECTION('',(-1.0,0.0,0.0));
#205=VECTOR('',#204,10.0);
#206=LINE('',#188,#205);
#207=EDGE_CURVE('',#192,#193,#206,.T.);
#208=ORIENTED_EDGE('',$,$,#207,.T.);
#209=DIRECTION('',(0.0,-1.0,0.0));
#210=VECTOR('',#209,10.0);
#211=LINE('',#189,#210);
#212=EDGE_CURVE('',#193,#190,#211,.T.);
#213=ORIENTED_EDGE('',$,$,#212,.T.);
#214=EDGE_LOOP('',(#198,#203,#208,#213));
#215=FACE_OUTER_BOUND('',#214,.T.);
#216=ADVANCED_FACE('',(#215),#185,.T.);
#217=CLOSED_SHELL('ad131_shell',(#36,#72,#108,#144,#180,#216));
#218=MANIFOLD_SOLID_BREP('ad131_cube',#217);
#9050=PRODUCT_CONTEXT('',#9000,'mechanical');
#9051=PRODUCT('Ad131','Ad131','',(#9050));
#9052=PRODUCT_DEFINITION_FORMATION('','',#9051);
#9053=PRODUCT_DEFINITION_CONTEXT('part definition',#9000,'design');
#9054=PRODUCT_DEFINITION('','','',#9052,#9053);
#9055=PRODUCT_DEFINITION_SHAPE('','','',#9054);
#9056=(LENGTH_UNIT()NAMED_UNIT(*)SI_UNIT(.MILLI.,.METRE.));
#9057=(NAMED_UNIT(*)PLANE_ANGLE_UNIT()SI_UNIT($,.RADIAN.));
#9058=(NAMED_UNIT(*)SI_UNIT($,.STERADIAN.)SOLID_ANGLE_UNIT());
#9059=UNCERTAINTY_MEASURE_WITH_UNIT(.LENGTH_MEASURE(1.0E-7).,#9056,'distance_accuracy_value','');
#9060=(GEOMETRIC_REPRESENTATION_CONTEXT(3)GLOBAL_UNCERTAINTY_ASSIGNED_CONTEXT((#9059))GLOBAL_UNIT_ASSIGNED_CONTEXT((#9056,#9057,#9058))REPRESENTATION_CONTEXT('','3D'));
#9061=ADVANCED_BREP_SHAPE_REPRESENTATION('',(#218),#9060);
#9062=SHAPE_DEFINITION_REPRESENTATION(#9055,#9061);
ENDSEC;
END-ISO-10303-21;
