ISO-10303-21;
/* Pf014 - Long helix exported as huge B-spline (millions of poles)
   Pattern: when a long 3D helix is projected onto its hosting cylindrical
   surface, OCCT (and others) emit a B-spline approximation rather than
   the analytic 2D LINE pcurve. Result: parameter-space curve becomes a
   B_SPLINE_CURVE_WITH_KNOTS with thousands of knots / poles for a long
   helix; sweep(circle, helix(h>=30)) produces missing faces sensitive
   to sub-percent offset (build123d #1064; OCCT 02fd709 / Mantis 26930).
   Scaling-up: this fixture has 32 control points and a uniform clamped
   knot vector totalling 36 multiplicities (n + degree + 1 = 32 + 3 + 1).
   Reproduce by replicating the control-point list to ~50,000 entries
   and the knot vector to a similar count - the resulting B-spline pcurve
   stresses memory and projection routines. The kernel should detect
   line-on-elementary-surface and emit a 2D LINE pcurve instead. */
HEADER;
FILE_DESCRIPTION(('Pf014 - long helix-as-B-spline (huge NbControlPoints)'),'2;1');
FILE_NAME('Pf014.stp','2026-04-26T00:00:00',('auto-generated'),(''),
  'auto-generated','','');
FILE_SCHEMA(('AUTOMOTIVE_DESIGN { 1 0 10303 214 3 1 1 }'));
ENDSEC;
DATA;
#1=CARTESIAN_POINT('',(0.0,0.0,0.0));
#2=DIRECTION('',(0.0,0.0,1.0));
#3=DIRECTION('',(1.0,0.0,0.0));
#4=AXIS2_PLACEMENT_3D('',#1,#2,#3);
#5=CYLINDRICAL_SURFACE('host',#4,1.0);
/* helix sampled as 32 control points (real producer emits millions) */
#10=CARTESIAN_POINT('',(1.0,0.0,0.0));
#11=CARTESIAN_POINT('',(0.924,0.383,0.5));
#12=CARTESIAN_POINT('',(0.707,0.707,1.0));
#13=CARTESIAN_POINT('',(0.383,0.924,1.5));
#14=CARTESIAN_POINT('',(0.0,1.0,2.0));
#15=CARTESIAN_POINT('',(-0.383,0.924,2.5));
#16=CARTESIAN_POINT('',(-0.707,0.707,3.0));
#17=CARTESIAN_POINT('',(-0.924,0.383,3.5));
#18=CARTESIAN_POINT('',(-1.0,0.0,4.0));
#19=CARTESIAN_POINT('',(-0.924,-0.383,4.5));
#20=CARTESIAN_POINT('',(-0.707,-0.707,5.0));
#21=CARTESIAN_POINT('',(-0.383,-0.924,5.5));
#22=CARTESIAN_POINT('',(0.0,-1.0,6.0));
#23=CARTESIAN_POINT('',(0.383,-0.924,6.5));
#24=CARTESIAN_POINT('',(0.707,-0.707,7.0));
#25=CARTESIAN_POINT('',(0.924,-0.383,7.5));
#26=CARTESIAN_POINT('',(1.0,0.0,8.0));
#27=CARTESIAN_POINT('',(0.924,0.383,8.5));
#28=CARTESIAN_POINT('',(0.707,0.707,9.0));
#29=CARTESIAN_POINT('',(0.383,0.924,9.5));
#30=CARTESIAN_POINT('',(0.0,1.0,10.0));
#31=CARTESIAN_POINT('',(-0.383,0.924,10.5));
#32=CARTESIAN_POINT('',(-0.707,0.707,11.0));
#33=CARTESIAN_POINT('',(-0.924,0.383,11.5));
#34=CARTESIAN_POINT('',(-1.0,0.0,12.0));
#35=CARTESIAN_POINT('',(-0.924,-0.383,12.5));
#36=CARTESIAN_POINT('',(-0.707,-0.707,13.0));
#37=CARTESIAN_POINT('',(-0.383,-0.924,13.5));
#38=CARTESIAN_POINT('',(0.0,-1.0,14.0));
#39=CARTESIAN_POINT('',(0.383,-0.924,14.5));
#40=CARTESIAN_POINT('',(0.707,-0.707,15.0));
#41=CARTESIAN_POINT('',(0.924,-0.383,15.5));
/* Uniform clamped knot vector for n=32 poles, degree=3.
   Required total multiplicity = n + degree + 1 = 36.
   Layout: 4 (clamped start) + 28 single interior knots + 4 (clamped end)
   = 36. Distinct knot count = 30. */
#100=B_SPLINE_CURVE_WITH_KNOTS('long-helix-as-bspline',3,
  (#10,#11,#12,#13,#14,#15,#16,#17,#18,#19,#20,#21,
   #22,#23,#24,#25,#26,#27,#28,#29,#30,#31,#32,#33,
   #34,#35,#36,#37,#38,#39,#40,#41),
  .UNSPECIFIED.,.F.,.F.,
  (4,1,1,1,1,1,1,1,1,1,1,1,1,1,1,1,1,1,1,1,1,1,1,1,1,1,1,1,1,4),
  (0.0,
   0.034482758620689655,0.06896551724137931,0.10344827586206896,
   0.13793103448275862,0.1724137931034483,0.20689655172413793,
   0.2413793103448276,0.27586206896551724,0.3103448275862069,
   0.3448275862068966,0.3793103448275862,0.41379310344827586,
   0.4482758620689655,0.4827586206896552,0.5172413793103449,
   0.5517241379310345,0.5862068965517241,0.6206896551724138,
   0.6551724137931034,0.6896551724137931,0.7241379310344828,
   0.7586206896551724,0.7931034482758621,0.8275862068965517,
   0.8620689655172413,0.896551724137931,0.9310344827586207,
   0.9655172413793104,
   1.0),
  .UNSPECIFIED.);
/* edge that places the giant b-spline as the 3D curve of an EDGE_CURVE
   on the cylinder; pcurve omitted on purpose (drives the regression) */
#110=VERTEX_POINT('',#10);
#111=VERTEX_POINT('',#41);
#120=EDGE_CURVE('helix-edge',#110,#111,#100,.T.);
ENDSEC;
END-ISO-10303-21;
