ISO-10303-21;
/* Pf017: huge single-shell ShapeFix multi-pass divergence */
HEADER;
FILE_DESCRIPTION(('Pf017'),'2;1');
FILE_NAME('Pf017.stp','2026-06-17T00:00:00',(''),(''),'cad-research-suite','','');
FILE_SCHEMA(('AUTOMOTIVE_DESIGN { 1 0 10303 214 3 1 1 }'));
ENDSEC;
DATA;
#9000=APPLICATION_CONTEXT('mechanical design');
#1=CARTESIAN_POINT('',(0.0,0.0,0.0));
#2=DIRECTION('',(0.0,0.0,1.0));
#3=DIRECTION('',(1.0,0.0,0.0));
#4=AXIS2_PLACEMENT_3D('',#1,#2,#3);
#5=PLANE('',#4);
#6=CARTESIAN_POINT('',(0.0,0.0,0.0));
#7=CARTESIAN_POINT('',(1.0,0.0,0.0));
#8=CARTESIAN_POINT('',(1.0,1.0,0.0));
#9=CARTESIAN_POINT('',(0.0,1.0,0.0));
#10=VERTEX_POINT('',#6);
#11=VERTEX_POINT('',#7);
#12=VERTEX_POINT('',#8);
#13=VERTEX_POINT('',#9);
#14=DIRECTION('',(1.0,0.0,0.0));
#15=VECTOR('',#14,1.0);
#16=LINE('',#6,#15);
#17=EDGE_CURVE('',#10,#11,#16,.T.);
#18=DIRECTION('',(0.0,1.0,0.0));
#19=VECTOR('',#18,1.0);
#20=LINE('',#7,#19);
#21=EDGE_CURVE('',#11,#12,#20,.T.);
#22=DIRECTION('',(-1.0,0.0,0.0));
#23=VECTOR('',#22,1.0);
#24=LINE('',#8,#23);
#25=EDGE_CURVE('',#12,#13,#24,.T.);
#26=DIRECTION('',(0.0,-1.0,0.0));
#27=VECTOR('',#26,1.0);
#28=LINE('',#9,#27);
#29=EDGE_CURVE('',#13,#10,#28,.T.);
#30=ORIENTED_EDGE('',$,$,#17,.T.);
#31=ORIENTED_EDGE('',$,$,#21,.T.);
#32=ORIENTED_EDGE('',$,$,#25,.T.);
#33=ORIENTED_EDGE('',$,$,#29,.T.);
#34=EDGE_LOOP('',(#30,#31,#32,#33));
#35=FACE_OUTER_BOUND('',#34,.T.);
#36=ADVANCED_FACE('',(#35),#5,.T.);
#37=CARTESIAN_POINT('',(1.0E-07,1.0,0.0));
#38=CARTESIAN_POINT('',(1.0000001,1.0,0.0));
#39=CARTESIAN_POINT('',(1.0000001,2.0,0.0));
#40=CARTESIAN_POINT('',(1.0E-07,2.0,0.0));
#41=VERTEX_POINT('',#37);
#42=VERTEX_POINT('',#38);
#43=VERTEX_POINT('',#39);
#44=VERTEX_POINT('',#40);
#45=DIRECTION('',(1.0,0.0,0.0));
#46=VECTOR('',#45,1.0);
#47=LINE('',#37,#46);
#48=EDGE_CURVE('',#41,#42,#47,.T.);
#49=DIRECTION('',(0.0,1.0,0.0));
#50=VECTOR('',#49,1.0);
#51=LINE('',#38,#50);
#52=EDGE_CURVE('',#42,#43,#51,.T.);
#53=DIRECTION('',(-1.0,0.0,0.0));
#54=VECTOR('',#53,1.0);
#55=LINE('',#39,#54);
#56=EDGE_CURVE('',#43,#44,#55,.T.);
#57=DIRECTION('',(0.0,-1.0,0.0));
#58=VECTOR('',#57,1.0);
#59=LINE('',#40,#58);
#60=EDGE_CURVE('',#44,#41,#59,.T.);
#61=ORIENTED_EDGE('',$,$,#48,.T.);
#62=ORIENTED_EDGE('',$,$,#52,.T.);
#63=ORIENTED_EDGE('',$,$,#56,.T.);
#64=ORIENTED_EDGE('',$,$,#60,.T.);
#65=EDGE_LOOP('',(#61,#62,#63,#64));
#66=FACE_OUTER_BOUND('',#65,.T.);
#67=ADVANCED_FACE('',(#66),#5,.T.);
#68=CARTESIAN_POINT('',(2.0E-07,2.0,0.0));
#69=CARTESIAN_POINT('',(1.0000002,2.0,0.0));
#70=CARTESIAN_POINT('',(1.0000002,3.0,0.0));
#71=CARTESIAN_POINT('',(2.0E-07,3.0,0.0));
#72=VERTEX_POINT('',#68);
#73=VERTEX_POINT('',#69);
#74=VERTEX_POINT('',#70);
#75=VERTEX_POINT('',#71);
#76=DIRECTION('',(1.0,0.0,0.0));
#77=VECTOR('',#76,1.0);
#78=LINE('',#68,#77);
#79=EDGE_CURVE('',#72,#73,#78,.T.);
#80=DIRECTION('',(0.0,1.0,0.0));
#81=VECTOR('',#80,1.0);
#82=LINE('',#69,#81);
#83=EDGE_CURVE('',#73,#74,#82,.T.);
#84=DIRECTION('',(-1.0,0.0,0.0));
#85=VECTOR('',#84,1.0);
#86=LINE('',#70,#85);
#87=EDGE_CURVE('',#74,#75,#86,.T.);
#88=DIRECTION('',(0.0,-1.0,0.0));
#89=VECTOR('',#88,1.0);
#90=LINE('',#71,#89);
#91=EDGE_CURVE('',#75,#72,#90,.T.);
#92=ORIENTED_EDGE('',$,$,#79,.T.);
#93=ORIENTED_EDGE('',$,$,#83,.T.);
#94=ORIENTED_EDGE('',$,$,#87,.T.);
#95=ORIENTED_EDGE('',$,$,#91,.T.);
#96=EDGE_LOOP('',(#92,#93,#94,#95));
#97=FACE_OUTER_BOUND('',#96,.T.);
#98=ADVANCED_FACE('',(#97),#5,.T.);
#99=CARTESIAN_POINT('',(0.0,3.0,0.0));
#100=CARTESIAN_POINT('',(1.0,3.0,0.0));
#101=CARTESIAN_POINT('',(1.0,4.0,0.0));
#102=CARTESIAN_POINT('',(0.0,4.0,0.0));
#103=VERTEX_POINT('',#99);
#104=VERTEX_POINT('',#100);
#105=VERTEX_POINT('',#101);
#106=VERTEX_POINT('',#102);
#107=DIRECTION('',(1.0,0.0,0.0));
#108=VECTOR('',#107,1.0);
#109=LINE('',#99,#108);
#110=EDGE_CURVE('',#103,#104,#109,.T.);
#111=DIRECTION('',(0.0,1.0,0.0));
#112=VECTOR('',#111,1.0);
#113=LINE('',#100,#112);
#114=EDGE_CURVE('',#104,#105,#113,.T.);
#115=DIRECTION('',(-1.0,0.0,0.0));
#116=VECTOR('',#115,1.0);
#117=LINE('',#101,#116);
#118=EDGE_CURVE('',#105,#106,#117,.T.);
#119=DIRECTION('',(0.0,-1.0,0.0));
#120=VECTOR('',#119,1.0);
#121=LINE('',#102,#120);
#122=EDGE_CURVE('',#106,#103,#121,.T.);
#123=ORIENTED_EDGE('',$,$,#110,.T.);
#124=ORIENTED_EDGE('',$,$,#114,.T.);
#125=ORIENTED_EDGE('',$,$,#118,.T.);
#126=ORIENTED_EDGE('',$,$,#122,.T.);
#127=EDGE_LOOP('',(#123,#124,#125,#126));
#128=FACE_OUTER_BOUND('',#127,.T.);
#129=ADVANCED_FACE('',(#128),#5,.T.);
#130=CARTESIAN_POINT('',(1.0E-07,4.0,0.0));
#131=CARTESIAN_POINT('',(1.0000001,4.0,0.0));
#132=CARTESIAN_POINT('',(1.0000001,5.0,0.0));
#133=CARTESIAN_POINT('',(1.0E-07,5.0,0.0));
#134=VERTEX_POINT('',#130);
#135=VERTEX_POINT('',#131);
#136=VERTEX_POINT('',#132);
#137=VERTEX_POINT('',#133);
#138=DIRECTION('',(1.0,0.0,0.0));
#139=VECTOR('',#138,1.0);
#140=LINE('',#130,#139);
#141=EDGE_CURVE('',#134,#135,#140,.T.);
#142=DIRECTION('',(0.0,1.0,0.0));
#143=VECTOR('',#142,1.0);
#144=LINE('',#131,#143);
#145=EDGE_CURVE('',#135,#136,#144,.T.);
#146=DIRECTION('',(-1.0,0.0,0.0));
#147=VECTOR('',#146,1.0);
#148=LINE('',#132,#147);
#149=EDGE_CURVE('',#136,#137,#148,.T.);
#150=DIRECTION('',(0.0,-1.0,0.0));
#151=VECTOR('',#150,1.0);
#152=LINE('',#133,#151);
#153=EDGE_CURVE('',#137,#134,#152,.T.);
#154=ORIENTED_EDGE('',$,$,#141,.T.);
#155=ORIENTED_EDGE('',$,$,#145,.T.);
#156=ORIENTED_EDGE('',$,$,#149,.T.);
#157=ORIENTED_EDGE('',$,$,#153,.T.);
#158=EDGE_LOOP('',(#154,#155,#156,#157));
#159=FACE_OUTER_BOUND('',#158,.T.);
#160=ADVANCED_FACE('',(#159),#5,.T.);
#161=CARTESIAN_POINT('',(2.0E-07,5.0,0.0));
#162=CARTESIAN_POINT('',(1.0000002,5.0,0.0));
#163=CARTESIAN_POINT('',(1.0000002,6.0,0.0));
#164=CARTESIAN_POINT('',(2.0E-07,6.0,0.0));
#165=VERTEX_POINT('',#161);
#166=VERTEX_POINT('',#162);
#167=VERTEX_POINT('',#163);
#168=VERTEX_POINT('',#164);
#169=DIRECTION('',(1.0,0.0,0.0));
#170=VECTOR('',#169,1.0);
#171=LINE('',#161,#170);
#172=EDGE_CURVE('',#165,#166,#171,.T.);
#173=DIRECTION('',(0.0,1.0,0.0));
#174=VECTOR('',#173,1.0);
#175=LINE('',#162,#174);
#176=EDGE_CURVE('',#166,#167,#175,.T.);
#177=DIRECTION('',(-1.0,0.0,0.0));
#178=VECTOR('',#177,1.0);
#179=LINE('',#163,#178);
#180=EDGE_CURVE('',#167,#168,#179,.T.);
#181=DIRECTION('',(0.0,-1.0,0.0));
#182=VECTOR('',#181,1.0);
#183=LINE('',#164,#182);
#184=EDGE_CURVE('',#168,#165,#183,.T.);
#185=ORIENTED_EDGE('',$,$,#172,.T.);
#186=ORIENTED_EDGE('',$,$,#176,.T.);
#187=ORIENTED_EDGE('',$,$,#180,.T.);
#188=ORIENTED_EDGE('',$,$,#184,.T.);
#189=EDGE_LOOP('',(#185,#186,#187,#188));
#190=FACE_OUTER_BOUND('',#189,.T.);
#191=ADVANCED_FACE('',(#190),#5,.T.);
#192=CARTESIAN_POINT('',(0.0,6.0,0.0));
#193=CARTESIAN_POINT('',(1.0,6.0,0.0));
#194=CARTESIAN_POINT('',(1.0,7.0,0.0));
#195=CARTESIAN_POINT('',(0.0,7.0,0.0));
#196=VERTEX_POINT('',#192);
#197=VERTEX_POINT('',#193);
#198=VERTEX_POINT('',#194);
#199=VERTEX_POINT('',#195);
#200=DIRECTION('',(1.0,0.0,0.0));
#201=VECTOR('',#200,1.0);
#202=LINE('',#192,#201);
#203=EDGE_CURVE('',#196,#197,#202,.T.);
#204=DIRECTION('',(0.0,1.0,0.0));
#205=VECTOR('',#204,1.0);
#206=LINE('',#193,#205);
#207=EDGE_CURVE('',#197,#198,#206,.T.);
#208=DIRECTION('',(-1.0,0.0,0.0));
#209=VECTOR('',#208,1.0);
#210=LINE('',#194,#209);
#211=EDGE_CURVE('',#198,#199,#210,.T.);
#212=DIRECTION('',(0.0,-1.0,0.0));
#213=VECTOR('',#212,1.0);
#214=LINE('',#195,#213);
#215=EDGE_CURVE('',#199,#196,#214,.T.);
#216=ORIENTED_EDGE('',$,$,#203,.T.);
#217=ORIENTED_EDGE('',$,$,#207,.T.);
#218=ORIENTED_EDGE('',$,$,#211,.T.);
#219=ORIENTED_EDGE('',$,$,#215,.T.);
#220=EDGE_LOOP('',(#216,#217,#218,#219));
#221=FACE_OUTER_BOUND('',#220,.T.);
#222=ADVANCED_FACE('',(#221),#5,.T.);
#223=CARTESIAN_POINT('',(1.0000001,0.0,0.0));
#224=CARTESIAN_POINT('',(2.0000001,0.0,0.0));
#225=CARTESIAN_POINT('',(2.0000001,1.0,0.0));
#226=CARTESIAN_POINT('',(1.0000001,1.0,0.0));
#227=VERTEX_POINT('',#223);
#228=VERTEX_POINT('',#224);
#229=VERTEX_POINT('',#225);
#230=VERTEX_POINT('',#226);
#231=DIRECTION('',(1.0,0.0,0.0));
#232=VECTOR('',#231,1.0);
#233=LINE('',#223,#232);
#234=EDGE_CURVE('',#227,#228,#233,.T.);
#235=DIRECTION('',(0.0,1.0,0.0));
#236=VECTOR('',#235,1.0);
#237=LINE('',#224,#236);
#238=EDGE_CURVE('',#228,#229,#237,.T.);
#239=DIRECTION('',(-1.0,0.0,0.0));
#240=VECTOR('',#239,1.0);
#241=LINE('',#225,#240);
#242=EDGE_CURVE('',#229,#230,#241,.T.);
#243=DIRECTION('',(0.0,-1.0,0.0));
#244=VECTOR('',#243,1.0);
#245=LINE('',#226,#244);
#246=EDGE_CURVE('',#230,#227,#245,.T.);
#247=ORIENTED_EDGE('',$,$,#234,.T.);
#248=ORIENTED_EDGE('',$,$,#238,.T.);
#249=ORIENTED_EDGE('',$,$,#242,.T.);
#250=ORIENTED_EDGE('',$,$,#246,.T.);
#251=EDGE_LOOP('',(#247,#248,#249,#250));
#252=FACE_OUTER_BOUND('',#251,.T.);
#253=ADVANCED_FACE('',(#252),#5,.T.);
#254=CARTESIAN_POINT('',(1.0000002,1.0000001,0.0));
#255=CARTESIAN_POINT('',(2.0000002,1.0000001,0.0));
#256=CARTESIAN_POINT('',(2.0000002,2.0000001,0.0));
#257=CARTESIAN_POINT('',(1.0000002,2.0000001,0.0));
#258=VERTEX_POINT('',#254);
#259=VERTEX_POINT('',#255);
#260=VERTEX_POINT('',#256);
#261=VERTEX_POINT('',#257);
#262=DIRECTION('',(1.0,0.0,0.0));
#263=VECTOR('',#262,1.0);
#264=LINE('',#254,#263);
#265=EDGE_CURVE('',#258,#259,#264,.T.);
#266=DIRECTION('',(0.0,1.0,0.0));
#267=VECTOR('',#266,1.0);
#268=LINE('',#255,#267);
#269=EDGE_CURVE('',#259,#260,#268,.T.);
#270=DIRECTION('',(-1.0,0.0,0.0));
#271=VECTOR('',#270,1.0);
#272=LINE('',#256,#271);
#273=EDGE_CURVE('',#260,#261,#272,.T.);
#274=DIRECTION('',(0.0,-1.0,0.0));
#275=VECTOR('',#274,1.0);
#276=LINE('',#257,#275);
#277=EDGE_CURVE('',#261,#258,#276,.T.);
#278=ORIENTED_EDGE('',$,$,#265,.T.);
#279=ORIENTED_EDGE('',$,$,#269,.T.);
#280=ORIENTED_EDGE('',$,$,#273,.T.);
#281=ORIENTED_EDGE('',$,$,#277,.T.);
#282=EDGE_LOOP('',(#278,#279,#280,#281));
#283=FACE_OUTER_BOUND('',#282,.T.);
#284=ADVANCED_FACE('',(#283),#5,.T.);
#285=CARTESIAN_POINT('',(1.0,2.0000002,0.0));
#286=CARTESIAN_POINT('',(2.0,2.0000002,0.0));
#287=CARTESIAN_POINT('',(2.0,3.0000002,0.0));
#288=CARTESIAN_POINT('',(1.0,3.0000002,0.0));
#289=VERTEX_POINT('',#285);
#290=VERTEX_POINT('',#286);
#291=VERTEX_POINT('',#287);
#292=VERTEX_POINT('',#288);
#293=DIRECTION('',(1.0,0.0,0.0));
#294=VECTOR('',#293,1.0);
#295=LINE('',#285,#294);
#296=EDGE_CURVE('',#289,#290,#295,.T.);
#297=DIRECTION('',(0.0,1.0,0.0));
#298=VECTOR('',#297,1.0);
#299=LINE('',#286,#298);
#300=EDGE_CURVE('',#290,#291,#299,.T.);
#301=DIRECTION('',(-1.0,0.0,0.0));
#302=VECTOR('',#301,1.0);
#303=LINE('',#287,#302);
#304=EDGE_CURVE('',#291,#292,#303,.T.);
#305=DIRECTION('',(0.0,-1.0,0.0));
#306=VECTOR('',#305,1.0);
#307=LINE('',#288,#306);
#308=EDGE_CURVE('',#292,#289,#307,.T.);
#309=ORIENTED_EDGE('',$,$,#296,.T.);
#310=ORIENTED_EDGE('',$,$,#300,.T.);
#311=ORIENTED_EDGE('',$,$,#304,.T.);
#312=ORIENTED_EDGE('',$,$,#308,.T.);
#313=EDGE_LOOP('',(#309,#310,#311,#312));
#314=FACE_OUTER_BOUND('',#313,.T.);
#315=ADVANCED_FACE('',(#314),#5,.T.);
#316=CARTESIAN_POINT('',(1.0000001,3.0,0.0));
#317=CARTESIAN_POINT('',(2.0000001,3.0,0.0));
#318=CARTESIAN_POINT('',(2.0000001,4.0,0.0));
#319=CARTESIAN_POINT('',(1.0000001,4.0,0.0));
#320=VERTEX_POINT('',#316);
#321=VERTEX_POINT('',#317);
#322=VERTEX_POINT('',#318);
#323=VERTEX_POINT('',#319);
#324=DIRECTION('',(1.0,0.0,0.0));
#325=VECTOR('',#324,1.0);
#326=LINE('',#316,#325);
#327=EDGE_CURVE('',#320,#321,#326,.T.);
#328=DIRECTION('',(0.0,1.0,0.0));
#329=VECTOR('',#328,1.0);
#330=LINE('',#317,#329);
#331=EDGE_CURVE('',#321,#322,#330,.T.);
#332=DIRECTION('',(-1.0,0.0,0.0));
#333=VECTOR('',#332,1.0);
#334=LINE('',#318,#333);
#335=EDGE_CURVE('',#322,#323,#334,.T.);
#336=DIRECTION('',(0.0,-1.0,0.0));
#337=VECTOR('',#336,1.0);
#338=LINE('',#319,#337);
#339=EDGE_CURVE('',#323,#320,#338,.T.);
#340=ORIENTED_EDGE('',$,$,#327,.T.);
#341=ORIENTED_EDGE('',$,$,#331,.T.);
#342=ORIENTED_EDGE('',$,$,#335,.T.);
#343=ORIENTED_EDGE('',$,$,#339,.T.);
#344=EDGE_LOOP('',(#340,#341,#342,#343));
#345=FACE_OUTER_BOUND('',#344,.T.);
#346=ADVANCED_FACE('',(#345),#5,.T.);
#347=CARTESIAN_POINT('',(1.0000002,4.0000001,0.0));
#348=CARTESIAN_POINT('',(2.0000002,4.0000001,0.0));
#349=CARTESIAN_POINT('',(2.0000002,5.0000001,0.0));
#350=CARTESIAN_POINT('',(1.0000002,5.0000001,0.0));
#351=VERTEX_POINT('',#347);
#352=VERTEX_POINT('',#348);
#353=VERTEX_POINT('',#349);
#354=VERTEX_POINT('',#350);
#355=DIRECTION('',(1.0,0.0,0.0));
#356=VECTOR('',#355,1.0);
#357=LINE('',#347,#356);
#358=EDGE_CURVE('',#351,#352,#357,.T.);
#359=DIRECTION('',(0.0,1.0,0.0));
#360=VECTOR('',#359,1.0);
#361=LINE('',#348,#360);
#362=EDGE_CURVE('',#352,#353,#361,.T.);
#363=DIRECTION('',(-1.0,0.0,0.0));
#364=VECTOR('',#363,1.0);
#365=LINE('',#349,#364);
#366=EDGE_CURVE('',#353,#354,#365,.T.);
#367=DIRECTION('',(0.0,-1.0,0.0));
#368=VECTOR('',#367,1.0);
#369=LINE('',#350,#368);
#370=EDGE_CURVE('',#354,#351,#369,.T.);
#371=ORIENTED_EDGE('',$,$,#358,.T.);
#372=ORIENTED_EDGE('',$,$,#362,.T.);
#373=ORIENTED_EDGE('',$,$,#366,.T.);
#374=ORIENTED_EDGE('',$,$,#370,.T.);
#375=EDGE_LOOP('',(#371,#372,#373,#374));
#376=FACE_OUTER_BOUND('',#375,.T.);
#377=ADVANCED_FACE('',(#376),#5,.T.);
#378=CARTESIAN_POINT('',(1.0,5.0000002,0.0));
#379=CARTESIAN_POINT('',(2.0,5.0000002,0.0));
#380=CARTESIAN_POINT('',(2.0,6.0000002,0.0));
#381=CARTESIAN_POINT('',(1.0,6.0000002,0.0));
#382=VERTEX_POINT('',#378);
#383=VERTEX_POINT('',#379);
#384=VERTEX_POINT('',#380);
#385=VERTEX_POINT('',#381);
#386=DIRECTION('',(1.0,0.0,0.0));
#387=VECTOR('',#386,1.0);
#388=LINE('',#378,#387);
#389=EDGE_CURVE('',#382,#383,#388,.T.);
#390=DIRECTION('',(0.0,1.0,0.0));
#391=VECTOR('',#390,1.0);
#392=LINE('',#379,#391);
#393=EDGE_CURVE('',#383,#384,#392,.T.);
#394=DIRECTION('',(-1.0,0.0,0.0));
#395=VECTOR('',#394,1.0);
#396=LINE('',#380,#395);
#397=EDGE_CURVE('',#384,#385,#396,.T.);
#398=DIRECTION('',(0.0,-1.0,0.0));
#399=VECTOR('',#398,1.0);
#400=LINE('',#381,#399);
#401=EDGE_CURVE('',#385,#382,#400,.T.);
#402=ORIENTED_EDGE('',$,$,#389,.T.);
#403=ORIENTED_EDGE('',$,$,#393,.T.);
#404=ORIENTED_EDGE('',$,$,#397,.T.);
#405=ORIENTED_EDGE('',$,$,#401,.T.);
#406=EDGE_LOOP('',(#402,#403,#404,#405));
#407=FACE_OUTER_BOUND('',#406,.T.);
#408=ADVANCED_FACE('',(#407),#5,.T.);
#409=CARTESIAN_POINT('',(1.0000001,6.0,0.0));
#410=CARTESIAN_POINT('',(2.0000001,6.0,0.0));
#411=CARTESIAN_POINT('',(2.0000001,7.0,0.0));
#412=CARTESIAN_POINT('',(1.0000001,7.0,0.0));
#413=VERTEX_POINT('',#409);
#414=VERTEX_POINT('',#410);
#415=VERTEX_POINT('',#411);
#416=VERTEX_POINT('',#412);
#417=DIRECTION('',(1.0,0.0,0.0));
#418=VECTOR('',#417,1.0);
#419=LINE('',#409,#418);
#420=EDGE_CURVE('',#413,#414,#419,.T.);
#421=DIRECTION('',(0.0,1.0,0.0));
#422=VECTOR('',#421,1.0);
#423=LINE('',#410,#422);
#424=EDGE_CURVE('',#414,#415,#423,.T.);
#425=DIRECTION('',(-1.0,0.0,0.0));
#426=VECTOR('',#425,1.0);
#427=LINE('',#411,#426);
#428=EDGE_CURVE('',#415,#416,#427,.T.);
#429=DIRECTION('',(0.0,-1.0,0.0));
#430=VECTOR('',#429,1.0);
#431=LINE('',#412,#430);
#432=EDGE_CURVE('',#416,#413,#431,.T.);
#433=ORIENTED_EDGE('',$,$,#420,.T.);
#434=ORIENTED_EDGE('',$,$,#424,.T.);
#435=ORIENTED_EDGE('',$,$,#428,.T.);
#436=ORIENTED_EDGE('',$,$,#432,.T.);
#437=EDGE_LOOP('',(#433,#434,#435,#436));
#438=FACE_OUTER_BOUND('',#437,.T.);
#439=ADVANCED_FACE('',(#438),#5,.T.);
#440=CARTESIAN_POINT('',(2.0000002,0.0,0.0));
#441=CARTESIAN_POINT('',(3.0000002,0.0,0.0));
#442=CARTESIAN_POINT('',(3.0000002,1.0,0.0));
#443=CARTESIAN_POINT('',(2.0000002,1.0,0.0));
#444=VERTEX_POINT('',#440);
#445=VERTEX_POINT('',#441);
#446=VERTEX_POINT('',#442);
#447=VERTEX_POINT('',#443);
#448=DIRECTION('',(1.0,0.0,0.0));
#449=VECTOR('',#448,1.0);
#450=LINE('',#440,#449);
#451=EDGE_CURVE('',#444,#445,#450,.T.);
#452=DIRECTION('',(0.0,1.0,0.0));
#453=VECTOR('',#452,1.0);
#454=LINE('',#441,#453);
#455=EDGE_CURVE('',#445,#446,#454,.T.);
#456=DIRECTION('',(-1.0,0.0,0.0));
#457=VECTOR('',#456,1.0);
#458=LINE('',#442,#457);
#459=EDGE_CURVE('',#446,#447,#458,.T.);
#460=DIRECTION('',(0.0,-1.0,0.0));
#461=VECTOR('',#460,1.0);
#462=LINE('',#443,#461);
#463=EDGE_CURVE('',#447,#444,#462,.T.);
#464=ORIENTED_EDGE('',$,$,#451,.T.);
#465=ORIENTED_EDGE('',$,$,#455,.T.);
#466=ORIENTED_EDGE('',$,$,#459,.T.);
#467=ORIENTED_EDGE('',$,$,#463,.T.);
#468=EDGE_LOOP('',(#464,#465,#466,#467));
#469=FACE_OUTER_BOUND('',#468,.T.);
#470=ADVANCED_FACE('',(#469),#5,.T.);
#471=CARTESIAN_POINT('',(2.0,1.0000002,0.0));
#472=CARTESIAN_POINT('',(3.0,1.0000002,0.0));
#473=CARTESIAN_POINT('',(3.0,2.0000002,0.0));
#474=CARTESIAN_POINT('',(2.0,2.0000002,0.0));
#475=VERTEX_POINT('',#471);
#476=VERTEX_POINT('',#472);
#477=VERTEX_POINT('',#473);
#478=VERTEX_POINT('',#474);
#479=DIRECTION('',(1.0,0.0,0.0));
#480=VECTOR('',#479,1.0);
#481=LINE('',#471,#480);
#482=EDGE_CURVE('',#475,#476,#481,.T.);
#483=DIRECTION('',(0.0,1.0,0.0));
#484=VECTOR('',#483,1.0);
#485=LINE('',#472,#484);
#486=EDGE_CURVE('',#476,#477,#485,.T.);
#487=DIRECTION('',(-1.0,0.0,0.0));
#488=VECTOR('',#487,1.0);
#489=LINE('',#473,#488);
#490=EDGE_CURVE('',#477,#478,#489,.T.);
#491=DIRECTION('',(0.0,-1.0,0.0));
#492=VECTOR('',#491,1.0);
#493=LINE('',#474,#492);
#494=EDGE_CURVE('',#478,#475,#493,.T.);
#495=ORIENTED_EDGE('',$,$,#482,.T.);
#496=ORIENTED_EDGE('',$,$,#486,.T.);
#497=ORIENTED_EDGE('',$,$,#490,.T.);
#498=ORIENTED_EDGE('',$,$,#494,.T.);
#499=EDGE_LOOP('',(#495,#496,#497,#498));
#500=FACE_OUTER_BOUND('',#499,.T.);
#501=ADVANCED_FACE('',(#500),#5,.T.);
#502=CARTESIAN_POINT('',(2.0000001,2.0000001,0.0));
#503=CARTESIAN_POINT('',(3.0000001,2.0000001,0.0));
#504=CARTESIAN_POINT('',(3.0000001,3.0000001,0.0));
#505=CARTESIAN_POINT('',(2.0000001,3.0000001,0.0));
#506=VERTEX_POINT('',#502);
#507=VERTEX_POINT('',#503);
#508=VERTEX_POINT('',#504);
#509=VERTEX_POINT('',#505);
#510=DIRECTION('',(1.0,0.0,0.0));
#511=VECTOR('',#510,1.0);
#512=LINE('',#502,#511);
#513=EDGE_CURVE('',#506,#507,#512,.T.);
#514=DIRECTION('',(0.0,1.0,0.0));
#515=VECTOR('',#514,1.0);
#516=LINE('',#503,#515);
#517=EDGE_CURVE('',#507,#508,#516,.T.);
#518=DIRECTION('',(-1.0,0.0,0.0));
#519=VECTOR('',#518,1.0);
#520=LINE('',#504,#519);
#521=EDGE_CURVE('',#508,#509,#520,.T.);
#522=DIRECTION('',(0.0,-1.0,0.0));
#523=VECTOR('',#522,1.0);
#524=LINE('',#505,#523);
#525=EDGE_CURVE('',#509,#506,#524,.T.);
#526=ORIENTED_EDGE('',$,$,#513,.T.);
#527=ORIENTED_EDGE('',$,$,#517,.T.);
#528=ORIENTED_EDGE('',$,$,#521,.T.);
#529=ORIENTED_EDGE('',$,$,#525,.T.);
#530=EDGE_LOOP('',(#526,#527,#528,#529));
#531=FACE_OUTER_BOUND('',#530,.T.);
#532=ADVANCED_FACE('',(#531),#5,.T.);
#533=CARTESIAN_POINT('',(2.0000002,3.0,0.0));
#534=CARTESIAN_POINT('',(3.0000002,3.0,0.0));
#535=CARTESIAN_POINT('',(3.0000002,4.0,0.0));
#536=CARTESIAN_POINT('',(2.0000002,4.0,0.0));
#537=VERTEX_POINT('',#533);
#538=VERTEX_POINT('',#534);
#539=VERTEX_POINT('',#535);
#540=VERTEX_POINT('',#536);
#541=DIRECTION('',(1.0,0.0,0.0));
#542=VECTOR('',#541,1.0);
#543=LINE('',#533,#542);
#544=EDGE_CURVE('',#537,#538,#543,.T.);
#545=DIRECTION('',(0.0,1.0,0.0));
#546=VECTOR('',#545,1.0);
#547=LINE('',#534,#546);
#548=EDGE_CURVE('',#538,#539,#547,.T.);
#549=DIRECTION('',(-1.0,0.0,0.0));
#550=VECTOR('',#549,1.0);
#551=LINE('',#535,#550);
#552=EDGE_CURVE('',#539,#540,#551,.T.);
#553=DIRECTION('',(0.0,-1.0,0.0));
#554=VECTOR('',#553,1.0);
#555=LINE('',#536,#554);
#556=EDGE_CURVE('',#540,#537,#555,.T.);
#557=ORIENTED_EDGE('',$,$,#544,.T.);
#558=ORIENTED_EDGE('',$,$,#548,.T.);
#559=ORIENTED_EDGE('',$,$,#552,.T.);
#560=ORIENTED_EDGE('',$,$,#556,.T.);
#561=EDGE_LOOP('',(#557,#558,#559,#560));
#562=FACE_OUTER_BOUND('',#561,.T.);
#563=ADVANCED_FACE('',(#562),#5,.T.);
#564=CARTESIAN_POINT('',(2.0,4.0000002,0.0));
#565=CARTESIAN_POINT('',(3.0,4.0000002,0.0));
#566=CARTESIAN_POINT('',(3.0,5.0000002,0.0));
#567=CARTESIAN_POINT('',(2.0,5.0000002,0.0));
#568=VERTEX_POINT('',#564);
#569=VERTEX_POINT('',#565);
#570=VERTEX_POINT('',#566);
#571=VERTEX_POINT('',#567);
#572=DIRECTION('',(1.0,0.0,0.0));
#573=VECTOR('',#572,1.0);
#574=LINE('',#564,#573);
#575=EDGE_CURVE('',#568,#569,#574,.T.);
#576=DIRECTION('',(0.0,1.0,0.0));
#577=VECTOR('',#576,1.0);
#578=LINE('',#565,#577);
#579=EDGE_CURVE('',#569,#570,#578,.T.);
#580=DIRECTION('',(-1.0,0.0,0.0));
#581=VECTOR('',#580,1.0);
#582=LINE('',#566,#581);
#583=EDGE_CURVE('',#570,#571,#582,.T.);
#584=DIRECTION('',(0.0,-1.0,0.0));
#585=VECTOR('',#584,1.0);
#586=LINE('',#567,#585);
#587=EDGE_CURVE('',#571,#568,#586,.T.);
#588=ORIENTED_EDGE('',$,$,#575,.T.);
#589=ORIENTED_EDGE('',$,$,#579,.T.);
#590=ORIENTED_EDGE('',$,$,#583,.T.);
#591=ORIENTED_EDGE('',$,$,#587,.T.);
#592=EDGE_LOOP('',(#588,#589,#590,#591));
#593=FACE_OUTER_BOUND('',#592,.T.);
#594=ADVANCED_FACE('',(#593),#5,.T.);
#595=CARTESIAN_POINT('',(2.0000001,5.0000001,0.0));
#596=CARTESIAN_POINT('',(3.0000001,5.0000001,0.0));
#597=CARTESIAN_POINT('',(3.0000001,6.0000001,0.0));
#598=CARTESIAN_POINT('',(2.0000001,6.0000001,0.0));
#599=VERTEX_POINT('',#595);
#600=VERTEX_POINT('',#596);
#601=VERTEX_POINT('',#597);
#602=VERTEX_POINT('',#598);
#603=DIRECTION('',(1.0,0.0,0.0));
#604=VECTOR('',#603,1.0);
#605=LINE('',#595,#604);
#606=EDGE_CURVE('',#599,#600,#605,.T.);
#607=DIRECTION('',(0.0,1.0,0.0));
#608=VECTOR('',#607,1.0);
#609=LINE('',#596,#608);
#610=EDGE_CURVE('',#600,#601,#609,.T.);
#611=DIRECTION('',(-1.0,0.0,0.0));
#612=VECTOR('',#611,1.0);
#613=LINE('',#597,#612);
#614=EDGE_CURVE('',#601,#602,#613,.T.);
#615=DIRECTION('',(0.0,-1.0,0.0));
#616=VECTOR('',#615,1.0);
#617=LINE('',#598,#616);
#618=EDGE_CURVE('',#602,#599,#617,.T.);
#619=ORIENTED_EDGE('',$,$,#606,.T.);
#620=ORIENTED_EDGE('',$,$,#610,.T.);
#621=ORIENTED_EDGE('',$,$,#614,.T.);
#622=ORIENTED_EDGE('',$,$,#618,.T.);
#623=EDGE_LOOP('',(#619,#620,#621,#622));
#624=FACE_OUTER_BOUND('',#623,.T.);
#625=ADVANCED_FACE('',(#624),#5,.T.);
#626=CARTESIAN_POINT('',(2.0000002,6.0,0.0));
#627=CARTESIAN_POINT('',(3.0000002,6.0,0.0));
#628=CARTESIAN_POINT('',(3.0000002,7.0,0.0));
#629=CARTESIAN_POINT('',(2.0000002,7.0,0.0));
#630=VERTEX_POINT('',#626);
#631=VERTEX_POINT('',#627);
#632=VERTEX_POINT('',#628);
#633=VERTEX_POINT('',#629);
#634=DIRECTION('',(1.0,0.0,0.0));
#635=VECTOR('',#634,1.0);
#636=LINE('',#626,#635);
#637=EDGE_CURVE('',#630,#631,#636,.T.);
#638=DIRECTION('',(0.0,1.0,0.0));
#639=VECTOR('',#638,1.0);
#640=LINE('',#627,#639);
#641=EDGE_CURVE('',#631,#632,#640,.T.);
#642=DIRECTION('',(-1.0,0.0,0.0));
#643=VECTOR('',#642,1.0);
#644=LINE('',#628,#643);
#645=EDGE_CURVE('',#632,#633,#644,.T.);
#646=DIRECTION('',(0.0,-1.0,0.0));
#647=VECTOR('',#646,1.0);
#648=LINE('',#629,#647);
#649=EDGE_CURVE('',#633,#630,#648,.T.);
#650=ORIENTED_EDGE('',$,$,#637,.T.);
#651=ORIENTED_EDGE('',$,$,#641,.T.);
#652=ORIENTED_EDGE('',$,$,#645,.T.);
#653=ORIENTED_EDGE('',$,$,#649,.T.);
#654=EDGE_LOOP('',(#650,#651,#652,#653));
#655=FACE_OUTER_BOUND('',#654,.T.);
#656=ADVANCED_FACE('',(#655),#5,.T.);
#657=CARTESIAN_POINT('',(3.0,0.0,0.0));
#658=CARTESIAN_POINT('',(4.0,0.0,0.0));
#659=CARTESIAN_POINT('',(4.0,1.0,0.0));
#660=CARTESIAN_POINT('',(3.0,1.0,0.0));
#661=VERTEX_POINT('',#657);
#662=VERTEX_POINT('',#658);
#663=VERTEX_POINT('',#659);
#664=VERTEX_POINT('',#660);
#665=DIRECTION('',(1.0,0.0,0.0));
#666=VECTOR('',#665,1.0);
#667=LINE('',#657,#666);
#668=EDGE_CURVE('',#661,#662,#667,.T.);
#669=DIRECTION('',(0.0,1.0,0.0));
#670=VECTOR('',#669,1.0);
#671=LINE('',#658,#670);
#672=EDGE_CURVE('',#662,#663,#671,.T.);
#673=DIRECTION('',(-1.0,0.0,0.0));
#674=VECTOR('',#673,1.0);
#675=LINE('',#659,#674);
#676=EDGE_CURVE('',#663,#664,#675,.T.);
#677=DIRECTION('',(0.0,-1.0,0.0));
#678=VECTOR('',#677,1.0);
#679=LINE('',#660,#678);
#680=EDGE_CURVE('',#664,#661,#679,.T.);
#681=ORIENTED_EDGE('',$,$,#668,.T.);
#682=ORIENTED_EDGE('',$,$,#672,.T.);
#683=ORIENTED_EDGE('',$,$,#676,.T.);
#684=ORIENTED_EDGE('',$,$,#680,.T.);
#685=EDGE_LOOP('',(#681,#682,#683,#684));
#686=FACE_OUTER_BOUND('',#685,.T.);
#687=ADVANCED_FACE('',(#686),#5,.T.);
#688=CARTESIAN_POINT('',(3.0000001,1.0,0.0));
#689=CARTESIAN_POINT('',(4.0000001,1.0,0.0));
#690=CARTESIAN_POINT('',(4.0000001,2.0,0.0));
#691=CARTESIAN_POINT('',(3.0000001,2.0,0.0));
#692=VERTEX_POINT('',#688);
#693=VERTEX_POINT('',#689);
#694=VERTEX_POINT('',#690);
#695=VERTEX_POINT('',#691);
#696=DIRECTION('',(1.0,0.0,0.0));
#697=VECTOR('',#696,1.0);
#698=LINE('',#688,#697);
#699=EDGE_CURVE('',#692,#693,#698,.T.);
#700=DIRECTION('',(0.0,1.0,0.0));
#701=VECTOR('',#700,1.0);
#702=LINE('',#689,#701);
#703=EDGE_CURVE('',#693,#694,#702,.T.);
#704=DIRECTION('',(-1.0,0.0,0.0));
#705=VECTOR('',#704,1.0);
#706=LINE('',#690,#705);
#707=EDGE_CURVE('',#694,#695,#706,.T.);
#708=DIRECTION('',(0.0,-1.0,0.0));
#709=VECTOR('',#708,1.0);
#710=LINE('',#691,#709);
#711=EDGE_CURVE('',#695,#692,#710,.T.);
#712=ORIENTED_EDGE('',$,$,#699,.T.);
#713=ORIENTED_EDGE('',$,$,#703,.T.);
#714=ORIENTED_EDGE('',$,$,#707,.T.);
#715=ORIENTED_EDGE('',$,$,#711,.T.);
#716=EDGE_LOOP('',(#712,#713,#714,#715));
#717=FACE_OUTER_BOUND('',#716,.T.);
#718=ADVANCED_FACE('',(#717),#5,.T.);
#719=CARTESIAN_POINT('',(3.0000002,2.0,0.0));
#720=CARTESIAN_POINT('',(4.0000002,2.0,0.0));
#721=CARTESIAN_POINT('',(4.0000002,3.0,0.0));
#722=CARTESIAN_POINT('',(3.0000002,3.0,0.0));
#723=VERTEX_POINT('',#719);
#724=VERTEX_POINT('',#720);
#725=VERTEX_POINT('',#721);
#726=VERTEX_POINT('',#722);
#727=DIRECTION('',(1.0,0.0,0.0));
#728=VECTOR('',#727,1.0);
#729=LINE('',#719,#728);
#730=EDGE_CURVE('',#723,#724,#729,.T.);
#731=DIRECTION('',(0.0,1.0,0.0));
#732=VECTOR('',#731,1.0);
#733=LINE('',#720,#732);
#734=EDGE_CURVE('',#724,#725,#733,.T.);
#735=DIRECTION('',(-1.0,0.0,0.0));
#736=VECTOR('',#735,1.0);
#737=LINE('',#721,#736);
#738=EDGE_CURVE('',#725,#726,#737,.T.);
#739=DIRECTION('',(0.0,-1.0,0.0));
#740=VECTOR('',#739,1.0);
#741=LINE('',#722,#740);
#742=EDGE_CURVE('',#726,#723,#741,.T.);
#743=ORIENTED_EDGE('',$,$,#730,.T.);
#744=ORIENTED_EDGE('',$,$,#734,.T.);
#745=ORIENTED_EDGE('',$,$,#738,.T.);
#746=ORIENTED_EDGE('',$,$,#742,.T.);
#747=EDGE_LOOP('',(#743,#744,#745,#746));
#748=FACE_OUTER_BOUND('',#747,.T.);
#749=ADVANCED_FACE('',(#748),#5,.T.);
#750=CARTESIAN_POINT('',(3.0,3.0,0.0));
#751=CARTESIAN_POINT('',(4.0,3.0,0.0));
#752=CARTESIAN_POINT('',(4.0,4.0,0.0));
#753=CARTESIAN_POINT('',(3.0,4.0,0.0));
#754=VERTEX_POINT('',#750);
#755=VERTEX_POINT('',#751);
#756=VERTEX_POINT('',#752);
#757=VERTEX_POINT('',#753);
#758=DIRECTION('',(1.0,0.0,0.0));
#759=VECTOR('',#758,1.0);
#760=LINE('',#750,#759);
#761=EDGE_CURVE('',#754,#755,#760,.T.);
#762=DIRECTION('',(0.0,1.0,0.0));
#763=VECTOR('',#762,1.0);
#764=LINE('',#751,#763);
#765=EDGE_CURVE('',#755,#756,#764,.T.);
#766=DIRECTION('',(-1.0,0.0,0.0));
#767=VECTOR('',#766,1.0);
#768=LINE('',#752,#767);
#769=EDGE_CURVE('',#756,#757,#768,.T.);
#770=DIRECTION('',(0.0,-1.0,0.0));
#771=VECTOR('',#770,1.0);
#772=LINE('',#753,#771);
#773=EDGE_CURVE('',#757,#754,#772,.T.);
#774=ORIENTED_EDGE('',$,$,#761,.T.);
#775=ORIENTED_EDGE('',$,$,#765,.T.);
#776=ORIENTED_EDGE('',$,$,#769,.T.);
#777=ORIENTED_EDGE('',$,$,#773,.T.);
#778=EDGE_LOOP('',(#774,#775,#776,#777));
#779=FACE_OUTER_BOUND('',#778,.T.);
#780=ADVANCED_FACE('',(#779),#5,.T.);
#781=CARTESIAN_POINT('',(3.0000001,4.0,0.0));
#782=CARTESIAN_POINT('',(4.0000001,4.0,0.0));
#783=CARTESIAN_POINT('',(4.0000001,5.0,0.0));
#784=CARTESIAN_POINT('',(3.0000001,5.0,0.0));
#785=VERTEX_POINT('',#781);
#786=VERTEX_POINT('',#782);
#787=VERTEX_POINT('',#783);
#788=VERTEX_POINT('',#784);
#789=DIRECTION('',(1.0,0.0,0.0));
#790=VECTOR('',#789,1.0);
#791=LINE('',#781,#790);
#792=EDGE_CURVE('',#785,#786,#791,.T.);
#793=DIRECTION('',(0.0,1.0,0.0));
#794=VECTOR('',#793,1.0);
#795=LINE('',#782,#794);
#796=EDGE_CURVE('',#786,#787,#795,.T.);
#797=DIRECTION('',(-1.0,0.0,0.0));
#798=VECTOR('',#797,1.0);
#799=LINE('',#783,#798);
#800=EDGE_CURVE('',#787,#788,#799,.T.);
#801=DIRECTION('',(0.0,-1.0,0.0));
#802=VECTOR('',#801,1.0);
#803=LINE('',#784,#802);
#804=EDGE_CURVE('',#788,#785,#803,.T.);
#805=ORIENTED_EDGE('',$,$,#792,.T.);
#806=ORIENTED_EDGE('',$,$,#796,.T.);
#807=ORIENTED_EDGE('',$,$,#800,.T.);
#808=ORIENTED_EDGE('',$,$,#804,.T.);
#809=EDGE_LOOP('',(#805,#806,#807,#808));
#810=FACE_OUTER_BOUND('',#809,.T.);
#811=ADVANCED_FACE('',(#810),#5,.T.);
#812=CARTESIAN_POINT('',(3.0000002,5.0,0.0));
#813=CARTESIAN_POINT('',(4.0000002,5.0,0.0));
#814=CARTESIAN_POINT('',(4.0000002,6.0,0.0));
#815=CARTESIAN_POINT('',(3.0000002,6.0,0.0));
#816=VERTEX_POINT('',#812);
#817=VERTEX_POINT('',#813);
#818=VERTEX_POINT('',#814);
#819=VERTEX_POINT('',#815);
#820=DIRECTION('',(1.0,0.0,0.0));
#821=VECTOR('',#820,1.0);
#822=LINE('',#812,#821);
#823=EDGE_CURVE('',#816,#817,#822,.T.);
#824=DIRECTION('',(0.0,1.0,0.0));
#825=VECTOR('',#824,1.0);
#826=LINE('',#813,#825);
#827=EDGE_CURVE('',#817,#818,#826,.T.);
#828=DIRECTION('',(-1.0,0.0,0.0));
#829=VECTOR('',#828,1.0);
#830=LINE('',#814,#829);
#831=EDGE_CURVE('',#818,#819,#830,.T.);
#832=DIRECTION('',(0.0,-1.0,0.0));
#833=VECTOR('',#832,1.0);
#834=LINE('',#815,#833);
#835=EDGE_CURVE('',#819,#816,#834,.T.);
#836=ORIENTED_EDGE('',$,$,#823,.T.);
#837=ORIENTED_EDGE('',$,$,#827,.T.);
#838=ORIENTED_EDGE('',$,$,#831,.T.);
#839=ORIENTED_EDGE('',$,$,#835,.T.);
#840=EDGE_LOOP('',(#836,#837,#838,#839));
#841=FACE_OUTER_BOUND('',#840,.T.);
#842=ADVANCED_FACE('',(#841),#5,.T.);
#843=CARTESIAN_POINT('',(3.0,6.0,0.0));
#844=CARTESIAN_POINT('',(4.0,6.0,0.0));
#845=CARTESIAN_POINT('',(4.0,7.0,0.0));
#846=CARTESIAN_POINT('',(3.0,7.0,0.0));
#847=VERTEX_POINT('',#843);
#848=VERTEX_POINT('',#844);
#849=VERTEX_POINT('',#845);
#850=VERTEX_POINT('',#846);
#851=DIRECTION('',(1.0,0.0,0.0));
#852=VECTOR('',#851,1.0);
#853=LINE('',#843,#852);
#854=EDGE_CURVE('',#847,#848,#853,.T.);
#855=DIRECTION('',(0.0,1.0,0.0));
#856=VECTOR('',#855,1.0);
#857=LINE('',#844,#856);
#858=EDGE_CURVE('',#848,#849,#857,.T.);
#859=DIRECTION('',(-1.0,0.0,0.0));
#860=VECTOR('',#859,1.0);
#861=LINE('',#845,#860);
#862=EDGE_CURVE('',#849,#850,#861,.T.);
#863=DIRECTION('',(0.0,-1.0,0.0));
#864=VECTOR('',#863,1.0);
#865=LINE('',#846,#864);
#866=EDGE_CURVE('',#850,#847,#865,.T.);
#867=ORIENTED_EDGE('',$,$,#854,.T.);
#868=ORIENTED_EDGE('',$,$,#858,.T.);
#869=ORIENTED_EDGE('',$,$,#862,.T.);
#870=ORIENTED_EDGE('',$,$,#866,.T.);
#871=EDGE_LOOP('',(#867,#868,#869,#870));
#872=FACE_OUTER_BOUND('',#871,.T.);
#873=ADVANCED_FACE('',(#872),#5,.T.);
#874=CARTESIAN_POINT('',(4.0000001,0.0,0.0));
#875=CARTESIAN_POINT('',(5.0000001,0.0,0.0));
#876=CARTESIAN_POINT('',(5.0000001,1.0,0.0));
#877=CARTESIAN_POINT('',(4.0000001,1.0,0.0));
#878=VERTEX_POINT('',#874);
#879=VERTEX_POINT('',#875);
#880=VERTEX_POINT('',#876);
#881=VERTEX_POINT('',#877);
#882=DIRECTION('',(1.0,0.0,0.0));
#883=VECTOR('',#882,1.0);
#884=LINE('',#874,#883);
#885=EDGE_CURVE('',#878,#879,#884,.T.);
#886=DIRECTION('',(0.0,1.0,0.0));
#887=VECTOR('',#886,1.0);
#888=LINE('',#875,#887);
#889=EDGE_CURVE('',#879,#880,#888,.T.);
#890=DIRECTION('',(-1.0,0.0,0.0));
#891=VECTOR('',#890,1.0);
#892=LINE('',#876,#891);
#893=EDGE_CURVE('',#880,#881,#892,.T.);
#894=DIRECTION('',(0.0,-1.0,0.0));
#895=VECTOR('',#894,1.0);
#896=LINE('',#877,#895);
#897=EDGE_CURVE('',#881,#878,#896,.T.);
#898=ORIENTED_EDGE('',$,$,#885,.T.);
#899=ORIENTED_EDGE('',$,$,#889,.T.);
#900=ORIENTED_EDGE('',$,$,#893,.T.);
#901=ORIENTED_EDGE('',$,$,#897,.T.);
#902=EDGE_LOOP('',(#898,#899,#900,#901));
#903=FACE_OUTER_BOUND('',#902,.T.);
#904=ADVANCED_FACE('',(#903),#5,.T.);
#905=CARTESIAN_POINT('',(4.0000002,1.0000001,0.0));
#906=CARTESIAN_POINT('',(5.0000002,1.0000001,0.0));
#907=CARTESIAN_POINT('',(5.0000002,2.0000001,0.0));
#908=CARTESIAN_POINT('',(4.0000002,2.0000001,0.0));
#909=VERTEX_POINT('',#905);
#910=VERTEX_POINT('',#906);
#911=VERTEX_POINT('',#907);
#912=VERTEX_POINT('',#908);
#913=DIRECTION('',(1.0,0.0,0.0));
#914=VECTOR('',#913,1.0);
#915=LINE('',#905,#914);
#916=EDGE_CURVE('',#909,#910,#915,.T.);
#917=DIRECTION('',(0.0,1.0,0.0));
#918=VECTOR('',#917,1.0);
#919=LINE('',#906,#918);
#920=EDGE_CURVE('',#910,#911,#919,.T.);
#921=DIRECTION('',(-1.0,0.0,0.0));
#922=VECTOR('',#921,1.0);
#923=LINE('',#907,#922);
#924=EDGE_CURVE('',#911,#912,#923,.T.);
#925=DIRECTION('',(0.0,-1.0,0.0));
#926=VECTOR('',#925,1.0);
#927=LINE('',#908,#926);
#928=EDGE_CURVE('',#912,#909,#927,.T.);
#929=ORIENTED_EDGE('',$,$,#916,.T.);
#930=ORIENTED_EDGE('',$,$,#920,.T.);
#931=ORIENTED_EDGE('',$,$,#924,.T.);
#932=ORIENTED_EDGE('',$,$,#928,.T.);
#933=EDGE_LOOP('',(#929,#930,#931,#932));
#934=FACE_OUTER_BOUND('',#933,.T.);
#935=ADVANCED_FACE('',(#934),#5,.T.);
#936=CARTESIAN_POINT('',(4.0,2.0000002,0.0));
#937=CARTESIAN_POINT('',(5.0,2.0000002,0.0));
#938=CARTESIAN_POINT('',(5.0,3.0000002,0.0));
#939=CARTESIAN_POINT('',(4.0,3.0000002,0.0));
#940=VERTEX_POINT('',#936);
#941=VERTEX_POINT('',#937);
#942=VERTEX_POINT('',#938);
#943=VERTEX_POINT('',#939);
#944=DIRECTION('',(1.0,0.0,0.0));
#945=VECTOR('',#944,1.0);
#946=LINE('',#936,#945);
#947=EDGE_CURVE('',#940,#941,#946,.T.);
#948=DIRECTION('',(0.0,1.0,0.0));
#949=VECTOR('',#948,1.0);
#950=LINE('',#937,#949);
#951=EDGE_CURVE('',#941,#942,#950,.T.);
#952=DIRECTION('',(-1.0,0.0,0.0));
#953=VECTOR('',#952,1.0);
#954=LINE('',#938,#953);
#955=EDGE_CURVE('',#942,#943,#954,.T.);
#956=DIRECTION('',(0.0,-1.0,0.0));
#957=VECTOR('',#956,1.0);
#958=LINE('',#939,#957);
#959=EDGE_CURVE('',#943,#940,#958,.T.);
#960=ORIENTED_EDGE('',$,$,#947,.T.);
#961=ORIENTED_EDGE('',$,$,#951,.T.);
#962=ORIENTED_EDGE('',$,$,#955,.T.);
#963=ORIENTED_EDGE('',$,$,#959,.T.);
#964=EDGE_LOOP('',(#960,#961,#962,#963));
#965=FACE_OUTER_BOUND('',#964,.T.);
#966=ADVANCED_FACE('',(#965),#5,.T.);
#967=CARTESIAN_POINT('',(4.0000001,3.0,0.0));
#968=CARTESIAN_POINT('',(5.0000001,3.0,0.0));
#969=CARTESIAN_POINT('',(5.0000001,4.0,0.0));
#970=CARTESIAN_POINT('',(4.0000001,4.0,0.0));
#971=VERTEX_POINT('',#967);
#972=VERTEX_POINT('',#968);
#973=VERTEX_POINT('',#969);
#974=VERTEX_POINT('',#970);
#975=DIRECTION('',(1.0,0.0,0.0));
#976=VECTOR('',#975,1.0);
#977=LINE('',#967,#976);
#978=EDGE_CURVE('',#971,#972,#977,.T.);
#979=DIRECTION('',(0.0,1.0,0.0));
#980=VECTOR('',#979,1.0);
#981=LINE('',#968,#980);
#982=EDGE_CURVE('',#972,#973,#981,.T.);
#983=DIRECTION('',(-1.0,0.0,0.0));
#984=VECTOR('',#983,1.0);
#985=LINE('',#969,#984);
#986=EDGE_CURVE('',#973,#974,#985,.T.);
#987=DIRECTION('',(0.0,-1.0,0.0));
#988=VECTOR('',#987,1.0);
#989=LINE('',#970,#988);
#990=EDGE_CURVE('',#974,#971,#989,.T.);
#991=ORIENTED_EDGE('',$,$,#978,.T.);
#992=ORIENTED_EDGE('',$,$,#982,.T.);
#993=ORIENTED_EDGE('',$,$,#986,.T.);
#994=ORIENTED_EDGE('',$,$,#990,.T.);
#995=EDGE_LOOP('',(#991,#992,#993,#994));
#996=FACE_OUTER_BOUND('',#995,.T.);
#997=ADVANCED_FACE('',(#996),#5,.T.);
#998=CARTESIAN_POINT('',(4.0000002,4.0000001,0.0));
#999=CARTESIAN_POINT('',(5.0000002,4.0000001,0.0));
#1000=CARTESIAN_POINT('',(5.0000002,5.0000001,0.0));
#1001=CARTESIAN_POINT('',(4.0000002,5.0000001,0.0));
#1002=VERTEX_POINT('',#998);
#1003=VERTEX_POINT('',#999);
#1004=VERTEX_POINT('',#1000);
#1005=VERTEX_POINT('',#1001);
#1006=DIRECTION('',(1.0,0.0,0.0));
#1007=VECTOR('',#1006,1.0);
#1008=LINE('',#998,#1007);
#1009=EDGE_CURVE('',#1002,#1003,#1008,.T.);
#1010=DIRECTION('',(0.0,1.0,0.0));
#1011=VECTOR('',#1010,1.0);
#1012=LINE('',#999,#1011);
#1013=EDGE_CURVE('',#1003,#1004,#1012,.T.);
#1014=DIRECTION('',(-1.0,0.0,0.0));
#1015=VECTOR('',#1014,1.0);
#1016=LINE('',#1000,#1015);
#1017=EDGE_CURVE('',#1004,#1005,#1016,.T.);
#1018=DIRECTION('',(0.0,-1.0,0.0));
#1019=VECTOR('',#1018,1.0);
#1020=LINE('',#1001,#1019);
#1021=EDGE_CURVE('',#1005,#1002,#1020,.T.);
#1022=ORIENTED_EDGE('',$,$,#1009,.T.);
#1023=ORIENTED_EDGE('',$,$,#1013,.T.);
#1024=ORIENTED_EDGE('',$,$,#1017,.T.);
#1025=ORIENTED_EDGE('',$,$,#1021,.T.);
#1026=EDGE_LOOP('',(#1022,#1023,#1024,#1025));
#1027=FACE_OUTER_BOUND('',#1026,.T.);
#1028=ADVANCED_FACE('',(#1027),#5,.T.);
#1029=CARTESIAN_POINT('',(4.0,5.0000002,0.0));
#1030=CARTESIAN_POINT('',(5.0,5.0000002,0.0));
#1031=CARTESIAN_POINT('',(5.0,6.0000002,0.0));
#1032=CARTESIAN_POINT('',(4.0,6.0000002,0.0));
#1033=VERTEX_POINT('',#1029);
#1034=VERTEX_POINT('',#1030);
#1035=VERTEX_POINT('',#1031);
#1036=VERTEX_POINT('',#1032);
#1037=DIRECTION('',(1.0,0.0,0.0));
#1038=VECTOR('',#1037,1.0);
#1039=LINE('',#1029,#1038);
#1040=EDGE_CURVE('',#1033,#1034,#1039,.T.);
#1041=DIRECTION('',(0.0,1.0,0.0));
#1042=VECTOR('',#1041,1.0);
#1043=LINE('',#1030,#1042);
#1044=EDGE_CURVE('',#1034,#1035,#1043,.T.);
#1045=DIRECTION('',(-1.0,0.0,0.0));
#1046=VECTOR('',#1045,1.0);
#1047=LINE('',#1031,#1046);
#1048=EDGE_CURVE('',#1035,#1036,#1047,.T.);
#1049=DIRECTION('',(0.0,-1.0,0.0));
#1050=VECTOR('',#1049,1.0);
#1051=LINE('',#1032,#1050);
#1052=EDGE_CURVE('',#1036,#1033,#1051,.T.);
#1053=ORIENTED_EDGE('',$,$,#1040,.T.);
#1054=ORIENTED_EDGE('',$,$,#1044,.T.);
#1055=ORIENTED_EDGE('',$,$,#1048,.T.);
#1056=ORIENTED_EDGE('',$,$,#1052,.T.);
#1057=EDGE_LOOP('',(#1053,#1054,#1055,#1056));
#1058=FACE_OUTER_BOUND('',#1057,.T.);
#1059=ADVANCED_FACE('',(#1058),#5,.T.);
#1060=CARTESIAN_POINT('',(4.0000001,6.0,0.0));
#1061=CARTESIAN_POINT('',(5.0000001,6.0,0.0));
#1062=CARTESIAN_POINT('',(5.0000001,7.0,0.0));
#1063=CARTESIAN_POINT('',(4.0000001,7.0,0.0));
#1064=VERTEX_POINT('',#1060);
#1065=VERTEX_POINT('',#1061);
#1066=VERTEX_POINT('',#1062);
#1067=VERTEX_POINT('',#1063);
#1068=DIRECTION('',(1.0,0.0,0.0));
#1069=VECTOR('',#1068,1.0);
#1070=LINE('',#1060,#1069);
#1071=EDGE_CURVE('',#1064,#1065,#1070,.T.);
#1072=DIRECTION('',(0.0,1.0,0.0));
#1073=VECTOR('',#1072,1.0);
#1074=LINE('',#1061,#1073);
#1075=EDGE_CURVE('',#1065,#1066,#1074,.T.);
#1076=DIRECTION('',(-1.0,0.0,0.0));
#1077=VECTOR('',#1076,1.0);
#1078=LINE('',#1062,#1077);
#1079=EDGE_CURVE('',#1066,#1067,#1078,.T.);
#1080=DIRECTION('',(0.0,-1.0,0.0));
#1081=VECTOR('',#1080,1.0);
#1082=LINE('',#1063,#1081);
#1083=EDGE_CURVE('',#1067,#1064,#1082,.T.);
#1084=ORIENTED_EDGE('',$,$,#1071,.T.);
#1085=ORIENTED_EDGE('',$,$,#1075,.T.);
#1086=ORIENTED_EDGE('',$,$,#1079,.T.);
#1087=ORIENTED_EDGE('',$,$,#1083,.T.);
#1088=EDGE_LOOP('',(#1084,#1085,#1086,#1087));
#1089=FACE_OUTER_BOUND('',#1088,.T.);
#1090=ADVANCED_FACE('',(#1089),#5,.T.);
#1091=CARTESIAN_POINT('',(5.0000002,0.0,0.0));
#1092=CARTESIAN_POINT('',(6.0000002,0.0,0.0));
#1093=CARTESIAN_POINT('',(6.0000002,1.0,0.0));
#1094=CARTESIAN_POINT('',(5.0000002,1.0,0.0));
#1095=VERTEX_POINT('',#1091);
#1096=VERTEX_POINT('',#1092);
#1097=VERTEX_POINT('',#1093);
#1098=VERTEX_POINT('',#1094);
#1099=DIRECTION('',(1.0,0.0,0.0));
#1100=VECTOR('',#1099,1.0);
#1101=LINE('',#1091,#1100);
#1102=EDGE_CURVE('',#1095,#1096,#1101,.T.);
#1103=DIRECTION('',(0.0,1.0,0.0));
#1104=VECTOR('',#1103,1.0);
#1105=LINE('',#1092,#1104);
#1106=EDGE_CURVE('',#1096,#1097,#1105,.T.);
#1107=DIRECTION('',(-1.0,0.0,0.0));
#1108=VECTOR('',#1107,1.0);
#1109=LINE('',#1093,#1108);
#1110=EDGE_CURVE('',#1097,#1098,#1109,.T.);
#1111=DIRECTION('',(0.0,-1.0,0.0));
#1112=VECTOR('',#1111,1.0);
#1113=LINE('',#1094,#1112);
#1114=EDGE_CURVE('',#1098,#1095,#1113,.T.);
#1115=ORIENTED_EDGE('',$,$,#1102,.T.);
#1116=ORIENTED_EDGE('',$,$,#1106,.T.);
#1117=ORIENTED_EDGE('',$,$,#1110,.T.);
#1118=ORIENTED_EDGE('',$,$,#1114,.T.);
#1119=EDGE_LOOP('',(#1115,#1116,#1117,#1118));
#1120=FACE_OUTER_BOUND('',#1119,.T.);
#1121=ADVANCED_FACE('',(#1120),#5,.T.);
#1122=CARTESIAN_POINT('',(5.0,1.0000002,0.0));
#1123=CARTESIAN_POINT('',(6.0,1.0000002,0.0));
#1124=CARTESIAN_POINT('',(6.0,2.0000002,0.0));
#1125=CARTESIAN_POINT('',(5.0,2.0000002,0.0));
#1126=VERTEX_POINT('',#1122);
#1127=VERTEX_POINT('',#1123);
#1128=VERTEX_POINT('',#1124);
#1129=VERTEX_POINT('',#1125);
#1130=DIRECTION('',(1.0,0.0,0.0));
#1131=VECTOR('',#1130,1.0);
#1132=LINE('',#1122,#1131);
#1133=EDGE_CURVE('',#1126,#1127,#1132,.T.);
#1134=DIRECTION('',(0.0,1.0,0.0));
#1135=VECTOR('',#1134,1.0);
#1136=LINE('',#1123,#1135);
#1137=EDGE_CURVE('',#1127,#1128,#1136,.T.);
#1138=DIRECTION('',(-1.0,0.0,0.0));
#1139=VECTOR('',#1138,1.0);
#1140=LINE('',#1124,#1139);
#1141=EDGE_CURVE('',#1128,#1129,#1140,.T.);
#1142=DIRECTION('',(0.0,-1.0,0.0));
#1143=VECTOR('',#1142,1.0);
#1144=LINE('',#1125,#1143);
#1145=EDGE_CURVE('',#1129,#1126,#1144,.T.);
#1146=ORIENTED_EDGE('',$,$,#1133,.T.);
#1147=ORIENTED_EDGE('',$,$,#1137,.T.);
#1148=ORIENTED_EDGE('',$,$,#1141,.T.);
#1149=ORIENTED_EDGE('',$,$,#1145,.T.);
#1150=EDGE_LOOP('',(#1146,#1147,#1148,#1149));
#1151=FACE_OUTER_BOUND('',#1150,.T.);
#1152=ADVANCED_FACE('',(#1151),#5,.T.);
#1153=CARTESIAN_POINT('',(5.0000001,2.0000001,0.0));
#1154=CARTESIAN_POINT('',(6.0000001,2.0000001,0.0));
#1155=CARTESIAN_POINT('',(6.0000001,3.0000001,0.0));
#1156=CARTESIAN_POINT('',(5.0000001,3.0000001,0.0));
#1157=VERTEX_POINT('',#1153);
#1158=VERTEX_POINT('',#1154);
#1159=VERTEX_POINT('',#1155);
#1160=VERTEX_POINT('',#1156);
#1161=DIRECTION('',(1.0,0.0,0.0));
#1162=VECTOR('',#1161,1.0);
#1163=LINE('',#1153,#1162);
#1164=EDGE_CURVE('',#1157,#1158,#1163,.T.);
#1165=DIRECTION('',(0.0,1.0,0.0));
#1166=VECTOR('',#1165,1.0);
#1167=LINE('',#1154,#1166);
#1168=EDGE_CURVE('',#1158,#1159,#1167,.T.);
#1169=DIRECTION('',(-1.0,0.0,0.0));
#1170=VECTOR('',#1169,1.0);
#1171=LINE('',#1155,#1170);
#1172=EDGE_CURVE('',#1159,#1160,#1171,.T.);
#1173=DIRECTION('',(0.0,-1.0,0.0));
#1174=VECTOR('',#1173,1.0);
#1175=LINE('',#1156,#1174);
#1176=EDGE_CURVE('',#1160,#1157,#1175,.T.);
#1177=ORIENTED_EDGE('',$,$,#1164,.T.);
#1178=ORIENTED_EDGE('',$,$,#1168,.T.);
#1179=ORIENTED_EDGE('',$,$,#1172,.T.);
#1180=ORIENTED_EDGE('',$,$,#1176,.T.);
#1181=EDGE_LOOP('',(#1177,#1178,#1179,#1180));
#1182=FACE_OUTER_BOUND('',#1181,.T.);
#1183=ADVANCED_FACE('',(#1182),#5,.T.);
#1184=CARTESIAN_POINT('',(5.0000002,3.0,0.0));
#1185=CARTESIAN_POINT('',(6.0000002,3.0,0.0));
#1186=CARTESIAN_POINT('',(6.0000002,4.0,0.0));
#1187=CARTESIAN_POINT('',(5.0000002,4.0,0.0));
#1188=VERTEX_POINT('',#1184);
#1189=VERTEX_POINT('',#1185);
#1190=VERTEX_POINT('',#1186);
#1191=VERTEX_POINT('',#1187);
#1192=DIRECTION('',(1.0,0.0,0.0));
#1193=VECTOR('',#1192,1.0);
#1194=LINE('',#1184,#1193);
#1195=EDGE_CURVE('',#1188,#1189,#1194,.T.);
#1196=DIRECTION('',(0.0,1.0,0.0));
#1197=VECTOR('',#1196,1.0);
#1198=LINE('',#1185,#1197);
#1199=EDGE_CURVE('',#1189,#1190,#1198,.T.);
#1200=DIRECTION('',(-1.0,0.0,0.0));
#1201=VECTOR('',#1200,1.0);
#1202=LINE('',#1186,#1201);
#1203=EDGE_CURVE('',#1190,#1191,#1202,.T.);
#1204=DIRECTION('',(0.0,-1.0,0.0));
#1205=VECTOR('',#1204,1.0);
#1206=LINE('',#1187,#1205);
#1207=EDGE_CURVE('',#1191,#1188,#1206,.T.);
#1208=ORIENTED_EDGE('',$,$,#1195,.T.);
#1209=ORIENTED_EDGE('',$,$,#1199,.T.);
#1210=ORIENTED_EDGE('',$,$,#1203,.T.);
#1211=ORIENTED_EDGE('',$,$,#1207,.T.);
#1212=EDGE_LOOP('',(#1208,#1209,#1210,#1211));
#1213=FACE_OUTER_BOUND('',#1212,.T.);
#1214=ADVANCED_FACE('',(#1213),#5,.T.);
#1215=CARTESIAN_POINT('',(5.0,4.0000002,0.0));
#1216=CARTESIAN_POINT('',(6.0,4.0000002,0.0));
#1217=CARTESIAN_POINT('',(6.0,5.0000002,0.0));
#1218=CARTESIAN_POINT('',(5.0,5.0000002,0.0));
#1219=VERTEX_POINT('',#1215);
#1220=VERTEX_POINT('',#1216);
#1221=VERTEX_POINT('',#1217);
#1222=VERTEX_POINT('',#1218);
#1223=DIRECTION('',(1.0,0.0,0.0));
#1224=VECTOR('',#1223,1.0);
#1225=LINE('',#1215,#1224);
#1226=EDGE_CURVE('',#1219,#1220,#1225,.T.);
#1227=DIRECTION('',(0.0,1.0,0.0));
#1228=VECTOR('',#1227,1.0);
#1229=LINE('',#1216,#1228);
#1230=EDGE_CURVE('',#1220,#1221,#1229,.T.);
#1231=DIRECTION('',(-1.0,0.0,0.0));
#1232=VECTOR('',#1231,1.0);
#1233=LINE('',#1217,#1232);
#1234=EDGE_CURVE('',#1221,#1222,#1233,.T.);
#1235=DIRECTION('',(0.0,-1.0,0.0));
#1236=VECTOR('',#1235,1.0);
#1237=LINE('',#1218,#1236);
#1238=EDGE_CURVE('',#1222,#1219,#1237,.T.);
#1239=ORIENTED_EDGE('',$,$,#1226,.T.);
#1240=ORIENTED_EDGE('',$,$,#1230,.T.);
#1241=ORIENTED_EDGE('',$,$,#1234,.T.);
#1242=ORIENTED_EDGE('',$,$,#1238,.T.);
#1243=EDGE_LOOP('',(#1239,#1240,#1241,#1242));
#1244=FACE_OUTER_BOUND('',#1243,.T.);
#1245=ADVANCED_FACE('',(#1244),#5,.T.);
#1246=CARTESIAN_POINT('',(5.0000001,5.0000001,0.0));
#1247=CARTESIAN_POINT('',(6.0000001,5.0000001,0.0));
#1248=CARTESIAN_POINT('',(6.0000001,6.0000001,0.0));
#1249=CARTESIAN_POINT('',(5.0000001,6.0000001,0.0));
#1250=VERTEX_POINT('',#1246);
#1251=VERTEX_POINT('',#1247);
#1252=VERTEX_POINT('',#1248);
#1253=VERTEX_POINT('',#1249);
#1254=DIRECTION('',(1.0,0.0,0.0));
#1255=VECTOR('',#1254,1.0);
#1256=LINE('',#1246,#1255);
#1257=EDGE_CURVE('',#1250,#1251,#1256,.T.);
#1258=DIRECTION('',(0.0,1.0,0.0));
#1259=VECTOR('',#1258,1.0);
#1260=LINE('',#1247,#1259);
#1261=EDGE_CURVE('',#1251,#1252,#1260,.T.);
#1262=DIRECTION('',(-1.0,0.0,0.0));
#1263=VECTOR('',#1262,1.0);
#1264=LINE('',#1248,#1263);
#1265=EDGE_CURVE('',#1252,#1253,#1264,.T.);
#1266=DIRECTION('',(0.0,-1.0,0.0));
#1267=VECTOR('',#1266,1.0);
#1268=LINE('',#1249,#1267);
#1269=EDGE_CURVE('',#1253,#1250,#1268,.T.);
#1270=ORIENTED_EDGE('',$,$,#1257,.T.);
#1271=ORIENTED_EDGE('',$,$,#1261,.T.);
#1272=ORIENTED_EDGE('',$,$,#1265,.T.);
#1273=ORIENTED_EDGE('',$,$,#1269,.T.);
#1274=EDGE_LOOP('',(#1270,#1271,#1272,#1273));
#1275=FACE_OUTER_BOUND('',#1274,.T.);
#1276=ADVANCED_FACE('',(#1275),#5,.T.);
#1277=CARTESIAN_POINT('',(5.0000002,6.0,0.0));
#1278=CARTESIAN_POINT('',(6.0000002,6.0,0.0));
#1279=CARTESIAN_POINT('',(6.0000002,7.0,0.0));
#1280=CARTESIAN_POINT('',(5.0000002,7.0,0.0));
#1281=VERTEX_POINT('',#1277);
#1282=VERTEX_POINT('',#1278);
#1283=VERTEX_POINT('',#1279);
#1284=VERTEX_POINT('',#1280);
#1285=DIRECTION('',(1.0,0.0,0.0));
#1286=VECTOR('',#1285,1.0);
#1287=LINE('',#1277,#1286);
#1288=EDGE_CURVE('',#1281,#1282,#1287,.T.);
#1289=DIRECTION('',(0.0,1.0,0.0));
#1290=VECTOR('',#1289,1.0);
#1291=LINE('',#1278,#1290);
#1292=EDGE_CURVE('',#1282,#1283,#1291,.T.);
#1293=DIRECTION('',(-1.0,0.0,0.0));
#1294=VECTOR('',#1293,1.0);
#1295=LINE('',#1279,#1294);
#1296=EDGE_CURVE('',#1283,#1284,#1295,.T.);
#1297=DIRECTION('',(0.0,-1.0,0.0));
#1298=VECTOR('',#1297,1.0);
#1299=LINE('',#1280,#1298);
#1300=EDGE_CURVE('',#1284,#1281,#1299,.T.);
#1301=ORIENTED_EDGE('',$,$,#1288,.T.);
#1302=ORIENTED_EDGE('',$,$,#1292,.T.);
#1303=ORIENTED_EDGE('',$,$,#1296,.T.);
#1304=ORIENTED_EDGE('',$,$,#1300,.T.);
#1305=EDGE_LOOP('',(#1301,#1302,#1303,#1304));
#1306=FACE_OUTER_BOUND('',#1305,.T.);
#1307=ADVANCED_FACE('',(#1306),#5,.T.);
#1308=CARTESIAN_POINT('',(6.0,0.0,0.0));
#1309=CARTESIAN_POINT('',(7.0,0.0,0.0));
#1310=CARTESIAN_POINT('',(7.0,1.0,0.0));
#1311=CARTESIAN_POINT('',(6.0,1.0,0.0));
#1312=VERTEX_POINT('',#1308);
#1313=VERTEX_POINT('',#1309);
#1314=VERTEX_POINT('',#1310);
#1315=VERTEX_POINT('',#1311);
#1316=DIRECTION('',(1.0,0.0,0.0));
#1317=VECTOR('',#1316,1.0);
#1318=LINE('',#1308,#1317);
#1319=EDGE_CURVE('',#1312,#1313,#1318,.T.);
#1320=DIRECTION('',(0.0,1.0,0.0));
#1321=VECTOR('',#1320,1.0);
#1322=LINE('',#1309,#1321);
#1323=EDGE_CURVE('',#1313,#1314,#1322,.T.);
#1324=DIRECTION('',(-1.0,0.0,0.0));
#1325=VECTOR('',#1324,1.0);
#1326=LINE('',#1310,#1325);
#1327=EDGE_CURVE('',#1314,#1315,#1326,.T.);
#1328=DIRECTION('',(0.0,-1.0,0.0));
#1329=VECTOR('',#1328,1.0);
#1330=LINE('',#1311,#1329);
#1331=EDGE_CURVE('',#1315,#1312,#1330,.T.);
#1332=ORIENTED_EDGE('',$,$,#1319,.T.);
#1333=ORIENTED_EDGE('',$,$,#1323,.T.);
#1334=ORIENTED_EDGE('',$,$,#1327,.T.);
#1335=ORIENTED_EDGE('',$,$,#1331,.T.);
#1336=EDGE_LOOP('',(#1332,#1333,#1334,#1335));
#1337=FACE_OUTER_BOUND('',#1336,.T.);
#1338=ADVANCED_FACE('',(#1337),#5,.T.);
#1339=CARTESIAN_POINT('',(6.0000001,1.0,0.0));
#1340=CARTESIAN_POINT('',(7.0000001,1.0,0.0));
#1341=CARTESIAN_POINT('',(7.0000001,2.0,0.0));
#1342=CARTESIAN_POINT('',(6.0000001,2.0,0.0));
#1343=VERTEX_POINT('',#1339);
#1344=VERTEX_POINT('',#1340);
#1345=VERTEX_POINT('',#1341);
#1346=VERTEX_POINT('',#1342);
#1347=DIRECTION('',(1.0,0.0,0.0));
#1348=VECTOR('',#1347,1.0);
#1349=LINE('',#1339,#1348);
#1350=EDGE_CURVE('',#1343,#1344,#1349,.T.);
#1351=DIRECTION('',(0.0,1.0,0.0));
#1352=VECTOR('',#1351,1.0);
#1353=LINE('',#1340,#1352);
#1354=EDGE_CURVE('',#1344,#1345,#1353,.T.);
#1355=DIRECTION('',(-1.0,0.0,0.0));
#1356=VECTOR('',#1355,1.0);
#1357=LINE('',#1341,#1356);
#1358=EDGE_CURVE('',#1345,#1346,#1357,.T.);
#1359=DIRECTION('',(0.0,-1.0,0.0));
#1360=VECTOR('',#1359,1.0);
#1361=LINE('',#1342,#1360);
#1362=EDGE_CURVE('',#1346,#1343,#1361,.T.);
#1363=ORIENTED_EDGE('',$,$,#1350,.T.);
#1364=ORIENTED_EDGE('',$,$,#1354,.T.);
#1365=ORIENTED_EDGE('',$,$,#1358,.T.);
#1366=ORIENTED_EDGE('',$,$,#1362,.T.);
#1367=EDGE_LOOP('',(#1363,#1364,#1365,#1366));
#1368=FACE_OUTER_BOUND('',#1367,.T.);
#1369=ADVANCED_FACE('',(#1368),#5,.T.);
#1370=CARTESIAN_POINT('',(6.0000002,2.0,0.0));
#1371=CARTESIAN_POINT('',(7.0000002,2.0,0.0));
#1372=CARTESIAN_POINT('',(7.0000002,3.0,0.0));
#1373=CARTESIAN_POINT('',(6.0000002,3.0,0.0));
#1374=VERTEX_POINT('',#1370);
#1375=VERTEX_POINT('',#1371);
#1376=VERTEX_POINT('',#1372);
#1377=VERTEX_POINT('',#1373);
#1378=DIRECTION('',(1.0,0.0,0.0));
#1379=VECTOR('',#1378,1.0);
#1380=LINE('',#1370,#1379);
#1381=EDGE_CURVE('',#1374,#1375,#1380,.T.);
#1382=DIRECTION('',(0.0,1.0,0.0));
#1383=VECTOR('',#1382,1.0);
#1384=LINE('',#1371,#1383);
#1385=EDGE_CURVE('',#1375,#1376,#1384,.T.);
#1386=DIRECTION('',(-1.0,0.0,0.0));
#1387=VECTOR('',#1386,1.0);
#1388=LINE('',#1372,#1387);
#1389=EDGE_CURVE('',#1376,#1377,#1388,.T.);
#1390=DIRECTION('',(0.0,-1.0,0.0));
#1391=VECTOR('',#1390,1.0);
#1392=LINE('',#1373,#1391);
#1393=EDGE_CURVE('',#1377,#1374,#1392,.T.);
#1394=ORIENTED_EDGE('',$,$,#1381,.T.);
#1395=ORIENTED_EDGE('',$,$,#1385,.T.);
#1396=ORIENTED_EDGE('',$,$,#1389,.T.);
#1397=ORIENTED_EDGE('',$,$,#1393,.T.);
#1398=EDGE_LOOP('',(#1394,#1395,#1396,#1397));
#1399=FACE_OUTER_BOUND('',#1398,.T.);
#1400=ADVANCED_FACE('',(#1399),#5,.T.);
#1401=CARTESIAN_POINT('',(6.0,3.0,0.0));
#1402=CARTESIAN_POINT('',(7.0,3.0,0.0));
#1403=CARTESIAN_POINT('',(7.0,4.0,0.0));
#1404=CARTESIAN_POINT('',(6.0,4.0,0.0));
#1405=VERTEX_POINT('',#1401);
#1406=VERTEX_POINT('',#1402);
#1407=VERTEX_POINT('',#1403);
#1408=VERTEX_POINT('',#1404);
#1409=DIRECTION('',(1.0,0.0,0.0));
#1410=VECTOR('',#1409,1.0);
#1411=LINE('',#1401,#1410);
#1412=EDGE_CURVE('',#1405,#1406,#1411,.T.);
#1413=DIRECTION('',(0.0,1.0,0.0));
#1414=VECTOR('',#1413,1.0);
#1415=LINE('',#1402,#1414);
#1416=EDGE_CURVE('',#1406,#1407,#1415,.T.);
#1417=DIRECTION('',(-1.0,0.0,0.0));
#1418=VECTOR('',#1417,1.0);
#1419=LINE('',#1403,#1418);
#1420=EDGE_CURVE('',#1407,#1408,#1419,.T.);
#1421=DIRECTION('',(0.0,-1.0,0.0));
#1422=VECTOR('',#1421,1.0);
#1423=LINE('',#1404,#1422);
#1424=EDGE_CURVE('',#1408,#1405,#1423,.T.);
#1425=ORIENTED_EDGE('',$,$,#1412,.T.);
#1426=ORIENTED_EDGE('',$,$,#1416,.T.);
#1427=ORIENTED_EDGE('',$,$,#1420,.T.);
#1428=ORIENTED_EDGE('',$,$,#1424,.T.);
#1429=EDGE_LOOP('',(#1425,#1426,#1427,#1428));
#1430=FACE_OUTER_BOUND('',#1429,.T.);
#1431=ADVANCED_FACE('',(#1430),#5,.T.);
#1432=CARTESIAN_POINT('',(6.0000001,4.0,0.0));
#1433=CARTESIAN_POINT('',(7.0000001,4.0,0.0));
#1434=CARTESIAN_POINT('',(7.0000001,5.0,0.0));
#1435=CARTESIAN_POINT('',(6.0000001,5.0,0.0));
#1436=VERTEX_POINT('',#1432);
#1437=VERTEX_POINT('',#1433);
#1438=VERTEX_POINT('',#1434);
#1439=VERTEX_POINT('',#1435);
#1440=DIRECTION('',(1.0,0.0,0.0));
#1441=VECTOR('',#1440,1.0);
#1442=LINE('',#1432,#1441);
#1443=EDGE_CURVE('',#1436,#1437,#1442,.T.);
#1444=DIRECTION('',(0.0,1.0,0.0));
#1445=VECTOR('',#1444,1.0);
#1446=LINE('',#1433,#1445);
#1447=EDGE_CURVE('',#1437,#1438,#1446,.T.);
#1448=DIRECTION('',(-1.0,0.0,0.0));
#1449=VECTOR('',#1448,1.0);
#1450=LINE('',#1434,#1449);
#1451=EDGE_CURVE('',#1438,#1439,#1450,.T.);
#1452=DIRECTION('',(0.0,-1.0,0.0));
#1453=VECTOR('',#1452,1.0);
#1454=LINE('',#1435,#1453);
#1455=EDGE_CURVE('',#1439,#1436,#1454,.T.);
#1456=ORIENTED_EDGE('',$,$,#1443,.T.);
#1457=ORIENTED_EDGE('',$,$,#1447,.T.);
#1458=ORIENTED_EDGE('',$,$,#1451,.T.);
#1459=ORIENTED_EDGE('',$,$,#1455,.T.);
#1460=EDGE_LOOP('',(#1456,#1457,#1458,#1459));
#1461=FACE_OUTER_BOUND('',#1460,.T.);
#1462=ADVANCED_FACE('',(#1461),#5,.T.);
#1463=CARTESIAN_POINT('',(6.0000002,5.0,0.0));
#1464=CARTESIAN_POINT('',(7.0000002,5.0,0.0));
#1465=CARTESIAN_POINT('',(7.0000002,6.0,0.0));
#1466=CARTESIAN_POINT('',(6.0000002,6.0,0.0));
#1467=VERTEX_POINT('',#1463);
#1468=VERTEX_POINT('',#1464);
#1469=VERTEX_POINT('',#1465);
#1470=VERTEX_POINT('',#1466);
#1471=DIRECTION('',(1.0,0.0,0.0));
#1472=VECTOR('',#1471,1.0);
#1473=LINE('',#1463,#1472);
#1474=EDGE_CURVE('',#1467,#1468,#1473,.T.);
#1475=DIRECTION('',(0.0,1.0,0.0));
#1476=VECTOR('',#1475,1.0);
#1477=LINE('',#1464,#1476);
#1478=EDGE_CURVE('',#1468,#1469,#1477,.T.);
#1479=DIRECTION('',(-1.0,0.0,0.0));
#1480=VECTOR('',#1479,1.0);
#1481=LINE('',#1465,#1480);
#1482=EDGE_CURVE('',#1469,#1470,#1481,.T.);
#1483=DIRECTION('',(0.0,-1.0,0.0));
#1484=VECTOR('',#1483,1.0);
#1485=LINE('',#1466,#1484);
#1486=EDGE_CURVE('',#1470,#1467,#1485,.T.);
#1487=ORIENTED_EDGE('',$,$,#1474,.T.);
#1488=ORIENTED_EDGE('',$,$,#1478,.T.);
#1489=ORIENTED_EDGE('',$,$,#1482,.T.);
#1490=ORIENTED_EDGE('',$,$,#1486,.T.);
#1491=EDGE_LOOP('',(#1487,#1488,#1489,#1490));
#1492=FACE_OUTER_BOUND('',#1491,.T.);
#1493=ADVANCED_FACE('',(#1492),#5,.T.);
#1494=CARTESIAN_POINT('',(6.0,6.0,0.0));
#1495=CARTESIAN_POINT('',(7.0,6.0,0.0));
#1496=CARTESIAN_POINT('',(7.0,7.0,0.0));
#1497=CARTESIAN_POINT('',(6.0,7.0,0.0));
#1498=VERTEX_POINT('',#1494);
#1499=VERTEX_POINT('',#1495);
#1500=VERTEX_POINT('',#1496);
#1501=VERTEX_POINT('',#1497);
#1502=DIRECTION('',(1.0,0.0,0.0));
#1503=VECTOR('',#1502,1.0);
#1504=LINE('',#1494,#1503);
#1505=EDGE_CURVE('',#1498,#1499,#1504,.T.);
#1506=DIRECTION('',(0.0,1.0,0.0));
#1507=VECTOR('',#1506,1.0);
#1508=LINE('',#1495,#1507);
#1509=EDGE_CURVE('',#1499,#1500,#1508,.T.);
#1510=DIRECTION('',(-1.0,0.0,0.0));
#1511=VECTOR('',#1510,1.0);
#1512=LINE('',#1496,#1511);
#1513=EDGE_CURVE('',#1500,#1501,#1512,.T.);
#1514=DIRECTION('',(0.0,-1.0,0.0));
#1515=VECTOR('',#1514,1.0);
#1516=LINE('',#1497,#1515);
#1517=EDGE_CURVE('',#1501,#1498,#1516,.T.);
#1518=ORIENTED_EDGE('',$,$,#1505,.T.);
#1519=ORIENTED_EDGE('',$,$,#1509,.T.);
#1520=ORIENTED_EDGE('',$,$,#1513,.T.);
#1521=ORIENTED_EDGE('',$,$,#1517,.T.);
#1522=EDGE_LOOP('',(#1518,#1519,#1520,#1521));
#1523=FACE_OUTER_BOUND('',#1522,.T.);
#1524=ADVANCED_FACE('',(#1523),#5,.T.);
#1525=CLOSED_SHELL('huge_grid_shell',(#36,#67,#98,#129,#160,#191,#222,#253,#284,#315,#346,#377,#408,#439,#470,#501,#532,#563,#594,#625,#656,#687,#718,#749,#780,#811,#842,#873,#904,#935,#966,#997,#1028,#1059,#1090,#1121,#1152,#1183,#1214,#1245,#1276,#1307,#1338,#1369,#1400,#1431,#1462,#1493,#1524));
#1526=MANIFOLD_SOLID_BREP('huge_brep',#1525);
#9050=PRODUCT_CONTEXT('',#9000,'mechanical');
#9051=PRODUCT('Pf017','Pf017','',(#9050));
#9052=PRODUCT_DEFINITION_FORMATION('','',#9051);
#9053=PRODUCT_DEFINITION_CONTEXT('part definition',#9000,'design');
#9054=PRODUCT_DEFINITION('','','',#9052,#9053);
#9055=PRODUCT_DEFINITION_SHAPE('','','',#9054);
#9056=(LENGTH_UNIT()NAMED_UNIT(*)SI_UNIT(.MILLI.,.METRE.));
#9057=(NAMED_UNIT(*)PLANE_ANGLE_UNIT()SI_UNIT($,.RADIAN.));
#9058=(NAMED_UNIT(*)SI_UNIT($,.STERADIAN.)SOLID_ANGLE_UNIT());
#9059=UNCERTAINTY_MEASURE_WITH_UNIT(.LENGTH_MEASURE(1.0E-7).,#9056,'distance_accuracy_value','');
#9060=(GEOMETRIC_REPRESENTATION_CONTEXT(3)GLOBAL_UNCERTAINTY_ASSIGNED_CONTEXT((#9059))GLOBAL_UNIT_ASSIGNED_CONTEXT((#9056,#9057,#9058))REPRESENTATION_CONTEXT('','3D'));
#9061=MANIFOLD_SURFACE_SHAPE_REPRESENTATION('',(#1526),#9060);
#9062=SHAPE_DEFINITION_REPRESENTATION(#9055,#9061);
ENDSEC;
END-ISO-10303-21;
