ISO-10303-21;
/* Pf024: EDGE_LOOP with crossed diagonals forming X-shape: A→C, B→D, A→B, C→D; intersection-healing split-index range check missing; healer infinite-loops on out-of-range split index; the defect entity is emitted but sits unreachable from the shape-rep root (product chain roots a GEOMETRIC_CURVE_SET stub), so OCC loads only a 1-vertex stub (shape(1)); byte-present but oracle-invisible to the load-time shape-count oracles */
HEADER;
FILE_DESCRIPTION(('Pf024'),'2;1');
FILE_NAME('Pf024.stp','2026-06-17T00:00:00',(''),(''),'cad-research-suite','','');
FILE_SCHEMA(('AUTOMOTIVE_DESIGN { 1 0 10303 214 3 1 1 }'));
ENDSEC;
DATA;
#9000=APPLICATION_CONTEXT('mechanical design');
#1=CARTESIAN_POINT('',(0.0,0.0,0.0));
#2=GEOMETRIC_CURVE_SET('',(#1));
#9050=PRODUCT_CONTEXT('',#9000,'mechanical');
#9051=PRODUCT('Pf024','Pf024','',(#9050));
#9052=PRODUCT_DEFINITION_FORMATION('','',#9051);
#9053=PRODUCT_DEFINITION_CONTEXT('part definition',#9000,'design');
#9054=PRODUCT_DEFINITION('','','',#9052,#9053);
#9055=PRODUCT_DEFINITION_SHAPE('','','',#9054);
#9056=(LENGTH_UNIT()NAMED_UNIT(*)SI_UNIT(.MILLI.,.METRE.));
#9057=(NAMED_UNIT(*)PLANE_ANGLE_UNIT()SI_UNIT($,.RADIAN.));
#9058=(NAMED_UNIT(*)SI_UNIT($,.STERADIAN.)SOLID_ANGLE_UNIT());
#9059=UNCERTAINTY_MEASURE_WITH_UNIT(LENGTH_MEASURE(1.0E-7),#9056,'distance_accuracy_value','');
#9060=(GEOMETRIC_REPRESENTATION_CONTEXT(3)GLOBAL_UNCERTAINTY_ASSIGNED_CONTEXT((#9059))GLOBAL_UNIT_ASSIGNED_CONTEXT((#9056,#9057,#9058))REPRESENTATION_CONTEXT('','3D'));
#9061=MANIFOLD_SURFACE_SHAPE_REPRESENTATION('',(#2),#9060);
#9062=SHAPE_DEFINITION_REPRESENTATION(#9055,#9061);
#9063=CARTESIAN_POINT('',(0.0,0.0,0.0));
#9064=CARTESIAN_POINT('',(2.0,0.0,0.0));
#9065=CARTESIAN_POINT('',(2.0,2.0,0.0));
#9066=CARTESIAN_POINT('',(0.0,2.0,0.0));
#9067=CARTESIAN_POINT('',(1.0,1.0,0.0));
#9068=VERTEX_POINT('',#9063);
#9069=VERTEX_POINT('',#9064);
#9070=VERTEX_POINT('',#9065);
#9071=VERTEX_POINT('',#9066);
#9072=DIRECTION('',(0.707106781187,0.707106781187,0.0));
#9073=VECTOR('',#9072,2.82842712475);
#9074=LINE('',#9063,#9073);
#9075=EDGE_CURVE('',#9068,#9070,#9074,.T.);
#9076=DIRECTION('',(-0.707106781187,0.707106781187,0.0));
#9077=VECTOR('',#9076,2.82842712475);
#9078=LINE('',#9064,#9077);
#9079=EDGE_CURVE('',#9069,#9071,#9078,.T.);
#9080=DIRECTION('',(1.0,0.0,0.0));
#9081=VECTOR('',#9080,2.0);
#9082=LINE('',#9063,#9081);
#9083=EDGE_CURVE('',#9068,#9069,#9082,.T.);
#9084=DIRECTION('',(-1.0,0.0,0.0));
#9085=VECTOR('',#9084,2.0);
#9086=LINE('',#9065,#9085);
#9087=EDGE_CURVE('',#9070,#9071,#9086,.T.);
#9088=DIRECTION('',(0.0,-1.0,0.0));
#9089=VECTOR('',#9088,2.0);
#9090=LINE('',#9066,#9089);
#9091=EDGE_CURVE('',#9071,#9068,#9090,.T.);
#9092=ORIENTED_EDGE('',$,$,#9075,.T.);
#9093=ORIENTED_EDGE('',$,$,#9079,.T.);
#9094=ORIENTED_EDGE('',$,$,#9083,.T.);
#9095=ORIENTED_EDGE('',$,$,#9087,.T.);
#9096=ORIENTED_EDGE('',$,$,#9091,.T.);
#9097=EDGE_LOOP('',(#9092,#9093,#9094,#9095,#9096));
#9098=CARTESIAN_POINT('',(0.0,0.0,0.0));
#9099=DIRECTION('',(0.0,0.0,1.0));
#9100=DIRECTION('',(1.0,0.0,0.0));
#9101=AXIS2_PLACEMENT_3D('',#9098,#9099,#9100);
#9102=PLANE('',#9101);
#9103=FACE_OUTER_BOUND('',#9097,.T.);
#9104=ADVANCED_FACE('',(#9103),#9102,.T.);
#9105=OPEN_SHELL('crossed_diag_shell',(#9104));
#9106=SHELL_BASED_SURFACE_MODEL('crossed_diag_sbsm',(#9105));
ENDSEC;
END-ISO-10303-21;
