ISO-10303-21;
/* Tfa063: GEOMETRIC_CURVE_SET containing 10 stacked thin slab ADVANCED_FACEs; each slab 0.0001 mm thick in Z, 10 mm x 10 mm in XY; slabs share XY-plane edges — removing one slab exposes next below threshold; planes named 'plane_z_0' through 'plane_z_9'; faces named 'slab_face_0' through 'slab_face_9'; vertex at (0.0,0.0,0.0001) is top face of first slab; RemoveSmallFaces unbounded recursion triggered by chain pattern; GEOMETRIC_CURVE_SET IS model entity — OCC yields empty; no orphaned entities */
HEADER;
FILE_DESCRIPTION(('Tfa063'),'2;1');
FILE_NAME('Tfa063.stp','2026-06-17T00:00:00',(''),(''),'cad-research-suite','','');
FILE_SCHEMA(('AUTOMOTIVE_DESIGN { 1 0 10303 214 3 1 1 }'));
ENDSEC;
DATA;
#9000=APPLICATION_CONTEXT('mechanical design');
#1=CARTESIAN_POINT('',(0.0,0.0,0.0));
#2=DIRECTION('',(0.0,0.0,1.0));
#3=DIRECTION('',(1.0,0.0,0.0));
#4=AXIS2_PLACEMENT_3D('',#1,#2,#3);
#5=PLANE('plane_z_0',#4);
#6=CARTESIAN_POINT('',(0.0,0.0,0.0));
#7=CARTESIAN_POINT('',(10.0,0.0,0.0));
#8=CARTESIAN_POINT('',(10.0,10.0,0.0));
#9=CARTESIAN_POINT('',(0.0,10.0,0.0));
#10=CARTESIAN_POINT('',( 0.0,0.0,0.0001));
#11=VERTEX_POINT('',#6);
#12=VERTEX_POINT('',#7);
#13=VERTEX_POINT('',#8);
#14=VERTEX_POINT('',#9);
#15=DIRECTION('',(1.0,0.0,0.0));
#16=VECTOR('',#15,10.0);
#17=LINE('',#6,#16);
#18=EDGE_CURVE('',#11,#12,#17,.T.);
#19=DIRECTION('',(0.0,1.0,0.0));
#20=VECTOR('',#19,10.0);
#21=LINE('',#7,#20);
#22=EDGE_CURVE('',#12,#13,#21,.T.);
#23=DIRECTION('',(-1.0,0.0,0.0));
#24=VECTOR('',#23,10.0);
#25=LINE('',#8,#24);
#26=EDGE_CURVE('',#13,#14,#25,.T.);
#27=DIRECTION('',(0.0,-1.0,0.0));
#28=VECTOR('',#27,10.0);
#29=LINE('',#9,#28);
#30=EDGE_CURVE('',#14,#11,#29,.T.);
#31=ORIENTED_EDGE('',*,*,#18,.T.);
#32=ORIENTED_EDGE('',*,*,#22,.T.);
#33=ORIENTED_EDGE('',*,*,#26,.T.);
#34=ORIENTED_EDGE('',*,*,#30,.T.);
#35=EDGE_LOOP('',(#31,#32,#33,#34));
#36=FACE_OUTER_BOUND('',#35,.T.);
#37=ADVANCED_FACE('slab_face_0',(#36),#5,.T.);
#38=CARTESIAN_POINT('',(0.0,0.0,0.0001));
#39=DIRECTION('',(0.0,0.0,1.0));
#40=DIRECTION('',(1.0,0.0,0.0));
#41=AXIS2_PLACEMENT_3D('',#38,#39,#40);
#42=PLANE('plane_z_1',#41);
#43=CARTESIAN_POINT('',(0.0,0.0,0.0001));
#44=CARTESIAN_POINT('',(10.0,0.0,0.0001));
#45=CARTESIAN_POINT('',(10.0,10.0,0.0001));
#46=CARTESIAN_POINT('',(0.0,10.0,0.0001));
#47=VERTEX_POINT('',#43);
#48=VERTEX_POINT('',#44);
#49=VERTEX_POINT('',#45);
#50=VERTEX_POINT('',#46);
#51=DIRECTION('',(1.0,0.0,0.0));
#52=VECTOR('',#51,10.0);
#53=LINE('',#43,#52);
#54=EDGE_CURVE('',#47,#48,#53,.T.);
#55=DIRECTION('',(0.0,1.0,0.0));
#56=VECTOR('',#55,10.0);
#57=LINE('',#44,#56);
#58=EDGE_CURVE('',#48,#49,#57,.T.);
#59=DIRECTION('',(-1.0,0.0,0.0));
#60=VECTOR('',#59,10.0);
#61=LINE('',#45,#60);
#62=EDGE_CURVE('',#49,#50,#61,.T.);
#63=DIRECTION('',(0.0,-1.0,0.0));
#64=VECTOR('',#63,10.0);
#65=LINE('',#46,#64);
#66=EDGE_CURVE('',#50,#47,#65,.T.);
#67=ORIENTED_EDGE('',*,*,#54,.T.);
#68=ORIENTED_EDGE('',*,*,#58,.T.);
#69=ORIENTED_EDGE('',*,*,#62,.T.);
#70=ORIENTED_EDGE('',*,*,#66,.T.);
#71=EDGE_LOOP('',(#67,#68,#69,#70));
#72=FACE_OUTER_BOUND('',#71,.T.);
#73=ADVANCED_FACE('slab_face_1',(#72),#42,.T.);
#74=CARTESIAN_POINT('',(0.0,0.0,0.0002));
#75=DIRECTION('',(0.0,0.0,1.0));
#76=DIRECTION('',(1.0,0.0,0.0));
#77=AXIS2_PLACEMENT_3D('',#74,#75,#76);
#78=PLANE('plane_z_2',#77);
#79=CARTESIAN_POINT('',(0.0,0.0,0.0002));
#80=CARTESIAN_POINT('',(10.0,0.0,0.0002));
#81=CARTESIAN_POINT('',(10.0,10.0,0.0002));
#82=CARTESIAN_POINT('',(0.0,10.0,0.0002));
#83=VERTEX_POINT('',#79);
#84=VERTEX_POINT('',#80);
#85=VERTEX_POINT('',#81);
#86=VERTEX_POINT('',#82);
#87=DIRECTION('',(1.0,0.0,0.0));
#88=VECTOR('',#87,10.0);
#89=LINE('',#79,#88);
#90=EDGE_CURVE('',#83,#84,#89,.T.);
#91=DIRECTION('',(0.0,1.0,0.0));
#92=VECTOR('',#91,10.0);
#93=LINE('',#80,#92);
#94=EDGE_CURVE('',#84,#85,#93,.T.);
#95=DIRECTION('',(-1.0,0.0,0.0));
#96=VECTOR('',#95,10.0);
#97=LINE('',#81,#96);
#98=EDGE_CURVE('',#85,#86,#97,.T.);
#99=DIRECTION('',(0.0,-1.0,0.0));
#100=VECTOR('',#99,10.0);
#101=LINE('',#82,#100);
#102=EDGE_CURVE('',#86,#83,#101,.T.);
#103=ORIENTED_EDGE('',*,*,#90,.T.);
#104=ORIENTED_EDGE('',*,*,#94,.T.);
#105=ORIENTED_EDGE('',*,*,#98,.T.);
#106=ORIENTED_EDGE('',*,*,#102,.T.);
#107=EDGE_LOOP('',(#103,#104,#105,#106));
#108=FACE_OUTER_BOUND('',#107,.T.);
#109=ADVANCED_FACE('slab_face_2',(#108),#78,.T.);
#110=CARTESIAN_POINT('',(0.0,0.0,0.0003));
#111=DIRECTION('',(0.0,0.0,1.0));
#112=DIRECTION('',(1.0,0.0,0.0));
#113=AXIS2_PLACEMENT_3D('',#110,#111,#112);
#114=PLANE('plane_z_3',#113);
#115=CARTESIAN_POINT('',(0.0,0.0,0.0003));
#116=CARTESIAN_POINT('',(10.0,0.0,0.0003));
#117=CARTESIAN_POINT('',(10.0,10.0,0.0003));
#118=CARTESIAN_POINT('',(0.0,10.0,0.0003));
#119=VERTEX_POINT('',#115);
#120=VERTEX_POINT('',#116);
#121=VERTEX_POINT('',#117);
#122=VERTEX_POINT('',#118);
#123=DIRECTION('',(1.0,0.0,0.0));
#124=VECTOR('',#123,10.0);
#125=LINE('',#115,#124);
#126=EDGE_CURVE('',#119,#120,#125,.T.);
#127=DIRECTION('',(0.0,1.0,0.0));
#128=VECTOR('',#127,10.0);
#129=LINE('',#116,#128);
#130=EDGE_CURVE('',#120,#121,#129,.T.);
#131=DIRECTION('',(-1.0,0.0,0.0));
#132=VECTOR('',#131,10.0);
#133=LINE('',#117,#132);
#134=EDGE_CURVE('',#121,#122,#133,.T.);
#135=DIRECTION('',(0.0,-1.0,0.0));
#136=VECTOR('',#135,10.0);
#137=LINE('',#118,#136);
#138=EDGE_CURVE('',#122,#119,#137,.T.);
#139=ORIENTED_EDGE('',*,*,#126,.T.);
#140=ORIENTED_EDGE('',*,*,#130,.T.);
#141=ORIENTED_EDGE('',*,*,#134,.T.);
#142=ORIENTED_EDGE('',*,*,#138,.T.);
#143=EDGE_LOOP('',(#139,#140,#141,#142));
#144=FACE_OUTER_BOUND('',#143,.T.);
#145=ADVANCED_FACE('slab_face_3',(#144),#114,.T.);
#146=CARTESIAN_POINT('',(0.0,0.0,0.0004));
#147=DIRECTION('',(0.0,0.0,1.0));
#148=DIRECTION('',(1.0,0.0,0.0));
#149=AXIS2_PLACEMENT_3D('',#146,#147,#148);
#150=PLANE('plane_z_4',#149);
#151=CARTESIAN_POINT('',(0.0,0.0,0.0004));
#152=CARTESIAN_POINT('',(10.0,0.0,0.0004));
#153=CARTESIAN_POINT('',(10.0,10.0,0.0004));
#154=CARTESIAN_POINT('',(0.0,10.0,0.0004));
#155=VERTEX_POINT('',#151);
#156=VERTEX_POINT('',#152);
#157=VERTEX_POINT('',#153);
#158=VERTEX_POINT('',#154);
#159=DIRECTION('',(1.0,0.0,0.0));
#160=VECTOR('',#159,10.0);
#161=LINE('',#151,#160);
#162=EDGE_CURVE('',#155,#156,#161,.T.);
#163=DIRECTION('',(0.0,1.0,0.0));
#164=VECTOR('',#163,10.0);
#165=LINE('',#152,#164);
#166=EDGE_CURVE('',#156,#157,#165,.T.);
#167=DIRECTION('',(-1.0,0.0,0.0));
#168=VECTOR('',#167,10.0);
#169=LINE('',#153,#168);
#170=EDGE_CURVE('',#157,#158,#169,.T.);
#171=DIRECTION('',(0.0,-1.0,0.0));
#172=VECTOR('',#171,10.0);
#173=LINE('',#154,#172);
#174=EDGE_CURVE('',#158,#155,#173,.T.);
#175=ORIENTED_EDGE('',*,*,#162,.T.);
#176=ORIENTED_EDGE('',*,*,#166,.T.);
#177=ORIENTED_EDGE('',*,*,#170,.T.);
#178=ORIENTED_EDGE('',*,*,#174,.T.);
#179=EDGE_LOOP('',(#175,#176,#177,#178));
#180=FACE_OUTER_BOUND('',#179,.T.);
#181=ADVANCED_FACE('slab_face_4',(#180),#150,.T.);
#182=CARTESIAN_POINT('',(0.0,0.0,0.0005));
#183=DIRECTION('',(0.0,0.0,1.0));
#184=DIRECTION('',(1.0,0.0,0.0));
#185=AXIS2_PLACEMENT_3D('',#182,#183,#184);
#186=PLANE('plane_z_5',#185);
#187=CARTESIAN_POINT('',(0.0,0.0,0.0005));
#188=CARTESIAN_POINT('',(10.0,0.0,0.0005));
#189=CARTESIAN_POINT('',(10.0,10.0,0.0005));
#190=CARTESIAN_POINT('',(0.0,10.0,0.0005));
#191=VERTEX_POINT('',#187);
#192=VERTEX_POINT('',#188);
#193=VERTEX_POINT('',#189);
#194=VERTEX_POINT('',#190);
#195=DIRECTION('',(1.0,0.0,0.0));
#196=VECTOR('',#195,10.0);
#197=LINE('',#187,#196);
#198=EDGE_CURVE('',#191,#192,#197,.T.);
#199=DIRECTION('',(0.0,1.0,0.0));
#200=VECTOR('',#199,10.0);
#201=LINE('',#188,#200);
#202=EDGE_CURVE('',#192,#193,#201,.T.);
#203=DIRECTION('',(-1.0,0.0,0.0));
#204=VECTOR('',#203,10.0);
#205=LINE('',#189,#204);
#206=EDGE_CURVE('',#193,#194,#205,.T.);
#207=DIRECTION('',(0.0,-1.0,0.0));
#208=VECTOR('',#207,10.0);
#209=LINE('',#190,#208);
#210=EDGE_CURVE('',#194,#191,#209,.T.);
#211=ORIENTED_EDGE('',*,*,#198,.T.);
#212=ORIENTED_EDGE('',*,*,#202,.T.);
#213=ORIENTED_EDGE('',*,*,#206,.T.);
#214=ORIENTED_EDGE('',*,*,#210,.T.);
#215=EDGE_LOOP('',(#211,#212,#213,#214));
#216=FACE_OUTER_BOUND('',#215,.T.);
#217=ADVANCED_FACE('slab_face_5',(#216),#186,.T.);
#218=CARTESIAN_POINT('',(0.0,0.0,0.0006));
#219=DIRECTION('',(0.0,0.0,1.0));
#220=DIRECTION('',(1.0,0.0,0.0));
#221=AXIS2_PLACEMENT_3D('',#218,#219,#220);
#222=PLANE('plane_z_6',#221);
#223=CARTESIAN_POINT('',(0.0,0.0,0.0006));
#224=CARTESIAN_POINT('',(10.0,0.0,0.0006));
#225=CARTESIAN_POINT('',(10.0,10.0,0.0006));
#226=CARTESIAN_POINT('',(0.0,10.0,0.0006));
#227=VERTEX_POINT('',#223);
#228=VERTEX_POINT('',#224);
#229=VERTEX_POINT('',#225);
#230=VERTEX_POINT('',#226);
#231=DIRECTION('',(1.0,0.0,0.0));
#232=VECTOR('',#231,10.0);
#233=LINE('',#223,#232);
#234=EDGE_CURVE('',#227,#228,#233,.T.);
#235=DIRECTION('',(0.0,1.0,0.0));
#236=VECTOR('',#235,10.0);
#237=LINE('',#224,#236);
#238=EDGE_CURVE('',#228,#229,#237,.T.);
#239=DIRECTION('',(-1.0,0.0,0.0));
#240=VECTOR('',#239,10.0);
#241=LINE('',#225,#240);
#242=EDGE_CURVE('',#229,#230,#241,.T.);
#243=DIRECTION('',(0.0,-1.0,0.0));
#244=VECTOR('',#243,10.0);
#245=LINE('',#226,#244);
#246=EDGE_CURVE('',#230,#227,#245,.T.);
#247=ORIENTED_EDGE('',*,*,#234,.T.);
#248=ORIENTED_EDGE('',*,*,#238,.T.);
#249=ORIENTED_EDGE('',*,*,#242,.T.);
#250=ORIENTED_EDGE('',*,*,#246,.T.);
#251=EDGE_LOOP('',(#247,#248,#249,#250));
#252=FACE_OUTER_BOUND('',#251,.T.);
#253=ADVANCED_FACE('slab_face_6',(#252),#222,.T.);
#254=CARTESIAN_POINT('',(0.0,0.0,0.0007));
#255=DIRECTION('',(0.0,0.0,1.0));
#256=DIRECTION('',(1.0,0.0,0.0));
#257=AXIS2_PLACEMENT_3D('',#254,#255,#256);
#258=PLANE('plane_z_7',#257);
#259=CARTESIAN_POINT('',(0.0,0.0,0.0007));
#260=CARTESIAN_POINT('',(10.0,0.0,0.0007));
#261=CARTESIAN_POINT('',(10.0,10.0,0.0007));
#262=CARTESIAN_POINT('',(0.0,10.0,0.0007));
#263=VERTEX_POINT('',#259);
#264=VERTEX_POINT('',#260);
#265=VERTEX_POINT('',#261);
#266=VERTEX_POINT('',#262);
#267=DIRECTION('',(1.0,0.0,0.0));
#268=VECTOR('',#267,10.0);
#269=LINE('',#259,#268);
#270=EDGE_CURVE('',#263,#264,#269,.T.);
#271=DIRECTION('',(0.0,1.0,0.0));
#272=VECTOR('',#271,10.0);
#273=LINE('',#260,#272);
#274=EDGE_CURVE('',#264,#265,#273,.T.);
#275=DIRECTION('',(-1.0,0.0,0.0));
#276=VECTOR('',#275,10.0);
#277=LINE('',#261,#276);
#278=EDGE_CURVE('',#265,#266,#277,.T.);
#279=DIRECTION('',(0.0,-1.0,0.0));
#280=VECTOR('',#279,10.0);
#281=LINE('',#262,#280);
#282=EDGE_CURVE('',#266,#263,#281,.T.);
#283=ORIENTED_EDGE('',*,*,#270,.T.);
#284=ORIENTED_EDGE('',*,*,#274,.T.);
#285=ORIENTED_EDGE('',*,*,#278,.T.);
#286=ORIENTED_EDGE('',*,*,#282,.T.);
#287=EDGE_LOOP('',(#283,#284,#285,#286));
#288=FACE_OUTER_BOUND('',#287,.T.);
#289=ADVANCED_FACE('slab_face_7',(#288),#258,.T.);
#290=CARTESIAN_POINT('',(0.0,0.0,0.0008));
#291=DIRECTION('',(0.0,0.0,1.0));
#292=DIRECTION('',(1.0,0.0,0.0));
#293=AXIS2_PLACEMENT_3D('',#290,#291,#292);
#294=PLANE('plane_z_8',#293);
#295=CARTESIAN_POINT('',(0.0,0.0,0.0008));
#296=CARTESIAN_POINT('',(10.0,0.0,0.0008));
#297=CARTESIAN_POINT('',(10.0,10.0,0.0008));
#298=CARTESIAN_POINT('',(0.0,10.0,0.0008));
#299=VERTEX_POINT('',#295);
#300=VERTEX_POINT('',#296);
#301=VERTEX_POINT('',#297);
#302=VERTEX_POINT('',#298);
#303=DIRECTION('',(1.0,0.0,0.0));
#304=VECTOR('',#303,10.0);
#305=LINE('',#295,#304);
#306=EDGE_CURVE('',#299,#300,#305,.T.);
#307=DIRECTION('',(0.0,1.0,0.0));
#308=VECTOR('',#307,10.0);
#309=LINE('',#296,#308);
#310=EDGE_CURVE('',#300,#301,#309,.T.);
#311=DIRECTION('',(-1.0,0.0,0.0));
#312=VECTOR('',#311,10.0);
#313=LINE('',#297,#312);
#314=EDGE_CURVE('',#301,#302,#313,.T.);
#315=DIRECTION('',(0.0,-1.0,0.0));
#316=VECTOR('',#315,10.0);
#317=LINE('',#298,#316);
#318=EDGE_CURVE('',#302,#299,#317,.T.);
#319=ORIENTED_EDGE('',*,*,#306,.T.);
#320=ORIENTED_EDGE('',*,*,#310,.T.);
#321=ORIENTED_EDGE('',*,*,#314,.T.);
#322=ORIENTED_EDGE('',*,*,#318,.T.);
#323=EDGE_LOOP('',(#319,#320,#321,#322));
#324=FACE_OUTER_BOUND('',#323,.T.);
#325=ADVANCED_FACE('slab_face_8',(#324),#294,.T.);
#326=CARTESIAN_POINT('',(0.0,0.0,0.0009));
#327=DIRECTION('',(0.0,0.0,1.0));
#328=DIRECTION('',(1.0,0.0,0.0));
#329=AXIS2_PLACEMENT_3D('',#326,#327,#328);
#330=PLANE('plane_z_9',#329);
#331=CARTESIAN_POINT('',(0.0,0.0,0.0009));
#332=CARTESIAN_POINT('',(10.0,0.0,0.0009));
#333=CARTESIAN_POINT('',(10.0,10.0,0.0009));
#334=CARTESIAN_POINT('',(0.0,10.0,0.0009));
#335=VERTEX_POINT('',#331);
#336=VERTEX_POINT('',#332);
#337=VERTEX_POINT('',#333);
#338=VERTEX_POINT('',#334);
#339=DIRECTION('',(1.0,0.0,0.0));
#340=VECTOR('',#339,10.0);
#341=LINE('',#331,#340);
#342=EDGE_CURVE('',#335,#336,#341,.T.);
#343=DIRECTION('',(0.0,1.0,0.0));
#344=VECTOR('',#343,10.0);
#345=LINE('',#332,#344);
#346=EDGE_CURVE('',#336,#337,#345,.T.);
#347=DIRECTION('',(-1.0,0.0,0.0));
#348=VECTOR('',#347,10.0);
#349=LINE('',#333,#348);
#350=EDGE_CURVE('',#337,#338,#349,.T.);
#351=DIRECTION('',(0.0,-1.0,0.0));
#352=VECTOR('',#351,10.0);
#353=LINE('',#334,#352);
#354=EDGE_CURVE('',#338,#335,#353,.T.);
#355=ORIENTED_EDGE('',*,*,#342,.T.);
#356=ORIENTED_EDGE('',*,*,#346,.T.);
#357=ORIENTED_EDGE('',*,*,#350,.T.);
#358=ORIENTED_EDGE('',*,*,#354,.T.);
#359=EDGE_LOOP('',(#355,#356,#357,#358));
#360=FACE_OUTER_BOUND('',#359,.T.);
#361=ADVANCED_FACE('slab_face_9',(#360),#330,.T.);
#362=GEOMETRIC_CURVE_SET('',(#37,#73,#109,#145,#181,#217,#253,#289,#325,#361));
#9050=PRODUCT_CONTEXT('',#9000,'mechanical');
#9051=PRODUCT('Tfa063','Tfa063','',(#9050));
#9052=PRODUCT_DEFINITION_FORMATION('','',#9051);
#9053=PRODUCT_DEFINITION_CONTEXT('part definition',#9000,'design');
#9054=PRODUCT_DEFINITION('','','',#9052,#9053);
#9055=PRODUCT_DEFINITION_SHAPE('','','',#9054);
#9056=(LENGTH_UNIT()NAMED_UNIT(*)SI_UNIT(.MILLI.,.METRE.));
#9057=(NAMED_UNIT(*)PLANE_ANGLE_UNIT()SI_UNIT($,.RADIAN.));
#9058=(NAMED_UNIT(*)SI_UNIT($,.STERADIAN.)SOLID_ANGLE_UNIT());
#9059=UNCERTAINTY_MEASURE_WITH_UNIT(.LENGTH_MEASURE(1.0E-7).,#9056,'distance_accuracy_value','');
#9060=(GEOMETRIC_REPRESENTATION_CONTEXT(3)GLOBAL_UNCERTAINTY_ASSIGNED_CONTEXT((#9059))GLOBAL_UNIT_ASSIGNED_CONTEXT((#9056,#9057,#9058))REPRESENTATION_CONTEXT('','3D'));
#9061=MANIFOLD_SURFACE_SHAPE_REPRESENTATION('',(#362),#9060);
#9062=SHAPE_DEFINITION_REPRESENTATION(#9055,#9061);
ENDSEC;
END-ISO-10303-21;
