ISO-10303-21;
/* Tfa045: OPEN_SHELL: face[0] is 12×12 PLANE with outer FACE_OUTER_BOUND plus two inner FACE_BOUND triangle wires kissing at shared VERTEX_POINT (5,5,0); wire_a: (2,2)→(5,5)→(2,8)→back; wire_b: (10,2)→(5,5)→(10,8)→back; wires are tangent (kiss) rather than crossing; FixIntersectingWires must distinguish tangent kiss from crossing; defect IS on live OPEN_SHELL traversal path */
HEADER;
FILE_DESCRIPTION(('Tfa045'),'2;1');
FILE_NAME('Tfa045.stp','2026-06-17T00:00:00',(''),(''),'cad-research-suite','','');
FILE_SCHEMA(('AUTOMOTIVE_DESIGN { 1 0 10303 214 3 1 1 }'));
ENDSEC;
DATA;
#9000=APPLICATION_CONTEXT('mechanical design');
#1=CARTESIAN_POINT('',(5.0,5.0,0.0));
#2=VERTEX_POINT('',#1);
#3=CARTESIAN_POINT('',(0.0,0.0,0.0));
#4=CARTESIAN_POINT('',(12.0,0.0,0.0));
#5=CARTESIAN_POINT('',(12.0,12.0,0.0));
#6=CARTESIAN_POINT('',(0.0,12.0,0.0));
#7=VERTEX_POINT('',#3);
#8=VERTEX_POINT('',#4);
#9=VERTEX_POINT('',#5);
#10=VERTEX_POINT('',#6);
#11=DIRECTION('',(1.0,0.0,0.0));
#12=VECTOR('',#11,12.0);
#13=LINE('',#3,#12);
#14=EDGE_CURVE('',#7,#8,#13,.T.);
#15=DIRECTION('',(0.0,1.0,0.0));
#16=VECTOR('',#15,12.0);
#17=LINE('',#4,#16);
#18=EDGE_CURVE('',#8,#9,#17,.T.);
#19=DIRECTION('',(-1.0,0.0,0.0));
#20=VECTOR('',#19,12.0);
#21=LINE('',#5,#20);
#22=EDGE_CURVE('',#9,#10,#21,.T.);
#23=DIRECTION('',(0.0,-1.0,0.0));
#24=VECTOR('',#23,12.0);
#25=LINE('',#6,#24);
#26=EDGE_CURVE('',#10,#7,#25,.T.);
#27=ORIENTED_EDGE('',$,$,#14,.T.);
#28=ORIENTED_EDGE('',$,$,#18,.T.);
#29=ORIENTED_EDGE('',$,$,#22,.T.);
#30=ORIENTED_EDGE('',$,$,#26,.T.);
#31=EDGE_LOOP('',(#27,#28,#29,#30));
#32=CARTESIAN_POINT('',(2.0,2.0,0.0));
#33=CARTESIAN_POINT('',(2.0,8.0,0.0));
#34=VERTEX_POINT('',#32);
#35=VERTEX_POINT('',#33);
#36=DIRECTION('',(0.707106781187,0.707106781187,0.0));
#37=VECTOR('',#36,4.24264068712);
#38=LINE('',#32,#37);
#39=EDGE_CURVE('',#34,#2,#38,.T.);
#40=DIRECTION('',(-0.707106781187,0.707106781187,0.0));
#41=VECTOR('',#40,4.24264068712);
#42=LINE('',#1,#41);
#43=EDGE_CURVE('',#2,#35,#42,.T.);
#44=DIRECTION('',(0.0,-1.0,0.0));
#45=VECTOR('',#44,6.0);
#46=LINE('',#33,#45);
#47=EDGE_CURVE('',#35,#34,#46,.T.);
#48=ORIENTED_EDGE('',$,$,#39,.T.);
#49=ORIENTED_EDGE('',$,$,#43,.T.);
#50=ORIENTED_EDGE('',$,$,#47,.T.);
#51=EDGE_LOOP('',(#48,#49,#50));
#52=CARTESIAN_POINT('',(10.0,2.0,0.0));
#53=CARTESIAN_POINT('',(10.0,8.0,0.0));
#54=VERTEX_POINT('',#52);
#55=VERTEX_POINT('',#53);
#56=DIRECTION('',(-0.857492925713,0.514495755428,0.0));
#57=VECTOR('',#56,5.83095189485);
#58=LINE('',#52,#57);
#59=EDGE_CURVE('',#54,#2,#58,.T.);
#60=DIRECTION('',(0.857492925713,0.514495755428,0.0));
#61=VECTOR('',#60,5.83095189485);
#62=LINE('',#1,#61);
#63=EDGE_CURVE('',#2,#55,#62,.T.);
#64=DIRECTION('',(0.0,-1.0,0.0));
#65=VECTOR('',#64,6.0);
#66=LINE('',#53,#65);
#67=EDGE_CURVE('',#55,#54,#66,.T.);
#68=ORIENTED_EDGE('',$,$,#59,.T.);
#69=ORIENTED_EDGE('',$,$,#63,.T.);
#70=ORIENTED_EDGE('',$,$,#67,.T.);
#71=EDGE_LOOP('',(#68,#69,#70));
#72=CARTESIAN_POINT('',(0.0,0.0,0.0));
#73=DIRECTION('',(0.0,0.0,1.0));
#74=DIRECTION('',(1.0,0.0,0.0));
#75=AXIS2_PLACEMENT_3D('',#72,#73,#74);
#76=PLANE('',#75);
#77=FACE_OUTER_BOUND('',#31,.T.);
#78=FACE_BOUND('',#51,.F.);
#79=FACE_BOUND('',#71,.F.);
#80=ADVANCED_FACE('',(#77,#78,#79),#76,.T.);
#81=OPEN_SHELL('',(#80));
#82=SHELL_BASED_SURFACE_MODEL('',(#81));
#9050=PRODUCT_CONTEXT('',#9000,'mechanical');
#9051=PRODUCT('Tfa045','Tfa045','',(#9050));
#9052=PRODUCT_DEFINITION_FORMATION('','',#9051);
#9053=PRODUCT_DEFINITION_CONTEXT('part definition',#9000,'design');
#9054=PRODUCT_DEFINITION('','','',#9052,#9053);
#9055=PRODUCT_DEFINITION_SHAPE('','','',#9054);
#9056=(LENGTH_UNIT()NAMED_UNIT(*)SI_UNIT(.MILLI.,.METRE.));
#9057=(NAMED_UNIT(*)PLANE_ANGLE_UNIT()SI_UNIT($,.RADIAN.));
#9058=(NAMED_UNIT(*)SI_UNIT($,.STERADIAN.)SOLID_ANGLE_UNIT());
#9059=UNCERTAINTY_MEASURE_WITH_UNIT(.LENGTH_MEASURE(1.0E-7).,#9056,'distance_accuracy_value','');
#9060=(GEOMETRIC_REPRESENTATION_CONTEXT(3)GLOBAL_UNCERTAINTY_ASSIGNED_CONTEXT((#9059))GLOBAL_UNIT_ASSIGNED_CONTEXT((#9056,#9057,#9058))REPRESENTATION_CONTEXT('','3D'));
#9061=MANIFOLD_SURFACE_SHAPE_REPRESENTATION('',(#82),#9060);
#9062=SHAPE_DEFINITION_REPRESENTATION(#9055,#9061);
ENDSEC;
END-ISO-10303-21;
