ISO-10303-21;
/* Tfa083: CLOSED_SHELL 20×10×5 mm box + tiny notch prism; top face (z=5) outer wire has near-tangent notch on south boundary: split at x=8 and x=12, notch apex at (10,-0.05,5) = 0.05mm south; angle between consecutive notch edges ≈ 179.8° (near-reversal); FixNotchedEdges: tangent-angle threshold (≤ comparison) misses near-tangent notch; notch prism closes manifold shell; defect IS on live CLOSED_SHELL traversal path */
HEADER;
FILE_DESCRIPTION(('Tfa083'),'2;1');
FILE_NAME('Tfa083.stp','2026-06-17T00:00:00',(''),(''),'cad-research-suite','','');
FILE_SCHEMA(('AUTOMOTIVE_DESIGN { 1 0 10303 214 3 1 1 }'));
ENDSEC;
DATA;
#9000=APPLICATION_CONTEXT('mechanical design');
#1=CARTESIAN_POINT('',(0.0,0.0,0.0));
#2=CARTESIAN_POINT('',(20.0,0.0,0.0));
#3=CARTESIAN_POINT('',(20.0,10.0,0.0));
#4=CARTESIAN_POINT('',(0.0,10.0,0.0));
#5=VERTEX_POINT('',#1);
#6=VERTEX_POINT('',#2);
#7=VERTEX_POINT('',#3);
#8=VERTEX_POINT('',#4);
#9=CARTESIAN_POINT('',(0.0,0.0,5.0));
#10=CARTESIAN_POINT('',(20.0,0.0,5.0));
#11=CARTESIAN_POINT('',(20.0,10.0,5.0));
#12=CARTESIAN_POINT('',(0.0,10.0,5.0));
#13=VERTEX_POINT('',#9);
#14=VERTEX_POINT('',#10);
#15=VERTEX_POINT('',#11);
#16=VERTEX_POINT('',#12);
#17=CARTESIAN_POINT('',(8.0,0.0,5.0));
#18=CARTESIAN_POINT('',(12.0,0.0,5.0));
#19=CARTESIAN_POINT('',(10.0,-0.05,5.0));
#20=VERTEX_POINT('',#17);
#21=VERTEX_POINT('',#18);
#22=VERTEX_POINT('',#19);
#23=CARTESIAN_POINT('',(8.0,0.0,0.0));
#24=CARTESIAN_POINT('',(12.0,0.0,0.0));
#25=CARTESIAN_POINT('',(10.0,-0.05,0.0));
#26=VERTEX_POINT('',#23);
#27=VERTEX_POINT('',#24);
#28=VERTEX_POINT('',#25);
#29=DIRECTION('',(1.0,0.0,0.0));
#30=CARTESIAN_POINT('',(0.0,0.0,0.0));
#31=VECTOR('',#29,8.0);
#32=LINE('',#30,#31);
#33=EDGE_CURVE('',#5,#26,#32,.T.);
#34=DIRECTION('',(0.999687646408,-0.0249921911602,0.0));
#35=CARTESIAN_POINT('',(8.0,0.0,0.0));
#36=VECTOR('',#34,2.00062490237);
#37=LINE('',#35,#36);
#38=EDGE_CURVE('',#26,#28,#37,.T.);
#39=DIRECTION('',(0.999687646408,0.0249921911602,0.0));
#40=CARTESIAN_POINT('',(10.0,-0.05,0.0));
#41=VECTOR('',#39,2.00062490237);
#42=LINE('',#40,#41);
#43=EDGE_CURVE('',#28,#27,#42,.T.);
#44=DIRECTION('',(1.0,0.0,0.0));
#45=CARTESIAN_POINT('',(12.0,0.0,0.0));
#46=VECTOR('',#44,8.0);
#47=LINE('',#45,#46);
#48=EDGE_CURVE('',#27,#6,#47,.T.);
#49=DIRECTION('',(0.0,1.0,0.0));
#50=CARTESIAN_POINT('',(20.0,0.0,0.0));
#51=VECTOR('',#49,10.0);
#52=LINE('',#50,#51);
#53=EDGE_CURVE('',#6,#7,#52,.T.);
#54=DIRECTION('',(-1.0,0.0,0.0));
#55=CARTESIAN_POINT('',(20.0,10.0,0.0));
#56=VECTOR('',#54,20.0);
#57=LINE('',#55,#56);
#58=EDGE_CURVE('',#7,#8,#57,.T.);
#59=DIRECTION('',(0.0,-1.0,0.0));
#60=CARTESIAN_POINT('',(0.0,10.0,0.0));
#61=VECTOR('',#59,10.0);
#62=LINE('',#60,#61);
#63=EDGE_CURVE('',#8,#5,#62,.T.);
#64=ORIENTED_EDGE('',$,$,#33,.T.);
#65=ORIENTED_EDGE('',$,$,#38,.T.);
#66=ORIENTED_EDGE('',$,$,#43,.T.);
#67=ORIENTED_EDGE('',$,$,#48,.T.);
#68=ORIENTED_EDGE('',$,$,#53,.T.);
#69=ORIENTED_EDGE('',$,$,#58,.T.);
#70=ORIENTED_EDGE('',$,$,#63,.T.);
#71=EDGE_LOOP('',(#64,#65,#66,#67,#68,#69,#70));
#72=DIRECTION('',(0.0,0.0,-1.0));
#73=DIRECTION('',(1.0,0.0,0.0));
#74=AXIS2_PLACEMENT_3D('',#1,#72,#73);
#75=FACE_OUTER_BOUND('',#71,.T.);
#76=PLANE('',#74);
#77=ADVANCED_FACE('',(#75),#76,.T.);
#78=DIRECTION('',(1.0,0.0,0.0));
#79=CARTESIAN_POINT('',(0.0,0.0,5.0));
#80=VECTOR('',#78,8.0);
#81=LINE('',#79,#80);
#82=EDGE_CURVE('',#13,#20,#81,.T.);
#83=DIRECTION('',(0.999687646408,-0.0249921911602,0.0));
#84=CARTESIAN_POINT('',(8.0,0.0,5.0));
#85=VECTOR('',#83,2.00062490237);
#86=LINE('',#84,#85);
#87=EDGE_CURVE('',#20,#22,#86,.T.);
#88=DIRECTION('',(0.999687646408,0.0249921911602,0.0));
#89=CARTESIAN_POINT('',(10.0,-0.05,5.0));
#90=VECTOR('',#88,2.00062490237);
#91=LINE('',#89,#90);
#92=EDGE_CURVE('',#22,#21,#91,.T.);
#93=DIRECTION('',(1.0,0.0,0.0));
#94=CARTESIAN_POINT('',(12.0,0.0,5.0));
#95=VECTOR('',#93,8.0);
#96=LINE('',#94,#95);
#97=EDGE_CURVE('',#21,#14,#96,.T.);
#98=DIRECTION('',(0.0,1.0,0.0));
#99=CARTESIAN_POINT('',(20.0,0.0,5.0));
#100=VECTOR('',#98,10.0);
#101=LINE('',#99,#100);
#102=EDGE_CURVE('',#14,#15,#101,.T.);
#103=DIRECTION('',(-1.0,0.0,0.0));
#104=CARTESIAN_POINT('',(20.0,10.0,5.0));
#105=VECTOR('',#103,20.0);
#106=LINE('',#104,#105);
#107=EDGE_CURVE('',#15,#16,#106,.T.);
#108=DIRECTION('',(0.0,-1.0,0.0));
#109=CARTESIAN_POINT('',(0.0,10.0,5.0));
#110=VECTOR('',#108,10.0);
#111=LINE('',#109,#110);
#112=EDGE_CURVE('',#16,#13,#111,.T.);
#113=ORIENTED_EDGE('',$,$,#82,.T.);
#114=ORIENTED_EDGE('',$,$,#87,.T.);
#115=ORIENTED_EDGE('',$,$,#92,.T.);
#116=ORIENTED_EDGE('',$,$,#97,.T.);
#117=ORIENTED_EDGE('',$,$,#102,.T.);
#118=ORIENTED_EDGE('',$,$,#107,.T.);
#119=ORIENTED_EDGE('',$,$,#112,.T.);
#120=EDGE_LOOP('',(#113,#114,#115,#116,#117,#118,#119));
#121=DIRECTION('',(0.0,0.0,1.0));
#122=DIRECTION('',(1.0,0.0,0.0));
#123=AXIS2_PLACEMENT_3D('',#9,#121,#122);
#124=FACE_OUTER_BOUND('',#120,.T.);
#125=PLANE('',#123);
#126=ADVANCED_FACE('',(#124),#125,.T.);
#127=DIRECTION('',(0.0,0.0,1.0));
#128=CARTESIAN_POINT('',(0.0,0.0,0.0));
#129=VECTOR('',#127,5.0);
#130=LINE('',#128,#129);
#131=EDGE_CURVE('',#5,#13,#130,.T.);
#132=DIRECTION('',(0.0,0.0,1.0));
#133=CARTESIAN_POINT('',(20.0,0.0,0.0));
#134=VECTOR('',#132,5.0);
#135=LINE('',#133,#134);
#136=EDGE_CURVE('',#6,#14,#135,.T.);
#137=DIRECTION('',(0.0,0.0,1.0));
#138=CARTESIAN_POINT('',(20.0,10.0,0.0));
#139=VECTOR('',#137,5.0);
#140=LINE('',#138,#139);
#141=EDGE_CURVE('',#7,#15,#140,.T.);
#142=DIRECTION('',(0.0,0.0,1.0));
#143=CARTESIAN_POINT('',(0.0,10.0,0.0));
#144=VECTOR('',#142,5.0);
#145=LINE('',#143,#144);
#146=EDGE_CURVE('',#8,#16,#145,.T.);
#147=DIRECTION('',(0.0,0.0,1.0));
#148=CARTESIAN_POINT('',(8.0,0.0,0.0));
#149=VECTOR('',#147,5.0);
#150=LINE('',#148,#149);
#151=EDGE_CURVE('',#26,#20,#150,.T.);
#152=DIRECTION('',(0.0,0.0,1.0));
#153=CARTESIAN_POINT('',(12.0,0.0,0.0));
#154=VECTOR('',#152,5.0);
#155=LINE('',#153,#154);
#156=EDGE_CURVE('',#27,#21,#155,.T.);
#157=DIRECTION('',(0.0,0.0,1.0));
#158=CARTESIAN_POINT('',(10.0,-0.05,0.0));
#159=VECTOR('',#157,5.0);
#160=LINE('',#158,#159);
#161=EDGE_CURVE('',#28,#22,#160,.T.);
#162=ORIENTED_EDGE('',$,$,#146,.T.);
#163=ORIENTED_EDGE('',$,$,#107,.F.);
#164=ORIENTED_EDGE('',$,$,#141,.F.);
#165=ORIENTED_EDGE('',$,$,#58,.F.);
#166=EDGE_LOOP('',(#162,#163,#164,#165));
#167=DIRECTION('',(0.0,1.0,0.0));
#168=DIRECTION('',(1.0,0.0,0.0));
#169=AXIS2_PLACEMENT_3D('',#4,#167,#168);
#170=FACE_OUTER_BOUND('',#166,.T.);
#171=PLANE('',#169);
#172=ADVANCED_FACE('',(#170),#171,.T.);
#173=ORIENTED_EDGE('',$,$,#53,.T.);
#174=ORIENTED_EDGE('',$,$,#141,.T.);
#175=ORIENTED_EDGE('',$,$,#102,.F.);
#176=ORIENTED_EDGE('',$,$,#136,.F.);
#177=EDGE_LOOP('',(#173,#174,#175,#176));
#178=DIRECTION('',(1.0,0.0,0.0));
#179=DIRECTION('',(0.0,1.0,0.0));
#180=AXIS2_PLACEMENT_3D('',#2,#178,#179);
#181=FACE_OUTER_BOUND('',#177,.T.);
#182=PLANE('',#180);
#183=ADVANCED_FACE('',(#181),#182,.T.);
#184=ORIENTED_EDGE('',$,$,#131,.T.);
#185=ORIENTED_EDGE('',$,$,#112,.F.);
#186=ORIENTED_EDGE('',$,$,#146,.F.);
#187=ORIENTED_EDGE('',$,$,#63,.F.);
#188=EDGE_LOOP('',(#184,#185,#186,#187));
#189=DIRECTION('',(-1.0,0.0,0.0));
#190=DIRECTION('',(0.0,1.0,0.0));
#191=AXIS2_PLACEMENT_3D('',#1,#189,#190);
#192=FACE_OUTER_BOUND('',#188,.T.);
#193=PLANE('',#191);
#194=ADVANCED_FACE('',(#192),#193,.T.);
#195=ORIENTED_EDGE('',$,$,#33,.T.);
#196=ORIENTED_EDGE('',$,$,#151,.T.);
#197=ORIENTED_EDGE('',$,$,#82,.F.);
#198=ORIENTED_EDGE('',$,$,#131,.F.);
#199=EDGE_LOOP('',(#195,#196,#197,#198));
#200=DIRECTION('',(0.0,-1.0,0.0));
#201=DIRECTION('',(1.0,0.0,0.0));
#202=AXIS2_PLACEMENT_3D('',#1,#200,#201);
#203=FACE_OUTER_BOUND('',#199,.T.);
#204=PLANE('',#202);
#205=ADVANCED_FACE('',(#203),#204,.T.);
#206=ORIENTED_EDGE('',$,$,#48,.T.);
#207=ORIENTED_EDGE('',$,$,#136,.T.);
#208=ORIENTED_EDGE('',$,$,#97,.F.);
#209=ORIENTED_EDGE('',$,$,#156,.F.);
#210=EDGE_LOOP('',(#206,#207,#208,#209));
#211=DIRECTION('',(0.0,-1.0,0.0));
#212=DIRECTION('',(1.0,0.0,0.0));
#213=AXIS2_PLACEMENT_3D('',#24,#211,#212);
#214=FACE_OUTER_BOUND('',#210,.T.);
#215=PLANE('',#213);
#216=ADVANCED_FACE('',(#214),#215,.T.);
#217=ORIENTED_EDGE('',$,$,#38,.T.);
#218=ORIENTED_EDGE('',$,$,#161,.T.);
#219=ORIENTED_EDGE('',$,$,#87,.F.);
#220=ORIENTED_EDGE('',$,$,#151,.F.);
#221=EDGE_LOOP('',(#217,#218,#219,#220));
#222=DIRECTION('',(-0.0249921911602,-0.999687646408,0.0));
#223=DIRECTION('',(0.999687646408,-0.0249921911602,0.0));
#224=AXIS2_PLACEMENT_3D('',#23,#222,#223);
#225=FACE_OUTER_BOUND('',#221,.T.);
#226=PLANE('',#224);
#227=ADVANCED_FACE('',(#225),#226,.T.);
#228=ORIENTED_EDGE('',$,$,#43,.T.);
#229=ORIENTED_EDGE('',$,$,#156,.T.);
#230=ORIENTED_EDGE('',$,$,#92,.F.);
#231=ORIENTED_EDGE('',$,$,#161,.F.);
#232=EDGE_LOOP('',(#228,#229,#230,#231));
#233=DIRECTION('',(0.0249921911602,-0.999687646408,0.0));
#234=DIRECTION('',(0.999687646408,0.0249921911602,0.0));
#235=AXIS2_PLACEMENT_3D('',#25,#233,#234);
#236=FACE_OUTER_BOUND('',#232,.T.);
#237=PLANE('',#235);
#238=ADVANCED_FACE('',(#236),#237,.T.);
#239=CLOSED_SHELL('',(#77,#126,#172,#183,#194,#205,#216,#227,#238));
#240=MANIFOLD_SOLID_BREP('',#239);
#9050=PRODUCT_CONTEXT('',#9000,'mechanical');
#9051=PRODUCT('Tfa083','Tfa083','',(#9050));
#9052=PRODUCT_DEFINITION_FORMATION('','',#9051);
#9053=PRODUCT_DEFINITION_CONTEXT('part definition',#9000,'design');
#9054=PRODUCT_DEFINITION('','','',#9052,#9053);
#9055=PRODUCT_DEFINITION_SHAPE('','','',#9054);
#9056=(LENGTH_UNIT()NAMED_UNIT(*)SI_UNIT(.MILLI.,.METRE.));
#9057=(NAMED_UNIT(*)PLANE_ANGLE_UNIT()SI_UNIT($,.RADIAN.));
#9058=(NAMED_UNIT(*)SI_UNIT($,.STERADIAN.)SOLID_ANGLE_UNIT());
#9059=UNCERTAINTY_MEASURE_WITH_UNIT(LENGTH_MEASURE(1.0E-7),#9056,'distance_accuracy_value','');
#9060=(GEOMETRIC_REPRESENTATION_CONTEXT(3)GLOBAL_UNCERTAINTY_ASSIGNED_CONTEXT((#9059))GLOBAL_UNIT_ASSIGNED_CONTEXT((#9056,#9057,#9058))REPRESENTATION_CONTEXT('','3D'));
#9061=ADVANCED_BREP_SHAPE_REPRESENTATION('',(#240),#9060);
#9062=SHAPE_DEFINITION_REPRESENTATION(#9055,#9061);
ENDSEC;
END-ISO-10303-21;
