ISO-10303-21;
/* Tfa053: CLOSED_SHELL: face[0] (bottom-left z=0, x=[0,1]) on PLANE origin (0,0,0); face[1] (bottom-right z=0, x=[1,2]) on PLANE origin (1.005,0,0) — 0.005mm offset; shared topological edge at x=1 but face[1] surface origin is 0.005mm away; surface/topology mismatch: gap = 0.005mm between patch planes at shared boundary; ShapeExtend_CompositeSurface::CheckConnectivity flags this gap; faces[2..7] form a valid 2×1×1 closed box (split bottom and top into left/right patches); defect IS on live CLOSED_SHELL traversal path */
HEADER;
FILE_DESCRIPTION(('Tfa053'),'2;1');
FILE_NAME('Tfa053.stp','2026-06-17T00:00:00',(''),(''),'cad-research-suite','','');
FILE_SCHEMA(('AUTOMOTIVE_DESIGN { 1 0 10303 214 3 1 1 }'));
ENDSEC;
DATA;
#9000=APPLICATION_CONTEXT('mechanical design');
#1=CARTESIAN_POINT('',(0.0,0.0,0.0));
#2=CARTESIAN_POINT('',(1.0,0.0,0.0));
#3=CARTESIAN_POINT('',(2.0,0.0,0.0));
#4=CARTESIAN_POINT('',(0.0,1.0,0.0));
#5=CARTESIAN_POINT('',(1.0,1.0,0.0));
#6=CARTESIAN_POINT('',(2.0,1.0,0.0));
#7=CARTESIAN_POINT('',(0.0,0.0,1.0));
#8=CARTESIAN_POINT('',(1.0,0.0,1.0));
#9=CARTESIAN_POINT('',(2.0,0.0,1.0));
#10=CARTESIAN_POINT('',(0.0,1.0,1.0));
#11=CARTESIAN_POINT('',(1.0,1.0,1.0));
#12=CARTESIAN_POINT('',(2.0,1.0,1.0));
#13=VERTEX_POINT('',#1);
#14=VERTEX_POINT('',#2);
#15=VERTEX_POINT('',#3);
#16=VERTEX_POINT('',#4);
#17=VERTEX_POINT('',#5);
#18=VERTEX_POINT('',#6);
#19=VERTEX_POINT('',#7);
#20=VERTEX_POINT('',#8);
#21=VERTEX_POINT('',#9);
#22=VERTEX_POINT('',#10);
#23=VERTEX_POINT('',#11);
#24=VERTEX_POINT('',#12);
#25=DIRECTION('',(1.0,0.0,0.0));
#26=VECTOR('',#25,1.0);
#27=LINE('',#1,#26);
#28=EDGE_CURVE('',#13,#14,#27,.T.);
#29=DIRECTION('',(1.0,0.0,0.0));
#30=VECTOR('',#29,1.0);
#31=LINE('',#2,#30);
#32=EDGE_CURVE('',#14,#15,#31,.T.);
#33=DIRECTION('',(0.0,1.0,0.0));
#34=VECTOR('',#33,1.0);
#35=LINE('',#3,#34);
#36=EDGE_CURVE('',#15,#18,#35,.T.);
#37=DIRECTION('',(-1.0,0.0,0.0));
#38=VECTOR('',#37,1.0);
#39=LINE('',#6,#38);
#40=EDGE_CURVE('',#18,#17,#39,.T.);
#41=DIRECTION('',(-1.0,0.0,0.0));
#42=VECTOR('',#41,1.0);
#43=LINE('',#5,#42);
#44=EDGE_CURVE('',#17,#16,#43,.T.);
#45=DIRECTION('',(0.0,-1.0,0.0));
#46=VECTOR('',#45,1.0);
#47=LINE('',#4,#46);
#48=EDGE_CURVE('',#16,#13,#47,.T.);
#49=DIRECTION('',(0.0,1.0,0.0));
#50=VECTOR('',#49,1.0);
#51=LINE('',#2,#50);
#52=EDGE_CURVE('',#14,#17,#51,.T.);
#53=DIRECTION('',(1.0,0.0,0.0));
#54=VECTOR('',#53,1.0);
#55=LINE('',#7,#54);
#56=EDGE_CURVE('',#19,#20,#55,.T.);
#57=DIRECTION('',(1.0,0.0,0.0));
#58=VECTOR('',#57,1.0);
#59=LINE('',#8,#58);
#60=EDGE_CURVE('',#20,#21,#59,.T.);
#61=DIRECTION('',(0.0,1.0,0.0));
#62=VECTOR('',#61,1.0);
#63=LINE('',#9,#62);
#64=EDGE_CURVE('',#21,#24,#63,.T.);
#65=DIRECTION('',(-1.0,0.0,0.0));
#66=VECTOR('',#65,1.0);
#67=LINE('',#12,#66);
#68=EDGE_CURVE('',#24,#23,#67,.T.);
#69=DIRECTION('',(-1.0,0.0,0.0));
#70=VECTOR('',#69,1.0);
#71=LINE('',#11,#70);
#72=EDGE_CURVE('',#23,#22,#71,.T.);
#73=DIRECTION('',(0.0,-1.0,0.0));
#74=VECTOR('',#73,1.0);
#75=LINE('',#10,#74);
#76=EDGE_CURVE('',#22,#19,#75,.T.);
#77=DIRECTION('',(0.0,1.0,0.0));
#78=VECTOR('',#77,1.0);
#79=LINE('',#8,#78);
#80=EDGE_CURVE('',#20,#23,#79,.T.);
#81=DIRECTION('',(0.0,0.0,1.0));
#82=VECTOR('',#81,1.0);
#83=LINE('',#1,#82);
#84=EDGE_CURVE('',#13,#19,#83,.T.);
#85=DIRECTION('',(0.0,0.0,1.0));
#86=VECTOR('',#85,1.0);
#87=LINE('',#2,#86);
#88=EDGE_CURVE('',#14,#20,#87,.T.);
#89=DIRECTION('',(0.0,0.0,1.0));
#90=VECTOR('',#89,1.0);
#91=LINE('',#3,#90);
#92=EDGE_CURVE('',#15,#21,#91,.T.);
#93=DIRECTION('',(0.0,0.0,1.0));
#94=VECTOR('',#93,1.0);
#95=LINE('',#4,#94);
#96=EDGE_CURVE('',#16,#22,#95,.T.);
#97=DIRECTION('',(0.0,0.0,1.0));
#98=VECTOR('',#97,1.0);
#99=LINE('',#5,#98);
#100=EDGE_CURVE('',#17,#23,#99,.T.);
#101=DIRECTION('',(0.0,0.0,1.0));
#102=VECTOR('',#101,1.0);
#103=LINE('',#6,#102);
#104=EDGE_CURVE('',#18,#24,#103,.T.);
#105=ORIENTED_EDGE('',$,$,#28,.T.);
#106=ORIENTED_EDGE('',$,$,#52,.T.);
#107=ORIENTED_EDGE('',$,$,#44,.F.);
#108=ORIENTED_EDGE('',$,$,#48,.F.);
#109=EDGE_LOOP('',(#105,#106,#107,#108));
#110=DIRECTION('',(0.0,0.0,-1.0));
#111=DIRECTION('',(1.0,0.0,0.0));
#112=AXIS2_PLACEMENT_3D('',#1,#110,#111);
#113=FACE_OUTER_BOUND('',#109,.T.);
#114=PLANE('',#112);
#115=ADVANCED_FACE('',(#113),#114,.T.);
#116=ORIENTED_EDGE('',$,$,#32,.T.);
#117=ORIENTED_EDGE('',$,$,#36,.T.);
#118=ORIENTED_EDGE('',$,$,#40,.T.);
#119=ORIENTED_EDGE('',$,$,#52,.F.);
#120=EDGE_LOOP('',(#116,#117,#118,#119));
#121=CARTESIAN_POINT('',(1.005,0.0,0.0));
#122=DIRECTION('',(0.0,0.0,-1.0));
#123=DIRECTION('',(1.0,0.0,0.0));
#124=AXIS2_PLACEMENT_3D('',#121,#122,#123);
#125=FACE_OUTER_BOUND('',#120,.T.);
#126=PLANE('',#124);
#127=ADVANCED_FACE('',(#125),#126,.T.);
#128=ORIENTED_EDGE('',$,$,#56,.T.);
#129=ORIENTED_EDGE('',$,$,#80,.T.);
#130=ORIENTED_EDGE('',$,$,#72,.F.);
#131=ORIENTED_EDGE('',$,$,#76,.F.);
#132=EDGE_LOOP('',(#128,#129,#130,#131));
#133=DIRECTION('',(0.0,0.0,1.0));
#134=DIRECTION('',(1.0,0.0,0.0));
#135=AXIS2_PLACEMENT_3D('',#7,#133,#134);
#136=FACE_OUTER_BOUND('',#132,.T.);
#137=PLANE('',#135);
#138=ADVANCED_FACE('',(#136),#137,.T.);
#139=ORIENTED_EDGE('',$,$,#60,.T.);
#140=ORIENTED_EDGE('',$,$,#64,.T.);
#141=ORIENTED_EDGE('',$,$,#68,.T.);
#142=ORIENTED_EDGE('',$,$,#80,.F.);
#143=EDGE_LOOP('',(#139,#140,#141,#142));
#144=DIRECTION('',(0.0,0.0,1.0));
#145=DIRECTION('',(1.0,0.0,0.0));
#146=AXIS2_PLACEMENT_3D('',#8,#144,#145);
#147=FACE_OUTER_BOUND('',#143,.T.);
#148=PLANE('',#146);
#149=ADVANCED_FACE('',(#147),#148,.T.);
#150=ORIENTED_EDGE('',$,$,#28,.T.);
#151=ORIENTED_EDGE('',$,$,#32,.T.);
#152=ORIENTED_EDGE('',$,$,#92,.T.);
#153=ORIENTED_EDGE('',$,$,#60,.F.);
#154=ORIENTED_EDGE('',$,$,#56,.F.);
#155=ORIENTED_EDGE('',$,$,#84,.F.);
#156=EDGE_LOOP('',(#150,#151,#152,#153,#154,#155));
#157=DIRECTION('',(0.0,-1.0,0.0));
#158=DIRECTION('',(1.0,0.0,0.0));
#159=AXIS2_PLACEMENT_3D('',#1,#157,#158);
#160=FACE_OUTER_BOUND('',#156,.T.);
#161=PLANE('',#159);
#162=ADVANCED_FACE('',(#160),#161,.T.);
#163=ORIENTED_EDGE('',$,$,#96,.T.);
#164=ORIENTED_EDGE('',$,$,#72,.F.);
#165=ORIENTED_EDGE('',$,$,#68,.F.);
#166=ORIENTED_EDGE('',$,$,#104,.F.);
#167=ORIENTED_EDGE('',$,$,#40,.F.);
#168=ORIENTED_EDGE('',$,$,#44,.T.);
#169=EDGE_LOOP('',(#163,#164,#165,#166,#167,#168));
#170=DIRECTION('',(0.0,1.0,0.0));
#171=DIRECTION('',(1.0,0.0,0.0));
#172=AXIS2_PLACEMENT_3D('',#4,#170,#171);
#173=FACE_OUTER_BOUND('',#169,.T.);
#174=PLANE('',#172);
#175=ADVANCED_FACE('',(#173),#174,.T.);
#176=ORIENTED_EDGE('',$,$,#84,.T.);
#177=ORIENTED_EDGE('',$,$,#76,.F.);
#178=ORIENTED_EDGE('',$,$,#96,.F.);
#179=ORIENTED_EDGE('',$,$,#48,.T.);
#180=EDGE_LOOP('',(#176,#177,#178,#179));
#181=DIRECTION('',(-1.0,0.0,0.0));
#182=DIRECTION('',(0.0,1.0,0.0));
#183=AXIS2_PLACEMENT_3D('',#1,#181,#182);
#184=FACE_OUTER_BOUND('',#180,.T.);
#185=PLANE('',#183);
#186=ADVANCED_FACE('',(#184),#185,.T.);
#187=ORIENTED_EDGE('',$,$,#36,.T.);
#188=ORIENTED_EDGE('',$,$,#104,.T.);
#189=ORIENTED_EDGE('',$,$,#64,.F.);
#190=ORIENTED_EDGE('',$,$,#92,.F.);
#191=EDGE_LOOP('',(#187,#188,#189,#190));
#192=DIRECTION('',(1.0,0.0,0.0));
#193=DIRECTION('',(0.0,1.0,0.0));
#194=AXIS2_PLACEMENT_3D('',#3,#192,#193);
#195=FACE_OUTER_BOUND('',#191,.T.);
#196=PLANE('',#194);
#197=ADVANCED_FACE('',(#195),#196,.T.);
#198=CLOSED_SHELL('',(#115,#127,#138,#149,#162,#175,#186,#197));
#199=MANIFOLD_SOLID_BREP('',#198);
#9050=PRODUCT_CONTEXT('',#9000,'mechanical');
#9051=PRODUCT('Tfa053','Tfa053','',(#9050));
#9052=PRODUCT_DEFINITION_FORMATION('','',#9051);
#9053=PRODUCT_DEFINITION_CONTEXT('part definition',#9000,'design');
#9054=PRODUCT_DEFINITION('','','',#9052,#9053);
#9055=PRODUCT_DEFINITION_SHAPE('','','',#9054);
#9056=(LENGTH_UNIT()NAMED_UNIT(*)SI_UNIT(.MILLI.,.METRE.));
#9057=(NAMED_UNIT(*)PLANE_ANGLE_UNIT()SI_UNIT($,.RADIAN.));
#9058=(NAMED_UNIT(*)SI_UNIT($,.STERADIAN.)SOLID_ANGLE_UNIT());
#9059=UNCERTAINTY_MEASURE_WITH_UNIT(LENGTH_MEASURE(1.0E-7),#9056,'distance_accuracy_value','');
#9060=(GEOMETRIC_REPRESENTATION_CONTEXT(3)GLOBAL_UNCERTAINTY_ASSIGNED_CONTEXT((#9059))GLOBAL_UNIT_ASSIGNED_CONTEXT((#9056,#9057,#9058))REPRESENTATION_CONTEXT('','3D'));
#9061=ADVANCED_BREP_SHAPE_REPRESENTATION('',(#199),#9060);
#9062=SHAPE_DEFINITION_REPRESENTATION(#9055,#9061);
ENDSEC;
END-ISO-10303-21;
