ISO-10303-21;
/* Tfa080: CLOSED_SHELL: defect face is B_SPLINE_SURFACE_WITH_KNOTS degree(1,1) saddle grid — corners (0,0,+2),(10,0,-2),(0,10,-2),(10,10,+2); Gaussian curvature negative everywhere; surface normal flips sign at (u=0.5,v=0.5) interior point; scalar product < 0; CheckTwisted flags normal inversion; companion flat faces close shell; defect IS on live CLOSED_SHELL traversal path */
HEADER;
FILE_DESCRIPTION(('Tfa080'),'2;1');
FILE_NAME('Tfa080.stp','2026-06-17T00:00:00',(''),(''),'cad-research-suite','','');
FILE_SCHEMA(('AUTOMOTIVE_DESIGN { 1 0 10303 214 3 1 1 }'));
ENDSEC;
DATA;
#9000=APPLICATION_CONTEXT('mechanical design');
#1=CARTESIAN_POINT('',(0.0,0.0,2.0));
#2=CARTESIAN_POINT('',(0.0,10.0,-2.0));
#3=CARTESIAN_POINT('',(10.0,0.0,-2.0));
#4=CARTESIAN_POINT('',(10.0,10.0,2.0));
#5=B_SPLINE_SURFACE_WITH_KNOTS('',1,1,((#1,#2),(#3,#4)),.UNSPECIFIED.,.F.,.F.,.F.,(2,2),(2,2),(0.0,10.0),(0.0,10.0),.UNSPECIFIED.);
#6=CARTESIAN_POINT('',(0.0,0.0,2.0));
#7=CARTESIAN_POINT('',(10.0,0.0,-2.0));
#8=CARTESIAN_POINT('',(10.0,10.0,2.0));
#9=CARTESIAN_POINT('',(0.0,10.0,-2.0));
#10=VERTEX_POINT('',#6);
#11=VERTEX_POINT('',#7);
#12=VERTEX_POINT('',#8);
#13=VERTEX_POINT('',#9);
#14=DIRECTION('',(0.928476690885,0.0,-0.371390676354));
#15=CARTESIAN_POINT('',(0.0,0.0,2.0));
#16=VECTOR('',#14,10.7703296143);
#17=LINE('',#15,#16);
#18=EDGE_CURVE('',#10,#11,#17,.T.);
#19=DIRECTION('',(0.0,0.928476690885,0.371390676354));
#20=CARTESIAN_POINT('',(10.0,0.0,-2.0));
#21=VECTOR('',#19,10.7703296143);
#22=LINE('',#20,#21);
#23=EDGE_CURVE('',#11,#12,#22,.T.);
#24=DIRECTION('',(-0.928476690885,0.0,-0.371390676354));
#25=CARTESIAN_POINT('',(10.0,10.0,2.0));
#26=VECTOR('',#24,10.7703296143);
#27=LINE('',#25,#26);
#28=EDGE_CURVE('',#12,#13,#27,.T.);
#29=DIRECTION('',(0.0,-0.928476690885,0.371390676354));
#30=CARTESIAN_POINT('',(0.0,10.0,-2.0));
#31=VECTOR('',#29,10.7703296143);
#32=LINE('',#30,#31);
#33=EDGE_CURVE('',#13,#10,#32,.T.);
#34=ORIENTED_EDGE('',$,$,#18,.T.);
#35=ORIENTED_EDGE('',$,$,#23,.T.);
#36=ORIENTED_EDGE('',$,$,#28,.T.);
#37=ORIENTED_EDGE('',$,$,#33,.T.);
#38=EDGE_LOOP('',(#34,#35,#36,#37));
#39=FACE_OUTER_BOUND('',#38,.T.);
#40=ADVANCED_FACE('',(#39),#5,.T.);
#41=CARTESIAN_POINT('',(0.0,0.0,-3.0));
#42=CARTESIAN_POINT('',(10.0,0.0,-3.0));
#43=CARTESIAN_POINT('',(10.0,10.0,-3.0));
#44=CARTESIAN_POINT('',(0.0,10.0,-3.0));
#45=VERTEX_POINT('',#41);
#46=VERTEX_POINT('',#42);
#47=VERTEX_POINT('',#43);
#48=VERTEX_POINT('',#44);
#49=DIRECTION('',(1.0,0.0,0.0));
#50=CARTESIAN_POINT('',(0.0,0.0,-3.0));
#51=VECTOR('',#49,10.0);
#52=LINE('',#50,#51);
#53=EDGE_CURVE('',#45,#46,#52,.T.);
#54=DIRECTION('',(0.0,1.0,0.0));
#55=CARTESIAN_POINT('',(10.0,0.0,-3.0));
#56=VECTOR('',#54,10.0);
#57=LINE('',#55,#56);
#58=EDGE_CURVE('',#46,#47,#57,.T.);
#59=DIRECTION('',(-1.0,0.0,0.0));
#60=CARTESIAN_POINT('',(10.0,10.0,-3.0));
#61=VECTOR('',#59,10.0);
#62=LINE('',#60,#61);
#63=EDGE_CURVE('',#47,#48,#62,.T.);
#64=DIRECTION('',(0.0,-1.0,0.0));
#65=CARTESIAN_POINT('',(0.0,10.0,-3.0));
#66=VECTOR('',#64,10.0);
#67=LINE('',#65,#66);
#68=EDGE_CURVE('',#48,#45,#67,.T.);
#69=ORIENTED_EDGE('',$,$,#53,.T.);
#70=ORIENTED_EDGE('',$,$,#58,.T.);
#71=ORIENTED_EDGE('',$,$,#63,.T.);
#72=ORIENTED_EDGE('',$,$,#68,.T.);
#73=EDGE_LOOP('',(#69,#70,#71,#72));
#74=DIRECTION('',(0.0,0.0,-1.0));
#75=DIRECTION('',(1.0,0.0,0.0));
#76=AXIS2_PLACEMENT_3D('',#41,#74,#75);
#77=FACE_OUTER_BOUND('',#73,.T.);
#78=PLANE('',#76);
#79=ADVANCED_FACE('',(#77),#78,.T.);
#80=DIRECTION('',(0.0,0.0,-1.0));
#81=CARTESIAN_POINT('',(0.0,0.0,2.0));
#82=VECTOR('',#80,5.0);
#83=LINE('',#81,#82);
#84=EDGE_CURVE('',#10,#45,#83,.T.);
#85=DIRECTION('',(0.0,0.0,-1.0));
#86=CARTESIAN_POINT('',(10.0,0.0,-2.0));
#87=VECTOR('',#85,1.0);
#88=LINE('',#86,#87);
#89=EDGE_CURVE('',#11,#46,#88,.T.);
#90=DIRECTION('',(0.0,0.0,-1.0));
#91=CARTESIAN_POINT('',(10.0,10.0,2.0));
#92=VECTOR('',#90,5.0);
#93=LINE('',#91,#92);
#94=EDGE_CURVE('',#12,#47,#93,.T.);
#95=DIRECTION('',(0.0,0.0,-1.0));
#96=CARTESIAN_POINT('',(0.0,10.0,-2.0));
#97=VECTOR('',#95,1.0);
#98=LINE('',#96,#97);
#99=EDGE_CURVE('',#13,#48,#98,.T.);
#100=ORIENTED_EDGE('',$,$,#18,.T.);
#101=ORIENTED_EDGE('',$,$,#89,.T.);
#102=ORIENTED_EDGE('',$,$,#53,.F.);
#103=ORIENTED_EDGE('',$,$,#84,.F.);
#104=EDGE_LOOP('',(#100,#101,#102,#103));
#105=DIRECTION('',(0.0,-1.0,0.0));
#106=DIRECTION('',(1.0,0.0,0.0));
#107=AXIS2_PLACEMENT_3D('',#41,#105,#106);
#108=FACE_OUTER_BOUND('',#104,.T.);
#109=PLANE('',#107);
#110=ADVANCED_FACE('',(#108),#109,.T.);
#111=ORIENTED_EDGE('',$,$,#23,.T.);
#112=ORIENTED_EDGE('',$,$,#94,.T.);
#113=ORIENTED_EDGE('',$,$,#58,.F.);
#114=ORIENTED_EDGE('',$,$,#89,.F.);
#115=EDGE_LOOP('',(#111,#112,#113,#114));
#116=DIRECTION('',(1.0,0.0,0.0));
#117=DIRECTION('',(0.0,1.0,0.0));
#118=AXIS2_PLACEMENT_3D('',#42,#116,#117);
#119=FACE_OUTER_BOUND('',#115,.T.);
#120=PLANE('',#118);
#121=ADVANCED_FACE('',(#119),#120,.T.);
#122=ORIENTED_EDGE('',$,$,#99,.T.);
#123=ORIENTED_EDGE('',$,$,#28,.F.);
#124=ORIENTED_EDGE('',$,$,#94,.F.);
#125=ORIENTED_EDGE('',$,$,#63,.F.);
#126=EDGE_LOOP('',(#122,#123,#124,#125));
#127=DIRECTION('',(0.0,1.0,0.0));
#128=DIRECTION('',(1.0,0.0,0.0));
#129=AXIS2_PLACEMENT_3D('',#44,#127,#128);
#130=FACE_OUTER_BOUND('',#126,.T.);
#131=PLANE('',#129);
#132=ADVANCED_FACE('',(#130),#131,.T.);
#133=ORIENTED_EDGE('',$,$,#84,.T.);
#134=ORIENTED_EDGE('',$,$,#33,.F.);
#135=ORIENTED_EDGE('',$,$,#99,.F.);
#136=ORIENTED_EDGE('',$,$,#68,.F.);
#137=EDGE_LOOP('',(#133,#134,#135,#136));
#138=DIRECTION('',(-1.0,0.0,0.0));
#139=DIRECTION('',(0.0,1.0,0.0));
#140=AXIS2_PLACEMENT_3D('',#41,#138,#139);
#141=FACE_OUTER_BOUND('',#137,.T.);
#142=PLANE('',#140);
#143=ADVANCED_FACE('',(#141),#142,.T.);
#144=CLOSED_SHELL('',(#40,#79,#110,#121,#132,#143));
#145=MANIFOLD_SOLID_BREP('',#144);
#9050=PRODUCT_CONTEXT('',#9000,'mechanical');
#9051=PRODUCT('Tfa080','Tfa080','',(#9050));
#9052=PRODUCT_DEFINITION_FORMATION('','',#9051);
#9053=PRODUCT_DEFINITION_CONTEXT('part definition',#9000,'design');
#9054=PRODUCT_DEFINITION('','','',#9052,#9053);
#9055=PRODUCT_DEFINITION_SHAPE('','','',#9054);
#9056=(LENGTH_UNIT()NAMED_UNIT(*)SI_UNIT(.MILLI.,.METRE.));
#9057=(NAMED_UNIT(*)PLANE_ANGLE_UNIT()SI_UNIT($,.RADIAN.));
#9058=(NAMED_UNIT(*)SI_UNIT($,.STERADIAN.)SOLID_ANGLE_UNIT());
#9059=UNCERTAINTY_MEASURE_WITH_UNIT(LENGTH_MEASURE(1.0E-7),#9056,'distance_accuracy_value','');
#9060=(GEOMETRIC_REPRESENTATION_CONTEXT(3)GLOBAL_UNCERTAINTY_ASSIGNED_CONTEXT((#9059))GLOBAL_UNIT_ASSIGNED_CONTEXT((#9056,#9057,#9058))REPRESENTATION_CONTEXT('','3D'));
#9061=ADVANCED_BREP_SHAPE_REPRESENTATION('',(#145),#9060);
#9062=SHAPE_DEFINITION_REPRESENTATION(#9055,#9061);
ENDSEC;
END-ISO-10303-21;
