ISO-10303-21;
/* Tfa097: CLOSED_SHELL: top face is wedge (pin) triangle at z=1; base vertices A=(0,0,1), B=(10,0,1); apex C=(5,1,1); internal angle at apex ≈ 11.3° (blunt pin, << 30° sharp threshold); CheckPinFace: angle threshold M_PI/6≈30°; off-by-one in comparison (>= vs >) misclassifies blunt as sharp; triangular prism closed shell with 5 faces; defect IS on live CLOSED_SHELL traversal path */
HEADER;
FILE_DESCRIPTION(('Tfa097'),'2;1');
FILE_NAME('Tfa097.stp','2026-06-17T00:00:00',(''),(''),'cad-research-suite','','');
FILE_SCHEMA(('AUTOMOTIVE_DESIGN { 1 0 10303 214 3 1 1 }'));
ENDSEC;
DATA;
#9000=APPLICATION_CONTEXT('mechanical design');
#1=CARTESIAN_POINT('',(0.0,0.0,0.0));
#2=CARTESIAN_POINT('',(0.0,0.0,1.0));
#3=CARTESIAN_POINT('',(10.0,0.0,0.0));
#4=CARTESIAN_POINT('',(10.0,0.0,1.0));
#5=CARTESIAN_POINT('',(5.0,0.5,0.0));
#6=CARTESIAN_POINT('',(5.0,0.5,1.0));
#7=VERTEX_POINT('',#1);
#8=VERTEX_POINT('',#2);
#9=VERTEX_POINT('',#3);
#10=VERTEX_POINT('',#4);
#11=VERTEX_POINT('',#5);
#12=VERTEX_POINT('',#6);
#13=DIRECTION('',(1.0,0.0,0.0));
#14=CARTESIAN_POINT('',(0.0,0.0,0.0));
#15=VECTOR('',#13,10.0);
#16=LINE('',#14,#15);
#17=EDGE_CURVE('',#7,#9,#16,.T.);
#18=DIRECTION('',(-0.99503719021,0.099503719021,0.0));
#19=CARTESIAN_POINT('',(10.0,0.0,0.0));
#20=VECTOR('',#18,5.02493781056);
#21=LINE('',#19,#20);
#22=EDGE_CURVE('',#9,#11,#21,.T.);
#23=DIRECTION('',(-0.99503719021,-0.099503719021,0.0));
#24=CARTESIAN_POINT('',(5.0,0.5,0.0));
#25=VECTOR('',#23,5.02493781056);
#26=LINE('',#24,#25);
#27=EDGE_CURVE('',#11,#7,#26,.T.);
#28=DIRECTION('',(1.0,0.0,0.0));
#29=CARTESIAN_POINT('',(0.0,0.0,1.0));
#30=VECTOR('',#28,10.0);
#31=LINE('',#29,#30);
#32=EDGE_CURVE('',#8,#10,#31,.T.);
#33=DIRECTION('',(-0.99503719021,0.099503719021,0.0));
#34=CARTESIAN_POINT('',(10.0,0.0,1.0));
#35=VECTOR('',#33,5.02493781056);
#36=LINE('',#34,#35);
#37=EDGE_CURVE('',#10,#12,#36,.T.);
#38=DIRECTION('',(-0.99503719021,-0.099503719021,0.0));
#39=CARTESIAN_POINT('',(5.0,0.5,1.0));
#40=VECTOR('',#38,5.02493781056);
#41=LINE('',#39,#40);
#42=EDGE_CURVE('',#12,#8,#41,.T.);
#43=DIRECTION('',(0.0,0.0,1.0));
#44=CARTESIAN_POINT('',(0.0,0.0,0.0));
#45=VECTOR('',#43,1.0);
#46=LINE('',#44,#45);
#47=EDGE_CURVE('',#7,#8,#46,.T.);
#48=DIRECTION('',(0.0,0.0,1.0));
#49=CARTESIAN_POINT('',(10.0,0.0,0.0));
#50=VECTOR('',#48,1.0);
#51=LINE('',#49,#50);
#52=EDGE_CURVE('',#9,#10,#51,.T.);
#53=DIRECTION('',(0.0,0.0,1.0));
#54=CARTESIAN_POINT('',(5.0,0.5,0.0));
#55=VECTOR('',#53,1.0);
#56=LINE('',#54,#55);
#57=EDGE_CURVE('',#11,#12,#56,.T.);
#58=ORIENTED_EDGE('',$,$,#17,.T.);
#59=ORIENTED_EDGE('',$,$,#22,.T.);
#60=ORIENTED_EDGE('',$,$,#27,.T.);
#61=EDGE_LOOP('',(#58,#59,#60));
#62=DIRECTION('',(0.0,0.0,-1.0));
#63=DIRECTION('',(1.0,0.0,0.0));
#64=AXIS2_PLACEMENT_3D('',#1,#62,#63);
#65=FACE_OUTER_BOUND('',#61,.T.);
#66=PLANE('',#64);
#67=ADVANCED_FACE('',(#65),#66,.T.);
#68=ORIENTED_EDGE('',$,$,#32,.T.);
#69=ORIENTED_EDGE('',$,$,#37,.T.);
#70=ORIENTED_EDGE('',$,$,#42,.T.);
#71=EDGE_LOOP('',(#68,#69,#70));
#72=DIRECTION('',(0.0,0.0,1.0));
#73=DIRECTION('',(1.0,0.0,0.0));
#74=AXIS2_PLACEMENT_3D('',#2,#72,#73);
#75=FACE_OUTER_BOUND('',#71,.T.);
#76=PLANE('',#74);
#77=ADVANCED_FACE('',(#75),#76,.T.);
#78=ORIENTED_EDGE('',$,$,#17,.T.);
#79=ORIENTED_EDGE('',$,$,#52,.T.);
#80=ORIENTED_EDGE('',$,$,#32,.F.);
#81=ORIENTED_EDGE('',$,$,#47,.F.);
#82=EDGE_LOOP('',(#78,#79,#80,#81));
#83=DIRECTION('',(0.0,-1.0,0.0));
#84=DIRECTION('',(1.0,0.0,0.0));
#85=AXIS2_PLACEMENT_3D('',#1,#83,#84);
#86=FACE_OUTER_BOUND('',#82,.T.);
#87=PLANE('',#85);
#88=ADVANCED_FACE('',(#86),#87,.T.);
#89=ORIENTED_EDGE('',$,$,#22,.T.);
#90=ORIENTED_EDGE('',$,$,#57,.T.);
#91=ORIENTED_EDGE('',$,$,#37,.F.);
#92=ORIENTED_EDGE('',$,$,#52,.F.);
#93=EDGE_LOOP('',(#89,#90,#91,#92));
#94=DIRECTION('',(0.099503719021,0.99503719021,0.0));
#95=DIRECTION('',(-0.99503719021,0.099503719021,0.0));
#96=AXIS2_PLACEMENT_3D('',#3,#94,#95);
#97=FACE_OUTER_BOUND('',#93,.T.);
#98=PLANE('',#96);
#99=ADVANCED_FACE('',(#97),#98,.T.);
#100=ORIENTED_EDGE('',$,$,#27,.T.);
#101=ORIENTED_EDGE('',$,$,#47,.T.);
#102=ORIENTED_EDGE('',$,$,#42,.F.);
#103=ORIENTED_EDGE('',$,$,#57,.F.);
#104=EDGE_LOOP('',(#100,#101,#102,#103));
#105=DIRECTION('',(-0.099503719021,0.99503719021,0.0));
#106=DIRECTION('',(-0.99503719021,-0.099503719021,0.0));
#107=AXIS2_PLACEMENT_3D('',#5,#105,#106);
#108=FACE_OUTER_BOUND('',#104,.T.);
#109=PLANE('',#107);
#110=ADVANCED_FACE('',(#108),#109,.T.);
#111=CLOSED_SHELL('',(#67,#77,#88,#99,#110));
#112=MANIFOLD_SOLID_BREP('',#111);
#9050=PRODUCT_CONTEXT('',#9000,'mechanical');
#9051=PRODUCT('Tfa097','Tfa097','',(#9050));
#9052=PRODUCT_DEFINITION_FORMATION('','',#9051);
#9053=PRODUCT_DEFINITION_CONTEXT('part definition',#9000,'design');
#9054=PRODUCT_DEFINITION('','','',#9052,#9053);
#9055=PRODUCT_DEFINITION_SHAPE('','','',#9054);
#9056=(LENGTH_UNIT()NAMED_UNIT(*)SI_UNIT(.MILLI.,.METRE.));
#9057=(NAMED_UNIT(*)PLANE_ANGLE_UNIT()SI_UNIT($,.RADIAN.));
#9058=(NAMED_UNIT(*)SI_UNIT($,.STERADIAN.)SOLID_ANGLE_UNIT());
#9059=UNCERTAINTY_MEASURE_WITH_UNIT(LENGTH_MEASURE(1.0E-7),#9056,'distance_accuracy_value','');
#9060=(GEOMETRIC_REPRESENTATION_CONTEXT(3)GLOBAL_UNCERTAINTY_ASSIGNED_CONTEXT((#9059))GLOBAL_UNIT_ASSIGNED_CONTEXT((#9056,#9057,#9058))REPRESENTATION_CONTEXT('','3D'));
#9061=ADVANCED_BREP_SHAPE_REPRESENTATION('',(#112),#9060);
#9062=SHAPE_DEFINITION_REPRESENTATION(#9055,#9061);
ENDSEC;
END-ISO-10303-21;
