ISO-10303-21;
/* Tfa049: CLOSED_SHELL: face[0] is triangular pin ADVANCED_FACE on PLANE at z=0; pin tip at (0,0,0); base vertices at (10,0.001,0) and (10,-0.001,0); opening angle ≈ 0.0002 rad; long-edge length ≈ 10; base width = 0.002; aspect ratio ≈ 10/0.001 = 1e4 > 1e3 (pin face criterion); ShapeAnalysis_CheckSmallFace::CheckPin must classify as sharp pin; classifier returns 0=smooth/1=smooth-pin/2=sharp-or-stretched; prism extruded 1mm in Z to form closed shell; defect IS on live CLOSED_SHELL traversal path */
HEADER;
FILE_DESCRIPTION(('Tfa049'),'2;1');
FILE_NAME('Tfa049.stp','2026-06-17T00:00:00',(''),(''),'cad-research-suite','','');
FILE_SCHEMA(('AUTOMOTIVE_DESIGN { 1 0 10303 214 3 1 1 }'));
ENDSEC;
DATA;
#9000=APPLICATION_CONTEXT('mechanical design');
#1=CARTESIAN_POINT('',(0.0,0.0,0.0));
#2=CARTESIAN_POINT('',(10.0,0.001,0.0));
#3=CARTESIAN_POINT('',(10.0,-0.001,0.0));
#4=CARTESIAN_POINT('',(0.0,0.0,1.0));
#5=CARTESIAN_POINT('',(10.0,0.001,1.0));
#6=CARTESIAN_POINT('',(10.0,-0.001,1.0));
#7=VERTEX_POINT('',#1);
#8=VERTEX_POINT('',#2);
#9=VERTEX_POINT('',#3);
#10=VERTEX_POINT('',#4);
#11=VERTEX_POINT('',#5);
#12=VERTEX_POINT('',#6);
#13=DIRECTION('',(0.999999995,9.99999995E-05,0.0));
#14=VECTOR('',#13,10.00000005);
#15=LINE('',#1,#14);
#16=EDGE_CURVE('',#7,#8,#15,.T.);
#17=DIRECTION('',(0.0,-1.0,0.0));
#18=VECTOR('',#17,0.002);
#19=LINE('',#2,#18);
#20=EDGE_CURVE('',#8,#9,#19,.T.);
#21=DIRECTION('',(-0.999999995,9.99999995E-05,0.0));
#22=VECTOR('',#21,10.00000005);
#23=LINE('',#3,#22);
#24=EDGE_CURVE('',#9,#7,#23,.T.);
#25=DIRECTION('',(0.999999995,9.99999995E-05,0.0));
#26=VECTOR('',#25,10.00000005);
#27=LINE('',#4,#26);
#28=EDGE_CURVE('',#10,#11,#27,.T.);
#29=DIRECTION('',(0.0,-1.0,0.0));
#30=VECTOR('',#29,0.002);
#31=LINE('',#5,#30);
#32=EDGE_CURVE('',#11,#12,#31,.T.);
#33=DIRECTION('',(-0.999999995,9.99999995E-05,0.0));
#34=VECTOR('',#33,10.00000005);
#35=LINE('',#6,#34);
#36=EDGE_CURVE('',#12,#10,#35,.T.);
#37=DIRECTION('',(0.0,0.0,1.0));
#38=VECTOR('',#37,1.0);
#39=LINE('',#1,#38);
#40=EDGE_CURVE('',#7,#10,#39,.T.);
#41=DIRECTION('',(0.0,0.0,1.0));
#42=VECTOR('',#41,1.0);
#43=LINE('',#2,#42);
#44=EDGE_CURVE('',#8,#11,#43,.T.);
#45=DIRECTION('',(0.0,0.0,1.0));
#46=VECTOR('',#45,1.0);
#47=LINE('',#3,#46);
#48=EDGE_CURVE('',#9,#12,#47,.T.);
#49=ORIENTED_EDGE('',$,$,#16,.T.);
#50=ORIENTED_EDGE('',$,$,#20,.T.);
#51=ORIENTED_EDGE('',$,$,#24,.T.);
#52=EDGE_LOOP('',(#49,#50,#51));
#53=DIRECTION('',(0.0,0.0,-1.0));
#54=DIRECTION('',(1.0,0.0,0.0));
#55=AXIS2_PLACEMENT_3D('',#1,#53,#54);
#56=FACE_OUTER_BOUND('',#52,.T.);
#57=PLANE('',#55);
#58=ADVANCED_FACE('',(#56),#57,.T.);
#59=ORIENTED_EDGE('',$,$,#28,.T.);
#60=ORIENTED_EDGE('',$,$,#32,.T.);
#61=ORIENTED_EDGE('',$,$,#36,.T.);
#62=EDGE_LOOP('',(#59,#60,#61));
#63=DIRECTION('',(0.0,0.0,1.0));
#64=DIRECTION('',(1.0,0.0,0.0));
#65=AXIS2_PLACEMENT_3D('',#4,#63,#64);
#66=FACE_OUTER_BOUND('',#62,.T.);
#67=PLANE('',#65);
#68=ADVANCED_FACE('',(#66),#67,.T.);
#69=ORIENTED_EDGE('',$,$,#16,.T.);
#70=ORIENTED_EDGE('',$,$,#44,.T.);
#71=ORIENTED_EDGE('',$,$,#28,.F.);
#72=ORIENTED_EDGE('',$,$,#40,.F.);
#73=EDGE_LOOP('',(#69,#70,#71,#72));
#74=DIRECTION('',(9.99999995E-05,-0.999999995,0.0));
#75=DIRECTION('',(0.999999995,9.99999995E-05,0.0));
#76=AXIS2_PLACEMENT_3D('',#1,#74,#75);
#77=FACE_OUTER_BOUND('',#73,.T.);
#78=PLANE('',#76);
#79=ADVANCED_FACE('',(#77),#78,.T.);
#80=ORIENTED_EDGE('',$,$,#24,.T.);
#81=ORIENTED_EDGE('',$,$,#40,.T.);
#82=ORIENTED_EDGE('',$,$,#36,.F.);
#83=ORIENTED_EDGE('',$,$,#48,.F.);
#84=EDGE_LOOP('',(#80,#81,#82,#83));
#85=DIRECTION('',(9.99999995E-05,0.999999995,0.0));
#86=DIRECTION('',(-0.999999995,9.99999995E-05,0.0));
#87=AXIS2_PLACEMENT_3D('',#3,#85,#86);
#88=FACE_OUTER_BOUND('',#84,.T.);
#89=PLANE('',#87);
#90=ADVANCED_FACE('',(#88),#89,.T.);
#91=ORIENTED_EDGE('',$,$,#20,.T.);
#92=ORIENTED_EDGE('',$,$,#48,.T.);
#93=ORIENTED_EDGE('',$,$,#32,.F.);
#94=ORIENTED_EDGE('',$,$,#44,.F.);
#95=EDGE_LOOP('',(#91,#92,#93,#94));
#96=DIRECTION('',(1.0,0.0,0.0));
#97=DIRECTION('',(0.0,1.0,0.0));
#98=AXIS2_PLACEMENT_3D('',#2,#96,#97);
#99=FACE_OUTER_BOUND('',#95,.T.);
#100=PLANE('',#98);
#101=ADVANCED_FACE('',(#99),#100,.T.);
#102=CLOSED_SHELL('',(#58,#68,#79,#90,#101));
#103=MANIFOLD_SOLID_BREP('',#102);
#9050=PRODUCT_CONTEXT('',#9000,'mechanical');
#9051=PRODUCT('Tfa049','Tfa049','',(#9050));
#9052=PRODUCT_DEFINITION_FORMATION('','',#9051);
#9053=PRODUCT_DEFINITION_CONTEXT('part definition',#9000,'design');
#9054=PRODUCT_DEFINITION('','','',#9052,#9053);
#9055=PRODUCT_DEFINITION_SHAPE('','','',#9054);
#9056=(LENGTH_UNIT()NAMED_UNIT(*)SI_UNIT(.MILLI.,.METRE.));
#9057=(NAMED_UNIT(*)PLANE_ANGLE_UNIT()SI_UNIT($,.RADIAN.));
#9058=(NAMED_UNIT(*)SI_UNIT($,.STERADIAN.)SOLID_ANGLE_UNIT());
#9059=UNCERTAINTY_MEASURE_WITH_UNIT(.LENGTH_MEASURE(1.0E-7).,#9056,'distance_accuracy_value','');
#9060=(GEOMETRIC_REPRESENTATION_CONTEXT(3)GLOBAL_UNCERTAINTY_ASSIGNED_CONTEXT((#9059))GLOBAL_UNIT_ASSIGNED_CONTEXT((#9056,#9057,#9058))REPRESENTATION_CONTEXT('','3D'));
#9061=ADVANCED_BREP_SHAPE_REPRESENTATION('',(#103),#9060);
#9062=SHAPE_DEFINITION_REPRESENTATION(#9055,#9061);
ENDSEC;
END-ISO-10303-21;
