ISO-10303-21;
/* Tfa039: OPEN_SHELL: face[0] is 10×10 PLANE with outer FACE_OUTER_BOUND plus two non-nested inner FACE_BOUND wires that cross each other in UV; wire_a slanted quad (2,2)→(8,4)→(8,8)→(2,6); wire_b slanted quad (2,8)→(8,6)→(8,2)→(2,4) — crosses wire_a at center; FixIntersectingWires / IntersectionTool must detect UV crossing and split or reject; defect IS on live OPEN_SHELL traversal path */
HEADER;
FILE_DESCRIPTION(('Tfa039'),'2;1');
FILE_NAME('Tfa039.stp','2026-06-17T00:00:00',(''),(''),'cad-research-suite','','');
FILE_SCHEMA(('AUTOMOTIVE_DESIGN { 1 0 10303 214 3 1 1 }'));
ENDSEC;
DATA;
#9000=APPLICATION_CONTEXT('mechanical design');
#1=CARTESIAN_POINT('',(0.0,0.0,0.0));
#2=DIRECTION('',(0.0,0.0,1.0));
#3=DIRECTION('',(1.0,0.0,0.0));
#4=AXIS2_PLACEMENT_3D('',#1,#2,#3);
#5=PLANE('',#4);
#6=CARTESIAN_POINT('',(0.0,0.0,0.0));
#7=CARTESIAN_POINT('',(10.0,0.0,0.0));
#8=CARTESIAN_POINT('',(10.0,10.0,0.0));
#9=CARTESIAN_POINT('',(0.0,10.0,0.0));
#10=VERTEX_POINT('',#6);
#11=VERTEX_POINT('',#7);
#12=VERTEX_POINT('',#8);
#13=VERTEX_POINT('',#9);
#14=DIRECTION('',(1.0,0.0,0.0));
#15=VECTOR('',#14,10.0);
#16=LINE('',#6,#15);
#17=EDGE_CURVE('',#10,#11,#16,.T.);
#18=DIRECTION('',(0.0,1.0,0.0));
#19=VECTOR('',#18,10.0);
#20=LINE('',#7,#19);
#21=EDGE_CURVE('',#11,#12,#20,.T.);
#22=DIRECTION('',(-1.0,0.0,0.0));
#23=VECTOR('',#22,10.0);
#24=LINE('',#8,#23);
#25=EDGE_CURVE('',#12,#13,#24,.T.);
#26=DIRECTION('',(0.0,-1.0,0.0));
#27=VECTOR('',#26,10.0);
#28=LINE('',#9,#27);
#29=EDGE_CURVE('',#13,#10,#28,.T.);
#30=ORIENTED_EDGE('',$,$,#17,.T.);
#31=ORIENTED_EDGE('',$,$,#21,.T.);
#32=ORIENTED_EDGE('',$,$,#25,.T.);
#33=ORIENTED_EDGE('',$,$,#29,.T.);
#34=EDGE_LOOP('',(#30,#31,#32,#33));
#35=CARTESIAN_POINT('',(2.0,2.0,0.0));
#36=CARTESIAN_POINT('',(8.0,4.0,0.0));
#37=CARTESIAN_POINT('',(8.0,8.0,0.0));
#38=CARTESIAN_POINT('',(2.0,6.0,0.0));
#39=VERTEX_POINT('',#35);
#40=VERTEX_POINT('',#36);
#41=VERTEX_POINT('',#37);
#42=VERTEX_POINT('',#38);
#43=DIRECTION('',(0.948683298051,0.316227766017,0.0));
#44=VECTOR('',#43,6.32455532034);
#45=LINE('',#35,#44);
#46=EDGE_CURVE('',#39,#40,#45,.T.);
#47=DIRECTION('',(0.0,1.0,0.0));
#48=VECTOR('',#47,4.0);
#49=LINE('',#36,#48);
#50=EDGE_CURVE('',#40,#41,#49,.T.);
#51=DIRECTION('',(-0.948683298051,-0.316227766017,0.0));
#52=VECTOR('',#51,6.32455532034);
#53=LINE('',#37,#52);
#54=EDGE_CURVE('',#41,#42,#53,.T.);
#55=DIRECTION('',(0.0,-1.0,0.0));
#56=VECTOR('',#55,4.0);
#57=LINE('',#38,#56);
#58=EDGE_CURVE('',#42,#39,#57,.T.);
#59=ORIENTED_EDGE('',$,$,#46,.T.);
#60=ORIENTED_EDGE('',$,$,#50,.T.);
#61=ORIENTED_EDGE('',$,$,#54,.T.);
#62=ORIENTED_EDGE('',$,$,#58,.T.);
#63=EDGE_LOOP('',(#59,#60,#61,#62));
#64=CARTESIAN_POINT('',(2.0,8.0,0.0));
#65=CARTESIAN_POINT('',(8.0,6.0,0.0));
#66=CARTESIAN_POINT('',(8.0,2.0,0.0));
#67=CARTESIAN_POINT('',(2.0,4.0,0.0));
#68=VERTEX_POINT('',#64);
#69=VERTEX_POINT('',#65);
#70=VERTEX_POINT('',#66);
#71=VERTEX_POINT('',#67);
#72=DIRECTION('',(0.948683298051,-0.316227766017,0.0));
#73=VECTOR('',#72,6.32455532034);
#74=LINE('',#64,#73);
#75=EDGE_CURVE('',#68,#69,#74,.T.);
#76=DIRECTION('',(0.0,-1.0,0.0));
#77=VECTOR('',#76,4.0);
#78=LINE('',#65,#77);
#79=EDGE_CURVE('',#69,#70,#78,.T.);
#80=DIRECTION('',(-0.948683298051,0.316227766017,0.0));
#81=VECTOR('',#80,6.32455532034);
#82=LINE('',#66,#81);
#83=EDGE_CURVE('',#70,#71,#82,.T.);
#84=DIRECTION('',(0.0,1.0,0.0));
#85=VECTOR('',#84,4.0);
#86=LINE('',#67,#85);
#87=EDGE_CURVE('',#71,#68,#86,.T.);
#88=ORIENTED_EDGE('',$,$,#75,.T.);
#89=ORIENTED_EDGE('',$,$,#79,.T.);
#90=ORIENTED_EDGE('',$,$,#83,.T.);
#91=ORIENTED_EDGE('',$,$,#87,.T.);
#92=EDGE_LOOP('',(#88,#89,#90,#91));
#93=FACE_OUTER_BOUND('',#34,.T.);
#94=FACE_BOUND('',#63,.F.);
#95=FACE_BOUND('',#92,.F.);
#96=ADVANCED_FACE('',(#93,#94,#95),#5,.T.);
#97=CARTESIAN_POINT('',(0.0,12.0,0.0));
#98=DIRECTION('',(0.0,0.0,1.0));
#99=DIRECTION('',(1.0,0.0,0.0));
#100=AXIS2_PLACEMENT_3D('',#97,#98,#99);
#101=PLANE('',#100);
#102=CARTESIAN_POINT('',(0.0,12.0,0.0));
#103=CARTESIAN_POINT('',(10.0,12.0,0.0));
#104=CARTESIAN_POINT('',(10.0,22.0,0.0));
#105=CARTESIAN_POINT('',(0.0,22.0,0.0));
#106=VERTEX_POINT('',#102);
#107=VERTEX_POINT('',#103);
#108=VERTEX_POINT('',#104);
#109=VERTEX_POINT('',#105);
#110=DIRECTION('',(1.0,0.0,0.0));
#111=VECTOR('',#110,10.0);
#112=LINE('',#102,#111);
#113=EDGE_CURVE('',#106,#107,#112,.T.);
#114=DIRECTION('',(0.0,1.0,0.0));
#115=VECTOR('',#114,10.0);
#116=LINE('',#103,#115);
#117=EDGE_CURVE('',#107,#108,#116,.T.);
#118=DIRECTION('',(-1.0,0.0,0.0));
#119=VECTOR('',#118,10.0);
#120=LINE('',#104,#119);
#121=EDGE_CURVE('',#108,#109,#120,.T.);
#122=DIRECTION('',(0.0,-1.0,0.0));
#123=VECTOR('',#122,10.0);
#124=LINE('',#105,#123);
#125=EDGE_CURVE('',#109,#106,#124,.T.);
#126=ORIENTED_EDGE('',$,$,#113,.T.);
#127=ORIENTED_EDGE('',$,$,#117,.T.);
#128=ORIENTED_EDGE('',$,$,#121,.T.);
#129=ORIENTED_EDGE('',$,$,#125,.T.);
#130=EDGE_LOOP('',(#126,#127,#128,#129));
#131=FACE_OUTER_BOUND('',#130,.T.);
#132=ADVANCED_FACE('',(#131),#101,.T.);
#133=OPEN_SHELL('',(#96,#132));
#134=SHELL_BASED_SURFACE_MODEL('',(#133));
#9050=PRODUCT_CONTEXT('',#9000,'mechanical');
#9051=PRODUCT('Tfa039','Tfa039','',(#9050));
#9052=PRODUCT_DEFINITION_FORMATION('','',#9051);
#9053=PRODUCT_DEFINITION_CONTEXT('part definition',#9000,'design');
#9054=PRODUCT_DEFINITION('','','',#9052,#9053);
#9055=PRODUCT_DEFINITION_SHAPE('','','',#9054);
#9056=(LENGTH_UNIT()NAMED_UNIT(*)SI_UNIT(.MILLI.,.METRE.));
#9057=(NAMED_UNIT(*)PLANE_ANGLE_UNIT()SI_UNIT($,.RADIAN.));
#9058=(NAMED_UNIT(*)SI_UNIT($,.STERADIAN.)SOLID_ANGLE_UNIT());
#9059=UNCERTAINTY_MEASURE_WITH_UNIT(.LENGTH_MEASURE(1.0E-7).,#9056,'distance_accuracy_value','');
#9060=(GEOMETRIC_REPRESENTATION_CONTEXT(3)GLOBAL_UNCERTAINTY_ASSIGNED_CONTEXT((#9059))GLOBAL_UNIT_ASSIGNED_CONTEXT((#9056,#9057,#9058))REPRESENTATION_CONTEXT('','3D'));
#9061=MANIFOLD_SURFACE_SHAPE_REPRESENTATION('',(#134),#9060);
#9062=SHAPE_DEFINITION_REPRESENTATION(#9055,#9061);
ENDSEC;
END-ISO-10303-21;
