ISO-10303-21;
/* Tfa078: CLOSED_SHELL 100×100×1 mm box; top face (z=1) has outer wire plus two FACE_BOUNDs (inner loops = holes); hole1: x=[20,40] y=[20,80] — 4-edge inner loop; hole2: x=[50,70] y=[20,80] — 4-edge inner loop; footprints overlap at x=45 midline; FixLoopWire: merge produces tangent self-touch at merge seam x=45; merged wire self-touches but no gap introduced; 5-face companion box (bottom+4 sides) closes the shell; defect IS on live CLOSED_SHELL traversal path */
HEADER;
FILE_DESCRIPTION(('Tfa078'),'2;1');
FILE_NAME('Tfa078.stp','2026-06-17T00:00:00',(''),(''),'cad-research-suite','','');
FILE_SCHEMA(('AUTOMOTIVE_DESIGN { 1 0 10303 214 3 1 1 }'));
ENDSEC;
DATA;
#9000=APPLICATION_CONTEXT('mechanical design');
#1=CARTESIAN_POINT('',(0.0,0.0,0.0));
#2=CARTESIAN_POINT('',(100.0,0.0,0.0));
#3=CARTESIAN_POINT('',(100.0,100.0,0.0));
#4=CARTESIAN_POINT('',(0.0,100.0,0.0));
#5=CARTESIAN_POINT('',(0.0,0.0,1.0));
#6=CARTESIAN_POINT('',(100.0,0.0,1.0));
#7=CARTESIAN_POINT('',(100.0,100.0,1.0));
#8=CARTESIAN_POINT('',(0.0,100.0,1.0));
#9=VERTEX_POINT('',#1);
#10=VERTEX_POINT('',#2);
#11=VERTEX_POINT('',#3);
#12=VERTEX_POINT('',#4);
#13=VERTEX_POINT('',#5);
#14=VERTEX_POINT('',#6);
#15=VERTEX_POINT('',#7);
#16=VERTEX_POINT('',#8);
#17=DIRECTION('',(1.0,0.0,0.0));
#18=VECTOR('',#17,100.0);
#19=LINE('',#1,#18);
#20=EDGE_CURVE('',#9,#10,#19,.T.);
#21=DIRECTION('',(0.0,1.0,0.0));
#22=VECTOR('',#21,100.0);
#23=LINE('',#2,#22);
#24=EDGE_CURVE('',#10,#11,#23,.T.);
#25=DIRECTION('',(-1.0,0.0,0.0));
#26=VECTOR('',#25,100.0);
#27=LINE('',#3,#26);
#28=EDGE_CURVE('',#11,#12,#27,.T.);
#29=DIRECTION('',(0.0,-1.0,0.0));
#30=VECTOR('',#29,100.0);
#31=LINE('',#4,#30);
#32=EDGE_CURVE('',#12,#9,#31,.T.);
#33=DIRECTION('',(1.0,0.0,0.0));
#34=VECTOR('',#33,100.0);
#35=LINE('',#5,#34);
#36=EDGE_CURVE('',#13,#14,#35,.T.);
#37=DIRECTION('',(0.0,1.0,0.0));
#38=VECTOR('',#37,100.0);
#39=LINE('',#6,#38);
#40=EDGE_CURVE('',#14,#15,#39,.T.);
#41=DIRECTION('',(-1.0,0.0,0.0));
#42=VECTOR('',#41,100.0);
#43=LINE('',#7,#42);
#44=EDGE_CURVE('',#15,#16,#43,.T.);
#45=DIRECTION('',(0.0,-1.0,0.0));
#46=VECTOR('',#45,100.0);
#47=LINE('',#8,#46);
#48=EDGE_CURVE('',#16,#13,#47,.T.);
#49=DIRECTION('',(0.0,0.0,1.0));
#50=VECTOR('',#49,1.0);
#51=LINE('',#1,#50);
#52=EDGE_CURVE('',#9,#13,#51,.T.);
#53=DIRECTION('',(0.0,0.0,1.0));
#54=VECTOR('',#53,1.0);
#55=LINE('',#2,#54);
#56=EDGE_CURVE('',#10,#14,#55,.T.);
#57=DIRECTION('',(0.0,0.0,1.0));
#58=VECTOR('',#57,1.0);
#59=LINE('',#3,#58);
#60=EDGE_CURVE('',#11,#15,#59,.T.);
#61=DIRECTION('',(0.0,0.0,1.0));
#62=VECTOR('',#61,1.0);
#63=LINE('',#4,#62);
#64=EDGE_CURVE('',#12,#16,#63,.T.);
#65=ORIENTED_EDGE('',$,$,#20,.T.);
#66=ORIENTED_EDGE('',$,$,#24,.T.);
#67=ORIENTED_EDGE('',$,$,#28,.T.);
#68=ORIENTED_EDGE('',$,$,#32,.T.);
#69=EDGE_LOOP('',(#65,#66,#67,#68));
#70=DIRECTION('',(0.0,0.0,-1.0));
#71=DIRECTION('',(1.0,0.0,0.0));
#72=AXIS2_PLACEMENT_3D('',#1,#70,#71);
#73=FACE_OUTER_BOUND('',#69,.T.);
#74=PLANE('',#72);
#75=ADVANCED_FACE('',(#73),#74,.T.);
#76=ORIENTED_EDGE('',$,$,#20,.T.);
#77=ORIENTED_EDGE('',$,$,#56,.T.);
#78=ORIENTED_EDGE('',$,$,#36,.F.);
#79=ORIENTED_EDGE('',$,$,#52,.F.);
#80=EDGE_LOOP('',(#76,#77,#78,#79));
#81=DIRECTION('',(0.0,-1.0,0.0));
#82=DIRECTION('',(1.0,0.0,0.0));
#83=AXIS2_PLACEMENT_3D('',#1,#81,#82);
#84=FACE_OUTER_BOUND('',#80,.T.);
#85=PLANE('',#83);
#86=ADVANCED_FACE('',(#84),#85,.T.);
#87=ORIENTED_EDGE('',$,$,#64,.T.);
#88=ORIENTED_EDGE('',$,$,#44,.F.);
#89=ORIENTED_EDGE('',$,$,#60,.F.);
#90=ORIENTED_EDGE('',$,$,#28,.F.);
#91=EDGE_LOOP('',(#87,#88,#89,#90));
#92=DIRECTION('',(0.0,1.0,0.0));
#93=DIRECTION('',(1.0,0.0,0.0));
#94=AXIS2_PLACEMENT_3D('',#4,#92,#93);
#95=FACE_OUTER_BOUND('',#91,.T.);
#96=PLANE('',#94);
#97=ADVANCED_FACE('',(#95),#96,.T.);
#98=ORIENTED_EDGE('',$,$,#52,.T.);
#99=ORIENTED_EDGE('',$,$,#48,.F.);
#100=ORIENTED_EDGE('',$,$,#64,.F.);
#101=ORIENTED_EDGE('',$,$,#32,.F.);
#102=EDGE_LOOP('',(#98,#99,#100,#101));
#103=DIRECTION('',(-1.0,0.0,0.0));
#104=DIRECTION('',(0.0,1.0,0.0));
#105=AXIS2_PLACEMENT_3D('',#1,#103,#104);
#106=FACE_OUTER_BOUND('',#102,.T.);
#107=PLANE('',#105);
#108=ADVANCED_FACE('',(#106),#107,.T.);
#109=ORIENTED_EDGE('',$,$,#24,.T.);
#110=ORIENTED_EDGE('',$,$,#60,.T.);
#111=ORIENTED_EDGE('',$,$,#40,.F.);
#112=ORIENTED_EDGE('',$,$,#56,.F.);
#113=EDGE_LOOP('',(#109,#110,#111,#112));
#114=DIRECTION('',(1.0,0.0,0.0));
#115=DIRECTION('',(0.0,1.0,0.0));
#116=AXIS2_PLACEMENT_3D('',#2,#114,#115);
#117=FACE_OUTER_BOUND('',#113,.T.);
#118=PLANE('',#116);
#119=ADVANCED_FACE('',(#117),#118,.T.);
#120=ORIENTED_EDGE('',$,$,#36,.T.);
#121=ORIENTED_EDGE('',$,$,#40,.T.);
#122=ORIENTED_EDGE('',$,$,#44,.T.);
#123=ORIENTED_EDGE('',$,$,#48,.T.);
#124=EDGE_LOOP('',(#120,#121,#122,#123));
#125=FACE_OUTER_BOUND('',#124,.T.);
#126=CARTESIAN_POINT('',(20.0,20.0,1.0));
#127=CARTESIAN_POINT('',(40.0,20.0,1.0));
#128=CARTESIAN_POINT('',(40.0,80.0,1.0));
#129=CARTESIAN_POINT('',(20.0,80.0,1.0));
#130=VERTEX_POINT('',#126);
#131=VERTEX_POINT('',#127);
#132=VERTEX_POINT('',#128);
#133=VERTEX_POINT('',#129);
#134=DIRECTION('',(1.0,0.0,0.0));
#135=VECTOR('',#134,20.0);
#136=LINE('',#126,#135);
#137=EDGE_CURVE('',#130,#131,#136,.T.);
#138=DIRECTION('',(0.0,1.0,0.0));
#139=VECTOR('',#138,60.0);
#140=LINE('',#127,#139);
#141=EDGE_CURVE('',#131,#132,#140,.T.);
#142=DIRECTION('',(-1.0,0.0,0.0));
#143=VECTOR('',#142,20.0);
#144=LINE('',#128,#143);
#145=EDGE_CURVE('',#132,#133,#144,.T.);
#146=DIRECTION('',(0.0,-1.0,0.0));
#147=VECTOR('',#146,60.0);
#148=LINE('',#129,#147);
#149=EDGE_CURVE('',#133,#130,#148,.T.);
#150=ORIENTED_EDGE('',$,$,#137,.T.);
#151=ORIENTED_EDGE('',$,$,#149,.F.);
#152=ORIENTED_EDGE('',$,$,#145,.F.);
#153=ORIENTED_EDGE('',$,$,#141,.F.);
#154=EDGE_LOOP('',(#150,#151,#152,#153));
#155=FACE_BOUND('',#154,.F.);
#156=CARTESIAN_POINT('',(50.0,20.0,1.0));
#157=CARTESIAN_POINT('',(70.0,20.0,1.0));
#158=CARTESIAN_POINT('',(70.0,80.0,1.0));
#159=CARTESIAN_POINT('',(50.0,80.0,1.0));
#160=VERTEX_POINT('',#156);
#161=VERTEX_POINT('',#157);
#162=VERTEX_POINT('',#158);
#163=VERTEX_POINT('',#159);
#164=DIRECTION('',(1.0,0.0,0.0));
#165=VECTOR('',#164,20.0);
#166=LINE('',#156,#165);
#167=EDGE_CURVE('',#160,#161,#166,.T.);
#168=DIRECTION('',(0.0,1.0,0.0));
#169=VECTOR('',#168,60.0);
#170=LINE('',#157,#169);
#171=EDGE_CURVE('',#161,#162,#170,.T.);
#172=DIRECTION('',(-1.0,0.0,0.0));
#173=VECTOR('',#172,20.0);
#174=LINE('',#158,#173);
#175=EDGE_CURVE('',#162,#163,#174,.T.);
#176=DIRECTION('',(0.0,-1.0,0.0));
#177=VECTOR('',#176,60.0);
#178=LINE('',#159,#177);
#179=EDGE_CURVE('',#163,#160,#178,.T.);
#180=ORIENTED_EDGE('',$,$,#167,.T.);
#181=ORIENTED_EDGE('',$,$,#179,.F.);
#182=ORIENTED_EDGE('',$,$,#175,.F.);
#183=ORIENTED_EDGE('',$,$,#171,.F.);
#184=EDGE_LOOP('',(#180,#181,#182,#183));
#185=FACE_BOUND('',#184,.F.);
#186=DIRECTION('',(0.0,0.0,1.0));
#187=DIRECTION('',(1.0,0.0,0.0));
#188=AXIS2_PLACEMENT_3D('',#5,#186,#187);
#189=PLANE('',#188);
#190=ADVANCED_FACE('',(#125,#155,#185),#189,.T.);
#191=CLOSED_SHELL('',(#75,#190,#86,#97,#108,#119));
#192=MANIFOLD_SOLID_BREP('',#191);
#9050=PRODUCT_CONTEXT('',#9000,'mechanical');
#9051=PRODUCT('Tfa078','Tfa078','',(#9050));
#9052=PRODUCT_DEFINITION_FORMATION('','',#9051);
#9053=PRODUCT_DEFINITION_CONTEXT('part definition',#9000,'design');
#9054=PRODUCT_DEFINITION('','','',#9052,#9053);
#9055=PRODUCT_DEFINITION_SHAPE('','','',#9054);
#9056=(LENGTH_UNIT()NAMED_UNIT(*)SI_UNIT(.MILLI.,.METRE.));
#9057=(NAMED_UNIT(*)PLANE_ANGLE_UNIT()SI_UNIT($,.RADIAN.));
#9058=(NAMED_UNIT(*)SI_UNIT($,.STERADIAN.)SOLID_ANGLE_UNIT());
#9059=UNCERTAINTY_MEASURE_WITH_UNIT(LENGTH_MEASURE(1.0E-7),#9056,'distance_accuracy_value','');
#9060=(GEOMETRIC_REPRESENTATION_CONTEXT(3)GLOBAL_UNCERTAINTY_ASSIGNED_CONTEXT((#9059))GLOBAL_UNIT_ASSIGNED_CONTEXT((#9056,#9057,#9058))REPRESENTATION_CONTEXT('','3D'));
#9061=ADVANCED_BREP_SHAPE_REPRESENTATION('',(#192),#9060);
#9062=SHAPE_DEFINITION_REPRESENTATION(#9055,#9061);
ENDSEC;
END-ISO-10303-21;
