ISO-10303-21;
HEADER;
FILE_DESCRIPTION(('CAD kernel test fixture'),'2;1');
FILE_NAME('Tfa195.stp',
2026-06-15T00:00:00,
(''),
(''),
'',
'',
'');
FILE_SCHEMA(('AUTOMOTIVE_DESIGN { 1 0 10303 214 3 1 1 }'));
ENDSEC;
DATA;
#1=DIRECTION('',(-0.,0.,1.));
#2=DIRECTION('',(1.,0.,0.));
#3=DIRECTION('',(0.,1.,0.));
#4=CARTESIAN_POINT('',(-0.5,-0.5,0.));
#5=PLANE('',#6,1.0);
#6=AXIS2_PLACEMENT_3D('',#4,#1,#2);
#10=EDGE_CURVE('',#11,#12,#20,.T.);
#11=VERTEX_POINT('',#21);
#12=VERTEX_POINT('',#22);
#20=LINE('',#21,#2);
#21=CARTESIAN_POINT('',(0.,0.,0.));
#22=CARTESIAN_POINT('',(1.,0.,0.));
#30=EDGE_CURVE('',#12,#31,#40,.T.);
#31=VERTEX_POINT('',#41);
#40=LINE('',#22,#3);
#41=CARTESIAN_POINT('',(1.,1.,0.));
#50=EDGE_CURVE('',#31,#51,#60,.T.);
#51=VERTEX_POINT('',#61);
#60=LINE('',#41,#200);
#200=DIRECTION('',(-1.,0.,0.));
#61=CARTESIAN_POINT('',(0.,1.,0.));
#70=EDGE_CURVE('',#51,#11,#80,.T.);
#80=LINE('',#61,#201);
#201=DIRECTION('',(0.,-1.,0.));
#90=EDGE_LOOP('',#202,(#10,#30,#50,#70));
#202=DIRECTION('',(0.,0.,1.));
#100=EDGE_CURVE('',#111,#112,#120,.T.);
#111=VERTEX_POINT('',#121);
#112=VERTEX_POINT('',#122);
#120=LINE('',#121,#2);
#121=CARTESIAN_POINT('',(0.25,0.25,0.));
#122=CARTESIAN_POINT('',(0.75,0.25,0.));
#130=EDGE_CURVE('',#112,#131,#140,.T.);
#131=VERTEX_POINT('',#141);
#140=LINE('',#122,#3);
#141=CARTESIAN_POINT('',(0.75,0.75,0.));
#150=EDGE_CURVE('',#131,#151,#160,.T.);
#151=VERTEX_POINT('',#161);
#160=LINE('',#141,#200);
#161=CARTESIAN_POINT('',(0.25,0.75,0.));
#170=EDGE_CURVE('',#151,#111,#180,.T.);
#180=LINE('',#161,#201);
#191=EDGE_LOOP('',#202,(#100,#130,#150,#170));
#400=FACE('',#500,(#90,#191),.F.);
#500=FACE_OUTER_BOUND('',#90,.T.);
#9000=PRODUCT_CONTEXT('',#1,'mechanical');
#9001=PRODUCT('Tfa195','Tfa195','',(#9000));
#9002=PRODUCT_DEFINITION_FORMATION('','',#9001);
#9003=PRODUCT_DEFINITION_CONTEXT('part definition',#1,'design');
#9004=PRODUCT_DEFINITION('','',#9002,#9003);
#9005=PRODUCT_DEFINITION_SHAPE('','',#9004);
#9006=(LENGTH_UNIT()NAMED_UNIT(*)SI_UNIT(.MILLI.,.METRE.));
#9007=(NAMED_UNIT(*)PLANE_ANGLE_UNIT()SI_UNIT($,.RADIAN.));
#9008=(NAMED_UNIT(*)SI_UNIT($,.STERADIAN.)SOLID_ANGLE_UNIT());
#9009=UNCERTAINTY_MEASURE_WITH_UNIT(LENGTH_MEASURE(1.0E-7),#9006,'distance_accuracy_value','');
#9010=(GEOMETRIC_REPRESENTATION_CONTEXT(3)GLOBAL_UNCERTAINTY_ASSIGNED_CONTEXT((#9009))GLOBAL_UNIT_ASSIGNED_CONTEXT((#9006,#9007,#9008))REPRESENTATION_CONTEXT('','3D'));
#9021=SHELL_BASED_SURFACE_MODEL('sbsm',(#9022));
#9022=OPEN_SHELL('',(#400));
#9023=MANIFOLD_SURFACE_SHAPE_REPRESENTATION('',(#9021),#9010);
#9024=SHAPE_DEFINITION_REPRESENTATION(#9005,#9023);
ENDSEC;
END-ISO-10303-21;
