ISO-10303-21;
/* Tfa175: FixAddNaturalBound with surface having unclosed boundary curve */
HEADER;
FILE_DESCRIPTION(('Tfa175'),'2;1');
FILE_NAME('Tfa175.stp','2026-06-17T00:00:00',(''),(''),'cad-research-suite','','');
FILE_SCHEMA(('AUTOMOTIVE_DESIGN { 1 0 10303 214 3 1 1 }'));
ENDSEC;
DATA;
#9000=APPLICATION_CONTEXT('mechanical design');
#1=CARTESIAN_POINT('',(0.0,0.0,0.0));
#2=CARTESIAN_POINT('',(0.5,0.0,0.0));
#3=CARTESIAN_POINT('',(1.0,0.0,0.0));
#4=CARTESIAN_POINT('',(0.0,0.5,0.0));
#5=CARTESIAN_POINT('',(0.5,0.5,0.025));
#6=CARTESIAN_POINT('',(1.0,0.5,0.05));
#7=CARTESIAN_POINT('',(0.0,1.0,0.0));
#8=CARTESIAN_POINT('',(0.5,1.0,0.05));
#9=CARTESIAN_POINT('',(1.0,1.0,0.1));
#10=CARTESIAN_POINT('',(0.5,0.5,0.525));
#11=CARTESIAN_POINT('',(0.75,0.5,0.5375));
#12=CARTESIAN_POINT('',(1.0,0.5,0.55));
#13=CARTESIAN_POINT('',(0.5,0.75,0.5375));
#14=CARTESIAN_POINT('',(0.75,0.75,0.55625));
#15=CARTESIAN_POINT('',(1.0,0.75,0.575));
#16=CARTESIAN_POINT('',(0.5,1.0,0.55));
#17=CARTESIAN_POINT('',(0.75,1.0,0.575));
#18=CARTESIAN_POINT('',(1.0,1.0,0.6));
#19=B_SPLINE_SURFACE_WITH_KNOTS('',2,2,((#1,#2,#3),(#4,#5,#6),(#7,#8,#9)),.UNSPECIFIED.,.F.,.F.,.F.,(0,0),(0.0,0.5,1.0),(3,3),(0,0),(0.0,0.5,1.0),(3,3),.UNIFORM.);
#20=CARTESIAN_POINT('',(0.4,0.4,0.04));
#21=CARTESIAN_POINT('',(0.6,0.4,0.06));
#22=CARTESIAN_POINT('',(0.6,0.6,0.56));
#23=CARTESIAN_POINT('',(0.4,0.6,0.54));
#24=VERTEX_POINT('',#20);
#25=VERTEX_POINT('',#21);
#26=VERTEX_POINT('',#22);
#27=VERTEX_POINT('',#23);
#28=DIRECTION('',(0.99503719021,0.0,0.099503719021));
#29=VECTOR('',#28,0.200997512422);
#30=LINE('',#20,#29);
#31=EDGE_CURVE('',#24,#25,#30,.T.);
#32=ORIENTED_EDGE('',$,$,#31,.T.);
#33=DIRECTION('',(0.0,0.371390676354,0.928476690885));
#34=VECTOR('',#33,0.538516480713);
#35=LINE('',#21,#34);
#36=EDGE_CURVE('',#25,#26,#35,.T.);
#37=ORIENTED_EDGE('',$,$,#36,.T.);
#38=DIRECTION('',(-0.99503719021,0.0,-0.099503719021));
#39=VECTOR('',#38,0.200997512422);
#40=LINE('',#22,#39);
#41=EDGE_CURVE('',#26,#27,#40,.T.);
#42=ORIENTED_EDGE('',$,$,#41,.T.);
#43=DIRECTION('',(0.0,-0.371390676354,-0.928476690885));
#44=VECTOR('',#43,0.538516480713);
#45=LINE('',#23,#44);
#46=EDGE_CURVE('',#27,#24,#45,.T.);
#47=ORIENTED_EDGE('',$,$,#46,.T.);
#48=EDGE_LOOP('',(#32,#37,#42,#47));
#49=FACE_OUTER_BOUND('',#48,.T.);
#50=ADVANCED_FACE('',(#49),#19,.T.);
#51=OPEN_SHELL('',(#50));
#52=SHELL_BASED_SURFACE_MODEL('',(#51));
#9050=PRODUCT_CONTEXT('',#9000,'mechanical');
#9051=PRODUCT('Tfa175','Tfa175','',(#9050));
#9052=PRODUCT_DEFINITION_FORMATION('','',#9051);
#9053=PRODUCT_DEFINITION_CONTEXT('part definition',#9000,'design');
#9054=PRODUCT_DEFINITION('','','',#9052,#9053);
#9055=PRODUCT_DEFINITION_SHAPE('','','',#9054);
#9056=(LENGTH_UNIT()NAMED_UNIT(*)SI_UNIT(.MILLI.,.METRE.));
#9057=(NAMED_UNIT(*)PLANE_ANGLE_UNIT()SI_UNIT($,.RADIAN.));
#9058=(NAMED_UNIT(*)SI_UNIT($,.STERADIAN.)SOLID_ANGLE_UNIT());
#9059=UNCERTAINTY_MEASURE_WITH_UNIT(.LENGTH_MEASURE(1.0E-7).,#9056,'distance_accuracy_value','');
#9060=(GEOMETRIC_REPRESENTATION_CONTEXT(3)GLOBAL_UNCERTAINTY_ASSIGNED_CONTEXT((#9059))GLOBAL_UNIT_ASSIGNED_CONTEXT((#9056,#9057,#9058))REPRESENTATION_CONTEXT('','3D'));
#9061=MANIFOLD_SURFACE_SHAPE_REPRESENTATION('',(#52),#9060);
#9062=SHAPE_DEFINITION_REPRESENTATION(#9055,#9061);
ENDSEC;
END-ISO-10303-21;
