ISO-10303-21;
HEADER;
FILE_DESCRIPTION(('CAD KERNEL TEST FIXTURE'),'2.0');
FILE_NAME('Tfa122.stp','2026-06-15T00:00:00',(''),(''),'','');
FILE_SCHEMA(('AUTOMOTIVE_DESIGN { 1 0 10303 214 3 1 1 }'));
ENDSEC;
DATA;
#1=GEOMETRIC_REPRESENTATION_CONTEXT('',3);
#10=PLANE('',#20,1.0);
#20=AXIS2_PLACEMENT_3D('',#30,#40,#50);
#30=CARTESIAN_POINT('origin',(0.0,0.0,0.0));
#40=DIRECTION('z-axis',(0.0,0.0,1.0));
#50=DIRECTION('x-axis',(1.0,0.0,0.0));
#110=LINE('line1',#120,#130);
#120=CARTESIAN_POINT('p1',(0.0,0.0,0.0));
#130=DIRECTION('dir1',(1.0,0.0,0.0));
#140=LINE('line2',#150,#160);
#150=CARTESIAN_POINT('p2',(10.0,0.0,0.0));
#160=DIRECTION('dir2',(0.0,1.0,0.0));
#170=LINE('line3',#180,#190);
#180=CARTESIAN_POINT('p3',(10.0,10.0,0.0));
#190=DIRECTION('dir3',(-1.0,0.0,0.0));
#200=LINE('line4',#210,#220);
#210=CARTESIAN_POINT('p4',(0.0,10.0,0.0));
#220=DIRECTION('dir4',(0.0,-1.0,0.0));
#500=LINE('line5',#510,#520);
#510=CARTESIAN_POINT('self_touch',(5.0,5.0,0.0));
#520=DIRECTION('touch_dir',(1.0,0.0,0.0));
#230=VERTEX_POINT('v1',#240);
#240=CARTESIAN_POINT('',(0.0,0.0,0.0));
#250=VERTEX_POINT('v2',#260);
#260=CARTESIAN_POINT('',(10.0,0.0,0.0));
#270=VERTEX_POINT('v3',#280);
#280=CARTESIAN_POINT('',(10.0,10.0,0.0));
#300=VERTEX_POINT('v4',#310);
#310=CARTESIAN_POINT('',(0.0,10.0,0.0));
#360=VERTEX_POINT('v_self_touch',#370);
#370=CARTESIAN_POINT('',(5.0,5.0,0.0));
#320=EDGE_CURVE('e1',#230,#250,#110,.T.);
#330=EDGE_CURVE('e2',#250,#270,#140,.T.);
#340=EDGE_CURVE('e3',#270,#360,#170,.T.);
#350=EDGE_CURVE('e4',#360,#300,#200,.T.);
#385=EDGE_CURVE('e5',#300,#230,#500,.T.);
#410=ORIENTED_EDGE('',*,*,#320,.T.);
#420=ORIENTED_EDGE('',*,*,#330,.T.);
#430=ORIENTED_EDGE('',*,*,#340,.T.);
#440=ORIENTED_EDGE('',*,*,#350,.T.);
#450=ORIENTED_EDGE('',*,*,#385,.T.);
#460=EDGE_LOOP('self_touch_loop',(#410,#420,#430,#440,#450));
#470=WIRE('w_self_touch',(#460));
#480=FACE_BOUND('',#470,.T.);
#500_f=FACE('face_twisted',(#480),#10,.T.);
#9000=PRODUCT_CONTEXT('',#1,'mechanical');
#9001=PRODUCT('Tfa122','Tfa122','',(#9000));
#9002=PRODUCT_DEFINITION_FORMATION('','',#9001);
#9003=PRODUCT_DEFINITION_CONTEXT('part definition',#1,'design');
#9004=PRODUCT_DEFINITION('','',#9002,#9003);
#9005=PRODUCT_DEFINITION_SHAPE('','',#9004);
#9006=(LENGTH_UNIT()NAMED_UNIT(*)SI_UNIT(.MILLI.,.METRE.));
#9007=(NAMED_UNIT(*)PLANE_ANGLE_UNIT()SI_UNIT($,.RADIAN.));
#9008=(NAMED_UNIT(*)SI_UNIT($,.STERADIAN.)SOLID_ANGLE_UNIT());
#9009=UNCERTAINTY_MEASURE_WITH_UNIT(LENGTH_MEASURE(1.0E-7),#9006,'distance_accuracy_value','');
#9010=(GEOMETRIC_REPRESENTATION_CONTEXT(3)GLOBAL_UNCERTAINTY_ASSIGNED_CONTEXT((#9009))GLOBAL_UNIT_ASSIGNED_CONTEXT((#9006,#9007,#9008))REPRESENTATION_CONTEXT('','3D'));
#9021=SHELL_BASED_SURFACE_MODEL('sbsm',(#500_f));
#9022=MANIFOLD_SURFACE_SHAPE_REPRESENTATION('',(#9021),#9010);
#9023=SHAPE_DEFINITION_REPRESENTATION(#9005,#9022);
ENDSEC;
END-ISO-10303-21;
