ISO-10303-21;
HEADER;
FILE_DESCRIPTION(('CAD fixture: FixPeriodicDegenerated B-spline-revolution apex-construction'),'2;1');
FILE_NAME('Tfa150.stp',
  2024-06-15T12:00:00,
  (''),
  (''),
  'neutral file format',
  'CAD System v1',
  '');
FILE_SCHEMA(('AUTOMOTIVE_DESIGN { 1 0 10303 214 3 1 1 }'));
ENDSEC;
DATA;
#1=SECURITY_CLASSIFICATION('','',$);
#10=PARAMETRIC_REPRESENTATION_CONTEXT('','3D parametric space');
#11=AXIS2_PLACEMENT_3D('origin',#20,#21,#22);
#20=CARTESIAN_POINT('',0.0,0.0,0.0);
#21=DIRECTION('',0.0,0.0,1.0);
#22=DIRECTION('',1.0,0.0,0.0);
#30=LINE('apex_edge_1',#31,#32);
#31=CARTESIAN_POINT('',1.0,0.0,0.0);
#32=VECTOR('',#33,1.0);
#33=DIRECTION('',0.0,1.0,0.0);
#40=LINE('apex_edge_2',#41,#42);
#41=CARTESIAN_POINT('',1.0,1.0,0.0);
#42=VECTOR('',#43,1.0);
#43=DIRECTION('',-1.0,0.0,0.0);
#50=LINE('apex_edge_3',#51,#52);
#51=CARTESIAN_POINT('',0.0,1.0,0.0);
#52=VECTOR('',#53,1.0);
#53=DIRECTION('',0.0,-1.0,0.0);
#60=B_SPLINE_CURVE_WITH_KNOTS('bspline_profile',3,(#70,#80,#90,#100,#110),
  .UNSPECIFIED.,.F.,.F.,(4,2,4),(0.0,0.5,1.0),1);
#70=CARTESIAN_POINT('',2.0,0.0,0.0);
#80=CARTESIAN_POINT('',3.0,0.5,0.0);
#90=CARTESIAN_POINT('',3.5,1.5,0.0);
#100=CARTESIAN_POINT('',3.0,2.5,0.0);
#110=CARTESIAN_POINT('',2.0,3.0,0.0);
#120=B_SPLINE_SURFACE_WITH_KNOTS('bspline_revolution',3,2,(
(#70,#80,#90,#100,#110),
(#130,#140,#150,#160,#170),
(#180,#190,#200,#210,#220)),
.UNSPECIFIED.,.F.,.F.,.F.,(4,2,4),(4,2,4),(0.0,0.5,1.0),(0.0,0.5,1.0),1);
#130=CARTESIAN_POINT('',0.0,0.0,2.0);
#140=CARTESIAN_POINT('',0.0,1.5,2.0);
#150=CARTESIAN_POINT('',0.0,2.1,2.0);
#160=CARTESIAN_POINT('',0.0,1.5,2.0);
#170=CARTESIAN_POINT('',0.0,0.0,2.0);
#180=CARTESIAN_POINT('',-2.0,0.0,1.0);
#190=CARTESIAN_POINT('',-3.0,0.5,1.0);
#200=CARTESIAN_POINT('',-3.5,1.5,1.0);
#210=CARTESIAN_POINT('',-3.0,2.5,1.0);
#220=CARTESIAN_POINT('',-2.0,3.0,1.0);
#230=VERTEX_POINT('v1',#240);
#240=CARTESIAN_POINT('',1.0,0.0,0.0);
#250=VERTEX_POINT('v2',#260);
#260=CARTESIAN_POINT('',1.0,1.0,0.0);
#270=VERTEX_POINT('v3',#280);
#280=CARTESIAN_POINT('',0.0,1.0,0.0);
#290=VERTEX_POINT('v4',#300);
#300=CARTESIAN_POINT('',0.0,0.0,0.0);
#310=EDGE_CURVE('apex_e1',#230,#250,#30,.T.);
#320=EDGE_CURVE('apex_e2',#250,#270,#40,.T.);
#330=EDGE_CURVE('apex_e3',#270,#290,#50,.T.);
#340=EDGE_CURVE('apex_e4_surf',#290,#230,#60,.T.);
#350=ORIENTED_EDGE('a_oe1',*,*,#310,.T.);
#360=ORIENTED_EDGE('a_oe2',*,*,#320,.T.);
#370=ORIENTED_EDGE('a_oe3',*,*,#330,.T.);
#380=ORIENTED_EDGE('a_oe4',*,*,#340,.T.);
#390=EDGE_LOOP('apex_loop',(#350,#360,#370,#380));
#400=FACE_OUTER_BOUND('outer_bound',#390,.T.);
#410=ADVANCED_FACE('bspline_revolution_face',(#400),#120,.F.);
#9000=PRODUCT_CONTEXT('',#1,'mechanical');
#9001=PRODUCT('Tfa150','Tfa150','',(#9000));
#9002=PRODUCT_DEFINITION_FORMATION('','',#9001);
#9003=PRODUCT_DEFINITION_CONTEXT('part definition',#1,'design');
#9004=PRODUCT_DEFINITION('','',#9002,#9003);
#9005=PRODUCT_DEFINITION_SHAPE('','',#9004);
#9006=(LENGTH_UNIT()NAMED_UNIT(*)SI_UNIT(.MILLI.,.METRE.));
#9007=(NAMED_UNIT(*)PLANE_ANGLE_UNIT()SI_UNIT($,.RADIAN.));
#9008=(NAMED_UNIT(*)SI_UNIT($,.STERADIAN.)SOLID_ANGLE_UNIT());
#9009=UNCERTAINTY_MEASURE_WITH_UNIT(LENGTH_MEASURE(1.0E-7),#9006,'distance_accuracy_value','');
#9010=(GEOMETRIC_REPRESENTATION_CONTEXT(3)GLOBAL_UNCERTAINTY_ASSIGNED_CONTEXT((#9009))GLOBAL_UNIT_ASSIGNED_CONTEXT((#9006,#9007,#9008))REPRESENTATION_CONTEXT('','3D'));
#9021=SHELL_BASED_SURFACE_MODEL('sbsm',(#9020));
#9020=CLOSED_SHELL('outer_shell',(#410));
#9022=MANIFOLD_SURFACE_SHAPE_REPRESENTATION('',(#9021),#9010);
#9023=SHAPE_DEFINITION_REPRESENTATION(#9005,#9022);
ENDSEC;
END-ISO-10303-21;
