ISO-10303-21;
/* Tfa132: CheckTwisted on C0-discontinuous B-spline surface */
HEADER;
FILE_DESCRIPTION(('Tfa132'),'2;1');
FILE_NAME('Tfa132.stp','2026-06-17T00:00:00',(''),(''),'cad-research-suite','','');
FILE_SCHEMA(('AUTOMOTIVE_DESIGN { 1 0 10303 214 3 1 1 }'));
ENDSEC;
DATA;
#9000=APPLICATION_CONTEXT('mechanical design');
#1=CARTESIAN_POINT('',(0.0,0.0,0.0));
#2=CARTESIAN_POINT('',(2.5,0.0,0.0));
#3=CARTESIAN_POINT('',(5.0,0.0,0.0));
#4=CARTESIAN_POINT('',(5.0,0.0,0.0));
#5=CARTESIAN_POINT('',(6.66666666667,0.0,1.0));
#6=CARTESIAN_POINT('',(8.33333333333,0.0,2.0));
#7=CARTESIAN_POINT('',(10.0,0.0,3.0));
#8=CARTESIAN_POINT('',(0.0,3.33333333333,0.0));
#9=CARTESIAN_POINT('',(2.5,3.33333333333,0.0));
#10=CARTESIAN_POINT('',(5.0,3.33333333333,0.0));
#11=CARTESIAN_POINT('',(5.0,3.33333333333,0.0));
#12=CARTESIAN_POINT('',(6.66666666667,3.33333333333,1.0));
#13=CARTESIAN_POINT('',(8.33333333333,3.33333333333,2.0));
#14=CARTESIAN_POINT('',(10.0,3.33333333333,3.0));
#15=CARTESIAN_POINT('',(0.0,6.66666666667,0.0));
#16=CARTESIAN_POINT('',(2.5,6.66666666667,0.0));
#17=CARTESIAN_POINT('',(5.0,6.66666666667,0.0));
#18=CARTESIAN_POINT('',(5.0,6.66666666667,0.0));
#19=CARTESIAN_POINT('',(6.66666666667,6.66666666667,1.0));
#20=CARTESIAN_POINT('',(8.33333333333,6.66666666667,2.0));
#21=CARTESIAN_POINT('',(10.0,6.66666666667,3.0));
#22=CARTESIAN_POINT('',(0.0,10.0,0.0));
#23=CARTESIAN_POINT('',(2.5,10.0,0.0));
#24=CARTESIAN_POINT('',(5.0,10.0,0.0));
#25=CARTESIAN_POINT('',(5.0,10.0,0.0));
#26=CARTESIAN_POINT('',(6.66666666667,10.0,1.0));
#27=CARTESIAN_POINT('',(8.33333333333,10.0,2.0));
#28=CARTESIAN_POINT('',(10.0,10.0,3.0));
#29=B_SPLINE_SURFACE_WITH_KNOTS('discontinuous_spline',3,3,((#1,#2,#3,#4,#5,#6,#7),(#8,#9,#10,#11,#12,#13,#14),(#15,#16,#17,#18,#19,#20,#21),(#22,#23,#24,#25,#26,#27,#28)),.UNSPECIFIED.,.F.,.F.,.F.,(4,3,4),(4,4),(0.0,0.5,1.0),(0.0,1.0),.UNSPECIFIED.);
#30=CARTESIAN_POINT('',(0.0,0.0,0.0));
#31=CARTESIAN_POINT('',(10.0,0.0,0.0));
#32=CARTESIAN_POINT('',(10.0,10.0,0.0));
#33=CARTESIAN_POINT('',(0.0,10.0,0.0));
#34=VERTEX_POINT('',#30);
#35=VERTEX_POINT('',#31);
#36=VERTEX_POINT('',#32);
#37=VERTEX_POINT('',#33);
#38=DIRECTION('',(1.0,0.0,0.0));
#39=VECTOR('',#38,10.0);
#40=LINE('',#30,#39);
#41=EDGE_CURVE('',#34,#35,#40,.T.);
#42=DIRECTION('',(0.0,1.0,0.0));
#43=VECTOR('',#42,10.0);
#44=LINE('',#31,#43);
#45=EDGE_CURVE('',#35,#36,#44,.T.);
#46=DIRECTION('',(-1.0,0.0,0.0));
#47=VECTOR('',#46,10.0);
#48=LINE('',#32,#47);
#49=EDGE_CURVE('',#36,#37,#48,.T.);
#50=DIRECTION('',(0.0,-1.0,0.0));
#51=VECTOR('',#50,10.0);
#52=LINE('',#33,#51);
#53=EDGE_CURVE('',#37,#34,#52,.T.);
#54=ORIENTED_EDGE('',$,$,#41,.T.);
#55=ORIENTED_EDGE('',$,$,#45,.T.);
#56=ORIENTED_EDGE('',$,$,#49,.T.);
#57=ORIENTED_EDGE('',$,$,#53,.T.);
#58=EDGE_LOOP('',(#54,#55,#56,#57));
#59=FACE_OUTER_BOUND('',#58,.T.);
#60=ADVANCED_FACE('',(#59),#29,.T.);
#61=OPEN_SHELL('',(#60));
#62=SHELL_BASED_SURFACE_MODEL('',(#61));
#9050=PRODUCT_CONTEXT('',#9000,'mechanical');
#9051=PRODUCT('Tfa132','Tfa132','',(#9050));
#9052=PRODUCT_DEFINITION_FORMATION('','',#9051);
#9053=PRODUCT_DEFINITION_CONTEXT('part definition',#9000,'design');
#9054=PRODUCT_DEFINITION('','','',#9052,#9053);
#9055=PRODUCT_DEFINITION_SHAPE('','','',#9054);
#9056=(LENGTH_UNIT()NAMED_UNIT(*)SI_UNIT(.MILLI.,.METRE.));
#9057=(NAMED_UNIT(*)PLANE_ANGLE_UNIT()SI_UNIT($,.RADIAN.));
#9058=(NAMED_UNIT(*)SI_UNIT($,.STERADIAN.)SOLID_ANGLE_UNIT());
#9059=UNCERTAINTY_MEASURE_WITH_UNIT(.LENGTH_MEASURE(1.0E-7).,#9056,'distance_accuracy_value','');
#9060=(GEOMETRIC_REPRESENTATION_CONTEXT(3)GLOBAL_UNCERTAINTY_ASSIGNED_CONTEXT((#9059))GLOBAL_UNIT_ASSIGNED_CONTEXT((#9056,#9057,#9058))REPRESENTATION_CONTEXT('','3D'));
#9061=MANIFOLD_SURFACE_SHAPE_REPRESENTATION('',(#62),#9060);
#9062=SHAPE_DEFINITION_REPRESENTATION(#9055,#9061);
ENDSEC;
END-ISO-10303-21;
