ISO-10303-21;
HEADER;
FILE_DESCRIPTION(('CAD fixture: FixSmallAreaWire min-area-threshold-collision'),
  '2024-06-15T12:00:00',
  2,
  (),
  (),
  'neutral file',
  'CAD System',
  '',
  ());
FILE_NAME('Tfa148.stp',
  2024-06-15T12:00:00,
  (''),
  (''),
  'neutral file format',
  'CAD System v1',
  '');
FILE_SCHEMA(('AUTOMOTIVE_DESIGN { 1 0 10303 214 3 1 1 }'));
ENDSEC;
DATA;
#1=SECURITY_CLASSIFICATION('','',$);
#10=PARAMETRIC_REPRESENTATION_CONTEXT('','3D parametric space');
#11=AXIS2_PLACEMENT_3D('origin',#20,#21,#22);
#20=CARTESIAN_POINT('',0.0,0.0,0.0);
#21=DIRECTION('',0.0,0.0,1.0);
#22=DIRECTION('',1.0,0.0,0.0);
#30=LINE('outer_e1',#31,#32);
#31=CARTESIAN_POINT('',0.0,0.0,0.0);
#32=VECTOR('',#33,1.0);
#33=DIRECTION('',1.0,0.0,0.0);
#40=LINE('outer_e2',#41,#42);
#41=CARTESIAN_POINT('',10.0,0.0,0.0);
#42=VECTOR('',#43,1.0);
#43=DIRECTION('',0.0,1.0,0.0);
#50=LINE('outer_e3',#51,#52);
#51=CARTESIAN_POINT('',10.0,10.0,0.0);
#52=VECTOR('',#53,1.0);
#53=DIRECTION('',−1.0,0.0,0.0);
#60=LINE('outer_e4',#61,#62);
#61=CARTESIAN_POINT('',0.0,10.0,0.0);
#62=VECTOR('',#63,1.0);
#63=DIRECTION('',0.0,−1.0,0.0);
#70=LINE('inner_e1',#71,#72);
#71=CARTESIAN_POINT('',2.0,2.0,0.0);
#72=VECTOR('',#73,1.0);
#73=DIRECTION('',1.0,0.0,0.0);
#75=LINE('inner_e2',#76,#77);
#76=CARTESIAN_POINT('',2.005,2.0,0.0);
#77=VECTOR('',#78,1.0);
#78=DIRECTION('',0.0,1.0,0.0);
#79=LINE('inner_e3',#80,#81);
#80=CARTESIAN_POINT('',2.005,2.005,0.0);
#81=VECTOR('',#82,1.0);
#82=DIRECTION('',−1.0,0.0,0.0);
#83=LINE('inner_e4',#84,#85);
#84=CARTESIAN_POINT('',2.0,2.005,0.0);
#85=VECTOR('',#86,1.0);
#86=DIRECTION('',0.0,−1.0,0.0);
#90=VERTEX_POINT('v_o1',#100);
#100=CARTESIAN_POINT('',0.0,0.0,0.0);
#110=VERTEX_POINT('v_o2',#120);
#120=CARTESIAN_POINT('',10.0,0.0,0.0);
#130=VERTEX_POINT('v_o3',#140);
#140=CARTESIAN_POINT('',10.0,10.0,0.0);
#150=VERTEX_POINT('v_o4',#160);
#160=CARTESIAN_POINT('',0.0,10.0,0.0);
#170=VERTEX_POINT('v_i1',#180);
#180=CARTESIAN_POINT('',2.0,2.0,0.0);
#190=VERTEX_POINT('v_i2',#200);
#200=CARTESIAN_POINT('',2.005,2.0,0.0);
#210=VERTEX_POINT('v_i3',#220);
#220=CARTESIAN_POINT('',2.005,2.005,0.0);
#230=VERTEX_POINT('v_i4',#240);
#240=CARTESIAN_POINT('',2.0,2.005,0.0);
#250=EDGE_CURVE('outer_e1_curve',#90,#110,#30,.T.);
#260=EDGE_CURVE('outer_e2_curve',#110,#130,#40,.T.);
#270=EDGE_CURVE('outer_e3_curve',#130,#150,#50,.T.);
#280=EDGE_CURVE('outer_e4_curve',#150,#90,#60,.T.);
#290=EDGE_CURVE('inner_e1_curve',#170,#190,#70,.T.);
#300=EDGE_CURVE('inner_e2_curve',#190,#210,#75,.T.);
#310=EDGE_CURVE('inner_e3_curve',#210,#230,#79,.T.);
#320=EDGE_CURVE('inner_e4_curve',#230,#170,#83,.T.);
#330=ORIENTED_EDGE('o_oe1',*,*,#250,.T.);
#340=ORIENTED_EDGE('o_oe2',*,*,#260,.T.);
#350=ORIENTED_EDGE('o_oe3',*,*,#270,.T.);
#360=ORIENTED_EDGE('o_oe4',*,*,#280,.T.);
#370=ORIENTED_EDGE('i_oe1',*,*,#290,.T.);
#380=ORIENTED_EDGE('i_oe2',*,*,#300,.T.);
#390=ORIENTED_EDGE('i_oe3',*,*,#310,.T.);
#400=ORIENTED_EDGE('i_oe4',*,*,#320,.T.);
#410=EDGE_LOOP('outer_loop',(#330,#340,#350,#360));
#420=EDGE_LOOP('inner_loop',(#370,#380,#390,#400));
#430=PLANE('base_plane',#11,1.0);
#440=FACE_OUTER_BOUND('outer_bound',#410,.T.);
#450=FACE_BOUND('inner_bound',#420,.T.);
#460=ADVANCED_FACE('threshold_collision_face',(#440,#450),#430,.F.);
#9000=PRODUCT_CONTEXT('',#1,'mechanical');
#9001=PRODUCT('Tfa148','Tfa148','',(#9000));
#9002=PRODUCT_DEFINITION_FORMATION('','',#9001);
#9003=PRODUCT_DEFINITION_CONTEXT('part definition',#1,'design');
#9004=PRODUCT_DEFINITION('','',#9002,#9003);
#9005=PRODUCT_DEFINITION_SHAPE('','',#9004);
#9006=(LENGTH_UNIT()NAMED_UNIT(*)SI_UNIT(.MILLI.,.METRE.));
#9007=(NAMED_UNIT(*)PLANE_ANGLE_UNIT()SI_UNIT($,.RADIAN.));
#9008=(NAMED_UNIT(*)SI_UNIT($,.STERADIAN.)SOLID_ANGLE_UNIT());
#9009=UNCERTAINTY_MEASURE_WITH_UNIT(LENGTH_MEASURE(1.0E-7),#9006,'distance_accuracy_value','');
#9010=(GEOMETRIC_REPRESENTATION_CONTEXT(3)GLOBAL_UNCERTAINTY_ASSIGNED_CONTEXT((#9009))GLOBAL_UNIT_ASSIGNED_CONTEXT((#9006,#9007,#9008))REPRESENTATION_CONTEXT('','3D'));
#9021=SHELL_BASED_SURFACE_MODEL('sbsm',(#9020));
#9020=CLOSED_SHELL('outer_shell',(#460));
#9022=MANIFOLD_SURFACE_SHAPE_REPRESENTATION('',(#9021),#9010);
#9023=SHAPE_DEFINITION_REPRESENTATION(#9005,#9022);
ENDSEC;
END-ISO-10303-21;
