ISO-10303-21;
/* Tfa109: CLOSED_SHELL: thin triangular wedge ADVANCED_FACE at z=0 with obtuse tip angle ~126° (base 0.2, height 0.05); ShapeAnalysis_CheckSmallFace::CheckPin checks small area and narrow dimensions but does NOT validate tip acuteness; flags as pin even though tip > 90°; defect IS on live CLOSED_SHELL traversal path */
HEADER;
FILE_DESCRIPTION(('Tfa109'),'2;1');
FILE_NAME('Tfa109.stp','2026-06-17T00:00:00',(''),(''),'cad-research-suite','','');
FILE_SCHEMA(('AUTOMOTIVE_DESIGN { 1 0 10303 214 3 1 1 }'));
ENDSEC;
DATA;
#9000=APPLICATION_CONTEXT('mechanical design');
#1=CARTESIAN_POINT('',(0.0,0.05,0.0));
#2=CARTESIAN_POINT('',(-0.1,0.0,0.0));
#3=CARTESIAN_POINT('',(0.1,0.0,0.0));
#4=VERTEX_POINT('',#1);
#5=VERTEX_POINT('',#2);
#6=VERTEX_POINT('',#3);
#7=DIRECTION('',(1.0,0.0,0.0));
#8=VECTOR('',#7,0.2);
#9=LINE('',#2,#8);
#10=EDGE_CURVE('',#5,#6,#9,.T.);
#11=DIRECTION('',(0.894427191,-0.4472135955,0.0));
#12=VECTOR('',#11,0.111803398875);
#13=LINE('',#3,#12);
#14=EDGE_CURVE('',#6,#4,#13,.T.);
#15=DIRECTION('',(-0.894427191,0.4472135955,0.0));
#16=VECTOR('',#15,0.111803398875);
#17=LINE('',#1,#16);
#18=EDGE_CURVE('',#4,#5,#17,.T.);
#19=ORIENTED_EDGE('',$,$,#10,.T.);
#20=ORIENTED_EDGE('',$,$,#14,.T.);
#21=ORIENTED_EDGE('',$,$,#18,.T.);
#22=EDGE_LOOP('',(#19,#20,#21));
#23=CARTESIAN_POINT('',(0.0,0.0,0.0));
#24=DIRECTION('',(0.0,0.0,1.0));
#25=DIRECTION('',(1.0,0.0,0.0));
#26=AXIS2_PLACEMENT_3D('',#23,#24,#25);
#27=FACE_OUTER_BOUND('',#22,.T.);
#28=PLANE('',#26);
#29=ADVANCED_FACE('',(#27),#28,.T.);
#30=CARTESIAN_POINT('',(0.0,0.05,-0.1));
#31=CARTESIAN_POINT('',(-0.1,0.0,-0.1));
#32=CARTESIAN_POINT('',(0.1,0.0,-0.1));
#33=VERTEX_POINT('',#30);
#34=VERTEX_POINT('',#31);
#35=VERTEX_POINT('',#32);
#36=DIRECTION('',(1.0,0.0,0.0));
#37=VECTOR('',#36,0.2);
#38=LINE('',#31,#37);
#39=EDGE_CURVE('',#34,#35,#38,.T.);
#40=DIRECTION('',(0.894427191,-0.4472135955,0.0));
#41=VECTOR('',#40,0.111803398875);
#42=LINE('',#32,#41);
#43=EDGE_CURVE('',#35,#33,#42,.T.);
#44=DIRECTION('',(-0.894427191,0.4472135955,0.0));
#45=VECTOR('',#44,0.111803398875);
#46=LINE('',#30,#45);
#47=EDGE_CURVE('',#33,#34,#46,.T.);
#48=ORIENTED_EDGE('',$,$,#39,.F.);
#49=ORIENTED_EDGE('',$,$,#43,.F.);
#50=ORIENTED_EDGE('',$,$,#47,.F.);
#51=EDGE_LOOP('',(#48,#49,#50));
#52=CARTESIAN_POINT('',(0.0,0.0,-0.1));
#53=DIRECTION('',(0.0,0.0,-1.0));
#54=DIRECTION('',(1.0,0.0,0.0));
#55=FACE_OUTER_BOUND('',#51,.T.);
#56=AXIS2_PLACEMENT_3D('',#52,#53,#54);
#57=PLANE('',#56);
#58=ADVANCED_FACE('',(#55),#57,.T.);
#59=DIRECTION('',(0.0,0.0,-1.0));
#60=VECTOR('',#59,0.1);
#61=LINE('',#2,#60);
#62=EDGE_CURVE('',#5,#34,#61,.T.);
#63=DIRECTION('',(0.0,0.0,-1.0));
#64=VECTOR('',#63,0.1);
#65=LINE('',#3,#64);
#66=EDGE_CURVE('',#6,#35,#65,.T.);
#67=DIRECTION('',(0.0,0.0,-1.0));
#68=VECTOR('',#67,0.1);
#69=LINE('',#1,#68);
#70=EDGE_CURVE('',#4,#33,#69,.T.);
#71=ORIENTED_EDGE('',$,$,#10,.T.);
#72=ORIENTED_EDGE('',$,$,#66,.T.);
#73=ORIENTED_EDGE('',$,$,#39,.F.);
#74=ORIENTED_EDGE('',$,$,#62,.F.);
#75=EDGE_LOOP('',(#71,#72,#73,#74));
#76=CARTESIAN_POINT('',(-0.1,0.0,0.0));
#77=DIRECTION('',(0.0,-1.0,0.0));
#78=DIRECTION('',(1.0,0.0,0.0));
#79=FACE_OUTER_BOUND('',#75,.T.);
#80=AXIS2_PLACEMENT_3D('',#76,#77,#78);
#81=PLANE('',#80);
#82=ADVANCED_FACE('',(#79),#81,.T.);
#83=ORIENTED_EDGE('',$,$,#14,.T.);
#84=ORIENTED_EDGE('',$,$,#70,.T.);
#85=ORIENTED_EDGE('',$,$,#43,.F.);
#86=ORIENTED_EDGE('',$,$,#66,.F.);
#87=EDGE_LOOP('',(#83,#84,#85,#86));
#88=CARTESIAN_POINT('',(0.1,0.0,0.0));
#89=DIRECTION('',(-0.4472135955,-0.894427191,0.0));
#90=DIRECTION('',(0.894427191,-0.4472135955,0.0));
#91=FACE_OUTER_BOUND('',#87,.T.);
#92=AXIS2_PLACEMENT_3D('',#88,#89,#90);
#93=PLANE('',#92);
#94=ADVANCED_FACE('',(#91),#93,.T.);
#95=ORIENTED_EDGE('',$,$,#18,.T.);
#96=ORIENTED_EDGE('',$,$,#62,.T.);
#97=ORIENTED_EDGE('',$,$,#47,.F.);
#98=ORIENTED_EDGE('',$,$,#70,.F.);
#99=EDGE_LOOP('',(#95,#96,#97,#98));
#100=CARTESIAN_POINT('',(-0.1,0.0,0.0));
#101=DIRECTION('',(-0.4472135955,-0.894427191,0.0));
#102=DIRECTION('',(-0.894427191,0.4472135955,0.0));
#103=FACE_OUTER_BOUND('',#99,.T.);
#104=AXIS2_PLACEMENT_3D('',#100,#101,#102);
#105=PLANE('',#104);
#106=ADVANCED_FACE('',(#103),#105,.T.);
#107=CLOSED_SHELL('',(#29,#58,#82,#94,#106));
#108=MANIFOLD_SOLID_BREP('',#107);
#9050=PRODUCT_CONTEXT('',#9000,'mechanical');
#9051=PRODUCT('Tfa109','Tfa109','',(#9050));
#9052=PRODUCT_DEFINITION_FORMATION('','',#9051);
#9053=PRODUCT_DEFINITION_CONTEXT('part definition',#9000,'design');
#9054=PRODUCT_DEFINITION('','','',#9052,#9053);
#9055=PRODUCT_DEFINITION_SHAPE('','','',#9054);
#9056=(LENGTH_UNIT()NAMED_UNIT(*)SI_UNIT(.MILLI.,.METRE.));
#9057=(NAMED_UNIT(*)PLANE_ANGLE_UNIT()SI_UNIT($,.RADIAN.));
#9058=(NAMED_UNIT(*)SI_UNIT($,.STERADIAN.)SOLID_ANGLE_UNIT());
#9059=UNCERTAINTY_MEASURE_WITH_UNIT(.LENGTH_MEASURE(1.0E-7).,#9056,'distance_accuracy_value','');
#9060=(GEOMETRIC_REPRESENTATION_CONTEXT(3)GLOBAL_UNCERTAINTY_ASSIGNED_CONTEXT((#9059))GLOBAL_UNIT_ASSIGNED_CONTEXT((#9056,#9057,#9058))REPRESENTATION_CONTEXT('','3D'));
#9061=ADVANCED_BREP_SHAPE_REPRESENTATION('',(#108),#9060);
#9062=SHAPE_DEFINITION_REPRESENTATION(#9055,#9061);
ENDSEC;
END-ISO-10303-21;
