ISO-10303-21;
/* Tfa192: OPEN_SHELL: single ADVANCED_FACE on PLANE (1×1); outer boundary: unit square at (0,0)-(1,1); 3 inner pin wires:   pin1 (0.1×0.01) at left edge touching (0, 0.5);   pin2 (0.2×0.005) at bottom edge touching (0.5, 0) [largest pin];   pin3 (0.1×0.002) at right edge touching (1.0, 0.7); CheckPin early-exit on largest pin (pin2), misses pin1 and pin3; defect IS on live traversal path; no orphaned entities */
HEADER;
FILE_DESCRIPTION(('Tfa192'),'2;1');
FILE_NAME('Tfa192.stp','2026-06-17T00:00:00',(''),(''),'cad-research-suite','','');
FILE_SCHEMA(('AUTOMOTIVE_DESIGN { 1 0 10303 214 3 1 1 }'));
ENDSEC;
DATA;
#9000=APPLICATION_CONTEXT('mechanical design');
#1=CARTESIAN_POINT('',(0.0,0.0,0.0));
#2=DIRECTION('',(0.0,0.0,1.0));
#3=DIRECTION('',(1.0,0.0,0.0));
#4=AXIS2_PLACEMENT_3D('',#1,#2,#3);
#5=PLANE('',#4);
#6=CARTESIAN_POINT('',(0.0,0.0,0.0));
#7=CARTESIAN_POINT('',(1.0,0.0,0.0));
#8=CARTESIAN_POINT('',(1.0,1.0,0.0));
#9=CARTESIAN_POINT('',(0.0,1.0,0.0));
#10=VERTEX_POINT('',#6);
#11=VERTEX_POINT('',#7);
#12=VERTEX_POINT('',#8);
#13=VERTEX_POINT('',#9);
#14=DIRECTION('',(1.0,0.0,0.0));
#15=VECTOR('',#14,1.0);
#16=LINE('',#6,#15);
#17=EDGE_CURVE('',#10,#11,#16,.T.);
#18=DIRECTION('',(0.0,1.0,0.0));
#19=VECTOR('',#18,1.0);
#20=LINE('',#7,#19);
#21=EDGE_CURVE('',#11,#12,#20,.T.);
#22=DIRECTION('',(-1.0,0.0,0.0));
#23=VECTOR('',#22,1.0);
#24=LINE('',#8,#23);
#25=EDGE_CURVE('',#12,#13,#24,.T.);
#26=DIRECTION('',(0.0,-1.0,0.0));
#27=VECTOR('',#26,1.0);
#28=LINE('',#9,#27);
#29=EDGE_CURVE('',#13,#10,#28,.T.);
#30=ORIENTED_EDGE('',$,$,#17,.T.);
#31=ORIENTED_EDGE('',$,$,#21,.T.);
#32=ORIENTED_EDGE('',$,$,#25,.T.);
#33=ORIENTED_EDGE('',$,$,#29,.T.);
#34=EDGE_LOOP('',(#30,#31,#32,#33));
#35=FACE_OUTER_BOUND('',#34,.T.);
#36=CARTESIAN_POINT('',(0.0,0.495,0.0));
#37=CARTESIAN_POINT('',(0.0,0.505,0.0));
#38=CARTESIAN_POINT('',(0.1,0.505,0.0));
#39=CARTESIAN_POINT('',(0.1,0.495,0.0));
#40=VERTEX_POINT('',#36);
#41=VERTEX_POINT('',#37);
#42=VERTEX_POINT('',#38);
#43=VERTEX_POINT('',#39);
#44=DIRECTION('',(1.0,0.0,0.0));
#45=VECTOR('',#44,0.1);
#46=LINE('',#36,#45);
#47=EDGE_CURVE('',#40,#43,#46,.T.);
#48=DIRECTION('',(0.0,1.0,0.0));
#49=VECTOR('',#48,0.01);
#50=LINE('',#39,#49);
#51=EDGE_CURVE('',#43,#42,#50,.T.);
#52=DIRECTION('',(-1.0,0.0,0.0));
#53=VECTOR('',#52,0.1);
#54=LINE('',#38,#53);
#55=EDGE_CURVE('',#42,#41,#54,.T.);
#56=DIRECTION('',(0.0,-1.0,0.0));
#57=VECTOR('',#56,0.01);
#58=LINE('',#37,#57);
#59=EDGE_CURVE('',#41,#40,#58,.T.);
#60=ORIENTED_EDGE('',$,$,#47,.T.);
#61=ORIENTED_EDGE('',$,$,#51,.T.);
#62=ORIENTED_EDGE('',$,$,#55,.T.);
#63=ORIENTED_EDGE('',$,$,#59,.T.);
#64=EDGE_LOOP('',(#60,#61,#62,#63));
#65=FACE_BOUND('',#64,.F.);
#66=CARTESIAN_POINT('',(0.45,0.0,0.0));
#67=CARTESIAN_POINT('',(0.65,0.0,0.0));
#68=CARTESIAN_POINT('',(0.65,0.005,0.0));
#69=CARTESIAN_POINT('',(0.45,0.005,0.0));
#70=VERTEX_POINT('',#66);
#71=VERTEX_POINT('',#67);
#72=VERTEX_POINT('',#68);
#73=VERTEX_POINT('',#69);
#74=DIRECTION('',(1.0,0.0,0.0));
#75=VECTOR('',#74,0.2);
#76=LINE('',#66,#75);
#77=EDGE_CURVE('',#70,#71,#76,.T.);
#78=DIRECTION('',(0.0,1.0,0.0));
#79=VECTOR('',#78,0.005);
#80=LINE('',#67,#79);
#81=EDGE_CURVE('',#71,#72,#80,.T.);
#82=DIRECTION('',(-1.0,0.0,0.0));
#83=VECTOR('',#82,0.2);
#84=LINE('',#68,#83);
#85=EDGE_CURVE('',#72,#73,#84,.T.);
#86=DIRECTION('',(0.0,-1.0,0.0));
#87=VECTOR('',#86,0.005);
#88=LINE('',#69,#87);
#89=EDGE_CURVE('',#73,#70,#88,.T.);
#90=ORIENTED_EDGE('',$,$,#77,.T.);
#91=ORIENTED_EDGE('',$,$,#81,.T.);
#92=ORIENTED_EDGE('',$,$,#85,.T.);
#93=ORIENTED_EDGE('',$,$,#89,.T.);
#94=EDGE_LOOP('',(#90,#91,#92,#93));
#95=FACE_BOUND('',#94,.F.);
#96=CARTESIAN_POINT('',(1.0,0.699,0.0));
#97=CARTESIAN_POINT('',(1.0,0.701,0.0));
#98=CARTESIAN_POINT('',(0.9,0.701,0.0));
#99=CARTESIAN_POINT('',(0.9,0.699,0.0));
#100=VERTEX_POINT('',#96);
#101=VERTEX_POINT('',#97);
#102=VERTEX_POINT('',#98);
#103=VERTEX_POINT('',#99);
#104=DIRECTION('',(-1.0,0.0,0.0));
#105=VECTOR('',#104,0.1);
#106=LINE('',#96,#105);
#107=EDGE_CURVE('',#100,#103,#106,.T.);
#108=DIRECTION('',(0.0,1.0,0.0));
#109=VECTOR('',#108,0.002);
#110=LINE('',#99,#109);
#111=EDGE_CURVE('',#103,#102,#110,.T.);
#112=DIRECTION('',(1.0,0.0,0.0));
#113=VECTOR('',#112,0.1);
#114=LINE('',#98,#113);
#115=EDGE_CURVE('',#102,#101,#114,.T.);
#116=DIRECTION('',(0.0,-1.0,0.0));
#117=VECTOR('',#116,0.002);
#118=LINE('',#97,#117);
#119=EDGE_CURVE('',#101,#100,#118,.T.);
#120=ORIENTED_EDGE('',$,$,#107,.T.);
#121=ORIENTED_EDGE('',$,$,#111,.T.);
#122=ORIENTED_EDGE('',$,$,#115,.T.);
#123=ORIENTED_EDGE('',$,$,#119,.T.);
#124=EDGE_LOOP('',(#120,#121,#122,#123));
#125=FACE_BOUND('',#124,.F.);
#126=ADVANCED_FACE('',(#35,#65,#95,#125),#5,.T.);
#127=OPEN_SHELL('',(#126));
#128=SHELL_BASED_SURFACE_MODEL('',(#127));
#9050=PRODUCT_CONTEXT('',#9000,'mechanical');
#9051=PRODUCT('Tfa192','Tfa192','',(#9050));
#9052=PRODUCT_DEFINITION_FORMATION('','',#9051);
#9053=PRODUCT_DEFINITION_CONTEXT('part definition',#9000,'design');
#9054=PRODUCT_DEFINITION('','','',#9052,#9053);
#9055=PRODUCT_DEFINITION_SHAPE('','','',#9054);
#9056=(LENGTH_UNIT()NAMED_UNIT(*)SI_UNIT(.MILLI.,.METRE.));
#9057=(NAMED_UNIT(*)PLANE_ANGLE_UNIT()SI_UNIT($,.RADIAN.));
#9058=(NAMED_UNIT(*)SI_UNIT($,.STERADIAN.)SOLID_ANGLE_UNIT());
#9059=UNCERTAINTY_MEASURE_WITH_UNIT(.LENGTH_MEASURE(1.0E-7).,#9056,'distance_accuracy_value','');
#9060=(GEOMETRIC_REPRESENTATION_CONTEXT(3)GLOBAL_UNCERTAINTY_ASSIGNED_CONTEXT((#9059))GLOBAL_UNIT_ASSIGNED_CONTEXT((#9056,#9057,#9058))REPRESENTATION_CONTEXT('','3D'));
#9061=MANIFOLD_SURFACE_SHAPE_REPRESENTATION('',(#128),#9060);
#9062=SHAPE_DEFINITION_REPRESENTATION(#9055,#9061);
ENDSEC;
END-ISO-10303-21;
