ISO-10303-21;
/* Tfa187: CheckPin on cone-like surface with filleted apex */
HEADER;
FILE_DESCRIPTION(('Tfa187'),'2;1');
FILE_NAME('Tfa187.stp','2026-06-17T00:00:00',(''),(''),'cad-research-suite','','');
FILE_SCHEMA(('AUTOMOTIVE_DESIGN { 1 0 10303 214 3 1 1 }'));
ENDSEC;
DATA;
#9000=APPLICATION_CONTEXT('mechanical design');
#1=CARTESIAN_POINT('',(0.2,0.2,10.0));
#2=CARTESIAN_POINT('',(0.18,0.18,10.0));
#3=CARTESIAN_POINT('',(0.2,0.2,10.0));
#4=CARTESIAN_POINT('',(0.18,0.18,10.0));
#5=CARTESIAN_POINT('',(2.0,0.0,5.0));
#6=CARTESIAN_POINT('',(-7.34641020669E-06,1.99999999999,5.0));
#7=CARTESIAN_POINT('',(-1.99999999995,-1.46928204133E-05,5.0));
#8=CARTESIAN_POINT('',(2.20392306192E-05,-1.99999999988,5.0));
#9=CARTESIAN_POINT('',(5.0,0.0,0.0));
#10=CARTESIAN_POINT('',(-1.83660255167E-05,4.99999999997,0.0));
#11=CARTESIAN_POINT('',(-4.99999999987,-3.67320510332E-05,0.0));
#12=CARTESIAN_POINT('',(5.50980765481E-05,-4.9999999997,0.0));
#13=B_SPLINE_SURFACE_WITH_KNOTS('',2,3,((#1,#2,#3,#4),(#5,#6,#7,#8),(#9,#10,#11,#12)),.UNSPECIFIED.,.F.,.F.,.F.,(0,0),(0.0,0.5,1.0),(3,3),(0,0),(0.0,0.333,0.667,1.0),(4,4),.UNIFORM.);
#14=CARTESIAN_POINT('',(0.2,0.2,10.0));
#15=CARTESIAN_POINT('',(5.0,0.0,0.0));
#16=CARTESIAN_POINT('',(0.0,5.0,0.0));
#17=CARTESIAN_POINT('',(0.2,-0.2,10.0));
#18=VERTEX_POINT('',#14);
#19=VERTEX_POINT('',#15);
#20=VERTEX_POINT('',#16);
#21=VERTEX_POINT('',#17);
#22=DIRECTION('',(0.43266074483,-0.0180275310346,-0.90137655173));
#23=VECTOR('',#22,11.0941425987);
#24=LINE('',#14,#23);
#25=EDGE_CURVE('',#18,#19,#24,.T.);
#26=ORIENTED_EDGE('',$,$,#25,.T.);
#27=DIRECTION('',(-0.707106781187,0.707106781187,0.0));
#28=VECTOR('',#27,7.07106781187);
#29=LINE('',#15,#28);
#30=EDGE_CURVE('',#19,#20,#29,.T.);
#31=ORIENTED_EDGE('',$,$,#30,.T.);
#32=DIRECTION('',(0.0177415431804,-0.461280122691,0.887077159021));
#33=VECTOR('',#32,11.2729765368);
#34=LINE('',#16,#33);
#35=EDGE_CURVE('',#20,#21,#34,.T.);
#36=ORIENTED_EDGE('',$,$,#35,.T.);
#37=DIRECTION('',(0.0,1.0,0.0));
#38=VECTOR('',#37,0.4);
#39=LINE('',#17,#38);
#40=EDGE_CURVE('',#21,#18,#39,.T.);
#41=ORIENTED_EDGE('',$,$,#40,.T.);
#42=EDGE_LOOP('',(#26,#31,#36,#41));
#43=FACE_OUTER_BOUND('',#42,.T.);
#44=ADVANCED_FACE('',(#43),#13,.T.);
#45=OPEN_SHELL('',(#44));
#46=SHELL_BASED_SURFACE_MODEL('',(#45));
#9050=PRODUCT_CONTEXT('',#9000,'mechanical');
#9051=PRODUCT('Tfa187','Tfa187','',(#9050));
#9052=PRODUCT_DEFINITION_FORMATION('','',#9051);
#9053=PRODUCT_DEFINITION_CONTEXT('part definition',#9000,'design');
#9054=PRODUCT_DEFINITION('','','',#9052,#9053);
#9055=PRODUCT_DEFINITION_SHAPE('','','',#9054);
#9056=(LENGTH_UNIT()NAMED_UNIT(*)SI_UNIT(.MILLI.,.METRE.));
#9057=(NAMED_UNIT(*)PLANE_ANGLE_UNIT()SI_UNIT($,.RADIAN.));
#9058=(NAMED_UNIT(*)SI_UNIT($,.STERADIAN.)SOLID_ANGLE_UNIT());
#9059=UNCERTAINTY_MEASURE_WITH_UNIT(LENGTH_MEASURE(1.0E-7),#9056,'distance_accuracy_value','');
#9060=(GEOMETRIC_REPRESENTATION_CONTEXT(3)GLOBAL_UNCERTAINTY_ASSIGNED_CONTEXT((#9059))GLOBAL_UNIT_ASSIGNED_CONTEXT((#9056,#9057,#9058))REPRESENTATION_CONTEXT('','3D'));
#9061=MANIFOLD_SURFACE_SHAPE_REPRESENTATION('',(#46),#9060);
#9062=SHAPE_DEFINITION_REPRESENTATION(#9055,#9061);
ENDSEC;
END-ISO-10303-21;
