ISO-10303-21;
/* Tfa103: CLOSED_SHELL: CONICAL_SURFACE with apex at v_min (v=0, z=0 origin); 5-vertex outer wire encircles the cone at v=5.0 (z=5 height); ShapeFix_Face::FixPeriodicDegenerated inserts degenerate edge only at v_max; apex at v_min is not handled — degenerate edge at apex missing; defect IS on live CLOSED_SHELL traversal path */
HEADER;
FILE_DESCRIPTION(('Tfa103'),'2;1');
FILE_NAME('Tfa103.stp','2026-06-17T00:00:00',(''),(''),'cad-research-suite','','');
FILE_SCHEMA(('AUTOMOTIVE_DESIGN { 1 0 10303 214 3 1 1 }'));
ENDSEC;
DATA;
#9000=APPLICATION_CONTEXT('mechanical design');
#1=CARTESIAN_POINT('',(0.0,0.0,0.0));
#2=DIRECTION('',(0.0,0.0,1.0));
#3=DIRECTION('',(1.0,0.0,0.0));
#4=AXIS2_PLACEMENT_3D('',#1,#2,#3);
#5=CONICAL_SURFACE('',#4,0.0,0.523598775598);
#6=CARTESIAN_POINT('',(2.88675134595,0.0,5.0));
#7=VERTEX_POINT('',#6);
#8=CARTESIAN_POINT('',(0.892055224433,2.74546367849,5.0));
#9=VERTEX_POINT('',#8);
#10=CARTESIAN_POINT('',(-2.33543089741,1.69678986818,5.0));
#11=VERTEX_POINT('',#10);
#12=CARTESIAN_POINT('',(-2.33543089741,-1.69678986818,5.0));
#13=VERTEX_POINT('',#12);
#14=CARTESIAN_POINT('',(0.892055224433,-2.74546367849,5.0));
#15=VERTEX_POINT('',#14);
#16=DIRECTION('',(-0.587785252292,0.809016994375,0.0));
#17=VECTOR('',#16,3.39357973637);
#18=LINE('',#6,#17);
#19=EDGE_CURVE('',#7,#9,#18,.T.);
#20=DIRECTION('',(-0.951056516295,-0.309016994375,0.0));
#21=VECTOR('',#20,3.39357973637);
#22=LINE('',#8,#21);
#23=EDGE_CURVE('',#9,#11,#22,.T.);
#24=DIRECTION('',(0.0,-1.0,0.0));
#25=VECTOR('',#24,3.39357973637);
#26=LINE('',#10,#25);
#27=EDGE_CURVE('',#11,#13,#26,.T.);
#28=DIRECTION('',(0.951056516295,-0.309016994375,0.0));
#29=VECTOR('',#28,3.39357973637);
#30=LINE('',#12,#29);
#31=EDGE_CURVE('',#13,#15,#30,.T.);
#32=DIRECTION('',(0.587785252292,0.809016994375,0.0));
#33=VECTOR('',#32,3.39357973637);
#34=LINE('',#14,#33);
#35=EDGE_CURVE('',#15,#7,#34,.T.);
#36=ORIENTED_EDGE('',$,$,#19,.T.);
#37=ORIENTED_EDGE('',$,$,#23,.T.);
#38=ORIENTED_EDGE('',$,$,#27,.T.);
#39=ORIENTED_EDGE('',$,$,#31,.T.);
#40=ORIENTED_EDGE('',$,$,#35,.T.);
#41=EDGE_LOOP('',(#36,#37,#38,#39,#40));
#42=FACE_OUTER_BOUND('',#41,.T.);
#43=ADVANCED_FACE('',(#42),#5,.T.);
#44=CARTESIAN_POINT('',(2.88675134595,0.0,5.0));
#45=VERTEX_POINT('',#44);
#46=CARTESIAN_POINT('',(0.892055224433,2.74546367849,5.0));
#47=VERTEX_POINT('',#46);
#48=CARTESIAN_POINT('',(-2.33543089741,1.69678986818,5.0));
#49=VERTEX_POINT('',#48);
#50=CARTESIAN_POINT('',(-2.33543089741,-1.69678986818,5.0));
#51=VERTEX_POINT('',#50);
#52=CARTESIAN_POINT('',(0.892055224433,-2.74546367849,5.0));
#53=VERTEX_POINT('',#52);
#54=DIRECTION('',(-0.587785252292,0.809016994375,0.0));
#55=VECTOR('',#54,3.39357973637);
#56=LINE('',#44,#55);
#57=EDGE_CURVE('',#45,#47,#56,.T.);
#58=DIRECTION('',(-0.951056516295,-0.309016994375,0.0));
#59=VECTOR('',#58,3.39357973637);
#60=LINE('',#46,#59);
#61=EDGE_CURVE('',#47,#49,#60,.T.);
#62=DIRECTION('',(0.0,-1.0,0.0));
#63=VECTOR('',#62,3.39357973637);
#64=LINE('',#48,#63);
#65=EDGE_CURVE('',#49,#51,#64,.T.);
#66=DIRECTION('',(0.951056516295,-0.309016994375,0.0));
#67=VECTOR('',#66,3.39357973637);
#68=LINE('',#50,#67);
#69=EDGE_CURVE('',#51,#53,#68,.T.);
#70=DIRECTION('',(0.587785252292,0.809016994375,0.0));
#71=VECTOR('',#70,3.39357973637);
#72=LINE('',#52,#71);
#73=EDGE_CURVE('',#53,#45,#72,.T.);
#74=ORIENTED_EDGE('',$,$,#73,.F.);
#75=ORIENTED_EDGE('',$,$,#69,.F.);
#76=ORIENTED_EDGE('',$,$,#65,.F.);
#77=ORIENTED_EDGE('',$,$,#61,.F.);
#78=ORIENTED_EDGE('',$,$,#57,.F.);
#79=EDGE_LOOP('',(#74,#75,#76,#77,#78));
#80=CARTESIAN_POINT('',(0.0,0.0,5.0));
#81=DIRECTION('',(0.0,0.0,1.0));
#82=DIRECTION('',(1.0,0.0,0.0));
#83=AXIS2_PLACEMENT_3D('',#80,#81,#82);
#84=FACE_OUTER_BOUND('',#79,.T.);
#85=PLANE('',#83);
#86=ADVANCED_FACE('',(#84),#85,.T.);
#87=CLOSED_SHELL('',(#43,#86));
#88=MANIFOLD_SOLID_BREP('',#87);
#9050=PRODUCT_CONTEXT('',#9000,'mechanical');
#9051=PRODUCT('Tfa103','Tfa103','',(#9050));
#9052=PRODUCT_DEFINITION_FORMATION('','',#9051);
#9053=PRODUCT_DEFINITION_CONTEXT('part definition',#9000,'design');
#9054=PRODUCT_DEFINITION('','','',#9052,#9053);
#9055=PRODUCT_DEFINITION_SHAPE('','','',#9054);
#9056=(LENGTH_UNIT()NAMED_UNIT(*)SI_UNIT(.MILLI.,.METRE.));
#9057=(NAMED_UNIT(*)PLANE_ANGLE_UNIT()SI_UNIT($,.RADIAN.));
#9058=(NAMED_UNIT(*)SI_UNIT($,.STERADIAN.)SOLID_ANGLE_UNIT());
#9059=UNCERTAINTY_MEASURE_WITH_UNIT(LENGTH_MEASURE(1.0E-7),#9056,'distance_accuracy_value','');
#9060=(GEOMETRIC_REPRESENTATION_CONTEXT(3)GLOBAL_UNCERTAINTY_ASSIGNED_CONTEXT((#9059))GLOBAL_UNIT_ASSIGNED_CONTEXT((#9056,#9057,#9058))REPRESENTATION_CONTEXT('','3D'));
#9061=ADVANCED_BREP_SHAPE_REPRESENTATION('',(#88),#9060);
#9062=SHAPE_DEFINITION_REPRESENTATION(#9055,#9061);
ENDSEC;
END-ISO-10303-21;
