ISO-10303-21;
/* Tfa207: CLOSED_SHELL: single ADVANCED_FACE on TOROIDAL_SURFACE; major_radius=3.0, minor_radius=1.0; outer wire: u-equator circle (full revolution at v=0); inner wire 1: small rectangle near u=pi/4 (well inside u-period); inner wire 2: small rectangle straddling u=0/2pi seam boundary; FixOrientation PeriodicBoundingBoxShift lines 1295-1310: AdjustByPeriod() shifts seam-straddling wire bbox into outer-wire range; without periodic shift: wire 2 bbox outside outer wire → false non-containment; defect IS on live traversal path; no orphaned entities */
HEADER;
FILE_DESCRIPTION(('Tfa207'),'2;1');
FILE_NAME('Tfa207.stp','2026-06-17T00:00:00',(''),(''),'cad-research-suite','','');
FILE_SCHEMA(('AUTOMOTIVE_DESIGN { 1 0 10303 214 3 1 1 }'));
ENDSEC;
DATA;
#9000=APPLICATION_CONTEXT('mechanical design');
#1=CARTESIAN_POINT('',(0.0,0.0,0.0));
#2=DIRECTION('',(0.0,0.0,1.0));
#3=DIRECTION('',(1.0,0.0,0.0));
#4=AXIS2_PLACEMENT_3D('',#1,#2,#3);
#5=TOROIDAL_SURFACE('',#4,3.0,1.0);
#6=CARTESIAN_POINT('',(4.0,0.0,0.0));
#7=VERTEX_POINT('',#6);
#8=CARTESIAN_POINT('',(0.0,0.0,0.0));
#9=DIRECTION('',(0.0,0.0,1.0));
#10=DIRECTION('',(1.0,0.0,0.0));
#11=AXIS2_PLACEMENT_3D('',#8,#9,#10);
#12=CIRCLE('',#11,4.0);
#13=EDGE_CURVE('',#7,#7,#12,.T.);
#14=ORIENTED_EDGE('',$,$,#13,.T.);
#15=EDGE_LOOP('',(#14));
#16=FACE_OUTER_BOUND('',#15,.T.);
#17=CARTESIAN_POINT('',(2.92183590083,2.38897720895,0.632981306677));
#18=VERTEX_POINT('',#17);
#19=CARTESIAN_POINT('',(2.38897720895,2.92183590083,0.632981306677));
#20=VERTEX_POINT('',#19);
#21=CARTESIAN_POINT('',(2.29960925463,2.81253452435,0.774167078477));
#22=VERTEX_POINT('',#21);
#23=CARTESIAN_POINT('',(2.81253452435,2.29960925463,0.774167078477));
#24=VERTEX_POINT('',#23);
#25=DIRECTION('',(-0.707106781187,0.707106781187,0.0));
#26=CARTESIAN_POINT('',(2.92183590083,2.38897720895,0.632981306677));
#27=VECTOR('',#25,0.753575988881);
#28=LINE('',#26,#27);
#29=EDGE_CURVE('',#18,#20,#28,.T.);
#30=DIRECTION('',(-0.447585374316,-0.547418790962,0.707106781187));
#31=CARTESIAN_POINT('',(2.38897720895,2.92183590083,0.632981306677));
#32=VECTOR('',#30,0.199666833294);
#33=LINE('',#31,#32);
#34=EDGE_CURVE('',#20,#22,#33,.T.);
#35=DIRECTION('',(0.707106781187,-0.707106781187,0.0));
#36=CARTESIAN_POINT('',(2.29960925463,2.81253452435,0.774167078477));
#37=VECTOR('',#35,0.725385872919);
#38=LINE('',#36,#37);
#39=EDGE_CURVE('',#22,#24,#38,.T.);
#40=DIRECTION('',(0.547418790962,0.447585374316,-0.707106781187));
#41=CARTESIAN_POINT('',(2.81253452435,2.29960925463,0.774167078477));
#42=VECTOR('',#40,0.199666833294);
#43=LINE('',#41,#42);
#44=EDGE_CURVE('',#24,#18,#43,.T.);
#45=ORIENTED_EDGE('',$,$,#29,.T.);
#46=ORIENTED_EDGE('',$,$,#34,.T.);
#47=ORIENTED_EDGE('',$,$,#39,.T.);
#48=ORIENTED_EDGE('',$,$,#44,.T.);
#49=EDGE_LOOP('',(#45,#46,#47,#48));
#50=FACE_BOUND('',#49,.F.);
#51=CARTESIAN_POINT('',(3.97504578475,-0.398834915338,0.0998334166468));
#52=VERTEX_POINT('',#51);
#53=CARTESIAN_POINT('',(3.97504578475,0.398834915338,0.0998334166468));
#54=VERTEX_POINT('',#53);
#55=CARTESIAN_POINT('',(3.96018282304,0.397343644948,0.198669330795));
#56=VERTEX_POINT('',#55);
#57=CARTESIAN_POINT('',(3.96018282304,-0.397343644948,0.198669330795));
#58=VERTEX_POINT('',#57);
#59=DIRECTION('',(0.0,1.0,0.0));
#60=CARTESIAN_POINT('',(3.97504578475,-0.398834915338,0.0998334166468));
#61=VECTOR('',#59,0.797669830676);
#62=LINE('',#60,#61);
#63=EDGE_CURVE('',#52,#54,#62,.T.);
#64=DIRECTION('',(-0.148691564263,-0.0149189193422,0.988771077936));
#65=CARTESIAN_POINT('',(3.97504578475,0.398834915338,0.0998334166468));
#66=VECTOR('',#64,0.0999583385414);
#67=LINE('',#65,#66);
#68=EDGE_CURVE('',#54,#56,#67,.T.);
#69=DIRECTION('',(0.0,-1.0,0.0));
#70=CARTESIAN_POINT('',(3.96018282304,0.397343644948,0.198669330795));
#71=VECTOR('',#69,0.794687289895);
#72=LINE('',#70,#71);
#73=EDGE_CURVE('',#56,#58,#72,.T.);
#74=DIRECTION('',(0.148691564263,-0.0149189193422,-0.988771077936));
#75=CARTESIAN_POINT('',(3.96018282304,-0.397343644948,0.198669330795));
#76=VECTOR('',#74,0.0999583385414);
#77=LINE('',#75,#76);
#78=EDGE_CURVE('',#58,#52,#77,.T.);
#79=ORIENTED_EDGE('',$,$,#63,.T.);
#80=ORIENTED_EDGE('',$,$,#68,.T.);
#81=ORIENTED_EDGE('',$,$,#73,.T.);
#82=ORIENTED_EDGE('',$,$,#78,.T.);
#83=EDGE_LOOP('',(#79,#80,#81,#82));
#84=FACE_BOUND('',#83,.F.);
#85=ADVANCED_FACE('',(#16,#50,#84),#5,.T.);
#86=CLOSED_SHELL('',(#85));
#87=MANIFOLD_SOLID_BREP('',#86);
#9050=PRODUCT_CONTEXT('',#9000,'mechanical');
#9051=PRODUCT('Tfa207','Tfa207','',(#9050));
#9052=PRODUCT_DEFINITION_FORMATION('','',#9051);
#9053=PRODUCT_DEFINITION_CONTEXT('part definition',#9000,'design');
#9054=PRODUCT_DEFINITION('','','',#9052,#9053);
#9055=PRODUCT_DEFINITION_SHAPE('','','',#9054);
#9056=(LENGTH_UNIT()NAMED_UNIT(*)SI_UNIT(.MILLI.,.METRE.));
#9057=(NAMED_UNIT(*)PLANE_ANGLE_UNIT()SI_UNIT($,.RADIAN.));
#9058=(NAMED_UNIT(*)SI_UNIT($,.STERADIAN.)SOLID_ANGLE_UNIT());
#9059=UNCERTAINTY_MEASURE_WITH_UNIT(LENGTH_MEASURE(1.0E-7),#9056,'distance_accuracy_value','');
#9060=(GEOMETRIC_REPRESENTATION_CONTEXT(3)GLOBAL_UNCERTAINTY_ASSIGNED_CONTEXT((#9059))GLOBAL_UNIT_ASSIGNED_CONTEXT((#9056,#9057,#9058))REPRESENTATION_CONTEXT('','3D'));
#9061=ADVANCED_BREP_SHAPE_REPRESENTATION('',(#87),#9060);
#9062=SHAPE_DEFINITION_REPRESENTATION(#9055,#9061);
ENDSEC;
END-ISO-10303-21;
