ISO-10303-21;
HEADER;
FILE_DESCRIPTION(('CAD fixture: FixSmallAreaWire undersized perimeter degenerate loop'),
  '2026-06-16T12:00:00',
  2,
  (),
  (),
  'neutral file',
  'CAD System',
  '',
  ());
FILE_NAME('Tfa208.stp',
  2026-06-16T12:00:00,
  (''),
  (''),
  'neutral file format',
  'CAD System v1',
  '');
FILE_SCHEMA(('AUTOMOTIVE_DESIGN { 1 0 10303 214 3 1 1 }'));
ENDSEC;
DATA;
#1=SECURITY_CLASSIFICATION('','',$);
#10=PARAMETRIC_REPRESENTATION_CONTEXT('','3D parametric space');
#11=AXIS2_PLACEMENT_3D('origin',#20,#21,#22);
#20=CARTESIAN_POINT('',0.0,0.0,0.0);
#21=DIRECTION('',0.0,0.0,1.0);
#22=DIRECTION('',1.0,0.0,0.0);
#30=PLANE('plane',#11);
#40=LINE('outer_1',#41,#42);
#41=CARTESIAN_POINT('',0.0,0.0,0.0);
#42=VECTOR('',#43,1.0);
#43=DIRECTION('',10.0,0.0,0.0);
#50=LINE('outer_2',#51,#52);
#51=CARTESIAN_POINT('',10.0,0.0,0.0);
#52=VECTOR('',#53,1.0);
#53=DIRECTION('',0.0,10.0,0.0);
#60=LINE('outer_3',#61,#62);
#61=CARTESIAN_POINT('',10.0,10.0,0.0);
#62=VECTOR('',#63,1.0);
#63=DIRECTION('',−10.0,0.0,0.0);
#70=LINE('outer_4',#71,#72);
#71=CARTESIAN_POINT('',0.0,10.0,0.0);
#72=VECTOR('',#73,1.0);
#73=DIRECTION('',0.0,−10.0,0.0);
#80=LINE('tiny_1',#81,#82);
#81=CARTESIAN_POINT('',5.0,5.0,0.0);
#82=VECTOR('',#83,1.0);
#83=DIRECTION('',0.0001,0.0,0.0);
#90=LINE('tiny_2',#91,#92);
#91=CARTESIAN_POINT('',5.0001,5.0,0.0);
#92=VECTOR('',#93,1.0);
#93=DIRECTION('',0.0,0.0001,0.0);
#100=LINE('tiny_3',#101,#102);
#101=CARTESIAN_POINT('',5.0001,5.0001,0.0);
#102=VECTOR('',#103,1.0);
#103=DIRECTION('',−0.0001,0.0,0.0);
#110=LINE('tiny_4',#111,#112);
#111=CARTESIAN_POINT('',5.0,5.0001,0.0);
#112=VECTOR('',#113,1.0);
#113=DIRECTION('',0.0,−0.0001,0.0);
#200=VERTEX_POINT('v_outer_1',#201);
#201=CARTESIAN_POINT('',0.0,0.0,0.0);
#210=VERTEX_POINT('v_outer_2',#211);
#211=CARTESIAN_POINT('',10.0,0.0,0.0);
#220=VERTEX_POINT('v_outer_3',#221);
#221=CARTESIAN_POINT('',10.0,10.0,0.0);
#230=VERTEX_POINT('v_outer_4',#231);
#231=CARTESIAN_POINT('',0.0,10.0,0.0);
#240=VERTEX_POINT('v_tiny_1',#241);
#241=CARTESIAN_POINT('',5.0,5.0,0.0);
#250=VERTEX_POINT('v_tiny_2',#251);
#251=CARTESIAN_POINT('',5.0001,5.0,0.0);
#260=VERTEX_POINT('v_tiny_3',#261);
#261=CARTESIAN_POINT('',5.0001,5.0001,0.0);
#270=VERTEX_POINT('v_tiny_4',#271);
#271=CARTESIAN_POINT('',5.0,5.0001,0.0);
#300=EDGE_CURVE('outer_e1',#200,#210,#40,.T.);
#310=EDGE_CURVE('outer_e2',#210,#220,#50,.T.);
#320=EDGE_CURVE('outer_e3',#220,#230,#60,.T.);
#330=EDGE_CURVE('outer_e4',#230,#200,#70,.T.);
#340=EDGE_CURVE('tiny_e1',#240,#250,#80,.T.);
#350=EDGE_CURVE('tiny_e2',#250,#260,#90,.T.);
#360=EDGE_CURVE('tiny_e3',#260,#270,#100,.T.);
#370=EDGE_CURVE('tiny_e4',#270,#240,#110,.T.);
#400=ORIENTED_EDGE('oe1',*,*,#300,.T.);
#410=ORIENTED_EDGE('oe2',*,*,#310,.T.);
#420=ORIENTED_EDGE('oe3',*,*,#320,.T.);
#430=ORIENTED_EDGE('oe4',*,*,#330,.T.);
#440=ORIENTED_EDGE('te1',*,*,#340,.T.);
#450=ORIENTED_EDGE('te2',*,*,#350,.T.);
#460=ORIENTED_EDGE('te3',*,*,#360,.T.);
#470=ORIENTED_EDGE('te4',*,*,#370,.T.);
#500=EDGE_LOOP('outer_loop',(#400,#410,#420,#430));
#510=EDGE_LOOP('tiny_loop',(#440,#450,#460,#470));
#520=FACE_OUTER_BOUND('outer_bound',#500,.T.);
#530=FACE_BOUND('inner_tiny',#510,.F.);
#540=ADVANCED_FACE('planar_face',(#520,#530),#30,.F.);
#9000=PRODUCT_CONTEXT('',#1,'mechanical');
#9001=PRODUCT('Tfa208','Tfa208','',(#9000));
#9002=PRODUCT_DEFINITION_FORMATION('','',#9001);
#9003=PRODUCT_DEFINITION_CONTEXT('part definition',#1,'design');
#9004=PRODUCT_DEFINITION('','',#9002,#9003);
#9005=PRODUCT_DEFINITION_SHAPE('','',#9004);
#9006=(LENGTH_UNIT()NAMED_UNIT(*)SI_UNIT(.MILLI.,.METRE.));
#9007=(NAMED_UNIT(*)PLANE_ANGLE_UNIT()SI_UNIT($,.RADIAN.));
#9008=(NAMED_UNIT(*)SI_UNIT($,.STERADIAN.)SOLID_ANGLE_UNIT());
#9009=UNCERTAINTY_MEASURE_WITH_UNIT(LENGTH_MEASURE(1.0E-7),#9006,'distance_accuracy_value','');
#9010=(GEOMETRIC_REPRESENTATION_CONTEXT(3)GLOBAL_UNCERTAINTY_ASSIGNED_CONTEXT((#9009))GLOBAL_UNIT_ASSIGNED_CONTEXT((#9006,#9007,#9008))REPRESENTATION_CONTEXT('','3D'));
#9021=SHELL_BASED_SURFACE_MODEL('sbsm',(#9020));
#9020=CLOSED_SHELL('outer_shell',(#540));
#9022=MANIFOLD_SURFACE_SHAPE_REPRESENTATION('',(#9021),#9010);
#9023=SHAPE_DEFINITION_REPRESENTATION(#9005,#9022);
ENDSEC;
END-ISO-10303-21;
