ISO-10303-21;
/* Tfa241: CLOSED_SHELL: face[0] TOROIDAL_SURFACE with two wires (outer + inner); outer FACE_OUTER_BOUND: large parametric ring near (u≈π, v≈π); inner FACE_BOUND: concentric smaller ring; ShapeFix_Face::FixOrientation bounding-box computation: inner wire box not anchored to first-wire uMiddle/vMiddle; periodic shift makes inner box appear disjoint → false containment; face[1]: flat PLANE cap; defect IS on live traversal path; no orphans */
HEADER;
FILE_DESCRIPTION(('Tfa241'),'2;1');
FILE_NAME('Tfa241.stp','2026-06-17T00:00:00',(''),(''),'cad-research-suite','','');
FILE_SCHEMA(('AUTOMOTIVE_DESIGN { 1 0 10303 214 3 1 1 }'));
ENDSEC;
DATA;
#9000=APPLICATION_CONTEXT('mechanical design');
#1=CARTESIAN_POINT('',(0.0,0.0,0.0));
#2=DIRECTION('',(0.0,0.0,1.0));
#3=DIRECTION('',(1.0,0.0,0.0));
#4=AXIS2_PLACEMENT_3D('',#1,#2,#3);
#5=TOROIDAL_SURFACE('',#4,5.0,1.5);
#6=CARTESIAN_POINT('',(-3.04022785952,2.07993178444,0.719138307906));
#7=VERTEX_POINT('',#6);
#8=CARTESIAN_POINT('',(-3.04022785952,-2.07993178444,0.719138307906));
#9=VERTEX_POINT('',#8);
#10=CARTESIAN_POINT('',(-3.04022785952,-2.07993178444,-0.719138307906));
#11=VERTEX_POINT('',#10);
#12=CARTESIAN_POINT('',(-3.04022785952,2.07993178444,-0.719138307906));
#13=VERTEX_POINT('',#12);
#14=DIRECTION('',(0.0,-1.0,0.0));
#15=CARTESIAN_POINT('',(-3.04022785952,2.07993178444,0.719138307906));
#16=VECTOR('',#14,4.15986356889);
#17=LINE('',#15,#16);
#18=EDGE_CURVE('',#7,#9,#17,.T.);
#19=DIRECTION('',(0.0,0.0,-1.0));
#20=CARTESIAN_POINT('',(-3.04022785952,-2.07993178444,0.719138307906));
#21=VECTOR('',#19,1.43827661581);
#22=LINE('',#20,#21);
#23=EDGE_CURVE('',#9,#11,#22,.T.);
#24=DIRECTION('',(0.0,1.0,0.0));
#25=CARTESIAN_POINT('',(-3.04022785952,-2.07993178444,-0.719138307906));
#26=VECTOR('',#24,4.15986356889);
#27=LINE('',#25,#26);
#28=EDGE_CURVE('',#11,#13,#27,.T.);
#29=DIRECTION('',(0.0,0.0,1.0));
#30=CARTESIAN_POINT('',(-3.04022785952,2.07993178444,-0.719138307906));
#31=VECTOR('',#29,1.43827661581);
#32=LINE('',#30,#31);
#33=EDGE_CURVE('',#13,#7,#32,.T.);
#34=ORIENTED_EDGE('',$,$,#18,.T.);
#35=ORIENTED_EDGE('',$,$,#23,.T.);
#36=ORIENTED_EDGE('',$,$,#28,.T.);
#37=ORIENTED_EDGE('',$,$,#33,.T.);
#38=EDGE_LOOP('',(#34,#35,#36,#37));
#39=FACE_OUTER_BOUND('',#38,.T.);
#40=CARTESIAN_POINT('',(-3.45398440752,0.700157301896,0.268544360139));
#41=VERTEX_POINT('',#40);
#42=CARTESIAN_POINT('',(-3.45398440752,-0.700157301896,0.268544360139));
#43=VERTEX_POINT('',#42);
#44=CARTESIAN_POINT('',(-3.45398440752,-0.700157301896,-0.268544360139));
#45=VERTEX_POINT('',#44);
#46=CARTESIAN_POINT('',(-3.45398440752,0.700157301896,-0.268544360139));
#47=VERTEX_POINT('',#46);
#48=DIRECTION('',(0.0,-1.0,0.0));
#49=CARTESIAN_POINT('',(-3.45398440752,0.700157301896,0.268544360139));
#50=VECTOR('',#48,1.40031460379);
#51=LINE('',#49,#50);
#52=EDGE_CURVE('',#41,#43,#51,.T.);
#53=DIRECTION('',(0.0,0.0,-1.0));
#54=CARTESIAN_POINT('',(-3.45398440752,-0.700157301896,0.268544360139));
#55=VECTOR('',#53,0.537088720277);
#56=LINE('',#54,#55);
#57=EDGE_CURVE('',#43,#45,#56,.T.);
#58=DIRECTION('',(0.0,1.0,0.0));
#59=CARTESIAN_POINT('',(-3.45398440752,-0.700157301896,-0.268544360139));
#60=VECTOR('',#58,1.40031460379);
#61=LINE('',#59,#60);
#62=EDGE_CURVE('',#45,#47,#61,.T.);
#63=DIRECTION('',(0.0,0.0,1.0));
#64=CARTESIAN_POINT('',(-3.45398440752,0.700157301896,-0.268544360139));
#65=VECTOR('',#63,0.537088720277);
#66=LINE('',#64,#65);
#67=EDGE_CURVE('',#47,#41,#66,.T.);
#68=ORIENTED_EDGE('',$,$,#52,.T.);
#69=ORIENTED_EDGE('',$,$,#57,.T.);
#70=ORIENTED_EDGE('',$,$,#62,.T.);
#71=ORIENTED_EDGE('',$,$,#67,.T.);
#72=EDGE_LOOP('',(#68,#69,#70,#71));
#73=FACE_BOUND('',#72,.F.);
#74=ADVANCED_FACE('',(#39,#73),#5,.T.);
#75=CARTESIAN_POINT('',(0.0,0.0,-5.0));
#76=CARTESIAN_POINT('',(1.0,0.0,-5.0));
#77=CARTESIAN_POINT('',(1.0,1.0,-5.0));
#78=CARTESIAN_POINT('',(0.0,1.0,-5.0));
#79=VERTEX_POINT('',#75);
#80=VERTEX_POINT('',#76);
#81=VERTEX_POINT('',#77);
#82=VERTEX_POINT('',#78);
#83=DIRECTION('',(1.0,0.0,0.0));
#84=VECTOR('',#83,1.0);
#85=LINE('',#75,#84);
#86=EDGE_CURVE('',#79,#80,#85,.T.);
#87=DIRECTION('',(0.0,1.0,0.0));
#88=VECTOR('',#87,1.0);
#89=LINE('',#76,#88);
#90=EDGE_CURVE('',#80,#81,#89,.T.);
#91=DIRECTION('',(-1.0,0.0,0.0));
#92=VECTOR('',#91,1.0);
#93=LINE('',#77,#92);
#94=EDGE_CURVE('',#81,#82,#93,.T.);
#95=DIRECTION('',(0.0,-1.0,0.0));
#96=VECTOR('',#95,1.0);
#97=LINE('',#78,#96);
#98=EDGE_CURVE('',#82,#79,#97,.T.);
#99=ORIENTED_EDGE('',$,$,#86,.T.);
#100=ORIENTED_EDGE('',$,$,#90,.T.);
#101=ORIENTED_EDGE('',$,$,#94,.T.);
#102=ORIENTED_EDGE('',$,$,#98,.T.);
#103=EDGE_LOOP('',(#99,#100,#101,#102));
#104=DIRECTION('',(0.0,0.0,-1.0));
#105=DIRECTION('',(1.0,0.0,0.0));
#106=AXIS2_PLACEMENT_3D('',#75,#104,#105);
#107=FACE_OUTER_BOUND('',#103,.T.);
#108=PLANE('',#106);
#109=ADVANCED_FACE('',(#107),#108,.T.);
#110=CLOSED_SHELL('',(#74,#109));
#111=MANIFOLD_SOLID_BREP('',#110);
#9050=PRODUCT_CONTEXT('',#9000,'mechanical');
#9051=PRODUCT('Tfa241','Tfa241','',(#9050));
#9052=PRODUCT_DEFINITION_FORMATION('','',#9051);
#9053=PRODUCT_DEFINITION_CONTEXT('part definition',#9000,'design');
#9054=PRODUCT_DEFINITION('','','',#9052,#9053);
#9055=PRODUCT_DEFINITION_SHAPE('','','',#9054);
#9056=(LENGTH_UNIT()NAMED_UNIT(*)SI_UNIT(.MILLI.,.METRE.));
#9057=(NAMED_UNIT(*)PLANE_ANGLE_UNIT()SI_UNIT($,.RADIAN.));
#9058=(NAMED_UNIT(*)SI_UNIT($,.STERADIAN.)SOLID_ANGLE_UNIT());
#9059=UNCERTAINTY_MEASURE_WITH_UNIT(.LENGTH_MEASURE(1.0E-7).,#9056,'distance_accuracy_value','');
#9060=(GEOMETRIC_REPRESENTATION_CONTEXT(3)GLOBAL_UNCERTAINTY_ASSIGNED_CONTEXT((#9059))GLOBAL_UNIT_ASSIGNED_CONTEXT((#9056,#9057,#9058))REPRESENTATION_CONTEXT('','3D'));
#9061=ADVANCED_BREP_SHAPE_REPRESENTATION('',(#111),#9060);
#9062=SHAPE_DEFINITION_REPRESENTATION(#9055,#9061);
ENDSEC;
END-ISO-10303-21;
