ISO-10303-21;
HEADER;
FILE_DESCRIPTION(('CAD fixture: ShapeFix_Face.FixMissingSeam.degenerate-wire-consolidation'),'2;1');
FILE_NAME('Tfa214.stp',
  2026-06-16T12:00:00,
  (''),
  (''),
  'neutral file format',
  'CAD System v1',
  '');
FILE_SCHEMA(('AUTOMOTIVE_DESIGN { 1 0 10303 214 3 1 1 }'));
ENDSEC;
DATA;
#1=SECURITY_CLASSIFICATION('','',$);
#10=PARAMETRIC_REPRESENTATION_CONTEXT('','3D parametric space');
#11=AXIS2_PLACEMENT_3D('origin',#20,#21,#22);
#20=CARTESIAN_POINT('',0.0,0.0,0.0);
#21=DIRECTION('',0.0,0.0,1.0);
#22=DIRECTION('',1.0,0.0,0.0);
#30=B_SPLINE_SURFACE_WITH_KNOTS('sphere_like',3,3,(
(#40,#50,#60),
(#70,#80,#90),
(#100,#110,#120)),
.UNSPECIFIED.,.F.,.F.,.F.,(3,3),(3,3),(0.0,1.0),(0.0,1.0),1);
#40=CARTESIAN_POINT('',0.0,0.0,1.0);
#50=CARTESIAN_POINT('',0.5,0.5,0.8);
#60=CARTESIAN_POINT('',1.0,0.0,1.0);
#70=CARTESIAN_POINT('',0.5,0.5,0.8);
#80=CARTESIAN_POINT('',1.0,1.0,0.5);
#90=CARTESIAN_POINT('',0.5,0.5,0.8);
#100=CARTESIAN_POINT('',0.0,0.0,1.0);
#110=CARTESIAN_POINT('',0.5,0.5,0.8);
#120=CARTESIAN_POINT('',1.0,0.0,1.0);
#130=LINE('degen_edge_1',#131,#132);
#131=CARTESIAN_POINT('',0.5,0.5,0.8);
#132=VECTOR('',#133,0.001);
#133=DIRECTION('',1.0,0.0,0.0);
#140=LINE('degen_edge_2',#141,#142);
#141=CARTESIAN_POINT('',0.5,0.5,0.8);
#142=VECTOR('',#143,0.001);
#143=DIRECTION('',0.0,1.0,0.0);
#150=LINE('degen_edge_3',#151,#152);
#151=CARTESIAN_POINT('',0.5,0.5,0.8);
#152=VECTOR('',#153,0.001);
#153=DIRECTION('',-1.0,0.0,0.0);
#160=LINE('degen_edge_4',#161,#162);
#161=CARTESIAN_POINT('',0.5,0.5,0.8);
#162=VECTOR('',#163,0.001);
#163=DIRECTION('',0.0,-1.0,0.0);
#170=VERTEX_POINT('v1',#180);
#180=CARTESIAN_POINT('',0.5,0.5,0.8);
#190=VERTEX_POINT('v2',#200);
#200=CARTESIAN_POINT('',0.5,0.5,0.8);
#210=VERTEX_POINT('v3',#220);
#220=CARTESIAN_POINT('',0.5,0.5,0.8);
#230=VERTEX_POINT('v4',#240);
#240=CARTESIAN_POINT('',0.5,0.5,0.8);
#250=EDGE_CURVE('e1',#170,#190,#130,.T.);
#260=EDGE_CURVE('e2',#190,#210,#140,.T.);
#270=EDGE_CURVE('e3',#210,#230,#150,.T.);
#280=EDGE_CURVE('e4',#230,#170,#160,.T.);
#290=ORIENTED_EDGE('oe1',*,*,#250,.T.);
#300=ORIENTED_EDGE('oe2',*,*,#260,.T.);
#310=ORIENTED_EDGE('oe3',*,*,#270,.T.);
#320=ORIENTED_EDGE('oe4',*,*,#280,.T.);
#330=EDGE_LOOP('degenerate_loop',(#290,#300,#310,#320));
#340=FACE_OUTER_BOUND('outer_bound',#330,.T.);
#350=ADVANCED_FACE('sphere_face',(#340),#30,.T.);
#9000=PRODUCT_CONTEXT('',#1,'mechanical');
#9001=PRODUCT('Tfa214','Tfa214','',(#9000));
#9002=PRODUCT_DEFINITION_FORMATION('','',#9001);
#9003=PRODUCT_DEFINITION_CONTEXT('part definition',#1,'design');
#9004=PRODUCT_DEFINITION('','',#9002,#9003);
#9005=PRODUCT_DEFINITION_SHAPE('','',#9004);
#9006=(LENGTH_UNIT()NAMED_UNIT(*)SI_UNIT(.MILLI.,.METRE.));
#9007=(NAMED_UNIT(*)PLANE_ANGLE_UNIT()SI_UNIT($,.RADIAN.));
#9008=(NAMED_UNIT(*)SI_UNIT($,.STERADIAN.)SOLID_ANGLE_UNIT());
#9009=UNCERTAINTY_MEASURE_WITH_UNIT(LENGTH_MEASURE(1.0E-7),#9006,'distance_accuracy_value','');
#9010=(GEOMETRIC_REPRESENTATION_CONTEXT(3)GLOBAL_UNCERTAINTY_ASSIGNED_CONTEXT((#9009))GLOBAL_UNIT_ASSIGNED_CONTEXT((#9006,#9007,#9008))REPRESENTATION_CONTEXT('','3D'));
#9021=SHELL_BASED_SURFACE_MODEL('sbsm',(#9020));
#9020=CLOSED_SHELL('outer_shell',(#350));
#9022=MANIFOLD_SURFACE_SHAPE_REPRESENTATION('',(#9021),#9010);
#9023=SHAPE_DEFINITION_REPRESENTATION(#9005,#9022);
ENDSEC;
END-ISO-10303-21;
