ISO-10303-21;
HEADER;
FILE_DESCRIPTION(('Tfa231: ShapeFix_Face.FixSmallAreaWire — small-area wire detection via sub-shape-type filter; EDGE orientation'),
  '2026-06-16T00:00:00',
  2,
  (),
  (),
  'neutral file',
  'CAD System',
  '',
  ());
FILE_NAME('Tfa231.stp',
  2026-06-16T00:00:00,
  (''),
  (''),
  'neutral file format',
  'CAD System v1',
  '');
FILE_SCHEMA(('AUTOMOTIVE_DESIGN { 1 0 10303 214 3 1 1 }'));
ENDSEC;
DATA;
#1=SECURITY_CLASSIFICATION('','',$);
#10=PARAMETRIC_REPRESENTATION_CONTEXT('','3D parametric space');
#11=AXIS2_PLACEMENT_3D('origin',#20,#21,#22);
#20=CARTESIAN_POINT('',0.0,0.0,0.0);
#21=DIRECTION('',0.0,0.0,1.0);
#22=DIRECTION('',1.0,0.0,0.0);
#30=PLANE('base_plane',#11,1.0);
#40=LINE('large_e1',#41,#42);
#41=CARTESIAN_POINT('',0.0,0.0,0.0);
#42=VECTOR('',#43,1.0);
#43=DIRECTION('',1.0,0.0,0.0);
#50=LINE('large_e2',#51,#52);
#51=CARTESIAN_POINT('',3.0,0.0,0.0);
#52=VECTOR('',#53,1.0);
#53=DIRECTION('',0.0,1.0,0.0);
#60=LINE('large_e3',#61,#62);
#61=CARTESIAN_POINT('',3.0,3.0,0.0);
#62=VECTOR('',#63,1.0);
#63=DIRECTION('',−1.0,0.0,0.0);
#70=LINE('large_e4',#71,#72);
#71=CARTESIAN_POINT('',0.0,3.0,0.0);
#72=VECTOR('',#73,1.0);
#73=DIRECTION('',0.0,−1.0,0.0);
#80=LINE('small_e1',#81,#82);
#81=CARTESIAN_POINT('',0.1,0.1,0.0);
#82=VECTOR('',#83,0.05);
#83=DIRECTION('',1.0,0.0,0.0);
#90=LINE('small_e2',#91,#92);
#91=CARTESIAN_POINT('',0.15,0.1,0.0);
#92=VECTOR('',#93,0.05);
#93=DIRECTION('',0.0,1.0,0.0);
#100=LINE('small_e3',#101,#102);
#101=CARTESIAN_POINT('',0.15,0.15,0.0);
#102=VECTOR('',#103,0.05);
#103=DIRECTION('',−1.0,0.0,0.0);
#110=LINE('small_e4',#111,#112);
#111=CARTESIAN_POINT('',0.1,0.15,0.0);
#112=VECTOR('',#113,0.05);
#113=DIRECTION('',0.0,−1.0,0.0);
#120=VERTEX_POINT('vl1',#121);
#121=CARTESIAN_POINT('',0.0,0.0,0.0);
#122=VERTEX_POINT('vl2',#123);
#123=CARTESIAN_POINT('',3.0,0.0,0.0);
#124=VERTEX_POINT('vl3',#125);
#125=CARTESIAN_POINT('',3.0,3.0,0.0);
#126=VERTEX_POINT('vl4',#127);
#127=CARTESIAN_POINT('',0.0,3.0,0.0);
#128=VERTEX_POINT('vs1',#129);
#129=CARTESIAN_POINT('',0.1,0.1,0.0);
#130=VERTEX_POINT('vs2',#131);
#131=CARTESIAN_POINT('',0.15,0.1,0.0);
#132=VERTEX_POINT('vs3',#133);
#133=CARTESIAN_POINT('',0.15,0.15,0.0);
#134=VERTEX_POINT('vs4',#135);
#135=CARTESIAN_POINT('',0.1,0.15,0.0);
#140=EDGE_CURVE('le1',#120,#122,#40,.T.);
#141=EDGE_CURVE('le2',#122,#124,#50,.T.);
#142=EDGE_CURVE('le3',#124,#126,#60,.T.);
#143=EDGE_CURVE('le4',#126,#120,#70,.T.);
#150=EDGE_CURVE('se1',#128,#130,#80,.T.);
#151=EDGE_CURVE('se2',#130,#132,#90,.T.);
#152=EDGE_CURVE('se3',#132,#134,#100,.T.);
#153=EDGE_CURVE('se4',#134,#128,#110,.T.);
#160=ORIENTED_EDGE('ole1',*,*,#140,.T.);
#161=ORIENTED_EDGE('ole2',*,*,#141,.T.);
#162=ORIENTED_EDGE('ole3',*,*,#142,.T.);
#163=ORIENTED_EDGE('ole4',*,*,#143,.T.);
#170=ORIENTED_EDGE('ose1',*,*,#150,.T.);
#171=ORIENTED_EDGE('ose2',*,*,#151,.T.);
#172=ORIENTED_EDGE('ose3',*,*,#152,.T.);
#173=ORIENTED_EDGE('ose4',*,*,#153,.T.);
#180=EDGE_LOOP('large_loop',(#160,#161,#162,#163));
#190=EDGE_LOOP('small_loop',(#170,#171,#172,#173));
#200=FACE_OUTER_BOUND('fb_large',#180,.T.);
#210=FACE_INNER_BOUND('fb_small',#190,.T.);
#220=ADVANCED_FACE('small_area_face',(#200,#210),#30,.T.);
#9000=PRODUCT_CONTEXT('',#1,'mechanical');
#9001=PRODUCT('Tfa231','Tfa231','',(#9000));
#9002=PRODUCT_DEFINITION_FORMATION('','',#9001);
#9003=PRODUCT_DEFINITION_CONTEXT('part definition',#1,'design');
#9004=PRODUCT_DEFINITION('','',#9002,#9003);
#9005=PRODUCT_DEFINITION_SHAPE('','',#9004);
#9006=(LENGTH_UNIT()NAMED_UNIT(*)SI_UNIT(.MILLI.,.METRE.));
#9007=(NAMED_UNIT(*)PLANE_ANGLE_UNIT()SI_UNIT($,.RADIAN.));
#9008=(NAMED_UNIT(*)SI_UNIT($,.STERADIAN.)SOLID_ANGLE_UNIT());
#9009=UNCERTAINTY_MEASURE_WITH_UNIT(LENGTH_MEASURE(1.0E-7),#9006,'distance_accuracy_value','');
#9010=(GEOMETRIC_REPRESENTATION_CONTEXT(3)GLOBAL_UNCERTAINTY_ASSIGNED_CONTEXT((#9009))GLOBAL_UNIT_ASSIGNED_CONTEXT((#9006,#9007,#9008))REPRESENTATION_CONTEXT('','3D'));
#9021=SHELL_BASED_SURFACE_MODEL('sbsm',(#9020));
#9020=CLOSED_SHELL('outer_shell',(#220));
#9022=MANIFOLD_SURFACE_SHAPE_REPRESENTATION('',(#9021),#9010);
#9023=SHAPE_DEFINITION_REPRESENTATION(#9005,#9022);
ENDSEC;
END-ISO-10303-21;
