ISO-10303-21;
/* A112: KiCad#14125 + CadQuery#1962: NAUO name reuse causes dedup-by-name collapse */
HEADER;
FILE_DESCRIPTION(('A112'),'2;1');
FILE_NAME('A112.stp','2026-06-17T00:00:00',(''),(''),'cad-research-suite','','');
FILE_SCHEMA(('AUTOMOTIVE_DESIGN { 1 0 10303 214 3 1 1 }'));
ENDSEC;
DATA;
#9000=APPLICATION_CONTEXT('mechanical design');
#1=CARTESIAN_POINT('',(0.0,0.0,0.0));
#2=DIRECTION('',(0.0,0.0,1.0));
#3=DIRECTION('',(1.0,0.0,0.0));
#4=AXIS2_PLACEMENT_3D('',#1,#2,#3);
#5=PLANE('',#4);
#6=CARTESIAN_POINT('',(0.0,0.0,0.0));
#7=CARTESIAN_POINT('',(1.0,0.0,0.0));
#8=CARTESIAN_POINT('',(1.0,1.0,0.0));
#9=CARTESIAN_POINT('',(0.0,1.0,0.0));
#10=VERTEX_POINT('',#6);
#11=VERTEX_POINT('',#7);
#12=VERTEX_POINT('',#8);
#13=VERTEX_POINT('',#9);
#14=DIRECTION('',(1.0,0.0,0.0));
#15=VECTOR('',#14,1.0);
#16=LINE('',#6,#15);
#17=EDGE_CURVE('',#10,#11,#16,.T.);
#18=DIRECTION('',(0.0,1.0,0.0));
#19=VECTOR('',#18,1.0);
#20=LINE('',#7,#19);
#21=EDGE_CURVE('',#11,#12,#20,.T.);
#22=DIRECTION('',(-1.0,0.0,0.0));
#23=VECTOR('',#22,1.0);
#24=LINE('',#8,#23);
#25=EDGE_CURVE('',#12,#13,#24,.T.);
#26=DIRECTION('',(0.0,-1.0,0.0));
#27=VECTOR('',#26,1.0);
#28=LINE('',#9,#27);
#29=EDGE_CURVE('',#13,#10,#28,.T.);
#30=ORIENTED_EDGE('',$,$,#17,.T.);
#31=ORIENTED_EDGE('',$,$,#21,.T.);
#32=ORIENTED_EDGE('',$,$,#25,.T.);
#33=ORIENTED_EDGE('',$,$,#29,.T.);
#34=EDGE_LOOP('',(#30,#31,#32,#33));
#35=FACE_OUTER_BOUND('',#34,.T.);
#36=ADVANCED_FACE('',(#35),#5,.T.);
#37=OPEN_SHELL('',(#36));
#38=SHELL_BASED_SURFACE_MODEL('',(#37));
#9050=PRODUCT_CONTEXT('',#9000,'mechanical');
#9051=PRODUCT('A112','A112','',(#9050));
#9052=PRODUCT_DEFINITION_FORMATION('','',#9051);
#9053=PRODUCT_DEFINITION_CONTEXT('part definition',#9000,'design');
#9054=PRODUCT_DEFINITION('','','',#9052,#9053);
#9055=PRODUCT_DEFINITION_SHAPE('','','',#9054);
#9056=(LENGTH_UNIT()NAMED_UNIT(*)SI_UNIT(.MILLI.,.METRE.));
#9057=(NAMED_UNIT(*)PLANE_ANGLE_UNIT()SI_UNIT($,.RADIAN.));
#9058=(NAMED_UNIT(*)SI_UNIT($,.STERADIAN.)SOLID_ANGLE_UNIT());
#9059=UNCERTAINTY_MEASURE_WITH_UNIT(LENGTH_MEASURE(1.0E-7),#9056,'distance_accuracy_value','');
#9060=(GEOMETRIC_REPRESENTATION_CONTEXT(3)GLOBAL_UNCERTAINTY_ASSIGNED_CONTEXT((#9059))GLOBAL_UNIT_ASSIGNED_CONTEXT((#9056,#9057,#9058))REPRESENTATION_CONTEXT('','3D'));
#9061=MANIFOLD_SURFACE_SHAPE_REPRESENTATION('',(#38),#9060);
#9062=SHAPE_DEFINITION_REPRESENTATION(#9055,#9061);
#9063=SHAPE_REPRESENTATION('leaf_rep',(#4),#9060);
#9064=PRODUCT_CONTEXT('sub0',#9000,'mechanical');
#9065=PRODUCT('C1','Capacitor 0','',(#9064));
#9066=PRODUCT_DEFINITION_FORMATION('','',#9065);
#9067=PRODUCT_DEFINITION('design','',#9066,#9053);
#9068=NEXT_ASSEMBLY_USAGE_OCCURRENCE('C1','same name 0','',#9054,#9067,$);
#9069=REPRESENTATION_MAP(#4,#9063);
#9070=CARTESIAN_POINT('inst0_origin',(0.0,0.0,0.0));
#9071=DIRECTION('',(0.0,0.0,1.0));
#9072=DIRECTION('',(1.0,0.0,0.0));
#9073=AXIS2_PLACEMENT_3D('inst0_plc',#9070,#9071,#9072);
#9074=MAPPED_ITEM('mi0',#9069,#9073);
#9075=PRODUCT_CONTEXT('sub1',#9000,'mechanical');
#9076=PRODUCT('C1','Capacitor 1','',(#9075));
#9077=PRODUCT_DEFINITION_FORMATION('','',#9076);
#9078=PRODUCT_DEFINITION('design','',#9077,#9053);
#9079=NEXT_ASSEMBLY_USAGE_OCCURRENCE('C1','same name 1','',#9054,#9078,$);
#9080=REPRESENTATION_MAP(#4,#9063);
#9081=CARTESIAN_POINT('inst1_origin',(2.0,0.0,0.0));
#9082=DIRECTION('',(0.0,0.0,1.0));
#9083=DIRECTION('',(1.0,0.0,0.0));
#9084=AXIS2_PLACEMENT_3D('inst1_plc',#9081,#9082,#9083);
#9085=MAPPED_ITEM('mi1',#9080,#9084);
#9086=PRODUCT_CONTEXT('sub2',#9000,'mechanical');
#9087=PRODUCT('C1','Capacitor 2','',(#9086));
#9088=PRODUCT_DEFINITION_FORMATION('','',#9087);
#9089=PRODUCT_DEFINITION('design','',#9088,#9053);
#9090=NEXT_ASSEMBLY_USAGE_OCCURRENCE('C1','same name 2','',#9054,#9089,$);
#9091=REPRESENTATION_MAP(#4,#9063);
#9092=CARTESIAN_POINT('inst2_origin',(4.0,0.0,0.0));
#9093=DIRECTION('',(0.0,0.0,1.0));
#9094=DIRECTION('',(1.0,0.0,0.0));
#9095=AXIS2_PLACEMENT_3D('inst2_plc',#9092,#9093,#9094);
#9096=MAPPED_ITEM('mi2',#9091,#9095);
ENDSEC;
END-ISO-10303-21;
