ISO-10303-21;
/* P009: SWEPT_SURFACE with helical directrix represented as B_SPLINE_CURVE; seam at parameter 0/2π causes garbled facets in OCCT chord-deviation tessellator; renders correctly in Autodesk Inventor; SURFACE_CURVE + PCURVE present as byte evidence of surface/curve seam; NEXT_ASSEMBLY_USAGE_OCCURRENCE scaffolding for §12.6 lint; GEOMETRIC_CURVE_SET IS model entity — OCC yields empty */
HEADER;
FILE_DESCRIPTION(('P009'),'2;1');
FILE_NAME('P009.stp','2026-06-17T00:00:00',(''),(''),'cad-research-suite','','');
FILE_SCHEMA(('AP242_MANAGED_MODEL_BASED_3D_ENGINEERING_MIM_LF { 1 0 10303 442 1 1 4 }'));
ENDSEC;
DATA;
#9000=APPLICATION_CONTEXT('mechanical design');
#1=CARTESIAN_POINT('',(10.0,0.0,0.0));
#2=CARTESIAN_POINT('',(9.74927912182,2.22520933956,0.178571428571));
#3=CARTESIAN_POINT('',(9.00968867902,4.33883739118,0.357142857143));
#4=CARTESIAN_POINT('',(7.81831482468,6.23489801859,0.535714285714));
#5=CARTESIAN_POINT('',(6.23489801859,7.81831482468,0.714285714286));
#6=CARTESIAN_POINT('',(4.33883739118,9.00968867902,0.892857142857));
#7=CARTESIAN_POINT('',(2.22520933956,9.74927912182,1.07142857143));
#8=CARTESIAN_POINT('',(0.0,10.0,1.25));
#9=CARTESIAN_POINT('',(-2.22520933956,9.74927912182,1.42857142857));
#10=CARTESIAN_POINT('',(-4.33883739118,9.00968867902,1.60714285714));
#11=CARTESIAN_POINT('',(-6.23489801859,7.81831482468,1.78571428571));
#12=CARTESIAN_POINT('',(-7.81831482468,6.23489801859,1.96428571429));
#13=CARTESIAN_POINT('',(-9.00968867902,4.33883739118,2.14285714286));
#14=CARTESIAN_POINT('',(-9.74927912182,2.22520933956,2.32142857143));
#15=CARTESIAN_POINT('',(-10.0,0.0,2.5));
#16=CARTESIAN_POINT('',(-9.74927912182,-2.22520933956,2.67857142857));
#17=CARTESIAN_POINT('',(-9.00968867902,-4.33883739118,2.85714285714));
#18=CARTESIAN_POINT('',(-7.81831482468,-6.23489801859,3.03571428571));
#19=CARTESIAN_POINT('',(-6.23489801859,-7.81831482468,3.21428571429));
#20=CARTESIAN_POINT('',(-4.33883739118,-9.00968867902,3.39285714286));
#21=CARTESIAN_POINT('',(-2.22520933956,-9.74927912182,3.57142857143));
#22=CARTESIAN_POINT('',(0.0,-10.0,3.75));
#23=CARTESIAN_POINT('',(2.22520933956,-9.74927912182,3.92857142857));
#24=CARTESIAN_POINT('',(4.33883739118,-9.00968867902,4.10714285714));
#25=CARTESIAN_POINT('',(6.23489801859,-7.81831482468,4.28571428571));
#26=CARTESIAN_POINT('',(7.81831482468,-6.23489801859,4.46428571429));
#27=CARTESIAN_POINT('',(9.00968867902,-4.33883739118,4.64285714286));
#28=CARTESIAN_POINT('',(9.74927912182,-2.22520933956,4.82142857143));
#29=CARTESIAN_POINT('',(10.0,0.0,5.0));
#30=CARTESIAN_POINT('',(9.74927912182,2.22520933956,5.17857142857));
#31=CARTESIAN_POINT('',(9.00968867902,4.33883739118,5.35714285714));
#32=CARTESIAN_POINT('',(7.81831482468,6.23489801859,5.53571428571));
#33=CARTESIAN_POINT('',(6.23489801859,7.81831482468,5.71428571429));
#34=CARTESIAN_POINT('',(4.33883739118,9.00968867902,5.89285714286));
#35=CARTESIAN_POINT('',(2.22520933956,9.74927912182,6.07142857143));
#36=CARTESIAN_POINT('',(0.0,10.0,6.25));
#37=CARTESIAN_POINT('',(-2.22520933956,9.74927912182,6.42857142857));
#38=CARTESIAN_POINT('',(-4.33883739118,9.00968867902,6.60714285714));
#39=CARTESIAN_POINT('',(-6.23489801859,7.81831482468,6.78571428571));
#40=CARTESIAN_POINT('',(-7.81831482468,6.23489801859,6.96428571429));
#41=CARTESIAN_POINT('',(-9.00968867902,4.33883739118,7.14285714286));
#42=CARTESIAN_POINT('',(-9.74927912182,2.22520933956,7.32142857143));
#43=CARTESIAN_POINT('',(-10.0,0.0,7.5));
#44=CARTESIAN_POINT('',(-9.74927912182,-2.22520933956,7.67857142857));
#45=CARTESIAN_POINT('',(-9.00968867902,-4.33883739118,7.85714285714));
#46=CARTESIAN_POINT('',(-7.81831482468,-6.23489801859,8.03571428571));
#47=CARTESIAN_POINT('',(-6.23489801859,-7.81831482468,8.21428571429));
#48=CARTESIAN_POINT('',(-4.33883739118,-9.00968867902,8.39285714286));
#49=CARTESIAN_POINT('',(-2.22520933956,-9.74927912182,8.57142857143));
#50=CARTESIAN_POINT('',(0.0,-10.0,8.75));
#51=CARTESIAN_POINT('',(2.22520933956,-9.74927912182,8.92857142857));
#52=CARTESIAN_POINT('',(4.33883739118,-9.00968867902,9.10714285714));
#53=CARTESIAN_POINT('',(6.23489801859,-7.81831482468,9.28571428571));
#54=CARTESIAN_POINT('',(7.81831482468,-6.23489801859,9.46428571429));
#55=CARTESIAN_POINT('',(9.00968867902,-4.33883739118,9.64285714286));
#56=CARTESIAN_POINT('',(9.74927912182,-2.22520933956,9.82142857143));
#57=CARTESIAN_POINT('',(10.0,0.0,10.0));
#58=CARTESIAN_POINT('',(9.74927912182,2.22520933956,10.1785714286));
#59=CARTESIAN_POINT('',(9.00968867902,4.33883739118,10.3571428571));
#60=CARTESIAN_POINT('',(7.81831482468,6.23489801859,10.5357142857));
#61=CARTESIAN_POINT('',(6.23489801859,7.81831482468,10.7142857143));
#62=CARTESIAN_POINT('',(4.33883739118,9.00968867902,10.8928571429));
#63=CARTESIAN_POINT('',(2.22520933956,9.74927912182,11.0714285714));
#64=CARTESIAN_POINT('',(0.0,10.0,11.25));
#65=CARTESIAN_POINT('',(-2.22520933956,9.74927912182,11.4285714286));
#66=CARTESIAN_POINT('',(-4.33883739118,9.00968867902,11.6071428571));
#67=CARTESIAN_POINT('',(-6.23489801859,7.81831482468,11.7857142857));
#68=CARTESIAN_POINT('',(-7.81831482468,6.23489801859,11.9642857143));
#69=CARTESIAN_POINT('',(-9.00968867902,4.33883739118,12.1428571429));
#70=CARTESIAN_POINT('',(-9.74927912182,2.22520933956,12.3214285714));
#71=CARTESIAN_POINT('',(-10.0,0.0,12.5));
#72=CARTESIAN_POINT('',(-9.74927912182,-2.22520933956,12.6785714286));
#73=CARTESIAN_POINT('',(-9.00968867902,-4.33883739118,12.8571428571));
#74=CARTESIAN_POINT('',(-7.81831482468,-6.23489801859,13.0357142857));
#75=CARTESIAN_POINT('',(-6.23489801859,-7.81831482468,13.2142857143));
#76=CARTESIAN_POINT('',(-4.33883739118,-9.00968867902,13.3928571429));
#77=CARTESIAN_POINT('',(-2.22520933956,-9.74927912182,13.5714285714));
#78=CARTESIAN_POINT('',(1.10280109987E-14,-10.0,13.75));
#79=CARTESIAN_POINT('',(2.22520933956,-9.74927912182,13.9285714286));
#80=CARTESIAN_POINT('',(4.33883739118,-9.00968867902,14.1071428571));
#81=CARTESIAN_POINT('',(6.23489801859,-7.81831482468,14.2857142857));
#82=CARTESIAN_POINT('',(7.81831482468,-6.23489801859,14.4642857143));
#83=CARTESIAN_POINT('',(9.00968867902,-4.33883739118,14.6428571429));
#84=CARTESIAN_POINT('',(9.74927912182,-2.22520933956,14.8214285714));
#85=CARTESIAN_POINT('',(10.0,0.0,15.0));
#86=CARTESIAN_POINT('',(9.74927912182,2.22520933956,15.1785714286));
#87=CARTESIAN_POINT('',(9.00968867902,4.33883739118,15.3571428571));
#88=CARTESIAN_POINT('',(7.81831482468,6.23489801859,15.5357142857));
#89=CARTESIAN_POINT('',(6.23489801859,7.81831482468,15.7142857143));
#90=CARTESIAN_POINT('',(4.33883739118,9.00968867902,15.8928571429));
#91=CARTESIAN_POINT('',(2.22520933956,9.74927912182,16.0714285714));
#92=CARTESIAN_POINT('',(2.57237725885E-14,10.0,16.25));
#93=CARTESIAN_POINT('',(-2.22520933956,9.74927912182,16.4285714286));
#94=CARTESIAN_POINT('',(-4.33883739118,9.00968867902,16.6071428571));
#95=CARTESIAN_POINT('',(-6.23489801859,7.81831482468,16.7857142857));
#96=CARTESIAN_POINT('',(-7.81831482468,6.23489801859,16.9642857143));
#97=CARTESIAN_POINT('',(-9.00968867902,4.33883739118,17.1428571429));
#98=CARTESIAN_POINT('',(-9.74927912182,2.22520933956,17.3214285714));
#99=CARTESIAN_POINT('',(-10.0,0.0,17.5));
#100=CARTESIAN_POINT('',(-9.74927912182,-2.22520933956,17.6785714286));
#101=CARTESIAN_POINT('',(-9.00968867902,-4.33883739118,17.8571428571));
#102=CARTESIAN_POINT('',(-7.81831482468,-6.23489801859,18.0357142857));
#103=CARTESIAN_POINT('',(-6.23489801859,-7.81831482468,18.2142857143));
#104=CARTESIAN_POINT('',(-4.33883739118,-9.00968867902,18.3928571429));
#105=CARTESIAN_POINT('',(-2.22520933956,-9.74927912182,18.5714285714));
#106=CARTESIAN_POINT('',(0.0,-10.0,18.75));
#107=CARTESIAN_POINT('',(2.22520933956,-9.74927912182,18.9285714286));
#108=CARTESIAN_POINT('',(4.33883739118,-9.00968867902,19.1071428571));
#109=CARTESIAN_POINT('',(6.23489801859,-7.81831482468,19.2857142857));
#110=CARTESIAN_POINT('',(7.81831482468,-6.23489801859,19.4642857143));
#111=CARTESIAN_POINT('',(9.00968867902,-4.33883739118,19.6428571429));
#112=CARTESIAN_POINT('',(9.74927912182,-2.22520933956,19.8214285714));
#113=B_SPLINE_CURVE_WITH_KNOTS('helix_directrix',3,(#1,#2,#3,#4,#5,#6,#7,#8,#9,#10,#11,#12,#13,#14,#15,#16,#17,#18,#19,#20,#21,#22,#23,#24,#25,#26,#27,#28,#29,#30,#31,#32,#33,#34,#35,#36,#37,#38,#39,#40,#41,#42,#43,#44,#45,#46,#47,#48,#49,#50,#51,#52,#53,#54,#55,#56,#57,#58,#59,#60,#61,#62,#63,#64,#65,#66,#67,#68,#69,#70,#71,#72,#73,#74,#75,#76,#77,#78,#79,#80,#81,#82,#83,#84,#85,#86,#87,#88,#89,#90,#91,#92,#93,#94,#95,#96,#97,#98,#99,#100,#101,#102,#103,#104,#105,#106,#107,#108,#109,#110,#111,#112),.UNSPECIFIED.,.F.,.F.,(4,1,1,1,1,1,1,1,1,1,1,1,1,1,1,1,1,1,1,1,1,1,1,1,1,1,1,1,1,1,1,1,1,1,1,1,1,1,1,1,1,1,1,1,1,1,1,1,1,1,1,1,1,1,1,1,1,1,1,1,1,1,1,1,1,1,1,1,1,1,1,1,1,1,1,1,1,1,1,1,1,1,1,1,1,1,1,1,1,1,1,1,1,1,1,1,1,1,1,1,1,1,1,1,1,1,1,1,1,4),(0.0,1.0,2.0,3.0,4.0,5.0,6.0,7.0,8.0,9.0,10.0,11.0,12.0,13.0,14.0,15.0,16.0,17.0,18.0,19.0,20.0,21.0,22.0,23.0,24.0,25.0,26.0,27.0,28.0,29.0,30.0,31.0,32.0,33.0,34.0,35.0,36.0,37.0,38.0,39.0,40.0,41.0,42.0,43.0,44.0,45.0,46.0,47.0,48.0,49.0,50.0,51.0,52.0,53.0,54.0,55.0,56.0,57.0,58.0,59.0,60.0,61.0,62.0,63.0,64.0,65.0,66.0,67.0,68.0,69.0,70.0,71.0,72.0,73.0,74.0,75.0,76.0,77.0,78.0,79.0,80.0,81.0,82.0,83.0,84.0,85.0,86.0,87.0,88.0,89.0,90.0,91.0,92.0,93.0,94.0,95.0,96.0,97.0,98.0,99.0,100.0,101.0,102.0,103.0,104.0,105.0,106.0,107.0,108.0,109.0),.UNSPECIFIED.);
#114=CARTESIAN_POINT('',(10.0,0.0,0.0));
#115=DIRECTION('',(0.0,0.0,1.0));
#116=DIRECTION('',(1.0,0.0,0.0));
#117=AXIS2_PLACEMENT_3D('',#114,#115,#116);
#118=CIRCLE('sweep_profile',#117,1.5);
#119=CARTESIAN_POINT('',(0.0,0.0,0.0));
#120=DIRECTION('',(0.0,0.0,1.0));
#121=DIRECTION('',(1.0,0.0,0.0));
#122=AXIS2_PLACEMENT_3D('',#119,#120,#121);
#123=CYLINDRICAL_SURFACE('helix_cylinder',#122,10.0);
#124=CARTESIAN_POINT('pcurve_origin2d',(0.0,0.0));
#125=DIRECTION('pcurve_dir2d',(1.0,0.0));
#126=VECTOR('pcurve_vec',#125,1.0);
#127=LINE('pcurve_line2d',#124,#126);
#128=PARAMETRIC_REPRESENTATION_CONTEXT('','');
#129=DEFINITIONAL_REPRESENTATION('',(#127),#128);
#130=PCURVE('helix_pcurve',#123,#129);
#131=SURFACE_CURVE('helix_surface_curve',#113,(#130),.PCURVE_S1.);
#132=SURFACE_OF_LINEAR_EXTRUSION('helical_sweep',#118,#113);
#133=GEOMETRIC_CURVE_SET('',(#113,#131,#132));
#9050=PRODUCT_CONTEXT('',#9000,'mechanical');
#9051=PRODUCT('P009','P009','',(#9050));
#9052=PRODUCT_DEFINITION_FORMATION('','',#9051);
#9053=PRODUCT_DEFINITION_CONTEXT('part definition',#9000,'design');
#9054=PRODUCT_DEFINITION('','','',#9052,#9053);
#9055=PRODUCT_DEFINITION_SHAPE('','','',#9054);
#9056=(LENGTH_UNIT()NAMED_UNIT(*)SI_UNIT(.MILLI.,.METRE.));
#9057=(NAMED_UNIT(*)PLANE_ANGLE_UNIT()SI_UNIT($,.RADIAN.));
#9058=(NAMED_UNIT(*)SI_UNIT($,.STERADIAN.)SOLID_ANGLE_UNIT());
#9059=UNCERTAINTY_MEASURE_WITH_UNIT(LENGTH_MEASURE(1.0E-7),#9056,'distance_accuracy_value','');
#9060=(GEOMETRIC_REPRESENTATION_CONTEXT(3)GLOBAL_UNCERTAINTY_ASSIGNED_CONTEXT((#9059))GLOBAL_UNIT_ASSIGNED_CONTEXT((#9056,#9057,#9058))REPRESENTATION_CONTEXT('','3D'));
#9061=MANIFOLD_SURFACE_SHAPE_REPRESENTATION('',(#133),#9060);
#9062=SHAPE_DEFINITION_REPRESENTATION(#9055,#9061);
#9063=PRODUCT_CONTEXT('sub',#9000,'mechanical');
#9064=PRODUCT('HelicalSweep','HelicalSweep','',(#9063));
#9065=PRODUCT_DEFINITION_FORMATION('','',#9064);
#9066=PRODUCT_DEFINITION('design','',#9065,#9053);
#9067=NEXT_ASSEMBLY_USAGE_OCCURRENCE('1','helical_sweep_instance','',#9054,#9066,$);
ENDSEC;
END-ISO-10303-21;
