ISO-10303-21;
/* Bo031: BREP_WITH_VOIDS with a valid 10x10x10 outer CLOSED_SHELL, a valid 2x2x2 void, and a SECOND void 'failing_void_shell' -- a CLOSED_SHELL holding exactly one ADVANCED_FACE 'failing_void_face' whose face_geometry is unset ($), so that face cannot be translated and the void contributes no geometry at all. The per-void continuation of the BREP_WITH_VOIDS loop IS the mechanism under test: the solid must still be assembled from the outer shell and the surviving void, in contrast with a failed OUTER shell which is fatal (Bo001/Bo002). Both voids ARE listed in the BREP_WITH_VOIDS voids attribute; never orphaned */
HEADER;
FILE_DESCRIPTION(('Bo031'),'2;1');
FILE_NAME('Bo031.stp','2026-06-17T00:00:00',(''),(''),'cad-research-suite','','');
FILE_SCHEMA(('AUTOMOTIVE_DESIGN { 1 0 10303 214 3 1 1 }'));
ENDSEC;
DATA;
#9000=APPLICATION_CONTEXT('mechanical design');
#1=CARTESIAN_POINT('',(-5.0,-5.0,-5.0));
#2=CARTESIAN_POINT('',(5.0,-5.0,-5.0));
#3=CARTESIAN_POINT('',(5.0,5.0,-5.0));
#4=CARTESIAN_POINT('',(-5.0,5.0,-5.0));
#5=CARTESIAN_POINT('',(-5.0,-5.0,5.0));
#6=CARTESIAN_POINT('',(5.0,-5.0,5.0));
#7=CARTESIAN_POINT('',(5.0,5.0,5.0));
#8=CARTESIAN_POINT('',(-5.0,5.0,5.0));
#9=VERTEX_POINT('',#1);
#10=VERTEX_POINT('',#2);
#11=VERTEX_POINT('',#3);
#12=VERTEX_POINT('',#4);
#13=VERTEX_POINT('',#5);
#14=VERTEX_POINT('',#6);
#15=VERTEX_POINT('',#7);
#16=VERTEX_POINT('',#8);
#17=DIRECTION('',(1.0,0.0,0.0));
#18=VECTOR('',#17,10.0);
#19=LINE('',#1,#18);
#20=EDGE_CURVE('',#9,#10,#19,.T.);
#21=DIRECTION('',(0.0,1.0,0.0));
#22=VECTOR('',#21,10.0);
#23=LINE('',#2,#22);
#24=EDGE_CURVE('',#10,#11,#23,.T.);
#25=DIRECTION('',(-1.0,0.0,0.0));
#26=VECTOR('',#25,10.0);
#27=LINE('',#3,#26);
#28=EDGE_CURVE('',#11,#12,#27,.T.);
#29=DIRECTION('',(0.0,-1.0,0.0));
#30=VECTOR('',#29,10.0);
#31=LINE('',#4,#30);
#32=EDGE_CURVE('',#12,#9,#31,.T.);
#33=DIRECTION('',(0.0,0.0,1.0));
#34=VECTOR('',#33,10.0);
#35=LINE('',#1,#34);
#36=EDGE_CURVE('',#9,#13,#35,.T.);
#37=DIRECTION('',(0.0,0.0,1.0));
#38=VECTOR('',#37,10.0);
#39=LINE('',#2,#38);
#40=EDGE_CURVE('',#10,#14,#39,.T.);
#41=DIRECTION('',(0.0,0.0,1.0));
#42=VECTOR('',#41,10.0);
#43=LINE('',#3,#42);
#44=EDGE_CURVE('',#11,#15,#43,.T.);
#45=DIRECTION('',(0.0,0.0,1.0));
#46=VECTOR('',#45,10.0);
#47=LINE('',#4,#46);
#48=EDGE_CURVE('',#12,#16,#47,.T.);
#49=DIRECTION('',(1.0,0.0,0.0));
#50=VECTOR('',#49,10.0);
#51=LINE('',#5,#50);
#52=EDGE_CURVE('',#13,#14,#51,.T.);
#53=DIRECTION('',(0.0,1.0,0.0));
#54=VECTOR('',#53,10.0);
#55=LINE('',#6,#54);
#56=EDGE_CURVE('',#14,#15,#55,.T.);
#57=DIRECTION('',(-1.0,0.0,0.0));
#58=VECTOR('',#57,10.0);
#59=LINE('',#7,#58);
#60=EDGE_CURVE('',#15,#16,#59,.T.);
#61=DIRECTION('',(0.0,-1.0,0.0));
#62=VECTOR('',#61,10.0);
#63=LINE('',#8,#62);
#64=EDGE_CURVE('',#16,#13,#63,.T.);
#65=DIRECTION('',(0.0,0.0,-1.0));
#66=DIRECTION('',(1.0,0.0,0.0));
#67=AXIS2_PLACEMENT_3D('',#1,#65,#66);
#68=PLANE('',#67);
#69=ORIENTED_EDGE('',$,$,#32,.F.);
#70=ORIENTED_EDGE('',$,$,#28,.F.);
#71=ORIENTED_EDGE('',$,$,#24,.F.);
#72=ORIENTED_EDGE('',$,$,#20,.F.);
#73=EDGE_LOOP('',(#69,#70,#71,#72));
#74=FACE_OUTER_BOUND('',#73,.T.);
#75=ADVANCED_FACE('outer_bot',(#74),#68,.T.);
#76=DIRECTION('',(0.0,-1.0,0.0));
#77=DIRECTION('',(1.0,0.0,0.0));
#78=AXIS2_PLACEMENT_3D('',#1,#76,#77);
#79=PLANE('',#78);
#80=ORIENTED_EDGE('',$,$,#20,.T.);
#81=ORIENTED_EDGE('',$,$,#40,.T.);
#82=ORIENTED_EDGE('',$,$,#52,.F.);
#83=ORIENTED_EDGE('',$,$,#36,.F.);
#84=EDGE_LOOP('',(#80,#81,#82,#83));
#85=FACE_OUTER_BOUND('',#84,.T.);
#86=ADVANCED_FACE('outer_frt',(#85),#79,.T.);
#87=DIRECTION('',(1.0,0.0,0.0));
#88=DIRECTION('',(0.0,1.0,0.0));
#89=AXIS2_PLACEMENT_3D('',#2,#87,#88);
#90=PLANE('',#89);
#91=ORIENTED_EDGE('',$,$,#24,.T.);
#92=ORIENTED_EDGE('',$,$,#44,.T.);
#93=ORIENTED_EDGE('',$,$,#56,.F.);
#94=ORIENTED_EDGE('',$,$,#40,.F.);
#95=EDGE_LOOP('',(#91,#92,#93,#94));
#96=FACE_OUTER_BOUND('',#95,.T.);
#97=ADVANCED_FACE('outer_rgt',(#96),#90,.T.);
#98=DIRECTION('',(0.0,1.0,0.0));
#99=DIRECTION('',(-1.0,0.0,0.0));
#100=AXIS2_PLACEMENT_3D('',#3,#98,#99);
#101=PLANE('',#100);
#102=ORIENTED_EDGE('',$,$,#28,.T.);
#103=ORIENTED_EDGE('',$,$,#48,.T.);
#104=ORIENTED_EDGE('',$,$,#60,.F.);
#105=ORIENTED_EDGE('',$,$,#44,.F.);
#106=EDGE_LOOP('',(#102,#103,#104,#105));
#107=FACE_OUTER_BOUND('',#106,.T.);
#108=ADVANCED_FACE('outer_bck',(#107),#101,.T.);
#109=DIRECTION('',(-1.0,0.0,0.0));
#110=DIRECTION('',(0.0,-1.0,0.0));
#111=AXIS2_PLACEMENT_3D('',#1,#109,#110);
#112=PLANE('',#111);
#113=ORIENTED_EDGE('',$,$,#32,.T.);
#114=ORIENTED_EDGE('',$,$,#36,.T.);
#115=ORIENTED_EDGE('',$,$,#64,.F.);
#116=ORIENTED_EDGE('',$,$,#48,.F.);
#117=EDGE_LOOP('',(#113,#114,#115,#116));
#118=FACE_OUTER_BOUND('',#117,.T.);
#119=ADVANCED_FACE('outer_lft',(#118),#112,.T.);
#120=DIRECTION('',(0.0,0.0,1.0));
#121=DIRECTION('',(1.0,0.0,0.0));
#122=AXIS2_PLACEMENT_3D('',#5,#120,#121);
#123=PLANE('',#122);
#124=ORIENTED_EDGE('',$,$,#52,.T.);
#125=ORIENTED_EDGE('',$,$,#56,.T.);
#126=ORIENTED_EDGE('',$,$,#60,.T.);
#127=ORIENTED_EDGE('',$,$,#64,.T.);
#128=EDGE_LOOP('',(#124,#125,#126,#127));
#129=FACE_OUTER_BOUND('',#128,.T.);
#130=ADVANCED_FACE('outer_top',(#129),#123,.T.);
#131=CLOSED_SHELL('outer',(#75,#86,#97,#108,#119,#130));
#132=CARTESIAN_POINT('',(-2.0,-2.0,-2.0));
#133=CARTESIAN_POINT('',(0.0,-2.0,-2.0));
#134=CARTESIAN_POINT('',(0.0,0.0,-2.0));
#135=CARTESIAN_POINT('',(-2.0,0.0,-2.0));
#136=CARTESIAN_POINT('',(-2.0,-2.0,0.0));
#137=CARTESIAN_POINT('',(0.0,-2.0,0.0));
#138=CARTESIAN_POINT('',(0.0,0.0,0.0));
#139=CARTESIAN_POINT('',(-2.0,0.0,0.0));
#140=VERTEX_POINT('',#132);
#141=VERTEX_POINT('',#133);
#142=VERTEX_POINT('',#134);
#143=VERTEX_POINT('',#135);
#144=VERTEX_POINT('',#136);
#145=VERTEX_POINT('',#137);
#146=VERTEX_POINT('',#138);
#147=VERTEX_POINT('',#139);
#148=DIRECTION('',(1.0,0.0,0.0));
#149=VECTOR('',#148,2.0);
#150=LINE('',#132,#149);
#151=EDGE_CURVE('',#140,#141,#150,.T.);
#152=DIRECTION('',(0.0,1.0,0.0));
#153=VECTOR('',#152,2.0);
#154=LINE('',#133,#153);
#155=EDGE_CURVE('',#141,#142,#154,.T.);
#156=DIRECTION('',(-1.0,0.0,0.0));
#157=VECTOR('',#156,2.0);
#158=LINE('',#134,#157);
#159=EDGE_CURVE('',#142,#143,#158,.T.);
#160=DIRECTION('',(0.0,-1.0,0.0));
#161=VECTOR('',#160,2.0);
#162=LINE('',#135,#161);
#163=EDGE_CURVE('',#143,#140,#162,.T.);
#164=DIRECTION('',(0.0,0.0,1.0));
#165=VECTOR('',#164,2.0);
#166=LINE('',#132,#165);
#167=EDGE_CURVE('',#140,#144,#166,.T.);
#168=DIRECTION('',(0.0,0.0,1.0));
#169=VECTOR('',#168,2.0);
#170=LINE('',#133,#169);
#171=EDGE_CURVE('',#141,#145,#170,.T.);
#172=DIRECTION('',(0.0,0.0,1.0));
#173=VECTOR('',#172,2.0);
#174=LINE('',#134,#173);
#175=EDGE_CURVE('',#142,#146,#174,.T.);
#176=DIRECTION('',(0.0,0.0,1.0));
#177=VECTOR('',#176,2.0);
#178=LINE('',#135,#177);
#179=EDGE_CURVE('',#143,#147,#178,.T.);
#180=DIRECTION('',(1.0,0.0,0.0));
#181=VECTOR('',#180,2.0);
#182=LINE('',#136,#181);
#183=EDGE_CURVE('',#144,#145,#182,.T.);
#184=DIRECTION('',(0.0,1.0,0.0));
#185=VECTOR('',#184,2.0);
#186=LINE('',#137,#185);
#187=EDGE_CURVE('',#145,#146,#186,.T.);
#188=DIRECTION('',(-1.0,0.0,0.0));
#189=VECTOR('',#188,2.0);
#190=LINE('',#138,#189);
#191=EDGE_CURVE('',#146,#147,#190,.T.);
#192=DIRECTION('',(0.0,-1.0,0.0));
#193=VECTOR('',#192,2.0);
#194=LINE('',#139,#193);
#195=EDGE_CURVE('',#147,#144,#194,.T.);
#196=DIRECTION('',(0.0,0.0,-1.0));
#197=DIRECTION('',(1.0,0.0,0.0));
#198=AXIS2_PLACEMENT_3D('',#132,#196,#197);
#199=PLANE('',#198);
#200=ORIENTED_EDGE('',$,$,#163,.F.);
#201=ORIENTED_EDGE('',$,$,#159,.F.);
#202=ORIENTED_EDGE('',$,$,#155,.F.);
#203=ORIENTED_EDGE('',$,$,#151,.F.);
#204=EDGE_LOOP('',(#200,#201,#202,#203));
#205=FACE_OUTER_BOUND('',#204,.T.);
#206=ADVANCED_FACE('good_void_bot',(#205),#199,.T.);
#207=DIRECTION('',(0.0,-1.0,0.0));
#208=DIRECTION('',(1.0,0.0,0.0));
#209=AXIS2_PLACEMENT_3D('',#132,#207,#208);
#210=PLANE('',#209);
#211=ORIENTED_EDGE('',$,$,#151,.T.);
#212=ORIENTED_EDGE('',$,$,#171,.T.);
#213=ORIENTED_EDGE('',$,$,#183,.F.);
#214=ORIENTED_EDGE('',$,$,#167,.F.);
#215=EDGE_LOOP('',(#211,#212,#213,#214));
#216=FACE_OUTER_BOUND('',#215,.T.);
#217=ADVANCED_FACE('good_void_frt',(#216),#210,.T.);
#218=DIRECTION('',(1.0,0.0,0.0));
#219=DIRECTION('',(0.0,1.0,0.0));
#220=AXIS2_PLACEMENT_3D('',#133,#218,#219);
#221=PLANE('',#220);
#222=ORIENTED_EDGE('',$,$,#155,.T.);
#223=ORIENTED_EDGE('',$,$,#175,.T.);
#224=ORIENTED_EDGE('',$,$,#187,.F.);
#225=ORIENTED_EDGE('',$,$,#171,.F.);
#226=EDGE_LOOP('',(#222,#223,#224,#225));
#227=FACE_OUTER_BOUND('',#226,.T.);
#228=ADVANCED_FACE('good_void_rgt',(#227),#221,.T.);
#229=DIRECTION('',(0.0,1.0,0.0));
#230=DIRECTION('',(-1.0,0.0,0.0));
#231=AXIS2_PLACEMENT_3D('',#134,#229,#230);
#232=PLANE('',#231);
#233=ORIENTED_EDGE('',$,$,#159,.T.);
#234=ORIENTED_EDGE('',$,$,#179,.T.);
#235=ORIENTED_EDGE('',$,$,#191,.F.);
#236=ORIENTED_EDGE('',$,$,#175,.F.);
#237=EDGE_LOOP('',(#233,#234,#235,#236));
#238=FACE_OUTER_BOUND('',#237,.T.);
#239=ADVANCED_FACE('good_void_bck',(#238),#232,.T.);
#240=DIRECTION('',(-1.0,0.0,0.0));
#241=DIRECTION('',(0.0,-1.0,0.0));
#242=AXIS2_PLACEMENT_3D('',#132,#240,#241);
#243=PLANE('',#242);
#244=ORIENTED_EDGE('',$,$,#163,.T.);
#245=ORIENTED_EDGE('',$,$,#167,.T.);
#246=ORIENTED_EDGE('',$,$,#195,.F.);
#247=ORIENTED_EDGE('',$,$,#179,.F.);
#248=EDGE_LOOP('',(#244,#245,#246,#247));
#249=FACE_OUTER_BOUND('',#248,.T.);
#250=ADVANCED_FACE('good_void_lft',(#249),#243,.T.);
#251=DIRECTION('',(0.0,0.0,1.0));
#252=DIRECTION('',(1.0,0.0,0.0));
#253=AXIS2_PLACEMENT_3D('',#136,#251,#252);
#254=PLANE('',#253);
#255=ORIENTED_EDGE('',$,$,#183,.T.);
#256=ORIENTED_EDGE('',$,$,#187,.T.);
#257=ORIENTED_EDGE('',$,$,#191,.T.);
#258=ORIENTED_EDGE('',$,$,#195,.T.);
#259=EDGE_LOOP('',(#255,#256,#257,#258));
#260=FACE_OUTER_BOUND('',#259,.T.);
#261=ADVANCED_FACE('good_void_top',(#260),#254,.T.);
#262=CLOSED_SHELL('good_void',(#206,#217,#228,#239,#250,#261));
#263=CARTESIAN_POINT('',(1.0,1.0,1.0));
#264=VERTEX_POINT('',#263);
#265=DIRECTION('',(1.0,0.0,0.0));
#266=VECTOR('',#265,1.0);
#267=LINE('',#263,#266);
#268=EDGE_CURVE('failing_void_edge',#264,#264,#267,.T.);
#269=ORIENTED_EDGE('',$,$,#268,.T.);
#270=EDGE_LOOP('',(#269));
#271=FACE_OUTER_BOUND('',#270,.T.);
#272=ADVANCED_FACE('failing_void_face',(#271),$,.T.);
#273=CLOSED_SHELL('failing_void_shell',(#272));
#274=ORIENTED_CLOSED_SHELL('',*,#262,.F.);
#275=ORIENTED_CLOSED_SHELL('',*,#273,.F.);
#276=BREP_WITH_VOIDS('bo031_body',#131,(#274,#275));
#9050=PRODUCT_CONTEXT('',#9000,'mechanical');
#9051=PRODUCT('Bo031','Bo031','',(#9050));
#9052=PRODUCT_DEFINITION_FORMATION('','',#9051);
#9053=PRODUCT_DEFINITION_CONTEXT('part definition',#9000,'design');
#9054=PRODUCT_DEFINITION('','','',#9052,#9053);
#9055=PRODUCT_DEFINITION_SHAPE('','','',#9054);
#9056=(LENGTH_UNIT()NAMED_UNIT(*)SI_UNIT(.MILLI.,.METRE.));
#9057=(NAMED_UNIT(*)PLANE_ANGLE_UNIT()SI_UNIT($,.RADIAN.));
#9058=(NAMED_UNIT(*)SI_UNIT($,.STERADIAN.)SOLID_ANGLE_UNIT());
#9059=UNCERTAINTY_MEASURE_WITH_UNIT(LENGTH_MEASURE(1.0E-7),#9056,'distance_accuracy_value','');
#9060=(GEOMETRIC_REPRESENTATION_CONTEXT(3)GLOBAL_UNCERTAINTY_ASSIGNED_CONTEXT((#9059))GLOBAL_UNIT_ASSIGNED_CONTEXT((#9056,#9057,#9058))REPRESENTATION_CONTEXT('','3D'));
#9061=ADVANCED_BREP_SHAPE_REPRESENTATION('',(#276),#9060);
#9062=SHAPE_DEFINITION_REPRESENTATION(#9055,#9061);
ENDSEC;
END-ISO-10303-21;
