/* Ps005 - Two MANIFOLD_SOLID_BREPs occupying identical space in one SHAPE_REPRESENTATION - kernel accepts file silently; tier-3 introspection reveals duplicate body at same location */
ISO-10303-21;
HEADER;
FILE_DESCRIPTION(('Ps005 pathological-success','Hidden duplicate solid bodies'),'2;1');
FILE_NAME('Ps005.stp','2026-04-26T00:00:00',(''),(''),'manual','','');
FILE_SCHEMA(('AUTOMOTIVE_DESIGN { 1 0 10303 214 1 1 1 1 }'));
ENDSEC;
DATA;
#1=APPLICATION_CONTEXT('automotive_design');
#2=APPLICATION_PROTOCOL_DEFINITION('international standard','automotive_design',2000,#1);
/* First cube body */
#100=CARTESIAN_POINT('',(0.0,0.0,0.0));
#101=CARTESIAN_POINT('',(1.0,0.0,0.0));
#102=CARTESIAN_POINT('',(1.0,1.0,0.0));
#103=CARTESIAN_POINT('',(0.0,1.0,0.0));
#104=CARTESIAN_POINT('',(0.0,0.0,1.0));
#105=CARTESIAN_POINT('',(1.0,0.0,1.0));
#106=CARTESIAN_POINT('',(1.0,1.0,1.0));
#107=CARTESIAN_POINT('',(0.0,1.0,1.0));
#110=VERTEX_POINT('',#100); #111=VERTEX_POINT('',#101);
#112=VERTEX_POINT('',#102); #113=VERTEX_POINT('',#103);
#114=VERTEX_POINT('',#104); #115=VERTEX_POINT('',#105);
#116=VERTEX_POINT('',#106); #117=VERTEX_POINT('',#107);
#200=DIRECTION('',(0.0,0.0,1.0)); #201=DIRECTION('',(1.0,0.0,0.0));
#211=AXIS2_PLACEMENT_3D('',#100,#200,#201); #212=PLANE('',#211);
#221=AXIS2_PLACEMENT_3D('',#104,#200,#201); #222=PLANE('',#221);
#231=DIRECTION('',(0.0,1.0,0.0)); #232=AXIS2_PLACEMENT_3D('',#100,#231,#201); #233=PLANE('',#232);
#242=AXIS2_PLACEMENT_3D('',#103,#231,#201); #243=PLANE('',#242);
#252=DIRECTION('',(1.0,0.0,0.0)); #253=AXIS2_PLACEMENT_3D('',#100,#252,#231); #254=PLANE('',#253);
#262=AXIS2_PLACEMENT_3D('',#101,#252,#231); #263=PLANE('',#262);
#300=DIRECTION('',(1.0,0.0,0.0)); #301=VECTOR('',#300,1.0);
#302=DIRECTION('',(0.0,1.0,0.0)); #303=VECTOR('',#302,1.0);
#304=DIRECTION('',(0.0,0.0,1.0)); #305=VECTOR('',#304,1.0);
#310=LINE('',#100,#301); #311=EDGE_CURVE('',#110,#111,#310,.T.);
#312=LINE('',#101,#303); #313=EDGE_CURVE('',#111,#112,#312,.T.);
#314=LINE('',#103,#301); #315=EDGE_CURVE('',#113,#112,#314,.T.);
#316=LINE('',#100,#303); #317=EDGE_CURVE('',#110,#113,#316,.T.);
#318=LINE('',#104,#301); #319=EDGE_CURVE('',#114,#115,#318,.T.);
#320=LINE('',#105,#303); #321=EDGE_CURVE('',#115,#116,#320,.T.);
#322=LINE('',#107,#301); #323=EDGE_CURVE('',#117,#116,#322,.T.);
#324=LINE('',#104,#303); #325=EDGE_CURVE('',#114,#117,#324,.T.);
#326=LINE('',#100,#305); #327=EDGE_CURVE('',#110,#114,#326,.T.);
#328=LINE('',#101,#305); #329=EDGE_CURVE('',#111,#115,#328,.T.);
#330=LINE('',#102,#305); #331=EDGE_CURVE('',#112,#116,#330,.T.);
#332=LINE('',#103,#305); #333=EDGE_CURVE('',#113,#117,#332,.T.);
#400=ORIENTED_EDGE('',*,*,#311,.F.); #401=ORIENTED_EDGE('',*,*,#317,.T.);
#402=ORIENTED_EDGE('',*,*,#315,.F.); #403=ORIENTED_EDGE('',*,*,#313,.F.);
#404=EDGE_LOOP('',(#400,#401,#402,#403)); #405=FACE_OUTER_BOUND('',#404,.T.);
#406=ADVANCED_FACE('',(#405),#212,.F.);
#410=ORIENTED_EDGE('',*,*,#319,.T.); #411=ORIENTED_EDGE('',*,*,#321,.T.);
#412=ORIENTED_EDGE('',*,*,#323,.F.); #413=ORIENTED_EDGE('',*,*,#325,.F.);
#414=EDGE_LOOP('',(#410,#411,#412,#413)); #415=FACE_OUTER_BOUND('',#414,.T.);
#416=ADVANCED_FACE('',(#415),#222,.T.);
#420=ORIENTED_EDGE('',*,*,#311,.T.); #421=ORIENTED_EDGE('',*,*,#329,.T.);
#422=ORIENTED_EDGE('',*,*,#319,.F.); #423=ORIENTED_EDGE('',*,*,#327,.F.);
#424=EDGE_LOOP('',(#420,#421,#422,#423)); #425=FACE_OUTER_BOUND('',#424,.T.);
#426=ADVANCED_FACE('',(#425),#233,.F.);
#430=ORIENTED_EDGE('',*,*,#315,.T.); #431=ORIENTED_EDGE('',*,*,#331,.T.);
#432=ORIENTED_EDGE('',*,*,#323,.F.); #433=ORIENTED_EDGE('',*,*,#333,.F.);
#434=EDGE_LOOP('',(#430,#431,#432,#433)); #435=FACE_OUTER_BOUND('',#434,.T.);
#436=ADVANCED_FACE('',(#435),#243,.T.);
#440=ORIENTED_EDGE('',*,*,#317,.T.); #441=ORIENTED_EDGE('',*,*,#333,.T.);
#442=ORIENTED_EDGE('',*,*,#325,.F.); #443=ORIENTED_EDGE('',*,*,#327,.F.);
#444=EDGE_LOOP('',(#440,#441,#442,#443)); #445=FACE_OUTER_BOUND('',#444,.T.);
#446=ADVANCED_FACE('',(#445),#254,.F.);
#450=ORIENTED_EDGE('',*,*,#313,.T.); #451=ORIENTED_EDGE('',*,*,#331,.T.);
#452=ORIENTED_EDGE('',*,*,#321,.F.); #453=ORIENTED_EDGE('',*,*,#329,.F.);
#454=EDGE_LOOP('',(#450,#451,#452,#453)); #455=FACE_OUTER_BOUND('',#454,.T.);
#456=ADVANCED_FACE('',(#455),#263,.T.);
#500=CLOSED_SHELL('cube_shell_A',(#406,#416,#426,#436,#446,#456));
#510=MANIFOLD_SOLID_BREP('cube_A',#500);
/* DEFECT: a SECOND, separately-instanced solid occupying the same
   coordinate space as #510. Faces, edges, vertices, surfaces are
   freshly numbered but identical in geometry. The producer's intent
   was a single cube; an export bug emitted the body twice and the
   SHAPE_REPRESENTATION below references both. The kernel sees two
   solids; downstream BOM, mass-properties, and Boolean ops will
   double-count. */
#700=CARTESIAN_POINT('',(0.0,0.0,0.0));
#701=CARTESIAN_POINT('',(1.0,0.0,0.0));
#702=CARTESIAN_POINT('',(1.0,1.0,0.0));
#703=CARTESIAN_POINT('',(0.0,1.0,0.0));
#704=CARTESIAN_POINT('',(0.0,0.0,1.0));
#705=CARTESIAN_POINT('',(1.0,0.0,1.0));
#706=CARTESIAN_POINT('',(1.0,1.0,1.0));
#707=CARTESIAN_POINT('',(0.0,1.0,1.0));
#710=VERTEX_POINT('',#700); #711=VERTEX_POINT('',#701);
#712=VERTEX_POINT('',#702); #713=VERTEX_POINT('',#703);
#714=VERTEX_POINT('',#704); #715=VERTEX_POINT('',#705);
#716=VERTEX_POINT('',#706); #717=VERTEX_POINT('',#707);
#810=AXIS2_PLACEMENT_3D('',#700,#200,#201); #812=PLANE('',#810);
#820=AXIS2_PLACEMENT_3D('',#704,#200,#201); #822=PLANE('',#820);
#830=AXIS2_PLACEMENT_3D('',#700,#231,#201); #832=PLANE('',#830);
#840=AXIS2_PLACEMENT_3D('',#703,#231,#201); #842=PLANE('',#840);
#850=AXIS2_PLACEMENT_3D('',#700,#252,#231); #852=PLANE('',#850);
#860=AXIS2_PLACEMENT_3D('',#701,#252,#231); #862=PLANE('',#860);
#910=LINE('',#700,#301); #911=EDGE_CURVE('',#710,#711,#910,.T.);
#912=LINE('',#701,#303); #913=EDGE_CURVE('',#711,#712,#912,.T.);
#914=LINE('',#703,#301); #915=EDGE_CURVE('',#713,#712,#914,.T.);
#916=LINE('',#700,#303); #917=EDGE_CURVE('',#710,#713,#916,.T.);
#918=LINE('',#704,#301); #919=EDGE_CURVE('',#714,#715,#918,.T.);
#920=LINE('',#705,#303); #921=EDGE_CURVE('',#715,#716,#920,.T.);
#922=LINE('',#707,#301); #923=EDGE_CURVE('',#717,#716,#922,.T.);
#924=LINE('',#704,#303); #925=EDGE_CURVE('',#714,#717,#924,.T.);
#926=LINE('',#700,#305); #927=EDGE_CURVE('',#710,#714,#926,.T.);
#928=LINE('',#701,#305); #929=EDGE_CURVE('',#711,#715,#928,.T.);
#930=LINE('',#702,#305); #931=EDGE_CURVE('',#712,#716,#930,.T.);
#932=LINE('',#703,#305); #933=EDGE_CURVE('',#713,#717,#932,.T.);
#1000=ORIENTED_EDGE('',*,*,#911,.F.); #1001=ORIENTED_EDGE('',*,*,#917,.T.);
#1002=ORIENTED_EDGE('',*,*,#915,.F.); #1003=ORIENTED_EDGE('',*,*,#913,.F.);
#1004=EDGE_LOOP('',(#1000,#1001,#1002,#1003)); #1005=FACE_OUTER_BOUND('',#1004,.T.);
#1006=ADVANCED_FACE('',(#1005),#812,.F.);
#1010=ORIENTED_EDGE('',*,*,#919,.T.); #1011=ORIENTED_EDGE('',*,*,#921,.T.);
#1012=ORIENTED_EDGE('',*,*,#923,.F.); #1013=ORIENTED_EDGE('',*,*,#925,.F.);
#1014=EDGE_LOOP('',(#1010,#1011,#1012,#1013)); #1015=FACE_OUTER_BOUND('',#1014,.T.);
#1016=ADVANCED_FACE('',(#1015),#822,.T.);
#1020=ORIENTED_EDGE('',*,*,#911,.T.); #1021=ORIENTED_EDGE('',*,*,#929,.T.);
#1022=ORIENTED_EDGE('',*,*,#919,.F.); #1023=ORIENTED_EDGE('',*,*,#927,.F.);
#1024=EDGE_LOOP('',(#1020,#1021,#1022,#1023)); #1025=FACE_OUTER_BOUND('',#1024,.T.);
#1026=ADVANCED_FACE('',(#1025),#832,.F.);
#1030=ORIENTED_EDGE('',*,*,#915,.T.); #1031=ORIENTED_EDGE('',*,*,#931,.T.);
#1032=ORIENTED_EDGE('',*,*,#923,.F.); #1033=ORIENTED_EDGE('',*,*,#933,.F.);
#1034=EDGE_LOOP('',(#1030,#1031,#1032,#1033)); #1035=FACE_OUTER_BOUND('',#1034,.T.);
#1036=ADVANCED_FACE('',(#1035),#842,.T.);
#1040=ORIENTED_EDGE('',*,*,#917,.T.); #1041=ORIENTED_EDGE('',*,*,#933,.T.);
#1042=ORIENTED_EDGE('',*,*,#925,.F.); #1043=ORIENTED_EDGE('',*,*,#927,.F.);
#1044=EDGE_LOOP('',(#1040,#1041,#1042,#1043)); #1045=FACE_OUTER_BOUND('',#1044,.T.);
#1046=ADVANCED_FACE('',(#1045),#852,.F.);
#1050=ORIENTED_EDGE('',*,*,#913,.T.); #1051=ORIENTED_EDGE('',*,*,#931,.T.);
#1052=ORIENTED_EDGE('',*,*,#921,.F.); #1053=ORIENTED_EDGE('',*,*,#929,.F.);
#1054=EDGE_LOOP('',(#1050,#1051,#1052,#1053)); #1055=FACE_OUTER_BOUND('',#1054,.T.);
#1056=ADVANCED_FACE('',(#1055),#862,.T.);
#1100=CLOSED_SHELL('cube_shell_B',(#1006,#1016,#1026,#1036,#1046,#1056));
#1110=MANIFOLD_SOLID_BREP('cube_B_duplicate',#1100);
/* SHAPE_REPRESENTATION lists BOTH solids -- kernel sees two bodies
   at the same location; producer thought this was one body. */
#9000=PRODUCT_CONTEXT('',#1,'mechanical');
#9001=PRODUCT('Ps005','Ps005','',(#9000));
#9002=PRODUCT_DEFINITION_FORMATION('','',#9001);
#9003=PRODUCT_DEFINITION_CONTEXT('part definition',#1,'design');
#9004=PRODUCT_DEFINITION('','',#9002,#9003);
#9005=PRODUCT_DEFINITION_SHAPE('','',#9004);
#9006=(LENGTH_UNIT()NAMED_UNIT(*)SI_UNIT(.MILLI.,.METRE.));
#9007=(NAMED_UNIT(*)PLANE_ANGLE_UNIT()SI_UNIT($,.RADIAN.));
#9008=(NAMED_UNIT(*)SI_UNIT($,.STERADIAN.)SOLID_ANGLE_UNIT());
#9009=UNCERTAINTY_MEASURE_WITH_UNIT(LENGTH_MEASURE(1.0E-7),#9006,'distance_accuracy_value','');
#9010=(GEOMETRIC_REPRESENTATION_CONTEXT(3)GLOBAL_UNCERTAINTY_ASSIGNED_CONTEXT((#9009))GLOBAL_UNIT_ASSIGNED_CONTEXT((#9006,#9007,#9008))REPRESENTATION_CONTEXT('','3D'));
#9022=ADVANCED_BREP_SHAPE_REPRESENTATION('',(#510,#1110),#9010);
#9023=SHAPE_DEFINITION_REPRESENTATION(#9005,#9022);
ENDSEC;
END-ISO-10303-21;
