ISO-10303-21;
/* Tsh076 - ShapeFix_Shell shell-count escalation
 * Defect: Input shell decomposes into 3+ closed sub-shells when
 * FixFaceOrientation runs GetShells(); NbShells count escalates
 * unexpectedly, breaking downstream orientation logic assuming
 * single output shell. Source: ShapeFix_Shell.Perform line 102
 * (Perform_at102). */
HEADER;
FILE_DESCRIPTION(('Tsh076 test case','Shell decomposition escalation'),'2;1');
FILE_NAME('Tsh076.stp','2026-06-16T00:00:00',('auto-generated'),(''),'auto-generated','','');
FILE_SCHEMA(('AUTOMOTIVE_DESIGN { 1 0 10303 214 3 1 1 }'));
ENDSEC;
DATA;
#1=APPLICATION_CONTEXT('automotive_design');
#2=APPLICATION_PROTOCOL_DEFINITION('international standard','automotive_design',2000,#1);
/* Three disconnected cubes in one shell: will decompose into 3 sub-shells */
/* Cube 1: (0,0,0) to (1,1,1) */
#100=CARTESIAN_POINT('',(0.0,0.0,0.0));
#101=CARTESIAN_POINT('',(1.0,0.0,0.0));
#102=CARTESIAN_POINT('',(1.0,1.0,0.0));
#103=CARTESIAN_POINT('',(0.0,1.0,0.0));
#104=CARTESIAN_POINT('',(0.0,0.0,1.0));
#105=CARTESIAN_POINT('',(1.0,0.0,1.0));
#106=CARTESIAN_POINT('',(1.0,1.0,1.0));
#107=CARTESIAN_POINT('',(0.0,1.0,1.0));
/* Cube 2: (3,0,0) to (4,1,1) */
#110=CARTESIAN_POINT('',(3.0,0.0,0.0));
#111=CARTESIAN_POINT('',(4.0,0.0,0.0));
#112=CARTESIAN_POINT('',(4.0,1.0,0.0));
#113=CARTESIAN_POINT('',(3.0,1.0,0.0));
#114=CARTESIAN_POINT('',(3.0,0.0,1.0));
#115=CARTESIAN_POINT('',(4.0,0.0,1.0));
#116=CARTESIAN_POINT('',(4.0,1.0,1.0));
#117=CARTESIAN_POINT('',(3.0,1.0,1.0));
/* Cube 3: (6,0,0) to (7,1,1) */
#120=CARTESIAN_POINT('',(6.0,0.0,0.0));
#121=CARTESIAN_POINT('',(7.0,0.0,0.0));
#122=CARTESIAN_POINT('',(7.0,1.0,0.0));
#123=CARTESIAN_POINT('',(6.0,1.0,0.0));
#124=CARTESIAN_POINT('',(6.0,0.0,1.0));
#125=CARTESIAN_POINT('',(7.0,0.0,1.0));
#126=CARTESIAN_POINT('',(7.0,1.0,1.0));
#127=CARTESIAN_POINT('',(6.0,1.0,1.0));
/* Cube 1 vertices */
#200=VERTEX_POINT('',#100); #201=VERTEX_POINT('',#101);
#202=VERTEX_POINT('',#102); #203=VERTEX_POINT('',#103);
#204=VERTEX_POINT('',#104); #205=VERTEX_POINT('',#105);
#206=VERTEX_POINT('',#106); #207=VERTEX_POINT('',#107);
/* Cube 2 vertices */
#210=VERTEX_POINT('',#110); #211=VERTEX_POINT('',#111);
#212=VERTEX_POINT('',#112); #213=VERTEX_POINT('',#113);
#214=VERTEX_POINT('',#114); #215=VERTEX_POINT('',#115);
#216=VERTEX_POINT('',#116); #217=VERTEX_POINT('',#117);
/* Cube 3 vertices */
#220=VERTEX_POINT('',#120); #221=VERTEX_POINT('',#121);
#222=VERTEX_POINT('',#122); #223=VERTEX_POINT('',#123);
#224=VERTEX_POINT('',#124); #225=VERTEX_POINT('',#125);
#226=VERTEX_POINT('',#126); #227=VERTEX_POINT('',#127);
/* Planes for each cube (z=0, z=1, and sides) */
#300=DIRECTION('',(0.0,0.0,1.0)); #301=DIRECTION('',(1.0,0.0,0.0));
#310=AXIS2_PLACEMENT_3D('',#100,#300,#301); #311=PLANE('',#310);
#320=AXIS2_PLACEMENT_3D('',#104,#300,#301); #321=PLANE('',#320);
/* One face per cube (minimal) - bottom face */
/* Cube 1 bottom */
#1000=DIRECTION('',(1.0,0.0,0.0)); #1001=VECTOR('',#1000,1.0);
#1002=DIRECTION('',(0.0,1.0,0.0)); #1003=VECTOR('',#1002,1.0);
#1010=LINE('',#100,#1001); #1011=EDGE_CURVE('',#200,#201,#1010,.T.);
#1012=LINE('',#101,#1003); #1013=EDGE_CURVE('',#201,#202,#1012,.T.);
#1014=LINE('',#103,#1001); #1015=EDGE_CURVE('',#203,#202,#1014,.T.);
#1016=LINE('',#100,#1003); #1017=EDGE_CURVE('',#200,#203,#1016,.T.);
#1020=ORIENTED_EDGE('',*,*,#1011,.T.); #1021=ORIENTED_EDGE('',*,*,#1013,.T.);
#1022=ORIENTED_EDGE('',*,*,#1015,.F.); #1023=ORIENTED_EDGE('',*,*,#1017,.F.);
#1024=EDGE_LOOP('',(#1020,#1021,#1022,#1023)); #1025=FACE_OUTER_BOUND('',#1024,.T.);
#1026=ADVANCED_FACE('face_c1',(#1025),#311,.T.);
/* Cube 2 bottom */
#1100=LINE('',#110,#1001); #1101=EDGE_CURVE('',#210,#211,#1100,.T.);
#1102=LINE('',#111,#1003); #1103=EDGE_CURVE('',#211,#212,#1102,.T.);
#1104=LINE('',#113,#1001); #1105=EDGE_CURVE('',#213,#212,#1104,.T.);
#1106=LINE('',#110,#1003); #1107=EDGE_CURVE('',#210,#213,#1106,.T.);
#1110=ORIENTED_EDGE('',*,*,#1101,.T.); #1111=ORIENTED_EDGE('',*,*,#1103,.T.);
#1112=ORIENTED_EDGE('',*,*,#1105,.F.); #1113=ORIENTED_EDGE('',*,*,#1107,.F.);
#1114=EDGE_LOOP('',(#1110,#1111,#1112,#1113)); #1115=FACE_OUTER_BOUND('',#1114,.T.);
#1116=ADVANCED_FACE('face_c2',(#1115),#311,.T.);
/* Cube 3 bottom */
#1200=LINE('',#120,#1001); #1201=EDGE_CURVE('',#220,#221,#1200,.T.);
#1202=LINE('',#121,#1003); #1203=EDGE_CURVE('',#221,#222,#1202,.T.);
#1204=LINE('',#123,#1001); #1205=EDGE_CURVE('',#223,#222,#1204,.T.);
#1206=LINE('',#120,#1003); #1207=EDGE_CURVE('',#220,#223,#1206,.T.);
#1210=ORIENTED_EDGE('',*,*,#1201,.T.); #1211=ORIENTED_EDGE('',*,*,#1203,.T.);
#1212=ORIENTED_EDGE('',*,*,#1205,.F.); #1213=ORIENTED_EDGE('',*,*,#1207,.F.);
#1214=EDGE_LOOP('',(#1210,#1211,#1212,#1213)); #1215=FACE_OUTER_BOUND('',#1214,.T.);
#1216=ADVANCED_FACE('face_c3',(#1215),#311,.T.);
/* Defect: all three disconnected cubes in one shell - will decompose to 3 sub-shells */
#2000=CLOSED_SHELL('shell_3cubes',(#1026,#1116,#1216));
/* PRODUCT chain */
#9000=PRODUCT_CONTEXT('',#1,'mechanical');
#9001=PRODUCT('Tsh076','Tsh076','',(#9000));
#9002=PRODUCT_DEFINITION_FORMATION('','',#9001);
#9003=PRODUCT_DEFINITION_CONTEXT('part definition',#1,'design');
#9004=PRODUCT_DEFINITION('','',#9002,#9003);
#9005=PRODUCT_DEFINITION_SHAPE('','',#9004);
#9006=(LENGTH_UNIT()NAMED_UNIT(*)SI_UNIT(.MILLI.,.METRE.));
#9007=(NAMED_UNIT(*)PLANE_ANGLE_UNIT()SI_UNIT($,.RADIAN.));
#9008=(NAMED_UNIT(*)SI_UNIT($,.STERADIAN.)SOLID_ANGLE_UNIT());
#9009=UNCERTAINTY_MEASURE_WITH_UNIT(LENGTH_MEASURE(1.0E-7),#9006,'distance_accuracy_value','');
#9010=(GEOMETRIC_REPRESENTATION_CONTEXT(3)GLOBAL_UNCERTAINTY_ASSIGNED_CONTEXT((#9009))GLOBAL_UNIT_ASSIGNED_CONTEXT((#9006,#9007,#9008))REPRESENTATION_CONTEXT('','3D'));
#9021=SHELL_BASED_SURFACE_MODEL('sbsm',(#2000));
#9022=MANIFOLD_SURFACE_SHAPE_REPRESENTATION('',(#9021),#9010);
#9023=SHAPE_DEFINITION_REPRESENTATION(#9005,#9022);
ENDSEC;
END-ISO-10303-21;
