ISO-10303-21;
/* Tsh019: MANIFOLD_SOLID_BREP whose CLOSED_SHELL contains an EDGE_CURVE shared by 4 FACE_BOUND chains (two cubes joined at a common edge); non-manifold edge IS wired into shell/face topology; OCCT silently accepts; strict receivers must reject or reclassify */
HEADER;
FILE_DESCRIPTION(('Tsh019'),'2;1');
FILE_NAME('Tsh019.stp','2026-06-17T00:00:00',(''),(''),'cad-research-suite','','');
FILE_SCHEMA(('AUTOMOTIVE_DESIGN { 1 0 10303 214 3 1 1 }'));
ENDSEC;
DATA;
#9000=APPLICATION_CONTEXT('mechanical design');
#1=CARTESIAN_POINT('',(1.0,0.0,0.0));
#2=CARTESIAN_POINT('',(1.0,0.0,1.0));
#3=VERTEX_POINT('',#1);
#4=VERTEX_POINT('',#2);
#5=DIRECTION('',(0.0,0.0,1.0));
#6=VECTOR('',#5,1.0);
#7=LINE('',#1,#6);
#8=EDGE_CURVE('',#3,#4,#7,.T.);
#9=CARTESIAN_POINT('',(0.0,0.0,0.0));
#10=CARTESIAN_POINT('',(0.0,1.0,0.0));
#11=CARTESIAN_POINT('',(1.0,1.0,0.0));
#12=CARTESIAN_POINT('',(0.0,0.0,1.0));
#13=CARTESIAN_POINT('',(0.0,1.0,1.0));
#14=CARTESIAN_POINT('',(1.0,1.0,1.0));
#15=VERTEX_POINT('',#9);
#16=VERTEX_POINT('',#10);
#17=VERTEX_POINT('',#11);
#18=VERTEX_POINT('',#12);
#19=VERTEX_POINT('',#13);
#20=VERTEX_POINT('',#14);
#21=DIRECTION('',(0.0,1.0,0.0));
#22=VECTOR('',#21,1.0);
#23=LINE('',#9,#22);
#24=EDGE_CURVE('',#15,#16,#23,.T.);
#25=DIRECTION('',(1.0,0.0,0.0));
#26=VECTOR('',#25,1.0);
#27=LINE('',#10,#26);
#28=EDGE_CURVE('',#16,#17,#27,.T.);
#29=DIRECTION('',(0.0,-1.0,0.0));
#30=VECTOR('',#29,1.0);
#31=LINE('',#11,#30);
#32=EDGE_CURVE('',#17,#3,#31,.T.);
#33=DIRECTION('',(-1.0,0.0,0.0));
#34=VECTOR('',#33,1.0);
#35=LINE('',#1,#34);
#36=EDGE_CURVE('',#3,#15,#35,.T.);
#37=ORIENTED_EDGE('',$,$,#24,.T.);
#38=ORIENTED_EDGE('',$,$,#28,.T.);
#39=ORIENTED_EDGE('',$,$,#32,.T.);
#40=ORIENTED_EDGE('',$,$,#36,.T.);
#41=EDGE_LOOP('',(#37,#38,#39,#40));
#42=DIRECTION('',(0,0,-1));
#43=DIRECTION('',(1,0,0));
#44=AXIS2_PLACEMENT_3D('',#9,#42,#43);
#45=FACE_OUTER_BOUND('',#41,.T.);
#46=PLANE('',#44);
#47=ADVANCED_FACE('',(#45),#46,.T.);
#48=DIRECTION('',(1.0,0.0,0.0));
#49=VECTOR('',#48,1.0);
#50=LINE('',#12,#49);
#51=EDGE_CURVE('',#18,#4,#50,.T.);
#52=DIRECTION('',(0.0,1.0,0.0));
#53=VECTOR('',#52,1.0);
#54=LINE('',#2,#53);
#55=EDGE_CURVE('',#4,#20,#54,.T.);
#56=DIRECTION('',(-1.0,0.0,0.0));
#57=VECTOR('',#56,1.0);
#58=LINE('',#14,#57);
#59=EDGE_CURVE('',#20,#19,#58,.T.);
#60=DIRECTION('',(0.0,-1.0,0.0));
#61=VECTOR('',#60,1.0);
#62=LINE('',#13,#61);
#63=EDGE_CURVE('',#19,#18,#62,.T.);
#64=ORIENTED_EDGE('',$,$,#51,.T.);
#65=ORIENTED_EDGE('',$,$,#55,.T.);
#66=ORIENTED_EDGE('',$,$,#59,.T.);
#67=ORIENTED_EDGE('',$,$,#63,.T.);
#68=EDGE_LOOP('',(#64,#65,#66,#67));
#69=DIRECTION('',(0,0,1));
#70=DIRECTION('',(1,0,0));
#71=AXIS2_PLACEMENT_3D('',#12,#69,#70);
#72=FACE_OUTER_BOUND('',#68,.T.);
#73=PLANE('',#71);
#74=ADVANCED_FACE('',(#72),#73,.T.);
#75=DIRECTION('',(1.0,0.0,0.0));
#76=VECTOR('',#75,1.0);
#77=LINE('',#9,#76);
#78=EDGE_CURVE('',#15,#3,#77,.T.);
#79=DIRECTION('',(-1.0,0.0,0.0));
#80=VECTOR('',#79,1.0);
#81=LINE('',#2,#80);
#82=EDGE_CURVE('',#4,#18,#81,.T.);
#83=DIRECTION('',(0.0,0.0,-1.0));
#84=VECTOR('',#83,1.0);
#85=LINE('',#12,#84);
#86=EDGE_CURVE('',#18,#15,#85,.T.);
#87=ORIENTED_EDGE('',$,$,#78,.T.);
#88=ORIENTED_EDGE('',$,$,#8,.T.);
#89=ORIENTED_EDGE('',$,$,#82,.T.);
#90=ORIENTED_EDGE('',$,$,#86,.T.);
#91=EDGE_LOOP('',(#87,#88,#89,#90));
#92=DIRECTION('',(0,-1,0));
#93=DIRECTION('',(1,0,0));
#94=AXIS2_PLACEMENT_3D('',#9,#92,#93);
#95=FACE_OUTER_BOUND('',#91,.T.);
#96=PLANE('',#94);
#97=ADVANCED_FACE('',(#95),#96,.T.);
#98=DIRECTION('',(0.0,0.0,1.0));
#99=VECTOR('',#98,1.0);
#100=LINE('',#10,#99);
#101=EDGE_CURVE('',#16,#19,#100,.T.);
#102=DIRECTION('',(1.0,0.0,0.0));
#103=VECTOR('',#102,1.0);
#104=LINE('',#13,#103);
#105=EDGE_CURVE('',#19,#20,#104,.T.);
#106=DIRECTION('',(0.0,0.0,-1.0));
#107=VECTOR('',#106,1.0);
#108=LINE('',#14,#107);
#109=EDGE_CURVE('',#20,#17,#108,.T.);
#110=DIRECTION('',(-1.0,0.0,0.0));
#111=VECTOR('',#110,1.0);
#112=LINE('',#11,#111);
#113=EDGE_CURVE('',#17,#16,#112,.T.);
#114=ORIENTED_EDGE('',$,$,#101,.T.);
#115=ORIENTED_EDGE('',$,$,#105,.T.);
#116=ORIENTED_EDGE('',$,$,#109,.T.);
#117=ORIENTED_EDGE('',$,$,#113,.T.);
#118=EDGE_LOOP('',(#114,#115,#116,#117));
#119=DIRECTION('',(0,1,0));
#120=DIRECTION('',(1,0,0));
#121=AXIS2_PLACEMENT_3D('',#10,#119,#120);
#122=FACE_OUTER_BOUND('',#118,.T.);
#123=PLANE('',#121);
#124=ADVANCED_FACE('',(#122),#123,.T.);
#125=DIRECTION('',(0.0,0.0,1.0));
#126=VECTOR('',#125,1.0);
#127=LINE('',#9,#126);
#128=EDGE_CURVE('',#15,#18,#127,.T.);
#129=DIRECTION('',(0.0,1.0,0.0));
#130=VECTOR('',#129,1.0);
#131=LINE('',#12,#130);
#132=EDGE_CURVE('',#18,#19,#131,.T.);
#133=DIRECTION('',(0.0,0.0,-1.0));
#134=VECTOR('',#133,1.0);
#135=LINE('',#13,#134);
#136=EDGE_CURVE('',#19,#16,#135,.T.);
#137=DIRECTION('',(0.0,-1.0,0.0));
#138=VECTOR('',#137,1.0);
#139=LINE('',#10,#138);
#140=EDGE_CURVE('',#16,#15,#139,.T.);
#141=ORIENTED_EDGE('',$,$,#128,.T.);
#142=ORIENTED_EDGE('',$,$,#132,.T.);
#143=ORIENTED_EDGE('',$,$,#136,.T.);
#144=ORIENTED_EDGE('',$,$,#140,.T.);
#145=EDGE_LOOP('',(#141,#142,#143,#144));
#146=DIRECTION('',(-1,0,0));
#147=DIRECTION('',(0,1,0));
#148=AXIS2_PLACEMENT_3D('',#9,#146,#147);
#149=FACE_OUTER_BOUND('',#145,.T.);
#150=PLANE('',#148);
#151=ADVANCED_FACE('',(#149),#150,.T.);
#152=DIRECTION('',(0.0,1.0,0.0));
#153=VECTOR('',#152,1.0);
#154=LINE('',#1,#153);
#155=EDGE_CURVE('',#3,#17,#154,.T.);
#156=DIRECTION('',(0.0,0.0,1.0));
#157=VECTOR('',#156,1.0);
#158=LINE('',#11,#157);
#159=EDGE_CURVE('',#17,#20,#158,.T.);
#160=DIRECTION('',(0.0,-1.0,0.0));
#161=VECTOR('',#160,1.0);
#162=LINE('',#14,#161);
#163=EDGE_CURVE('',#20,#4,#162,.T.);
#164=ORIENTED_EDGE('',$,$,#155,.T.);
#165=ORIENTED_EDGE('',$,$,#159,.T.);
#166=ORIENTED_EDGE('',$,$,#163,.T.);
#167=ORIENTED_EDGE('',$,$,#8,.F.);
#168=EDGE_LOOP('',(#164,#165,#166,#167));
#169=DIRECTION('',(1,0,0));
#170=DIRECTION('',(0,1,0));
#171=AXIS2_PLACEMENT_3D('',#1,#169,#170);
#172=FACE_OUTER_BOUND('',#168,.T.);
#173=PLANE('',#171);
#174=ADVANCED_FACE('',(#172),#173,.T.);
#175=CARTESIAN_POINT('',(2.0,0.0,0.0));
#176=CARTESIAN_POINT('',(2.0,1.0,0.0));
#177=CARTESIAN_POINT('',(1.0,1.0,0.0));
#178=CARTESIAN_POINT('',(2.0,0.0,1.0));
#179=CARTESIAN_POINT('',(2.0,1.0,1.0));
#180=CARTESIAN_POINT('',(1.0,1.0,1.0));
#181=VERTEX_POINT('',#175);
#182=VERTEX_POINT('',#176);
#183=VERTEX_POINT('',#177);
#184=VERTEX_POINT('',#178);
#185=VERTEX_POINT('',#179);
#186=VERTEX_POINT('',#180);
#187=DIRECTION('',(1.0,0.0,0.0));
#188=VECTOR('',#187,1.0);
#189=LINE('',#1,#188);
#190=EDGE_CURVE('',#3,#181,#189,.T.);
#191=DIRECTION('',(0.0,1.0,0.0));
#192=VECTOR('',#191,1.0);
#193=LINE('',#175,#192);
#194=EDGE_CURVE('',#181,#182,#193,.T.);
#195=DIRECTION('',(-1.0,0.0,0.0));
#196=VECTOR('',#195,1.0);
#197=LINE('',#176,#196);
#198=EDGE_CURVE('',#182,#183,#197,.T.);
#199=DIRECTION('',(0.0,-1.0,0.0));
#200=VECTOR('',#199,1.0);
#201=LINE('',#177,#200);
#202=EDGE_CURVE('',#183,#3,#201,.T.);
#203=ORIENTED_EDGE('',$,$,#190,.T.);
#204=ORIENTED_EDGE('',$,$,#194,.T.);
#205=ORIENTED_EDGE('',$,$,#198,.T.);
#206=ORIENTED_EDGE('',$,$,#202,.T.);
#207=EDGE_LOOP('',(#203,#204,#205,#206));
#208=DIRECTION('',(0,0,-1));
#209=DIRECTION('',(1,0,0));
#210=AXIS2_PLACEMENT_3D('',#1,#208,#209);
#211=FACE_OUTER_BOUND('',#207,.T.);
#212=PLANE('',#210);
#213=ADVANCED_FACE('',(#211),#212,.T.);
#214=DIRECTION('',(1.0,0.0,0.0));
#215=VECTOR('',#214,1.0);
#216=LINE('',#2,#215);
#217=EDGE_CURVE('',#4,#184,#216,.T.);
#218=DIRECTION('',(0.0,1.0,0.0));
#219=VECTOR('',#218,1.0);
#220=LINE('',#178,#219);
#221=EDGE_CURVE('',#184,#185,#220,.T.);
#222=DIRECTION('',(-1.0,0.0,0.0));
#223=VECTOR('',#222,1.0);
#224=LINE('',#179,#223);
#225=EDGE_CURVE('',#185,#186,#224,.T.);
#226=DIRECTION('',(0.0,-1.0,0.0));
#227=VECTOR('',#226,1.0);
#228=LINE('',#180,#227);
#229=EDGE_CURVE('',#186,#4,#228,.T.);
#230=ORIENTED_EDGE('',$,$,#217,.T.);
#231=ORIENTED_EDGE('',$,$,#221,.T.);
#232=ORIENTED_EDGE('',$,$,#225,.T.);
#233=ORIENTED_EDGE('',$,$,#229,.T.);
#234=EDGE_LOOP('',(#230,#231,#232,#233));
#235=DIRECTION('',(0,0,1));
#236=DIRECTION('',(1,0,0));
#237=AXIS2_PLACEMENT_3D('',#2,#235,#236);
#238=FACE_OUTER_BOUND('',#234,.T.);
#239=PLANE('',#237);
#240=ADVANCED_FACE('',(#238),#239,.T.);
#241=DIRECTION('',(1.0,0.0,0.0));
#242=VECTOR('',#241,1.0);
#243=LINE('',#1,#242);
#244=EDGE_CURVE('',#3,#181,#243,.T.);
#245=DIRECTION('',(0.0,0.0,1.0));
#246=VECTOR('',#245,1.0);
#247=LINE('',#175,#246);
#248=EDGE_CURVE('',#181,#184,#247,.T.);
#249=DIRECTION('',(-1.0,0.0,0.0));
#250=VECTOR('',#249,1.0);
#251=LINE('',#178,#250);
#252=EDGE_CURVE('',#184,#4,#251,.T.);
#253=ORIENTED_EDGE('',$,$,#244,.T.);
#254=ORIENTED_EDGE('',$,$,#248,.T.);
#255=ORIENTED_EDGE('',$,$,#252,.T.);
#256=ORIENTED_EDGE('',$,$,#8,.F.);
#257=EDGE_LOOP('',(#253,#254,#255,#256));
#258=DIRECTION('',(0,-1,0));
#259=DIRECTION('',(1,0,0));
#260=AXIS2_PLACEMENT_3D('',#1,#258,#259);
#261=FACE_OUTER_BOUND('',#257,.T.);
#262=PLANE('',#260);
#263=ADVANCED_FACE('',(#261),#262,.T.);
#264=DIRECTION('',(0.0,0.0,1.0));
#265=VECTOR('',#264,1.0);
#266=LINE('',#177,#265);
#267=EDGE_CURVE('',#183,#186,#266,.T.);
#268=DIRECTION('',(1.0,0.0,0.0));
#269=VECTOR('',#268,1.0);
#270=LINE('',#180,#269);
#271=EDGE_CURVE('',#186,#185,#270,.T.);
#272=DIRECTION('',(0.0,0.0,-1.0));
#273=VECTOR('',#272,1.0);
#274=LINE('',#179,#273);
#275=EDGE_CURVE('',#185,#182,#274,.T.);
#276=DIRECTION('',(-1.0,0.0,0.0));
#277=VECTOR('',#276,1.0);
#278=LINE('',#176,#277);
#279=EDGE_CURVE('',#182,#183,#278,.T.);
#280=ORIENTED_EDGE('',$,$,#267,.T.);
#281=ORIENTED_EDGE('',$,$,#271,.T.);
#282=ORIENTED_EDGE('',$,$,#275,.T.);
#283=ORIENTED_EDGE('',$,$,#279,.T.);
#284=EDGE_LOOP('',(#280,#281,#282,#283));
#285=DIRECTION('',(0,1,0));
#286=DIRECTION('',(1,0,0));
#287=AXIS2_PLACEMENT_3D('',#177,#285,#286);
#288=FACE_OUTER_BOUND('',#284,.T.);
#289=PLANE('',#287);
#290=ADVANCED_FACE('',(#288),#289,.T.);
#291=DIRECTION('',(0.0,1.0,0.0));
#292=VECTOR('',#291,1.0);
#293=LINE('',#2,#292);
#294=EDGE_CURVE('',#4,#186,#293,.T.);
#295=DIRECTION('',(0.0,0.0,-1.0));
#296=VECTOR('',#295,1.0);
#297=LINE('',#180,#296);
#298=EDGE_CURVE('',#186,#183,#297,.T.);
#299=DIRECTION('',(0.0,-1.0,0.0));
#300=VECTOR('',#299,1.0);
#301=LINE('',#177,#300);
#302=EDGE_CURVE('',#183,#3,#301,.T.);
#303=ORIENTED_EDGE('',$,$,#8,.T.);
#304=ORIENTED_EDGE('',$,$,#294,.T.);
#305=ORIENTED_EDGE('',$,$,#298,.T.);
#306=ORIENTED_EDGE('',$,$,#302,.T.);
#307=EDGE_LOOP('',(#303,#304,#305,#306));
#308=DIRECTION('',(-1,0,0));
#309=DIRECTION('',(0,1,0));
#310=AXIS2_PLACEMENT_3D('',#1,#308,#309);
#311=FACE_OUTER_BOUND('',#307,.T.);
#312=PLANE('',#310);
#313=ADVANCED_FACE('',(#311),#312,.T.);
#314=DIRECTION('',(0.0,1.0,0.0));
#315=VECTOR('',#314,1.0);
#316=LINE('',#175,#315);
#317=EDGE_CURVE('',#181,#182,#316,.T.);
#318=DIRECTION('',(0.0,0.0,1.0));
#319=VECTOR('',#318,1.0);
#320=LINE('',#176,#319);
#321=EDGE_CURVE('',#182,#185,#320,.T.);
#322=DIRECTION('',(0.0,-1.0,0.0));
#323=VECTOR('',#322,1.0);
#324=LINE('',#179,#323);
#325=EDGE_CURVE('',#185,#184,#324,.T.);
#326=DIRECTION('',(0.0,0.0,-1.0));
#327=VECTOR('',#326,1.0);
#328=LINE('',#178,#327);
#329=EDGE_CURVE('',#184,#181,#328,.T.);
#330=ORIENTED_EDGE('',$,$,#317,.T.);
#331=ORIENTED_EDGE('',$,$,#321,.T.);
#332=ORIENTED_EDGE('',$,$,#325,.T.);
#333=ORIENTED_EDGE('',$,$,#329,.T.);
#334=EDGE_LOOP('',(#330,#331,#332,#333));
#335=DIRECTION('',(1,0,0));
#336=DIRECTION('',(0,1,0));
#337=AXIS2_PLACEMENT_3D('',#175,#335,#336);
#338=FACE_OUTER_BOUND('',#334,.T.);
#339=PLANE('',#337);
#340=ADVANCED_FACE('',(#338),#339,.T.);
#341=CLOSED_SHELL('',(#47,#74,#97,#124,#151,#174,#213,#240,#263,#290,#313,#340));
#342=MANIFOLD_SOLID_BREP('',#341);
#9050=PRODUCT_CONTEXT('',#9000,'mechanical');
#9051=PRODUCT('Tsh019','Tsh019','',(#9050));
#9052=PRODUCT_DEFINITION_FORMATION('','',#9051);
#9053=PRODUCT_DEFINITION_CONTEXT('part definition',#9000,'design');
#9054=PRODUCT_DEFINITION('','','',#9052,#9053);
#9055=PRODUCT_DEFINITION_SHAPE('','','',#9054);
#9056=(LENGTH_UNIT()NAMED_UNIT(*)SI_UNIT(.MILLI.,.METRE.));
#9057=(NAMED_UNIT(*)PLANE_ANGLE_UNIT()SI_UNIT($,.RADIAN.));
#9058=(NAMED_UNIT(*)SI_UNIT($,.STERADIAN.)SOLID_ANGLE_UNIT());
#9059=UNCERTAINTY_MEASURE_WITH_UNIT(.LENGTH_MEASURE(1.0E-7).,#9056,'distance_accuracy_value','');
#9060=(GEOMETRIC_REPRESENTATION_CONTEXT(3)GLOBAL_UNCERTAINTY_ASSIGNED_CONTEXT((#9059))GLOBAL_UNIT_ASSIGNED_CONTEXT((#9056,#9057,#9058))REPRESENTATION_CONTEXT('','3D'));
#9061=MANIFOLD_SURFACE_SHAPE_REPRESENTATION('',(#342),#9060);
#9062=SHAPE_DEFINITION_REPRESENTATION(#9055,#9061);
ENDSEC;
END-ISO-10303-21;
