ISO-10303-21;
/* Tsh026: 7-face CLOSED_SHELL: bottom face (z=0) appears twice as two distinct ADVANCED_FACE entities on the same PLANE with identical EDGE_LOOP geometry; duplicate face IS wired into shell/face topology; OCCT silently accepts; strict receivers must detect coincidence and drop one */
HEADER;
FILE_DESCRIPTION(('Tsh026'),'2;1');
FILE_NAME('Tsh026.stp','2026-06-17T00:00:00',(''),(''),'cad-research-suite','','');
FILE_SCHEMA(('AUTOMOTIVE_DESIGN { 1 0 10303 214 3 1 1 }'));
ENDSEC;
DATA;
#9000=APPLICATION_CONTEXT('mechanical design');
#1=CARTESIAN_POINT('',(0.0,0.0,0.0));
#2=CARTESIAN_POINT('',(1.0,0.0,0.0));
#3=CARTESIAN_POINT('',(1.0,1.0,0.0));
#4=CARTESIAN_POINT('',(0.0,1.0,0.0));
#5=CARTESIAN_POINT('',(0.0,0.0,1.0));
#6=CARTESIAN_POINT('',(1.0,0.0,1.0));
#7=CARTESIAN_POINT('',(1.0,1.0,1.0));
#8=CARTESIAN_POINT('',(0.0,1.0,1.0));
#9=VERTEX_POINT('',#1);
#10=VERTEX_POINT('',#2);
#11=VERTEX_POINT('',#3);
#12=VERTEX_POINT('',#4);
#13=VERTEX_POINT('',#5);
#14=VERTEX_POINT('',#6);
#15=VERTEX_POINT('',#7);
#16=VERTEX_POINT('',#8);
#17=DIRECTION('',(0.0,1.0,0.0));
#18=VECTOR('',#17,1.0);
#19=LINE('',#1,#18);
#20=EDGE_CURVE('',#9,#12,#19,.T.);
#21=DIRECTION('',(1.0,0.0,0.0));
#22=VECTOR('',#21,1.0);
#23=LINE('',#4,#22);
#24=EDGE_CURVE('',#12,#11,#23,.T.);
#25=DIRECTION('',(0.0,-1.0,0.0));
#26=VECTOR('',#25,1.0);
#27=LINE('',#3,#26);
#28=EDGE_CURVE('',#11,#10,#27,.T.);
#29=DIRECTION('',(-1.0,0.0,0.0));
#30=VECTOR('',#29,1.0);
#31=LINE('',#2,#30);
#32=EDGE_CURVE('',#10,#9,#31,.T.);
#33=ORIENTED_EDGE('',$,$,#20,.T.);
#34=ORIENTED_EDGE('',$,$,#24,.T.);
#35=ORIENTED_EDGE('',$,$,#28,.T.);
#36=ORIENTED_EDGE('',$,$,#32,.T.);
#37=EDGE_LOOP('',(#33,#34,#35,#36));
#38=DIRECTION('',(0,0,-1));
#39=DIRECTION('',(1,0,0));
#40=AXIS2_PLACEMENT_3D('',#1,#38,#39);
#41=FACE_OUTER_BOUND('',#37,.T.);
#42=PLANE('',#40);
#43=ADVANCED_FACE('',(#41),#42,.T.);
#44=DIRECTION('',(1.0,0.0,0.0));
#45=VECTOR('',#44,1.0);
#46=LINE('',#5,#45);
#47=EDGE_CURVE('',#13,#14,#46,.T.);
#48=DIRECTION('',(0.0,1.0,0.0));
#49=VECTOR('',#48,1.0);
#50=LINE('',#6,#49);
#51=EDGE_CURVE('',#14,#15,#50,.T.);
#52=DIRECTION('',(-1.0,0.0,0.0));
#53=VECTOR('',#52,1.0);
#54=LINE('',#7,#53);
#55=EDGE_CURVE('',#15,#16,#54,.T.);
#56=DIRECTION('',(0.0,-1.0,0.0));
#57=VECTOR('',#56,1.0);
#58=LINE('',#8,#57);
#59=EDGE_CURVE('',#16,#13,#58,.T.);
#60=ORIENTED_EDGE('',$,$,#47,.T.);
#61=ORIENTED_EDGE('',$,$,#51,.T.);
#62=ORIENTED_EDGE('',$,$,#55,.T.);
#63=ORIENTED_EDGE('',$,$,#59,.T.);
#64=EDGE_LOOP('',(#60,#61,#62,#63));
#65=DIRECTION('',(0,0,1));
#66=DIRECTION('',(1,0,0));
#67=AXIS2_PLACEMENT_3D('',#5,#65,#66);
#68=FACE_OUTER_BOUND('',#64,.T.);
#69=PLANE('',#67);
#70=ADVANCED_FACE('',(#68),#69,.T.);
#71=DIRECTION('',(1.0,0.0,0.0));
#72=VECTOR('',#71,1.0);
#73=LINE('',#1,#72);
#74=EDGE_CURVE('',#9,#10,#73,.T.);
#75=DIRECTION('',(0.0,0.0,1.0));
#76=VECTOR('',#75,1.0);
#77=LINE('',#2,#76);
#78=EDGE_CURVE('',#10,#14,#77,.T.);
#79=DIRECTION('',(-1.0,0.0,0.0));
#80=VECTOR('',#79,1.0);
#81=LINE('',#6,#80);
#82=EDGE_CURVE('',#14,#13,#81,.T.);
#83=DIRECTION('',(0.0,0.0,-1.0));
#84=VECTOR('',#83,1.0);
#85=LINE('',#5,#84);
#86=EDGE_CURVE('',#13,#9,#85,.T.);
#87=ORIENTED_EDGE('',$,$,#74,.T.);
#88=ORIENTED_EDGE('',$,$,#78,.T.);
#89=ORIENTED_EDGE('',$,$,#82,.T.);
#90=ORIENTED_EDGE('',$,$,#86,.T.);
#91=EDGE_LOOP('',(#87,#88,#89,#90));
#92=DIRECTION('',(0,-1,0));
#93=DIRECTION('',(1,0,0));
#94=AXIS2_PLACEMENT_3D('',#1,#92,#93);
#95=FACE_OUTER_BOUND('',#91,.T.);
#96=PLANE('',#94);
#97=ADVANCED_FACE('',(#95),#96,.T.);
#98=DIRECTION('',(0.0,0.0,1.0));
#99=VECTOR('',#98,1.0);
#100=LINE('',#4,#99);
#101=EDGE_CURVE('',#12,#16,#100,.T.);
#102=DIRECTION('',(1.0,0.0,0.0));
#103=VECTOR('',#102,1.0);
#104=LINE('',#8,#103);
#105=EDGE_CURVE('',#16,#15,#104,.T.);
#106=DIRECTION('',(0.0,0.0,-1.0));
#107=VECTOR('',#106,1.0);
#108=LINE('',#7,#107);
#109=EDGE_CURVE('',#15,#11,#108,.T.);
#110=DIRECTION('',(-1.0,0.0,0.0));
#111=VECTOR('',#110,1.0);
#112=LINE('',#3,#111);
#113=EDGE_CURVE('',#11,#12,#112,.T.);
#114=ORIENTED_EDGE('',$,$,#101,.T.);
#115=ORIENTED_EDGE('',$,$,#105,.T.);
#116=ORIENTED_EDGE('',$,$,#109,.T.);
#117=ORIENTED_EDGE('',$,$,#113,.T.);
#118=EDGE_LOOP('',(#114,#115,#116,#117));
#119=DIRECTION('',(0,1,0));
#120=DIRECTION('',(1,0,0));
#121=AXIS2_PLACEMENT_3D('',#4,#119,#120);
#122=FACE_OUTER_BOUND('',#118,.T.);
#123=PLANE('',#121);
#124=ADVANCED_FACE('',(#122),#123,.T.);
#125=DIRECTION('',(0.0,0.0,1.0));
#126=VECTOR('',#125,1.0);
#127=LINE('',#1,#126);
#128=EDGE_CURVE('',#9,#13,#127,.T.);
#129=DIRECTION('',(0.0,1.0,0.0));
#130=VECTOR('',#129,1.0);
#131=LINE('',#5,#130);
#132=EDGE_CURVE('',#13,#16,#131,.T.);
#133=DIRECTION('',(0.0,0.0,-1.0));
#134=VECTOR('',#133,1.0);
#135=LINE('',#8,#134);
#136=EDGE_CURVE('',#16,#12,#135,.T.);
#137=DIRECTION('',(0.0,-1.0,0.0));
#138=VECTOR('',#137,1.0);
#139=LINE('',#4,#138);
#140=EDGE_CURVE('',#12,#9,#139,.T.);
#141=ORIENTED_EDGE('',$,$,#128,.T.);
#142=ORIENTED_EDGE('',$,$,#132,.T.);
#143=ORIENTED_EDGE('',$,$,#136,.T.);
#144=ORIENTED_EDGE('',$,$,#140,.T.);
#145=EDGE_LOOP('',(#141,#142,#143,#144));
#146=DIRECTION('',(-1,0,0));
#147=DIRECTION('',(0,1,0));
#148=AXIS2_PLACEMENT_3D('',#1,#146,#147);
#149=FACE_OUTER_BOUND('',#145,.T.);
#150=PLANE('',#148);
#151=ADVANCED_FACE('',(#149),#150,.T.);
#152=DIRECTION('',(0.0,1.0,0.0));
#153=VECTOR('',#152,1.0);
#154=LINE('',#2,#153);
#155=EDGE_CURVE('',#10,#11,#154,.T.);
#156=DIRECTION('',(0.0,0.0,1.0));
#157=VECTOR('',#156,1.0);
#158=LINE('',#3,#157);
#159=EDGE_CURVE('',#11,#15,#158,.T.);
#160=DIRECTION('',(0.0,-1.0,0.0));
#161=VECTOR('',#160,1.0);
#162=LINE('',#7,#161);
#163=EDGE_CURVE('',#15,#14,#162,.T.);
#164=DIRECTION('',(0.0,0.0,-1.0));
#165=VECTOR('',#164,1.0);
#166=LINE('',#6,#165);
#167=EDGE_CURVE('',#14,#10,#166,.T.);
#168=ORIENTED_EDGE('',$,$,#155,.T.);
#169=ORIENTED_EDGE('',$,$,#159,.T.);
#170=ORIENTED_EDGE('',$,$,#163,.T.);
#171=ORIENTED_EDGE('',$,$,#167,.T.);
#172=EDGE_LOOP('',(#168,#169,#170,#171));
#173=DIRECTION('',(1,0,0));
#174=DIRECTION('',(0,1,0));
#175=AXIS2_PLACEMENT_3D('',#2,#173,#174);
#176=FACE_OUTER_BOUND('',#172,.T.);
#177=PLANE('',#175);
#178=ADVANCED_FACE('',(#176),#177,.T.);
#179=CARTESIAN_POINT('',(0.0,0.0,0.0));
#180=CARTESIAN_POINT('',(1.0,0.0,0.0));
#181=CARTESIAN_POINT('',(1.0,1.0,0.0));
#182=CARTESIAN_POINT('',(0.0,1.0,0.0));
#183=VERTEX_POINT('',#179);
#184=VERTEX_POINT('',#180);
#185=VERTEX_POINT('',#181);
#186=VERTEX_POINT('',#182);
#187=DIRECTION('',(0.0,1.0,0.0));
#188=VECTOR('',#187,1.0);
#189=LINE('',#179,#188);
#190=EDGE_CURVE('',#183,#186,#189,.T.);
#191=DIRECTION('',(1.0,0.0,0.0));
#192=VECTOR('',#191,1.0);
#193=LINE('',#182,#192);
#194=EDGE_CURVE('',#186,#185,#193,.T.);
#195=DIRECTION('',(0.0,-1.0,0.0));
#196=VECTOR('',#195,1.0);
#197=LINE('',#181,#196);
#198=EDGE_CURVE('',#185,#184,#197,.T.);
#199=DIRECTION('',(-1.0,0.0,0.0));
#200=VECTOR('',#199,1.0);
#201=LINE('',#180,#200);
#202=EDGE_CURVE('',#184,#183,#201,.T.);
#203=ORIENTED_EDGE('',$,$,#190,.T.);
#204=ORIENTED_EDGE('',$,$,#194,.T.);
#205=ORIENTED_EDGE('',$,$,#198,.T.);
#206=ORIENTED_EDGE('',$,$,#202,.T.);
#207=EDGE_LOOP('',(#203,#204,#205,#206));
#208=DIRECTION('',(0,0,-1));
#209=DIRECTION('',(1,0,0));
#210=AXIS2_PLACEMENT_3D('',#179,#208,#209);
#211=FACE_OUTER_BOUND('',#207,.T.);
#212=PLANE('',#210);
#213=ADVANCED_FACE('',(#211),#212,.T.);
#214=CLOSED_SHELL('',(#43,#70,#97,#124,#151,#178,#213));
#215=MANIFOLD_SOLID_BREP('',#214);
#9050=PRODUCT_CONTEXT('',#9000,'mechanical');
#9051=PRODUCT('Tsh026','Tsh026','',(#9050));
#9052=PRODUCT_DEFINITION_FORMATION('','',#9051);
#9053=PRODUCT_DEFINITION_CONTEXT('part definition',#9000,'design');
#9054=PRODUCT_DEFINITION('','','',#9052,#9053);
#9055=PRODUCT_DEFINITION_SHAPE('','','',#9054);
#9056=(LENGTH_UNIT()NAMED_UNIT(*)SI_UNIT(.MILLI.,.METRE.));
#9057=(NAMED_UNIT(*)PLANE_ANGLE_UNIT()SI_UNIT($,.RADIAN.));
#9058=(NAMED_UNIT(*)SI_UNIT($,.STERADIAN.)SOLID_ANGLE_UNIT());
#9059=UNCERTAINTY_MEASURE_WITH_UNIT(LENGTH_MEASURE(1.0E-7),#9056,'distance_accuracy_value','');
#9060=(GEOMETRIC_REPRESENTATION_CONTEXT(3)GLOBAL_UNCERTAINTY_ASSIGNED_CONTEXT((#9059))GLOBAL_UNIT_ASSIGNED_CONTEXT((#9056,#9057,#9058))REPRESENTATION_CONTEXT('','3D'));
#9061=MANIFOLD_SURFACE_SHAPE_REPRESENTATION('',(#215),#9060);
#9062=SHAPE_DEFINITION_REPRESENTATION(#9055,#9061);
ENDSEC;
END-ISO-10303-21;
