ISO-10303-21;
HEADER;
FILE_DESCRIPTION(('Tsh156 - ShapeUpgrade_ShellSewing.Apply mismatch-curve-types'),('CAD'),(''));
FILE_NAME('Tsh156.stp','2026-06-15T00:00:00',(''),(''),
  'Open CASCADE STEP processor 7.7','','');
FILE_SCHEMA(('AUTOMOTIVE_DESIGN { 1 0 10303 214 3 1 1 }'));
ENDSEC;
DATA;
#1=PLANE('',#2,(0.,0.,0.));
#2=AXIS2_PLACEMENT_3D('',#3,#4,#5);
#3=CARTESIAN_POINT('',(0.,0.,0.));
#4=DIRECTION('',(0.,0.,1.));
#5=DIRECTION('',(1.,0.,0.));
#10=PLANE('',#11,0.);
#11=AXIS2_PLACEMENT_3D('',#12,#13,#14);
#12=CARTESIAN_POINT('',(0.,0.,0.));
#13=DIRECTION('',(0.,0.,1.));
#14=DIRECTION('',(1.,0.,0.));
#20=PLANE('',#21,0.);
#21=AXIS2_PLACEMENT_3D('',#22,#23,#24);
#22=CARTESIAN_POINT('',(0.,0.,0.));
#23=DIRECTION('',(0.,0.,1.));
#24=DIRECTION('',(1.,0.,0.));
#50=B_SPLINE_SURFACE_WITH_KNOTS('',3,3,((#51,#52,#53),(#54,#55,#56),(#57,#58,#59)),
  .UNSPECIFIED.,.F.,.F.,.F.,(4,4),(4,4),(0.,10.,20.),$,.UNSPECIFIED.);
#51=CARTESIAN_POINT('',(0.,0.,0.));
#52=CARTESIAN_POINT('',(5.,0.,2.));
#53=CARTESIAN_POINT('',(10.,0.,0.));
#54=CARTESIAN_POINT('',(0.,5.,2.));
#55=CARTESIAN_POINT('',(5.,5.,4.));
#56=CARTESIAN_POINT('',(10.,5.,2.));
#57=CARTESIAN_POINT('',(0.,10.,0.));
#58=CARTESIAN_POINT('',(5.,10.,2.));
#59=CARTESIAN_POINT('',(10.,10.,0.));
#100=FACE_OUTER_BOUND('',#101,.T.);
#101=EDGE_LOOP('',(#102,#103,#104,#105));
#102=ORIENTED_EDGE('',*,*,#106,.T.);
#103=ORIENTED_EDGE('',*,*,#107,.T.);
#104=ORIENTED_EDGE('',*,*,#108,.T.);
#105=ORIENTED_EDGE('',*,*,#109,.T.);
#106=EDGE_CURVE('',#110,#111,#112,.T.);
#107=EDGE_CURVE('',#111,#113,#114,.T.);
#108=EDGE_CURVE('',#113,#114,#115,.T.);
#109=EDGE_CURVE('',#114,#110,#116,.T.);
#110=VERTEX_POINT('',#117);
#111=VERTEX_POINT('',#118);
#112=LINE('',#119,#120);
#113=VERTEX_POINT('',#121);
#114=VERTEX_POINT('',#122);
#115=LINE('',#123,#124);
#116=LINE('',#125,#126);
#117=CARTESIAN_POINT('',(0.,0.,0.));
#118=CARTESIAN_POINT('',(10.,0.,0.));
#119=CARTESIAN_POINT('',(0.,0.,0.));
#120=DIRECTION('',(1.,0.,0.));
#121=CARTESIAN_POINT('',(10.,10.,0.));
#122=CARTESIAN_POINT('',(0.,10.,0.));
#123=CARTESIAN_POINT('',(10.,10.,0.));
#124=DIRECTION('',(-1.,0.,0.));
#125=CARTESIAN_POINT('',(0.,10.,0.));
#126=DIRECTION('',(0.,-1.,0.));
#150=FACE_OUTER_BOUND('',#151,.T.);
#151=EDGE_LOOP('',(#152,#153,#154,#155));
#152=ORIENTED_EDGE('',*,*,#156,.T.);
#153=ORIENTED_EDGE('',*,*,#157,.F.);
#154=ORIENTED_EDGE('',*,*,#158,.T.);
#155=ORIENTED_EDGE('',*,*,#159,.F.);
#156=EDGE_CURVE('',#160,#161,#162,.T.);
#157=EDGE_CURVE('',#161,#162,#163,.T.);
#158=EDGE_CURVE('',#162,#163,#164,.T.);
#159=EDGE_CURVE('',#163,#160,#165,.T.);
#160=VERTEX_POINT('',#166);
#161=VERTEX_POINT('',#167);
#162=VERTEX_POINT('',#168);
#163=VERTEX_POINT('',#169);
#164=LINE('',#170,#171);
#165=LINE('',#172,#173);
#162=LINE('',#174,#175);
#163=LINE('',#176,#177);
#166=CARTESIAN_POINT('',(0.,0.,0.));
#167=CARTESIAN_POINT('',(10.,0.,0.));
#168=CARTESIAN_POINT('',(10.,10.,0.));
#169=CARTESIAN_POINT('',(0.,10.,0.));
#170=CARTESIAN_POINT('',(10.,10.,0.));
#171=DIRECTION('',(-1.,0.,0.));
#172=CARTESIAN_POINT('',(0.,10.,0.));
#173=DIRECTION('',(0.,-1.,0.));
#174=CARTESIAN_POINT('',(0.,0.,0.));
#175=DIRECTION('',(1.,0.,0.));
#176=CARTESIAN_POINT('',(10.,0.,0.));
#177=DIRECTION('',(0.,1.,0.));
#200=FACE_OUTER_BOUND('',#201,.T.);
#201=EDGE_LOOP('',(#202,#203,#204,#205));
#202=ORIENTED_EDGE('',*,*,#206,.T.);
#203=ORIENTED_EDGE('',*,*,#207,.F.);
#204=ORIENTED_EDGE('',*,*,#208,.T.);
#205=ORIENTED_EDGE('',*,*,#209,.F.);
#206=EDGE_CURVE('',#210,#211,#212,.T.);
#207=EDGE_CURVE('',#211,#212,#213,.T.);
#208=EDGE_CURVE('',#212,#212,#214,.T.);
#209=EDGE_CURVE('',#212,#210,#215,.T.);
#210=VERTEX_POINT('',#216);
#211=VERTEX_POINT('',#217);
#212=VERTEX_POINT('',#218);
#213=B_SPLINE_CURVE('',3,#219,.UNSPECIFIED.,.F.,.F.,
  (0.,0.,0.,0.,10.,20.,20.,20.),(1.,1.,1.,1.),.UNSPECIFIED.);
#214=LINE('',#220,#221);
#215=LINE('',#222,#223);
#216=CARTESIAN_POINT('',(0.,0.,0.));
#217=CARTESIAN_POINT('',(10.,0.,0.));
#218=CARTESIAN_POINT('',(10.,10.,0.));
#219=(#224,#225,#226,#227);
#220=CARTESIAN_POINT('',(10.,10.,0.));
#221=DIRECTION('',(-1.,0.,0.));
#222=CARTESIAN_POINT('',(0.,10.,0.));
#223=DIRECTION('',(0.,-1.,0.));
#224=CARTESIAN_POINT('',(10.,0.,0.));
#225=CARTESIAN_POINT('',(10.,5.,0.));
#226=CARTESIAN_POINT('',(10.,10.,0.));
#227=CARTESIAN_POINT('',(10.,15.,0.));
#300=ADVANCED_FACE('',(#100),#10,.T.);
#301=ADVANCED_FACE('',(#150),#20,.T.);
#302=ADVANCED_FACE('',(#200),#50,.T.);
#400=OPEN_SHELL('',(#300,#301));
#401=OPEN_SHELL('',(#302));
#9000=PRODUCT_CONTEXT('',#1,'mechanical');
#9001=PRODUCT('Tsh156','Tsh156','',(#9000));
#9002=PRODUCT_DEFINITION_FORMATION('','',#9001);
#9003=PRODUCT_DEFINITION_CONTEXT('part definition',#1,'design');
#9004=PRODUCT_DEFINITION('','',#9002,#9003);
#9005=PRODUCT_DEFINITION_SHAPE('','',#9004);
#9006=(LENGTH_UNIT()NAMED_UNIT(*)SI_UNIT(.MILLI.,.METRE.));
#9007=(NAMED_UNIT(*)PLANE_ANGLE_UNIT()SI_UNIT($,.RADIAN.));
#9008=(NAMED_UNIT(*)SI_UNIT($,.STERADIAN.)SOLID_ANGLE_UNIT());
#9009=UNCERTAINTY_MEASURE_WITH_UNIT(LENGTH_MEASURE(1.0E-7),#9006,'distance_accuracy_value','');
#9010=(GEOMETRIC_REPRESENTATION_CONTEXT(3)GLOBAL_UNCERTAINTY_ASSIGNED_CONTEXT((#9009))GLOBAL_UNIT_ASSIGNED_CONTEXT((#9006,#9007,#9008))REPRESENTATION_CONTEXT('','3D'));
#9021=SHELL_BASED_SURFACE_MODEL('sbsm',(#400,#401));
#9022=MANIFOLD_SURFACE_SHAPE_REPRESENTATION('',(#9021),#9010);
#9023=SHAPE_DEFINITION_REPRESENTATION(#9005,#9022);
ENDSEC;
