ISO-10303-21;
/* Tsh185: CLOSED_SHELL with SIX ADVANCED_FACEs (cube) IS the stale-context defect trigger; faces bottom/top/front/back use same_sense=True — IS the correctly-oriented set; faces left/right use same_sense=False — IS the inverted faces requiring correction; first Perform() call creates new context, queues orientation flips — IS expected behavior; second Perform() call reuses stale context, re-applies queued flips — IS the defect path; over-correction re-inverts previously-fixed faces — IS the cumulative-fix defect; caller cannot distinguish partial failure from double-flip state — IS the model impact; fix: Perform() must reset context on each call or guard against re-application; emit E_PERFORM_CONTEXT_STALE when second call detects non-empty queued context */
HEADER;
FILE_DESCRIPTION(('Tsh185'),'2;1');
FILE_NAME('Tsh185.stp','2026-06-17T00:00:00',(''),(''),'cad-research-suite','','');
FILE_SCHEMA(('AUTOMOTIVE_DESIGN { 1 0 10303 214 3 1 1 }'));
ENDSEC;
DATA;
#9000=APPLICATION_CONTEXT('mechanical design');
#1=CARTESIAN_POINT('',(0.0,0.0,0.0));
#2=VERTEX_POINT('',#1);
#3=CARTESIAN_POINT('',(1.0,0.0,0.0));
#4=VERTEX_POINT('',#3);
#5=CARTESIAN_POINT('',(1.0,1.0,0.0));
#6=VERTEX_POINT('',#5);
#7=CARTESIAN_POINT('',(0.0,1.0,0.0));
#8=VERTEX_POINT('',#7);
#9=DIRECTION('',(1.0,0.0,0.0));
#10=VECTOR('',#9,1.0);
#11=LINE('',#1,#10);
#12=EDGE_CURVE('',#2,#4,#11,.T.);
#13=DIRECTION('',(0.0,1.0,0.0));
#14=VECTOR('',#13,1.0);
#15=LINE('',#3,#14);
#16=EDGE_CURVE('',#4,#6,#15,.T.);
#17=DIRECTION('',(-1.0,0.0,0.0));
#18=VECTOR('',#17,1.0);
#19=LINE('',#5,#18);
#20=EDGE_CURVE('',#6,#8,#19,.T.);
#21=DIRECTION('',(0.0,-1.0,0.0));
#22=VECTOR('',#21,1.0);
#23=LINE('',#7,#22);
#24=EDGE_CURVE('',#8,#2,#23,.T.);
#25=ORIENTED_EDGE('',$,$,#12,.T.);
#26=ORIENTED_EDGE('',$,$,#16,.T.);
#27=ORIENTED_EDGE('',$,$,#20,.T.);
#28=ORIENTED_EDGE('',$,$,#24,.T.);
#29=EDGE_LOOP('',(#25,#26,#27,#28));
#30=DIRECTION('',(0.0,0.0,-1.0));
#31=DIRECTION('',(1.0,0.0,0.0));
#32=AXIS2_PLACEMENT_3D('',#1,#30,#31);
#33=PLANE('',#32);
#34=FACE_OUTER_BOUND('',#29,.T.);
#35=ADVANCED_FACE('',(#34),#33,.T.);
#36=CARTESIAN_POINT('',(0.0,0.0,1.0));
#37=VERTEX_POINT('',#36);
#38=CARTESIAN_POINT('',(1.0,0.0,1.0));
#39=VERTEX_POINT('',#38);
#40=CARTESIAN_POINT('',(1.0,1.0,1.0));
#41=VERTEX_POINT('',#40);
#42=CARTESIAN_POINT('',(0.0,1.0,1.0));
#43=VERTEX_POINT('',#42);
#44=DIRECTION('',(1.0,0.0,0.0));
#45=VECTOR('',#44,1.0);
#46=LINE('',#36,#45);
#47=EDGE_CURVE('',#37,#39,#46,.T.);
#48=DIRECTION('',(0.0,1.0,0.0));
#49=VECTOR('',#48,1.0);
#50=LINE('',#38,#49);
#51=EDGE_CURVE('',#39,#41,#50,.T.);
#52=DIRECTION('',(-1.0,0.0,0.0));
#53=VECTOR('',#52,1.0);
#54=LINE('',#40,#53);
#55=EDGE_CURVE('',#41,#43,#54,.T.);
#56=DIRECTION('',(0.0,-1.0,0.0));
#57=VECTOR('',#56,1.0);
#58=LINE('',#42,#57);
#59=EDGE_CURVE('',#43,#37,#58,.T.);
#60=ORIENTED_EDGE('',$,$,#47,.T.);
#61=ORIENTED_EDGE('',$,$,#51,.T.);
#62=ORIENTED_EDGE('',$,$,#55,.T.);
#63=ORIENTED_EDGE('',$,$,#59,.T.);
#64=EDGE_LOOP('',(#60,#61,#62,#63));
#65=DIRECTION('',(0.0,0.0,1.0));
#66=DIRECTION('',(1.0,0.0,0.0));
#67=AXIS2_PLACEMENT_3D('',#36,#65,#66);
#68=PLANE('',#67);
#69=FACE_OUTER_BOUND('',#64,.T.);
#70=ADVANCED_FACE('',(#69),#68,.T.);
#71=CARTESIAN_POINT('',(0.0,0.0,0.0));
#72=VERTEX_POINT('',#71);
#73=CARTESIAN_POINT('',(1.0,0.0,0.0));
#74=VERTEX_POINT('',#73);
#75=CARTESIAN_POINT('',(1.0,0.0,1.0));
#76=VERTEX_POINT('',#75);
#77=CARTESIAN_POINT('',(0.0,0.0,1.0));
#78=VERTEX_POINT('',#77);
#79=DIRECTION('',(1.0,0.0,0.0));
#80=VECTOR('',#79,1.0);
#81=LINE('',#71,#80);
#82=EDGE_CURVE('',#72,#74,#81,.T.);
#83=DIRECTION('',(0.0,0.0,1.0));
#84=VECTOR('',#83,1.0);
#85=LINE('',#73,#84);
#86=EDGE_CURVE('',#74,#76,#85,.T.);
#87=DIRECTION('',(-1.0,0.0,0.0));
#88=VECTOR('',#87,1.0);
#89=LINE('',#75,#88);
#90=EDGE_CURVE('',#76,#78,#89,.T.);
#91=DIRECTION('',(0.0,0.0,-1.0));
#92=VECTOR('',#91,1.0);
#93=LINE('',#77,#92);
#94=EDGE_CURVE('',#78,#72,#93,.T.);
#95=ORIENTED_EDGE('',$,$,#82,.T.);
#96=ORIENTED_EDGE('',$,$,#86,.T.);
#97=ORIENTED_EDGE('',$,$,#90,.T.);
#98=ORIENTED_EDGE('',$,$,#94,.T.);
#99=EDGE_LOOP('',(#95,#96,#97,#98));
#100=DIRECTION('',(0.0,-1.0,0.0));
#101=DIRECTION('',(1.0,0.0,0.0));
#102=AXIS2_PLACEMENT_3D('',#71,#100,#101);
#103=PLANE('',#102);
#104=FACE_OUTER_BOUND('',#99,.T.);
#105=ADVANCED_FACE('',(#104),#103,.T.);
#106=CARTESIAN_POINT('',(0.0,1.0,0.0));
#107=VERTEX_POINT('',#106);
#108=CARTESIAN_POINT('',(1.0,1.0,0.0));
#109=VERTEX_POINT('',#108);
#110=CARTESIAN_POINT('',(1.0,1.0,1.0));
#111=VERTEX_POINT('',#110);
#112=CARTESIAN_POINT('',(0.0,1.0,1.0));
#113=VERTEX_POINT('',#112);
#114=DIRECTION('',(1.0,0.0,0.0));
#115=VECTOR('',#114,1.0);
#116=LINE('',#106,#115);
#117=EDGE_CURVE('',#107,#109,#116,.T.);
#118=DIRECTION('',(0.0,0.0,1.0));
#119=VECTOR('',#118,1.0);
#120=LINE('',#108,#119);
#121=EDGE_CURVE('',#109,#111,#120,.T.);
#122=DIRECTION('',(-1.0,0.0,0.0));
#123=VECTOR('',#122,1.0);
#124=LINE('',#110,#123);
#125=EDGE_CURVE('',#111,#113,#124,.T.);
#126=DIRECTION('',(0.0,0.0,-1.0));
#127=VECTOR('',#126,1.0);
#128=LINE('',#112,#127);
#129=EDGE_CURVE('',#113,#107,#128,.T.);
#130=ORIENTED_EDGE('',$,$,#117,.T.);
#131=ORIENTED_EDGE('',$,$,#121,.T.);
#132=ORIENTED_EDGE('',$,$,#125,.T.);
#133=ORIENTED_EDGE('',$,$,#129,.T.);
#134=EDGE_LOOP('',(#130,#131,#132,#133));
#135=DIRECTION('',(0.0,1.0,0.0));
#136=DIRECTION('',(1.0,0.0,0.0));
#137=AXIS2_PLACEMENT_3D('',#106,#135,#136);
#138=PLANE('',#137);
#139=FACE_OUTER_BOUND('',#134,.T.);
#140=ADVANCED_FACE('',(#139),#138,.T.);
#141=CARTESIAN_POINT('',(0.0,0.0,0.0));
#142=VERTEX_POINT('',#141);
#143=CARTESIAN_POINT('',(0.0,1.0,0.0));
#144=VERTEX_POINT('',#143);
#145=CARTESIAN_POINT('',(0.0,1.0,1.0));
#146=VERTEX_POINT('',#145);
#147=CARTESIAN_POINT('',(0.0,0.0,1.0));
#148=VERTEX_POINT('',#147);
#149=DIRECTION('',(0.0,1.0,0.0));
#150=VECTOR('',#149,1.0);
#151=LINE('',#141,#150);
#152=EDGE_CURVE('',#142,#144,#151,.T.);
#153=DIRECTION('',(0.0,0.0,1.0));
#154=VECTOR('',#153,1.0);
#155=LINE('',#143,#154);
#156=EDGE_CURVE('',#144,#146,#155,.T.);
#157=DIRECTION('',(0.0,-1.0,0.0));
#158=VECTOR('',#157,1.0);
#159=LINE('',#145,#158);
#160=EDGE_CURVE('',#146,#148,#159,.T.);
#161=DIRECTION('',(0.0,0.0,-1.0));
#162=VECTOR('',#161,1.0);
#163=LINE('',#147,#162);
#164=EDGE_CURVE('',#148,#142,#163,.T.);
#165=ORIENTED_EDGE('',$,$,#152,.T.);
#166=ORIENTED_EDGE('',$,$,#156,.T.);
#167=ORIENTED_EDGE('',$,$,#160,.T.);
#168=ORIENTED_EDGE('',$,$,#164,.T.);
#169=EDGE_LOOP('',(#165,#166,#167,#168));
#170=DIRECTION('',(-1.0,0.0,0.0));
#171=DIRECTION('',(0.0,1.0,0.0));
#172=AXIS2_PLACEMENT_3D('',#141,#170,#171);
#173=PLANE('',#172);
#174=FACE_OUTER_BOUND('',#169,.T.);
#175=ADVANCED_FACE('',(#174),#173,.F.);
#176=CARTESIAN_POINT('',(1.0,0.0,0.0));
#177=VERTEX_POINT('',#176);
#178=CARTESIAN_POINT('',(1.0,1.0,0.0));
#179=VERTEX_POINT('',#178);
#180=CARTESIAN_POINT('',(1.0,1.0,1.0));
#181=VERTEX_POINT('',#180);
#182=CARTESIAN_POINT('',(1.0,0.0,1.0));
#183=VERTEX_POINT('',#182);
#184=DIRECTION('',(0.0,1.0,0.0));
#185=VECTOR('',#184,1.0);
#186=LINE('',#176,#185);
#187=EDGE_CURVE('',#177,#179,#186,.T.);
#188=DIRECTION('',(0.0,0.0,1.0));
#189=VECTOR('',#188,1.0);
#190=LINE('',#178,#189);
#191=EDGE_CURVE('',#179,#181,#190,.T.);
#192=DIRECTION('',(0.0,-1.0,0.0));
#193=VECTOR('',#192,1.0);
#194=LINE('',#180,#193);
#195=EDGE_CURVE('',#181,#183,#194,.T.);
#196=DIRECTION('',(0.0,0.0,-1.0));
#197=VECTOR('',#196,1.0);
#198=LINE('',#182,#197);
#199=EDGE_CURVE('',#183,#177,#198,.T.);
#200=ORIENTED_EDGE('',$,$,#187,.T.);
#201=ORIENTED_EDGE('',$,$,#191,.T.);
#202=ORIENTED_EDGE('',$,$,#195,.T.);
#203=ORIENTED_EDGE('',$,$,#199,.T.);
#204=EDGE_LOOP('',(#200,#201,#202,#203));
#205=DIRECTION('',(1.0,0.0,0.0));
#206=DIRECTION('',(0.0,1.0,0.0));
#207=AXIS2_PLACEMENT_3D('',#176,#205,#206);
#208=PLANE('',#207);
#209=FACE_OUTER_BOUND('',#204,.T.);
#210=ADVANCED_FACE('',(#209),#208,.F.);
#211=CLOSED_SHELL('',(#35,#70,#105,#140,#175,#210));
#212=SHELL_BASED_SURFACE_MODEL('',(#211));
#9050=PRODUCT_CONTEXT('',#9000,'mechanical');
#9051=PRODUCT('Tsh185','Tsh185','',(#9050));
#9052=PRODUCT_DEFINITION_FORMATION('','',#9051);
#9053=PRODUCT_DEFINITION_CONTEXT('part definition',#9000,'design');
#9054=PRODUCT_DEFINITION('','','',#9052,#9053);
#9055=PRODUCT_DEFINITION_SHAPE('','','',#9054);
#9056=(LENGTH_UNIT()NAMED_UNIT(*)SI_UNIT(.MILLI.,.METRE.));
#9057=(NAMED_UNIT(*)PLANE_ANGLE_UNIT()SI_UNIT($,.RADIAN.));
#9058=(NAMED_UNIT(*)SI_UNIT($,.STERADIAN.)SOLID_ANGLE_UNIT());
#9059=UNCERTAINTY_MEASURE_WITH_UNIT(.LENGTH_MEASURE(1.0E-7).,#9056,'distance_accuracy_value','');
#9060=(GEOMETRIC_REPRESENTATION_CONTEXT(3)GLOBAL_UNCERTAINTY_ASSIGNED_CONTEXT((#9059))GLOBAL_UNIT_ASSIGNED_CONTEXT((#9056,#9057,#9058))REPRESENTATION_CONTEXT('','3D'));
#9061=MANIFOLD_SURFACE_SHAPE_REPRESENTATION('',(#212),#9060);
#9062=SHAPE_DEFINITION_REPRESENTATION(#9055,#9061);
ENDSEC;
END-ISO-10303-21;
