ISO-10303-21;
HEADER;
FILE_DESCRIPTION(('Tsh149 - ShapeFix_Shell.FixFaceOrientation hexagonal-shell'),'2;1');
FILE_NAME('Tsh149.stp','2026-06-15T00:00:00',(''),(''),
  'Open CASCADE STEP processor 7.7','','');
FILE_SCHEMA(('AUTOMOTIVE_DESIGN { 1 0 10303 214 3 1 1 }'));
ENDSEC;
DATA;
#1=PLANE('',#2,(0.,0.,0.));
#2=AXIS2_PLACEMENT_3D('',#3,#4,#5);
#3=CARTESIAN_POINT('',(0.,0.,0.));
#4=DIRECTION('',(0.,0.,1.));
#5=DIRECTION('',(1.,0.,0.));
#10=PLANE('',#11,10.);
#11=AXIS2_PLACEMENT_3D('',#12,#13,#14);
#12=CARTESIAN_POINT('',(0.,0.,10.));
#13=DIRECTION('',(0.,0.,1.));
#14=DIRECTION('',(1.,0.,0.));
#20=CYLINDRICAL_SURFACE('',#21,8.66);
#21=AXIS2_PLACEMENT_3D('',#22,#23,#24);
#22=CARTESIAN_POINT('',(0.,0.,0.));
#23=DIRECTION('',(0.,0.,1.));
#24=DIRECTION('',(1.,0.,0.));
#30=PLANE('',#31,0.);
#31=AXIS2_PLACEMENT_3D('',#32,#33,#34);
#32=CARTESIAN_POINT('',(0.,0.,0.));
#33=DIRECTION('',(0.,0.,-1.));
#34=DIRECTION('',(1.,0.,0.));
#40=PLANE('',#41,10.);
#41=AXIS2_PLACEMENT_3D('',#42,#43,#44);
#42=CARTESIAN_POINT('',(0.,0.,10.));
#43=DIRECTION('',(0.,0.,1.));
#44=DIRECTION('',(1.,0.,0.));
#50=PLANE('',#51,0.);
#51=AXIS2_PLACEMENT_3D('',#52,#53,#54);
#52=CARTESIAN_POINT('',(0.,0.,0.));
#53=DIRECTION('',(0.,0.,-1.));
#54=DIRECTION('',(1.,0.,0.));
#100=FACE_OUTER_BOUND('',#101,.T.);
#101=EDGE_LOOP('',(#102,#103,#104,#105,#106,#107));
#102=ORIENTED_EDGE('',*,*,#108,.T.);
#103=ORIENTED_EDGE('',*,*,#109,.T.);
#104=ORIENTED_EDGE('',*,*,#110,.T.);
#105=ORIENTED_EDGE('',*,*,#111,.T.);
#106=ORIENTED_EDGE('',*,*,#112,.T.);
#107=ORIENTED_EDGE('',*,*,#113,.T.);
#108=EDGE_CURVE('',#114,#115,#116,.T.);
#109=EDGE_CURVE('',#115,#117,#118,.T.);
#110=EDGE_CURVE('',#117,#119,#120,.T.);
#111=EDGE_CURVE('',#119,#121,#122,.T.);
#112=EDGE_CURVE('',#121,#123,#124,.T.);
#113=EDGE_CURVE('',#123,#114,#125,.T.);
#114=VERTEX_POINT('',#126);
#115=VERTEX_POINT('',#127);
#116=LINE('',#128,#129);
#117=VERTEX_POINT('',#130);
#118=LINE('',#131,#132);
#119=VERTEX_POINT('',#133);
#120=LINE('',#134,#135);
#121=VERTEX_POINT('',#136);
#122=LINE('',#137,#138);
#123=VERTEX_POINT('',#139);
#124=LINE('',#140,#141);
#125=LINE('',#142,#143);
#126=CARTESIAN_POINT('',(8.66,0.,0.));
#127=CARTESIAN_POINT('',(4.33,7.5,0.));
#128=CARTESIAN_POINT('',(8.66,0.,0.));
#129=DIRECTION('',(-1.,0.87,0.));
#130=CARTESIAN_POINT('',(-4.33,7.5,0.));
#131=CARTESIAN_POINT('',(4.33,7.5,0.));
#132=DIRECTION('',(-1.,0.,0.));
#133=CARTESIAN_POINT('',(-8.66,0.,0.));
#134=CARTESIAN_POINT('',(-4.33,7.5,0.));
#135=DIRECTION('',(1.,-0.87,0.));
#136=CARTESIAN_POINT('',(-4.33,-7.5,0.));
#137=CARTESIAN_POINT('',(-8.66,0.,0.));
#138=DIRECTION('',(1.,0.,0.));
#139=CARTESIAN_POINT('',(4.33,-7.5,0.));
#140=CARTESIAN_POINT('',(-4.33,-7.5,0.));
#141=DIRECTION('',(1.,0.87,0.));
#142=CARTESIAN_POINT('',(4.33,-7.5,0.));
#143=DIRECTION('',(-1.,0.,0.));
#150=ADVANCED_FACE('',(#100),#30,.T.);
#160=FACE_OUTER_BOUND('',#161,.T.);
#161=EDGE_LOOP('',(#162,#163,#164,#165,#166,#167));
#162=ORIENTED_EDGE('',*,*,#108,.F.);
#163=ORIENTED_EDGE('',*,*,#109,.F.);
#164=ORIENTED_EDGE('',*,*,#110,.F.);
#165=ORIENTED_EDGE('',*,*,#111,.F.);
#166=ORIENTED_EDGE('',*,*,#112,.F.);
#167=ORIENTED_EDGE('',*,*,#113,.F.);
#168=ADVANCED_FACE('',(#160),#40,.T.);
#200=FACE_OUTER_BOUND('',#201,.T.);
#201=EDGE_LOOP('',(#202,#203,#204));
#202=ORIENTED_EDGE('',*,*,#108,.F.);
#203=ORIENTED_EDGE('',*,*,#205,.T.);
#204=ORIENTED_EDGE('',*,*,#206,.T.);
#205=EDGE_CURVE('',#114,#114,#207,.T.);
#206=EDGE_CURVE('',#114,#114,#208,.T.);
#207=CIRCLE('',#209,0.1);
#208=CIRCLE('',#210,0.1);
#209=AXIS2_PLACEMENT_3D('',#211,#212,#213);
#211=CARTESIAN_POINT('',(8.66,0.,5.));
#212=DIRECTION('',(1.,0.87,0.));
#213=DIRECTION('',(0.,0.,1.));
#210=AXIS2_PLACEMENT_3D('',#214,#215,#216);
#214=CARTESIAN_POINT('',(8.66,0.,5.));
#215=DIRECTION('',(1.,0.87,0.));
#216=DIRECTION('',(0.,0.,1.));
#217=ADVANCED_FACE('',(#200),#20,.F.);
#220=FACE_OUTER_BOUND('',#221,.T.);
#221=EDGE_LOOP('',(#222,#223,#224));
#222=ORIENTED_EDGE('',*,*,#109,.F.);
#223=ORIENTED_EDGE('',*,*,#225,.T.);
#224=ORIENTED_EDGE('',*,*,#226,.T.);
#225=EDGE_CURVE('',#115,#115,#227,.T.);
#226=EDGE_CURVE('',#115,#115,#228,.T.);
#227=CIRCLE('',#229,0.1);
#228=CIRCLE('',#230,0.1);
#229=AXIS2_PLACEMENT_3D('',#231,#232,#233);
#231=CARTESIAN_POINT('',(4.33,7.5,5.));
#232=DIRECTION('',(1.,0.87,0.));
#233=DIRECTION('',(0.,0.,1.));
#230=AXIS2_PLACEMENT_3D('',#234,#235,#236);
#234=CARTESIAN_POINT('',(4.33,7.5,5.));
#235=DIRECTION('',(1.,0.87,0.));
#236=DIRECTION('',(0.,0.,1.));
#237=ADVANCED_FACE('',(#220),#20,.F.);
#240=FACE_OUTER_BOUND('',#241,.T.);
#241=EDGE_LOOP('',(#242,#243,#244));
#242=ORIENTED_EDGE('',*,*,#110,.F.);
#243=ORIENTED_EDGE('',*,*,#245,.T.);
#244=ORIENTED_EDGE('',*,*,#246,.T.);
#245=EDGE_CURVE('',#117,#117,#247,.T.);
#246=EDGE_CURVE('',#117,#117,#248,.T.);
#247=CIRCLE('',#249,0.1);
#248=CIRCLE('',#250,0.1);
#249=AXIS2_PLACEMENT_3D('',#251,#252,#253);
#251=CARTESIAN_POINT('',(-4.33,7.5,5.));
#252=DIRECTION('',(1.,0.87,0.));
#253=DIRECTION('',(0.,0.,1.));
#250=AXIS2_PLACEMENT_3D('',#254,#255,#256);
#254=CARTESIAN_POINT('',(-4.33,7.5,5.));
#255=DIRECTION('',(1.,0.87,0.));
#256=DIRECTION('',(0.,0.,1.));
#257=ADVANCED_FACE('',(#240),#20,.F.);
#260=FACE_OUTER_BOUND('',#261,.T.);
#261=EDGE_LOOP('',(#262,#263,#264));
#262=ORIENTED_EDGE('',*,*,#111,.F.);
#263=ORIENTED_EDGE('',*,*,#265,.T.);
#264=ORIENTED_EDGE('',*,*,#266,.T.);
#265=EDGE_CURVE('',#119,#119,#267,.T.);
#266=EDGE_CURVE('',#119,#119,#268,.T.);
#267=CIRCLE('',#269,0.1);
#268=CIRCLE('',#270,0.1);
#269=AXIS2_PLACEMENT_3D('',#271,#272,#273);
#271=CARTESIAN_POINT('',(-8.66,0.,5.));
#272=DIRECTION('',(1.,0.87,0.));
#273=DIRECTION('',(0.,0.,1.));
#270=AXIS2_PLACEMENT_3D('',#274,#275,#276);
#274=CARTESIAN_POINT('',(-8.66,0.,5.));
#275=DIRECTION('',(1.,0.87,0.));
#276=DIRECTION('',(0.,0.,1.));
#277=ADVANCED_FACE('',(#260),#20,.F.);
#280=FACE_OUTER_BOUND('',#281,.T.);
#281=EDGE_LOOP('',(#282,#283,#284));
#282=ORIENTED_EDGE('',*,*,#112,.F.);
#283=ORIENTED_EDGE('',*,*,#285,.T.);
#284=ORIENTED_EDGE('',*,*,#286,.T.);
#285=EDGE_CURVE('',#121,#121,#287,.T.);
#286=EDGE_CURVE('',#121,#121,#288,.T.);
#287=CIRCLE('',#289,0.1);
#288=CIRCLE('',#290,0.1);
#289=AXIS2_PLACEMENT_3D('',#291,#292,#293);
#291=CARTESIAN_POINT('',(-4.33,-7.5,5.));
#292=DIRECTION('',(1.,0.87,0.));
#293=DIRECTION('',(0.,0.,1.));
#290=AXIS2_PLACEMENT_3D('',#294,#295,#296);
#294=CARTESIAN_POINT('',(-4.33,-7.5,5.));
#295=DIRECTION('',(1.,0.87,0.));
#296=DIRECTION('',(0.,0.,1.));
#297=ADVANCED_FACE('',(#280),#20,.F.);
#300=FACE_OUTER_BOUND('',#301,.T.);
#301=EDGE_LOOP('',(#302,#303,#304));
#302=ORIENTED_EDGE('',*,*,#113,.F.);
#303=ORIENTED_EDGE('',*,*,#305,.T.);
#304=ORIENTED_EDGE('',*,*,#306,.T.);
#305=EDGE_CURVE('',#123,#123,#307,.T.);
#306=EDGE_CURVE('',#123,#123,#308,.T.);
#307=CIRCLE('',#309,0.1);
#308=CIRCLE('',#310,0.1);
#309=AXIS2_PLACEMENT_3D('',#311,#312,#313);
#311=CARTESIAN_POINT('',(4.33,-7.5,5.));
#312=DIRECTION('',(1.,0.87,0.));
#313=DIRECTION('',(0.,0.,1.));
#310=AXIS2_PLACEMENT_3D('',#314,#315,#316);
#314=CARTESIAN_POINT('',(4.33,-7.5,5.));
#315=DIRECTION('',(1.,0.87,0.));
#316=DIRECTION('',(0.,0.,1.));
#317=ADVANCED_FACE('',(#300),#20,.F.);
#400=OPEN_SHELL('',(#150,#168,#217,#237,#257,#277,#297,#317));
#9000=PRODUCT_CONTEXT('',#1,'mechanical');
#9001=PRODUCT('Tsh149','Tsh149','',(#9000));
#9002=PRODUCT_DEFINITION_FORMATION('','',#9001);
#9003=PRODUCT_DEFINITION_CONTEXT('part definition',#1,'design');
#9004=PRODUCT_DEFINITION('','',#9002,#9003);
#9005=PRODUCT_DEFINITION_SHAPE('','',#9004);
#9006=(LENGTH_UNIT()NAMED_UNIT(*)SI_UNIT(.MILLI.,.METRE.));
#9007=(NAMED_UNIT(*)PLANE_ANGLE_UNIT()SI_UNIT($,.RADIAN.));
#9008=(NAMED_UNIT(*)SI_UNIT($,.STERADIAN.)SOLID_ANGLE_UNIT());
#9009=UNCERTAINTY_MEASURE_WITH_UNIT(LENGTH_MEASURE(1.0E-7),#9006,'distance_accuracy_value','');
#9010=(GEOMETRIC_REPRESENTATION_CONTEXT(3)GLOBAL_UNCERTAINTY_ASSIGNED_CONTEXT((#9009))GLOBAL_UNIT_ASSIGNED_CONTEXT((#9006,#9007,#9008))REPRESENTATION_CONTEXT('','3D'));
#9021=SHELL_BASED_SURFACE_MODEL('sbsm',(#400));
#9022=MANIFOLD_SURFACE_SHAPE_REPRESENTATION('',(#9021),#9010);
#9023=SHAPE_DEFINITION_REPRESENTATION(#9005,#9022);
ENDSEC;
END-ISO-10303-21;
