ISO-10303-21;
/* Tsh160 - ShapeAnalysis_Shell.CheckOrientedShells inverted-trace
 * Defect: A shell where the implicit face-orientation trace yields a connected
 * cycle but the cycle direction is inverted from expected. An inside-out solid
 * that looks topologically valid but has opposite winding from the consensus. */
HEADER;
FILE_DESCRIPTION(('Tsh160 test case','Shell with inverted orientation trace'),'2;1');
FILE_NAME('Tsh160.stp','2026-06-15T00:00:00',(''),(''),'auto-generated','','');
FILE_SCHEMA(('AUTOMOTIVE_DESIGN { 1 0 10303 214 3 1 1 }'));
ENDSEC;
DATA;
#1=APPLICATION_CONTEXT('automotive_design');
#2=APPLICATION_PROTOCOL_DEFINITION('international standard','automotive_design',2000,#1);
/* Cube with inverted winding on all faces */
#100=CARTESIAN_POINT('',(0.0,0.0,0.0));
#101=CARTESIAN_POINT('',(1.0,0.0,0.0));
#102=CARTESIAN_POINT('',(1.0,1.0,0.0));
#103=CARTESIAN_POINT('',(0.0,1.0,0.0));
#104=CARTESIAN_POINT('',(0.0,0.0,1.0));
#105=CARTESIAN_POINT('',(1.0,0.0,1.0));
#106=CARTESIAN_POINT('',(1.0,1.0,1.0));
#107=CARTESIAN_POINT('',(0.0,1.0,1.0));
#110=VERTEX_POINT('',#100); #111=VERTEX_POINT('',#101);
#112=VERTEX_POINT('',#102); #113=VERTEX_POINT('',#103);
#114=VERTEX_POINT('',#104); #115=VERTEX_POINT('',#105);
#116=VERTEX_POINT('',#106); #117=VERTEX_POINT('',#107);
#200=DIRECTION('',(0.0,0.0,1.0));
#201=DIRECTION('',(1.0,0.0,0.0));
#210=CARTESIAN_POINT('',(0.5,0.5,0.0));
#211=AXIS2_PLACEMENT_3D('',#210,#200,#201);
#212=PLANE('',#211);
#220=CARTESIAN_POINT('',(0.5,0.5,1.0));
#221=AXIS2_PLACEMENT_3D('',#220,#200,#201);
#222=PLANE('',#221);
#230=CARTESIAN_POINT('',(0.5,0.0,0.5));
#231=DIRECTION('',(0.0,-1.0,0.0));
#232=AXIS2_PLACEMENT_3D('',#230,#231,#201);
#233=PLANE('',#232);
#240=CARTESIAN_POINT('',(0.5,1.0,0.5));
#241=DIRECTION('',(0.0,1.0,0.0));
#242=AXIS2_PLACEMENT_3D('',#240,#241,#201);
#243=PLANE('',#242);
#250=CARTESIAN_POINT('',(0.0,0.5,0.5));
#251=DIRECTION('',(-1.0,0.0,0.0));
#252=DIRECTION('',(0.0,1.0,0.0));
#253=AXIS2_PLACEMENT_3D('',#250,#251,#252);
#254=PLANE('',#253);
#260=CARTESIAN_POINT('',(1.0,0.5,0.5));
#261=DIRECTION('',(1.0,0.0,0.0));
#262=AXIS2_PLACEMENT_3D('',#260,#261,#252);
#263=PLANE('',#262);
/* Edges */
#300=DIRECTION('',(1.0,0.0,0.0));
#301=VECTOR('',#300,1.0);
#302=DIRECTION('',(0.0,1.0,0.0));
#303=VECTOR('',#302,1.0);
#304=DIRECTION('',(0.0,0.0,1.0));
#305=VECTOR('',#304,1.0);
#310=LINE('',#100,#301); #311=EDGE_CURVE('',#110,#111,#310,.T.);
#312=LINE('',#101,#303); #313=EDGE_CURVE('',#111,#112,#312,.T.);
#314=LINE('',#103,#301); #315=EDGE_CURVE('',#113,#112,#314,.T.);
#316=LINE('',#100,#303); #317=EDGE_CURVE('',#110,#113,#316,.T.);
#318=LINE('',#104,#301); #319=EDGE_CURVE('',#114,#115,#318,.T.);
#320=LINE('',#105,#303); #321=EDGE_CURVE('',#115,#116,#320,.T.);
#322=LINE('',#107,#301); #323=EDGE_CURVE('',#117,#116,#322,.T.);
#324=LINE('',#104,#303); #325=EDGE_CURVE('',#114,#117,#324,.T.);
#326=LINE('',#100,#305); #327=EDGE_CURVE('',#110,#114,#326,.T.);
#328=LINE('',#101,#305); #329=EDGE_CURVE('',#111,#115,#328,.T.);
#330=LINE('',#102,#305); #331=EDGE_CURVE('',#112,#116,#330,.T.);
#332=LINE('',#103,#305); #333=EDGE_CURVE('',#113,#117,#332,.T.);
/* All faces with INVERTED winding (inward normals) */
#400=ORIENTED_EDGE('',*,*,#311,.T.);
#401=ORIENTED_EDGE('',*,*,#317,.T.);
#402=ORIENTED_EDGE('',*,*,#315,.T.);
#403=ORIENTED_EDGE('',*,*,#313,.T.);
#404=EDGE_LOOP('',(#400,#401,#402,#403));
#405=FACE_OUTER_BOUND('',#404,.T.);
#406=ADVANCED_FACE('',(#405),#212,.F.);
#410=ORIENTED_EDGE('',*,*,#319,.F.);
#411=ORIENTED_EDGE('',*,*,#321,.F.);
#412=ORIENTED_EDGE('',*,*,#323,.T.);
#413=ORIENTED_EDGE('',*,*,#325,.T.);
#414=EDGE_LOOP('',(#410,#411,#412,#413));
#415=FACE_OUTER_BOUND('',#414,.T.);
#416=ADVANCED_FACE('',(#415),#222,.F.);
#420=ORIENTED_EDGE('',*,*,#311,.F.);
#421=ORIENTED_EDGE('',*,*,#329,.F.);
#422=ORIENTED_EDGE('',*,*,#319,.T.);
#423=ORIENTED_EDGE('',*,*,#327,.T.);
#424=EDGE_LOOP('',(#420,#421,#422,#423));
#425=FACE_OUTER_BOUND('',#424,.T.);
#426=ADVANCED_FACE('',(#425),#233,.F.);
#430=ORIENTED_EDGE('',*,*,#315,.F.);
#431=ORIENTED_EDGE('',*,*,#331,.F.);
#432=ORIENTED_EDGE('',*,*,#323,.T.);
#433=ORIENTED_EDGE('',*,*,#333,.T.);
#434=EDGE_LOOP('',(#430,#431,#432,#433));
#435=FACE_OUTER_BOUND('',#434,.T.);
#436=ADVANCED_FACE('',(#435),#243,.F.);
#440=ORIENTED_EDGE('',*,*,#317,.F.);
#441=ORIENTED_EDGE('',*,*,#333,.F.);
#442=ORIENTED_EDGE('',*,*,#325,.T.);
#443=ORIENTED_EDGE('',*,*,#327,.T.);
#444=EDGE_LOOP('',(#440,#441,#442,#443));
#445=FACE_OUTER_BOUND('',#444,.T.);
#446=ADVANCED_FACE('',(#445),#254,.F.);
#450=ORIENTED_EDGE('',*,*,#313,.F.);
#451=ORIENTED_EDGE('',*,*,#331,.F.);
#452=ORIENTED_EDGE('',*,*,#321,.T.);
#453=ORIENTED_EDGE('',*,*,#329,.T.);
#454=EDGE_LOOP('',(#450,#451,#452,#453));
#455=FACE_OUTER_BOUND('',#454,.T.);
#456=ADVANCED_FACE('',(#455),#263,.F.);
#500=OPEN_SHELL('inverted_cube',(#406,#416,#426,#436,#446,#456));
#9000=PRODUCT_CONTEXT('',#1,'mechanical');
#9001=PRODUCT('Tsh160','Tsh160','',(#9000));
#9002=PRODUCT_DEFINITION_FORMATION('','',#9001);
#9003=PRODUCT_DEFINITION_CONTEXT('part definition',#1,'design');
#9004=PRODUCT_DEFINITION('','',#9002,#9003);
#9005=PRODUCT_DEFINITION_SHAPE('','',#9004);
#9006=(LENGTH_UNIT()NAMED_UNIT(*)SI_UNIT(.MILLI.,.METRE.));
#9007=(NAMED_UNIT(*)PLANE_ANGLE_UNIT()SI_UNIT($,.RADIAN.));
#9008=(NAMED_UNIT(*)SI_UNIT($,.STERADIAN.)SOLID_ANGLE_UNIT());
#9009=UNCERTAINTY_MEASURE_WITH_UNIT(LENGTH_MEASURE(1.0E-7),#9006,'distance_accuracy_value','');
#9010=(GEOMETRIC_REPRESENTATION_CONTEXT(3)GLOBAL_UNCERTAINTY_ASSIGNED_CONTEXT((#9009))GLOBAL_UNIT_ASSIGNED_CONTEXT((#9006,#9007,#9008))REPRESENTATION_CONTEXT('','3D'));
#9021=SHELL_BASED_SURFACE_MODEL('sbsm',(#500));
#9022=MANIFOLD_SURFACE_SHAPE_REPRESENTATION('',(#9021),#9010);
#9023=SHAPE_DEFINITION_REPRESENTATION(#9005,#9022);
ENDSEC;
END-ISO-10303-21;
