ISO-10303-21;
HEADER;
FILE_DESCRIPTION(('Tsh146 - ShapeUpgrade_ShellSewing.Apply different-tolerance-per-face'),'2;1');
FILE_NAME('Tsh146.stp','2026-06-15T00:00:00',(''),(''),
  'Open CASCADE STEP processor 7.7','','');
FILE_SCHEMA(('AUTOMOTIVE_DESIGN { 1 0 10303 214 3 1 1 }'));
ENDSEC;
DATA;
#1=PLANE('',#2,(0.,0.,0.));
#2=AXIS2_PLACEMENT_3D('',#3,#4,#5);
#3=CARTESIAN_POINT('',(0.,0.,0.));
#4=DIRECTION('',(0.,0.,1.));
#5=DIRECTION('',(1.,0.,0.));
#10=PLANE('',#11,(0.,0.,0.));
#11=AXIS2_PLACEMENT_3D('',#12,#13,#14);
#12=CARTESIAN_POINT('',(0.,0.,0.));
#13=DIRECTION('',(0.,0.,1.));
#14=DIRECTION('',(1.,0.,0.));
#100=VERTEX_POINT('',#101);
#101=CARTESIAN_POINT('',(0.,0.,0.));
#102=VERTEX_POINT('',#103);
#103=CARTESIAN_POINT('',(10.,0.,0.));
#104=VERTEX_POINT('',#105);
#105=CARTESIAN_POINT('',(10.,10.,0.));
#106=VERTEX_POINT('',#107);
#107=CARTESIAN_POINT('',(0.,10.,0.));
#108=VERTEX_POINT('',#109);
#109=CARTESIAN_POINT('',(10.001,0.,0.));
#110=VERTEX_POINT('',#111);
#111=CARTESIAN_POINT('',(10.001,10.,0.));
#112=VERTEX_POINT('',#113);
#113=CARTESIAN_POINT('',(20.,10.,0.));
#114=VERTEX_POINT('',#115);
#115=CARTESIAN_POINT('',(20.,0.,0.));
#120=LINE('',#121,#122);
#121=CARTESIAN_POINT('',(0.,0.,0.));
#122=DIRECTION('',(1.,0.,0.));
#123=LINE('',#124,#125);
#124=CARTESIAN_POINT('',(10.,0.,0.));
#125=DIRECTION('',(0.,1.,0.));
#126=LINE('',#127,#128);
#127=CARTESIAN_POINT('',(10.,10.,0.));
#128=DIRECTION('',(-1.,0.,0.));
#129=LINE('',#130,#131);
#130=CARTESIAN_POINT('',(0.,10.,0.));
#131=DIRECTION('',(0.,-1.,0.));
#132=LINE('',#133,#134);
#133=CARTESIAN_POINT('',(10.001,0.,0.));
#134=DIRECTION('',(1.,0.,0.));
#135=LINE('',#136,#137);
#136=CARTESIAN_POINT('',(20.,0.,0.));
#137=DIRECTION('',(0.,1.,0.));
#138=LINE('',#139,#140);
#139=CARTESIAN_POINT('',(20.,10.,0.));
#140=DIRECTION('',(-1.,0.,0.));
#141=LINE('',#142,#143);
#142=CARTESIAN_POINT('',(10.001,10.,0.));
#143=DIRECTION('',(0.,-1.,0.));
#150=EDGE_CURVE('',#100,#102,#120,.T.);
#151=EDGE_CURVE('',#102,#104,#123,.T.);
#152=EDGE_CURVE('',#104,#106,#126,.T.);
#153=EDGE_CURVE('',#106,#100,#129,.T.);
#154=EDGE_CURVE('',#108,#115,#134,.T.);
#155=EDGE_CURVE('',#115,#113,#137,.T.);
#156=EDGE_CURVE('',#113,#110,#140,.T.);
#157=EDGE_CURVE('',#110,#108,#143,.T.);
#160=ORIENTED_EDGE('',*,*,#150,.T.);
#161=ORIENTED_EDGE('',*,*,#151,.T.);
#162=ORIENTED_EDGE('',*,*,#152,.T.);
#163=ORIENTED_EDGE('',*,*,#153,.T.);
#164=FACE_OUTER_BOUND('',#170,.T.);
#170=EDGE_LOOP('',(#160,#161,#162,#163));
#171=ADVANCED_FACE('',(#164),#1,.T.);
#172=ORIENTED_EDGE('',*,*,#154,.T.);
#173=ORIENTED_EDGE('',*,*,#155,.T.);
#174=ORIENTED_EDGE('',*,*,#156,.T.);
#175=ORIENTED_EDGE('',*,*,#157,.T.);
#176=FACE_OUTER_BOUND('',#180,.T.);
#180=EDGE_LOOP('',(#172,#173,#174,#175));
#181=ADVANCED_FACE('',(#176),#10,.T.);
#190=OPEN_SHELL('',(#171,#181));
#9000=PRODUCT_CONTEXT('',#1,'mechanical');
#9001=PRODUCT('Tsh146','Tsh146','',(#9000));
#9002=PRODUCT_DEFINITION_FORMATION('','',#9001);
#9003=PRODUCT_DEFINITION_CONTEXT('part definition',#1,'design');
#9004=PRODUCT_DEFINITION('','',#9002,#9003);
#9005=PRODUCT_DEFINITION_SHAPE('','',#9004);
#9006=(LENGTH_UNIT()NAMED_UNIT(*)SI_UNIT(.MILLI.,.METRE.));
#9007=(NAMED_UNIT(*)PLANE_ANGLE_UNIT()SI_UNIT($,.RADIAN.));
#9008=(NAMED_UNIT(*)SI_UNIT($,.STERADIAN.)SOLID_ANGLE_UNIT());
#9009=UNCERTAINTY_MEASURE_WITH_UNIT(LENGTH_MEASURE(1.0E-7),#9006,'distance_accuracy_value','');
#9010=(GEOMETRIC_REPRESENTATION_CONTEXT(3)GLOBAL_UNCERTAINTY_ASSIGNED_CONTEXT((#9009))GLOBAL_UNIT_ASSIGNED_CONTEXT((#9006,#9007,#9008))REPRESENTATION_CONTEXT('','3D'));
#9021=SHELL_BASED_SURFACE_MODEL('sbsm',(#190));
#9022=MANIFOLD_SURFACE_SHAPE_REPRESENTATION('',(#9021),#9010);
#9023=SHAPE_DEFINITION_REPRESENTATION(#9005,#9022);
ENDSEC;
END-ISO-10303-21;
