ISO-10303-21;
HEADER;
FILE_DESCRIPTION(('Tsh157 - ShapeFix_Shell.Perform circular-fix-dependency'),'2;1');
FILE_NAME('Tsh157.stp','2026-06-15T00:00:00',(''),(''),
  'Open CASCADE STEP processor 7.7','','');
FILE_SCHEMA(('AUTOMOTIVE_DESIGN { 1 0 10303 214 3 1 1 }'));
ENDSEC;
DATA;
#1=PLANE('',#2,(0.,0.,0.));
#2=AXIS2_PLACEMENT_3D('',#3,#4,#5);
#3=CARTESIAN_POINT('',(0.,0.,0.));
#4=DIRECTION('',(0.,0.,1.));
#5=DIRECTION('',(1.,0.,0.));
#10=PLANE('',#11,0.);
#11=AXIS2_PLACEMENT_3D('',#12,#13,#14);
#12=CARTESIAN_POINT('',(0.,0.,0.));
#13=DIRECTION('',(0.,0.,1.));
#14=DIRECTION('',(1.,0.,0.));
#20=PLANE('',#21,5.);
#21=AXIS2_PLACEMENT_3D('',#22,#23,#24);
#22=CARTESIAN_POINT('',(0.,0.,5.));
#23=DIRECTION('',(0.,0.,1.));
#24=DIRECTION('',(1.,0.,0.));
#30=PLANE('',#31,10.);
#31=AXIS2_PLACEMENT_3D('',#32,#33,#34);
#32=CARTESIAN_POINT('',(0.,0.,10.));
#33=DIRECTION('',(0.,0.,1.));
#34=DIRECTION('',(1.,0.,0.));
#100=FACE_OUTER_BOUND('',#101,.T.);
#101=EDGE_LOOP('',(#102,#103,#104,#105));
#102=ORIENTED_EDGE('',*,*,#106,.T.);
#103=ORIENTED_EDGE('',*,*,#107,.T.);
#104=ORIENTED_EDGE('',*,*,#108,.T.);
#105=ORIENTED_EDGE('',*,*,#109,.T.);
#106=EDGE_CURVE('',#110,#111,#112,.T.);
#107=EDGE_CURVE('',#111,#113,#114,.T.);
#108=EDGE_CURVE('',#113,#114,#115,.T.);
#109=EDGE_CURVE('',#114,#110,#116,.T.);
#110=VERTEX_POINT('',#117);
#111=VERTEX_POINT('',#118);
#112=LINE('',#119,#120);
#113=VERTEX_POINT('',#121);
#114=VERTEX_POINT('',#122);
#115=LINE('',#123,#124);
#116=LINE('',#125,#126);
#117=CARTESIAN_POINT('',(0.,0.,0.));
#118=CARTESIAN_POINT('',(1.0E-6,0.,0.));
#119=CARTESIAN_POINT('',(0.,0.,0.));
#120=DIRECTION('',(1.,0.,0.));
#121=CARTESIAN_POINT('',(1.0E-6,1.0E-6,0.));
#122=CARTESIAN_POINT('',(0.,1.0E-6,0.));
#123=CARTESIAN_POINT('',(1.0E-6,1.0E-6,0.));
#124=DIRECTION('',(-1.,0.,0.));
#125=CARTESIAN_POINT('',(0.,1.0E-6,0.));
#126=DIRECTION('',(0.,-1.,0.));
#150=FACE_OUTER_BOUND('',#151,.T.);
#151=EDGE_LOOP('',(#152,#153,#154,#155));
#152=ORIENTED_EDGE('',*,*,#106,.F.);
#153=ORIENTED_EDGE('',*,*,#156,.T.);
#154=ORIENTED_EDGE('',*,*,#157,.F.);
#155=ORIENTED_EDGE('',*,*,#158,.T.);
#156=EDGE_CURVE('',#118,#160,#161,.T.);
#157=EDGE_CURVE('',#160,#122,#162,.T.);
#158=EDGE_CURVE('',#122,#111,#163,.T.);
#160=VERTEX_POINT('',#164);
#161=LINE('',#165,#166);
#162=LINE('',#167,#168);
#163=LINE('',#169,#170);
#164=CARTESIAN_POINT('',(1.0E-6,5.0E-7,0.));
#165=CARTESIAN_POINT('',(1.0E-6,0.,0.));
#166=DIRECTION('',(0.,1.,0.));
#167=CARTESIAN_POINT('',(1.0E-6,5.0E-7,0.));
#168=DIRECTION('',(-.707,-.707,0.));
#169=CARTESIAN_POINT('',(0.,1.0E-6,0.));
#170=DIRECTION('',(1.,0.,0.));
#200=FACE_OUTER_BOUND('',#201,.T.);
#201=EDGE_LOOP('',(#202,#203,#204,#205));
#202=ORIENTED_EDGE('',*,*,#157,.T.);
#203=ORIENTED_EDGE('',*,*,#206,.T.);
#204=ORIENTED_EDGE('',*,*,#207,.T.);
#205=ORIENTED_EDGE('',*,*,#208,.F.);
#206=EDGE_CURVE('',#160,#210,#211,.T.);
#207=EDGE_CURVE('',#210,#113,#212,.T.);
#208=EDGE_CURVE('',#113,#160,#213,.T.);
#210=VERTEX_POINT('',#214);
#211=LINE('',#215,#216);
#212=LINE('',#217,#218);
#213=LINE('',#219,#220);
#214=CARTESIAN_POINT('',(5.0E-7,5.0E-7,0.));
#215=CARTESIAN_POINT('',(1.0E-6,5.0E-7,0.));
#216=DIRECTION('',(-.5,-.5,0.));
#217=CARTESIAN_POINT('',(5.0E-7,5.0E-7,0.));
#218=DIRECTION('',(.707,.707,0.));
#219=CARTESIAN_POINT('',(1.0E-6,1.0E-6,0.));
#220=DIRECTION('',(-.707,-.707,0.));
#300=ADVANCED_FACE('',(#100),#10,.T.);
#301=ADVANCED_FACE('',(#150),#20,.F.);
#302=ADVANCED_FACE('',(#200),#30,.T.);
#400=OPEN_SHELL('',(#300,#301,#302));
#9000=PRODUCT_CONTEXT('',#1,'mechanical');
#9001=PRODUCT('Tsh157','Tsh157','',(#9000));
#9002=PRODUCT_DEFINITION_FORMATION('','',#9001);
#9003=PRODUCT_DEFINITION_CONTEXT('part definition',#1,'design');
#9004=PRODUCT_DEFINITION('','',#9002,#9003);
#9005=PRODUCT_DEFINITION_SHAPE('','',#9004);
#9006=(LENGTH_UNIT()NAMED_UNIT(*)SI_UNIT(.MILLI.,.METRE.));
#9007=(NAMED_UNIT(*)PLANE_ANGLE_UNIT()SI_UNIT($,.RADIAN.));
#9008=(NAMED_UNIT(*)SI_UNIT($,.STERADIAN.)SOLID_ANGLE_UNIT());
#9009=UNCERTAINTY_MEASURE_WITH_UNIT(LENGTH_MEASURE(1.0E-7),#9006,'distance_accuracy_value','');
#9010=(GEOMETRIC_REPRESENTATION_CONTEXT(3)GLOBAL_UNCERTAINTY_ASSIGNED_CONTEXT((#9009))GLOBAL_UNIT_ASSIGNED_CONTEXT((#9006,#9007,#9008))REPRESENTATION_CONTEXT('','3D'));
#9021=SHELL_BASED_SURFACE_MODEL('sbsm',(#400));
#9022=MANIFOLD_SURFACE_SHAPE_REPRESENTATION('',(#9021),#9010);
#9023=SHAPE_DEFINITION_REPRESENTATION(#9005,#9022);
ENDSEC;
END-ISO-10303-21;
