ISO-10303-21;
HEADER;
FILE_DESCRIPTION(('Tsh150 - ShapeAnalysis_Shell.CheckOrientedShells thin-shell'),'2;1');
FILE_NAME('Tsh150.stp','2026-06-15T00:00:00',(''),(''),
  'Open CASCADE STEP processor 7.7','','');
FILE_SCHEMA(('AUTOMOTIVE_DESIGN { 1 0 10303 214 3 1 1 }'));
ENDSEC;
DATA;
#1=PLANE('',#2,(0.,0.,0.));
#2=AXIS2_PLACEMENT_3D('',#3,#4,#5);
#3=CARTESIAN_POINT('',(0.,0.,0.));
#4=DIRECTION('',(0.,0.,1.));
#5=DIRECTION('',(1.,0.,0.));
#10=RECTANGULAR_TRIMMED_SURFACE('',#11,0.,100.,0.,50.,.T.,.T.);
#11=PLANE('',#12,0.);
#12=AXIS2_PLACEMENT_3D('',#13,#14,#15);
#13=CARTESIAN_POINT('',(0.,0.,0.));
#14=DIRECTION('',(0.,0.,1.));
#15=DIRECTION('',(1.,0.,0.));
#20=RECTANGULAR_TRIMMED_SURFACE('',#21,0.,100.,0.,50.,.T.,.T.);
#21=PLANE('',#22,0.001);
#22=AXIS2_PLACEMENT_3D('',#23,#24,#25);
#23=CARTESIAN_POINT('',(0.,0.,0.001));
#24=DIRECTION('',(0.,0.,1.));
#25=DIRECTION('',(1.,0.,0.));
#30=RECTANGULAR_TRIMMED_SURFACE('',#31,0.,100.,.0,.5,.T.,.T.);
#31=PLANE('',#32,0.);
#32=AXIS2_PLACEMENT_3D('',#33,#34,#35);
#33=CARTESIAN_POINT('',(0.,0.,-5.));
#34=DIRECTION('',(0.,-1.,0.));
#35=DIRECTION('',(1.,0.,0.));
#40=RECTANGULAR_TRIMMED_SURFACE('',#41,0.,100.,0.,50.,.T.,.T.);
#41=PLANE('',#42,0.001);
#42=AXIS2_PLACEMENT_3D('',#43,#44,#45);
#43=CARTESIAN_POINT('',(0.,50.,0.001));
#44=DIRECTION('',(0.,0.,1.));
#45=DIRECTION('',(1.,0.,0.));
#50=RECTANGULAR_TRIMMED_SURFACE('',#51,0.,100.,0.,50.,.T.,.T.);
#51=PLANE('',#52,0.);
#52=AXIS2_PLACEMENT_3D('',#53,#54,#55);
#53=CARTESIAN_POINT('',(0.,50.,0.));
#54=DIRECTION('',(0.,0.,1.));
#55=DIRECTION('',(1.,0.,0.));
#60=RECTANGULAR_TRIMMED_SURFACE('',#61,0.,100.,0.,50.,.T.,.T.);
#61=PLANE('',#62,0.001);
#62=AXIS2_PLACEMENT_3D('',#63,#64,#65);
#63=CARTESIAN_POINT('',(100.,0.,0.001));
#64=DIRECTION('',(0.,0.,1.));
#65=DIRECTION('',(-1.,0.,0.));
#70=RECTANGULAR_TRIMMED_SURFACE('',#71,0.,100.,0.,50.,.T.,.T.);
#71=PLANE('',#72,0.);
#72=AXIS2_PLACEMENT_3D('',#73,#74,#75);
#73=CARTESIAN_POINT('',(100.,0.,0.));
#74=DIRECTION('',(0.,0.,1.));
#75=DIRECTION('',(-1.,0.,0.));
#100=FACE_OUTER_BOUND('',#101,.T.);
#101=EDGE_LOOP('',(#102,#103,#104,#105));
#102=ORIENTED_EDGE('',*,*,#106,.T.);
#103=ORIENTED_EDGE('',*,*,#107,.T.);
#104=ORIENTED_EDGE('',*,*,#108,.F.);
#105=ORIENTED_EDGE('',*,*,#109,.F.);
#106=EDGE_CURVE('',#110,#111,#112,.T.);
#107=EDGE_CURVE('',#111,#113,#114,.T.);
#108=EDGE_CURVE('',#113,#114,#115,.T.);
#109=EDGE_CURVE('',#114,#110,#116,.T.);
#110=VERTEX_POINT('',#117);
#111=VERTEX_POINT('',#118);
#112=LINE('',#119,#120);
#113=VERTEX_POINT('',#121);
#114=VERTEX_POINT('',#122);
#115=LINE('',#123,#124);
#116=LINE('',#125,#126);
#117=CARTESIAN_POINT('',(0.,0.,0.));
#118=CARTESIAN_POINT('',(100.,0.,0.));
#119=CARTESIAN_POINT('',(0.,0.,0.));
#120=DIRECTION('',(1.,0.,0.));
#121=CARTESIAN_POINT('',(100.,50.,0.));
#122=CARTESIAN_POINT('',(0.,50.,0.));
#123=CARTESIAN_POINT('',(100.,50.,0.));
#124=DIRECTION('',(-1.,0.,0.));
#125=CARTESIAN_POINT('',(0.,50.,0.));
#126=DIRECTION('',(0.,-1.,0.));
#127=ADVANCED_FACE('',(#100),#10,.T.);
#130=FACE_OUTER_BOUND('',#131,.T.);
#131=EDGE_LOOP('',(#132,#133,#134,#135));
#132=ORIENTED_EDGE('',*,*,#106,.F.);
#133=ORIENTED_EDGE('',*,*,#107,.F.);
#134=ORIENTED_EDGE('',*,*,#108,.T.);
#135=ORIENTED_EDGE('',*,*,#109,.T.);
#136=ADVANCED_FACE('',(#130),#20,.F.);
#140=FACE_OUTER_BOUND('',#141,.T.);
#141=EDGE_LOOP('',(#142,#143,#144,#145));
#142=ORIENTED_EDGE('',*,*,#146,.T.);
#143=ORIENTED_EDGE('',*,*,#107,.F.);
#144=ORIENTED_EDGE('',*,*,#147,.F.);
#145=ORIENTED_EDGE('',*,*,#148,.T.);
#146=EDGE_CURVE('',#111,#111,#149,.T.);
#147=EDGE_CURVE('',#113,#113,#150,.T.);
#148=EDGE_CURVE('',#113,#111,#151,.T.);
#149=CIRCLE('',#152,0.1);
#150=CIRCLE('',#153,0.1);
#151=LINE('',#154,#155);
#152=AXIS2_PLACEMENT_3D('',#156,#157,#158);
#156=CARTESIAN_POINT('',(100.,0.,0.));
#157=DIRECTION('',(0.,1.,0.));
#158=DIRECTION('',(0.,0.,1.));
#153=AXIS2_PLACEMENT_3D('',#159,#160,#161);
#159=CARTESIAN_POINT('',(100.,50.,0.));
#160=DIRECTION('',(0.,1.,0.));
#161=DIRECTION('',(0.,0.,1.));
#154=CARTESIAN_POINT('',(100.,0.,0.));
#155=DIRECTION('',(0.,1.,0.));
#162=ADVANCED_FACE('',(#140),#40,.T.);
#170=FACE_OUTER_BOUND('',#171,.T.);
#171=EDGE_LOOP('',(#172,#173,#174,#175));
#172=ORIENTED_EDGE('',*,*,#109,.F.);
#173=ORIENTED_EDGE('',*,*,#108,.T.);
#174=ORIENTED_EDGE('',*,*,#176,.T.);
#175=ORIENTED_EDGE('',*,*,#177,.F.);
#176=EDGE_CURVE('',#113,#113,#178,.T.);
#177=EDGE_CURVE('',#122,#113,#179,.T.);
#178=CIRCLE('',#180,0.1);
#179=LINE('',#181,#182);
#180=AXIS2_PLACEMENT_3D('',#183,#184,#185);
#183=CARTESIAN_POINT('',(100.,50.,0.));
#184=DIRECTION('',(0.,1.,0.));
#185=DIRECTION('',(0.,0.,1.));
#181=CARTESIAN_POINT('',(0.,50.,0.));
#182=DIRECTION('',(1.,0.,0.));
#186=ADVANCED_FACE('',(#170),#50,.T.);
#190=FACE_OUTER_BOUND('',#191,.T.);
#191=EDGE_LOOP('',(#192,#193,#194,#195));
#192=ORIENTED_EDGE('',*,*,#102,.F.);
#193=ORIENTED_EDGE('',*,*,#196,.T.);
#194=ORIENTED_EDGE('',*,*,#197,.T.);
#195=ORIENTED_EDGE('',*,*,#109,.T.);
#196=EDGE_CURVE('',#110,#110,#198,.T.);
#197=EDGE_CURVE('',#110,#122,#199,.T.);
#198=CIRCLE('',#200,0.1);
#199=LINE('',#201,#202);
#200=AXIS2_PLACEMENT_3D('',#203,#204,#205);
#203=CARTESIAN_POINT('',(0.,0.,0.));
#204=DIRECTION('',(0.,1.,0.));
#205=DIRECTION('',(0.,0.,1.));
#201=CARTESIAN_POINT('',(0.,0.,0.));
#202=DIRECTION('',(0.,1.,0.));
#206=ADVANCED_FACE('',(#190),#60,.T.);
#210=FACE_OUTER_BOUND('',#211,.T.);
#211=EDGE_LOOP('',(#212,#213,#214,#215));
#212=ORIENTED_EDGE('',*,*,#196,.F.);
#213=ORIENTED_EDGE('',*,*,#197,.F.);
#214=ORIENTED_EDGE('',*,*,#177,.T.);
#215=ORIENTED_EDGE('',*,*,#148,.F.);
#216=ADVANCED_FACE('',(#210),#70,.T.);
#400=OPEN_SHELL('',(#127,#136,#162,#186,#206,#216));
#9000=PRODUCT_CONTEXT('',#1,'mechanical');
#9001=PRODUCT('Tsh150','Tsh150','',(#9000));
#9002=PRODUCT_DEFINITION_FORMATION('','',#9001);
#9003=PRODUCT_DEFINITION_CONTEXT('part definition',#1,'design');
#9004=PRODUCT_DEFINITION('','',#9002,#9003);
#9005=PRODUCT_DEFINITION_SHAPE('','',#9004);
#9006=(LENGTH_UNIT()NAMED_UNIT(*)SI_UNIT(.MILLI.,.METRE.));
#9007=(NAMED_UNIT(*)PLANE_ANGLE_UNIT()SI_UNIT($,.RADIAN.));
#9008=(NAMED_UNIT(*)SI_UNIT($,.STERADIAN.)SOLID_ANGLE_UNIT());
#9009=UNCERTAINTY_MEASURE_WITH_UNIT(LENGTH_MEASURE(1.0E-7),#9006,'distance_accuracy_value','');
#9010=(GEOMETRIC_REPRESENTATION_CONTEXT(3)GLOBAL_UNCERTAINTY_ASSIGNED_CONTEXT((#9009))GLOBAL_UNIT_ASSIGNED_CONTEXT((#9006,#9007,#9008))REPRESENTATION_CONTEXT('','3D'));
#9021=SHELL_BASED_SURFACE_MODEL('sbsm',(#400));
#9022=MANIFOLD_SURFACE_SHAPE_REPRESENTATION('',(#9021),#9010);
#9023=SHAPE_DEFINITION_REPRESENTATION(#9005,#9022);
ENDSEC;
END-ISO-10303-21;
