ISO-10303-21;
HEADER;
FILE_DESCRIPTION(('Tsh151 - ShapeUpgrade_ShellSewing.Apply asymmetric-tolerance'),('CAD'),(''));
FILE_NAME('Tsh151.stp','2026-06-15T00:00:00',(''),(''),
  'Open CASCADE STEP processor 7.7','','');
FILE_SCHEMA(('AUTOMOTIVE_DESIGN { 1 0 10303 214 3 1 1 }'));
ENDSEC;
DATA;
#1=PLANE('',#2,(0.,0.,0.));
#2=AXIS2_PLACEMENT_3D('',#3,#4,#5);
#3=CARTESIAN_POINT('',(0.,0.,0.));
#4=DIRECTION('',(0.,0.,1.));
#5=DIRECTION('',(1.,0.,0.));
#10=PLANE('',#11,0.);
#11=AXIS2_PLACEMENT_3D('',#12,#13,#14);
#12=CARTESIAN_POINT('',(0.,0.,0.));
#13=DIRECTION('',(0.,0.,1.));
#14=DIRECTION('',(1.,0.,0.));
#20=PLANE('',#21,0.);
#21=AXIS2_PLACEMENT_3D('',#22,#23,#24);
#22=CARTESIAN_POINT('',(0.,0.,0.));
#23=DIRECTION('',(0.,0.,1.));
#24=DIRECTION('',(1.,0.,0.));
#30=PLANE('',#31,10.);
#31=AXIS2_PLACEMENT_3D('',#32,#33,#34);
#32=CARTESIAN_POINT('',(0.,0.,10.));
#33=DIRECTION('',(0.,0.,1.));
#34=DIRECTION('',(1.,0.,0.));
#40=PLANE('',#41,10.);
#41=AXIS2_PLACEMENT_3D('',#42,#43,#44);
#42=CARTESIAN_POINT('',(0.,0.,10.));
#43=DIRECTION('',(0.,0.,1.));
#44=DIRECTION('',(1.,0.,0.));
#100=FACE_OUTER_BOUND('',#101,.T.);
#101=EDGE_LOOP('',(#102,#103,#104,#105));
#102=ORIENTED_EDGE('',*,*,#106,.T.);
#103=ORIENTED_EDGE('',*,*,#107,.T.);
#104=ORIENTED_EDGE('',*,*,#108,.F.);
#105=ORIENTED_EDGE('',*,*,#109,.F.);
#106=EDGE_CURVE('',#110,#111,#112,.T.);
#107=EDGE_CURVE('',#111,#113,#114,.T.);
#108=EDGE_CURVE('',#113,#114,#115,.T.);
#109=EDGE_CURVE('',#114,#110,#116,.T.);
#110=VERTEX_POINT('',#117);
#111=VERTEX_POINT('',#118);
#112=LINE('',#119,#120);
#113=VERTEX_POINT('',#121);
#114=VERTEX_POINT('',#122);
#115=LINE('',#123,#124);
#116=LINE('',#125,#126);
#117=CARTESIAN_POINT('',(0.,0.,0.));
#118=CARTESIAN_POINT('',(10.,0.,0.));
#119=CARTESIAN_POINT('',(0.,0.,0.));
#120=DIRECTION('',(1.,0.,0.));
#121=CARTESIAN_POINT('',(10.,10.,0.));
#122=CARTESIAN_POINT('',(0.,10.,0.));
#123=CARTESIAN_POINT('',(10.,10.,0.));
#124=DIRECTION('',(-1.,0.,0.));
#125=CARTESIAN_POINT('',(0.,10.,0.));
#126=DIRECTION('',(0.,-1.,0.));
#127=ADVANCED_FACE('',(#100),#10,.T.);
#130=FACE_OUTER_BOUND('',#131,.T.);
#131=EDGE_LOOP('',(#132,#133,#134,#135));
#132=ORIENTED_EDGE('',*,*,#136,.T.);
#133=ORIENTED_EDGE('',*,*,#137,.T.);
#134=ORIENTED_EDGE('',*,*,#138,.F.);
#135=ORIENTED_EDGE('',*,*,#139,.F.);
#136=EDGE_CURVE('',#140,#141,#142,.T.);
#137=EDGE_CURVE('',#141,#143,#144,.T.);
#138=EDGE_CURVE('',#143,#144,#145,.T.);
#139=EDGE_CURVE('',#144,#140,#146,.T.);
#140=VERTEX_POINT('',#147);
#141=VERTEX_POINT('',#148);
#142=LINE('',#149,#150);
#143=VERTEX_POINT('',#151);
#144=VERTEX_POINT('',#152);
#145=LINE('',#153,#154);
#146=LINE('',#155,#156);
#147=CARTESIAN_POINT('',(0.,0.,0.));
#148=CARTESIAN_POINT('',(10.,0.,0.));
#149=CARTESIAN_POINT('',(0.,0.,0.));
#150=DIRECTION('',(1.,0.,0.));
#151=CARTESIAN_POINT('',(10.,10.,0.));
#152=CARTESIAN_POINT('',(0.,10.,0.));
#153=CARTESIAN_POINT('',(10.,10.,0.));
#154=DIRECTION('',(-1.,0.,0.));
#155=CARTESIAN_POINT('',(0.,10.,0.));
#156=DIRECTION('',(0.,-1.,0.));
#157=ADVANCED_FACE('',(#130),#20,.T.);
#160=FACE_OUTER_BOUND('',#161,.T.);
#161=EDGE_LOOP('',(#162,#163,#164,#165));
#162=ORIENTED_EDGE('',*,*,#106,.F.);
#163=ORIENTED_EDGE('',*,*,#166,.T.);
#164=ORIENTED_EDGE('',*,*,#136,.F.);
#165=ORIENTED_EDGE('',*,*,#167,.F.);
#166=EDGE_CURVE('',#111,#141,#168,.T.);
#167=EDGE_CURVE('',#140,#110,#169,.T.);
#168=LINE('',#170,#171);
#169=LINE('',#172,#173);
#170=CARTESIAN_POINT('',(10.,0.,0.));
#171=DIRECTION('',(0.,0.,1.));
#172=CARTESIAN_POINT('',(0.,0.,0.));
#173=DIRECTION('',(0.,0.,1.));
#174=ADVANCED_FACE('',(#160),#30,.T.);
#180=FACE_OUTER_BOUND('',#181,.T.);
#181=EDGE_LOOP('',(#182,#183,#184,#185));
#182=ORIENTED_EDGE('',*,*,#107,.F.);
#183=ORIENTED_EDGE('',*,*,#186,.T.);
#184=ORIENTED_EDGE('',*,*,#137,.F.);
#185=ORIENTED_EDGE('',*,*,#166,.F.);
#186=EDGE_CURVE('',#113,#143,#187,.T.);
#187=LINE('',#188,#189);
#188=CARTESIAN_POINT('',(10.,10.,0.));
#189=DIRECTION('',(0.,0.,1.));
#190=ADVANCED_FACE('',(#180),#40,.T.);
#400=OPEN_SHELL('',(#127,#157,#174,#190));
#9000=PRODUCT_CONTEXT('',#1,'mechanical');
#9001=PRODUCT('Tsh151','Tsh151','',(#9000));
#9002=PRODUCT_DEFINITION_FORMATION('','',#9001);
#9003=PRODUCT_DEFINITION_CONTEXT('part definition',#1,'design');
#9004=PRODUCT_DEFINITION('','',#9002,#9003);
#9005=PRODUCT_DEFINITION_SHAPE('','',#9004);
#9006=(LENGTH_UNIT()NAMED_UNIT(*)SI_UNIT(.MILLI.,.METRE.));
#9007=(NAMED_UNIT(*)PLANE_ANGLE_UNIT()SI_UNIT($,.RADIAN.));
#9008=(NAMED_UNIT(*)SI_UNIT($,.STERADIAN.)SOLID_ANGLE_UNIT());
#9009=UNCERTAINTY_MEASURE_WITH_UNIT(LENGTH_MEASURE(1.0E-7),#9006,'distance_accuracy_value','');
#9010=(GEOMETRIC_REPRESENTATION_CONTEXT(3)GLOBAL_UNCERTAINTY_ASSIGNED_CONTEXT((#9009))GLOBAL_UNIT_ASSIGNED_CONTEXT((#9006,#9007,#9008))REPRESENTATION_CONTEXT('','3D'));
#9021=SHELL_BASED_SURFACE_MODEL('sbsm',(#400));
#9022=MANIFOLD_SURFACE_SHAPE_REPRESENTATION('',(#9021),#9010);
#9023=SHAPE_DEFINITION_REPRESENTATION(#9005,#9022);
ENDSEC;
