ISO-10303-21;
/* Tsh234: Compound of two genuine MANIFOLD_SOLID_BREP solids in one ADVANCED_BREP_SHAPE_REPRESENTATION: solid A is a 10x10x10 box (volume 1000), solid B is a 10x10x0.05 slab (volume 5, 0.5% of A), placed with a disjoint bounding box (isolated, not adjacent). Below ShapeFix_FixSmallSolid's volume threshold; a correct healer must drop the isolated sliver, not merge it (no neighbor to merge into) */
HEADER;
FILE_DESCRIPTION(('Tsh234'),'2;1');
FILE_NAME('Tsh234.stp','2026-06-17T00:00:00',(''),(''),'cad-research-suite','','');
FILE_SCHEMA(('AUTOMOTIVE_DESIGN { 1 0 10303 214 3 1 1 }'));
ENDSEC;
DATA;
#9000=APPLICATION_CONTEXT('mechanical design');
#1=CARTESIAN_POINT('',(0.0,0.0,0.0));
#2=CARTESIAN_POINT('',(10.0,0.0,0.0));
#3=CARTESIAN_POINT('',(10.0,10.0,0.0));
#4=CARTESIAN_POINT('',(0.0,10.0,0.0));
#5=CARTESIAN_POINT('',(0.0,0.0,10.0));
#6=CARTESIAN_POINT('',(10.0,0.0,10.0));
#7=CARTESIAN_POINT('',(10.0,10.0,10.0));
#8=CARTESIAN_POINT('',(0.0,10.0,10.0));
#9=VERTEX_POINT('',#1);
#10=VERTEX_POINT('',#2);
#11=VERTEX_POINT('',#3);
#12=VERTEX_POINT('',#4);
#13=VERTEX_POINT('',#5);
#14=VERTEX_POINT('',#6);
#15=VERTEX_POINT('',#7);
#16=VERTEX_POINT('',#8);
#17=DIRECTION('',(1,0,0));
#18=VECTOR('',#17,10.0);
#19=LINE('',#1,#18);
#20=EDGE_CURVE('',#9,#10,#19,.T.);
#21=DIRECTION('',(0,1,0));
#22=VECTOR('',#21,10.0);
#23=LINE('',#2,#22);
#24=EDGE_CURVE('',#10,#11,#23,.T.);
#25=DIRECTION('',(1,0,0));
#26=VECTOR('',#25,10.0);
#27=LINE('',#4,#26);
#28=EDGE_CURVE('',#12,#11,#27,.T.);
#29=DIRECTION('',(0,1,0));
#30=VECTOR('',#29,10.0);
#31=LINE('',#1,#30);
#32=EDGE_CURVE('',#9,#12,#31,.T.);
#33=DIRECTION('',(1,0,0));
#34=VECTOR('',#33,10.0);
#35=LINE('',#5,#34);
#36=EDGE_CURVE('',#13,#14,#35,.T.);
#37=DIRECTION('',(0,1,0));
#38=VECTOR('',#37,10.0);
#39=LINE('',#6,#38);
#40=EDGE_CURVE('',#14,#15,#39,.T.);
#41=DIRECTION('',(1,0,0));
#42=VECTOR('',#41,10.0);
#43=LINE('',#8,#42);
#44=EDGE_CURVE('',#16,#15,#43,.T.);
#45=DIRECTION('',(0,1,0));
#46=VECTOR('',#45,10.0);
#47=LINE('',#5,#46);
#48=EDGE_CURVE('',#13,#16,#47,.T.);
#49=DIRECTION('',(0,0,1));
#50=VECTOR('',#49,10.0);
#51=LINE('',#1,#50);
#52=EDGE_CURVE('',#9,#13,#51,.T.);
#53=DIRECTION('',(0,0,1));
#54=VECTOR('',#53,10.0);
#55=LINE('',#2,#54);
#56=EDGE_CURVE('',#10,#14,#55,.T.);
#57=DIRECTION('',(0,0,1));
#58=VECTOR('',#57,10.0);
#59=LINE('',#3,#58);
#60=EDGE_CURVE('',#11,#15,#59,.T.);
#61=DIRECTION('',(0,0,1));
#62=VECTOR('',#61,10.0);
#63=LINE('',#4,#62);
#64=EDGE_CURVE('',#12,#16,#63,.T.);
#65=CARTESIAN_POINT('',(0.0,0.0,0.0));
#66=DIRECTION('',(0,0,-1));
#67=DIRECTION('',(1,0,0));
#68=AXIS2_PLACEMENT_3D('',#65,#66,#67);
#69=PLANE('',#68);
#70=CARTESIAN_POINT('',(0.0,0.0,10.0));
#71=DIRECTION('',(0,0,1));
#72=DIRECTION('',(1,0,0));
#73=AXIS2_PLACEMENT_3D('',#70,#71,#72);
#74=PLANE('',#73);
#75=CARTESIAN_POINT('',(0.0,0.0,0.0));
#76=DIRECTION('',(0,-1,0));
#77=DIRECTION('',(1,0,0));
#78=AXIS2_PLACEMENT_3D('',#75,#76,#77);
#79=PLANE('',#78);
#80=CARTESIAN_POINT('',(0.0,10.0,0.0));
#81=DIRECTION('',(0,1,0));
#82=DIRECTION('',(1,0,0));
#83=AXIS2_PLACEMENT_3D('',#80,#81,#82);
#84=PLANE('',#83);
#85=CARTESIAN_POINT('',(0.0,0.0,0.0));
#86=DIRECTION('',(-1,0,0));
#87=DIRECTION('',(0,1,0));
#88=AXIS2_PLACEMENT_3D('',#85,#86,#87);
#89=PLANE('',#88);
#90=CARTESIAN_POINT('',(10.0,0.0,0.0));
#91=DIRECTION('',(1,0,0));
#92=DIRECTION('',(0,1,0));
#93=AXIS2_PLACEMENT_3D('',#90,#91,#92);
#94=PLANE('',#93);
#95=ORIENTED_EDGE('',$,$,#20,.T.);
#96=ORIENTED_EDGE('',$,$,#24,.T.);
#97=ORIENTED_EDGE('',$,$,#28,.F.);
#98=ORIENTED_EDGE('',$,$,#32,.F.);
#99=EDGE_LOOP('',(#95,#96,#97,#98));
#100=FACE_OUTER_BOUND('',#99,.T.);
#101=ADVANCED_FACE('',(#100),#69,.T.);
#102=ORIENTED_EDGE('',$,$,#36,.T.);
#103=ORIENTED_EDGE('',$,$,#40,.T.);
#104=ORIENTED_EDGE('',$,$,#44,.F.);
#105=ORIENTED_EDGE('',$,$,#48,.F.);
#106=EDGE_LOOP('',(#102,#103,#104,#105));
#107=FACE_OUTER_BOUND('',#106,.T.);
#108=ADVANCED_FACE('',(#107),#74,.T.);
#109=ORIENTED_EDGE('',$,$,#20,.T.);
#110=ORIENTED_EDGE('',$,$,#56,.T.);
#111=ORIENTED_EDGE('',$,$,#36,.F.);
#112=ORIENTED_EDGE('',$,$,#52,.F.);
#113=EDGE_LOOP('',(#109,#110,#111,#112));
#114=FACE_OUTER_BOUND('',#113,.T.);
#115=ADVANCED_FACE('',(#114),#79,.T.);
#116=ORIENTED_EDGE('',$,$,#28,.T.);
#117=ORIENTED_EDGE('',$,$,#60,.T.);
#118=ORIENTED_EDGE('',$,$,#44,.F.);
#119=ORIENTED_EDGE('',$,$,#64,.F.);
#120=EDGE_LOOP('',(#116,#117,#118,#119));
#121=FACE_OUTER_BOUND('',#120,.T.);
#122=ADVANCED_FACE('',(#121),#84,.T.);
#123=ORIENTED_EDGE('',$,$,#32,.T.);
#124=ORIENTED_EDGE('',$,$,#64,.T.);
#125=ORIENTED_EDGE('',$,$,#48,.F.);
#126=ORIENTED_EDGE('',$,$,#52,.F.);
#127=EDGE_LOOP('',(#123,#124,#125,#126));
#128=FACE_OUTER_BOUND('',#127,.T.);
#129=ADVANCED_FACE('',(#128),#89,.T.);
#130=ORIENTED_EDGE('',$,$,#24,.T.);
#131=ORIENTED_EDGE('',$,$,#60,.T.);
#132=ORIENTED_EDGE('',$,$,#40,.F.);
#133=ORIENTED_EDGE('',$,$,#56,.F.);
#134=EDGE_LOOP('',(#130,#131,#132,#133));
#135=FACE_OUTER_BOUND('',#134,.T.);
#136=ADVANCED_FACE('',(#135),#94,.T.);
#137=CLOSED_SHELL('tsh234_normal',(#101,#108,#115,#122,#129,#136));
#138=MANIFOLD_SOLID_BREP('tsh234_normal',#137);
#139=CARTESIAN_POINT('',(50.0,0.0,0.0));
#140=CARTESIAN_POINT('',(60.0,0.0,0.0));
#141=CARTESIAN_POINT('',(60.0,10.0,0.0));
#142=CARTESIAN_POINT('',(50.0,10.0,0.0));
#143=CARTESIAN_POINT('',(50.0,0.0,0.05));
#144=CARTESIAN_POINT('',(60.0,0.0,0.05));
#145=CARTESIAN_POINT('',(60.0,10.0,0.05));
#146=CARTESIAN_POINT('',(50.0,10.0,0.05));
#147=VERTEX_POINT('',#139);
#148=VERTEX_POINT('',#140);
#149=VERTEX_POINT('',#141);
#150=VERTEX_POINT('',#142);
#151=VERTEX_POINT('',#143);
#152=VERTEX_POINT('',#144);
#153=VERTEX_POINT('',#145);
#154=VERTEX_POINT('',#146);
#155=DIRECTION('',(1,0,0));
#156=VECTOR('',#155,10.0);
#157=LINE('',#139,#156);
#158=EDGE_CURVE('',#147,#148,#157,.T.);
#159=DIRECTION('',(0,1,0));
#160=VECTOR('',#159,10.0);
#161=LINE('',#140,#160);
#162=EDGE_CURVE('',#148,#149,#161,.T.);
#163=DIRECTION('',(1,0,0));
#164=VECTOR('',#163,10.0);
#165=LINE('',#142,#164);
#166=EDGE_CURVE('',#150,#149,#165,.T.);
#167=DIRECTION('',(0,1,0));
#168=VECTOR('',#167,10.0);
#169=LINE('',#139,#168);
#170=EDGE_CURVE('',#147,#150,#169,.T.);
#171=DIRECTION('',(1,0,0));
#172=VECTOR('',#171,10.0);
#173=LINE('',#143,#172);
#174=EDGE_CURVE('',#151,#152,#173,.T.);
#175=DIRECTION('',(0,1,0));
#176=VECTOR('',#175,10.0);
#177=LINE('',#144,#176);
#178=EDGE_CURVE('',#152,#153,#177,.T.);
#179=DIRECTION('',(1,0,0));
#180=VECTOR('',#179,10.0);
#181=LINE('',#146,#180);
#182=EDGE_CURVE('',#154,#153,#181,.T.);
#183=DIRECTION('',(0,1,0));
#184=VECTOR('',#183,10.0);
#185=LINE('',#143,#184);
#186=EDGE_CURVE('',#151,#154,#185,.T.);
#187=DIRECTION('',(0,0,1));
#188=VECTOR('',#187,0.05);
#189=LINE('',#139,#188);
#190=EDGE_CURVE('',#147,#151,#189,.T.);
#191=DIRECTION('',(0,0,1));
#192=VECTOR('',#191,0.05);
#193=LINE('',#140,#192);
#194=EDGE_CURVE('',#148,#152,#193,.T.);
#195=DIRECTION('',(0,0,1));
#196=VECTOR('',#195,0.05);
#197=LINE('',#141,#196);
#198=EDGE_CURVE('',#149,#153,#197,.T.);
#199=DIRECTION('',(0,0,1));
#200=VECTOR('',#199,0.05);
#201=LINE('',#142,#200);
#202=EDGE_CURVE('',#150,#154,#201,.T.);
#203=CARTESIAN_POINT('',(50.0,0.0,0.0));
#204=DIRECTION('',(0,0,-1));
#205=DIRECTION('',(1,0,0));
#206=AXIS2_PLACEMENT_3D('',#203,#204,#205);
#207=PLANE('',#206);
#208=CARTESIAN_POINT('',(50.0,0.0,0.05));
#209=DIRECTION('',(0,0,1));
#210=DIRECTION('',(1,0,0));
#211=AXIS2_PLACEMENT_3D('',#208,#209,#210);
#212=PLANE('',#211);
#213=CARTESIAN_POINT('',(50.0,0.0,0.0));
#214=DIRECTION('',(0,-1,0));
#215=DIRECTION('',(1,0,0));
#216=AXIS2_PLACEMENT_3D('',#213,#214,#215);
#217=PLANE('',#216);
#218=CARTESIAN_POINT('',(50.0,10.0,0.0));
#219=DIRECTION('',(0,1,0));
#220=DIRECTION('',(1,0,0));
#221=AXIS2_PLACEMENT_3D('',#218,#219,#220);
#222=PLANE('',#221);
#223=CARTESIAN_POINT('',(50.0,0.0,0.0));
#224=DIRECTION('',(-1,0,0));
#225=DIRECTION('',(0,1,0));
#226=AXIS2_PLACEMENT_3D('',#223,#224,#225);
#227=PLANE('',#226);
#228=CARTESIAN_POINT('',(60.0,0.0,0.0));
#229=DIRECTION('',(1,0,0));
#230=DIRECTION('',(0,1,0));
#231=AXIS2_PLACEMENT_3D('',#228,#229,#230);
#232=PLANE('',#231);
#233=ORIENTED_EDGE('',$,$,#158,.T.);
#234=ORIENTED_EDGE('',$,$,#162,.T.);
#235=ORIENTED_EDGE('',$,$,#166,.F.);
#236=ORIENTED_EDGE('',$,$,#170,.F.);
#237=EDGE_LOOP('',(#233,#234,#235,#236));
#238=FACE_OUTER_BOUND('',#237,.T.);
#239=ADVANCED_FACE('',(#238),#207,.T.);
#240=ORIENTED_EDGE('',$,$,#174,.T.);
#241=ORIENTED_EDGE('',$,$,#178,.T.);
#242=ORIENTED_EDGE('',$,$,#182,.F.);
#243=ORIENTED_EDGE('',$,$,#186,.F.);
#244=EDGE_LOOP('',(#240,#241,#242,#243));
#245=FACE_OUTER_BOUND('',#244,.T.);
#246=ADVANCED_FACE('',(#245),#212,.T.);
#247=ORIENTED_EDGE('',$,$,#158,.T.);
#248=ORIENTED_EDGE('',$,$,#194,.T.);
#249=ORIENTED_EDGE('',$,$,#174,.F.);
#250=ORIENTED_EDGE('',$,$,#190,.F.);
#251=EDGE_LOOP('',(#247,#248,#249,#250));
#252=FACE_OUTER_BOUND('',#251,.T.);
#253=ADVANCED_FACE('',(#252),#217,.T.);
#254=ORIENTED_EDGE('',$,$,#166,.T.);
#255=ORIENTED_EDGE('',$,$,#198,.T.);
#256=ORIENTED_EDGE('',$,$,#182,.F.);
#257=ORIENTED_EDGE('',$,$,#202,.F.);
#258=EDGE_LOOP('',(#254,#255,#256,#257));
#259=FACE_OUTER_BOUND('',#258,.T.);
#260=ADVANCED_FACE('',(#259),#222,.T.);
#261=ORIENTED_EDGE('',$,$,#170,.T.);
#262=ORIENTED_EDGE('',$,$,#202,.T.);
#263=ORIENTED_EDGE('',$,$,#186,.F.);
#264=ORIENTED_EDGE('',$,$,#190,.F.);
#265=EDGE_LOOP('',(#261,#262,#263,#264));
#266=FACE_OUTER_BOUND('',#265,.T.);
#267=ADVANCED_FACE('',(#266),#227,.T.);
#268=ORIENTED_EDGE('',$,$,#162,.T.);
#269=ORIENTED_EDGE('',$,$,#198,.T.);
#270=ORIENTED_EDGE('',$,$,#178,.F.);
#271=ORIENTED_EDGE('',$,$,#194,.F.);
#272=EDGE_LOOP('',(#268,#269,#270,#271));
#273=FACE_OUTER_BOUND('',#272,.T.);
#274=ADVANCED_FACE('',(#273),#232,.T.);
#275=CLOSED_SHELL('tsh234_sliver',(#239,#246,#253,#260,#267,#274));
#276=MANIFOLD_SOLID_BREP('tsh234_sliver',#275);
#9050=PRODUCT_CONTEXT('',#9000,'mechanical');
#9051=PRODUCT('Tsh234','Tsh234','',(#9050));
#9052=PRODUCT_DEFINITION_FORMATION('','',#9051);
#9053=PRODUCT_DEFINITION_CONTEXT('part definition',#9000,'design');
#9054=PRODUCT_DEFINITION('','','',#9052,#9053);
#9055=PRODUCT_DEFINITION_SHAPE('','','',#9054);
#9056=(LENGTH_UNIT()NAMED_UNIT(*)SI_UNIT(.MILLI.,.METRE.));
#9057=(NAMED_UNIT(*)PLANE_ANGLE_UNIT()SI_UNIT($,.RADIAN.));
#9058=(NAMED_UNIT(*)SI_UNIT($,.STERADIAN.)SOLID_ANGLE_UNIT());
#9059=UNCERTAINTY_MEASURE_WITH_UNIT(LENGTH_MEASURE(1.0E-7),#9056,'distance_accuracy_value','');
#9060=(GEOMETRIC_REPRESENTATION_CONTEXT(3)GLOBAL_UNCERTAINTY_ASSIGNED_CONTEXT((#9059))GLOBAL_UNIT_ASSIGNED_CONTEXT((#9056,#9057,#9058))REPRESENTATION_CONTEXT('','3D'));
#9061=ADVANCED_BREP_SHAPE_REPRESENTATION('',(#138,#276),#9060);
#9062=SHAPE_DEFINITION_REPRESENTATION(#9055,#9061);
ENDSEC;
END-ISO-10303-21;
