ISO-10303-21;
/* Tsh236: Two CLOSED_SHELLs (outer 10x10x10 box, inner 2x2x2 box, inner geometrically nested fully inside outer) wired directly into ONE SHELL_BASED_SURFACE_MODEL with no BREP_WITH_VOIDS or MANIFOLD_SOLID_BREP wrapper — unstructured shell soup; a receiver wanting a solid-with-void must run its own containment classification (ShapeFix_Solid::CreateSolids), not trust an author-declared voids list, since none is given */
HEADER;
FILE_DESCRIPTION(('Tsh236'),'2;1');
FILE_NAME('Tsh236.stp','2026-06-17T00:00:00',(''),(''),'cad-research-suite','','');
FILE_SCHEMA(('AUTOMOTIVE_DESIGN { 1 0 10303 214 3 1 1 }'));
ENDSEC;
DATA;
#9000=APPLICATION_CONTEXT('mechanical design');
#1=CARTESIAN_POINT('',(-5.0,-5.0,-5.0));
#2=CARTESIAN_POINT('',(5.0,-5.0,-5.0));
#3=CARTESIAN_POINT('',(5.0,5.0,-5.0));
#4=CARTESIAN_POINT('',(-5.0,5.0,-5.0));
#5=CARTESIAN_POINT('',(-5.0,-5.0,5.0));
#6=CARTESIAN_POINT('',(5.0,-5.0,5.0));
#7=CARTESIAN_POINT('',(5.0,5.0,5.0));
#8=CARTESIAN_POINT('',(-5.0,5.0,5.0));
#9=VERTEX_POINT('',#1);
#10=VERTEX_POINT('',#2);
#11=VERTEX_POINT('',#3);
#12=VERTEX_POINT('',#4);
#13=VERTEX_POINT('',#5);
#14=VERTEX_POINT('',#6);
#15=VERTEX_POINT('',#7);
#16=VERTEX_POINT('',#8);
#17=DIRECTION('',(1,0,0));
#18=VECTOR('',#17,10.0);
#19=LINE('',#1,#18);
#20=EDGE_CURVE('',#9,#10,#19,.T.);
#21=DIRECTION('',(0,1,0));
#22=VECTOR('',#21,10.0);
#23=LINE('',#2,#22);
#24=EDGE_CURVE('',#10,#11,#23,.T.);
#25=DIRECTION('',(1,0,0));
#26=VECTOR('',#25,10.0);
#27=LINE('',#4,#26);
#28=EDGE_CURVE('',#12,#11,#27,.T.);
#29=DIRECTION('',(0,1,0));
#30=VECTOR('',#29,10.0);
#31=LINE('',#1,#30);
#32=EDGE_CURVE('',#9,#12,#31,.T.);
#33=DIRECTION('',(1,0,0));
#34=VECTOR('',#33,10.0);
#35=LINE('',#5,#34);
#36=EDGE_CURVE('',#13,#14,#35,.T.);
#37=DIRECTION('',(0,1,0));
#38=VECTOR('',#37,10.0);
#39=LINE('',#6,#38);
#40=EDGE_CURVE('',#14,#15,#39,.T.);
#41=DIRECTION('',(1,0,0));
#42=VECTOR('',#41,10.0);
#43=LINE('',#8,#42);
#44=EDGE_CURVE('',#16,#15,#43,.T.);
#45=DIRECTION('',(0,1,0));
#46=VECTOR('',#45,10.0);
#47=LINE('',#5,#46);
#48=EDGE_CURVE('',#13,#16,#47,.T.);
#49=DIRECTION('',(0,0,1));
#50=VECTOR('',#49,10.0);
#51=LINE('',#1,#50);
#52=EDGE_CURVE('',#9,#13,#51,.T.);
#53=DIRECTION('',(0,0,1));
#54=VECTOR('',#53,10.0);
#55=LINE('',#2,#54);
#56=EDGE_CURVE('',#10,#14,#55,.T.);
#57=DIRECTION('',(0,0,1));
#58=VECTOR('',#57,10.0);
#59=LINE('',#3,#58);
#60=EDGE_CURVE('',#11,#15,#59,.T.);
#61=DIRECTION('',(0,0,1));
#62=VECTOR('',#61,10.0);
#63=LINE('',#4,#62);
#64=EDGE_CURVE('',#12,#16,#63,.T.);
#65=CARTESIAN_POINT('',(-5.0,-5.0,-5.0));
#66=DIRECTION('',(0,0,-1));
#67=DIRECTION('',(1,0,0));
#68=AXIS2_PLACEMENT_3D('',#65,#66,#67);
#69=PLANE('',#68);
#70=CARTESIAN_POINT('',(-5.0,-5.0,5.0));
#71=DIRECTION('',(0,0,1));
#72=DIRECTION('',(1,0,0));
#73=AXIS2_PLACEMENT_3D('',#70,#71,#72);
#74=PLANE('',#73);
#75=CARTESIAN_POINT('',(-5.0,-5.0,-5.0));
#76=DIRECTION('',(0,-1,0));
#77=DIRECTION('',(1,0,0));
#78=AXIS2_PLACEMENT_3D('',#75,#76,#77);
#79=PLANE('',#78);
#80=CARTESIAN_POINT('',(-5.0,5.0,-5.0));
#81=DIRECTION('',(0,1,0));
#82=DIRECTION('',(1,0,0));
#83=AXIS2_PLACEMENT_3D('',#80,#81,#82);
#84=PLANE('',#83);
#85=CARTESIAN_POINT('',(-5.0,-5.0,-5.0));
#86=DIRECTION('',(-1,0,0));
#87=DIRECTION('',(0,1,0));
#88=AXIS2_PLACEMENT_3D('',#85,#86,#87);
#89=PLANE('',#88);
#90=CARTESIAN_POINT('',(5.0,-5.0,-5.0));
#91=DIRECTION('',(1,0,0));
#92=DIRECTION('',(0,1,0));
#93=AXIS2_PLACEMENT_3D('',#90,#91,#92);
#94=PLANE('',#93);
#95=ORIENTED_EDGE('',$,$,#20,.T.);
#96=ORIENTED_EDGE('',$,$,#24,.T.);
#97=ORIENTED_EDGE('',$,$,#28,.F.);
#98=ORIENTED_EDGE('',$,$,#32,.F.);
#99=EDGE_LOOP('',(#95,#96,#97,#98));
#100=FACE_OUTER_BOUND('',#99,.T.);
#101=ADVANCED_FACE('',(#100),#69,.T.);
#102=ORIENTED_EDGE('',$,$,#36,.T.);
#103=ORIENTED_EDGE('',$,$,#40,.T.);
#104=ORIENTED_EDGE('',$,$,#44,.F.);
#105=ORIENTED_EDGE('',$,$,#48,.F.);
#106=EDGE_LOOP('',(#102,#103,#104,#105));
#107=FACE_OUTER_BOUND('',#106,.T.);
#108=ADVANCED_FACE('',(#107),#74,.T.);
#109=ORIENTED_EDGE('',$,$,#20,.T.);
#110=ORIENTED_EDGE('',$,$,#56,.T.);
#111=ORIENTED_EDGE('',$,$,#36,.F.);
#112=ORIENTED_EDGE('',$,$,#52,.F.);
#113=EDGE_LOOP('',(#109,#110,#111,#112));
#114=FACE_OUTER_BOUND('',#113,.T.);
#115=ADVANCED_FACE('',(#114),#79,.T.);
#116=ORIENTED_EDGE('',$,$,#28,.T.);
#117=ORIENTED_EDGE('',$,$,#60,.T.);
#118=ORIENTED_EDGE('',$,$,#44,.F.);
#119=ORIENTED_EDGE('',$,$,#64,.F.);
#120=EDGE_LOOP('',(#116,#117,#118,#119));
#121=FACE_OUTER_BOUND('',#120,.T.);
#122=ADVANCED_FACE('',(#121),#84,.T.);
#123=ORIENTED_EDGE('',$,$,#32,.T.);
#124=ORIENTED_EDGE('',$,$,#64,.T.);
#125=ORIENTED_EDGE('',$,$,#48,.F.);
#126=ORIENTED_EDGE('',$,$,#52,.F.);
#127=EDGE_LOOP('',(#123,#124,#125,#126));
#128=FACE_OUTER_BOUND('',#127,.T.);
#129=ADVANCED_FACE('',(#128),#89,.T.);
#130=ORIENTED_EDGE('',$,$,#24,.T.);
#131=ORIENTED_EDGE('',$,$,#60,.T.);
#132=ORIENTED_EDGE('',$,$,#40,.F.);
#133=ORIENTED_EDGE('',$,$,#56,.F.);
#134=EDGE_LOOP('',(#130,#131,#132,#133));
#135=FACE_OUTER_BOUND('',#134,.T.);
#136=ADVANCED_FACE('',(#135),#94,.T.);
#137=CLOSED_SHELL('tsh236_outer',(#101,#108,#115,#122,#129,#136));
#138=CARTESIAN_POINT('',(-1.0,-1.0,-1.0));
#139=CARTESIAN_POINT('',(1.0,-1.0,-1.0));
#140=CARTESIAN_POINT('',(1.0,1.0,-1.0));
#141=CARTESIAN_POINT('',(-1.0,1.0,-1.0));
#142=CARTESIAN_POINT('',(-1.0,-1.0,1.0));
#143=CARTESIAN_POINT('',(1.0,-1.0,1.0));
#144=CARTESIAN_POINT('',(1.0,1.0,1.0));
#145=CARTESIAN_POINT('',(-1.0,1.0,1.0));
#146=VERTEX_POINT('',#138);
#147=VERTEX_POINT('',#139);
#148=VERTEX_POINT('',#140);
#149=VERTEX_POINT('',#141);
#150=VERTEX_POINT('',#142);
#151=VERTEX_POINT('',#143);
#152=VERTEX_POINT('',#144);
#153=VERTEX_POINT('',#145);
#154=DIRECTION('',(1,0,0));
#155=VECTOR('',#154,2.0);
#156=LINE('',#138,#155);
#157=EDGE_CURVE('',#146,#147,#156,.T.);
#158=DIRECTION('',(0,1,0));
#159=VECTOR('',#158,2.0);
#160=LINE('',#139,#159);
#161=EDGE_CURVE('',#147,#148,#160,.T.);
#162=DIRECTION('',(1,0,0));
#163=VECTOR('',#162,2.0);
#164=LINE('',#141,#163);
#165=EDGE_CURVE('',#149,#148,#164,.T.);
#166=DIRECTION('',(0,1,0));
#167=VECTOR('',#166,2.0);
#168=LINE('',#138,#167);
#169=EDGE_CURVE('',#146,#149,#168,.T.);
#170=DIRECTION('',(1,0,0));
#171=VECTOR('',#170,2.0);
#172=LINE('',#142,#171);
#173=EDGE_CURVE('',#150,#151,#172,.T.);
#174=DIRECTION('',(0,1,0));
#175=VECTOR('',#174,2.0);
#176=LINE('',#143,#175);
#177=EDGE_CURVE('',#151,#152,#176,.T.);
#178=DIRECTION('',(1,0,0));
#179=VECTOR('',#178,2.0);
#180=LINE('',#145,#179);
#181=EDGE_CURVE('',#153,#152,#180,.T.);
#182=DIRECTION('',(0,1,0));
#183=VECTOR('',#182,2.0);
#184=LINE('',#142,#183);
#185=EDGE_CURVE('',#150,#153,#184,.T.);
#186=DIRECTION('',(0,0,1));
#187=VECTOR('',#186,2.0);
#188=LINE('',#138,#187);
#189=EDGE_CURVE('',#146,#150,#188,.T.);
#190=DIRECTION('',(0,0,1));
#191=VECTOR('',#190,2.0);
#192=LINE('',#139,#191);
#193=EDGE_CURVE('',#147,#151,#192,.T.);
#194=DIRECTION('',(0,0,1));
#195=VECTOR('',#194,2.0);
#196=LINE('',#140,#195);
#197=EDGE_CURVE('',#148,#152,#196,.T.);
#198=DIRECTION('',(0,0,1));
#199=VECTOR('',#198,2.0);
#200=LINE('',#141,#199);
#201=EDGE_CURVE('',#149,#153,#200,.T.);
#202=CARTESIAN_POINT('',(-1.0,-1.0,-1.0));
#203=DIRECTION('',(0,0,-1));
#204=DIRECTION('',(1,0,0));
#205=AXIS2_PLACEMENT_3D('',#202,#203,#204);
#206=PLANE('',#205);
#207=CARTESIAN_POINT('',(-1.0,-1.0,1.0));
#208=DIRECTION('',(0,0,1));
#209=DIRECTION('',(1,0,0));
#210=AXIS2_PLACEMENT_3D('',#207,#208,#209);
#211=PLANE('',#210);
#212=CARTESIAN_POINT('',(-1.0,-1.0,-1.0));
#213=DIRECTION('',(0,-1,0));
#214=DIRECTION('',(1,0,0));
#215=AXIS2_PLACEMENT_3D('',#212,#213,#214);
#216=PLANE('',#215);
#217=CARTESIAN_POINT('',(-1.0,1.0,-1.0));
#218=DIRECTION('',(0,1,0));
#219=DIRECTION('',(1,0,0));
#220=AXIS2_PLACEMENT_3D('',#217,#218,#219);
#221=PLANE('',#220);
#222=CARTESIAN_POINT('',(-1.0,-1.0,-1.0));
#223=DIRECTION('',(-1,0,0));
#224=DIRECTION('',(0,1,0));
#225=AXIS2_PLACEMENT_3D('',#222,#223,#224);
#226=PLANE('',#225);
#227=CARTESIAN_POINT('',(1.0,-1.0,-1.0));
#228=DIRECTION('',(1,0,0));
#229=DIRECTION('',(0,1,0));
#230=AXIS2_PLACEMENT_3D('',#227,#228,#229);
#231=PLANE('',#230);
#232=ORIENTED_EDGE('',$,$,#157,.T.);
#233=ORIENTED_EDGE('',$,$,#161,.T.);
#234=ORIENTED_EDGE('',$,$,#165,.F.);
#235=ORIENTED_EDGE('',$,$,#169,.F.);
#236=EDGE_LOOP('',(#232,#233,#234,#235));
#237=FACE_OUTER_BOUND('',#236,.T.);
#238=ADVANCED_FACE('',(#237),#206,.T.);
#239=ORIENTED_EDGE('',$,$,#173,.T.);
#240=ORIENTED_EDGE('',$,$,#177,.T.);
#241=ORIENTED_EDGE('',$,$,#181,.F.);
#242=ORIENTED_EDGE('',$,$,#185,.F.);
#243=EDGE_LOOP('',(#239,#240,#241,#242));
#244=FACE_OUTER_BOUND('',#243,.T.);
#245=ADVANCED_FACE('',(#244),#211,.T.);
#246=ORIENTED_EDGE('',$,$,#157,.T.);
#247=ORIENTED_EDGE('',$,$,#193,.T.);
#248=ORIENTED_EDGE('',$,$,#173,.F.);
#249=ORIENTED_EDGE('',$,$,#189,.F.);
#250=EDGE_LOOP('',(#246,#247,#248,#249));
#251=FACE_OUTER_BOUND('',#250,.T.);
#252=ADVANCED_FACE('',(#251),#216,.T.);
#253=ORIENTED_EDGE('',$,$,#165,.T.);
#254=ORIENTED_EDGE('',$,$,#197,.T.);
#255=ORIENTED_EDGE('',$,$,#181,.F.);
#256=ORIENTED_EDGE('',$,$,#201,.F.);
#257=EDGE_LOOP('',(#253,#254,#255,#256));
#258=FACE_OUTER_BOUND('',#257,.T.);
#259=ADVANCED_FACE('',(#258),#221,.T.);
#260=ORIENTED_EDGE('',$,$,#169,.T.);
#261=ORIENTED_EDGE('',$,$,#201,.T.);
#262=ORIENTED_EDGE('',$,$,#185,.F.);
#263=ORIENTED_EDGE('',$,$,#189,.F.);
#264=EDGE_LOOP('',(#260,#261,#262,#263));
#265=FACE_OUTER_BOUND('',#264,.T.);
#266=ADVANCED_FACE('',(#265),#226,.T.);
#267=ORIENTED_EDGE('',$,$,#161,.T.);
#268=ORIENTED_EDGE('',$,$,#197,.T.);
#269=ORIENTED_EDGE('',$,$,#177,.F.);
#270=ORIENTED_EDGE('',$,$,#193,.F.);
#271=EDGE_LOOP('',(#267,#268,#269,#270));
#272=FACE_OUTER_BOUND('',#271,.T.);
#273=ADVANCED_FACE('',(#272),#231,.T.);
#274=CLOSED_SHELL('tsh236_inner',(#238,#245,#252,#259,#266,#273));
#275=SHELL_BASED_SURFACE_MODEL('',(#137,#274));
#9050=PRODUCT_CONTEXT('',#9000,'mechanical');
#9051=PRODUCT('Tsh236','Tsh236','',(#9050));
#9052=PRODUCT_DEFINITION_FORMATION('','',#9051);
#9053=PRODUCT_DEFINITION_CONTEXT('part definition',#9000,'design');
#9054=PRODUCT_DEFINITION('','','',#9052,#9053);
#9055=PRODUCT_DEFINITION_SHAPE('','','',#9054);
#9056=(LENGTH_UNIT()NAMED_UNIT(*)SI_UNIT(.MILLI.,.METRE.));
#9057=(NAMED_UNIT(*)PLANE_ANGLE_UNIT()SI_UNIT($,.RADIAN.));
#9058=(NAMED_UNIT(*)SI_UNIT($,.STERADIAN.)SOLID_ANGLE_UNIT());
#9059=UNCERTAINTY_MEASURE_WITH_UNIT(LENGTH_MEASURE(1.0E-7),#9056,'distance_accuracy_value','');
#9060=(GEOMETRIC_REPRESENTATION_CONTEXT(3)GLOBAL_UNCERTAINTY_ASSIGNED_CONTEXT((#9059))GLOBAL_UNIT_ASSIGNED_CONTEXT((#9056,#9057,#9058))REPRESENTATION_CONTEXT('','3D'));
#9061=MANIFOLD_SURFACE_SHAPE_REPRESENTATION('',(#275),#9060);
#9062=SHAPE_DEFINITION_REPRESENTATION(#9055,#9061);
ENDSEC;
END-ISO-10303-21;
