ISO-10303-21;
/* Gs059: B_SPLINE_SURFACE_WITH_KNOTS (degree-3 U, 8×4 poles, U-knots (4,1,1,1,4)) IS ADVANCED_FACE.face_geometry; last pole column at Z=0.01 offset (closure-break) IS the defect wired into face topology; shape_null (IsUClosed midpoint-sample detects mismatch) */
HEADER;
FILE_DESCRIPTION(('Gs059'),'2;1');
FILE_NAME('Gs059.stp','2026-06-17T00:00:00',(''),(''),'cad-research-suite','','');
FILE_SCHEMA(('AUTOMOTIVE_DESIGN { 1 0 10303 214 3 1 1 }'));
ENDSEC;
DATA;
#9000=APPLICATION_CONTEXT('mechanical design');
#1=CARTESIAN_POINT('',(1.0,0.0,0.0));
#2=CARTESIAN_POINT('',(0.623489801859,0.781831482468,0.0));
#3=CARTESIAN_POINT('',(-0.222520933956,0.974927912182,0.0));
#4=CARTESIAN_POINT('',(-0.900968867902,0.433883739118,0.0));
#5=CARTESIAN_POINT('',(-0.900968867902,-0.433883739118,0.0));
#6=CARTESIAN_POINT('',(-0.222520933956,-0.974927912182,0.0));
#7=CARTESIAN_POINT('',(0.623489801859,-0.781831482468,0.0));
#8=CARTESIAN_POINT('',(1.0,-2.44929359829E-16,0.01));
#9=CARTESIAN_POINT('',(1.0,0.0,0.25));
#10=CARTESIAN_POINT('',(0.623489801859,0.781831482468,0.25));
#11=CARTESIAN_POINT('',(-0.222520933956,0.974927912182,0.25));
#12=CARTESIAN_POINT('',(-0.900968867902,0.433883739118,0.25));
#13=CARTESIAN_POINT('',(-0.900968867902,-0.433883739118,0.25));
#14=CARTESIAN_POINT('',(-0.222520933956,-0.974927912182,0.25));
#15=CARTESIAN_POINT('',(0.623489801859,-0.781831482468,0.25));
#16=CARTESIAN_POINT('',(1.0,-2.44929359829E-16,0.26));
#17=CARTESIAN_POINT('',(1.0,0.0,0.5));
#18=CARTESIAN_POINT('',(0.623489801859,0.781831482468,0.5));
#19=CARTESIAN_POINT('',(-0.222520933956,0.974927912182,0.5));
#20=CARTESIAN_POINT('',(-0.900968867902,0.433883739118,0.5));
#21=CARTESIAN_POINT('',(-0.900968867902,-0.433883739118,0.5));
#22=CARTESIAN_POINT('',(-0.222520933956,-0.974927912182,0.5));
#23=CARTESIAN_POINT('',(0.623489801859,-0.781831482468,0.5));
#24=CARTESIAN_POINT('',(1.0,-2.44929359829E-16,0.51));
#25=CARTESIAN_POINT('',(1.0,0.0,0.75));
#26=CARTESIAN_POINT('',(0.623489801859,0.781831482468,0.75));
#27=CARTESIAN_POINT('',(-0.222520933956,0.974927912182,0.75));
#28=CARTESIAN_POINT('',(-0.900968867902,0.433883739118,0.75));
#29=CARTESIAN_POINT('',(-0.900968867902,-0.433883739118,0.75));
#30=CARTESIAN_POINT('',(-0.222520933956,-0.974927912182,0.75));
#31=CARTESIAN_POINT('',(0.623489801859,-0.781831482468,0.75));
#32=CARTESIAN_POINT('',(1.0,-2.44929359829E-16,0.76));
#33=B_SPLINE_SURFACE_WITH_KNOTS('gs059_bss',3,1,((#1,#2,#3,#4,#5,#6,#7,#8),(#9,#10,#11,#12,#13,#14,#15,#16),(#17,#18,#19,#20,#21,#22,#23,#24),(#25,#26,#27,#28,#29,#30,#31,#32)),.UNSPECIFIED.,.F.,.F.,.F.,(4,1,1,1,1),(2,2),(0.0,1.0,2.0,3.0,4.0),(0.0,1.0),.UNSPECIFIED.);
#34=(GEOMETRIC_REPRESENTATION_CONTEXT(2)PARAMETRIC_REPRESENTATION_CONTEXT()REPRESENTATION_CONTEXT('UV','2D'));
#35=CARTESIAN_POINT('',(1.0,0.0,0.0));
#36=CARTESIAN_POINT('',(-1.0,0.0,0.0));
#37=CARTESIAN_POINT('',(-1.0,0.0,0.75));
#38=CARTESIAN_POINT('',(1.0,0.0,0.75));
#39=VERTEX_POINT('',#35);
#40=VERTEX_POINT('',#36);
#41=VERTEX_POINT('',#37);
#42=VERTEX_POINT('',#38);
#43=CARTESIAN_POINT('',(1.0,0.0,0.0));
#44=DIRECTION('',(-2.0,0.0,0.0));
#45=VECTOR('',#44,2.0);
#46=LINE('',#43,#45);
#47=CARTESIAN_POINT('',(0.0,0.0));
#48=DIRECTION('',(2.0,0.0));
#49=VECTOR('',#48,2.0);
#50=LINE('',#47,#49);
#51=DEFINITIONAL_REPRESENTATION('pcdef',(#50),#34);
#52=PCURVE('pc',#33,#51);
#53=SURFACE_CURVE('sc',#46,(#52),.PCURVE_S1.);
#54=EDGE_CURVE('ec',#39,#40,#53,.T.);
#55=CARTESIAN_POINT('',(-1.0,0.0,0.0));
#56=DIRECTION('',(0.0,0.0,1.0));
#57=VECTOR('',#56,0.75);
#58=LINE('',#55,#57);
#59=CARTESIAN_POINT('',(2.0,0.0));
#60=DIRECTION('',(0.0,1.0));
#61=VECTOR('',#60,1.0);
#62=LINE('',#59,#61);
#63=DEFINITIONAL_REPRESENTATION('pcdef',(#62),#34);
#64=PCURVE('pc',#33,#63);
#65=SURFACE_CURVE('sc',#58,(#64),.PCURVE_S1.);
#66=EDGE_CURVE('ec',#40,#41,#65,.T.);
#67=CARTESIAN_POINT('',(-1.0,0.0,0.75));
#68=DIRECTION('',(2.0,0.0,0.0));
#69=VECTOR('',#68,2.0);
#70=LINE('',#67,#69);
#71=CARTESIAN_POINT('',(2.0,1.0));
#72=DIRECTION('',(-2.0,0.0));
#73=VECTOR('',#72,2.0);
#74=LINE('',#71,#73);
#75=DEFINITIONAL_REPRESENTATION('pcdef',(#74),#34);
#76=PCURVE('pc',#33,#75);
#77=SURFACE_CURVE('sc',#70,(#76),.PCURVE_S1.);
#78=EDGE_CURVE('ec',#41,#42,#77,.T.);
#79=CARTESIAN_POINT('',(1.0,0.0,0.75));
#80=DIRECTION('',(0.0,0.0,-1.0));
#81=VECTOR('',#80,0.75);
#82=LINE('',#79,#81);
#83=CARTESIAN_POINT('',(0.0,1.0));
#84=DIRECTION('',(0.0,-1.0));
#85=VECTOR('',#84,1.0);
#86=LINE('',#83,#85);
#87=DEFINITIONAL_REPRESENTATION('pcdef',(#86),#34);
#88=PCURVE('pc',#33,#87);
#89=SURFACE_CURVE('sc',#82,(#88),.PCURVE_S1.);
#90=EDGE_CURVE('ec',#42,#39,#89,.T.);
#91=ORIENTED_EDGE('',$,$,#54,.T.);
#92=ORIENTED_EDGE('',$,$,#66,.T.);
#93=ORIENTED_EDGE('',$,$,#78,.T.);
#94=ORIENTED_EDGE('',$,$,#90,.T.);
#95=EDGE_LOOP('',(#91,#92,#93,#94));
#96=FACE_OUTER_BOUND('',#95,.T.);
#97=ADVANCED_FACE('',(#96),#33,.T.);
#98=OPEN_SHELL('',(#97));
#99=SHELL_BASED_SURFACE_MODEL('',(#98));
#9050=PRODUCT_CONTEXT('',#9000,'mechanical');
#9051=PRODUCT('Gs059','Gs059','',(#9050));
#9052=PRODUCT_DEFINITION_FORMATION('','',#9051);
#9053=PRODUCT_DEFINITION_CONTEXT('part definition',#9000,'design');
#9054=PRODUCT_DEFINITION('','','',#9052,#9053);
#9055=PRODUCT_DEFINITION_SHAPE('','','',#9054);
#9056=(LENGTH_UNIT()NAMED_UNIT(*)SI_UNIT(.MILLI.,.METRE.));
#9057=(NAMED_UNIT(*)PLANE_ANGLE_UNIT()SI_UNIT($,.RADIAN.));
#9058=(NAMED_UNIT(*)SI_UNIT($,.STERADIAN.)SOLID_ANGLE_UNIT());
#9059=UNCERTAINTY_MEASURE_WITH_UNIT(.LENGTH_MEASURE(1.0E-7).,#9056,'distance_accuracy_value','');
#9060=(GEOMETRIC_REPRESENTATION_CONTEXT(3)GLOBAL_UNCERTAINTY_ASSIGNED_CONTEXT((#9059))GLOBAL_UNIT_ASSIGNED_CONTEXT((#9056,#9057,#9058))REPRESENTATION_CONTEXT('','3D'));
#9061=MANIFOLD_SURFACE_SHAPE_REPRESENTATION('',(#99),#9060);
#9062=SHAPE_DEFINITION_REPRESENTATION(#9055,#9061);
ENDSEC;
END-ISO-10303-21;
