ISO-10303-21;
HEADER;
FILE_DESCRIPTION(('Gs115: ShapeUpgrade_ConvertSurfaceToBezierBasis very-fine-knots — surface with 50 interior knots in U; conversion produces 50 Bezier patches with cumulative drift in continuity'),
(''),
(''));
FILE_NAME('Gs115.stp',2026-06-15T00:00:00Z,('Zellyn Hunter'),(''),('Fixture synthesis wave 33'),('',''));
FILE_SCHEMA(('AUTOMOTIVE_DESIGN { 1 0 10303 214 3 1 1 }'));
ENDSEC;
DATA;
#1=UNCERTAINTY_MEASURE_WITH_UNIT(LENGTH_MEASURE(1.E-7),#6,'distance_accuracy_value','');
#2=(LENGTH_UNIT()NAMED_UNIT(*)SI_UNIT(.MILLI.,.METRE.));
#3=(NAMED_UNIT(*)PLANE_ANGLE_UNIT()SI_UNIT($,.RADIAN.));
#4=(NAMED_UNIT(*)SI_UNIT($,.STERADIAN.)SOLID_ANGLE_UNIT());
#5=GEOMETRIC_REPRESENTATION_CONTEXT(3)GLOBAL_UNCERTAINTY_ASSIGNED_CONTEXT((#1))GLOBAL_UNIT_ASSIGNED_CONTEXT((#2,#3,#4))REPRESENTATION_CONTEXT('','3D'));
#6=SI_UNIT($,.METRE.);
#P1000=CARTESIAN_POINT('',(0.000000,0.000000,0.000000));
#P1001=CARTESIAN_POINT('',(0.018868,0.000000,0.055865));
#P1002=CARTESIAN_POINT('',(0.037736,0.000000,0.092669));
#P1003=CARTESIAN_POINT('',(0.056604,0.000000,0.097856));
#P1004=CARTESIAN_POINT('',(0.075472,0.000000,0.069655));
#P1005=CARTESIAN_POINT('',(0.094340,0.000000,0.017689));
#P1006=CARTESIAN_POINT('',(0.113208,0.000000,-0.040312));
#P1007=CARTESIAN_POINT('',(0.132075,0.000000,-0.084560));
#P1008=CARTESIAN_POINT('',(0.150943,0.000000,-0.099956));
#P1009=CARTESIAN_POINT('',(0.169811,0.000000,-0.081249));
#P1010=CARTESIAN_POINT('',(0.188679,0.000000,-0.034820));
#P1011=CARTESIAN_POINT('',(0.207547,0.000000,0.023489));
#P1012=CARTESIAN_POINT('',(0.226415,0.000000,0.073783));
#P1013=CARTESIAN_POINT('',(0.245283,0.000000,0.098904));
#P1014=CARTESIAN_POINT('',(0.264151,0.000000,0.090280));
#P1015=CARTESIAN_POINT('',(0.283019,0.000000,0.050853));
#P1016=CARTESIAN_POINT('',(0.301887,0.000000,-0.005924));
#P1017=CARTESIAN_POINT('',(0.320755,0.000000,-0.060680));
#P1018=CARTESIAN_POINT('',(0.339623,0.000000,-0.094733));
#P1019=CARTESIAN_POINT('',(0.358491,0.000000,-0.096464));
#P1020=CARTESIAN_POINT('',(0.377358,0.000000,-0.065282));
#P1021=CARTESIAN_POINT('',(0.396226,0.000000,-0.011827));
#P1022=CARTESIAN_POINT('',(0.415094,0.000000,0.045663));
#P1023=CARTESIAN_POINT('',(0.433962,0.000000,0.087573));
#P1024=CARTESIAN_POINT('',(0.452830,0.000000,0.099605));
#P1025=CARTESIAN_POINT('',(0.471698,0.000000,0.077652));
#P1026=CARTESIAN_POINT('',(0.490566,0.000000,0.029206));
#P1027=CARTESIAN_POINT('',(0.509434,0.000000,-0.029206));
#P1028=CARTESIAN_POINT('',(0.528302,0.000000,-0.077652));
#P1029=CARTESIAN_POINT('',(0.547170,0.000000,-0.099605));
#P1030=CARTESIAN_POINT('',(0.566038,0.000000,-0.087573));
#P1031=CARTESIAN_POINT('',(0.584906,0.000000,-0.045663));
#P1032=CARTESIAN_POINT('',(0.603774,0.000000,0.011827));
#P1033=CARTESIAN_POINT('',(0.622642,0.000000,0.065282));
#P1034=CARTESIAN_POINT('',(0.641509,0.000000,0.096464));
#P1035=CARTESIAN_POINT('',(0.660377,0.000000,0.094733));
#P1036=CARTESIAN_POINT('',(0.679245,0.000000,0.060680));
#P1037=CARTESIAN_POINT('',(0.698113,0.000000,0.005924));
#P1038=CARTESIAN_POINT('',(0.716981,0.000000,-0.050853));
#P1039=CARTESIAN_POINT('',(0.735849,0.000000,-0.090280));
#P1040=CARTESIAN_POINT('',(0.754717,0.000000,-0.098904));
#P1041=CARTESIAN_POINT('',(0.773585,0.000000,-0.073783));
#P1042=CARTESIAN_POINT('',(0.792453,0.000000,-0.023489));
#P1043=CARTESIAN_POINT('',(0.811321,0.000000,0.034820));
#P1044=CARTESIAN_POINT('',(0.830189,0.000000,0.081249));
#P1045=CARTESIAN_POINT('',(0.849057,0.000000,0.099956));
#P1046=CARTESIAN_POINT('',(0.867925,0.000000,0.084560));
#P1047=CARTESIAN_POINT('',(0.886792,0.000000,0.040312));
#P1048=CARTESIAN_POINT('',(0.905660,0.000000,-0.017689));
#P1049=CARTESIAN_POINT('',(0.924528,0.000000,-0.069655));
#P1050=CARTESIAN_POINT('',(0.943396,0.000000,-0.097856));
#P1051=CARTESIAN_POINT('',(0.962264,0.000000,-0.092669));
#P1052=CARTESIAN_POINT('',(0.981132,0.000000,-0.055865));
#P1053=CARTESIAN_POINT('',(1.000000,0.000000,-0.000000));
#P1054=CARTESIAN_POINT('',(0.000000,0.333333,0.000000));
#P1055=CARTESIAN_POINT('',(0.018868,0.333333,0.111729));
#P1056=CARTESIAN_POINT('',(0.037736,0.333333,0.185338));
#P1057=CARTESIAN_POINT('',(0.056604,0.333333,0.195711));
#P1058=CARTESIAN_POINT('',(0.075472,0.333333,0.139310));
#P1059=CARTESIAN_POINT('',(0.094340,0.333333,0.035378));
#P1060=CARTESIAN_POINT('',(0.113208,0.333333,-0.080625));
#P1061=CARTESIAN_POINT('',(0.132075,0.333333,-0.169119));
#P1062=CARTESIAN_POINT('',(0.150943,0.333333,-0.199912));
#P1063=CARTESIAN_POINT('',(0.169811,0.333333,-0.162497));
#P1064=CARTESIAN_POINT('',(0.188679,0.333333,-0.069640));
#P1065=CARTESIAN_POINT('',(0.207547,0.333333,0.046977));
#P1066=CARTESIAN_POINT('',(0.226415,0.333333,0.147567));
#P1067=CARTESIAN_POINT('',(0.245283,0.333333,0.197808));
#P1068=CARTESIAN_POINT('',(0.264151,0.333333,0.180560));
#P1069=CARTESIAN_POINT('',(0.283019,0.333333,0.101706));
#P1070=CARTESIAN_POINT('',(0.301887,0.333333,-0.011848));
#P1071=CARTESIAN_POINT('',(0.320755,0.333333,-0.121360));
#P1072=CARTESIAN_POINT('',(0.339623,0.333333,-0.189465));
#P1073=CARTESIAN_POINT('',(0.358491,0.333333,-0.192927));
#P1074=CARTESIAN_POINT('',(0.377358,0.333333,-0.130564));
#P1075=CARTESIAN_POINT('',(0.396226,0.333333,-0.023655));
#P1076=CARTESIAN_POINT('',(0.415094,0.333333,0.091326));
#P1077=CARTESIAN_POINT('',(0.433962,0.333333,0.175147));
#P1078=CARTESIAN_POINT('',(0.452830,0.333333,0.199210));
#P1079=CARTESIAN_POINT('',(0.471698,0.333333,0.155305));
#P1080=CARTESIAN_POINT('',(0.490566,0.333333,0.058411));
#P1081=CARTESIAN_POINT('',(0.509434,0.333333,-0.058411));
#P1082=CARTESIAN_POINT('',(0.528302,0.333333,-0.155305));
#P1083=CARTESIAN_POINT('',(0.547170,0.333333,-0.199210));
#P1084=CARTESIAN_POINT('',(0.566038,0.333333,-0.175147));
#P1085=CARTESIAN_POINT('',(0.584906,0.333333,-0.091326));
#P1086=CARTESIAN_POINT('',(0.603774,0.333333,0.023655));
#P1087=CARTESIAN_POINT('',(0.622642,0.333333,0.130564));
#P1088=CARTESIAN_POINT('',(0.641509,0.333333,0.192927));
#P1089=CARTESIAN_POINT('',(0.660377,0.333333,0.189465));
#P1090=CARTESIAN_POINT('',(0.679245,0.333333,0.121360));
#P1091=CARTESIAN_POINT('',(0.698113,0.333333,0.011848));
#P1092=CARTESIAN_POINT('',(0.716981,0.333333,-0.101706));
#P1093=CARTESIAN_POINT('',(0.735849,0.333333,-0.180560));
#P1094=CARTESIAN_POINT('',(0.754717,0.333333,-0.197808));
#P1095=CARTESIAN_POINT('',(0.773585,0.333333,-0.147567));
#P1096=CARTESIAN_POINT('',(0.792453,0.333333,-0.046977));
#P1097=CARTESIAN_POINT('',(0.811321,0.333333,0.069640));
#P1098=CARTESIAN_POINT('',(0.830189,0.333333,0.162497));
#P1099=CARTESIAN_POINT('',(0.849057,0.333333,0.199912));
#P1100=CARTESIAN_POINT('',(0.867925,0.333333,0.169119));
#P1101=CARTESIAN_POINT('',(0.886792,0.333333,0.080625));
#P1102=CARTESIAN_POINT('',(0.905660,0.333333,-0.035378));
#P1103=CARTESIAN_POINT('',(0.924528,0.333333,-0.139310));
#P1104=CARTESIAN_POINT('',(0.943396,0.333333,-0.195711));
#P1105=CARTESIAN_POINT('',(0.962264,0.333333,-0.185338));
#P1106=CARTESIAN_POINT('',(0.981132,0.333333,-0.111729));
#P1107=CARTESIAN_POINT('',(1.000000,0.333333,-0.000000));
#P1108=CARTESIAN_POINT('',(0.000000,0.666667,0.000000));
#P1109=CARTESIAN_POINT('',(0.018868,0.666667,0.167594));
#P1110=CARTESIAN_POINT('',(0.037736,0.666667,0.278007));
#P1111=CARTESIAN_POINT('',(0.056604,0.666667,0.293567));
#P1112=CARTESIAN_POINT('',(0.075472,0.666667,0.208965));
#P1113=CARTESIAN_POINT('',(0.094340,0.666667,0.053067));
#P1114=CARTESIAN_POINT('',(0.113208,0.666667,-0.120937));
#P1115=CARTESIAN_POINT('',(0.132075,0.666667,-0.253679));
#P1116=CARTESIAN_POINT('',(0.150943,0.666667,-0.299868));
#P1117=CARTESIAN_POINT('',(0.169811,0.666667,-0.243746));
#P1118=CARTESIAN_POINT('',(0.188679,0.666667,-0.104460));
#P1119=CARTESIAN_POINT('',(0.207547,0.666667,0.070466));
#P1120=CARTESIAN_POINT('',(0.226415,0.666667,0.221350));
#P1121=CARTESIAN_POINT('',(0.245283,0.666667,0.296712));
#P1122=CARTESIAN_POINT('',(0.264151,0.666667,0.270839));
#P1123=CARTESIAN_POINT('',(0.283019,0.666667,0.152559));
#P1124=CARTESIAN_POINT('',(0.301887,0.666667,-0.017772));
#P1125=CARTESIAN_POINT('',(0.320755,0.666667,-0.182040));
#P1126=CARTESIAN_POINT('',(0.339623,0.666667,-0.284198));
#P1127=CARTESIAN_POINT('',(0.358491,0.666667,-0.289391));
#P1128=CARTESIAN_POINT('',(0.377358,0.666667,-0.195847));
#P1129=CARTESIAN_POINT('',(0.396226,0.666667,-0.035482));
#P1130=CARTESIAN_POINT('',(0.415094,0.666667,0.136989));
#P1131=CARTESIAN_POINT('',(0.433962,0.666667,0.262720));
#P1132=CARTESIAN_POINT('',(0.452830,0.666667,0.298815));
#P1133=CARTESIAN_POINT('',(0.471698,0.666667,0.232957));
#P1134=CARTESIAN_POINT('',(0.490566,0.666667,0.087617));
#P1135=CARTESIAN_POINT('',(0.509434,0.666667,-0.087617));
#P1136=CARTESIAN_POINT('',(0.528302,0.666667,-0.232957));
#P1137=CARTESIAN_POINT('',(0.547170,0.666667,-0.298815));
#P1138=CARTESIAN_POINT('',(0.566038,0.666667,-0.262720));
#P1139=CARTESIAN_POINT('',(0.584906,0.666667,-0.136989));
#P1140=CARTESIAN_POINT('',(0.603774,0.666667,0.035482));
#P1141=CARTESIAN_POINT('',(0.622642,0.666667,0.195847));
#P1142=CARTESIAN_POINT('',(0.641509,0.666667,0.289391));
#P1143=CARTESIAN_POINT('',(0.660377,0.666667,0.284198));
#P1144=CARTESIAN_POINT('',(0.679245,0.666667,0.182040));
#P1145=CARTESIAN_POINT('',(0.698113,0.666667,0.017772));
#P1146=CARTESIAN_POINT('',(0.716981,0.666667,-0.152559));
#P1147=CARTESIAN_POINT('',(0.735849,0.666667,-0.270839));
#P1148=CARTESIAN_POINT('',(0.754717,0.666667,-0.296712));
#P1149=CARTESIAN_POINT('',(0.773585,0.666667,-0.221350));
#P1150=CARTESIAN_POINT('',(0.792453,0.666667,-0.070466));
#P1151=CARTESIAN_POINT('',(0.811321,0.666667,0.104460));
#P1152=CARTESIAN_POINT('',(0.830189,0.666667,0.243746));
#P1153=CARTESIAN_POINT('',(0.849057,0.666667,0.299868));
#P1154=CARTESIAN_POINT('',(0.867925,0.666667,0.253679));
#P1155=CARTESIAN_POINT('',(0.886792,0.666667,0.120937));
#P1156=CARTESIAN_POINT('',(0.905660,0.666667,-0.053067));
#P1157=CARTESIAN_POINT('',(0.924528,0.666667,-0.208965));
#P1158=CARTESIAN_POINT('',(0.943396,0.666667,-0.293567));
#P1159=CARTESIAN_POINT('',(0.962264,0.666667,-0.278007));
#P1160=CARTESIAN_POINT('',(0.981132,0.666667,-0.167594));
#P1161=CARTESIAN_POINT('',(1.000000,0.666667,-0.000000));
#P1162=CARTESIAN_POINT('',(0.000000,1.000000,0.000000));
#P1163=CARTESIAN_POINT('',(0.018868,1.000000,0.223459));
#P1164=CARTESIAN_POINT('',(0.037736,1.000000,0.370676));
#P1165=CARTESIAN_POINT('',(0.056604,1.000000,0.391423));
#P1166=CARTESIAN_POINT('',(0.075472,1.000000,0.278620));
#P1167=CARTESIAN_POINT('',(0.094340,1.000000,0.070756));
#P1168=CARTESIAN_POINT('',(0.113208,1.000000,-0.161249));
#P1169=CARTESIAN_POINT('',(0.132075,1.000000,-0.338238));
#P1170=CARTESIAN_POINT('',(0.150943,1.000000,-0.399824));
#P1171=CARTESIAN_POINT('',(0.169811,1.000000,-0.324995));
#P1172=CARTESIAN_POINT('',(0.188679,1.000000,-0.139281));
#P1173=CARTESIAN_POINT('',(0.207547,1.000000,0.093954));
#P1174=CARTESIAN_POINT('',(0.226415,1.000000,0.295133));
#P1175=CARTESIAN_POINT('',(0.245283,1.000000,0.395616));
#P1176=CARTESIAN_POINT('',(0.264151,1.000000,0.361119));
#P1177=CARTESIAN_POINT('',(0.283019,1.000000,0.203412));
#P1178=CARTESIAN_POINT('',(0.301887,1.000000,-0.023696));
#P1179=CARTESIAN_POINT('',(0.320755,1.000000,-0.242720));
#P1180=CARTESIAN_POINT('',(0.339623,1.000000,-0.378931));
#P1181=CARTESIAN_POINT('',(0.358491,1.000000,-0.385854));
#P1182=CARTESIAN_POINT('',(0.377358,1.000000,-0.261129));
#P1183=CARTESIAN_POINT('',(0.396226,1.000000,-0.047309));
#P1184=CARTESIAN_POINT('',(0.415094,1.000000,0.182652));
#P1185=CARTESIAN_POINT('',(0.433962,1.000000,0.350294));
#P1186=CARTESIAN_POINT('',(0.452830,1.000000,0.398420));
#P1187=CARTESIAN_POINT('',(0.471698,1.000000,0.310610));
#P1188=CARTESIAN_POINT('',(0.490566,1.000000,0.116823));
#P1189=CARTESIAN_POINT('',(0.509434,1.000000,-0.116823));
#P1190=CARTESIAN_POINT('',(0.528302,1.000000,-0.310610));
#P1191=CARTESIAN_POINT('',(0.547170,1.000000,-0.398420));
#P1192=CARTESIAN_POINT('',(0.566038,1.000000,-0.350294));
#P1193=CARTESIAN_POINT('',(0.584906,1.000000,-0.182652));
#P1194=CARTESIAN_POINT('',(0.603774,1.000000,0.047309));
#P1195=CARTESIAN_POINT('',(0.622642,1.000000,0.261129));
#P1196=CARTESIAN_POINT('',(0.641509,1.000000,0.385854));
#P1197=CARTESIAN_POINT('',(0.660377,1.000000,0.378931));
#P1198=CARTESIAN_POINT('',(0.679245,1.000000,0.242720));
#P1199=CARTESIAN_POINT('',(0.698113,1.000000,0.023696));
#P1200=CARTESIAN_POINT('',(0.716981,1.000000,-0.203412));
#P1201=CARTESIAN_POINT('',(0.735849,1.000000,-0.361119));
#P1202=CARTESIAN_POINT('',(0.754717,1.000000,-0.395616));
#P1203=CARTESIAN_POINT('',(0.773585,1.000000,-0.295133));
#P1204=CARTESIAN_POINT('',(0.792453,1.000000,-0.093954));
#P1205=CARTESIAN_POINT('',(0.811321,1.000000,0.139281));
#P1206=CARTESIAN_POINT('',(0.830189,1.000000,0.324995));
#P1207=CARTESIAN_POINT('',(0.849057,1.000000,0.399824));
#P1208=CARTESIAN_POINT('',(0.867925,1.000000,0.338238));
#P1209=CARTESIAN_POINT('',(0.886792,1.000000,0.161249));
#P1210=CARTESIAN_POINT('',(0.905660,1.000000,-0.070756));
#P1211=CARTESIAN_POINT('',(0.924528,1.000000,-0.278620));
#P1212=CARTESIAN_POINT('',(0.943396,1.000000,-0.391423));
#P1213=CARTESIAN_POINT('',(0.962264,1.000000,-0.370676));
#P1214=CARTESIAN_POINT('',(0.981132,1.000000,-0.223459));
#P1215=CARTESIAN_POINT('',(1.000000,1.000000,-0.000000));

#100=B_SPLINE_SURFACE_WITH_KNOTS('fine-knot-surface',3,3,
(
(#P1000,#P1001,#P1002,#P1003,#P1004,#P1005,#P1006,#P1007,#P1008,#P1009,#P1010,#P1011,#P1012,#P1013,#P1014,#P1015,#P1016,#P1017,#P1018,#P1019,#P1020,#P1021,#P1022,#P1023,#P1024,#P1025,#P1026,#P1027,#P1028,#P1029,#P1030,#P1031,#P1032,#P1033,#P1034,#P1035,#P1036,#P1037,#P1038,#P1039,#P1040,#P1041,#P1042,#P1043,#P1044,#P1045,#P1046,#P1047,#P1048,#P1049,#P1050,#P1051,#P1052,#P1053),
(#P1054,#P1055,#P1056,#P1057,#P1058,#P1059,#P1060,#P1061,#P1062,#P1063,#P1064,#P1065,#P1066,#P1067,#P1068,#P1069,#P1070,#P1071,#P1072,#P1073,#P1074,#P1075,#P1076,#P1077,#P1078,#P1079,#P1080,#P1081,#P1082,#P1083,#P1084,#P1085,#P1086,#P1087,#P1088,#P1089,#P1090,#P1091,#P1092,#P1093,#P1094,#P1095,#P1096,#P1097,#P1098,#P1099,#P1100,#P1101,#P1102,#P1103,#P1104,#P1105,#P1106,#P1107),
(#P1108,#P1109,#P1110,#P1111,#P1112,#P1113,#P1114,#P1115,#P1116,#P1117,#P1118,#P1119,#P1120,#P1121,#P1122,#P1123,#P1124,#P1125,#P1126,#P1127,#P1128,#P1129,#P1130,#P1131,#P1132,#P1133,#P1134,#P1135,#P1136,#P1137,#P1138,#P1139,#P1140,#P1141,#P1142,#P1143,#P1144,#P1145,#P1146,#P1147,#P1148,#P1149,#P1150,#P1151,#P1152,#P1153,#P1154,#P1155,#P1156,#P1157,#P1158,#P1159,#P1160,#P1161),
(#P1162,#P1163,#P1164,#P1165,#P1166,#P1167,#P1168,#P1169,#P1170,#P1171,#P1172,#P1173,#P1174,#P1175,#P1176,#P1177,#P1178,#P1179,#P1180,#P1181,#P1182,#P1183,#P1184,#P1185,#P1186,#P1187,#P1188,#P1189,#P1190,#P1191,#P1192,#P1193,#P1194,#P1195,#P1196,#P1197,#P1198,#P1199,#P1200,#P1201,#P1202,#P1203,#P1204,#P1205,#P1206,#P1207,#P1208,#P1209,#P1210,#P1211,#P1212,#P1213,#P1214,#P1215)
),
.UNSPECIFIED.,.U.,.V.,.U.,.V.,
(52,2),
(52,2),
(0.0,0.0196078431372549,0.0392156862745098,0.058823529411764705,0.0784313725490196,0.09803921568627451,0.11764705882352941,0.13725490196078433,0.1568627450980392,0.17647058823529413,0.19607843137254902,0.21568627450980393,0.23529411764705882,0.2549019607843137,0.27450980392156865,0.29411764705882354,0.3137254901960784,0.3333333333333333,0.35294117647058826,0.37254901960784315,0.39215686274509803,0.4117647058823529,0.43137254901960786,0.45098039215686275,0.47058823529411764,0.49019607843137253,0.5098039215686274,0.5294117647058824,0.5490196078431373,0.5686274509803921,0.5882352941176471,0.6078431372549019,0.6274509803921569,0.6470588235294118,0.6666666666666666,0.6862745098039216,0.7058823529411765,0.7254901960784313,0.7450980392156863,0.7647058823529411,0.7843137254901961,0.803921568627451,0.8235294117647058,0.8431372549019608,0.8627450980392157,0.8823529411764706,0.9019607843137255,0.9215686274509803,0.9411764705882353,0.9607843137254902,0.9803921568627451,1.0),
(0,1),
.U.);
#101=SURFACE_CURVE(#100,(),.UNSPECIFIED.);
#102=ADVANCED_FACE('',(#101),#100,.T.);
#103=CLOSED_SHELL('',(#102));
#9000=PRODUCT_CONTEXT('',#5,'mechanical');
#9001=PRODUCT('Gs115','Gs115','',(#9000));
#9002=PRODUCT_DEFINITION_FORMATION('','',#9001);
#9003=PRODUCT_DEFINITION_CONTEXT('part definition',#5,'design');
#9004=PRODUCT_DEFINITION('','',#9002,#9003);
#9005=PRODUCT_DEFINITION_SHAPE('','',#9004);
#9010=(GEOMETRIC_REPRESENTATION_CONTEXT(3)GLOBAL_UNCERTAINTY_ASSIGNED_CONTEXT((#1))GLOBAL_UNIT_ASSIGNED_CONTEXT((#2,#3,#4))REPRESENTATION_CONTEXT('','3D'));
#9022=GEOMETRICALLY_BOUNDED_SURFACE_SHAPE_REPRESENTATION('',(#100),#9010);
#9023=SHAPE_DEFINITION_REPRESENTATION(#9005,#9022);
ENDSEC;
END-ISO-10303-21;
