ISO-10303-21;
HEADER;
FILE_DESCRIPTION(('N086: Closed BSpline SameParameter defect'),'2;1');
FILE_NAME('N086.stp','2026-06-15T00:00:00Z',(''),(''),'',12,0);
FILE_SCHEMA(('AUTOMOTIVE_DESIGN { 1 0 10303 214 3 1 1 }'));
ENDSEC;
DATA;
#1=REPRESENTATION_ITEM('');
#10=VERTEX_POINT('v1',#100);
#20=EDGE_CURVE('e1',#10,#10,#200,.T.);
#100=CARTESIAN_POINT('',(0.,0.,0.));
#200=B_SPLINE_CURVE_WITH_KNOTS('closed_bspline',3,(
  #300,#301,#302,#303,#304),
  .U.,
  .F.,.T.,
  .T.,  
  (1,1,1,1,1),
  (0.,6.283185307179586,12.566370614359172),
  .U.);
#300=CARTESIAN_POINT('',(1.0,0.0,0.0));
#301=CARTESIAN_POINT('',(0.7071,0.7071,0.0));
#302=CARTESIAN_POINT('',(-1.0,0.0,0.0));
#303=CARTESIAN_POINT('',(0.7071,-0.7071,0.0));
#304=CARTESIAN_POINT('',(1.0,0.0,0.0));
#500=CIRCLE('circle_ref',#600,1.0);
#600=AXIS2_PLACEMENT_3D('',#100,#700,#701);
#700=DIRECTION('',(0.,0.,1.));
#701=DIRECTION('',(1.,0.,0.));
#1000=FACE_OUTER_BOUND('',#1100,.T.);
#1100=EDGE_LOOP('',(#20));
#2000=ADVANCED_FACE('',(#1000),#500,.T.);
#9000=PRODUCT_CONTEXT('',#1,'mechanical');
#9001=PRODUCT('N086','N086','',(#9000));
#9002=PRODUCT_DEFINITION_FORMATION('','',#9001);
#9003=PRODUCT_DEFINITION_CONTEXT('part definition',#1,'design');
#9004=PRODUCT_DEFINITION('','',#9002,#9003);
#9005=PRODUCT_DEFINITION_SHAPE('','',#9004);
#9006=(LENGTH_UNIT()NAMED_UNIT(*)SI_UNIT(.MILLI.,.METRE.));
#9007=(NAMED_UNIT(*)PLANE_ANGLE_UNIT()SI_UNIT($,.RADIAN.));
#9008=(NAMED_UNIT(*)SI_UNIT($,.STERADIAN.)SOLID_ANGLE_UNIT());
#9009=UNCERTAINTY_MEASURE_WITH_UNIT(LENGTH_MEASURE(1.0E-7),#9006,'distance_accuracy_value','');
#9010=(GEOMETRIC_REPRESENTATION_CONTEXT(3)GLOBAL_UNCERTAINTY_ASSIGNED_CONTEXT((#9009))GLOBAL_UNIT_ASSIGNED_CONTEXT((#9006,#9007,#9008))REPRESENTATION_CONTEXT('','3D'));
#9021=SHELL_BASED_SURFACE_MODEL('sbsm',(#9020));
#9020=CLOSED_SHELL('',(#2000));
#9022=MANIFOLD_SURFACE_SHAPE_REPRESENTATION('',(#9021),#9010);
#9023=SHAPE_DEFINITION_REPRESENTATION(#9005,#9022);
ENDSEC;
END;