ISO-10303-21;
HEADER;
FILE_DESCRIPTION(('N089: LimitTolerance recursion depth defect'),'2;1');
FILE_NAME('N089.stp','2026-06-15T00:00:00Z',(''),(''),'',12,0);
FILE_SCHEMA(('AUTOMOTIVE_DESIGN { 1 0 10303 214 3 1 1 }'));
ENDSEC;
DATA;
#1=REPRESENTATION_ITEM('');
#10=VERTEX_POINT('v1',#100);
#11=VERTEX_POINT('v2',#101);
#12=VERTEX_POINT('v3',#102);
#13=VERTEX_POINT('v4',#103);
#100=CARTESIAN_POINT('',(0.,0.,0.));
#101=CARTESIAN_POINT('',(1.,0.,0.));
#102=CARTESIAN_POINT('',(1.,1.,0.));
#103=CARTESIAN_POINT('',(0.,1.,0.));
#20=EDGE_CURVE('e1',#10,#11,#200,.T.);
#21=EDGE_CURVE('e2',#11,#12,#201,.T.);
#22=EDGE_CURVE('e3',#12,#13,#202,.T.);
#23=EDGE_CURVE('e4',#13,#10,#203,.T.);
#200=LINE('',#100,#300);
#201=LINE('',#101,#301);
#202=LINE('',#102,#302);
#203=LINE('',#103,#303);
#300=VECTOR('',#400,1.0);
#301=VECTOR('',#401,1.0);
#302=VECTOR('',#402,1.0);
#303=VECTOR('',#403,1.0);
#400=DIRECTION('',(1.,0.,0.));
#401=DIRECTION('',(0.,1.,0.));
#402=DIRECTION('',(-1.,0.,0.));
#403=DIRECTION('',(0.,-1.,0.));
#1000=FACE_OUTER_BOUND('',#1100,.T.);
#1100=EDGE_LOOP('',(#20,#21,#22,#23));
#2000=PLANE('',#600,1.0);
#600=AXIS2_PLACEMENT_3D('',#100,#700,#701);
#700=DIRECTION('',(0.,0.,1.));
#701=DIRECTION('',(1.,0.,0.));
#2100=ADVANCED_FACE('',(#1000),#2000,.T.);
#9000=PRODUCT_CONTEXT('',#1,'mechanical');
#9001=PRODUCT('N089','N089','',(#9000));
#9002=PRODUCT_DEFINITION_FORMATION('','',#9001);
#9003=PRODUCT_DEFINITION_CONTEXT('part definition',#1,'design');
#9004=PRODUCT_DEFINITION('','',#9002,#9003);
#9005=PRODUCT_DEFINITION_SHAPE('','',#9004);
#9006=(LENGTH_UNIT()NAMED_UNIT(*)SI_UNIT(.MILLI.,.METRE.));
#9007=(NAMED_UNIT(*)PLANE_ANGLE_UNIT()SI_UNIT($,.RADIAN.));
#9008=(NAMED_UNIT(*)SI_UNIT($,.STERADIAN.)SOLID_ANGLE_UNIT());
#9009=UNCERTAINTY_MEASURE_WITH_UNIT(LENGTH_MEASURE(1.0E-5),#9006,'distance_accuracy_value','');
#9010=(GEOMETRIC_REPRESENTATION_CONTEXT(3)GLOBAL_UNCERTAINTY_ASSIGNED_CONTEXT((#9009))GLOBAL_UNIT_ASSIGNED_CONTEXT((#9006,#9007,#9008))REPRESENTATION_CONTEXT('','3D'));
#9021=SHELL_BASED_SURFACE_MODEL('sbsm',(#9020));
#9020=CLOSED_SHELL('',(#2100));
#9022=MANIFOLD_SURFACE_SHAPE_REPRESENTATION('',(#9021),#9010);
#9023=SHAPE_DEFINITION_REPRESENTATION(#9005,#9022);
ENDSEC;
END;