ISO-10303-21;
/* N119: OPEN_SHELL face with edge_at_1e10_scale from v_huge_0 to v_huge_1 at coordinates (1e10, 1e10, 1e10); tolerance 1.0 is valid relatively but LimitTolerance relative ratio test underflows — spurious violation */
HEADER;
FILE_DESCRIPTION(('N119'),'2;1');
FILE_NAME('N119.stp','2026-06-17T00:00:00',(''),(''),'cad-research-suite','','');
FILE_SCHEMA(('AUTOMOTIVE_DESIGN { 1 0 10303 214 3 1 1 }'));
ENDSEC;
DATA;
#9000=APPLICATION_CONTEXT('mechanical design');
#1=CARTESIAN_POINT('',(10000000000.0,10000000000.0,10000000000.0));
#2=CARTESIAN_POINT('',(10000000000.0,10000000001.0,10000000000.0));
#3=VERTEX_POINT('v_huge_0',#1);
#4=VERTEX_POINT('v_huge_1',#2);
#5=DIRECTION('',(0.0,1.0,0.0));
#6=VECTOR('',#5,1.0);
#7=LINE('',#1,#6);
#8=EDGE_CURVE('edge_at_1e10_scale',#3,#4,#7,.T.);
#9=CARTESIAN_POINT('',(10000000001.0,10000000001.0,10000000000.0));
#10=CARTESIAN_POINT('',(10000000001.0,10000000000.0,10000000000.0));
#11=VERTEX_POINT('',#9);
#12=VERTEX_POINT('',#10);
#13=DIRECTION('',(1.0,0.0,0.0));
#14=VECTOR('',#13,1.0);
#15=LINE('',#2,#14);
#16=EDGE_CURVE('',#4,#11,#15,.T.);
#17=DIRECTION('',(0.0,-1.0,0.0));
#18=VECTOR('',#17,1.0);
#19=LINE('',#9,#18);
#20=EDGE_CURVE('',#11,#12,#19,.T.);
#21=DIRECTION('',(-1.0,0.0,0.0));
#22=VECTOR('',#21,1.0);
#23=LINE('',#10,#22);
#24=EDGE_CURVE('',#12,#3,#23,.T.);
#25=ORIENTED_EDGE('',$,$,#8,.T.);
#26=ORIENTED_EDGE('',$,$,#16,.T.);
#27=ORIENTED_EDGE('',$,$,#20,.T.);
#28=ORIENTED_EDGE('',$,$,#24,.T.);
#29=EDGE_LOOP('huge_loop',(#25,#26,#27,#28));
#30=FACE_OUTER_BOUND('',#29,.T.);
#31=DIRECTION('',(0.0,0.0,1.0));
#32=DIRECTION('',(1.0,0.0,0.0));
#33=AXIS2_PLACEMENT_3D('',#1,#31,#32);
#34=PLANE('',#33);
#35=ADVANCED_FACE('',(#30),#34,.T.);
#36=OPEN_SHELL('',(#35));
#37=SHELL_BASED_SURFACE_MODEL('',(#36));
#9050=PRODUCT_CONTEXT('',#9000,'mechanical');
#9051=PRODUCT('N119','N119','',(#9050));
#9052=PRODUCT_DEFINITION_FORMATION('','',#9051);
#9053=PRODUCT_DEFINITION_CONTEXT('part definition',#9000,'design');
#9054=PRODUCT_DEFINITION('','','',#9052,#9053);
#9055=PRODUCT_DEFINITION_SHAPE('','','',#9054);
#9056=(LENGTH_UNIT()NAMED_UNIT(*)SI_UNIT(.MILLI.,.METRE.));
#9057=(NAMED_UNIT(*)PLANE_ANGLE_UNIT()SI_UNIT($,.RADIAN.));
#9058=(NAMED_UNIT(*)SI_UNIT($,.STERADIAN.)SOLID_ANGLE_UNIT());
#9059=UNCERTAINTY_MEASURE_WITH_UNIT(.LENGTH_MEASURE(1.000000E+00).,#9056,'distance_accuracy_value','');
#9060=(GEOMETRIC_REPRESENTATION_CONTEXT(3)GLOBAL_UNCERTAINTY_ASSIGNED_CONTEXT((#9059))GLOBAL_UNIT_ASSIGNED_CONTEXT((#9056,#9057,#9058))REPRESENTATION_CONTEXT('','3D'));
#9061=MANIFOLD_SURFACE_SHAPE_REPRESENTATION('',(#37),#9060);
#9062=SHAPE_DEFINITION_REPRESENTATION(#9055,#9061);
ENDSEC;
END-ISO-10303-21;
