ISO-10303-21;
/* Twi073: GEOMETRIC_CURVE_SET containing EDGE_LOOP on CYLINDRICAL_SURFACE (radius 1); 3 SURFACE_CURVE edges; junction 1 (e1/e2) is clean in UV; junction 2 (e2/e3): e2 pcurve ends at (2.0,0.0), e3 pcurve starts at (2.5,0.0) labelled 'junction2_pcurve_gap_0p5' — 0.5-unit UV gap; CheckGap2d(num=2) targets this specific junction; GEOMETRIC_CURVE_SET IS model entity — OCC yields empty; all EDGE_CURVEs ARE wired into EDGE_LOOP; never orphaned */
HEADER;
FILE_DESCRIPTION(('Twi073'),'2;1');
FILE_NAME('Twi073.stp','2026-06-17T00:00:00',(''),(''),'cad-research-suite','','');
FILE_SCHEMA(('AUTOMOTIVE_DESIGN { 1 0 10303 214 3 1 1 }'));
ENDSEC;
DATA;
#9000=APPLICATION_CONTEXT('mechanical design');
#1=CARTESIAN_POINT('',(0.0,0.0,0.0));
#2=DIRECTION('',(0.0,0.0,1.0));
#3=DIRECTION('',(1.0,0.0,0.0));
#4=AXIS2_PLACEMENT_3D('',#1,#2,#3);
#5=CYLINDRICAL_SURFACE('',#4,1.0);
#6=CARTESIAN_POINT('',(1.0,0.0,0.0));
#7=VERTEX_POINT('',#6);
#8=CARTESIAN_POINT('',(-0.416146836547,0.909297426826,0.0));
#9=VERTEX_POINT('',#8);
#10=CARTESIAN_POINT('',(-0.416146836547,0.909297426826,0.0));
#11=VERTEX_POINT('',#10);
#12=CARTESIAN_POINT('',(-0.801143615547,0.598472144104,0.0));
#13=VERTEX_POINT('',#12);
#14=CARTESIAN_POINT('',(-0.210795799431,-0.977530117665,0.0));
#15=VERTEX_POINT('',#14);
#16=CARTESIAN_POINT('',(0.0,0.0));
#17=DIRECTION('',(1.0,0.0));
#18=VECTOR('',#17,2.0);
#19=LINE('',#16,#18);
#20=DEFINITIONAL_REPRESENTATION('',(#19),#?);
#21=PCURVE('',#5,#20);
#22=CARTESIAN_POINT('',(2.0,0.0));
#23=DIRECTION('',(0.0,1.0));
#24=VECTOR('',#23,0.5);
#25=LINE('',#22,#24);
#26=DEFINITIONAL_REPRESENTATION('',(#25),#?);
#27=PCURVE('',#5,#26);
#28=CARTESIAN_POINT('',(2.5,0.0));
#29=DIRECTION('',(1.0,0.0));
#30=VECTOR('',#29,2.0);
#31=LINE('junction2_pcurve_gap_0p5',#28,#30);
#32=DEFINITIONAL_REPRESENTATION('',(#31),#?);
#33=PCURVE('',#5,#32);
#34=CARTESIAN_POINT('',(-0.416146836547,0.909297426826,0.0));
#35=VERTEX_POINT('',#34);
#36=CARTESIAN_POINT('',(-0.416146836547,0.909297426826,0.5));
#37=VERTEX_POINT('',#36);
#38=CARTESIAN_POINT('',(1.0,0.0,0.0));
#39=DIRECTION('',(-0.841470984808,0.540302305868,0.0));
#40=VECTOR('',#39,1.68294196962);
#41=LINE('',#38,#40);
#42=SURFACE_CURVE('',#41,(#21),.PCURVE_S1.);
#43=EDGE_CURVE('',#7,#9,#42,.T.);
#44=ORIENTED_EDGE('',*,*,#43,.T.);
#45=CARTESIAN_POINT('',(-0.416146836547,0.909297426826,0.0));
#46=DIRECTION('',(0.0,0.0,1.0));
#47=VECTOR('',#46,0.5);
#48=LINE('',#45,#47);
#49=SURFACE_CURVE('',#48,(#27),.PCURVE_S1.);
#50=EDGE_CURVE('',#35,#37,#49,.T.);
#51=ORIENTED_EDGE('',*,*,#50,.T.);
#52=CARTESIAN_POINT('',(-0.801143615547,0.598472144104,0.0));
#53=DIRECTION('',(0.35078322769,-0.936456687291,0.0));
#54=VECTOR('',#53,1.68294196962);
#55=LINE('',#52,#54);
#56=SURFACE_CURVE('',#55,(#33),.PCURVE_S1.);
#57=EDGE_CURVE('',#13,#15,#56,.T.);
#58=ORIENTED_EDGE('',*,*,#57,.T.);
#59=EDGE_LOOP('',(#44,#51,#58));
#60=GEOMETRIC_CURVE_SET('',(#59));
#9050=PRODUCT_CONTEXT('',#9000,'mechanical');
#9051=PRODUCT('Twi073','Twi073','',(#9050));
#9052=PRODUCT_DEFINITION_FORMATION('','',#9051);
#9053=PRODUCT_DEFINITION_CONTEXT('part definition',#9000,'design');
#9054=PRODUCT_DEFINITION('','','',#9052,#9053);
#9055=PRODUCT_DEFINITION_SHAPE('','','',#9054);
#9056=(LENGTH_UNIT()NAMED_UNIT(*)SI_UNIT(.MILLI.,.METRE.));
#9057=(NAMED_UNIT(*)PLANE_ANGLE_UNIT()SI_UNIT($,.RADIAN.));
#9058=(NAMED_UNIT(*)SI_UNIT($,.STERADIAN.)SOLID_ANGLE_UNIT());
#9059=UNCERTAINTY_MEASURE_WITH_UNIT(.LENGTH_MEASURE(1.0E-7).,#9056,'distance_accuracy_value','');
#9060=(GEOMETRIC_REPRESENTATION_CONTEXT(3)GLOBAL_UNCERTAINTY_ASSIGNED_CONTEXT((#9059))GLOBAL_UNIT_ASSIGNED_CONTEXT((#9056,#9057,#9058))REPRESENTATION_CONTEXT('','3D'));
#9061=MANIFOLD_SURFACE_SHAPE_REPRESENTATION('',(#60),#9060);
#9062=SHAPE_DEFINITION_REPRESENTATION(#9055,#9061);
ENDSEC;
END-ISO-10303-21;
