ISO-10303-21;
/* Twi167: GEOMETRIC_CURVE_SET containing EDGE_LOOP with 4 edges on PLANE; PLANE: normal +Z, origin (0,0,0); bow-tie topology: e0 A(0,0)→B(10,10), e1 B(10,10)→C(10,0), e2 C(10,0)→D(0,10), e3 D(0,10)→A(0,0); e0 and e2 cross at bowtie_crossing (5,5,0) IS defect; FixIntersectingEdges applied to crossing-edge wire collapses loop to single point without raising collapse-detection error IS mechanism; GEOMETRIC_CURVE_SET IS model entity — OCC yields empty; all EDGE_CURVEs ARE wired into EDGE_LOOP; never orphaned */
HEADER;
FILE_DESCRIPTION(('Twi167'),'2;1');
FILE_NAME('Twi167.stp','2026-06-17T00:00:00',(''),(''),'cad-research-suite','','');
FILE_SCHEMA(('AUTOMOTIVE_DESIGN { 1 0 10303 214 3 1 1 }'));
ENDSEC;
DATA;
#9000=APPLICATION_CONTEXT('mechanical design');
#1=CARTESIAN_POINT('',(0.0,0.0,0.0));
#2=DIRECTION('',(0.0,0.0,1.0));
#3=DIRECTION('',(1.0,0.0,0.0));
#4=AXIS2_PLACEMENT_3D('',#1,#2,#3);
#5=PLANE('',#4);
#6=CARTESIAN_POINT('',(0.0,0.0,0.0));
#7=VERTEX_POINT('',#6);
#8=CARTESIAN_POINT('',(10.0,10.0,0.0));
#9=VERTEX_POINT('',#8);
#10=CARTESIAN_POINT('',(10.0,0.0,0.0));
#11=VERTEX_POINT('',#10);
#12=CARTESIAN_POINT('',(0.0,10.0,0.0));
#13=VERTEX_POINT('',#12);
#14=CARTESIAN_POINT('bowtie_crossing',(5.0,5.0,0.0));
#15=CARTESIAN_POINT('',(0.0,0.0,0.0));
#16=DIRECTION('',(0.707106781187,0.707106781187,0.0));
#17=VECTOR('',#16,14.1421356237);
#18=LINE('',#15,#17);
#19=CARTESIAN_POINT('',(0.0,0.0));
#20=DIRECTION('',(0.707106781187,0.707106781187));
#21=VECTOR('',#20,14.1421356237);
#22=LINE('',#19,#21);
#23=DEFINITIONAL_REPRESENTATION('',(#22),#*);
#24=PCURVE('',#5,#23);
#25=SURFACE_CURVE('',#18,(#24),.PCURVE_S1.);
#26=EDGE_CURVE('',#7,#9,#25,.T.);
#27=ORIENTED_EDGE('',*,*,#26,.T.);
#28=CARTESIAN_POINT('',(10.0,10.0,0.0));
#29=DIRECTION('',(0.0,-1.0,0.0));
#30=VECTOR('',#29,10.0);
#31=LINE('',#28,#30);
#32=CARTESIAN_POINT('',(10.0,10.0));
#33=DIRECTION('',(0.0,-1.0));
#34=VECTOR('',#33,10.0);
#35=LINE('',#32,#34);
#36=DEFINITIONAL_REPRESENTATION('',(#35),#*);
#37=PCURVE('',#5,#36);
#38=SURFACE_CURVE('',#31,(#37),.PCURVE_S1.);
#39=EDGE_CURVE('',#9,#11,#38,.T.);
#40=ORIENTED_EDGE('',*,*,#39,.T.);
#41=CARTESIAN_POINT('',(10.0,0.0,0.0));
#42=DIRECTION('',(-0.707106781187,0.707106781187,0.0));
#43=VECTOR('',#42,14.1421356237);
#44=LINE('',#41,#43);
#45=CARTESIAN_POINT('',(10.0,0.0));
#46=DIRECTION('',(-0.707106781187,0.707106781187));
#47=VECTOR('',#46,14.1421356237);
#48=LINE('',#45,#47);
#49=DEFINITIONAL_REPRESENTATION('',(#48),#*);
#50=PCURVE('',#5,#49);
#51=SURFACE_CURVE('',#44,(#50),.PCURVE_S1.);
#52=EDGE_CURVE('',#11,#13,#51,.T.);
#53=ORIENTED_EDGE('',*,*,#52,.T.);
#54=CARTESIAN_POINT('',(0.0,10.0,0.0));
#55=DIRECTION('',(0.0,-1.0,0.0));
#56=VECTOR('',#55,10.0);
#57=LINE('',#54,#56);
#58=CARTESIAN_POINT('',(0.0,10.0));
#59=DIRECTION('',(0.0,-1.0));
#60=VECTOR('',#59,10.0);
#61=LINE('',#58,#60);
#62=DEFINITIONAL_REPRESENTATION('',(#61),#*);
#63=PCURVE('',#5,#62);
#64=SURFACE_CURVE('',#57,(#63),.PCURVE_S1.);
#65=EDGE_CURVE('',#13,#7,#64,.T.);
#66=ORIENTED_EDGE('',*,*,#65,.T.);
#67=EDGE_LOOP('',(#27,#40,#53,#66));
#68=GEOMETRIC_CURVE_SET('',(#67));
#9050=PRODUCT_CONTEXT('',#9000,'mechanical');
#9051=PRODUCT('Twi167','Twi167','',(#9050));
#9052=PRODUCT_DEFINITION_FORMATION('','',#9051);
#9053=PRODUCT_DEFINITION_CONTEXT('part definition',#9000,'design');
#9054=PRODUCT_DEFINITION('','','',#9052,#9053);
#9055=PRODUCT_DEFINITION_SHAPE('','','',#9054);
#9056=(LENGTH_UNIT()NAMED_UNIT(*)SI_UNIT(.MILLI.,.METRE.));
#9057=(NAMED_UNIT(*)PLANE_ANGLE_UNIT()SI_UNIT($,.RADIAN.));
#9058=(NAMED_UNIT(*)SI_UNIT($,.STERADIAN.)SOLID_ANGLE_UNIT());
#9059=UNCERTAINTY_MEASURE_WITH_UNIT(.LENGTH_MEASURE(1.0E-7).,#9056,'distance_accuracy_value','');
#9060=(GEOMETRIC_REPRESENTATION_CONTEXT(3)GLOBAL_UNCERTAINTY_ASSIGNED_CONTEXT((#9059))GLOBAL_UNIT_ASSIGNED_CONTEXT((#9056,#9057,#9058))REPRESENTATION_CONTEXT('','3D'));
#9061=MANIFOLD_SURFACE_SHAPE_REPRESENTATION('',(#68),#9060);
#9062=SHAPE_DEFINITION_REPRESENTATION(#9055,#9061);
ENDSEC;
END-ISO-10303-21;
