ISO-10303-21;
/* Twi178: GEOMETRIC_CURVE_SET containing EDGE_LOOP with 6 edges on PLANE; PLANE: normal +Z, origin (0,0,0); figure-eight wire with two symmetrically placed crossings that oscillate under repeated FixSelfIntersection: crossing A at (4,4), crossing B at (6,6); vertices: P0(0,4), P1(8,0), P2(4,8), P3(8,4), P4(0,8), P5(4,0); edges: P0->P1 (osc_cross_A), P1->P2, P2->P3 (osc_cross_B), P3->P4, P4->P5, P5->P0; osc_cross_A and osc_cross_B are the oscillating crossing pair IS the mechanism; FixSelfIntersection IS mechanism — oscillates without convergence; GEOMETRIC_CURVE_SET IS model entity — OCC yields empty; all EDGE_CURVEs ARE wired into EDGE_LOOP; never orphaned */
HEADER;
FILE_DESCRIPTION(('Twi178'),'2;1');
FILE_NAME('Twi178.stp','2026-06-17T00:00:00',(''),(''),'cad-research-suite','','');
FILE_SCHEMA(('AUTOMOTIVE_DESIGN { 1 0 10303 214 3 1 1 }'));
ENDSEC;
DATA;
#9000=APPLICATION_CONTEXT('mechanical design');
#1=CARTESIAN_POINT('',(0.0,0.0,0.0));
#2=DIRECTION('',(0.0,0.0,1.0));
#3=DIRECTION('',(1.0,0.0,0.0));
#4=AXIS2_PLACEMENT_3D('',#1,#2,#3);
#5=PLANE('',#4);
#6=CARTESIAN_POINT('',(0.0,4.0,0.0));
#7=VERTEX_POINT('',#6);
#8=CARTESIAN_POINT('',(8.0,0.0,0.0));
#9=VERTEX_POINT('',#8);
#10=CARTESIAN_POINT('',(4.0,8.0,0.0));
#11=VERTEX_POINT('',#10);
#12=CARTESIAN_POINT('',(8.0,4.0,0.0));
#13=VERTEX_POINT('',#12);
#14=CARTESIAN_POINT('',(0.0,8.0,0.0));
#15=VERTEX_POINT('',#14);
#16=CARTESIAN_POINT('',(4.0,0.0,0.0));
#17=VERTEX_POINT('',#16);
#18=CARTESIAN_POINT('',(0.0,4.0,0.0));
#19=DIRECTION('',(0.894427191,-0.4472135955,0.0));
#20=VECTOR('',#19,8.94427191);
#21=LINE('',#18,#20);
#22=CARTESIAN_POINT('',(0.0,4.0));
#23=DIRECTION('',(0.894427191,-0.4472135955));
#24=VECTOR('',#23,8.94427191);
#25=LINE('',#22,#24);
#26=DEFINITIONAL_REPRESENTATION('',(#25),#*);
#27=PCURVE('',#5,#26);
#28=SURFACE_CURVE('',#21,(#27),.PCURVE_S1.);
#29=EDGE_CURVE('osc_cross_A',#7,#9,#28,.T.);
#30=ORIENTED_EDGE('',*,*,#29,.T.);
#31=CARTESIAN_POINT('',(8.0,0.0,0.0));
#32=DIRECTION('',(-0.4472135955,0.894427191,0.0));
#33=VECTOR('',#32,8.94427191);
#34=LINE('',#31,#33);
#35=CARTESIAN_POINT('',(8.0,0.0));
#36=DIRECTION('',(-0.4472135955,0.894427191));
#37=VECTOR('',#36,8.94427191);
#38=LINE('',#35,#37);
#39=DEFINITIONAL_REPRESENTATION('',(#38),#*);
#40=PCURVE('',#5,#39);
#41=SURFACE_CURVE('',#34,(#40),.PCURVE_S1.);
#42=EDGE_CURVE('',#9,#11,#41,.T.);
#43=ORIENTED_EDGE('',*,*,#42,.T.);
#44=CARTESIAN_POINT('',(4.0,8.0,0.0));
#45=DIRECTION('',(0.707106781187,-0.707106781187,0.0));
#46=VECTOR('',#45,5.65685424949);
#47=LINE('',#44,#46);
#48=CARTESIAN_POINT('',(4.0,8.0));
#49=DIRECTION('',(0.707106781187,-0.707106781187));
#50=VECTOR('',#49,5.65685424949);
#51=LINE('',#48,#50);
#52=DEFINITIONAL_REPRESENTATION('',(#51),#*);
#53=PCURVE('',#5,#52);
#54=SURFACE_CURVE('',#47,(#53),.PCURVE_S1.);
#55=EDGE_CURVE('osc_cross_B',#11,#13,#54,.T.);
#56=ORIENTED_EDGE('',*,*,#55,.T.);
#57=CARTESIAN_POINT('',(8.0,4.0,0.0));
#58=DIRECTION('',(-0.894427191,0.4472135955,0.0));
#59=VECTOR('',#58,8.94427191);
#60=LINE('',#57,#59);
#61=CARTESIAN_POINT('',(8.0,4.0));
#62=DIRECTION('',(-0.894427191,0.4472135955));
#63=VECTOR('',#62,8.94427191);
#64=LINE('',#61,#63);
#65=DEFINITIONAL_REPRESENTATION('',(#64),#*);
#66=PCURVE('',#5,#65);
#67=SURFACE_CURVE('',#60,(#66),.PCURVE_S1.);
#68=EDGE_CURVE('',#13,#15,#67,.T.);
#69=ORIENTED_EDGE('',*,*,#68,.T.);
#70=CARTESIAN_POINT('',(0.0,8.0,0.0));
#71=DIRECTION('',(0.4472135955,-0.894427191,0.0));
#72=VECTOR('',#71,8.94427191);
#73=LINE('',#70,#72);
#74=CARTESIAN_POINT('',(0.0,8.0));
#75=DIRECTION('',(0.4472135955,-0.894427191));
#76=VECTOR('',#75,8.94427191);
#77=LINE('',#74,#76);
#78=DEFINITIONAL_REPRESENTATION('',(#77),#*);
#79=PCURVE('',#5,#78);
#80=SURFACE_CURVE('',#73,(#79),.PCURVE_S1.);
#81=EDGE_CURVE('',#15,#17,#80,.T.);
#82=ORIENTED_EDGE('',*,*,#81,.T.);
#83=CARTESIAN_POINT('',(4.0,0.0,0.0));
#84=DIRECTION('',(-0.707106781187,0.707106781187,0.0));
#85=VECTOR('',#84,5.65685424949);
#86=LINE('',#83,#85);
#87=CARTESIAN_POINT('',(4.0,0.0));
#88=DIRECTION('',(-0.707106781187,0.707106781187));
#89=VECTOR('',#88,5.65685424949);
#90=LINE('',#87,#89);
#91=DEFINITIONAL_REPRESENTATION('',(#90),#*);
#92=PCURVE('',#5,#91);
#93=SURFACE_CURVE('',#86,(#92),.PCURVE_S1.);
#94=EDGE_CURVE('',#17,#7,#93,.T.);
#95=ORIENTED_EDGE('',*,*,#94,.T.);
#96=EDGE_LOOP('',(#30,#43,#56,#69,#82,#95));
#97=GEOMETRIC_CURVE_SET('',(#96));
#9050=PRODUCT_CONTEXT('',#9000,'mechanical');
#9051=PRODUCT('Twi178','Twi178','',(#9050));
#9052=PRODUCT_DEFINITION_FORMATION('','',#9051);
#9053=PRODUCT_DEFINITION_CONTEXT('part definition',#9000,'design');
#9054=PRODUCT_DEFINITION('','','',#9052,#9053);
#9055=PRODUCT_DEFINITION_SHAPE('','','',#9054);
#9056=(LENGTH_UNIT()NAMED_UNIT(*)SI_UNIT(.MILLI.,.METRE.));
#9057=(NAMED_UNIT(*)PLANE_ANGLE_UNIT()SI_UNIT($,.RADIAN.));
#9058=(NAMED_UNIT(*)SI_UNIT($,.STERADIAN.)SOLID_ANGLE_UNIT());
#9059=UNCERTAINTY_MEASURE_WITH_UNIT(.LENGTH_MEASURE(1.0E-7).,#9056,'distance_accuracy_value','');
#9060=(GEOMETRIC_REPRESENTATION_CONTEXT(3)GLOBAL_UNCERTAINTY_ASSIGNED_CONTEXT((#9059))GLOBAL_UNIT_ASSIGNED_CONTEXT((#9056,#9057,#9058))REPRESENTATION_CONTEXT('','3D'));
#9061=MANIFOLD_SURFACE_SHAPE_REPRESENTATION('',(#97),#9060);
#9062=SHAPE_DEFINITION_REPRESENTATION(#9055,#9061);
ENDSEC;
END-ISO-10303-21;
