ISO-10303-21;
/* Twi175: GEOMETRIC_CURVE_SET containing EDGE_LOOP with 5 edges on PLANE; PLANE: normal +Z, origin (0,0,0); pentagon wire: A(0,0)→B(8,0)→C(10,6)→D(5,10)→E(-2,6)→A; edges e0..e3 are regular LINE segments; edge e4 (E→A) IS the tail edge — a B-spline with knot vector [-0.5,-0.5,0,0] giving parameter range [-0.5, 0.0] — negative lower bound IS defect; edge labelled 'tail_negative_param_range'; CheckTail IS mechanism — binary search initialized with [0, length] assumption fails when lower bound is negative (-0.5); GEOMETRIC_CURVE_SET IS model entity — OCC yields empty; all EDGE_CURVEs ARE wired into EDGE_LOOP; never orphaned */
HEADER;
FILE_DESCRIPTION(('Twi175'),'2;1');
FILE_NAME('Twi175.stp','2026-06-17T00:00:00',(''),(''),'cad-research-suite','','');
FILE_SCHEMA(('AUTOMOTIVE_DESIGN { 1 0 10303 214 3 1 1 }'));
ENDSEC;
DATA;
#9000=APPLICATION_CONTEXT('mechanical design');
#1=CARTESIAN_POINT('',(0.0,0.0,0.0));
#2=DIRECTION('',(0.0,0.0,1.0));
#3=DIRECTION('',(1.0,0.0,0.0));
#4=AXIS2_PLACEMENT_3D('',#1,#2,#3);
#5=PLANE('',#4);
#6=CARTESIAN_POINT('',(0.0,0.0,0.0));
#7=VERTEX_POINT('',#6);
#8=CARTESIAN_POINT('',(8.0,0.0,0.0));
#9=VERTEX_POINT('',#8);
#10=CARTESIAN_POINT('',(10.0,6.0,0.0));
#11=VERTEX_POINT('',#10);
#12=CARTESIAN_POINT('',(5.0,10.0,0.0));
#13=VERTEX_POINT('',#12);
#14=CARTESIAN_POINT('',(-2.0,6.0,0.0));
#15=VERTEX_POINT('',#14);
#16=CARTESIAN_POINT('',(0.0,0.0,0.0));
#17=DIRECTION('',(1.0,0.0,0.0));
#18=VECTOR('',#17,8.0);
#19=LINE('',#16,#18);
#20=CARTESIAN_POINT('',(0.0,0.0));
#21=DIRECTION('',(1.0,0.0));
#22=VECTOR('',#21,8.0);
#23=LINE('',#20,#22);
#24=DEFINITIONAL_REPRESENTATION('',(#23),#*);
#25=PCURVE('',#5,#24);
#26=SURFACE_CURVE('',#19,(#25),.PCURVE_S1.);
#27=EDGE_CURVE('',#7,#9,#26,.T.);
#28=ORIENTED_EDGE('',*,*,#27,.T.);
#29=CARTESIAN_POINT('',(8.0,0.0,0.0));
#30=DIRECTION('',(0.316227766017,0.948683298051,0.0));
#31=VECTOR('',#30,6.32455532034);
#32=LINE('',#29,#31);
#33=CARTESIAN_POINT('',(8.0,0.0));
#34=DIRECTION('',(0.316227766017,0.948683298051));
#35=VECTOR('',#34,6.32455532034);
#36=LINE('',#33,#35);
#37=DEFINITIONAL_REPRESENTATION('',(#36),#*);
#38=PCURVE('',#5,#37);
#39=SURFACE_CURVE('',#32,(#38),.PCURVE_S1.);
#40=EDGE_CURVE('',#9,#11,#39,.T.);
#41=ORIENTED_EDGE('',*,*,#40,.T.);
#42=CARTESIAN_POINT('',(10.0,6.0,0.0));
#43=DIRECTION('',(-0.780868809443,0.624695047554,0.0));
#44=VECTOR('',#43,6.40312423743);
#45=LINE('',#42,#44);
#46=CARTESIAN_POINT('',(10.0,6.0));
#47=DIRECTION('',(-0.780868809443,0.624695047554));
#48=VECTOR('',#47,6.40312423743);
#49=LINE('',#46,#48);
#50=DEFINITIONAL_REPRESENTATION('',(#49),#*);
#51=PCURVE('',#5,#50);
#52=SURFACE_CURVE('',#45,(#51),.PCURVE_S1.);
#53=EDGE_CURVE('',#11,#13,#52,.T.);
#54=ORIENTED_EDGE('',*,*,#53,.T.);
#55=CARTESIAN_POINT('',(5.0,10.0,0.0));
#56=DIRECTION('',(-0.868243142124,-0.496138938357,0.0));
#57=VECTOR('',#56,8.0622577483);
#58=LINE('',#55,#57);
#59=CARTESIAN_POINT('',(5.0,10.0));
#60=DIRECTION('',(-0.868243142124,-0.496138938357));
#61=VECTOR('',#60,8.0622577483);
#62=LINE('',#59,#61);
#63=DEFINITIONAL_REPRESENTATION('',(#62),#*);
#64=PCURVE('',#5,#63);
#65=SURFACE_CURVE('',#58,(#64),.PCURVE_S1.);
#66=EDGE_CURVE('',#13,#15,#65,.T.);
#67=ORIENTED_EDGE('',*,*,#66,.T.);
#68=CARTESIAN_POINT('',(-2.0,6.0,0.0));
#69=CARTESIAN_POINT('',(0.0,0.0,0.0));
#70=B_SPLINE_CURVE_WITH_KNOTS('tail_negative_param_range',1,(#68,#69),.UNSPECIFIED.,.F.,.F.,(2,2),(-0.5,0.0),.UNSPECIFIED.);
#71=EDGE_CURVE('tail_negative_param_range',#15,#7,#70,.T.);
#72=ORIENTED_EDGE('',*,*,#71,.T.);
#73=EDGE_LOOP('',(#28,#41,#54,#67,#72));
#74=GEOMETRIC_CURVE_SET('',(#73));
#9050=PRODUCT_CONTEXT('',#9000,'mechanical');
#9051=PRODUCT('Twi175','Twi175','',(#9050));
#9052=PRODUCT_DEFINITION_FORMATION('','',#9051);
#9053=PRODUCT_DEFINITION_CONTEXT('part definition',#9000,'design');
#9054=PRODUCT_DEFINITION('','','',#9052,#9053);
#9055=PRODUCT_DEFINITION_SHAPE('','','',#9054);
#9056=(LENGTH_UNIT()NAMED_UNIT(*)SI_UNIT(.MILLI.,.METRE.));
#9057=(NAMED_UNIT(*)PLANE_ANGLE_UNIT()SI_UNIT($,.RADIAN.));
#9058=(NAMED_UNIT(*)SI_UNIT($,.STERADIAN.)SOLID_ANGLE_UNIT());
#9059=UNCERTAINTY_MEASURE_WITH_UNIT(LENGTH_MEASURE(1.0E-7),#9056,'distance_accuracy_value','');
#9060=(GEOMETRIC_REPRESENTATION_CONTEXT(3)GLOBAL_UNCERTAINTY_ASSIGNED_CONTEXT((#9059))GLOBAL_UNIT_ASSIGNED_CONTEXT((#9056,#9057,#9058))REPRESENTATION_CONTEXT('','3D'));
#9061=MANIFOLD_SURFACE_SHAPE_REPRESENTATION('',(#74),#9060);
#9062=SHAPE_DEFINITION_REPRESENTATION(#9055,#9061);
ENDSEC;
END-ISO-10303-21;
