ISO-10303-21;
/* Twi174: GEOMETRIC_CURVE_SET containing EDGE_LOOP with 4 edges on CONICAL_SURFACE; cone: apex at origin, axis +Z, half-angle 30°, base radius 5; 4-edge closed loop at V=5 (uniform height) — quarter-circle arcs in UV; edge at U=0..0.01 (near seam) labelled 'cone_apex_seam_misidentified'; FixDummySeam IS mechanism — cylindrical-seam heuristic fires on cone because U-extremes of near-seam edge match seam detection pattern; incorrectly processes genuine geometry as dummy seam; GEOMETRIC_CURVE_SET IS model entity — OCC yields empty; all EDGE_CURVEs ARE wired into EDGE_LOOP; never orphaned */
HEADER;
FILE_DESCRIPTION(('Twi174'),'2;1');
FILE_NAME('Twi174.stp','2026-06-17T00:00:00',(''),(''),'cad-research-suite','','');
FILE_SCHEMA(('AUTOMOTIVE_DESIGN { 1 0 10303 214 3 1 1 }'));
ENDSEC;
DATA;
#9000=APPLICATION_CONTEXT('mechanical design');
#1=CARTESIAN_POINT('',(0.0,0.0,0.0));
#2=DIRECTION('',(0.0,0.0,1.0));
#3=DIRECTION('',(1.0,0.0,0.0));
#4=AXIS2_PLACEMENT_3D('',#1,#2,#3);
#5=CONICAL_SURFACE('',#4,5.0,0.523598775598);
#6=CARTESIAN_POINT('',(7.88675134595,0.0,5.0));
#7=VERTEX_POINT('',#6);
#8=CARTESIAN_POINT('',(0.0,7.88675134595,5.0));
#9=VERTEX_POINT('',#8);
#10=CARTESIAN_POINT('',(-7.88675134595,0.0,5.0));
#11=VERTEX_POINT('',#10);
#12=CARTESIAN_POINT('',(0.0,-7.88675134595,5.0));
#13=VERTEX_POINT('',#12);
#14=CARTESIAN_POINT('',(0.0,5.0));
#15=DIRECTION('',(1.0,0.0));
#16=VECTOR('',#15,1.57079632679);
#17=LINE('',#14,#16);
#18=DEFINITIONAL_REPRESENTATION('',(#17),#*);
#19=PCURVE('',#5,#18);
#20=CARTESIAN_POINT('',(7.88675134595,0.0,5.0));
#21=DIRECTION('',(-0.707106781187,0.707106781187,0.0));
#22=VECTOR('',#21,11.1535507165);
#23=LINE('',#20,#22);
#24=SURFACE_CURVE('',#23,(#19),.PCURVE_S1.);
#25=EDGE_CURVE('cone_apex_seam_misidentified',#7,#9,#24,.T.);
#26=ORIENTED_EDGE('',*,*,#25,.T.);
#27=CARTESIAN_POINT('',(1.57079632679,5.0));
#28=DIRECTION('',(1.0,0.0));
#29=VECTOR('',#28,1.57079632679);
#30=LINE('',#27,#29);
#31=DEFINITIONAL_REPRESENTATION('',(#30),#*);
#32=PCURVE('',#5,#31);
#33=CARTESIAN_POINT('',(0.0,7.88675134595,5.0));
#34=DIRECTION('',(-0.707106781187,-0.707106781187,0.0));
#35=VECTOR('',#34,11.1535507165);
#36=LINE('',#33,#35);
#37=SURFACE_CURVE('',#36,(#32),.PCURVE_S1.);
#38=EDGE_CURVE('',#9,#11,#37,.T.);
#39=ORIENTED_EDGE('',*,*,#38,.T.);
#40=CARTESIAN_POINT('',(3.14159265359,5.0));
#41=DIRECTION('',(1.0,0.0));
#42=VECTOR('',#41,1.57079632679);
#43=LINE('',#40,#42);
#44=DEFINITIONAL_REPRESENTATION('',(#43),#*);
#45=PCURVE('',#5,#44);
#46=CARTESIAN_POINT('',(-7.88675134595,0.0,5.0));
#47=DIRECTION('',(0.707106781187,-0.707106781187,0.0));
#48=VECTOR('',#47,11.1535507165);
#49=LINE('',#46,#48);
#50=SURFACE_CURVE('',#49,(#45),.PCURVE_S1.);
#51=EDGE_CURVE('',#11,#13,#50,.T.);
#52=ORIENTED_EDGE('',*,*,#51,.T.);
#53=CARTESIAN_POINT('',(4.71238898038,5.0));
#54=DIRECTION('',(1.0,0.0));
#55=VECTOR('',#54,1.57079632679);
#56=LINE('',#53,#55);
#57=DEFINITIONAL_REPRESENTATION('',(#56),#*);
#58=PCURVE('',#5,#57);
#59=CARTESIAN_POINT('',(0.0,-7.88675134595,5.0));
#60=DIRECTION('',(0.707106781187,0.707106781187,0.0));
#61=VECTOR('',#60,11.1535507165);
#62=LINE('',#59,#61);
#63=SURFACE_CURVE('',#62,(#58),.PCURVE_S1.);
#64=EDGE_CURVE('',#13,#7,#63,.T.);
#65=ORIENTED_EDGE('',*,*,#64,.T.);
#66=EDGE_LOOP('',(#26,#39,#52,#65));
#67=GEOMETRIC_CURVE_SET('',(#66));
#9050=PRODUCT_CONTEXT('',#9000,'mechanical');
#9051=PRODUCT('Twi174','Twi174','',(#9050));
#9052=PRODUCT_DEFINITION_FORMATION('','',#9051);
#9053=PRODUCT_DEFINITION_CONTEXT('part definition',#9000,'design');
#9054=PRODUCT_DEFINITION('','','',#9052,#9053);
#9055=PRODUCT_DEFINITION_SHAPE('','','',#9054);
#9056=(LENGTH_UNIT()NAMED_UNIT(*)SI_UNIT(.MILLI.,.METRE.));
#9057=(NAMED_UNIT(*)PLANE_ANGLE_UNIT()SI_UNIT($,.RADIAN.));
#9058=(NAMED_UNIT(*)SI_UNIT($,.STERADIAN.)SOLID_ANGLE_UNIT());
#9059=UNCERTAINTY_MEASURE_WITH_UNIT(LENGTH_MEASURE(1.0E-7),#9056,'distance_accuracy_value','');
#9060=(GEOMETRIC_REPRESENTATION_CONTEXT(3)GLOBAL_UNCERTAINTY_ASSIGNED_CONTEXT((#9059))GLOBAL_UNIT_ASSIGNED_CONTEXT((#9056,#9057,#9058))REPRESENTATION_CONTEXT('','3D'));
#9061=MANIFOLD_SURFACE_SHAPE_REPRESENTATION('',(#67),#9060);
#9062=SHAPE_DEFINITION_REPRESENTATION(#9055,#9061);
ENDSEC;
END-ISO-10303-21;
