ISO-10303-21;
/* Twi280: AP242 Ed.3 file: single planar 5x5 mm carrier face plus an independent PATH('interior_pocket_path',(#oe1,#oe2,#oe3,#oe4,#oe5)) (5-segment ordered ORIENTED_EDGE list) and a SUBPATH('interior_corner_segment',(#oe3,#oe4)) labelling edges 3-4 as a named sub-region of the path (AP242 Ed.3 §4.4, one of 21 new Ed.3 entities); header OID = {1 0 10303 442 4 1 4}; Ed.3 readers expose the sub-path; Ed.2 / AP214 readers produce Void transfer status on the entity — the PATH still loads but the sub-region labelling is lost (automated pocket-milling toolpath generation that keys off SUBPATH labels cannot recover it); edition-boundary drop; steptools notes_ap242e3.html; MANIFOLD_SURFACE_SHAPE_REPRESENTATION with one face — OCC yields shape(1) */
HEADER;
FILE_DESCRIPTION(('Twi280'),'2;1');
FILE_NAME('Twi280.stp','2026-06-17T00:00:00',(''),(''),'cad-research-suite','','');
FILE_SCHEMA(('AUTOMOTIVE_DESIGN { 1 0 10303 442 4 1 4 }'));
ENDSEC;
DATA;
#9000=APPLICATION_CONTEXT('mechanical design');
#1=CARTESIAN_POINT('',(0.0,0.0,0.0));
#2=DIRECTION('',(0.0,0.0,1.0));
#3=DIRECTION('',(1.0,0.0,0.0));
#4=AXIS2_PLACEMENT_3D('',#1,#2,#3);
#5=PLANE('twi280_plane',#4);
#6=CARTESIAN_POINT('',(0.0,0.0,0.0));
#7=CARTESIAN_POINT('',(5.0,0.0,0.0));
#8=CARTESIAN_POINT('',(5.0,5.0,0.0));
#9=CARTESIAN_POINT('',(0.0,5.0,0.0));
#10=VERTEX_POINT('',#6);
#11=VERTEX_POINT('',#7);
#12=VERTEX_POINT('',#8);
#13=VERTEX_POINT('',#9);
#14=DIRECTION('',(1.0,0.0,0.0));
#15=VECTOR('',#14,5.0);
#16=LINE('',#6,#15);
#17=EDGE_CURVE('',#10,#11,#16,.T.);
#18=ORIENTED_EDGE('',$,$,#17,.T.);
#19=DIRECTION('',(0.0,1.0,0.0));
#20=VECTOR('',#19,5.0);
#21=LINE('',#7,#20);
#22=EDGE_CURVE('',#11,#12,#21,.T.);
#23=ORIENTED_EDGE('',$,$,#22,.T.);
#24=DIRECTION('',(-1.0,0.0,0.0));
#25=VECTOR('',#24,5.0);
#26=LINE('',#8,#25);
#27=EDGE_CURVE('',#12,#13,#26,.T.);
#28=ORIENTED_EDGE('',$,$,#27,.T.);
#29=DIRECTION('',(0.0,-1.0,0.0));
#30=VECTOR('',#29,5.0);
#31=LINE('',#9,#30);
#32=EDGE_CURVE('',#13,#10,#31,.T.);
#33=ORIENTED_EDGE('',$,$,#32,.T.);
#34=EDGE_LOOP('',(#18,#23,#28,#33));
#35=FACE_OUTER_BOUND('',#34,.T.);
#36=ADVANCED_FACE('twi280_face',(#35),#5,.T.);
#37=OPEN_SHELL('twi280_shell',(#36));
#38=SHELL_BASED_SURFACE_MODEL('twi280_sbsm',(#37));
#9050=PRODUCT_CONTEXT('',#9000,'mechanical');
#9051=PRODUCT('Twi280','Twi280','',(#9050));
#9052=PRODUCT_DEFINITION_FORMATION('','',#9051);
#9053=PRODUCT_DEFINITION_CONTEXT('part definition',#9000,'design');
#9054=PRODUCT_DEFINITION('','','',#9052,#9053);
#9055=PRODUCT_DEFINITION_SHAPE('','','',#9054);
#9056=(LENGTH_UNIT()NAMED_UNIT(*)SI_UNIT(.MILLI.,.METRE.));
#9057=(NAMED_UNIT(*)PLANE_ANGLE_UNIT()SI_UNIT($,.RADIAN.));
#9058=(NAMED_UNIT(*)SI_UNIT($,.STERADIAN.)SOLID_ANGLE_UNIT());
#9059=UNCERTAINTY_MEASURE_WITH_UNIT(LENGTH_MEASURE(1.0E-7),#9056,'distance_accuracy_value','');
#9060=(GEOMETRIC_REPRESENTATION_CONTEXT(3)GLOBAL_UNCERTAINTY_ASSIGNED_CONTEXT((#9059))GLOBAL_UNIT_ASSIGNED_CONTEXT((#9056,#9057,#9058))REPRESENTATION_CONTEXT('','3D'));
#9061=MANIFOLD_SURFACE_SHAPE_REPRESENTATION('',(#38),#9060);
#9062=SHAPE_DEFINITION_REPRESENTATION(#9055,#9061);
#9063=CARTESIAN_POINT('',(1.0,1.0,0.0));
#9064=CARTESIAN_POINT('',(2.0,1.0,0.0));
#9065=CARTESIAN_POINT('',(3.0,1.5,0.0));
#9066=CARTESIAN_POINT('',(3.5,2.0,0.0));
#9067=CARTESIAN_POINT('',(4.0,3.0,0.0));
#9068=CARTESIAN_POINT('',(4.0,4.0,0.0));
#9069=VERTEX_POINT('',#9063);
#9070=VERTEX_POINT('',#9064);
#9071=VERTEX_POINT('',#9065);
#9072=VERTEX_POINT('',#9066);
#9073=VERTEX_POINT('',#9067);
#9074=VERTEX_POINT('',#9068);
#9075=DIRECTION('',(1.0,0.0,0.0));
#9076=VECTOR('',#9075,1.0);
#9077=LINE('',#9063,#9076);
#9078=EDGE_CURVE('twi280_pe1',#9069,#9070,#9077,.T.);
#9079=DIRECTION('',(0.894427191,0.4472135955,0.0));
#9080=VECTOR('',#9079,1.11803398875);
#9081=LINE('',#9064,#9080);
#9082=EDGE_CURVE('twi280_pe2',#9070,#9071,#9081,.T.);
#9083=DIRECTION('',(0.707106781187,0.707106781187,0.0));
#9084=VECTOR('',#9083,0.707106781187);
#9085=LINE('',#9065,#9084);
#9086=EDGE_CURVE('twi280_pe3',#9071,#9072,#9085,.T.);
#9087=DIRECTION('',(0.4472135955,0.894427191,0.0));
#9088=VECTOR('',#9087,1.11803398875);
#9089=LINE('',#9066,#9088);
#9090=EDGE_CURVE('twi280_pe4',#9072,#9073,#9089,.T.);
#9091=DIRECTION('',(0.0,1.0,0.0));
#9092=VECTOR('',#9091,1.0);
#9093=LINE('',#9067,#9092);
#9094=EDGE_CURVE('twi280_pe5',#9073,#9074,#9093,.T.);
#9095=ORIENTED_EDGE('',$,$,#9078,.T.);
#9096=ORIENTED_EDGE('',$,$,#9082,.T.);
#9097=ORIENTED_EDGE('',$,$,#9086,.T.);
#9098=ORIENTED_EDGE('',$,$,#9090,.T.);
#9099=ORIENTED_EDGE('',$,$,#9094,.T.);
#9100=PATH('interior_pocket_path',(#9095,#9096,#9097,#9098,#9099));
#9101=SUBPATH('interior_corner_segment',(#9097,#9098));
#9102=PROPERTY_DEFINITION('twi280_path','AP242 Ed.3 sub-path of pocket-milling toolpath',#9055);
#9103=REPRESENTATION('twi280_subpath_rep',(#9100,#9101),#9060);
#9104=PROPERTY_DEFINITION_REPRESENTATION(#9102,#9103);
ENDSEC;
END-ISO-10303-21;
