ISO-10303-21;
/* Twi289: OPEN_SHELL with one ADVANCED_FACE on a PLANE (regular pentagon, radius 5); FACE_OUTER_BOUND references an EDGE_LOOP of six edges — five ordinary healthy LINE-based EDGE_CURVEs forming the pentagon, plus one degenerate EDGE_CURVE spliced in at corner 2: start vertex #v2 == end vertex #v2 (same VERTEX_POINT entity), curve is a SURFACE_CURVE whose associated_geometry lists only a PCURVE — no 3D curve; the combination of same-vertex (zero 3D extent) and pcurve-only (no 3D curve) means neither a 3D curve nor a usable pcurve range IS available for this edge — this IS the mechanism; ShapeFix_Wire::FixEdgeCurves' incomplete-edge removal path must drop the degenerate edge and re-close/re-connect the wire (corner 2's two healthy neighbor edges already meet there), or reject the wire; the defective EDGE_CURVE IS wired into EDGE_LOOP, FACE_OUTER_BOUND, ADVANCED_FACE, OPEN_SHELL — never orphaned */
HEADER;
FILE_DESCRIPTION(('Twi289'),'2;1');
FILE_NAME('Twi289.stp','2026-06-17T00:00:00',(''),(''),'cad-research-suite','','');
FILE_SCHEMA(('AUTOMOTIVE_DESIGN { 1 0 10303 214 3 1 1 }'));
ENDSEC;
DATA;
#9000=APPLICATION_CONTEXT('mechanical design');
#1=CARTESIAN_POINT('',(0.0,0.0,0.0));
#2=DIRECTION('',(0.0,0.0,1.0));
#3=DIRECTION('',(1.0,0.0,0.0));
#4=AXIS2_PLACEMENT_3D('',#1,#2,#3);
#5=PLANE('',#4);
#6=CARTESIAN_POINT('',(0.0,5.0,0.0));
#7=VERTEX_POINT('',#6);
#8=CARTESIAN_POINT('',(-4.75528258148,1.54508497187,0.0));
#9=VERTEX_POINT('',#8);
#10=CARTESIAN_POINT('',(-2.93892626146,-4.04508497187,0.0));
#11=VERTEX_POINT('',#10);
#12=CARTESIAN_POINT('',(2.93892626146,-4.04508497187,0.0));
#13=VERTEX_POINT('',#12);
#14=CARTESIAN_POINT('',(4.75528258148,1.54508497187,0.0));
#15=VERTEX_POINT('',#14);
#16=(GEOMETRIC_REPRESENTATION_CONTEXT(2)PARAMETRIC_REPRESENTATION_CONTEXT() REPRESENTATION_CONTEXT('','2D'));
#17=DIRECTION('',(-0.809016994375,-0.587785252292,0.0));
#18=VECTOR('',#17,5.87785252292);
#19=CARTESIAN_POINT('',(0.0,5.0,0.0));
#20=LINE('',#19,#18);
#21=EDGE_CURVE('',#7,#9,#20,.T.);
#22=DIRECTION('',(0.309016994375,-0.951056516295,0.0));
#23=VECTOR('',#22,5.87785252292);
#24=CARTESIAN_POINT('',(-4.75528258148,1.54508497187,0.0));
#25=LINE('',#24,#23);
#26=EDGE_CURVE('',#9,#11,#25,.T.);
#27=CARTESIAN_POINT('',(-2.93892626146,-4.04508497187));
#28=DIRECTION('',(1.0,0.0));
#29=VECTOR('',#28,1.0);
#30=LINE('',#27,#29);
#31=DEFINITIONAL_REPRESENTATION('',(#30),#16);
#32=PCURVE('',#5,#31);
#33=SURFACE_CURVE('',#32,(#32),.PCURVE_S1.);
#34=EDGE_CURVE('',#11,#11,#33,.T.);
#35=DIRECTION('',(1.0,0.0,0.0));
#36=VECTOR('',#35,5.87785252292);
#37=CARTESIAN_POINT('',(-2.93892626146,-4.04508497187,0.0));
#38=LINE('',#37,#36);
#39=EDGE_CURVE('',#11,#13,#38,.T.);
#40=DIRECTION('',(0.309016994375,0.951056516295,0.0));
#41=VECTOR('',#40,5.87785252292);
#42=CARTESIAN_POINT('',(2.93892626146,-4.04508497187,0.0));
#43=LINE('',#42,#41);
#44=EDGE_CURVE('',#13,#15,#43,.T.);
#45=DIRECTION('',(-0.809016994375,0.587785252292,0.0));
#46=VECTOR('',#45,5.87785252292);
#47=CARTESIAN_POINT('',(4.75528258148,1.54508497187,0.0));
#48=LINE('',#47,#46);
#49=EDGE_CURVE('',#15,#7,#48,.T.);
#50=ORIENTED_EDGE('',$,$,#21,.T.);
#51=ORIENTED_EDGE('',$,$,#26,.T.);
#52=ORIENTED_EDGE('',$,$,#34,.T.);
#53=ORIENTED_EDGE('',$,$,#39,.T.);
#54=ORIENTED_EDGE('',$,$,#44,.T.);
#55=ORIENTED_EDGE('',$,$,#49,.T.);
#56=EDGE_LOOP('',(#50,#51,#52,#53,#54,#55));
#57=FACE_OUTER_BOUND('',#56,.T.);
#58=ADVANCED_FACE('',(#57),#5,.T.);
#59=OPEN_SHELL('',(#58));
#60=SHELL_BASED_SURFACE_MODEL('',(#59));
#9050=PRODUCT_CONTEXT('',#9000,'mechanical');
#9051=PRODUCT('Twi289','Twi289','',(#9050));
#9052=PRODUCT_DEFINITION_FORMATION('','',#9051);
#9053=PRODUCT_DEFINITION_CONTEXT('part definition',#9000,'design');
#9054=PRODUCT_DEFINITION('','','',#9052,#9053);
#9055=PRODUCT_DEFINITION_SHAPE('','','',#9054);
#9056=(LENGTH_UNIT()NAMED_UNIT(*)SI_UNIT(.MILLI.,.METRE.));
#9057=(NAMED_UNIT(*)PLANE_ANGLE_UNIT()SI_UNIT($,.RADIAN.));
#9058=(NAMED_UNIT(*)SI_UNIT($,.STERADIAN.)SOLID_ANGLE_UNIT());
#9059=UNCERTAINTY_MEASURE_WITH_UNIT(LENGTH_MEASURE(1.0E-7),#9056,'distance_accuracy_value','');
#9060=(GEOMETRIC_REPRESENTATION_CONTEXT(3)GLOBAL_UNCERTAINTY_ASSIGNED_CONTEXT((#9059))GLOBAL_UNIT_ASSIGNED_CONTEXT((#9056,#9057,#9058))REPRESENTATION_CONTEXT('','3D'));
#9061=MANIFOLD_SURFACE_SHAPE_REPRESENTATION('',(#60),#9060);
#9062=SHAPE_DEFINITION_REPRESENTATION(#9055,#9061);
ENDSEC;
END-ISO-10303-21;
