ISO-10303-21;
/* Twi279: AP242 Ed.3 file: single planar octagonal face (8 oriented edges in the EDGE_LOOP) plus a CONNECTED_EDGE_SUB_SET('c1_fillet_chain',(#e3,#e4,#e5)) grouping edges 3-5 as a semantic sub-region (labelled c1_fillet_chain — the fillet/chamfer chain); AP242 Ed.3 §4.4 (one of 21 new Ed.3 entities); header OID = {1 0 10303 442 4 1 4}; Ed.3 readers resolve the sub-grouping; Ed.2 / AP214 readers produce Void transfer status on the entity — the EDGE_LOOP still loads with all 8 edges but the semantic sub-region grouping is silently gone (CAM/inspection tools that key off the sub-region label cannot recover it); edition-boundary drop; steptools notes_ap242e3.html; MANIFOLD_SURFACE_SHAPE_REPRESENTATION with one face — OCC yields shape(1) */
HEADER;
FILE_DESCRIPTION(('Twi279'),'2;1');
FILE_NAME('Twi279.stp','2026-06-17T00:00:00',(''),(''),'cad-research-suite','','');
FILE_SCHEMA(('AUTOMOTIVE_DESIGN { 1 0 10303 442 4 1 4 }'));
ENDSEC;
DATA;
#9000=APPLICATION_CONTEXT('mechanical design');
#1=CARTESIAN_POINT('',(0.0,0.0,0.0));
#2=DIRECTION('',(0.0,0.0,1.0));
#3=DIRECTION('',(1.0,0.0,0.0));
#4=AXIS2_PLACEMENT_3D('',#1,#2,#3);
#5=PLANE('twi279_plane',#4);
#6=CARTESIAN_POINT('',(5.0,0.0,0.0));
#7=CARTESIAN_POINT('',(3.53553390593,3.53553390593,0.0));
#8=CARTESIAN_POINT('',(0.0,5.0,0.0));
#9=CARTESIAN_POINT('',(-3.53553390593,3.53553390593,0.0));
#10=CARTESIAN_POINT('',(-5.0,0.0,0.0));
#11=CARTESIAN_POINT('',(-3.53553390593,-3.53553390593,0.0));
#12=CARTESIAN_POINT('',(0.0,-5.0,0.0));
#13=CARTESIAN_POINT('',(3.53553390593,-3.53553390593,0.0));
#14=VERTEX_POINT('',#6);
#15=VERTEX_POINT('',#7);
#16=VERTEX_POINT('',#8);
#17=VERTEX_POINT('',#9);
#18=VERTEX_POINT('',#10);
#19=VERTEX_POINT('',#11);
#20=VERTEX_POINT('',#12);
#21=VERTEX_POINT('',#13);
#22=DIRECTION('',(-0.382683432365,0.923879532511,0.0));
#23=VECTOR('',#22,3.82683432365);
#24=LINE('',#6,#23);
#25=EDGE_CURVE('twi279_e1',#14,#15,#24,.T.);
#26=DIRECTION('',(-0.923879532511,0.382683432365,0.0));
#27=VECTOR('',#26,3.82683432365);
#28=LINE('',#7,#27);
#29=EDGE_CURVE('twi279_e2',#15,#16,#28,.T.);
#30=DIRECTION('',(-0.923879532511,-0.382683432365,0.0));
#31=VECTOR('',#30,3.82683432365);
#32=LINE('',#8,#31);
#33=EDGE_CURVE('twi279_e3',#16,#17,#32,.T.);
#34=DIRECTION('',(-0.382683432365,-0.923879532511,0.0));
#35=VECTOR('',#34,3.82683432365);
#36=LINE('',#9,#35);
#37=EDGE_CURVE('twi279_e4',#17,#18,#36,.T.);
#38=DIRECTION('',(0.382683432365,-0.923879532511,0.0));
#39=VECTOR('',#38,3.82683432365);
#40=LINE('',#10,#39);
#41=EDGE_CURVE('twi279_e5',#18,#19,#40,.T.);
#42=DIRECTION('',(0.923879532511,-0.382683432365,0.0));
#43=VECTOR('',#42,3.82683432365);
#44=LINE('',#11,#43);
#45=EDGE_CURVE('twi279_e6',#19,#20,#44,.T.);
#46=DIRECTION('',(0.923879532511,0.382683432365,0.0));
#47=VECTOR('',#46,3.82683432365);
#48=LINE('',#12,#47);
#49=EDGE_CURVE('twi279_e7',#20,#21,#48,.T.);
#50=DIRECTION('',(0.382683432365,0.923879532511,0.0));
#51=VECTOR('',#50,3.82683432365);
#52=LINE('',#13,#51);
#53=EDGE_CURVE('twi279_e8',#21,#14,#52,.T.);
#54=ORIENTED_EDGE('',$,$,#25,.T.);
#55=ORIENTED_EDGE('',$,$,#29,.T.);
#56=ORIENTED_EDGE('',$,$,#33,.T.);
#57=ORIENTED_EDGE('',$,$,#37,.T.);
#58=ORIENTED_EDGE('',$,$,#41,.T.);
#59=ORIENTED_EDGE('',$,$,#45,.T.);
#60=ORIENTED_EDGE('',$,$,#49,.T.);
#61=ORIENTED_EDGE('',$,$,#53,.T.);
#62=EDGE_LOOP('twi279_loop',(#54,#55,#56,#57,#58,#59,#60,#61));
#63=FACE_OUTER_BOUND('',#62,.T.);
#64=ADVANCED_FACE('twi279_face',(#63),#5,.T.);
#65=OPEN_SHELL('twi279_shell',(#64));
#66=SHELL_BASED_SURFACE_MODEL('twi279_sbsm',(#65));
#9050=PRODUCT_CONTEXT('',#9000,'mechanical');
#9051=PRODUCT('Twi279','Twi279','',(#9050));
#9052=PRODUCT_DEFINITION_FORMATION('','',#9051);
#9053=PRODUCT_DEFINITION_CONTEXT('part definition',#9000,'design');
#9054=PRODUCT_DEFINITION('','','',#9052,#9053);
#9055=PRODUCT_DEFINITION_SHAPE('','','',#9054);
#9056=(LENGTH_UNIT()NAMED_UNIT(*)SI_UNIT(.MILLI.,.METRE.));
#9057=(NAMED_UNIT(*)PLANE_ANGLE_UNIT()SI_UNIT($,.RADIAN.));
#9058=(NAMED_UNIT(*)SI_UNIT($,.STERADIAN.)SOLID_ANGLE_UNIT());
#9059=UNCERTAINTY_MEASURE_WITH_UNIT(.LENGTH_MEASURE(1.0E-7).,#9056,'distance_accuracy_value','');
#9060=(GEOMETRIC_REPRESENTATION_CONTEXT(3)GLOBAL_UNCERTAINTY_ASSIGNED_CONTEXT((#9059))GLOBAL_UNIT_ASSIGNED_CONTEXT((#9056,#9057,#9058))REPRESENTATION_CONTEXT('','3D'));
#9061=MANIFOLD_SURFACE_SHAPE_REPRESENTATION('',(#66),#9060);
#9062=SHAPE_DEFINITION_REPRESENTATION(#9055,#9061);
#9063=CONNECTED_EDGE_SUB_SET('c1_fillet_chain',(#33,#37,#41));
#9064=PROPERTY_DEFINITION('twi279_sub_set','AP242 Ed.3 connected-edge sub-set',#9055);
#9065=REPRESENTATION('twi279_sub_rep',(#9063),#9060);
#9066=PROPERTY_DEFINITION_REPRESENTATION(#9064,#9065);
ENDSEC;
END-ISO-10303-21;
