ISO-10303-21;
/* Gp152: PLANE at non-identity location: origin=(10,20,5) Z=(0,0,1) X=(0.707,0.707,0) (rotated 45deg about Z + translated); defect edge: SURFACE_CURVE; 3D B_SPLINE_CURVE_WITH_KNOTS degree-2 C-1 break at t=0.5 (CP[2]=(1.5,0,0) vs CP[3]=(3.0,0,0), 1.5-unit gap) drives shape_null; PCurve B_SPLINE_CURVE_WITH_KNOTS degree-2 endpoints in local UV frame; CheckVerticesWithPCurve line 539 projects PCurve endpoints onto surface without applying surface location transform; V1/V2 in world frame compared to local-frame projection; location_transformation_semantics; shape_null=True */
HEADER;
FILE_DESCRIPTION(('Gp152'),'2;1');
FILE_NAME('Gp152.stp','2026-06-17T00:00:00',(''),(''),'cad-research-suite','','');
FILE_SCHEMA(('AUTOMOTIVE_DESIGN { 1 0 10303 214 3 1 1 }'));
ENDSEC;
DATA;
#9000=APPLICATION_CONTEXT('mechanical design');
#1=(GEOMETRIC_REPRESENTATION_CONTEXT(2)PARAMETRIC_REPRESENTATION_CONTEXT()REPRESENTATION_CONTEXT('UV','2D'));
#2=CARTESIAN_POINT('',(10.0,20.0,5.0));
#3=DIRECTION('',(0.0,0.0,1.0));
#4=DIRECTION('',(0.707106781187,0.707106781187,0.0));
#5=AXIS2_PLACEMENT_3D('',#2,#3,#4);
#6=PLANE('',#5);
#7=CARTESIAN_POINT('',(10.0,20.0,5.0));
#8=CARTESIAN_POINT('',(13.5355339059,23.5355339059,5.0));
#9=CARTESIAN_POINT('',(12.1213203436,24.9497474683,5.0));
#10=CARTESIAN_POINT('',(8.58578643763,21.4142135624,5.0));
#11=VERTEX_POINT('',#7);
#12=VERTEX_POINT('',#8);
#13=VERTEX_POINT('',#9);
#14=VERTEX_POINT('',#10);
#15=CARTESIAN_POINT('',(13.5355339059,23.5355339059,5.0));
#16=DIRECTION('',(-0.707106781187,0.707106781187,0.0));
#17=VECTOR('',#16,2.0);
#18=LINE('',#15,#17);
#19=CARTESIAN_POINT('',(5.0,0.0));
#20=DIRECTION('',(0.0,1.0));
#21=VECTOR('',#20,2.0);
#22=LINE('',#19,#21);
#23=DEFINITIONAL_REPRESENTATION('pcdef',(#22),#1);
#24=PCURVE('pc',#6,#23);
#25=SURFACE_CURVE('sc',#18,(#24),.PCURVE_S1.);
#26=EDGE_CURVE('ec',#12,#13,#25,.T.);
#27=CARTESIAN_POINT('',(12.1213203436,24.9497474683,5.0));
#28=DIRECTION('',(-0.707106781187,-0.707106781187,0.0));
#29=VECTOR('',#28,5.0);
#30=LINE('',#27,#29);
#31=CARTESIAN_POINT('',(5.0,2.0));
#32=DIRECTION('',(-1.0,0.0));
#33=VECTOR('',#32,5.0);
#34=LINE('',#31,#33);
#35=DEFINITIONAL_REPRESENTATION('pcdef',(#34),#1);
#36=PCURVE('pc',#6,#35);
#37=SURFACE_CURVE('sc',#30,(#36),.PCURVE_S1.);
#38=EDGE_CURVE('ec',#13,#14,#37,.T.);
#39=CARTESIAN_POINT('',(8.58578643763,21.4142135624,5.0));
#40=DIRECTION('',(0.707106781187,-0.707106781187,0.0));
#41=VECTOR('',#40,2.0);
#42=LINE('',#39,#41);
#43=CARTESIAN_POINT('',(0.0,2.0));
#44=DIRECTION('',(0.0,-1.0));
#45=VECTOR('',#44,2.0);
#46=LINE('',#43,#45);
#47=DEFINITIONAL_REPRESENTATION('pcdef',(#46),#1);
#48=PCURVE('pc',#6,#47);
#49=SURFACE_CURVE('sc',#42,(#48),.PCURVE_S1.);
#50=EDGE_CURVE('ec',#14,#11,#49,.T.);
#51=CARTESIAN_POINT('',(10.0,20.0,5.0));
#52=CARTESIAN_POINT('',(11.3258252147,21.3258252147,5.0));
#53=CARTESIAN_POINT('',(11.5,21.5,5.0));
#54=CARTESIAN_POINT('',(13.0,23.0,5.0));
#55=CARTESIAN_POINT('',(12.8284271247,22.8284271247,5.0));
#56=CARTESIAN_POINT('',(13.5355339059,23.5355339059,5.0));
#57=B_SPLINE_CURVE_WITH_KNOTS('location_xform_driver',2,(#51,#52,#53,#54,#55,#56),.UNSPECIFIED.,.F.,.F.,(3,3,3),(0.0,0.5,1.0),.UNSPECIFIED.);
#58=CARTESIAN_POINT('',(0.0,0.0));
#59=CARTESIAN_POINT('',(2.5,0.0));
#60=CARTESIAN_POINT('',(5.0,0.0));
#61=B_SPLINE_CURVE_WITH_KNOTS('location_xform_pc',2,(#58,#59,#60),.UNSPECIFIED.,.F.,.F.,(3,3),(0.0,1.0),.UNSPECIFIED.);
#62=DEFINITIONAL_REPRESENTATION('location_xform_pc_def',(#61),#1);
#63=PCURVE('location_xform_pc_ent',#6,#62);
#64=SURFACE_CURVE('location_xform_sc',#57,(#63),.PCURVE_S1.);
#65=EDGE_CURVE('location_xform_edge',#11,#12,#64,.T.);
#66=ORIENTED_EDGE('',$,$,#65,.T.);
#67=ORIENTED_EDGE('',$,$,#26,.T.);
#68=ORIENTED_EDGE('',$,$,#38,.T.);
#69=ORIENTED_EDGE('',$,$,#50,.T.);
#70=EDGE_LOOP('',(#66,#67,#68,#69));
#71=FACE_OUTER_BOUND('',#70,.T.);
#72=ADVANCED_FACE('',(#71),#6,.T.);
#73=OPEN_SHELL('',(#72));
#74=SHELL_BASED_SURFACE_MODEL('',(#73));
#9050=PRODUCT_CONTEXT('',#9000,'mechanical');
#9051=PRODUCT('Gp152','Gp152','',(#9050));
#9052=PRODUCT_DEFINITION_FORMATION('','',#9051);
#9053=PRODUCT_DEFINITION_CONTEXT('part definition',#9000,'design');
#9054=PRODUCT_DEFINITION('','','',#9052,#9053);
#9055=PRODUCT_DEFINITION_SHAPE('','','',#9054);
#9056=(LENGTH_UNIT()NAMED_UNIT(*)SI_UNIT(.MILLI.,.METRE.));
#9057=(NAMED_UNIT(*)PLANE_ANGLE_UNIT()SI_UNIT($,.RADIAN.));
#9058=(NAMED_UNIT(*)SI_UNIT($,.STERADIAN.)SOLID_ANGLE_UNIT());
#9059=UNCERTAINTY_MEASURE_WITH_UNIT(.LENGTH_MEASURE(1.0E-7).,#9056,'distance_accuracy_value','');
#9060=(GEOMETRIC_REPRESENTATION_CONTEXT(3)GLOBAL_UNCERTAINTY_ASSIGNED_CONTEXT((#9059))GLOBAL_UNIT_ASSIGNED_CONTEXT((#9056,#9057,#9058))REPRESENTATION_CONTEXT('','3D'));
#9061=MANIFOLD_SURFACE_SHAPE_REPRESENTATION('',(#74),#9060);
#9062=SHAPE_DEFINITION_REPRESENTATION(#9055,#9061);
ENDSEC;
END-ISO-10303-21;
