ISO-10303-21;
/* Gp168: TOROIDAL_SURFACE major_radius=2 minor_radius=1; defect edge: SURFACE_CURVE; 3D B_SPLINE_CURVE_WITH_KNOTS degree-2 C-1 break at t=0.5 (CP[2] vs CP[3] 1.5-unit gap) drives shape_null; PCurve LINE traversing torus meridian boundary (v crosses 0/2pi): ProjectDegenerated lazy-compute cache stale at meridian seam; stale singularity data unvalidated; lazy-compute axis; shape_null=True */
HEADER;
FILE_DESCRIPTION(('Gp168'),'2;1');
FILE_NAME('Gp168.stp','2026-06-17T00:00:00',(''),(''),'cad-research-suite','','');
FILE_SCHEMA(('AUTOMOTIVE_DESIGN { 1 0 10303 214 3 1 1 }'));
ENDSEC;
DATA;
#9000=APPLICATION_CONTEXT('mechanical design');
#1=CARTESIAN_POINT('',(0.0,0.0,0.0));
#2=DIRECTION('',(0.0,0.0,1.0));
#3=DIRECTION('',(1.0,0.0,0.0));
#4=AXIS2_PLACEMENT_3D('',#1,#2,#3);
#5=TOROIDAL_SURFACE('torus_lazy_compute',#4,2.0,1.0);
#6=(GEOMETRIC_REPRESENTATION_CONTEXT(2)PARAMETRIC_REPRESENTATION_CONTEXT()REPRESENTATION_CONTEXT('UV','2D'));
#7=CARTESIAN_POINT('',(2.99500416528,0.0,-0.0998334166468));
#8=VERTEX_POINT('',#7);
#9=CARTESIAN_POINT('',(0.0,2.99500416528,-0.0998334166468));
#10=VERTEX_POINT('',#9);
#11=CARTESIAN_POINT('',(0.0,1.00499583472,0.0998334166468));
#12=VERTEX_POINT('',#11);
#13=CARTESIAN_POINT('',(1.00499583472,0.0,0.0998334166468));
#14=VERTEX_POINT('',#13);
#15=CARTESIAN_POINT('',(2.99500416528,0.0,-0.0998334166468));
#16=DIRECTION('',(-0.707106781187,0.707106781187,0.0));
#17=VECTOR('',#16,4.2355755099);
#18=LINE('',#15,#17);
#19=CARTESIAN_POINT('',(0.0,6.18318530718));
#20=DIRECTION('',(1.0,0.0));
#21=VECTOR('',#20,1.57079632679);
#22=LINE('',#19,#21);
#23=DEFINITIONAL_REPRESENTATION('pcdef',(#22),#6);
#24=PCURVE('pc',#5,#23);
#25=SURFACE_CURVE('sc',#18,(#24),.PCURVE_S1.);
#26=EDGE_CURVE('ec',#8,#10,#25,.T.);
#27=CARTESIAN_POINT('',(0.0,2.99500416528,-0.0998334166468));
#28=DIRECTION('',(0.0,-0.995004165278,0.0998334166468));
#29=VECTOR('',#28,2.0);
#30=LINE('',#27,#29);
#31=CARTESIAN_POINT('',(1.57079632679,6.18318530718));
#32=DIRECTION('',(0.0,1.0));
#33=VECTOR('',#32,3.14159265359);
#34=LINE('',#31,#33);
#35=DEFINITIONAL_REPRESENTATION('pcdef',(#34),#6);
#36=PCURVE('pc',#5,#35);
#37=SURFACE_CURVE('sc',#30,(#36),.PCURVE_S1.);
#38=EDGE_CURVE('ec',#10,#12,#37,.T.);
#39=CARTESIAN_POINT('',(0.0,1.00499583472,0.0998334166468));
#40=DIRECTION('',(0.707106781187,-0.707106781187,0.0));
#41=VECTOR('',#40,1.42127873959);
#42=LINE('',#39,#41);
#43=CARTESIAN_POINT('',(1.57079632679,9.32477796077));
#44=DIRECTION('',(-1.0,0.0));
#45=VECTOR('',#44,1.57079632679);
#46=LINE('',#43,#45);
#47=DEFINITIONAL_REPRESENTATION('pcdef',(#46),#6);
#48=PCURVE('pc',#5,#47);
#49=SURFACE_CURVE('sc',#42,(#48),.PCURVE_S1.);
#50=EDGE_CURVE('ec',#12,#14,#49,.T.);
#51=CARTESIAN_POINT('',(1.00499583472,0.0,0.0998334166468));
#52=CARTESIAN_POINT('',(1.50249791736,0.0,0.0499167083234));
#53=CARTESIAN_POINT('',(2.0,0.0,0.0));
#54=CARTESIAN_POINT('',(3.49250624792,0.0,-0.14975012497));
#55=CARTESIAN_POINT('',(2.49750208264,0.0,-0.0499167083234));
#56=CARTESIAN_POINT('',(2.99500416528,0.0,-0.0998334166468));
#57=B_SPLINE_CURVE_WITH_KNOTS('lazy_compute_empty_driver',2,(#51,#52,#53,#54,#55,#56),.UNSPECIFIED.,.F.,.F.,(3,3,3),(0.0,0.5,1.0),.UNSPECIFIED.);
#58=CARTESIAN_POINT('',(0.0,9.32477796077));
#59=DIRECTION('',(0.0,-1.0));
#60=VECTOR('',#59,3.14159265359);
#61=LINE('',#58,#60);
#62=DEFINITIONAL_REPRESENTATION('lazy_compute_pc_def',(#61),#6);
#63=PCURVE('lazy_compute_pc',#5,#62);
#64=SURFACE_CURVE('lazy_compute_sc',#57,(#63),.PCURVE_S1.);
#65=EDGE_CURVE('lazy_compute_edge',#14,#8,#64,.T.);
#66=ORIENTED_EDGE('',$,$,#26,.T.);
#67=ORIENTED_EDGE('',$,$,#38,.T.);
#68=ORIENTED_EDGE('',$,$,#50,.T.);
#69=ORIENTED_EDGE('',$,$,#65,.T.);
#70=EDGE_LOOP('',(#66,#67,#68,#69));
#71=FACE_OUTER_BOUND('',#70,.T.);
#72=ADVANCED_FACE('',(#71),#5,.T.);
#73=OPEN_SHELL('',(#72));
#74=SHELL_BASED_SURFACE_MODEL('',(#73));
#9050=PRODUCT_CONTEXT('',#9000,'mechanical');
#9051=PRODUCT('Gp168','Gp168','',(#9050));
#9052=PRODUCT_DEFINITION_FORMATION('','',#9051);
#9053=PRODUCT_DEFINITION_CONTEXT('part definition',#9000,'design');
#9054=PRODUCT_DEFINITION('','','',#9052,#9053);
#9055=PRODUCT_DEFINITION_SHAPE('','','',#9054);
#9056=(LENGTH_UNIT()NAMED_UNIT(*)SI_UNIT(.MILLI.,.METRE.));
#9057=(NAMED_UNIT(*)PLANE_ANGLE_UNIT()SI_UNIT($,.RADIAN.));
#9058=(NAMED_UNIT(*)SI_UNIT($,.STERADIAN.)SOLID_ANGLE_UNIT());
#9059=UNCERTAINTY_MEASURE_WITH_UNIT(LENGTH_MEASURE(1.0E-7),#9056,'distance_accuracy_value','');
#9060=(GEOMETRIC_REPRESENTATION_CONTEXT(3)GLOBAL_UNCERTAINTY_ASSIGNED_CONTEXT((#9059))GLOBAL_UNIT_ASSIGNED_CONTEXT((#9056,#9057,#9058))REPRESENTATION_CONTEXT('','3D'));
#9061=MANIFOLD_SURFACE_SHAPE_REPRESENTATION('',(#74),#9060);
#9062=SHAPE_DEFINITION_REPRESENTATION(#9055,#9061);
ENDSEC;
END-ISO-10303-21;
