ISO-10303-21;
/* Gp181: Unit cylinder (radius 1, height 1) as a non-periodic B_SPLINE_SURFACE_WITH_KNOTS, U/V-transposed relative to Gp013: degree 1 in U (2 height rows), degree 2 in V (9-point near-closed angular sweep). The shared seam EDGE_CURVE runs along U at v=0/v=1 (both physically angle=0) and carries two pcurves on the same non-periodic surface -- like a seam, but the surface lacks declared periodicity in V. Exercises SetVPeriodic instead of Gp013's SetUPeriodic. */
HEADER;
FILE_DESCRIPTION(('Gp181'),'2;1');
FILE_NAME('Gp181.stp','2026-06-17T00:00:00',(''),(''),'cad-research-suite','','');
FILE_SCHEMA(('AUTOMOTIVE_DESIGN { 1 0 10303 214 3 1 1 }'));
ENDSEC;
DATA;
#9000=APPLICATION_CONTEXT('mechanical design');
#1=CARTESIAN_POINT('',(1.0,0.0,0.0));
#2=CARTESIAN_POINT('',(0.707106781187,0.707106781187,0.0));
#3=CARTESIAN_POINT('',(0.0,1.0,0.0));
#4=CARTESIAN_POINT('',(-0.707106781187,0.707106781187,0.0));
#5=CARTESIAN_POINT('',(-1.0,0.0,0.0));
#6=CARTESIAN_POINT('',(-0.707106781187,-0.707106781187,0.0));
#7=CARTESIAN_POINT('',(0.0,-1.0,0.0));
#8=CARTESIAN_POINT('',(0.707106781187,-0.707106781187,0.0));
#9=CARTESIAN_POINT('',(1.0,0.0,0.0));
#10=CARTESIAN_POINT('',(1.0,0.0,1.0));
#11=CARTESIAN_POINT('',(0.707106781187,0.707106781187,1.0));
#12=CARTESIAN_POINT('',(0.0,1.0,1.0));
#13=CARTESIAN_POINT('',(-0.707106781187,0.707106781187,1.0));
#14=CARTESIAN_POINT('',(-1.0,0.0,1.0));
#15=CARTESIAN_POINT('',(-0.707106781187,-0.707106781187,1.0));
#16=CARTESIAN_POINT('',(0.0,-1.0,1.0));
#17=CARTESIAN_POINT('',(0.707106781187,-0.707106781187,1.0));
#18=CARTESIAN_POINT('',(1.0,0.0,1.0));
#19=B_SPLINE_SURFACE_WITH_KNOTS('',1,2,((#1,#2,#3,#4,#5,#6,#7,#8,#9),(#10,#11,#12,#13,#14,#15,#16,#17,#18)),.UNSPECIFIED.,.F.,.F.,.F.,(2,2),(3,1,1,1,1,1,1,3),(0.0,1.0),(0.0,0.125,0.25,0.375,0.5,0.625,0.75,1.0),.UNSPECIFIED.);
#20=CARTESIAN_POINT('',(1.0,0.0,0.0));
#21=CARTESIAN_POINT('',(1.0,0.0,1.0));
#22=VERTEX_POINT('',#20);
#23=VERTEX_POINT('',#21);
#24=(GEOMETRIC_REPRESENTATION_CONTEXT(2)PARAMETRIC_REPRESENTATION_CONTEXT()REPRESENTATION_CONTEXT('UV','2D'));
#25=DIRECTION('',(0.0,0.0,1.0));
#26=VECTOR('',#25,1.0);
#27=LINE('',#20,#26);
#28=CARTESIAN_POINT('',(0.0,0.0));
#29=DIRECTION('',(1.0,0.0));
#30=VECTOR('',#29,1.0);
#31=LINE('',#28,#30);
#32=DEFINITIONAL_REPRESENTATION('pc_v0_def',(#31),#24);
#33=PCURVE('pc_v0_bank',#19,#32);
#34=CARTESIAN_POINT('',(0.0,1.0));
#35=DIRECTION('',(1.0,0.0));
#36=VECTOR('',#35,1.0);
#37=LINE('',#34,#36);
#38=DEFINITIONAL_REPRESENTATION('pc_v1_def',(#37),#24);
#39=PCURVE('pc_v1_bank',#19,#38);
#40=SURFACE_CURVE('catia_like_seam_v',#27,(#33,#39),.PCURVE_S1.);
#41=EDGE_CURVE('seam',#22,#23,#40,.T.);
#42=CARTESIAN_POINT('',(0.0,0.0,0.0));
#43=DIRECTION('',(0.0,0.0,1.0));
#44=DIRECTION('',(1.0,0.0,0.0));
#45=AXIS2_PLACEMENT_3D('',#42,#43,#44);
#46=CIRCLE('bot_full',#45,1.0);
#47=CARTESIAN_POINT('',(0.0,0.0));
#48=DIRECTION('',(0.0,1.0));
#49=VECTOR('',#48,1.0);
#50=LINE('',#47,#49);
#51=DEFINITIONAL_REPRESENTATION('pc_bot_def',(#50),#24);
#52=PCURVE('bot_pcurve',#19,#51);
#53=SURFACE_CURVE('bot_arc',#46,(#52),.PCURVE_S1.);
#54=EDGE_CURVE('bot_arc',#22,#22,#53,.T.);
#55=CARTESIAN_POINT('',(0.0,0.0,1.0));
#56=AXIS2_PLACEMENT_3D('',#55,#43,#44);
#57=CIRCLE('top_full',#56,1.0);
#58=CARTESIAN_POINT('',(1.0,0.0));
#59=DIRECTION('',(0.0,1.0));
#60=VECTOR('',#59,1.0);
#61=LINE('',#58,#60);
#62=DEFINITIONAL_REPRESENTATION('pc_top_def',(#61),#24);
#63=PCURVE('top_pcurve',#19,#62);
#64=SURFACE_CURVE('top_arc',#57,(#63),.PCURVE_S1.);
#65=EDGE_CURVE('top_arc',#23,#23,#64,.T.);
#66=ORIENTED_EDGE('',$,$,#54,.T.);
#67=ORIENTED_EDGE('',$,$,#41,.T.);
#68=ORIENTED_EDGE('',$,$,#65,.F.);
#69=ORIENTED_EDGE('',$,$,#41,.F.);
#70=EDGE_LOOP('',(#66,#67,#68,#69));
#71=FACE_OUTER_BOUND('',#70,.T.);
#72=ADVANCED_FACE('',(#71),#19,.T.);
#73=OPEN_SHELL('',(#72));
#74=SHELL_BASED_SURFACE_MODEL('',(#73));
#9050=PRODUCT_CONTEXT('',#9000,'mechanical');
#9051=PRODUCT('Gp181','Gp181','',(#9050));
#9052=PRODUCT_DEFINITION_FORMATION('','',#9051);
#9053=PRODUCT_DEFINITION_CONTEXT('part definition',#9000,'design');
#9054=PRODUCT_DEFINITION('','','',#9052,#9053);
#9055=PRODUCT_DEFINITION_SHAPE('','','',#9054);
#9056=(LENGTH_UNIT()NAMED_UNIT(*)SI_UNIT(.MILLI.,.METRE.));
#9057=(NAMED_UNIT(*)PLANE_ANGLE_UNIT()SI_UNIT($,.RADIAN.));
#9058=(NAMED_UNIT(*)SI_UNIT($,.STERADIAN.)SOLID_ANGLE_UNIT());
#9059=UNCERTAINTY_MEASURE_WITH_UNIT(LENGTH_MEASURE(1.0E-7),#9056,'distance_accuracy_value','');
#9060=(GEOMETRIC_REPRESENTATION_CONTEXT(3)GLOBAL_UNCERTAINTY_ASSIGNED_CONTEXT((#9059))GLOBAL_UNIT_ASSIGNED_CONTEXT((#9056,#9057,#9058))REPRESENTATION_CONTEXT('','3D'));
#9061=MANIFOLD_SURFACE_SHAPE_REPRESENTATION('',(#74),#9060);
#9062=SHAPE_DEFINITION_REPRESENTATION(#9055,#9061);
ENDSEC;
END-ISO-10303-21;
