ISO-10303-21;
/* Gp190: Two ADVANCED_FACEs (face_lower v:[0,0.5], face_upper v:[0.5,1]) built on the SAME B_SPLINE_SURFACE_WITH_KNOTS (Gp013's exact non-periodic near-closed-cylinder host); EACH face independently uses its own seam-like EDGE_CURVE (face_lower_seam, face_upper_seam) twice within its OWN wire (u=0/u=1 pcurve banks) at the surface's near-closure locus -- two DIFFERENT faces, two DIFFERENT wires, sharing the same conceptual seam geometry on the same underlying surface -- IsLikeSeam's cross-wire pseudo-seam domain, distinct from Gp013/Gp181/Gp182's single-face IsSeamCurve domain; EDGE_LOOPs IS wired into FACE_OUTER_BOUND, ADVANCED_FACE, OPEN_SHELL; never orphaned */
HEADER;
FILE_DESCRIPTION(('Gp190'),'2;1');
FILE_NAME('Gp190.stp','2026-06-17T00:00:00',(''),(''),'cad-research-suite','','');
FILE_SCHEMA(('AUTOMOTIVE_DESIGN { 1 0 10303 214 3 1 1 }'));
ENDSEC;
DATA;
#9000=APPLICATION_CONTEXT('mechanical design');
#1=CARTESIAN_POINT('',(1.0,0.0,0.0));
#2=CARTESIAN_POINT('',(1.0,0.0,1.0));
#3=CARTESIAN_POINT('',(0.707106781187,0.707106781187,0.0));
#4=CARTESIAN_POINT('',(0.707106781187,0.707106781187,1.0));
#5=CARTESIAN_POINT('',(0.0,1.0,0.0));
#6=CARTESIAN_POINT('',(0.0,1.0,1.0));
#7=CARTESIAN_POINT('',(-0.707106781187,0.707106781187,0.0));
#8=CARTESIAN_POINT('',(-0.707106781187,0.707106781187,1.0));
#9=CARTESIAN_POINT('',(-1.0,0.0,0.0));
#10=CARTESIAN_POINT('',(-1.0,0.0,1.0));
#11=CARTESIAN_POINT('',(-0.707106781187,-0.707106781187,0.0));
#12=CARTESIAN_POINT('',(-0.707106781187,-0.707106781187,1.0));
#13=CARTESIAN_POINT('',(0.0,-1.0,0.0));
#14=CARTESIAN_POINT('',(0.0,-1.0,1.0));
#15=CARTESIAN_POINT('',(0.707106781187,-0.707106781187,0.0));
#16=CARTESIAN_POINT('',(0.707106781187,-0.707106781187,1.0));
#17=CARTESIAN_POINT('',(1.0,0.0,0.0));
#18=CARTESIAN_POINT('',(1.0,0.0,1.0));
#19=B_SPLINE_SURFACE_WITH_KNOTS('',2,1,((#1,#2),(#3,#4),(#5,#6),(#7,#8),(#9,#10),(#11,#12),(#13,#14),(#15,#16),(#17,#18)),.UNSPECIFIED.,.F.,.F.,.F.,(3,1,1,1,1,1,1,3),(2,2),(0.0,0.125,0.25,0.375,0.5,0.625,0.75,1.0),(0.0,1.0),.UNSPECIFIED.);
#20=(GEOMETRIC_REPRESENTATION_CONTEXT(2)PARAMETRIC_REPRESENTATION_CONTEXT()REPRESENTATION_CONTEXT('UV','2D'));
#21=CARTESIAN_POINT('',(1.0,0.0,0.0));
#22=CARTESIAN_POINT('',(1.0,0.0,0.5));
#23=VERTEX_POINT('',#21);
#24=VERTEX_POINT('',#22);
#25=DIRECTION('',(0.0,0.0,1.0));
#26=VECTOR('',#25,0.5);
#27=LINE('',#21,#26);
#28=CARTESIAN_POINT('',(0.0,0.0));
#29=DIRECTION('',(0.0,1.0));
#30=VECTOR('',#29,0.5);
#31=LINE('',#28,#30);
#32=DEFINITIONAL_REPRESENTATION('',(#31),#20);
#33=PCURVE('',#19,#32);
#34=CARTESIAN_POINT('',(1.0,0.0));
#35=DIRECTION('',(0.0,1.0));
#36=VECTOR('',#35,0.5);
#37=LINE('',#34,#36);
#38=DEFINITIONAL_REPRESENTATION('',(#37),#20);
#39=PCURVE('',#19,#38);
#40=SURFACE_CURVE('face_lower_seam',#27,(#33,#39),.PCURVE_S1.);
#41=EDGE_CURVE('face_lower_seam',#23,#24,#40,.T.);
#42=CARTESIAN_POINT('',(0.0,0.0,0.0));
#43=DIRECTION('',(0.0,0.0,1.0));
#44=DIRECTION('',(1.0,0.0,0.0));
#45=AXIS2_PLACEMENT_3D('',#42,#43,#44);
#46=CIRCLE('',#45,1.0);
#47=CARTESIAN_POINT('',(0.0,0.0));
#48=DIRECTION('',(1.0,0.0));
#49=VECTOR('',#48,1.0);
#50=LINE('',#47,#49);
#51=DEFINITIONAL_REPRESENTATION('',(#50),#20);
#52=PCURVE('',#19,#51);
#53=SURFACE_CURVE('',#46,(#52),.PCURVE_S1.);
#54=EDGE_CURVE('',#23,#23,#53,.T.);
#55=CARTESIAN_POINT('',(0.0,0.0,0.5));
#56=AXIS2_PLACEMENT_3D('',#55,#43,#44);
#57=CIRCLE('',#56,1.0);
#58=CARTESIAN_POINT('',(0.0,0.5));
#59=DIRECTION('',(1.0,0.0));
#60=VECTOR('',#59,1.0);
#61=LINE('',#58,#60);
#62=DEFINITIONAL_REPRESENTATION('',(#61),#20);
#63=PCURVE('',#19,#62);
#64=SURFACE_CURVE('',#57,(#63),.PCURVE_S1.);
#65=EDGE_CURVE('',#24,#24,#64,.T.);
#66=ORIENTED_EDGE('',$,$,#54,.T.);
#67=ORIENTED_EDGE('',$,$,#41,.T.);
#68=ORIENTED_EDGE('',$,$,#65,.F.);
#69=ORIENTED_EDGE('',$,$,#41,.F.);
#70=EDGE_LOOP('',(#66,#67,#68,#69));
#71=FACE_OUTER_BOUND('',#70,.T.);
#72=ADVANCED_FACE('',(#71),#19,.T.);
#73=CARTESIAN_POINT('',(1.0,0.0,0.5));
#74=CARTESIAN_POINT('',(1.0,0.0,1.0));
#75=VERTEX_POINT('',#73);
#76=VERTEX_POINT('',#74);
#77=DIRECTION('',(0.0,0.0,1.0));
#78=VECTOR('',#77,0.5);
#79=LINE('',#73,#78);
#80=CARTESIAN_POINT('',(0.0,0.5));
#81=DIRECTION('',(0.0,1.0));
#82=VECTOR('',#81,0.5);
#83=LINE('',#80,#82);
#84=DEFINITIONAL_REPRESENTATION('',(#83),#20);
#85=PCURVE('',#19,#84);
#86=CARTESIAN_POINT('',(1.0,0.5));
#87=DIRECTION('',(0.0,1.0));
#88=VECTOR('',#87,0.5);
#89=LINE('',#86,#88);
#90=DEFINITIONAL_REPRESENTATION('',(#89),#20);
#91=PCURVE('',#19,#90);
#92=SURFACE_CURVE('face_upper_seam',#79,(#85,#91),.PCURVE_S1.);
#93=EDGE_CURVE('face_upper_seam',#75,#76,#92,.T.);
#94=CARTESIAN_POINT('',(0.0,0.0,0.5));
#95=DIRECTION('',(0.0,0.0,1.0));
#96=DIRECTION('',(1.0,0.0,0.0));
#97=AXIS2_PLACEMENT_3D('',#94,#95,#96);
#98=CIRCLE('',#97,1.0);
#99=CARTESIAN_POINT('',(0.0,0.5));
#100=DIRECTION('',(1.0,0.0));
#101=VECTOR('',#100,1.0);
#102=LINE('',#99,#101);
#103=DEFINITIONAL_REPRESENTATION('',(#102),#20);
#104=PCURVE('',#19,#103);
#105=SURFACE_CURVE('',#98,(#104),.PCURVE_S1.);
#106=EDGE_CURVE('',#75,#75,#105,.T.);
#107=CARTESIAN_POINT('',(0.0,0.0,1.0));
#108=AXIS2_PLACEMENT_3D('',#107,#95,#96);
#109=CIRCLE('',#108,1.0);
#110=CARTESIAN_POINT('',(0.0,1.0));
#111=DIRECTION('',(1.0,0.0));
#112=VECTOR('',#111,1.0);
#113=LINE('',#110,#112);
#114=DEFINITIONAL_REPRESENTATION('',(#113),#20);
#115=PCURVE('',#19,#114);
#116=SURFACE_CURVE('',#109,(#115),.PCURVE_S1.);
#117=EDGE_CURVE('',#76,#76,#116,.T.);
#118=ORIENTED_EDGE('',$,$,#106,.T.);
#119=ORIENTED_EDGE('',$,$,#93,.T.);
#120=ORIENTED_EDGE('',$,$,#117,.F.);
#121=ORIENTED_EDGE('',$,$,#93,.F.);
#122=EDGE_LOOP('',(#118,#119,#120,#121));
#123=FACE_OUTER_BOUND('',#122,.T.);
#124=ADVANCED_FACE('',(#123),#19,.T.);
#125=OPEN_SHELL('',(#72,#124));
#126=SHELL_BASED_SURFACE_MODEL('',(#125));
#9050=PRODUCT_CONTEXT('',#9000,'mechanical');
#9051=PRODUCT('Gp190','Gp190','',(#9050));
#9052=PRODUCT_DEFINITION_FORMATION('','',#9051);
#9053=PRODUCT_DEFINITION_CONTEXT('part definition',#9000,'design');
#9054=PRODUCT_DEFINITION('','','',#9052,#9053);
#9055=PRODUCT_DEFINITION_SHAPE('','','',#9054);
#9056=(LENGTH_UNIT()NAMED_UNIT(*)SI_UNIT(.MILLI.,.METRE.));
#9057=(NAMED_UNIT(*)PLANE_ANGLE_UNIT()SI_UNIT($,.RADIAN.));
#9058=(NAMED_UNIT(*)SI_UNIT($,.STERADIAN.)SOLID_ANGLE_UNIT());
#9059=UNCERTAINTY_MEASURE_WITH_UNIT(LENGTH_MEASURE(1.0E-7),#9056,'distance_accuracy_value','');
#9060=(GEOMETRIC_REPRESENTATION_CONTEXT(3)GLOBAL_UNCERTAINTY_ASSIGNED_CONTEXT((#9059))GLOBAL_UNIT_ASSIGNED_CONTEXT((#9056,#9057,#9058))REPRESENTATION_CONTEXT('','3D'));
#9061=MANIFOLD_SURFACE_SHAPE_REPRESENTATION('',(#126),#9060);
#9062=SHAPE_DEFINITION_REPRESENTATION(#9055,#9061);
ENDSEC;
END-ISO-10303-21;
