ISO-10303-21;
/* M166: 20 thin parallel fin ADVANCED_FACEs (heatsink array) */
HEADER;
FILE_DESCRIPTION(('M166'),'2;1');
FILE_NAME('M166.stp','2026-06-17T00:00:00',(''),(''),'cad-research-suite','','');
FILE_SCHEMA(('AUTOMOTIVE_DESIGN { 1 0 10303 214 3 1 1 }'));
ENDSEC;
DATA;
#9000=APPLICATION_CONTEXT('mechanical design');
#1=CARTESIAN_POINT('',(0.0,0.0,0.0));
#2=DIRECTION('',(0.0,0.0,1.0));
#3=DIRECTION('',(1.0,0.0,0.0));
#4=AXIS2_PLACEMENT_3D('',#1,#2,#3);
#5=PLANE('',#4);
#6=CARTESIAN_POINT('',(0.0,0.0,0.0));
#7=CARTESIAN_POINT('',(0.5,0.0,0.0));
#8=CARTESIAN_POINT('',(0.5,10.0,0.0));
#9=CARTESIAN_POINT('',(0.0,10.0,0.0));
#10=VERTEX_POINT('',#6);
#11=VERTEX_POINT('',#7);
#12=VERTEX_POINT('',#8);
#13=VERTEX_POINT('',#9);
#14=DIRECTION('',(1.0,0.0,0.0));
#15=VECTOR('',#14,0.5);
#16=LINE('',#6,#15);
#17=EDGE_CURVE('',#10,#11,#16,.T.);
#18=DIRECTION('',(0.0,1.0,0.0));
#19=VECTOR('',#18,10.0);
#20=LINE('',#7,#19);
#21=EDGE_CURVE('',#11,#12,#20,.T.);
#22=DIRECTION('',(-1.0,0.0,0.0));
#23=VECTOR('',#22,0.5);
#24=LINE('',#8,#23);
#25=EDGE_CURVE('',#12,#13,#24,.T.);
#26=DIRECTION('',(0.0,-1.0,0.0));
#27=VECTOR('',#26,10.0);
#28=LINE('',#9,#27);
#29=EDGE_CURVE('',#13,#10,#28,.T.);
#30=ORIENTED_EDGE('',$,$,#17,.T.);
#31=ORIENTED_EDGE('',$,$,#21,.T.);
#32=ORIENTED_EDGE('',$,$,#25,.T.);
#33=ORIENTED_EDGE('',$,$,#29,.T.);
#34=EDGE_LOOP('',(#30,#31,#32,#33));
#35=FACE_OUTER_BOUND('',#34,.T.);
#36=ADVANCED_FACE('',(#35),#5,.T.);
#37=CARTESIAN_POINT('',(2.0,0.0,0.0));
#38=CARTESIAN_POINT('',(2.5,0.0,0.0));
#39=CARTESIAN_POINT('',(2.5,10.0,0.0));
#40=CARTESIAN_POINT('',(2.0,10.0,0.0));
#41=VERTEX_POINT('',#37);
#42=VERTEX_POINT('',#38);
#43=VERTEX_POINT('',#39);
#44=VERTEX_POINT('',#40);
#45=DIRECTION('',(1.0,0.0,0.0));
#46=VECTOR('',#45,0.5);
#47=LINE('',#37,#46);
#48=EDGE_CURVE('',#41,#42,#47,.T.);
#49=DIRECTION('',(0.0,1.0,0.0));
#50=VECTOR('',#49,10.0);
#51=LINE('',#38,#50);
#52=EDGE_CURVE('',#42,#43,#51,.T.);
#53=DIRECTION('',(-1.0,0.0,0.0));
#54=VECTOR('',#53,0.5);
#55=LINE('',#39,#54);
#56=EDGE_CURVE('',#43,#44,#55,.T.);
#57=DIRECTION('',(0.0,-1.0,0.0));
#58=VECTOR('',#57,10.0);
#59=LINE('',#40,#58);
#60=EDGE_CURVE('',#44,#41,#59,.T.);
#61=ORIENTED_EDGE('',$,$,#48,.T.);
#62=ORIENTED_EDGE('',$,$,#52,.T.);
#63=ORIENTED_EDGE('',$,$,#56,.T.);
#64=ORIENTED_EDGE('',$,$,#60,.T.);
#65=EDGE_LOOP('',(#61,#62,#63,#64));
#66=FACE_OUTER_BOUND('',#65,.T.);
#67=ADVANCED_FACE('',(#66),#5,.T.);
#68=CARTESIAN_POINT('',(4.0,0.0,0.0));
#69=CARTESIAN_POINT('',(4.5,0.0,0.0));
#70=CARTESIAN_POINT('',(4.5,10.0,0.0));
#71=CARTESIAN_POINT('',(4.0,10.0,0.0));
#72=VERTEX_POINT('',#68);
#73=VERTEX_POINT('',#69);
#74=VERTEX_POINT('',#70);
#75=VERTEX_POINT('',#71);
#76=DIRECTION('',(1.0,0.0,0.0));
#77=VECTOR('',#76,0.5);
#78=LINE('',#68,#77);
#79=EDGE_CURVE('',#72,#73,#78,.T.);
#80=DIRECTION('',(0.0,1.0,0.0));
#81=VECTOR('',#80,10.0);
#82=LINE('',#69,#81);
#83=EDGE_CURVE('',#73,#74,#82,.T.);
#84=DIRECTION('',(-1.0,0.0,0.0));
#85=VECTOR('',#84,0.5);
#86=LINE('',#70,#85);
#87=EDGE_CURVE('',#74,#75,#86,.T.);
#88=DIRECTION('',(0.0,-1.0,0.0));
#89=VECTOR('',#88,10.0);
#90=LINE('',#71,#89);
#91=EDGE_CURVE('',#75,#72,#90,.T.);
#92=ORIENTED_EDGE('',$,$,#79,.T.);
#93=ORIENTED_EDGE('',$,$,#83,.T.);
#94=ORIENTED_EDGE('',$,$,#87,.T.);
#95=ORIENTED_EDGE('',$,$,#91,.T.);
#96=EDGE_LOOP('',(#92,#93,#94,#95));
#97=FACE_OUTER_BOUND('',#96,.T.);
#98=ADVANCED_FACE('',(#97),#5,.T.);
#99=CARTESIAN_POINT('',(6.0,0.0,0.0));
#100=CARTESIAN_POINT('',(6.5,0.0,0.0));
#101=CARTESIAN_POINT('',(6.5,10.0,0.0));
#102=CARTESIAN_POINT('',(6.0,10.0,0.0));
#103=VERTEX_POINT('',#99);
#104=VERTEX_POINT('',#100);
#105=VERTEX_POINT('',#101);
#106=VERTEX_POINT('',#102);
#107=DIRECTION('',(1.0,0.0,0.0));
#108=VECTOR('',#107,0.5);
#109=LINE('',#99,#108);
#110=EDGE_CURVE('',#103,#104,#109,.T.);
#111=DIRECTION('',(0.0,1.0,0.0));
#112=VECTOR('',#111,10.0);
#113=LINE('',#100,#112);
#114=EDGE_CURVE('',#104,#105,#113,.T.);
#115=DIRECTION('',(-1.0,0.0,0.0));
#116=VECTOR('',#115,0.5);
#117=LINE('',#101,#116);
#118=EDGE_CURVE('',#105,#106,#117,.T.);
#119=DIRECTION('',(0.0,-1.0,0.0));
#120=VECTOR('',#119,10.0);
#121=LINE('',#102,#120);
#122=EDGE_CURVE('',#106,#103,#121,.T.);
#123=ORIENTED_EDGE('',$,$,#110,.T.);
#124=ORIENTED_EDGE('',$,$,#114,.T.);
#125=ORIENTED_EDGE('',$,$,#118,.T.);
#126=ORIENTED_EDGE('',$,$,#122,.T.);
#127=EDGE_LOOP('',(#123,#124,#125,#126));
#128=FACE_OUTER_BOUND('',#127,.T.);
#129=ADVANCED_FACE('',(#128),#5,.T.);
#130=CARTESIAN_POINT('',(8.0,0.0,0.0));
#131=CARTESIAN_POINT('',(8.5,0.0,0.0));
#132=CARTESIAN_POINT('',(8.5,10.0,0.0));
#133=CARTESIAN_POINT('',(8.0,10.0,0.0));
#134=VERTEX_POINT('',#130);
#135=VERTEX_POINT('',#131);
#136=VERTEX_POINT('',#132);
#137=VERTEX_POINT('',#133);
#138=DIRECTION('',(1.0,0.0,0.0));
#139=VECTOR('',#138,0.5);
#140=LINE('',#130,#139);
#141=EDGE_CURVE('',#134,#135,#140,.T.);
#142=DIRECTION('',(0.0,1.0,0.0));
#143=VECTOR('',#142,10.0);
#144=LINE('',#131,#143);
#145=EDGE_CURVE('',#135,#136,#144,.T.);
#146=DIRECTION('',(-1.0,0.0,0.0));
#147=VECTOR('',#146,0.5);
#148=LINE('',#132,#147);
#149=EDGE_CURVE('',#136,#137,#148,.T.);
#150=DIRECTION('',(0.0,-1.0,0.0));
#151=VECTOR('',#150,10.0);
#152=LINE('',#133,#151);
#153=EDGE_CURVE('',#137,#134,#152,.T.);
#154=ORIENTED_EDGE('',$,$,#141,.T.);
#155=ORIENTED_EDGE('',$,$,#145,.T.);
#156=ORIENTED_EDGE('',$,$,#149,.T.);
#157=ORIENTED_EDGE('',$,$,#153,.T.);
#158=EDGE_LOOP('',(#154,#155,#156,#157));
#159=FACE_OUTER_BOUND('',#158,.T.);
#160=ADVANCED_FACE('',(#159),#5,.T.);
#161=CARTESIAN_POINT('',(10.0,0.0,0.0));
#162=CARTESIAN_POINT('',(10.5,0.0,0.0));
#163=CARTESIAN_POINT('',(10.5,10.0,0.0));
#164=CARTESIAN_POINT('',(10.0,10.0,0.0));
#165=VERTEX_POINT('',#161);
#166=VERTEX_POINT('',#162);
#167=VERTEX_POINT('',#163);
#168=VERTEX_POINT('',#164);
#169=DIRECTION('',(1.0,0.0,0.0));
#170=VECTOR('',#169,0.5);
#171=LINE('',#161,#170);
#172=EDGE_CURVE('',#165,#166,#171,.T.);
#173=DIRECTION('',(0.0,1.0,0.0));
#174=VECTOR('',#173,10.0);
#175=LINE('',#162,#174);
#176=EDGE_CURVE('',#166,#167,#175,.T.);
#177=DIRECTION('',(-1.0,0.0,0.0));
#178=VECTOR('',#177,0.5);
#179=LINE('',#163,#178);
#180=EDGE_CURVE('',#167,#168,#179,.T.);
#181=DIRECTION('',(0.0,-1.0,0.0));
#182=VECTOR('',#181,10.0);
#183=LINE('',#164,#182);
#184=EDGE_CURVE('',#168,#165,#183,.T.);
#185=ORIENTED_EDGE('',$,$,#172,.T.);
#186=ORIENTED_EDGE('',$,$,#176,.T.);
#187=ORIENTED_EDGE('',$,$,#180,.T.);
#188=ORIENTED_EDGE('',$,$,#184,.T.);
#189=EDGE_LOOP('',(#185,#186,#187,#188));
#190=FACE_OUTER_BOUND('',#189,.T.);
#191=ADVANCED_FACE('',(#190),#5,.T.);
#192=CARTESIAN_POINT('',(12.0,0.0,0.0));
#193=CARTESIAN_POINT('',(12.5,0.0,0.0));
#194=CARTESIAN_POINT('',(12.5,10.0,0.0));
#195=CARTESIAN_POINT('',(12.0,10.0,0.0));
#196=VERTEX_POINT('',#192);
#197=VERTEX_POINT('',#193);
#198=VERTEX_POINT('',#194);
#199=VERTEX_POINT('',#195);
#200=DIRECTION('',(1.0,0.0,0.0));
#201=VECTOR('',#200,0.5);
#202=LINE('',#192,#201);
#203=EDGE_CURVE('',#196,#197,#202,.T.);
#204=DIRECTION('',(0.0,1.0,0.0));
#205=VECTOR('',#204,10.0);
#206=LINE('',#193,#205);
#207=EDGE_CURVE('',#197,#198,#206,.T.);
#208=DIRECTION('',(-1.0,0.0,0.0));
#209=VECTOR('',#208,0.5);
#210=LINE('',#194,#209);
#211=EDGE_CURVE('',#198,#199,#210,.T.);
#212=DIRECTION('',(0.0,-1.0,0.0));
#213=VECTOR('',#212,10.0);
#214=LINE('',#195,#213);
#215=EDGE_CURVE('',#199,#196,#214,.T.);
#216=ORIENTED_EDGE('',$,$,#203,.T.);
#217=ORIENTED_EDGE('',$,$,#207,.T.);
#218=ORIENTED_EDGE('',$,$,#211,.T.);
#219=ORIENTED_EDGE('',$,$,#215,.T.);
#220=EDGE_LOOP('',(#216,#217,#218,#219));
#221=FACE_OUTER_BOUND('',#220,.T.);
#222=ADVANCED_FACE('',(#221),#5,.T.);
#223=CARTESIAN_POINT('',(14.0,0.0,0.0));
#224=CARTESIAN_POINT('',(14.5,0.0,0.0));
#225=CARTESIAN_POINT('',(14.5,10.0,0.0));
#226=CARTESIAN_POINT('',(14.0,10.0,0.0));
#227=VERTEX_POINT('',#223);
#228=VERTEX_POINT('',#224);
#229=VERTEX_POINT('',#225);
#230=VERTEX_POINT('',#226);
#231=DIRECTION('',(1.0,0.0,0.0));
#232=VECTOR('',#231,0.5);
#233=LINE('',#223,#232);
#234=EDGE_CURVE('',#227,#228,#233,.T.);
#235=DIRECTION('',(0.0,1.0,0.0));
#236=VECTOR('',#235,10.0);
#237=LINE('',#224,#236);
#238=EDGE_CURVE('',#228,#229,#237,.T.);
#239=DIRECTION('',(-1.0,0.0,0.0));
#240=VECTOR('',#239,0.5);
#241=LINE('',#225,#240);
#242=EDGE_CURVE('',#229,#230,#241,.T.);
#243=DIRECTION('',(0.0,-1.0,0.0));
#244=VECTOR('',#243,10.0);
#245=LINE('',#226,#244);
#246=EDGE_CURVE('',#230,#227,#245,.T.);
#247=ORIENTED_EDGE('',$,$,#234,.T.);
#248=ORIENTED_EDGE('',$,$,#238,.T.);
#249=ORIENTED_EDGE('',$,$,#242,.T.);
#250=ORIENTED_EDGE('',$,$,#246,.T.);
#251=EDGE_LOOP('',(#247,#248,#249,#250));
#252=FACE_OUTER_BOUND('',#251,.T.);
#253=ADVANCED_FACE('',(#252),#5,.T.);
#254=CARTESIAN_POINT('',(16.0,0.0,0.0));
#255=CARTESIAN_POINT('',(16.5,0.0,0.0));
#256=CARTESIAN_POINT('',(16.5,10.0,0.0));
#257=CARTESIAN_POINT('',(16.0,10.0,0.0));
#258=VERTEX_POINT('',#254);
#259=VERTEX_POINT('',#255);
#260=VERTEX_POINT('',#256);
#261=VERTEX_POINT('',#257);
#262=DIRECTION('',(1.0,0.0,0.0));
#263=VECTOR('',#262,0.5);
#264=LINE('',#254,#263);
#265=EDGE_CURVE('',#258,#259,#264,.T.);
#266=DIRECTION('',(0.0,1.0,0.0));
#267=VECTOR('',#266,10.0);
#268=LINE('',#255,#267);
#269=EDGE_CURVE('',#259,#260,#268,.T.);
#270=DIRECTION('',(-1.0,0.0,0.0));
#271=VECTOR('',#270,0.5);
#272=LINE('',#256,#271);
#273=EDGE_CURVE('',#260,#261,#272,.T.);
#274=DIRECTION('',(0.0,-1.0,0.0));
#275=VECTOR('',#274,10.0);
#276=LINE('',#257,#275);
#277=EDGE_CURVE('',#261,#258,#276,.T.);
#278=ORIENTED_EDGE('',$,$,#265,.T.);
#279=ORIENTED_EDGE('',$,$,#269,.T.);
#280=ORIENTED_EDGE('',$,$,#273,.T.);
#281=ORIENTED_EDGE('',$,$,#277,.T.);
#282=EDGE_LOOP('',(#278,#279,#280,#281));
#283=FACE_OUTER_BOUND('',#282,.T.);
#284=ADVANCED_FACE('',(#283),#5,.T.);
#285=CARTESIAN_POINT('',(18.0,0.0,0.0));
#286=CARTESIAN_POINT('',(18.5,0.0,0.0));
#287=CARTESIAN_POINT('',(18.5,10.0,0.0));
#288=CARTESIAN_POINT('',(18.0,10.0,0.0));
#289=VERTEX_POINT('',#285);
#290=VERTEX_POINT('',#286);
#291=VERTEX_POINT('',#287);
#292=VERTEX_POINT('',#288);
#293=DIRECTION('',(1.0,0.0,0.0));
#294=VECTOR('',#293,0.5);
#295=LINE('',#285,#294);
#296=EDGE_CURVE('',#289,#290,#295,.T.);
#297=DIRECTION('',(0.0,1.0,0.0));
#298=VECTOR('',#297,10.0);
#299=LINE('',#286,#298);
#300=EDGE_CURVE('',#290,#291,#299,.T.);
#301=DIRECTION('',(-1.0,0.0,0.0));
#302=VECTOR('',#301,0.5);
#303=LINE('',#287,#302);
#304=EDGE_CURVE('',#291,#292,#303,.T.);
#305=DIRECTION('',(0.0,-1.0,0.0));
#306=VECTOR('',#305,10.0);
#307=LINE('',#288,#306);
#308=EDGE_CURVE('',#292,#289,#307,.T.);
#309=ORIENTED_EDGE('',$,$,#296,.T.);
#310=ORIENTED_EDGE('',$,$,#300,.T.);
#311=ORIENTED_EDGE('',$,$,#304,.T.);
#312=ORIENTED_EDGE('',$,$,#308,.T.);
#313=EDGE_LOOP('',(#309,#310,#311,#312));
#314=FACE_OUTER_BOUND('',#313,.T.);
#315=ADVANCED_FACE('',(#314),#5,.T.);
#316=CARTESIAN_POINT('',(20.0,0.0,0.0));
#317=CARTESIAN_POINT('',(20.5,0.0,0.0));
#318=CARTESIAN_POINT('',(20.5,10.0,0.0));
#319=CARTESIAN_POINT('',(20.0,10.0,0.0));
#320=VERTEX_POINT('',#316);
#321=VERTEX_POINT('',#317);
#322=VERTEX_POINT('',#318);
#323=VERTEX_POINT('',#319);
#324=DIRECTION('',(1.0,0.0,0.0));
#325=VECTOR('',#324,0.5);
#326=LINE('',#316,#325);
#327=EDGE_CURVE('',#320,#321,#326,.T.);
#328=DIRECTION('',(0.0,1.0,0.0));
#329=VECTOR('',#328,10.0);
#330=LINE('',#317,#329);
#331=EDGE_CURVE('',#321,#322,#330,.T.);
#332=DIRECTION('',(-1.0,0.0,0.0));
#333=VECTOR('',#332,0.5);
#334=LINE('',#318,#333);
#335=EDGE_CURVE('',#322,#323,#334,.T.);
#336=DIRECTION('',(0.0,-1.0,0.0));
#337=VECTOR('',#336,10.0);
#338=LINE('',#319,#337);
#339=EDGE_CURVE('',#323,#320,#338,.T.);
#340=ORIENTED_EDGE('',$,$,#327,.T.);
#341=ORIENTED_EDGE('',$,$,#331,.T.);
#342=ORIENTED_EDGE('',$,$,#335,.T.);
#343=ORIENTED_EDGE('',$,$,#339,.T.);
#344=EDGE_LOOP('',(#340,#341,#342,#343));
#345=FACE_OUTER_BOUND('',#344,.T.);
#346=ADVANCED_FACE('',(#345),#5,.T.);
#347=CARTESIAN_POINT('',(22.0,0.0,0.0));
#348=CARTESIAN_POINT('',(22.5,0.0,0.0));
#349=CARTESIAN_POINT('',(22.5,10.0,0.0));
#350=CARTESIAN_POINT('',(22.0,10.0,0.0));
#351=VERTEX_POINT('',#347);
#352=VERTEX_POINT('',#348);
#353=VERTEX_POINT('',#349);
#354=VERTEX_POINT('',#350);
#355=DIRECTION('',(1.0,0.0,0.0));
#356=VECTOR('',#355,0.5);
#357=LINE('',#347,#356);
#358=EDGE_CURVE('',#351,#352,#357,.T.);
#359=DIRECTION('',(0.0,1.0,0.0));
#360=VECTOR('',#359,10.0);
#361=LINE('',#348,#360);
#362=EDGE_CURVE('',#352,#353,#361,.T.);
#363=DIRECTION('',(-1.0,0.0,0.0));
#364=VECTOR('',#363,0.5);
#365=LINE('',#349,#364);
#366=EDGE_CURVE('',#353,#354,#365,.T.);
#367=DIRECTION('',(0.0,-1.0,0.0));
#368=VECTOR('',#367,10.0);
#369=LINE('',#350,#368);
#370=EDGE_CURVE('',#354,#351,#369,.T.);
#371=ORIENTED_EDGE('',$,$,#358,.T.);
#372=ORIENTED_EDGE('',$,$,#362,.T.);
#373=ORIENTED_EDGE('',$,$,#366,.T.);
#374=ORIENTED_EDGE('',$,$,#370,.T.);
#375=EDGE_LOOP('',(#371,#372,#373,#374));
#376=FACE_OUTER_BOUND('',#375,.T.);
#377=ADVANCED_FACE('',(#376),#5,.T.);
#378=CARTESIAN_POINT('',(24.0,0.0,0.0));
#379=CARTESIAN_POINT('',(24.5,0.0,0.0));
#380=CARTESIAN_POINT('',(24.5,10.0,0.0));
#381=CARTESIAN_POINT('',(24.0,10.0,0.0));
#382=VERTEX_POINT('',#378);
#383=VERTEX_POINT('',#379);
#384=VERTEX_POINT('',#380);
#385=VERTEX_POINT('',#381);
#386=DIRECTION('',(1.0,0.0,0.0));
#387=VECTOR('',#386,0.5);
#388=LINE('',#378,#387);
#389=EDGE_CURVE('',#382,#383,#388,.T.);
#390=DIRECTION('',(0.0,1.0,0.0));
#391=VECTOR('',#390,10.0);
#392=LINE('',#379,#391);
#393=EDGE_CURVE('',#383,#384,#392,.T.);
#394=DIRECTION('',(-1.0,0.0,0.0));
#395=VECTOR('',#394,0.5);
#396=LINE('',#380,#395);
#397=EDGE_CURVE('',#384,#385,#396,.T.);
#398=DIRECTION('',(0.0,-1.0,0.0));
#399=VECTOR('',#398,10.0);
#400=LINE('',#381,#399);
#401=EDGE_CURVE('',#385,#382,#400,.T.);
#402=ORIENTED_EDGE('',$,$,#389,.T.);
#403=ORIENTED_EDGE('',$,$,#393,.T.);
#404=ORIENTED_EDGE('',$,$,#397,.T.);
#405=ORIENTED_EDGE('',$,$,#401,.T.);
#406=EDGE_LOOP('',(#402,#403,#404,#405));
#407=FACE_OUTER_BOUND('',#406,.T.);
#408=ADVANCED_FACE('',(#407),#5,.T.);
#409=CARTESIAN_POINT('',(26.0,0.0,0.0));
#410=CARTESIAN_POINT('',(26.5,0.0,0.0));
#411=CARTESIAN_POINT('',(26.5,10.0,0.0));
#412=CARTESIAN_POINT('',(26.0,10.0,0.0));
#413=VERTEX_POINT('',#409);
#414=VERTEX_POINT('',#410);
#415=VERTEX_POINT('',#411);
#416=VERTEX_POINT('',#412);
#417=DIRECTION('',(1.0,0.0,0.0));
#418=VECTOR('',#417,0.5);
#419=LINE('',#409,#418);
#420=EDGE_CURVE('',#413,#414,#419,.T.);
#421=DIRECTION('',(0.0,1.0,0.0));
#422=VECTOR('',#421,10.0);
#423=LINE('',#410,#422);
#424=EDGE_CURVE('',#414,#415,#423,.T.);
#425=DIRECTION('',(-1.0,0.0,0.0));
#426=VECTOR('',#425,0.5);
#427=LINE('',#411,#426);
#428=EDGE_CURVE('',#415,#416,#427,.T.);
#429=DIRECTION('',(0.0,-1.0,0.0));
#430=VECTOR('',#429,10.0);
#431=LINE('',#412,#430);
#432=EDGE_CURVE('',#416,#413,#431,.T.);
#433=ORIENTED_EDGE('',$,$,#420,.T.);
#434=ORIENTED_EDGE('',$,$,#424,.T.);
#435=ORIENTED_EDGE('',$,$,#428,.T.);
#436=ORIENTED_EDGE('',$,$,#432,.T.);
#437=EDGE_LOOP('',(#433,#434,#435,#436));
#438=FACE_OUTER_BOUND('',#437,.T.);
#439=ADVANCED_FACE('',(#438),#5,.T.);
#440=CARTESIAN_POINT('',(28.0,0.0,0.0));
#441=CARTESIAN_POINT('',(28.5,0.0,0.0));
#442=CARTESIAN_POINT('',(28.5,10.0,0.0));
#443=CARTESIAN_POINT('',(28.0,10.0,0.0));
#444=VERTEX_POINT('',#440);
#445=VERTEX_POINT('',#441);
#446=VERTEX_POINT('',#442);
#447=VERTEX_POINT('',#443);
#448=DIRECTION('',(1.0,0.0,0.0));
#449=VECTOR('',#448,0.5);
#450=LINE('',#440,#449);
#451=EDGE_CURVE('',#444,#445,#450,.T.);
#452=DIRECTION('',(0.0,1.0,0.0));
#453=VECTOR('',#452,10.0);
#454=LINE('',#441,#453);
#455=EDGE_CURVE('',#445,#446,#454,.T.);
#456=DIRECTION('',(-1.0,0.0,0.0));
#457=VECTOR('',#456,0.5);
#458=LINE('',#442,#457);
#459=EDGE_CURVE('',#446,#447,#458,.T.);
#460=DIRECTION('',(0.0,-1.0,0.0));
#461=VECTOR('',#460,10.0);
#462=LINE('',#443,#461);
#463=EDGE_CURVE('',#447,#444,#462,.T.);
#464=ORIENTED_EDGE('',$,$,#451,.T.);
#465=ORIENTED_EDGE('',$,$,#455,.T.);
#466=ORIENTED_EDGE('',$,$,#459,.T.);
#467=ORIENTED_EDGE('',$,$,#463,.T.);
#468=EDGE_LOOP('',(#464,#465,#466,#467));
#469=FACE_OUTER_BOUND('',#468,.T.);
#470=ADVANCED_FACE('',(#469),#5,.T.);
#471=CARTESIAN_POINT('',(30.0,0.0,0.0));
#472=CARTESIAN_POINT('',(30.5,0.0,0.0));
#473=CARTESIAN_POINT('',(30.5,10.0,0.0));
#474=CARTESIAN_POINT('',(30.0,10.0,0.0));
#475=VERTEX_POINT('',#471);
#476=VERTEX_POINT('',#472);
#477=VERTEX_POINT('',#473);
#478=VERTEX_POINT('',#474);
#479=DIRECTION('',(1.0,0.0,0.0));
#480=VECTOR('',#479,0.5);
#481=LINE('',#471,#480);
#482=EDGE_CURVE('',#475,#476,#481,.T.);
#483=DIRECTION('',(0.0,1.0,0.0));
#484=VECTOR('',#483,10.0);
#485=LINE('',#472,#484);
#486=EDGE_CURVE('',#476,#477,#485,.T.);
#487=DIRECTION('',(-1.0,0.0,0.0));
#488=VECTOR('',#487,0.5);
#489=LINE('',#473,#488);
#490=EDGE_CURVE('',#477,#478,#489,.T.);
#491=DIRECTION('',(0.0,-1.0,0.0));
#492=VECTOR('',#491,10.0);
#493=LINE('',#474,#492);
#494=EDGE_CURVE('',#478,#475,#493,.T.);
#495=ORIENTED_EDGE('',$,$,#482,.T.);
#496=ORIENTED_EDGE('',$,$,#486,.T.);
#497=ORIENTED_EDGE('',$,$,#490,.T.);
#498=ORIENTED_EDGE('',$,$,#494,.T.);
#499=EDGE_LOOP('',(#495,#496,#497,#498));
#500=FACE_OUTER_BOUND('',#499,.T.);
#501=ADVANCED_FACE('',(#500),#5,.T.);
#502=CARTESIAN_POINT('',(32.0,0.0,0.0));
#503=CARTESIAN_POINT('',(32.5,0.0,0.0));
#504=CARTESIAN_POINT('',(32.5,10.0,0.0));
#505=CARTESIAN_POINT('',(32.0,10.0,0.0));
#506=VERTEX_POINT('',#502);
#507=VERTEX_POINT('',#503);
#508=VERTEX_POINT('',#504);
#509=VERTEX_POINT('',#505);
#510=DIRECTION('',(1.0,0.0,0.0));
#511=VECTOR('',#510,0.5);
#512=LINE('',#502,#511);
#513=EDGE_CURVE('',#506,#507,#512,.T.);
#514=DIRECTION('',(0.0,1.0,0.0));
#515=VECTOR('',#514,10.0);
#516=LINE('',#503,#515);
#517=EDGE_CURVE('',#507,#508,#516,.T.);
#518=DIRECTION('',(-1.0,0.0,0.0));
#519=VECTOR('',#518,0.5);
#520=LINE('',#504,#519);
#521=EDGE_CURVE('',#508,#509,#520,.T.);
#522=DIRECTION('',(0.0,-1.0,0.0));
#523=VECTOR('',#522,10.0);
#524=LINE('',#505,#523);
#525=EDGE_CURVE('',#509,#506,#524,.T.);
#526=ORIENTED_EDGE('',$,$,#513,.T.);
#527=ORIENTED_EDGE('',$,$,#517,.T.);
#528=ORIENTED_EDGE('',$,$,#521,.T.);
#529=ORIENTED_EDGE('',$,$,#525,.T.);
#530=EDGE_LOOP('',(#526,#527,#528,#529));
#531=FACE_OUTER_BOUND('',#530,.T.);
#532=ADVANCED_FACE('',(#531),#5,.T.);
#533=CARTESIAN_POINT('',(34.0,0.0,0.0));
#534=CARTESIAN_POINT('',(34.5,0.0,0.0));
#535=CARTESIAN_POINT('',(34.5,10.0,0.0));
#536=CARTESIAN_POINT('',(34.0,10.0,0.0));
#537=VERTEX_POINT('',#533);
#538=VERTEX_POINT('',#534);
#539=VERTEX_POINT('',#535);
#540=VERTEX_POINT('',#536);
#541=DIRECTION('',(1.0,0.0,0.0));
#542=VECTOR('',#541,0.5);
#543=LINE('',#533,#542);
#544=EDGE_CURVE('',#537,#538,#543,.T.);
#545=DIRECTION('',(0.0,1.0,0.0));
#546=VECTOR('',#545,10.0);
#547=LINE('',#534,#546);
#548=EDGE_CURVE('',#538,#539,#547,.T.);
#549=DIRECTION('',(-1.0,0.0,0.0));
#550=VECTOR('',#549,0.5);
#551=LINE('',#535,#550);
#552=EDGE_CURVE('',#539,#540,#551,.T.);
#553=DIRECTION('',(0.0,-1.0,0.0));
#554=VECTOR('',#553,10.0);
#555=LINE('',#536,#554);
#556=EDGE_CURVE('',#540,#537,#555,.T.);
#557=ORIENTED_EDGE('',$,$,#544,.T.);
#558=ORIENTED_EDGE('',$,$,#548,.T.);
#559=ORIENTED_EDGE('',$,$,#552,.T.);
#560=ORIENTED_EDGE('',$,$,#556,.T.);
#561=EDGE_LOOP('',(#557,#558,#559,#560));
#562=FACE_OUTER_BOUND('',#561,.T.);
#563=ADVANCED_FACE('',(#562),#5,.T.);
#564=CARTESIAN_POINT('',(36.0,0.0,0.0));
#565=CARTESIAN_POINT('',(36.5,0.0,0.0));
#566=CARTESIAN_POINT('',(36.5,10.0,0.0));
#567=CARTESIAN_POINT('',(36.0,10.0,0.0));
#568=VERTEX_POINT('',#564);
#569=VERTEX_POINT('',#565);
#570=VERTEX_POINT('',#566);
#571=VERTEX_POINT('',#567);
#572=DIRECTION('',(1.0,0.0,0.0));
#573=VECTOR('',#572,0.5);
#574=LINE('',#564,#573);
#575=EDGE_CURVE('',#568,#569,#574,.T.);
#576=DIRECTION('',(0.0,1.0,0.0));
#577=VECTOR('',#576,10.0);
#578=LINE('',#565,#577);
#579=EDGE_CURVE('',#569,#570,#578,.T.);
#580=DIRECTION('',(-1.0,0.0,0.0));
#581=VECTOR('',#580,0.5);
#582=LINE('',#566,#581);
#583=EDGE_CURVE('',#570,#571,#582,.T.);
#584=DIRECTION('',(0.0,-1.0,0.0));
#585=VECTOR('',#584,10.0);
#586=LINE('',#567,#585);
#587=EDGE_CURVE('',#571,#568,#586,.T.);
#588=ORIENTED_EDGE('',$,$,#575,.T.);
#589=ORIENTED_EDGE('',$,$,#579,.T.);
#590=ORIENTED_EDGE('',$,$,#583,.T.);
#591=ORIENTED_EDGE('',$,$,#587,.T.);
#592=EDGE_LOOP('',(#588,#589,#590,#591));
#593=FACE_OUTER_BOUND('',#592,.T.);
#594=ADVANCED_FACE('',(#593),#5,.T.);
#595=CARTESIAN_POINT('',(38.0,0.0,0.0));
#596=CARTESIAN_POINT('',(38.5,0.0,0.0));
#597=CARTESIAN_POINT('',(38.5,10.0,0.0));
#598=CARTESIAN_POINT('',(38.0,10.0,0.0));
#599=VERTEX_POINT('',#595);
#600=VERTEX_POINT('',#596);
#601=VERTEX_POINT('',#597);
#602=VERTEX_POINT('',#598);
#603=DIRECTION('',(1.0,0.0,0.0));
#604=VECTOR('',#603,0.5);
#605=LINE('',#595,#604);
#606=EDGE_CURVE('',#599,#600,#605,.T.);
#607=DIRECTION('',(0.0,1.0,0.0));
#608=VECTOR('',#607,10.0);
#609=LINE('',#596,#608);
#610=EDGE_CURVE('',#600,#601,#609,.T.);
#611=DIRECTION('',(-1.0,0.0,0.0));
#612=VECTOR('',#611,0.5);
#613=LINE('',#597,#612);
#614=EDGE_CURVE('',#601,#602,#613,.T.);
#615=DIRECTION('',(0.0,-1.0,0.0));
#616=VECTOR('',#615,10.0);
#617=LINE('',#598,#616);
#618=EDGE_CURVE('',#602,#599,#617,.T.);
#619=ORIENTED_EDGE('',$,$,#606,.T.);
#620=ORIENTED_EDGE('',$,$,#610,.T.);
#621=ORIENTED_EDGE('',$,$,#614,.T.);
#622=ORIENTED_EDGE('',$,$,#618,.T.);
#623=EDGE_LOOP('',(#619,#620,#621,#622));
#624=FACE_OUTER_BOUND('',#623,.T.);
#625=ADVANCED_FACE('',(#624),#5,.T.);
#626=OPEN_SHELL('',(#36,#67,#98,#129,#160,#191,#222,#253,#284,#315,#346,#377,#408,#439,#470,#501,#532,#563,#594,#625));
#627=SHELL_BASED_SURFACE_MODEL('',(#626));
#9050=PRODUCT_CONTEXT('',#9000,'mechanical');
#9051=PRODUCT('M166','M166','',(#9050));
#9052=PRODUCT_DEFINITION_FORMATION('','',#9051);
#9053=PRODUCT_DEFINITION_CONTEXT('part definition',#9000,'design');
#9054=PRODUCT_DEFINITION('','','',#9052,#9053);
#9055=PRODUCT_DEFINITION_SHAPE('','','',#9054);
#9056=(LENGTH_UNIT()NAMED_UNIT(*)SI_UNIT(.MILLI.,.METRE.));
#9057=(NAMED_UNIT(*)PLANE_ANGLE_UNIT()SI_UNIT($,.RADIAN.));
#9058=(NAMED_UNIT(*)SI_UNIT($,.STERADIAN.)SOLID_ANGLE_UNIT());
#9059=UNCERTAINTY_MEASURE_WITH_UNIT(LENGTH_MEASURE(1.0E-7),#9056,'distance_accuracy_value','');
#9060=(GEOMETRIC_REPRESENTATION_CONTEXT(3)GLOBAL_UNCERTAINTY_ASSIGNED_CONTEXT((#9059))GLOBAL_UNIT_ASSIGNED_CONTEXT((#9056,#9057,#9058))REPRESENTATION_CONTEXT('','3D'));
#9061=MANIFOLD_SURFACE_SHAPE_REPRESENTATION('',(#627),#9060);
#9062=SHAPE_DEFINITION_REPRESENTATION(#9055,#9061);
ENDSEC;
END-ISO-10303-21;
