ISO-10303-21;
/* Os005: OPEN_SHELL with two adjacent ADVANCED_FACEs sharing one edge; face A: XY plane 10x8; face B: steeply-tilted (80-degree dihedral) plane sharing the bottom edge of A; offset distances large enough that offset surfaces miss each other — BRepOffset_MakeOffset CannotTrimEdges; OCC heals/loads; conservative kernels must reject */
HEADER;
FILE_DESCRIPTION(('Os005'),'2;1');
FILE_NAME('Os005.stp','2026-06-17T00:00:00',(''),(''),'cad-research-suite','','');
FILE_SCHEMA(('AUTOMOTIVE_DESIGN { 1 0 10303 214 3 1 1 }'));
ENDSEC;
DATA;
#9000=APPLICATION_CONTEXT('mechanical design');
#1=CARTESIAN_POINT('',(0.0,0.0,0.0));
#2=VERTEX_POINT('',#1);
#3=CARTESIAN_POINT('',(10.0,0.0,0.0));
#4=VERTEX_POINT('',#3);
#5=CARTESIAN_POINT('',(10.0,8.0,0.0));
#6=VERTEX_POINT('',#5);
#7=CARTESIAN_POINT('',(0.0,8.0,0.0));
#8=VERTEX_POINT('',#7);
#9=CARTESIAN_POINT('',(11.7364817767,0.0,9.84807753012));
#10=VERTEX_POINT('',#9);
#11=CARTESIAN_POINT('',(11.7364817767,8.0,9.84807753012));
#12=VERTEX_POINT('',#11);
#13=DIRECTION('',(1,0,0));
#14=VECTOR('',#13,10.0);
#15=LINE('',#1,#14);
#16=EDGE_CURVE('',#2,#4,#15,.T.);
#17=DIRECTION('',(0,1,0));
#18=VECTOR('',#17,8.0);
#19=LINE('',#3,#18);
#20=EDGE_CURVE('',#4,#6,#19,.T.);
#21=DIRECTION('',(1,0,0));
#22=VECTOR('',#21,10.0);
#23=LINE('',#7,#22);
#24=EDGE_CURVE('',#8,#6,#23,.T.);
#25=DIRECTION('',(0,1,0));
#26=VECTOR('',#25,8.0);
#27=LINE('',#1,#26);
#28=EDGE_CURVE('',#2,#8,#27,.T.);
#29=ORIENTED_EDGE('',$,$,#16,.T.);
#30=ORIENTED_EDGE('',$,$,#20,.T.);
#31=ORIENTED_EDGE('',$,$,#24,.F.);
#32=ORIENTED_EDGE('',$,$,#28,.F.);
#33=EDGE_LOOP('',(#29,#30,#31,#32));
#34=FACE_OUTER_BOUND('',#33,.T.);
#35=CARTESIAN_POINT('',(0.0,0.0,0.0));
#36=DIRECTION('',(0.0,0.0,1.0));
#37=DIRECTION('',(1.0,0.0,0.0));
#38=AXIS2_PLACEMENT_3D('',#35,#36,#37);
#39=PLANE('',#38);
#40=ADVANCED_FACE('',(#34),#39,.T.);
#41=DIRECTION('',(0.173648177667,0,0.984807753012));
#42=VECTOR('',#41,10.0);
#43=LINE('',#3,#42);
#44=EDGE_CURVE('',#4,#10,#43,.T.);
#45=DIRECTION('',(0,1,0));
#46=VECTOR('',#45,8.0);
#47=LINE('',#9,#46);
#48=EDGE_CURVE('',#10,#12,#47,.T.);
#49=DIRECTION('',(0.173648177667,0,0.984807753012));
#50=VECTOR('',#49,10.0);
#51=LINE('',#5,#50);
#52=EDGE_CURVE('',#6,#12,#51,.T.);
#53=ORIENTED_EDGE('',$,$,#20,.F.);
#54=ORIENTED_EDGE('',$,$,#44,.T.);
#55=ORIENTED_EDGE('',$,$,#48,.T.);
#56=ORIENTED_EDGE('',$,$,#52,.F.);
#57=EDGE_LOOP('',(#53,#54,#55,#56));
#58=FACE_OUTER_BOUND('',#57,.T.);
#59=CARTESIAN_POINT('',(10.0,0.0,0.0));
#60=DIRECTION('',(-0.984807753012,0.0,0.173648177667));
#61=DIRECTION('',(0.173648177667,0.0,0.984807753012));
#62=AXIS2_PLACEMENT_3D('',#59,#60,#61);
#63=PLANE('',#62);
#64=ADVANCED_FACE('',(#58),#63,.T.);
#65=OPEN_SHELL('os005_tilted',(#40,#64));
#66=SHELL_BASED_SURFACE_MODEL('os005_sbsm',(#65));
#9050=PRODUCT_CONTEXT('',#9000,'mechanical');
#9051=PRODUCT('Os005','Os005','',(#9050));
#9052=PRODUCT_DEFINITION_FORMATION('','',#9051);
#9053=PRODUCT_DEFINITION_CONTEXT('part definition',#9000,'design');
#9054=PRODUCT_DEFINITION('','','',#9052,#9053);
#9055=PRODUCT_DEFINITION_SHAPE('','','',#9054);
#9056=(LENGTH_UNIT()NAMED_UNIT(*)SI_UNIT(.MILLI.,.METRE.));
#9057=(NAMED_UNIT(*)PLANE_ANGLE_UNIT()SI_UNIT($,.RADIAN.));
#9058=(NAMED_UNIT(*)SI_UNIT($,.STERADIAN.)SOLID_ANGLE_UNIT());
#9059=UNCERTAINTY_MEASURE_WITH_UNIT(.LENGTH_MEASURE(1.0E-7).,#9056,'distance_accuracy_value','');
#9060=(GEOMETRIC_REPRESENTATION_CONTEXT(3)GLOBAL_UNCERTAINTY_ASSIGNED_CONTEXT((#9059))GLOBAL_UNIT_ASSIGNED_CONTEXT((#9056,#9057,#9058))REPRESENTATION_CONTEXT('','3D'));
#9061=MANIFOLD_SURFACE_SHAPE_REPRESENTATION('',(#66),#9060);
#9062=SHAPE_DEFINITION_REPRESENTATION(#9055,#9061);
ENDSEC;
END-ISO-10303-21;
