{
  "asset": { "version": "2.0", "generator": "Ip012 assimp#5683 accessor componentType/data-layout mismatch" },
  "scene": 0,
  "scenes": [ { "nodes": [ 0 ] } ],
  "nodes": [ { "mesh": 0 } ],
  "meshes": [
    { "primitives": [ { "attributes": { "POSITION": 0 }, "mode": 4 } ] }
  ],
  "accessors": [
    {
      "bufferView": 0,
      "componentType": 5121,
      "count": 3,
      "type": "VEC3",
      "min": [ 0.0, 0.0, 0.0 ],
      "max": [ 1.0, 1.0, 0.0 ]
    }
  ],
  "bufferViews": [
    { "buffer": 0, "byteOffset": 0, "byteLength": 36 }
  ],
  "buffers": [
    { "byteLength": 36, "uri": "data:application/octet-stream;base64," }
  ]
}
