ISO-10303-21;
/* Pmi087 - GEOMETRIC_VALIDATION_PROPERTY claimed volume disagrees with geometry
 * Defect: a 10x10x10 mm cube has actual volume 1000 mm^3. The fixture
 * emits a validation property claiming VOLUME_MEASURE(500.0) -- half the
 * computed value. The validation property exists exactly to detect this
 * round-trip drift; receivers must surface the disagreement. */
HEADER;
FILE_DESCRIPTION(('Pmi087 - validation property volume mismatch'),'2;1');
FILE_NAME('Pmi087.stp','2026-04-30T00:00:00',(''),(''),'cad-research-suite','','');
FILE_SCHEMA(('AP242_MANAGED_MODEL_BASED_3D_ENGINEERING_MIM_LF { 1 0 10303 442 1 1 4 }'));
ENDSEC;
DATA;
#1=APPLICATION_CONTEXT('managed model based 3d engineering');
#2=PRODUCT_CONTEXT('part',#1,'mechanical');
#3=PRODUCT('Pmi087','cube_with_wrong_volume','',(#2));
#4=PRODUCT_DEFINITION_FORMATION('','',#3);
#5=PRODUCT_DEFINITION_CONTEXT('',#1,'design');
#6=PRODUCT_DEFINITION('','',#4,#5);
#7=PRODUCT_DEFINITION_SHAPE('','',#6);
#10=(LENGTH_UNIT()NAMED_UNIT(*)SI_UNIT(.MILLI.,.METRE.));
#11=(NAMED_UNIT(*)PLANE_ANGLE_UNIT()SI_UNIT($,.RADIAN.));
#12=(NAMED_UNIT(*)SI_UNIT($,.STERADIAN.)SOLID_ANGLE_UNIT());
#13=UNCERTAINTY_MEASURE_WITH_UNIT(LENGTH_MEASURE(0.001),#10,'tol','');
#14=(GEOMETRIC_REPRESENTATION_CONTEXT(3) GLOBAL_UNCERTAINTY_ASSIGNED_CONTEXT((#13)) GLOBAL_UNIT_ASSIGNED_CONTEXT((#10,#11,#12)) REPRESENTATION_CONTEXT('','3D'));
/* Real 10x10x10 mm cube: 8 vertices, 12 edges, 6 planar faces. */
#100=CARTESIAN_POINT('',(0.0,0.0,0.0));
#101=CARTESIAN_POINT('',(10.0,0.0,0.0));
#102=CARTESIAN_POINT('',(10.0,10.0,0.0));
#103=CARTESIAN_POINT('',(0.0,10.0,0.0));
#104=CARTESIAN_POINT('',(0.0,0.0,10.0));
#105=CARTESIAN_POINT('',(10.0,0.0,10.0));
#106=CARTESIAN_POINT('',(10.0,10.0,10.0));
#107=CARTESIAN_POINT('',(0.0,10.0,10.0));
#110=VERTEX_POINT('',#100); #111=VERTEX_POINT('',#101);
#112=VERTEX_POINT('',#102); #113=VERTEX_POINT('',#103);
#114=VERTEX_POINT('',#104); #115=VERTEX_POINT('',#105);
#116=VERTEX_POINT('',#106); #117=VERTEX_POINT('',#107);
#200=DIRECTION('',(0.0,0.0,1.0)); #201=DIRECTION('',(1.0,0.0,0.0));
#202=DIRECTION('',(0.0,0.0,-1.0));
#203=DIRECTION('',(0.0,-1.0,0.0)); #204=DIRECTION('',(0.0,1.0,0.0));
#205=DIRECTION('',(-1.0,0.0,0.0)); #206=DIRECTION('',(1.0,0.0,0.0));
#210=CARTESIAN_POINT('',(5.0,5.0,0.0));
#211=AXIS2_PLACEMENT_3D('',#210,#202,#201); #212=PLANE('',#211);
#220=CARTESIAN_POINT('',(5.0,5.0,10.0));
#221=AXIS2_PLACEMENT_3D('',#220,#200,#201); #222=PLANE('',#221);
#230=CARTESIAN_POINT('',(5.0,0.0,5.0));
#231=AXIS2_PLACEMENT_3D('',#230,#203,#201); #232=PLANE('',#231);
#240=CARTESIAN_POINT('',(5.0,10.0,5.0));
#241=AXIS2_PLACEMENT_3D('',#240,#204,#201); #242=PLANE('',#241);
#250=CARTESIAN_POINT('',(0.0,5.0,5.0));
#251=AXIS2_PLACEMENT_3D('',#250,#205,#204); #252=PLANE('',#251);
#260=CARTESIAN_POINT('',(10.0,5.0,5.0));
#261=AXIS2_PLACEMENT_3D('',#260,#206,#204); #262=PLANE('',#261);
#300=DIRECTION('',(1.0,0.0,0.0)); #301=VECTOR('',#300,10.0);
#302=DIRECTION('',(0.0,1.0,0.0)); #303=VECTOR('',#302,10.0);
#304=DIRECTION('',(0.0,0.0,1.0)); #305=VECTOR('',#304,10.0);
#310=LINE('',#100,#301); #311=EDGE_CURVE('',#110,#111,#310,.T.);
#312=LINE('',#101,#303); #313=EDGE_CURVE('',#111,#112,#312,.T.);
#314=LINE('',#103,#301); #315=EDGE_CURVE('',#113,#112,#314,.T.);
#316=LINE('',#100,#303); #317=EDGE_CURVE('',#110,#113,#316,.T.);
#318=LINE('',#104,#301); #319=EDGE_CURVE('',#114,#115,#318,.T.);
#320=LINE('',#105,#303); #321=EDGE_CURVE('',#115,#116,#320,.T.);
#322=LINE('',#107,#301); #323=EDGE_CURVE('',#117,#116,#322,.T.);
#324=LINE('',#104,#303); #325=EDGE_CURVE('',#114,#117,#324,.T.);
#326=LINE('',#100,#305); #327=EDGE_CURVE('',#110,#114,#326,.T.);
#328=LINE('',#101,#305); #329=EDGE_CURVE('',#111,#115,#328,.T.);
#330=LINE('',#102,#305); #331=EDGE_CURVE('',#112,#116,#330,.T.);
#332=LINE('',#103,#305); #333=EDGE_CURVE('',#113,#117,#332,.T.);
#400=ORIENTED_EDGE('',*,*,#311,.T.); #401=ORIENTED_EDGE('',*,*,#313,.T.);
#402=ORIENTED_EDGE('',*,*,#315,.F.); #403=ORIENTED_EDGE('',*,*,#317,.F.);
#404=EDGE_LOOP('',(#400,#401,#402,#403));
#405=FACE_OUTER_BOUND('',#404,.T.);
#406=ADVANCED_FACE('bot',(#405),#212,.T.);
#410=ORIENTED_EDGE('',*,*,#319,.T.); #411=ORIENTED_EDGE('',*,*,#321,.T.);
#412=ORIENTED_EDGE('',*,*,#323,.F.); #413=ORIENTED_EDGE('',*,*,#325,.F.);
#414=EDGE_LOOP('',(#410,#411,#412,#413));
#415=FACE_OUTER_BOUND('',#414,.T.);
#416=ADVANCED_FACE('top',(#415),#222,.T.);
#420=ORIENTED_EDGE('',*,*,#311,.T.); #421=ORIENTED_EDGE('',*,*,#329,.T.);
#422=ORIENTED_EDGE('',*,*,#319,.F.); #423=ORIENTED_EDGE('',*,*,#327,.F.);
#424=EDGE_LOOP('',(#420,#421,#422,#423));
#425=FACE_OUTER_BOUND('',#424,.T.);
#426=ADVANCED_FACE('front',(#425),#232,.T.);
#430=ORIENTED_EDGE('',*,*,#315,.T.); #431=ORIENTED_EDGE('',*,*,#331,.T.);
#432=ORIENTED_EDGE('',*,*,#323,.F.); #433=ORIENTED_EDGE('',*,*,#333,.F.);
#434=EDGE_LOOP('',(#430,#431,#432,#433));
#435=FACE_OUTER_BOUND('',#434,.T.);
#436=ADVANCED_FACE('back',(#435),#242,.T.);
#440=ORIENTED_EDGE('',*,*,#317,.T.); #441=ORIENTED_EDGE('',*,*,#333,.T.);
#442=ORIENTED_EDGE('',*,*,#325,.F.); #443=ORIENTED_EDGE('',*,*,#327,.F.);
#444=EDGE_LOOP('',(#440,#441,#442,#443));
#445=FACE_OUTER_BOUND('',#444,.T.);
#446=ADVANCED_FACE('left',(#445),#252,.T.);
#450=ORIENTED_EDGE('',*,*,#313,.T.); #451=ORIENTED_EDGE('',*,*,#331,.T.);
#452=ORIENTED_EDGE('',*,*,#321,.F.); #453=ORIENTED_EDGE('',*,*,#329,.F.);
#454=EDGE_LOOP('',(#450,#451,#452,#453));
#455=FACE_OUTER_BOUND('',#454,.T.);
#456=ADVANCED_FACE('right',(#455),#262,.T.);
#500=CLOSED_SHELL('cube_skin',(#406,#416,#426,#436,#446,#456));
#501=MANIFOLD_SOLID_BREP('cube_body',#500);
#502=AXIS2_PLACEMENT_3D('',#100,#200,#201);
#503=ADVANCED_BREP_SHAPE_REPRESENTATION('shape',(#501,#502),#14);
#504=SHAPE_DEFINITION_REPRESENTATION(#7,#503);
/* Defect: claimed volume 500 mm^3, actual cube volume 1000 mm^3. */
#600=PROPERTY_DEFINITION('geometric_validation','volume_validation',#7);
#601=MEASURE_REPRESENTATION_ITEM('volume',VOLUME_MEASURE(500.0),#10);
#602=REPRESENTATION('claimed_volume',(#601),#14);
#603=PROPERTY_DEFINITION_REPRESENTATION(#600,#602);
/* Anchor a SHAPE_ASPECT to the solid so the fixture is recognised
   as carrying PMI metadata. */
#610=SHAPE_ASPECT('whole_body','validation property scope',#7,.T.);
#611=GEOMETRIC_ITEM_SPECIFIC_USAGE('GISU',$,#610,#503,#501);
#612=DIMENSIONAL_SIZE(#610,'reference_volume');
ENDSEC;
END-ISO-10303-21;
