ISO-10303-21;
/* Pmi145: AP242 Ed.3 file: prismatic part with one drilled through-hole encoded as (a) B-rep CYLINDRICAL_SURFACE + two PLANE cap ADVANCED_FACE entities and (b) BASIC_ROUND_HOLE / BASIC_ROUND_HOLE_OCCURRENCE feature-semantic entities with internal_diameter=6.0; header OID = {1 0 10303 442 4 1 4}; Ed.3 readers expose the hole as type=through diameter=6.0 via the machining-feature API; Ed.2 / AP214 readers produce Void transfer status on both feature entities — geometry still loads, feature semantic drops silently; steptools notes_ap242e3.html §4.4; FreeCAD #19795; MANIFOLD_SOLID_BREP IS model entity — OCC yields shape(1) */
HEADER;
FILE_DESCRIPTION(('Pmi145'),'2;1');
FILE_NAME('Pmi145.stp','2026-06-17T00:00:00',(''),(''),'cad-research-suite','','');
FILE_SCHEMA(('AUTOMOTIVE_DESIGN { 1 0 10303 442 4 1 4 }'));
ENDSEC;
DATA;
#9000=APPLICATION_CONTEXT('mechanical design');
#1=CARTESIAN_POINT('',(20.0,0,0));
#2=DIRECTION('',(1,0,0));
#3=DIRECTION('',(0,0,1));
#4=AXIS2_PLACEMENT_3D('',#1,#2,#3);
#5=PLANE('',#4);
#6=CARTESIAN_POINT('',(20.0,0,0));
#7=CARTESIAN_POINT('',(20.0,0,10.0));
#8=CARTESIAN_POINT('',(20.0,20.0,10.0));
#9=CARTESIAN_POINT('',(20.0,20.0,0));
#10=VERTEX_POINT('',#6);
#11=VERTEX_POINT('',#7);
#12=VERTEX_POINT('',#8);
#13=VERTEX_POINT('',#9);
#14=DIRECTION('',(0.0,0.0,1.0));
#15=VECTOR('',#14,10.0);
#16=LINE('',#6,#15);
#17=EDGE_CURVE('',#10,#11,#16,.T.);
#18=ORIENTED_EDGE('',$,$,#17,.T.);
#19=DIRECTION('',(0.0,1.0,0.0));
#20=VECTOR('',#19,20.0);
#21=LINE('',#7,#20);
#22=EDGE_CURVE('',#11,#12,#21,.T.);
#23=ORIENTED_EDGE('',$,$,#22,.T.);
#24=DIRECTION('',(0.0,0.0,-1.0));
#25=VECTOR('',#24,10.0);
#26=LINE('',#8,#25);
#27=EDGE_CURVE('',#12,#13,#26,.T.);
#28=ORIENTED_EDGE('',$,$,#27,.T.);
#29=DIRECTION('',(0.0,-1.0,0.0));
#30=VECTOR('',#29,20.0);
#31=LINE('',#9,#30);
#32=EDGE_CURVE('',#13,#10,#31,.T.);
#33=ORIENTED_EDGE('',$,$,#32,.T.);
#34=EDGE_LOOP('',(#18,#23,#28,#33));
#35=FACE_OUTER_BOUND('',#34,.T.);
#36=ADVANCED_FACE('',(#35),#5,.T.);
#37=CARTESIAN_POINT('',(0,0,0));
#38=DIRECTION('',(-1,0,0));
#39=DIRECTION('',(0,0,-1));
#40=AXIS2_PLACEMENT_3D('',#37,#38,#39);
#41=PLANE('',#40);
#42=CARTESIAN_POINT('',(0,0,0));
#43=CARTESIAN_POINT('',(0,20.0,0));
#44=CARTESIAN_POINT('',(0,20.0,10.0));
#45=CARTESIAN_POINT('',(0,0,10.0));
#46=VERTEX_POINT('',#42);
#47=VERTEX_POINT('',#43);
#48=VERTEX_POINT('',#44);
#49=VERTEX_POINT('',#45);
#50=DIRECTION('',(0.0,1.0,0.0));
#51=VECTOR('',#50,20.0);
#52=LINE('',#42,#51);
#53=EDGE_CURVE('',#46,#47,#52,.T.);
#54=ORIENTED_EDGE('',$,$,#53,.T.);
#55=DIRECTION('',(0.0,0.0,1.0));
#56=VECTOR('',#55,10.0);
#57=LINE('',#43,#56);
#58=EDGE_CURVE('',#47,#48,#57,.T.);
#59=ORIENTED_EDGE('',$,$,#58,.T.);
#60=DIRECTION('',(0.0,-1.0,0.0));
#61=VECTOR('',#60,20.0);
#62=LINE('',#44,#61);
#63=EDGE_CURVE('',#48,#49,#62,.T.);
#64=ORIENTED_EDGE('',$,$,#63,.T.);
#65=DIRECTION('',(0.0,0.0,-1.0));
#66=VECTOR('',#65,10.0);
#67=LINE('',#45,#66);
#68=EDGE_CURVE('',#49,#46,#67,.T.);
#69=ORIENTED_EDGE('',$,$,#68,.T.);
#70=EDGE_LOOP('',(#54,#59,#64,#69));
#71=FACE_OUTER_BOUND('',#70,.T.);
#72=ADVANCED_FACE('',(#71),#41,.T.);
#73=CARTESIAN_POINT('',(0,20.0,0));
#74=DIRECTION('',(0,1,0));
#75=DIRECTION('',(1,0,0));
#76=AXIS2_PLACEMENT_3D('',#73,#74,#75);
#77=PLANE('',#76);
#78=CARTESIAN_POINT('',(0,20.0,0));
#79=CARTESIAN_POINT('',(20.0,20.0,0));
#80=CARTESIAN_POINT('',(20.0,20.0,10.0));
#81=CARTESIAN_POINT('',(0,20.0,10.0));
#82=VERTEX_POINT('',#78);
#83=VERTEX_POINT('',#79);
#84=VERTEX_POINT('',#80);
#85=VERTEX_POINT('',#81);
#86=DIRECTION('',(1.0,0.0,0.0));
#87=VECTOR('',#86,20.0);
#88=LINE('',#78,#87);
#89=EDGE_CURVE('',#82,#83,#88,.T.);
#90=ORIENTED_EDGE('',$,$,#89,.T.);
#91=DIRECTION('',(0.0,0.0,1.0));
#92=VECTOR('',#91,10.0);
#93=LINE('',#79,#92);
#94=EDGE_CURVE('',#83,#84,#93,.T.);
#95=ORIENTED_EDGE('',$,$,#94,.T.);
#96=DIRECTION('',(-1.0,0.0,0.0));
#97=VECTOR('',#96,20.0);
#98=LINE('',#80,#97);
#99=EDGE_CURVE('',#84,#85,#98,.T.);
#100=ORIENTED_EDGE('',$,$,#99,.T.);
#101=DIRECTION('',(0.0,0.0,-1.0));
#102=VECTOR('',#101,10.0);
#103=LINE('',#81,#102);
#104=EDGE_CURVE('',#85,#82,#103,.T.);
#105=ORIENTED_EDGE('',$,$,#104,.T.);
#106=EDGE_LOOP('',(#90,#95,#100,#105));
#107=FACE_OUTER_BOUND('',#106,.T.);
#108=ADVANCED_FACE('',(#107),#77,.T.);
#109=CARTESIAN_POINT('',(0,0,0));
#110=DIRECTION('',(0,-1,0));
#111=DIRECTION('',(0,0,1));
#112=AXIS2_PLACEMENT_3D('',#109,#110,#111);
#113=PLANE('',#112);
#114=CARTESIAN_POINT('',(0,0,0));
#115=CARTESIAN_POINT('',(0,0,10.0));
#116=CARTESIAN_POINT('',(20.0,0,10.0));
#117=CARTESIAN_POINT('',(20.0,0,0));
#118=VERTEX_POINT('',#114);
#119=VERTEX_POINT('',#115);
#120=VERTEX_POINT('',#116);
#121=VERTEX_POINT('',#117);
#122=DIRECTION('',(0.0,0.0,1.0));
#123=VECTOR('',#122,10.0);
#124=LINE('',#114,#123);
#125=EDGE_CURVE('',#118,#119,#124,.T.);
#126=ORIENTED_EDGE('',$,$,#125,.T.);
#127=DIRECTION('',(1.0,0.0,0.0));
#128=VECTOR('',#127,20.0);
#129=LINE('',#115,#128);
#130=EDGE_CURVE('',#119,#120,#129,.T.);
#131=ORIENTED_EDGE('',$,$,#130,.T.);
#132=DIRECTION('',(0.0,0.0,-1.0));
#133=VECTOR('',#132,10.0);
#134=LINE('',#116,#133);
#135=EDGE_CURVE('',#120,#121,#134,.T.);
#136=ORIENTED_EDGE('',$,$,#135,.T.);
#137=DIRECTION('',(-1.0,0.0,0.0));
#138=VECTOR('',#137,20.0);
#139=LINE('',#117,#138);
#140=EDGE_CURVE('',#121,#118,#139,.T.);
#141=ORIENTED_EDGE('',$,$,#140,.T.);
#142=EDGE_LOOP('',(#126,#131,#136,#141));
#143=FACE_OUTER_BOUND('',#142,.T.);
#144=ADVANCED_FACE('',(#143),#113,.T.);
#145=CARTESIAN_POINT('',(0,0,10.0));
#146=DIRECTION('',(0,0,1));
#147=DIRECTION('',(1,0,0));
#148=AXIS2_PLACEMENT_3D('',#145,#146,#147);
#149=PLANE('',#148);
#150=CARTESIAN_POINT('',(0,0,10.0));
#151=CARTESIAN_POINT('',(0,20.0,10.0));
#152=CARTESIAN_POINT('',(20.0,20.0,10.0));
#153=CARTESIAN_POINT('',(20.0,0,10.0));
#154=VERTEX_POINT('',#150);
#155=VERTEX_POINT('',#151);
#156=VERTEX_POINT('',#152);
#157=VERTEX_POINT('',#153);
#158=DIRECTION('',(0.0,1.0,0.0));
#159=VECTOR('',#158,20.0);
#160=LINE('',#150,#159);
#161=EDGE_CURVE('',#154,#155,#160,.T.);
#162=ORIENTED_EDGE('',$,$,#161,.T.);
#163=DIRECTION('',(1.0,0.0,0.0));
#164=VECTOR('',#163,20.0);
#165=LINE('',#151,#164);
#166=EDGE_CURVE('',#155,#156,#165,.T.);
#167=ORIENTED_EDGE('',$,$,#166,.T.);
#168=DIRECTION('',(0.0,-1.0,0.0));
#169=VECTOR('',#168,20.0);
#170=LINE('',#152,#169);
#171=EDGE_CURVE('',#156,#157,#170,.T.);
#172=ORIENTED_EDGE('',$,$,#171,.T.);
#173=DIRECTION('',(-1.0,0.0,0.0));
#174=VECTOR('',#173,20.0);
#175=LINE('',#153,#174);
#176=EDGE_CURVE('',#157,#154,#175,.T.);
#177=ORIENTED_EDGE('',$,$,#176,.T.);
#178=EDGE_LOOP('',(#162,#167,#172,#177));
#179=FACE_OUTER_BOUND('',#178,.T.);
#180=ADVANCED_FACE('',(#179),#149,.T.);
#181=CARTESIAN_POINT('',(0,0,0));
#182=DIRECTION('',(0,0,-1));
#183=DIRECTION('',(-1,0,0));
#184=AXIS2_PLACEMENT_3D('',#181,#182,#183);
#185=PLANE('',#184);
#186=CARTESIAN_POINT('',(0,0,0));
#187=CARTESIAN_POINT('',(20.0,0,0));
#188=CARTESIAN_POINT('',(20.0,20.0,0));
#189=CARTESIAN_POINT('',(0,20.0,0));
#190=VERTEX_POINT('',#186);
#191=VERTEX_POINT('',#187);
#192=VERTEX_POINT('',#188);
#193=VERTEX_POINT('',#189);
#194=DIRECTION('',(1.0,0.0,0.0));
#195=VECTOR('',#194,20.0);
#196=LINE('',#186,#195);
#197=EDGE_CURVE('',#190,#191,#196,.T.);
#198=ORIENTED_EDGE('',$,$,#197,.T.);
#199=DIRECTION('',(0.0,1.0,0.0));
#200=VECTOR('',#199,20.0);
#201=LINE('',#187,#200);
#202=EDGE_CURVE('',#191,#192,#201,.T.);
#203=ORIENTED_EDGE('',$,$,#202,.T.);
#204=DIRECTION('',(-1.0,0.0,0.0));
#205=VECTOR('',#204,20.0);
#206=LINE('',#188,#205);
#207=EDGE_CURVE('',#192,#193,#206,.T.);
#208=ORIENTED_EDGE('',$,$,#207,.T.);
#209=DIRECTION('',(0.0,-1.0,0.0));
#210=VECTOR('',#209,20.0);
#211=LINE('',#189,#210);
#212=EDGE_CURVE('',#193,#190,#211,.T.);
#213=ORIENTED_EDGE('',$,$,#212,.T.);
#214=EDGE_LOOP('',(#198,#203,#208,#213));
#215=FACE_OUTER_BOUND('',#214,.T.);
#216=ADVANCED_FACE('',(#215),#185,.T.);
#217=CLOSED_SHELL('pmi145_shell',(#36,#72,#108,#144,#180,#216));
#218=MANIFOLD_SOLID_BREP('pmi145_block',#217);
#9050=PRODUCT_CONTEXT('',#9000,'mechanical');
#9051=PRODUCT('Pmi145','Pmi145','',(#9050));
#9052=PRODUCT_DEFINITION_FORMATION('','',#9051);
#9053=PRODUCT_DEFINITION_CONTEXT('part definition',#9000,'design');
#9054=PRODUCT_DEFINITION('','','',#9052,#9053);
#9055=PRODUCT_DEFINITION_SHAPE('','','',#9054);
#9056=(LENGTH_UNIT()NAMED_UNIT(*)SI_UNIT(.MILLI.,.METRE.));
#9057=(NAMED_UNIT(*)PLANE_ANGLE_UNIT()SI_UNIT($,.RADIAN.));
#9058=(NAMED_UNIT(*)SI_UNIT($,.STERADIAN.)SOLID_ANGLE_UNIT());
#9059=UNCERTAINTY_MEASURE_WITH_UNIT(.LENGTH_MEASURE(1.0E-7).,#9056,'distance_accuracy_value','');
#9060=(GEOMETRIC_REPRESENTATION_CONTEXT(3)GLOBAL_UNCERTAINTY_ASSIGNED_CONTEXT((#9059))GLOBAL_UNIT_ASSIGNED_CONTEXT((#9056,#9057,#9058))REPRESENTATION_CONTEXT('','3D'));
#9061=ADVANCED_BREP_SHAPE_REPRESENTATION('',(#218),#9060);
#9062=SHAPE_DEFINITION_REPRESENTATION(#9055,#9061);
#9063=CARTESIAN_POINT('',(10.0,10.0,0.0));
#9064=DIRECTION('',(0.0,0.0,1.0));
#9065=DIRECTION('',(1.0,0.0,0.0));
#9066=AXIS2_PLACEMENT_3D('',#9063,#9064,#9065);
#9067=CYLINDRICAL_SURFACE('pmi145_hole_wall',#9066,3.0);
#9068=CARTESIAN_POINT('',(13.0,10.0,0.0));
#9069=CARTESIAN_POINT('',(13.0,10.0,10.0));
#9070=VERTEX_POINT('',#9068);
#9071=VERTEX_POINT('',#9069);
#9072=DIRECTION('',(0.0,0.0,1.0));
#9073=VECTOR('',#9072,10.0);
#9074=LINE('',#9068,#9073);
#9075=EDGE_CURVE('',#9070,#9071,#9074,.T.);
#9076=CARTESIAN_POINT('',(10.0,10.0,0.0));
#9077=DIRECTION('',(0.0,0.0,1.0));
#9078=DIRECTION('',(1.0,0.0,0.0));
#9079=AXIS2_PLACEMENT_3D('',#9076,#9077,#9078);
#9080=CIRCLE('pmi145_bot_edge',#9079,3.0);
#9081=EDGE_CURVE('pmi145_bot_edge',#9070,#9070,#9080,.T.);
#9082=CARTESIAN_POINT('',(10.0,10.0,10.0));
#9083=DIRECTION('',(0.0,0.0,1.0));
#9084=DIRECTION('',(1.0,0.0,0.0));
#9085=AXIS2_PLACEMENT_3D('',#9082,#9083,#9084);
#9086=CIRCLE('pmi145_top_edge',#9085,3.0);
#9087=EDGE_CURVE('pmi145_top_edge',#9071,#9071,#9086,.T.);
#9088=ORIENTED_EDGE('',$,$,#9081,.T.);
#9089=ORIENTED_EDGE('',$,$,#9075,.T.);
#9090=ORIENTED_EDGE('',$,$,#9087,.F.);
#9091=ORIENTED_EDGE('',$,$,#9075,.F.);
#9092=EDGE_LOOP('',(#9088,#9089,#9090,#9091));
#9093=FACE_OUTER_BOUND('',#9092,.T.);
#9094=ADVANCED_FACE('pmi145_hole_wall_face',(#9093),#9067,.T.);
#9095=CARTESIAN_POINT('',(10.0,10.0,0.0));
#9096=DIRECTION('',(0.0,0.0,-1.0));
#9097=DIRECTION('',(1.0,0.0,0.0));
#9098=AXIS2_PLACEMENT_3D('',#9095,#9096,#9097);
#9099=PLANE('pmi145_cap0_plane',#9098);
#9100=ORIENTED_EDGE('',$,$,#9081,.T.);
#9101=EDGE_LOOP('',(#9100));
#9102=FACE_OUTER_BOUND('',#9101,.T.);
#9103=ADVANCED_FACE('pmi145_cap0_face',(#9102),#9099,.T.);
#9104=CARTESIAN_POINT('',(10.0,10.0,10.0));
#9105=DIRECTION('',(0.0,0.0,1.0));
#9106=DIRECTION('',(1.0,0.0,0.0));
#9107=AXIS2_PLACEMENT_3D('',#9104,#9105,#9106);
#9108=PLANE('pmi145_capH_plane',#9107);
#9109=ORIENTED_EDGE('',$,$,#9087,.T.);
#9110=EDGE_LOOP('',(#9109));
#9111=FACE_OUTER_BOUND('',#9110,.T.);
#9112=ADVANCED_FACE('pmi145_capH_face',(#9111),#9108,.T.);
#9113=SHAPE_ASPECT('through_hole_1','drilled through hole feature aspect',#9055,.F.);
#9114=BASIC_ROUND_HOLE('brh_1','through_hole',#9113,POSITIVE_LENGTH_MEASURE(6.0));
#9115=BASIC_ROUND_HOLE_OCCURRENCE('brh_occ_1','through_hole_face',#9113,#9114,#9094);
#9116=PROPERTY_DEFINITION('hole_feature','drilled hole feature',#9055);
#9117=REPRESENTATION('hole_feature_rep',(#9114,#9115,#9094,#9103,#9112),#9060);
#9118=PROPERTY_DEFINITION_REPRESENTATION(#9116,#9117);
ENDSEC;
END-ISO-10303-21;
